<svg width="541" height="427" viewBox="0 0 541 427" fill="none" xmlns="http://www.w3.org/2000/svg">
<path d="M0 123.5L1.5 29L285.5 28V0L335.5 67.5L302 144.5L297.5 113.5C297.5 113.5 277.123 118.088 266 125C254.155 132.36 240.5 150 240.5 150L217.5 108.5H108.5L130.5 123.5H0Z" fill="#71B8B8" fill-opacity="0.4"/>
<path d="M344 65.5L313.5 26.5C313.5 26.5 363 28 402 52.5C427.208 68.3361 453.5 103.5 453.5 103.5L479.5 88.5L439 162.5H352L379 144.5C379 144.5 366.629 131.252 357 125C345.624 117.614 325 111.5 325 111.5L344 65.5Z" fill="#879E9F" fill-opacity="0.4"/>
<path d="M395.499 300.497L446 298C446 298 425.523 328.063 384.5 349C357.984 362.533 320.547 363.999 320.547 363.999L319.499 396.499L278.999 324.997L319.999 251.997L319.999 281.497C319.999 281.497 337.196 279.062 347.499 273.997C359.671 268.013 372.499 255.497 372.499 255.497L395.499 300.497Z" fill="#879E9F" fill-opacity="0.4"/>
<path d="M269.5 326L291.999 364.498C291.999 364.498 234.725 357.367 200.998 326.002C179.199 305.728 165.5 285.5 165.5 285.5L138 296L191.5 231.5L275 247L250 256C250 256 259.676 265.492 267 270C276.635 275.93 294 280.5 294 280.5L269.5 326Z" fill="#71B8B8" fill-opacity="0.4"/>
<path d="M187.999 224.002L153.999 263.5C153.999 263.5 136.932 234.456 139.999 188.502C141.981 158.798 153.534 129.715 153.534 129.715L128.04 114.998L211.837 115.831L255.999 188.502L226.999 171.502C226.999 171.502 222.378 190.975 223.499 199.502C224.974 210.719 231.499 230.002 231.499 230.002L187.999 224.002Z" fill="#879E9F" fill-opacity="0.4"/>
<path d="M442.997 169.997L466.498 128.499C466.498 128.499 482.6 161.491 480.498 207.5C479.139 237.239 461.498 275.5 461.498 275.5L486.498 290.5L400.498 292.5L358.967 217.512L387.935 232.137C387.935 232.137 395.302 216.46 395.998 205C396.82 191.462 392.997 169.997 392.997 169.997L442.997 169.997Z" fill="#71B8B8"/>
<path d="M205.722 62.1504C207.38 62.1504 208.59 62.5078 209.352 63.2227C210.113 63.9316 210.494 64.9102 210.494 66.1582C210.494 66.7207 210.409 67.2598 210.239 67.7754C210.069 68.2852 209.791 68.7393 209.404 69.1377C209.023 69.5361 208.514 69.8525 207.875 70.0869C207.236 70.3154 206.448 70.4297 205.511 70.4297H204.342V75H201.617V62.1504H205.722ZM205.581 64.3828H204.342V68.1973H205.238C205.748 68.1973 206.19 68.1299 206.565 67.9951C206.94 67.8604 207.23 67.6494 207.436 67.3623C207.641 67.0752 207.743 66.7061 207.743 66.2549C207.743 65.6221 207.567 65.1533 207.216 64.8486C206.864 64.5381 206.319 64.3828 205.581 64.3828ZM218.193 64.9893C218.328 64.9893 218.483 64.998 218.659 65.0156C218.841 65.0273 218.987 65.0449 219.099 65.0684L218.896 67.582C218.809 67.5527 218.683 67.5322 218.519 67.5205C218.36 67.5029 218.223 67.4941 218.105 67.4941C217.76 67.4941 217.423 67.5381 217.095 67.626C216.772 67.7139 216.482 67.8574 216.225 68.0566C215.967 68.25 215.762 68.5078 215.609 68.8301C215.463 69.1465 215.39 69.5361 215.39 69.999V75H212.709V65.1738H214.739L215.135 66.8262H215.267C215.46 66.4922 215.7 66.1875 215.987 65.9121C216.28 65.6309 216.611 65.4082 216.98 65.2441C217.355 65.0742 217.76 64.9893 218.193 64.9893ZM224.935 64.9893C225.843 64.9893 226.625 65.165 227.281 65.5166C227.938 65.8623 228.444 66.3662 228.802 67.0283C229.159 67.6904 229.338 68.499 229.338 69.4541V70.7549H223.001C223.03 71.5107 223.256 72.1055 223.678 72.5391C224.105 72.9668 224.697 73.1807 225.453 73.1807C226.08 73.1807 226.654 73.1162 227.176 72.9873C227.697 72.8584 228.233 72.665 228.784 72.4072V74.4814C228.298 74.7217 227.788 74.8975 227.255 75.0088C226.728 75.1201 226.086 75.1758 225.33 75.1758C224.346 75.1758 223.473 74.9941 222.711 74.6309C221.955 74.2676 221.36 73.7139 220.927 72.9697C220.499 72.2256 220.285 71.2881 220.285 70.1572C220.285 69.0088 220.479 68.0537 220.865 67.292C221.258 66.5244 221.803 65.9502 222.5 65.5693C223.197 65.1826 224.009 64.9893 224.935 64.9893ZM224.952 66.8965C224.431 66.8965 223.997 67.0635 223.651 67.3975C223.312 67.7314 223.115 68.2559 223.062 68.9707H226.824C226.818 68.5723 226.745 68.2178 226.604 67.9072C226.47 67.5967 226.265 67.3506 225.989 67.1689C225.72 66.9873 225.374 66.8965 224.952 66.8965ZM236.984 64.9893C238.092 64.9893 238.985 65.4199 239.665 66.2812C240.351 67.1426 240.693 68.4053 240.693 70.0693C240.693 71.1826 240.532 72.1201 240.21 72.8818C239.888 73.6377 239.442 74.209 238.874 74.5957C238.306 74.9824 237.652 75.1758 236.914 75.1758C236.439 75.1758 236.032 75.1172 235.692 75C235.353 74.877 235.062 74.7217 234.822 74.5342C234.582 74.3408 234.374 74.1357 234.198 73.9189H234.058C234.104 74.1533 234.14 74.3936 234.163 74.6396C234.187 74.8857 234.198 75.126 234.198 75.3604V79.3242H231.518V65.1738H233.697L234.075 66.4482H234.198C234.374 66.1846 234.588 65.9414 234.84 65.7188C235.092 65.4961 235.394 65.3203 235.745 65.1914C236.103 65.0566 236.516 64.9893 236.984 64.9893ZM236.123 67.1338C235.654 67.1338 235.282 67.2305 235.007 67.4238C234.731 67.6172 234.529 67.9072 234.4 68.2939C234.277 68.6807 234.21 69.1699 234.198 69.7617V70.0518C234.198 70.6846 234.257 71.2207 234.374 71.6602C234.497 72.0996 234.699 72.4336 234.98 72.6621C235.268 72.8906 235.66 73.0049 236.158 73.0049C236.568 73.0049 236.905 72.8906 237.169 72.6621C237.433 72.4336 237.629 72.0996 237.758 71.6602C237.893 71.2148 237.96 70.6729 237.96 70.0342C237.96 69.0732 237.811 68.3496 237.512 67.8633C237.213 67.377 236.75 67.1338 236.123 67.1338ZM246.934 64.9717C248.252 64.9717 249.263 65.2588 249.966 65.833C250.669 66.4072 251.021 67.2803 251.021 68.4521V75H249.148L248.63 73.6641H248.56C248.278 74.0156 247.991 74.3027 247.698 74.5254C247.405 74.748 247.068 74.9121 246.688 75.0176C246.307 75.123 245.844 75.1758 245.299 75.1758C244.719 75.1758 244.197 75.0645 243.734 74.8418C243.277 74.6191 242.917 74.2793 242.653 73.8223C242.39 73.3594 242.258 72.7734 242.258 72.0645C242.258 71.0215 242.624 70.2539 243.356 69.7617C244.089 69.2637 245.188 68.9883 246.652 68.9355L248.357 68.8828V68.4521C248.357 67.9365 248.223 67.5586 247.953 67.3184C247.684 67.0781 247.309 66.958 246.828 66.958C246.354 66.958 245.888 67.0254 245.431 67.1602C244.974 67.2949 244.517 67.4648 244.06 67.6699L243.172 65.8594C243.693 65.584 244.276 65.3672 244.921 65.209C245.571 65.0508 246.242 64.9717 246.934 64.9717ZM248.357 70.4473L247.32 70.4824C246.453 70.5059 245.85 70.6611 245.51 70.9482C245.176 71.2354 245.009 71.6133 245.009 72.082C245.009 72.4922 245.129 72.7852 245.369 72.9609C245.609 73.1309 245.923 73.2158 246.31 73.2158C246.884 73.2158 247.367 73.0459 247.76 72.7061C248.158 72.3662 248.357 71.8828 248.357 71.2559V70.4473ZM259.273 64.9893C259.408 64.9893 259.563 64.998 259.739 65.0156C259.921 65.0273 260.067 65.0449 260.179 65.0684L259.977 67.582C259.889 67.5527 259.763 67.5322 259.599 67.5205C259.44 67.5029 259.303 67.4941 259.186 67.4941C258.84 67.4941 258.503 67.5381 258.175 67.626C257.853 67.7139 257.562 67.8574 257.305 68.0566C257.047 68.25 256.842 68.5078 256.689 68.8301C256.543 69.1465 256.47 69.5361 256.47 69.999V75H253.789V65.1738H255.819L256.215 66.8262H256.347C256.54 66.4922 256.78 66.1875 257.067 65.9121C257.36 65.6309 257.691 65.4082 258.061 65.2441C258.436 65.0742 258.84 64.9893 259.273 64.9893ZM266.015 64.9893C266.923 64.9893 267.705 65.165 268.361 65.5166C269.018 65.8623 269.524 66.3662 269.882 67.0283C270.239 67.6904 270.418 68.499 270.418 69.4541V70.7549H264.081C264.11 71.5107 264.336 72.1055 264.758 72.5391C265.186 72.9668 265.777 73.1807 266.533 73.1807C267.16 73.1807 267.734 73.1162 268.256 72.9873C268.777 72.8584 269.313 72.665 269.864 72.4072V74.4814C269.378 74.7217 268.868 74.8975 268.335 75.0088C267.808 75.1201 267.166 75.1758 266.41 75.1758C265.426 75.1758 264.553 74.9941 263.791 74.6309C263.035 74.2676 262.44 73.7139 262.007 72.9697C261.579 72.2256 261.365 71.2881 261.365 70.1572C261.365 69.0088 261.559 68.0537 261.945 67.292C262.338 66.5244 262.883 65.9502 263.58 65.5693C264.277 65.1826 265.089 64.9893 266.015 64.9893ZM266.032 66.8965C265.511 66.8965 265.077 67.0635 264.731 67.3975C264.392 67.7314 264.195 68.2559 264.143 68.9707H267.904C267.898 68.5723 267.825 68.2178 267.685 67.9072C267.55 67.5967 267.345 67.3506 267.069 67.1689C266.8 66.9873 266.454 66.8965 266.032 66.8965Z" fill="#464646" fill-opacity="0.4"/>
<path d="M370.483 104L369.552 100.941H364.867L363.936 104H361L365.535 91.0977H368.866L373.419 104H370.483ZM368.901 98.6562L367.97 95.668C367.911 95.4688 367.832 95.2139 367.732 94.9033C367.639 94.5869 367.542 94.2676 367.442 93.9453C367.349 93.6172 367.272 93.333 367.214 93.0928C367.155 93.333 367.073 93.6318 366.968 93.9893C366.868 94.3408 366.771 94.6748 366.678 94.9912C366.584 95.3076 366.517 95.5332 366.476 95.668L365.553 98.6562H368.901ZM381.689 101.082C381.689 101.75 381.531 102.315 381.215 102.778C380.904 103.235 380.438 103.584 379.817 103.824C379.196 104.059 378.423 104.176 377.497 104.176C376.812 104.176 376.223 104.132 375.73 104.044C375.244 103.956 374.752 103.81 374.254 103.604V101.39C374.787 101.63 375.358 101.829 375.968 101.987C376.583 102.14 377.122 102.216 377.585 102.216C378.106 102.216 378.479 102.14 378.701 101.987C378.93 101.829 379.044 101.624 379.044 101.372C379.044 101.208 378.997 101.062 378.903 100.933C378.815 100.798 378.622 100.648 378.323 100.484C378.024 100.314 377.556 100.095 376.917 99.8252C376.302 99.5674 375.795 99.3066 375.396 99.043C375.004 98.7793 374.711 98.4688 374.518 98.1113C374.33 97.748 374.236 97.2881 374.236 96.7314C374.236 95.8232 374.588 95.1406 375.291 94.6836C376 94.2207 376.946 93.9893 378.13 93.9893C378.739 93.9893 379.319 94.0508 379.87 94.1738C380.427 94.2969 380.998 94.4932 381.584 94.7627L380.775 96.6963C380.289 96.4854 379.829 96.3125 379.396 96.1777C378.968 96.043 378.531 95.9756 378.086 95.9756C377.693 95.9756 377.397 96.0283 377.198 96.1338C376.999 96.2393 376.899 96.4004 376.899 96.6172C376.899 96.7754 376.949 96.916 377.049 97.0391C377.154 97.1621 377.354 97.2998 377.646 97.4521C377.945 97.5986 378.382 97.7891 378.956 98.0234C379.513 98.252 379.996 98.4922 380.406 98.7441C380.816 98.9902 381.133 99.2979 381.355 99.667C381.578 100.03 381.689 100.502 381.689 101.082ZM390.637 101.082C390.637 101.75 390.479 102.315 390.162 102.778C389.852 103.235 389.386 103.584 388.765 103.824C388.144 104.059 387.37 104.176 386.444 104.176C385.759 104.176 385.17 104.132 384.678 104.044C384.191 103.956 383.699 103.81 383.201 103.604V101.39C383.734 101.63 384.306 101.829 384.915 101.987C385.53 102.14 386.069 102.216 386.532 102.216C387.054 102.216 387.426 102.14 387.648 101.987C387.877 101.829 387.991 101.624 387.991 101.372C387.991 101.208 387.944 101.062 387.851 100.933C387.763 100.798 387.569 100.648 387.271 100.484C386.972 100.314 386.503 100.095 385.864 99.8252C385.249 99.5674 384.742 99.3066 384.344 99.043C383.951 98.7793 383.658 98.4688 383.465 98.1113C383.277 97.748 383.184 97.2881 383.184 96.7314C383.184 95.8232 383.535 95.1406 384.238 94.6836C384.947 94.2207 385.894 93.9893 387.077 93.9893C387.687 93.9893 388.267 94.0508 388.817 94.1738C389.374 94.2969 389.945 94.4932 390.531 94.7627L389.723 96.6963C389.236 96.4854 388.776 96.3125 388.343 96.1777C387.915 96.043 387.479 95.9756 387.033 95.9756C386.641 95.9756 386.345 96.0283 386.146 96.1338C385.946 96.2393 385.847 96.4004 385.847 96.6172C385.847 96.7754 385.896 96.916 385.996 97.0391C386.102 97.1621 386.301 97.2998 386.594 97.4521C386.893 97.5986 387.329 97.7891 387.903 98.0234C388.46 98.252 388.943 98.4922 389.354 98.7441C389.764 98.9902 390.08 99.2979 390.303 99.667C390.525 100.03 390.637 100.502 390.637 101.082ZM396.78 93.9893C397.688 93.9893 398.471 94.165 399.127 94.5166C399.783 94.8623 400.29 95.3662 400.647 96.0283C401.005 96.6904 401.184 97.499 401.184 98.4541V99.7549H394.847C394.876 100.511 395.102 101.105 395.523 101.539C395.951 101.967 396.543 102.181 397.299 102.181C397.926 102.181 398.5 102.116 399.021 101.987C399.543 101.858 400.079 101.665 400.63 101.407V103.481C400.144 103.722 399.634 103.897 399.101 104.009C398.573 104.12 397.932 104.176 397.176 104.176C396.191 104.176 395.318 103.994 394.557 103.631C393.801 103.268 393.206 102.714 392.772 101.97C392.345 101.226 392.131 100.288 392.131 99.1572C392.131 98.0088 392.324 97.0537 392.711 96.292C393.104 95.5244 393.648 94.9502 394.346 94.5693C395.043 94.1826 395.854 93.9893 396.78 93.9893ZM396.798 95.8965C396.276 95.8965 395.843 96.0635 395.497 96.3975C395.157 96.7314 394.961 97.2559 394.908 97.9707H398.67C398.664 97.5723 398.591 97.2178 398.45 96.9072C398.315 96.5967 398.11 96.3506 397.835 96.1689C397.565 95.9873 397.22 95.8965 396.798 95.8965ZM410.219 101.082C410.219 101.75 410.061 102.315 409.744 102.778C409.434 103.235 408.968 103.584 408.347 103.824C407.726 104.059 406.952 104.176 406.026 104.176C405.341 104.176 404.752 104.132 404.26 104.044C403.773 103.956 403.281 103.81 402.783 103.604V101.39C403.316 101.63 403.888 101.829 404.497 101.987C405.112 102.14 405.651 102.216 406.114 102.216C406.636 102.216 407.008 102.14 407.23 101.987C407.459 101.829 407.573 101.624 407.573 101.372C407.573 101.208 407.526 101.062 407.433 100.933C407.345 100.798 407.151 100.648 406.853 100.484C406.554 100.314 406.085 100.095 405.446 99.8252C404.831 99.5674 404.324 99.3066 403.926 99.043C403.533 98.7793 403.24 98.4688 403.047 98.1113C402.859 97.748 402.766 97.2881 402.766 96.7314C402.766 95.8232 403.117 95.1406 403.82 94.6836C404.529 94.2207 405.476 93.9893 406.659 93.9893C407.269 93.9893 407.849 94.0508 408.399 94.1738C408.956 94.2969 409.527 94.4932 410.113 94.7627L409.305 96.6963C408.818 96.4854 408.358 96.3125 407.925 96.1777C407.497 96.043 407.061 95.9756 406.615 95.9756C406.223 95.9756 405.927 96.0283 405.728 96.1338C405.528 96.2393 405.429 96.4004 405.429 96.6172C405.429 96.7754 405.479 96.916 405.578 97.0391C405.684 97.1621 405.883 97.2998 406.176 97.4521C406.475 97.5986 406.911 97.7891 407.485 98.0234C408.042 98.252 408.525 98.4922 408.936 98.7441C409.346 98.9902 409.662 99.2979 409.885 99.667C410.107 100.03 410.219 100.502 410.219 101.082ZM419.166 101.082C419.166 101.75 419.008 102.315 418.691 102.778C418.381 103.235 417.915 103.584 417.294 103.824C416.673 104.059 415.899 104.176 414.974 104.176C414.288 104.176 413.699 104.132 413.207 104.044C412.721 103.956 412.229 103.81 411.73 103.604V101.39C412.264 101.63 412.835 101.829 413.444 101.987C414.06 102.14 414.599 102.216 415.062 102.216C415.583 102.216 415.955 102.14 416.178 101.987C416.406 101.829 416.521 101.624 416.521 101.372C416.521 101.208 416.474 101.062 416.38 100.933C416.292 100.798 416.099 100.648 415.8 100.484C415.501 100.314 415.032 100.095 414.394 99.8252C413.778 99.5674 413.271 99.3066 412.873 99.043C412.48 98.7793 412.188 98.4688 411.994 98.1113C411.807 97.748 411.713 97.2881 411.713 96.7314C411.713 95.8232 412.064 95.1406 412.768 94.6836C413.477 94.2207 414.423 93.9893 415.606 93.9893C416.216 93.9893 416.796 94.0508 417.347 94.1738C417.903 94.2969 418.475 94.4932 419.061 94.7627L418.252 96.6963C417.766 96.4854 417.306 96.3125 416.872 96.1777C416.444 96.043 416.008 95.9756 415.562 95.9756C415.17 95.9756 414.874 96.0283 414.675 96.1338C414.476 96.2393 414.376 96.4004 414.376 96.6172C414.376 96.7754 414.426 96.916 414.525 97.0391C414.631 97.1621 414.83 97.2998 415.123 97.4521C415.422 97.5986 415.858 97.7891 416.433 98.0234C416.989 98.252 417.473 98.4922 417.883 98.7441C418.293 98.9902 418.609 99.2979 418.832 99.667C419.055 100.03 419.166 100.502 419.166 101.082Z" fill="#464646" fill-opacity="0.4"/>
<path d="M425.517 198.432C425.517 199.193 425.332 199.855 424.963 200.418C424.594 200.98 424.055 201.414 423.346 201.719C422.643 202.023 421.787 202.176 420.779 202.176C420.334 202.176 419.897 202.146 419.47 202.088C419.048 202.029 418.641 201.944 418.248 201.833C417.861 201.716 417.492 201.572 417.141 201.402V198.871C417.75 199.141 418.383 199.384 419.039 199.601C419.695 199.817 420.346 199.926 420.99 199.926C421.436 199.926 421.793 199.867 422.062 199.75C422.338 199.633 422.537 199.472 422.66 199.267C422.783 199.062 422.845 198.827 422.845 198.563C422.845 198.241 422.736 197.966 422.52 197.737C422.303 197.509 422.004 197.295 421.623 197.096C421.248 196.896 420.823 196.683 420.349 196.454C420.05 196.313 419.725 196.144 419.373 195.944C419.021 195.739 418.688 195.49 418.371 195.197C418.055 194.904 417.794 194.55 417.589 194.134C417.39 193.712 417.29 193.208 417.29 192.622C417.29 191.854 417.466 191.198 417.817 190.653C418.169 190.108 418.67 189.692 419.32 189.405C419.977 189.112 420.75 188.966 421.641 188.966C422.309 188.966 422.944 189.045 423.548 189.203C424.157 189.355 424.793 189.578 425.455 189.871L424.576 191.989C423.984 191.749 423.454 191.564 422.985 191.436C422.517 191.301 422.039 191.233 421.553 191.233C421.213 191.233 420.923 191.289 420.683 191.4C420.442 191.506 420.261 191.658 420.138 191.857C420.015 192.051 419.953 192.276 419.953 192.534C419.953 192.839 420.041 193.097 420.217 193.308C420.398 193.513 420.668 193.712 421.025 193.905C421.389 194.099 421.84 194.324 422.379 194.582C423.035 194.893 423.595 195.218 424.058 195.558C424.526 195.892 424.887 196.287 425.139 196.744C425.391 197.195 425.517 197.758 425.517 198.432ZM431.687 191.989C432.595 191.989 433.377 192.165 434.033 192.517C434.689 192.862 435.196 193.366 435.554 194.028C435.911 194.69 436.09 195.499 436.09 196.454V197.755H429.753C429.782 198.511 430.008 199.105 430.43 199.539C430.857 199.967 431.449 200.181 432.205 200.181C432.832 200.181 433.406 200.116 433.928 199.987C434.449 199.858 434.985 199.665 435.536 199.407V201.481C435.05 201.722 434.54 201.897 434.007 202.009C433.479 202.12 432.838 202.176 432.082 202.176C431.098 202.176 430.225 201.994 429.463 201.631C428.707 201.268 428.112 200.714 427.679 199.97C427.251 199.226 427.037 198.288 427.037 197.157C427.037 196.009 427.23 195.054 427.617 194.292C428.01 193.524 428.555 192.95 429.252 192.569C429.949 192.183 430.761 191.989 431.687 191.989ZM431.704 193.896C431.183 193.896 430.749 194.063 430.403 194.397C430.063 194.731 429.867 195.256 429.814 195.971H433.576C433.57 195.572 433.497 195.218 433.356 194.907C433.222 194.597 433.017 194.351 432.741 194.169C432.472 193.987 432.126 193.896 431.704 193.896ZM442.409 200.04C442.702 200.04 442.986 200.011 443.262 199.952C443.543 199.894 443.821 199.82 444.097 199.732V201.728C443.81 201.856 443.452 201.962 443.024 202.044C442.603 202.132 442.14 202.176 441.636 202.176C441.05 202.176 440.522 202.082 440.054 201.895C439.591 201.701 439.225 201.37 438.955 200.901C438.691 200.427 438.56 199.768 438.56 198.924V194.187H437.276V193.053L438.753 192.156L439.526 190.082H441.24V192.174H443.991V194.187H441.24V198.924C441.24 199.299 441.346 199.58 441.557 199.768C441.773 199.949 442.058 200.04 442.409 200.04ZM420.902 222.04C421.195 222.04 421.479 222.011 421.755 221.952C422.036 221.894 422.314 221.82 422.59 221.732V223.728C422.303 223.856 421.945 223.962 421.518 224.044C421.096 224.132 420.633 224.176 420.129 224.176C419.543 224.176 419.016 224.082 418.547 223.895C418.084 223.701 417.718 223.37 417.448 222.901C417.185 222.427 417.053 221.768 417.053 220.924V216.187H415.77V215.053L417.246 214.156L418.02 212.082H419.733V214.174H422.484V216.187H419.733V220.924C419.733 221.299 419.839 221.58 420.05 221.768C420.267 221.949 420.551 222.04 420.902 222.04ZM427.266 210.324V213.11C427.266 213.597 427.248 214.06 427.213 214.499C427.184 214.938 427.16 215.249 427.143 215.431H427.283C427.494 215.091 427.743 214.815 428.03 214.604C428.323 214.394 428.646 214.238 428.997 214.139C429.349 214.039 429.727 213.989 430.131 213.989C430.84 213.989 431.458 214.115 431.985 214.367C432.513 214.613 432.923 215.003 433.216 215.536C433.509 216.063 433.655 216.749 433.655 217.593V224H430.975V218.261C430.975 217.558 430.846 217.027 430.588 216.67C430.33 216.312 429.932 216.134 429.393 216.134C428.854 216.134 428.429 216.26 428.118 216.512C427.808 216.758 427.588 217.124 427.459 217.61C427.33 218.091 427.266 218.68 427.266 219.377V224H424.585V210.324H427.266ZM440.467 213.989C441.375 213.989 442.157 214.165 442.813 214.517C443.47 214.862 443.977 215.366 444.334 216.028C444.691 216.69 444.87 217.499 444.87 218.454V219.755H438.533C438.562 220.511 438.788 221.105 439.21 221.539C439.638 221.967 440.229 222.181 440.985 222.181C441.612 222.181 442.187 222.116 442.708 221.987C443.229 221.858 443.766 221.665 444.316 221.407V223.481C443.83 223.722 443.32 223.897 442.787 224.009C442.26 224.12 441.618 224.176 440.862 224.176C439.878 224.176 439.005 223.994 438.243 223.631C437.487 223.268 436.893 222.714 436.459 221.97C436.031 221.226 435.817 220.288 435.817 219.157C435.817 218.009 436.011 217.054 436.397 216.292C436.79 215.524 437.335 214.95 438.032 214.569C438.729 214.183 439.541 213.989 440.467 213.989ZM440.484 215.896C439.963 215.896 439.529 216.063 439.184 216.397C438.844 216.731 438.647 217.256 438.595 217.971H442.356C442.351 217.572 442.277 217.218 442.137 216.907C442.002 216.597 441.797 216.351 441.521 216.169C441.252 215.987 440.906 215.896 440.484 215.896ZM408.018 246H405.293V235.418H401.804V233.15H411.507V235.418H408.018V246ZM417.299 235.972C418.617 235.972 419.628 236.259 420.331 236.833C421.034 237.407 421.386 238.28 421.386 239.452V246H419.514L418.995 244.664H418.925C418.644 245.016 418.356 245.303 418.063 245.525C417.771 245.748 417.434 245.912 417.053 246.018C416.672 246.123 416.209 246.176 415.664 246.176C415.084 246.176 414.562 246.064 414.1 245.842C413.643 245.619 413.282 245.279 413.019 244.822C412.755 244.359 412.623 243.773 412.623 243.064C412.623 242.021 412.989 241.254 413.722 240.762C414.454 240.264 415.553 239.988 417.018 239.936L418.723 239.883V239.452C418.723 238.937 418.588 238.559 418.318 238.318C418.049 238.078 417.674 237.958 417.193 237.958C416.719 237.958 416.253 238.025 415.796 238.16C415.339 238.295 414.882 238.465 414.425 238.67L413.537 236.859C414.059 236.584 414.642 236.367 415.286 236.209C415.937 236.051 416.607 235.972 417.299 235.972ZM418.723 241.447L417.686 241.482C416.818 241.506 416.215 241.661 415.875 241.948C415.541 242.235 415.374 242.613 415.374 243.082C415.374 243.492 415.494 243.785 415.734 243.961C415.975 244.131 416.288 244.216 416.675 244.216C417.249 244.216 417.732 244.046 418.125 243.706C418.523 243.366 418.723 242.883 418.723 242.256V241.447ZM429.639 235.989C429.773 235.989 429.929 235.998 430.104 236.016C430.286 236.027 430.433 236.045 430.544 236.068L430.342 238.582C430.254 238.553 430.128 238.532 429.964 238.521C429.806 238.503 429.668 238.494 429.551 238.494C429.205 238.494 428.868 238.538 428.54 238.626C428.218 238.714 427.928 238.857 427.67 239.057C427.412 239.25 427.207 239.508 427.055 239.83C426.908 240.146 426.835 240.536 426.835 240.999V246H424.154V236.174H426.185L426.58 237.826H426.712C426.905 237.492 427.146 237.188 427.433 236.912C427.726 236.631 428.057 236.408 428.426 236.244C428.801 236.074 429.205 235.989 429.639 235.989ZM435.202 250.324C433.831 250.324 432.782 250.084 432.056 249.604C431.335 249.129 430.975 248.461 430.975 247.6C430.975 247.008 431.159 246.513 431.528 246.114C431.897 245.716 432.439 245.432 433.154 245.262C432.879 245.145 432.639 244.954 432.434 244.69C432.229 244.421 432.126 244.137 432.126 243.838C432.126 243.463 432.234 243.152 432.451 242.906C432.668 242.654 432.981 242.408 433.392 242.168C432.876 241.945 432.466 241.588 432.161 241.096C431.862 240.604 431.713 240.023 431.713 239.355C431.713 238.641 431.868 238.034 432.179 237.536C432.495 237.032 432.952 236.648 433.55 236.385C434.153 236.121 434.886 235.989 435.747 235.989C435.929 235.989 436.14 236.001 436.38 236.024C436.62 236.048 436.84 236.074 437.039 236.104C437.244 236.133 437.382 236.156 437.452 236.174H440.88V237.536L439.342 237.932C439.482 238.148 439.588 238.38 439.658 238.626C439.729 238.872 439.764 239.133 439.764 239.408C439.764 240.463 439.395 241.286 438.656 241.878C437.924 242.464 436.904 242.757 435.598 242.757C435.287 242.739 434.994 242.716 434.719 242.687C434.584 242.792 434.481 242.903 434.411 243.021C434.341 243.138 434.306 243.261 434.306 243.39C434.306 243.519 434.358 243.627 434.464 243.715C434.575 243.797 434.739 243.861 434.956 243.908C435.179 243.949 435.454 243.97 435.782 243.97H437.452C438.53 243.97 439.351 244.201 439.913 244.664C440.481 245.127 440.766 245.807 440.766 246.703C440.766 247.852 440.285 248.742 439.324 249.375C438.369 250.008 436.995 250.324 435.202 250.324ZM435.316 248.575C435.955 248.575 436.503 248.514 436.96 248.391C437.423 248.273 437.777 248.104 438.023 247.881C438.27 247.664 438.393 247.403 438.393 247.099C438.393 246.853 438.319 246.656 438.173 246.51C438.032 246.369 437.815 246.27 437.522 246.211C437.235 246.152 436.866 246.123 436.415 246.123H435.026C434.698 246.123 434.402 246.176 434.139 246.281C433.881 246.387 433.676 246.533 433.523 246.721C433.371 246.914 433.295 247.137 433.295 247.389C433.295 247.758 433.471 248.048 433.822 248.259C434.18 248.47 434.678 248.575 435.316 248.575ZM435.747 241.122C436.251 241.122 436.62 240.967 436.854 240.656C437.089 240.346 437.206 239.924 437.206 239.391C437.206 238.799 437.083 238.356 436.837 238.063C436.597 237.765 436.233 237.615 435.747 237.615C435.255 237.615 434.886 237.765 434.64 238.063C434.394 238.356 434.271 238.799 434.271 239.391C434.271 239.924 434.391 240.346 434.631 240.656C434.877 240.967 435.249 241.122 435.747 241.122ZM446.558 235.989C447.466 235.989 448.248 236.165 448.904 236.517C449.561 236.862 450.067 237.366 450.425 238.028C450.782 238.69 450.961 239.499 450.961 240.454V241.755H444.624C444.653 242.511 444.879 243.105 445.301 243.539C445.729 243.967 446.32 244.181 447.076 244.181C447.703 244.181 448.277 244.116 448.799 243.987C449.32 243.858 449.856 243.665 450.407 243.407V245.481C449.921 245.722 449.411 245.897 448.878 246.009C448.351 246.12 447.709 246.176 446.953 246.176C445.969 246.176 445.096 245.994 444.334 245.631C443.578 245.268 442.983 244.714 442.55 243.97C442.122 243.226 441.908 242.288 441.908 241.157C441.908 240.009 442.102 239.054 442.488 238.292C442.881 237.524 443.426 236.95 444.123 236.569C444.82 236.183 445.632 235.989 446.558 235.989ZM446.575 237.896C446.054 237.896 445.62 238.063 445.274 238.397C444.935 238.731 444.738 239.256 444.686 239.971H448.447C448.441 239.572 448.368 239.218 448.228 238.907C448.093 238.597 447.888 238.351 447.612 238.169C447.343 237.987 446.997 237.896 446.575 237.896ZM457.28 244.04C457.573 244.04 457.857 244.011 458.133 243.952C458.414 243.894 458.692 243.82 458.968 243.732V245.728C458.681 245.856 458.323 245.962 457.896 246.044C457.474 246.132 457.011 246.176 456.507 246.176C455.921 246.176 455.394 246.082 454.925 245.895C454.462 245.701 454.096 245.37 453.826 244.901C453.562 244.427 453.431 243.768 453.431 242.924V238.187H452.147V237.053L453.624 236.156L454.397 234.082H456.111V236.174H458.862V238.187H456.111V242.924C456.111 243.299 456.217 243.58 456.428 243.768C456.645 243.949 456.929 244.04 457.28 244.04Z" fill="#464646"/>
<path d="M311.354 310.452C311.354 311.899 311.075 313.109 310.519 314.082C309.968 315.049 309.168 315.778 308.119 316.271C307.07 316.757 305.808 317 304.331 317H300.692V304.15H304.727C306.074 304.15 307.243 304.391 308.233 304.871C309.224 305.346 309.991 306.052 310.536 306.989C311.081 307.921 311.354 309.075 311.354 310.452ZM308.523 310.522C308.523 309.573 308.383 308.794 308.102 308.185C307.826 307.569 307.416 307.115 306.871 306.822C306.332 306.529 305.664 306.383 304.867 306.383H303.417V314.75H304.586C305.916 314.75 306.903 314.396 307.548 313.687C308.198 312.978 308.523 311.923 308.523 310.522ZM317.857 306.989C318.766 306.989 319.548 307.165 320.204 307.517C320.86 307.862 321.367 308.366 321.725 309.028C322.082 309.69 322.261 310.499 322.261 311.454V312.755H315.924C315.953 313.511 316.179 314.105 316.601 314.539C317.028 314.967 317.62 315.181 318.376 315.181C319.003 315.181 319.577 315.116 320.099 314.987C320.62 314.858 321.156 314.665 321.707 314.407V316.481C321.221 316.722 320.711 316.897 320.178 317.009C319.65 317.12 319.009 317.176 318.253 317.176C317.269 317.176 316.396 316.994 315.634 316.631C314.878 316.268 314.283 315.714 313.85 314.97C313.422 314.226 313.208 313.288 313.208 312.157C313.208 311.009 313.401 310.054 313.788 309.292C314.181 308.524 314.726 307.95 315.423 307.569C316.12 307.183 316.932 306.989 317.857 306.989ZM317.875 308.896C317.354 308.896 316.92 309.063 316.574 309.397C316.234 309.731 316.038 310.256 315.985 310.971H319.747C319.741 310.572 319.668 310.218 319.527 309.907C319.393 309.597 319.188 309.351 318.912 309.169C318.643 308.987 318.297 308.896 317.875 308.896ZM329.872 309.187H327.552V317H324.871V309.187H323.395V307.895L324.871 307.174V306.453C324.871 305.615 325.012 304.965 325.293 304.502C325.58 304.033 325.981 303.705 326.497 303.518C327.019 303.324 327.634 303.228 328.343 303.228C328.864 303.228 329.339 303.271 329.767 303.359C330.194 303.441 330.543 303.535 330.812 303.641L330.127 305.609C329.922 305.545 329.699 305.486 329.459 305.434C329.219 305.381 328.943 305.354 328.633 305.354C328.258 305.354 327.982 305.469 327.807 305.697C327.637 305.92 327.552 306.207 327.552 306.559V307.174H329.872V309.187ZM334.091 307.174V317H331.41V307.174H334.091ZM332.755 303.324C333.153 303.324 333.496 303.418 333.783 303.605C334.07 303.787 334.214 304.13 334.214 304.634C334.214 305.132 334.07 305.478 333.783 305.671C333.496 305.858 333.153 305.952 332.755 305.952C332.351 305.952 332.005 305.858 331.718 305.671C331.437 305.478 331.296 305.132 331.296 304.634C331.296 304.13 331.437 303.787 331.718 303.605C332.005 303.418 332.351 303.324 332.755 303.324ZM342.484 306.989C343.533 306.989 344.377 307.276 345.016 307.851C345.654 308.419 345.974 309.333 345.974 310.593V317H343.293V311.261C343.293 310.558 343.164 310.027 342.906 309.67C342.654 309.312 342.256 309.134 341.711 309.134C340.891 309.134 340.331 309.412 340.032 309.969C339.733 310.525 339.584 311.328 339.584 312.377V317H336.903V307.174H338.951L339.312 308.431H339.461C339.672 308.091 339.933 307.815 340.243 307.604C340.56 307.394 340.908 307.238 341.289 307.139C341.676 307.039 342.074 306.989 342.484 306.989ZM352.785 306.989C353.693 306.989 354.476 307.165 355.132 307.517C355.788 307.862 356.295 308.366 356.652 309.028C357.01 309.69 357.188 310.499 357.188 311.454V312.755H350.852C350.881 313.511 351.106 314.105 351.528 314.539C351.956 314.967 352.548 315.181 353.304 315.181C353.931 315.181 354.505 315.116 355.026 314.987C355.548 314.858 356.084 314.665 356.635 314.407V316.481C356.148 316.722 355.639 316.897 355.105 317.009C354.578 317.12 353.937 317.176 353.181 317.176C352.196 317.176 351.323 316.994 350.562 316.631C349.806 316.268 349.211 315.714 348.777 314.97C348.35 314.226 348.136 313.288 348.136 312.157C348.136 311.009 348.329 310.054 348.716 309.292C349.108 308.524 349.653 307.95 350.351 307.569C351.048 307.183 351.859 306.989 352.785 306.989ZM352.803 308.896C352.281 308.896 351.848 309.063 351.502 309.397C351.162 309.731 350.966 310.256 350.913 310.971H354.675C354.669 310.572 354.596 310.218 354.455 309.907C354.32 309.597 354.115 309.351 353.84 309.169C353.57 308.987 353.225 308.896 352.803 308.896ZM368.184 315.04C368.477 315.04 368.761 315.011 369.036 314.952C369.317 314.894 369.596 314.82 369.871 314.732V316.728C369.584 316.856 369.227 316.962 368.799 317.044C368.377 317.132 367.914 317.176 367.41 317.176C366.824 317.176 366.297 317.082 365.828 316.895C365.365 316.701 364.999 316.37 364.729 315.901C364.466 315.427 364.334 314.768 364.334 313.924V309.187H363.051V308.053L364.527 307.156L365.301 305.082H367.015V307.174H369.766V309.187H367.015V313.924C367.015 314.299 367.12 314.58 367.331 314.768C367.548 314.949 367.832 315.04 368.184 315.04ZM374.547 303.324V306.11C374.547 306.597 374.529 307.06 374.494 307.499C374.465 307.938 374.441 308.249 374.424 308.431H374.564C374.775 308.091 375.024 307.815 375.312 307.604C375.604 307.394 375.927 307.238 376.278 307.139C376.63 307.039 377.008 306.989 377.412 306.989C378.121 306.989 378.739 307.115 379.267 307.367C379.794 307.613 380.204 308.003 380.497 308.536C380.79 309.063 380.937 309.749 380.937 310.593V317H378.256V311.261C378.256 310.558 378.127 310.027 377.869 309.67C377.611 309.312 377.213 309.134 376.674 309.134C376.135 309.134 375.71 309.26 375.399 309.512C375.089 309.758 374.869 310.124 374.74 310.61C374.611 311.091 374.547 311.68 374.547 312.377V317H371.866V303.324H374.547ZM387.748 306.989C388.656 306.989 389.438 307.165 390.095 307.517C390.751 307.862 391.258 308.366 391.615 309.028C391.973 309.69 392.151 310.499 392.151 311.454V312.755H385.814C385.844 313.511 386.069 314.105 386.491 314.539C386.919 314.967 387.511 315.181 388.267 315.181C388.894 315.181 389.468 315.116 389.989 314.987C390.511 314.858 391.047 314.665 391.598 314.407V316.481C391.111 316.722 390.602 316.897 390.068 317.009C389.541 317.12 388.899 317.176 388.144 317.176C387.159 317.176 386.286 316.994 385.524 316.631C384.769 316.268 384.174 315.714 383.74 314.97C383.312 314.226 383.099 313.288 383.099 312.157C383.099 311.009 383.292 310.054 383.679 309.292C384.071 308.524 384.616 307.95 385.313 307.569C386.011 307.183 386.822 306.989 387.748 306.989ZM387.766 308.896C387.244 308.896 386.811 309.063 386.465 309.397C386.125 309.731 385.929 310.256 385.876 310.971H389.638C389.632 310.572 389.559 310.218 389.418 309.907C389.283 309.597 389.078 309.351 388.803 309.169C388.533 308.987 388.188 308.896 387.766 308.896ZM331.964 326.15C333.622 326.15 334.832 326.508 335.594 327.223C336.355 327.932 336.736 328.91 336.736 330.158C336.736 330.721 336.651 331.26 336.481 331.775C336.312 332.285 336.033 332.739 335.646 333.138C335.266 333.536 334.756 333.853 334.117 334.087C333.479 334.315 332.69 334.43 331.753 334.43H330.584V339H327.859V326.15H331.964ZM331.823 328.383H330.584V332.197H331.48C331.99 332.197 332.433 332.13 332.808 331.995C333.183 331.86 333.473 331.649 333.678 331.362C333.883 331.075 333.985 330.706 333.985 330.255C333.985 329.622 333.81 329.153 333.458 328.849C333.106 328.538 332.562 328.383 331.823 328.383ZM341.632 339H338.951V325.324H341.632V339ZM348.479 328.972C349.797 328.972 350.808 329.259 351.511 329.833C352.214 330.407 352.565 331.28 352.565 332.452V339H350.693L350.175 337.664H350.104C349.823 338.016 349.536 338.303 349.243 338.525C348.95 338.748 348.613 338.912 348.232 339.018C347.852 339.123 347.389 339.176 346.844 339.176C346.264 339.176 345.742 339.064 345.279 338.842C344.822 338.619 344.462 338.279 344.198 337.822C343.935 337.359 343.803 336.773 343.803 336.064C343.803 335.021 344.169 334.254 344.901 333.762C345.634 333.264 346.732 332.988 348.197 332.936L349.902 332.883V332.452C349.902 331.937 349.768 331.559 349.498 331.318C349.229 331.078 348.854 330.958 348.373 330.958C347.898 330.958 347.433 331.025 346.976 331.16C346.519 331.295 346.062 331.465 345.604 331.67L344.717 329.859C345.238 329.584 345.821 329.367 346.466 329.209C347.116 329.051 347.787 328.972 348.479 328.972ZM349.902 334.447L348.865 334.482C347.998 334.506 347.395 334.661 347.055 334.948C346.721 335.235 346.554 335.613 346.554 336.082C346.554 336.492 346.674 336.785 346.914 336.961C347.154 337.131 347.468 337.216 347.854 337.216C348.429 337.216 348.912 337.046 349.305 336.706C349.703 336.366 349.902 335.883 349.902 335.256V334.447ZM360.915 328.989C361.964 328.989 362.808 329.276 363.446 329.851C364.085 330.419 364.404 331.333 364.404 332.593V339H361.724V333.261C361.724 332.558 361.595 332.027 361.337 331.67C361.085 331.312 360.687 331.134 360.142 331.134C359.321 331.134 358.762 331.412 358.463 331.969C358.164 332.525 358.015 333.328 358.015 334.377V339H355.334V329.174H357.382L357.742 330.431H357.892C358.103 330.091 358.363 329.815 358.674 329.604C358.99 329.394 359.339 329.238 359.72 329.139C360.106 329.039 360.505 328.989 360.915 328.989Z" fill="#464646" fill-opacity="0.4"/>
<path d="M173.047 286V273.15H175.771V286H173.047ZM190.335 275.989C191.448 275.989 192.289 276.276 192.857 276.851C193.432 277.419 193.719 278.333 193.719 279.593V286H191.029V280.261C191.029 279.558 190.909 279.027 190.669 278.67C190.429 278.312 190.057 278.134 189.553 278.134C188.844 278.134 188.34 278.389 188.041 278.898C187.742 279.402 187.593 280.126 187.593 281.069V286H184.912V280.261C184.912 279.792 184.859 279.399 184.754 279.083C184.648 278.767 184.487 278.529 184.271 278.371C184.054 278.213 183.775 278.134 183.436 278.134C182.938 278.134 182.545 278.26 182.258 278.512C181.977 278.758 181.774 279.124 181.651 279.61C181.534 280.091 181.476 280.68 181.476 281.377V286H178.795V276.174H180.843L181.203 277.431H181.353C181.552 277.091 181.801 276.815 182.1 276.604C182.404 276.394 182.738 276.238 183.102 276.139C183.465 276.039 183.834 275.989 184.209 275.989C184.93 275.989 185.539 276.106 186.037 276.341C186.541 276.575 186.928 276.938 187.197 277.431H187.435C187.728 276.927 188.141 276.561 188.674 276.332C189.213 276.104 189.767 275.989 190.335 275.989ZM201.945 275.989C203.053 275.989 203.946 276.42 204.626 277.281C205.312 278.143 205.654 279.405 205.654 281.069C205.654 282.183 205.493 283.12 205.171 283.882C204.849 284.638 204.403 285.209 203.835 285.596C203.267 285.982 202.613 286.176 201.875 286.176C201.4 286.176 200.993 286.117 200.653 286C200.313 285.877 200.023 285.722 199.783 285.534C199.543 285.341 199.335 285.136 199.159 284.919H199.019C199.065 285.153 199.101 285.394 199.124 285.64C199.147 285.886 199.159 286.126 199.159 286.36V290.324H196.479V276.174H198.658L199.036 277.448H199.159C199.335 277.185 199.549 276.941 199.801 276.719C200.053 276.496 200.354 276.32 200.706 276.191C201.063 276.057 201.477 275.989 201.945 275.989ZM201.084 278.134C200.615 278.134 200.243 278.23 199.968 278.424C199.692 278.617 199.49 278.907 199.361 279.294C199.238 279.681 199.171 280.17 199.159 280.762V281.052C199.159 281.685 199.218 282.221 199.335 282.66C199.458 283.1 199.66 283.434 199.941 283.662C200.229 283.891 200.621 284.005 201.119 284.005C201.529 284.005 201.866 283.891 202.13 283.662C202.394 283.434 202.59 283.1 202.719 282.66C202.854 282.215 202.921 281.673 202.921 281.034C202.921 280.073 202.771 279.35 202.473 278.863C202.174 278.377 201.711 278.134 201.084 278.134ZM210.55 286H207.869V272.324H210.55V286ZM217.423 275.989C218.331 275.989 219.113 276.165 219.77 276.517C220.426 276.862 220.933 277.366 221.29 278.028C221.647 278.69 221.826 279.499 221.826 280.454V281.755H215.489C215.519 282.511 215.744 283.105 216.166 283.539C216.594 283.967 217.186 284.181 217.941 284.181C218.568 284.181 219.143 284.116 219.664 283.987C220.186 283.858 220.722 283.665 221.272 283.407V285.481C220.786 285.722 220.276 285.897 219.743 286.009C219.216 286.12 218.574 286.176 217.818 286.176C216.834 286.176 215.961 285.994 215.199 285.631C214.443 285.268 213.849 284.714 213.415 283.97C212.987 283.226 212.773 282.288 212.773 281.157C212.773 280.009 212.967 279.054 213.354 278.292C213.746 277.524 214.291 276.95 214.988 276.569C215.686 276.183 216.497 275.989 217.423 275.989ZM217.44 277.896C216.919 277.896 216.485 278.063 216.14 278.397C215.8 278.731 215.604 279.256 215.551 279.971H219.312C219.307 279.572 219.233 279.218 219.093 278.907C218.958 278.597 218.753 278.351 218.478 278.169C218.208 277.987 217.862 277.896 217.44 277.896ZM235.546 275.989C236.659 275.989 237.5 276.276 238.068 276.851C238.643 277.419 238.93 278.333 238.93 279.593V286H236.24V280.261C236.24 279.558 236.12 279.027 235.88 278.67C235.64 278.312 235.268 278.134 234.764 278.134C234.055 278.134 233.551 278.389 233.252 278.898C232.953 279.402 232.804 280.126 232.804 281.069V286H230.123V280.261C230.123 279.792 230.07 279.399 229.965 279.083C229.859 278.767 229.698 278.529 229.481 278.371C229.265 278.213 228.986 278.134 228.646 278.134C228.148 278.134 227.756 278.26 227.469 278.512C227.188 278.758 226.985 279.124 226.862 279.61C226.745 280.091 226.687 280.68 226.687 281.377V286H224.006V276.174H226.054L226.414 277.431H226.563C226.763 277.091 227.012 276.815 227.311 276.604C227.615 276.394 227.949 276.238 228.312 276.139C228.676 276.039 229.045 275.989 229.42 275.989C230.141 275.989 230.75 276.106 231.248 276.341C231.752 276.575 232.139 276.938 232.408 277.431H232.646C232.938 276.927 233.352 276.561 233.885 276.332C234.424 276.104 234.978 275.989 235.546 275.989ZM245.741 275.989C246.649 275.989 247.432 276.165 248.088 276.517C248.744 276.862 249.251 277.366 249.608 278.028C249.966 278.69 250.145 279.499 250.145 280.454V281.755H243.808C243.837 282.511 244.062 283.105 244.484 283.539C244.912 283.967 245.504 284.181 246.26 284.181C246.887 284.181 247.461 284.116 247.982 283.987C248.504 283.858 249.04 283.665 249.591 283.407V285.481C249.104 285.722 248.595 285.897 248.062 286.009C247.534 286.12 246.893 286.176 246.137 286.176C245.152 286.176 244.279 285.994 243.518 285.631C242.762 285.268 242.167 284.714 241.733 283.97C241.306 283.226 241.092 282.288 241.092 281.157C241.092 280.009 241.285 279.054 241.672 278.292C242.064 277.524 242.609 276.95 243.307 276.569C244.004 276.183 244.815 275.989 245.741 275.989ZM245.759 277.896C245.237 277.896 244.804 278.063 244.458 278.397C244.118 278.731 243.922 279.256 243.869 279.971H247.631C247.625 279.572 247.552 279.218 247.411 278.907C247.276 278.597 247.071 278.351 246.796 278.169C246.526 277.987 246.181 277.896 245.759 277.896ZM257.905 275.989C258.954 275.989 259.798 276.276 260.437 276.851C261.075 277.419 261.395 278.333 261.395 279.593V286H258.714V280.261C258.714 279.558 258.585 279.027 258.327 278.67C258.075 278.312 257.677 278.134 257.132 278.134C256.312 278.134 255.752 278.412 255.453 278.969C255.154 279.525 255.005 280.328 255.005 281.377V286H252.324V276.174H254.372L254.732 277.431H254.882C255.093 277.091 255.354 276.815 255.664 276.604C255.98 276.394 256.329 276.238 256.71 276.139C257.097 276.039 257.495 275.989 257.905 275.989ZM268.294 284.04C268.587 284.04 268.871 284.011 269.146 283.952C269.428 283.894 269.706 283.82 269.981 283.732V285.728C269.694 285.856 269.337 285.962 268.909 286.044C268.487 286.132 268.024 286.176 267.521 286.176C266.935 286.176 266.407 286.082 265.938 285.895C265.476 285.701 265.109 285.37 264.84 284.901C264.576 284.427 264.444 283.768 264.444 282.924V278.187H263.161V277.053L264.638 276.156L265.411 274.082H267.125V276.174H269.876V278.187H267.125V282.924C267.125 283.299 267.23 283.58 267.441 283.768C267.658 283.949 267.942 284.04 268.294 284.04Z" fill="#464646" fill-opacity="0.4"/>
<path d="M169.846 162.15C171.012 162.15 171.973 162.291 172.729 162.572C173.49 162.854 174.056 163.278 174.425 163.847C174.794 164.415 174.979 165.133 174.979 166C174.979 166.586 174.867 167.099 174.645 167.538C174.422 167.978 174.129 168.35 173.766 168.654C173.402 168.959 173.01 169.208 172.588 169.401L176.367 175H173.344L170.276 170.069H168.826V175H166.102V162.15H169.846ZM169.652 164.383H168.826V167.854H169.705C170.607 167.854 171.252 167.705 171.639 167.406C172.031 167.102 172.228 166.656 172.228 166.07C172.228 165.461 172.017 165.027 171.595 164.77C171.179 164.512 170.531 164.383 169.652 164.383ZM186.703 170.069C186.703 170.89 186.592 171.616 186.369 172.249C186.152 172.882 185.833 173.418 185.411 173.857C184.995 174.291 184.491 174.619 183.899 174.842C183.313 175.064 182.651 175.176 181.913 175.176C181.222 175.176 180.586 175.064 180.006 174.842C179.432 174.619 178.931 174.291 178.503 173.857C178.081 173.418 177.753 172.882 177.519 172.249C177.29 171.616 177.176 170.89 177.176 170.069C177.176 168.979 177.369 168.057 177.756 167.301C178.143 166.545 178.693 165.971 179.408 165.578C180.123 165.186 180.976 164.989 181.966 164.989C182.886 164.989 183.7 165.186 184.409 165.578C185.124 165.971 185.684 166.545 186.088 167.301C186.498 168.057 186.703 168.979 186.703 170.069ZM179.909 170.069C179.909 170.714 179.979 171.256 180.12 171.695C180.261 172.135 180.48 172.466 180.779 172.688C181.078 172.911 181.468 173.022 181.948 173.022C182.423 173.022 182.807 172.911 183.1 172.688C183.398 172.466 183.615 172.135 183.75 171.695C183.891 171.256 183.961 170.714 183.961 170.069C183.961 169.419 183.891 168.88 183.75 168.452C183.615 168.019 183.398 167.693 183.1 167.477C182.801 167.26 182.411 167.151 181.931 167.151C181.222 167.151 180.706 167.395 180.384 167.881C180.067 168.367 179.909 169.097 179.909 170.069ZM191.599 175H188.918V161.324H191.599V175ZM197.101 175H194.42V161.324H197.101V175ZM177.791 190.558C177.791 191.548 177.668 192.45 177.422 193.265C177.176 194.073 176.801 194.771 176.297 195.356C175.799 195.942 175.166 196.394 174.398 196.71C173.631 197.021 172.723 197.176 171.674 197.176C170.625 197.176 169.717 197.021 168.949 196.71C168.182 196.394 167.546 195.942 167.042 195.356C166.544 194.771 166.172 194.07 165.926 193.256C165.68 192.441 165.557 191.536 165.557 190.54C165.557 189.21 165.773 188.053 166.207 187.068C166.646 186.078 167.32 185.311 168.229 184.766C169.137 184.221 170.291 183.948 171.691 183.948C173.086 183.948 174.231 184.221 175.128 184.766C176.03 185.311 176.698 186.078 177.132 187.068C177.571 188.059 177.791 189.222 177.791 190.558ZM168.413 190.558C168.413 191.454 168.524 192.228 168.747 192.878C168.976 193.522 169.33 194.021 169.811 194.372C170.291 194.718 170.912 194.891 171.674 194.891C172.447 194.891 173.074 194.718 173.555 194.372C174.035 194.021 174.384 193.522 174.601 192.878C174.823 192.228 174.935 191.454 174.935 190.558C174.935 189.21 174.683 188.149 174.179 187.376C173.675 186.603 172.846 186.216 171.691 186.216C170.924 186.216 170.297 186.392 169.811 186.743C169.33 187.089 168.976 187.587 168.747 188.237C168.524 188.882 168.413 189.655 168.413 190.558ZM189.261 187.174V197H187.204L186.844 195.743H186.703C186.492 196.077 186.229 196.35 185.912 196.561C185.596 196.771 185.247 196.927 184.866 197.026C184.485 197.126 184.09 197.176 183.68 197.176C182.977 197.176 182.364 197.053 181.843 196.807C181.321 196.555 180.914 196.165 180.621 195.638C180.334 195.11 180.19 194.425 180.19 193.581V187.174H182.871V192.913C182.871 193.616 182.997 194.146 183.249 194.504C183.501 194.861 183.902 195.04 184.453 195.04C184.998 195.04 185.426 194.917 185.736 194.671C186.047 194.419 186.264 194.053 186.387 193.572C186.516 193.086 186.58 192.494 186.58 191.797V187.174H189.261ZM196.213 195.04C196.506 195.04 196.79 195.011 197.065 194.952C197.347 194.894 197.625 194.82 197.9 194.732V196.728C197.613 196.856 197.256 196.962 196.828 197.044C196.406 197.132 195.943 197.176 195.439 197.176C194.854 197.176 194.326 197.082 193.857 196.895C193.395 196.701 193.028 196.37 192.759 195.901C192.495 195.427 192.363 194.768 192.363 193.924V189.187H191.08V188.053L192.557 187.156L193.33 185.082H195.044V187.174H197.795V189.187H195.044V193.924C195.044 194.299 195.149 194.58 195.36 194.768C195.577 194.949 195.861 195.04 196.213 195.04Z" fill="#464646" fill-opacity="0.4"/>
</svg>
