<svg width="595" height="511" viewBox="0 0 595 511" fill="none" xmlns="http://www.w3.org/2000/svg">
<g clip-path="url(#clip0_4770_177)">
<rect width="595" height="511" fill="#71B8B8"/>
<path d="M220.18 180.46C216.06 180.46 210.02 182.43 206.69 184.84L90.31 269.24C86.98 271.66 86.98 275.57 90.31 277.99L157.52 326.68C160.86 329.1 166.73 330.02 170.65 328.75L333.92 275.7C337.84 274.43 342.05 270.22 343.32 266.31L369.07 187.41C370.35 183.5 368.05 180.32 363.93 180.33L220.18 180.46Z" fill="white"/>
<path d="M410.12 292.031C410.98 292.881 412.01 293.301 413.21 293.301H421.52C422.72 293.301 423.74 292.881 424.59 292.031C425.44 291.181 425.86 290.131 425.86 288.871V243.781L442.1 289.141C442.56 290.281 443.32 291.261 444.38 292.071C445.44 292.891 446.57 293.291 447.77 293.291H454.37C455.57 293.291 456.71 292.881 457.79 292.071C458.87 291.261 459.62 290.281 460.05 289.141L476.34 243.781V288.871C476.34 290.131 476.76 291.191 477.61 292.031C478.46 292.881 479.48 293.301 480.68 293.301H488.99C490.19 293.301 491.21 292.881 492.06 292.031C492.91 291.181 493.33 290.131 493.33 288.871V231.601C493.33 230.341 492.92 229.281 492.11 228.421C491.3 227.561 490.29 227.131 489.09 227.131H470.3C469.1 227.131 467.96 227.561 466.89 228.421C465.81 229.281 465.09 230.311 464.72 231.511L451.11 270.921L437.5 231.511C437.13 230.311 436.41 229.281 435.33 228.421C434.25 227.561 433.11 227.131 431.91 227.131H413.13C411.93 227.131 410.91 227.561 410.08 228.421C409.25 229.281 408.83 230.341 408.83 231.601V288.871C408.83 290.131 409.26 291.181 410.12 292.031ZM312.38 292.031C313.24 292.881 314.27 293.301 315.47 293.301H323.78C324.98 293.301 326 292.881 326.85 292.031C327.7 291.181 328.12 290.131 328.12 288.871V243.781L344.36 289.141C344.82 290.281 345.58 291.261 346.64 292.071C347.7 292.891 348.83 293.291 350.03 293.291H356.63C357.83 293.291 358.97 292.881 360.05 292.071C361.13 291.261 361.88 290.281 362.31 289.141L378.6 243.781V288.871C378.6 290.131 379.02 291.191 379.87 292.031C380.72 292.881 381.74 293.301 382.94 293.301H391.25C392.45 293.301 393.47 292.881 394.32 292.031C395.17 291.181 395.59 290.131 395.59 288.871V231.601C395.59 230.341 395.18 229.281 394.37 228.421C393.55 227.561 392.55 227.131 391.35 227.131H372.57C371.37 227.131 370.23 227.561 369.16 228.421C368.08 229.281 367.36 230.311 366.99 231.511L353.38 270.921L339.77 231.511C339.4 230.311 338.68 229.281 337.6 228.421C336.52 227.561 335.39 227.131 334.18 227.131H315.4C314.2 227.131 313.19 227.561 312.36 228.421C311.53 229.281 311.11 230.341 311.11 231.601V288.871C311.09 290.131 311.52 291.181 312.38 292.031ZM255.16 249.461C255.93 246.631 257.41 244.381 259.61 242.701C261.81 241.021 264.39 240.191 267.34 240.191H280.49V264.281H251.09L255.16 249.461ZM226.66 290.431C226.65 290.951 226.9 291.561 227.42 292.251C227.94 292.941 228.8 293.291 230 293.291H239.09C240.29 293.291 241.43 292.881 242.5 292.071C243.58 291.261 244.27 290.221 244.58 288.961L247.67 277.331H280.48V288.961C280.48 290.221 280.89 291.261 281.7 292.071C282.51 292.891 283.55 293.291 284.82 293.291H293.49C294.69 293.291 295.72 292.881 296.58 292.071C297.44 291.261 297.87 290.251 297.87 289.051V231.411C297.87 230.271 297.49 229.271 296.74 228.411C295.99 227.551 295.04 227.121 293.9 227.121H269.03C251.74 227.151 241.53 233.151 238.39 245.121L226.81 289.051C226.73 289.451 226.68 289.911 226.66 290.431ZM162.49 288.521C167.57 291.771 173.26 293.391 179.56 293.391L193.54 293.671C204.25 293.671 211.81 292.001 216.22 288.661C220.63 285.321 222.84 280.561 222.84 274.381C222.84 269.861 221.13 266.081 217.69 263.051C214.26 260.021 210.08 257.841 205.16 256.521C200.24 255.201 195.34 254.071 190.46 253.131C185.58 252.191 181.43 251.111 178 249.881C174.57 248.651 172.85 247.061 172.85 245.131C172.85 241.591 175.56 239.821 180.97 239.821L194.86 240.101C199.91 240.101 203.15 241.621 204.6 244.651C206.05 247.681 208.15 249.201 210.92 249.201H216.41C217.39 249.201 218.42 248.801 219.5 248.001C220.58 247.201 221.11 245.891 221.11 244.081C221.11 239.221 218.58 235.171 213.52 231.921C208.46 228.671 202.78 227.051 196.47 227.051L184.75 226.771C174.01 226.771 166.44 228.441 162.05 231.781C157.65 235.121 155.45 239.881 155.45 246.061C155.45 249.411 156.36 252.331 158.19 254.801C160.02 257.281 162.41 259.221 165.37 260.641C168.32 262.051 171.56 263.291 175.08 264.331C178.6 265.371 182.15 266.251 185.72 266.941C189.29 267.631 192.55 268.331 195.5 269.041C202.11 270.581 205.42 272.681 205.42 275.361C205.42 278.901 202.71 280.671 197.3 280.671L181.15 280.351C176.1 280.351 172.86 278.841 171.41 275.831C169.96 272.821 167.86 271.311 165.09 271.311H159.6C158.58 271.311 157.54 271.701 156.46 272.491C155.38 273.271 154.84 274.571 154.84 276.391C154.88 281.221 157.42 285.271 162.49 288.521Z" fill="black"/>
<path d="M324.42 206.2V193.68H332.44C336.35 193.68 339.1 195.67 339.1 199.94C339.1 204.21 336.35 206.2 332.44 206.2H324.42ZM322.27 218.82C322.27 219.44 322.33 219.64 322.51 219.92C322.69 220.18 322.97 220.32 323.35 220.32C323.73 220.32 324.01 220.18 324.19 219.92C324.37 219.64 324.43 219.44 324.43 218.82V208.11H332.68C337.58 208.11 341.25 205.12 341.25 199.94C341.25 194.76 337.58 191.76 332.68 191.76H323.55C323.23 191.76 322.87 191.76 322.57 192.06C322.27 192.36 322.27 192.72 322.27 193.04V218.82V218.82ZM307.71 207.12C310 207.48 310.78 207.74 311.82 208.64C312.86 209.54 313.37 210.95 313.37 212.63C313.37 216.34 310.54 218.49 306.07 218.49C303.06 218.49 301.24 217.93 298.93 216.02C298.53 215.7 298.19 215.42 297.79 215.42C297.53 215.42 297.27 215.52 297.07 215.72C296.85 215.94 296.77 216.2 296.77 216.48C296.77 216.92 297.11 217.3 297.53 217.64C300.12 219.77 302.63 220.41 305.94 220.41C311.84 220.41 315.51 217.34 315.51 212.55C315.51 210.28 314.63 208.32 313.08 207.05C311.88 206.05 310.65 205.59 307.98 205.18L304.91 204.7C302.86 204.38 301.84 203.94 300.68 202.99C299.68 202.15 299.2 200.88 299.2 199.24C299.2 195.65 301.67 193.4 305.78 193.4C308.33 193.4 309.67 193.82 311.74 195.29C312.18 195.61 312.56 195.83 312.88 195.83C313.2 195.83 313.42 195.73 313.62 195.49C313.78 195.31 313.84 195.13 313.84 194.87C313.84 194.43 313.48 194.07 313.04 193.75C310.79 192.15 308.93 191.54 305.9 191.54C300.48 191.54 297.09 194.57 297.09 199.32C297.09 201.51 297.83 203.27 299.32 204.52C300.75 205.72 302.13 206.25 304.38 206.61L307.71 207.12ZM288.31 211.35H276.63L282.47 195.26L288.31 211.35ZM271.68 218.47C271.46 219.03 271.34 219.59 271.76 220.01C271.96 220.21 272.26 220.33 272.58 220.33C272.76 220.33 272.94 220.27 273.1 220.17C273.36 219.99 273.48 219.79 273.7 219.23L275.95 213.27H288.99L291.24 219.23C291.46 219.79 291.58 219.99 291.84 220.17C292 220.27 292.18 220.33 292.36 220.33C292.68 220.33 292.98 220.21 293.18 220.01C293.6 219.59 293.48 219.03 293.26 218.47L283.73 192.95C283.55 192.47 283.45 192.25 283.31 192.05C283.13 191.79 282.85 191.61 282.47 191.61C282.09 191.61 281.81 191.79 281.63 192.05C281.49 192.25 281.39 192.47 281.21 192.95L271.68 218.47ZM260.3 219C260.4 219.36 260.56 219.74 260.78 219.96C261.04 220.22 261.34 220.32 261.66 220.32C261.98 220.32 262.26 220.24 262.54 219.96C262.76 219.74 262.92 219.4 263.02 219L269.44 193.28C269.58 192.72 269.58 192.5 269.48 192.22C269.34 191.82 268.92 191.6 268.54 191.6C268.3 191.6 268.06 191.68 267.9 191.82C267.68 192.02 267.58 192.22 267.44 192.78L261.56 216.49L255.24 192.92C255.14 192.52 255 192.18 254.76 191.96C254.52 191.74 254.26 191.64 253.88 191.64C253.5 191.64 253.24 191.74 253 191.96C252.76 192.18 252.62 192.52 252.52 192.92L246.2 216.49L240.32 192.78C240.18 192.22 240.08 192.02 239.86 191.82C239.7 191.68 239.46 191.6 239.22 191.6C238.84 191.6 238.42 191.82 238.28 192.22C238.18 192.5 238.18 192.72 238.32 193.28L244.74 219C244.84 219.4 245 219.74 245.22 219.96C245.5 220.24 245.78 220.32 246.1 220.32C246.42 220.32 246.72 220.22 246.98 219.96C247.2 219.74 247.36 219.36 247.46 219L253.88 195.35L260.3 219ZM229.68 216.29C228.2 217.77 226.37 218.48 224.3 218.48C222.23 218.48 220.39 217.76 218.92 216.29C216.89 214.26 216.73 211.94 216.73 205.96C216.73 199.98 216.89 197.67 218.92 195.63C220.4 194.15 222.23 193.44 224.3 193.44C226.37 193.44 228.21 194.16 229.68 195.63C231.71 197.66 231.87 199.98 231.87 205.96C231.87 211.95 231.71 214.26 229.68 216.29ZM231.19 217.69C233.82 215.06 234.02 212.86 234.02 205.97C234.02 199.07 233.82 196.88 231.19 194.25C229.51 192.57 227.12 191.54 224.29 191.54C221.46 191.54 219.07 192.58 217.39 194.25C214.76 196.88 214.56 199.07 214.56 205.97C214.56 212.87 214.76 215.06 217.39 217.69C219.07 219.36 221.46 220.4 224.29 220.4C227.12 220.4 229.52 219.36 231.19 217.69Z" fill="black"/>
<path d="M412.097 314.009L406.857 329H404.252L399.013 314.009H401.535L404.693 323.401C404.789 323.675 404.892 324.006 405.001 324.396C405.117 324.786 405.223 325.179 405.319 325.575C405.421 325.972 405.5 326.324 405.555 326.631C405.609 326.324 405.685 325.972 405.78 325.575C405.883 325.179 405.989 324.786 406.098 324.396C406.208 324.006 406.31 323.671 406.406 323.391L409.574 314.009H412.097ZM418.341 317.434C419.353 317.434 420.221 317.642 420.946 318.059C421.67 318.476 422.228 319.067 422.617 319.833C423.007 320.599 423.202 321.515 423.202 322.581V323.873H415.624C415.651 324.974 415.945 325.821 416.506 326.416C417.073 327.011 417.866 327.308 418.885 327.308C419.609 327.308 420.259 327.24 420.833 327.103C421.414 326.959 422.012 326.751 422.627 326.478V328.436C422.06 328.703 421.482 328.897 420.895 329.021C420.307 329.144 419.603 329.205 418.782 329.205C417.668 329.205 416.687 328.99 415.839 328.559C414.999 328.122 414.339 327.472 413.86 326.611C413.389 325.75 413.153 324.68 413.153 323.401C413.153 322.13 413.368 321.05 413.799 320.161C414.229 319.272 414.834 318.596 415.614 318.131C416.393 317.666 417.302 317.434 418.341 317.434ZM418.341 319.249C417.583 319.249 416.967 319.495 416.496 319.987C416.031 320.479 415.757 321.2 415.675 322.15H420.843C420.836 321.583 420.741 321.081 420.556 320.643C420.378 320.206 420.105 319.864 419.736 319.618C419.374 319.372 418.909 319.249 418.341 319.249ZM431.671 317.434C431.863 317.434 432.071 317.444 432.297 317.464C432.522 317.485 432.717 317.512 432.881 317.546L432.656 319.802C432.512 319.761 432.334 319.73 432.123 319.71C431.917 319.689 431.733 319.679 431.569 319.679C431.138 319.679 430.728 319.751 430.338 319.895C429.949 320.031 429.604 320.243 429.303 320.53C429.002 320.811 428.766 321.163 428.595 321.586C428.424 322.01 428.339 322.502 428.339 323.063V329H425.919V317.649H427.806L428.134 319.648H428.247C428.472 319.245 428.752 318.876 429.087 318.541C429.422 318.206 429.805 317.939 430.236 317.741C430.673 317.536 431.152 317.434 431.671 317.434ZM442.612 325.76C442.612 326.505 442.431 327.134 442.069 327.646C441.707 328.159 441.177 328.549 440.479 328.815C439.789 329.075 438.941 329.205 437.937 329.205C437.144 329.205 436.46 329.147 435.886 329.031C435.318 328.921 434.782 328.75 434.276 328.518V326.437C434.816 326.689 435.421 326.908 436.091 327.093C436.768 327.277 437.407 327.37 438.008 327.37C438.801 327.37 439.372 327.247 439.721 327C440.069 326.748 440.244 326.413 440.244 325.996C440.244 325.75 440.172 325.531 440.028 325.339C439.892 325.141 439.632 324.939 439.249 324.734C438.873 324.522 438.319 324.27 437.588 323.976C436.87 323.688 436.265 323.401 435.773 323.114C435.281 322.827 434.908 322.482 434.655 322.079C434.402 321.668 434.276 321.146 434.276 320.51C434.276 319.505 434.672 318.743 435.465 318.223C436.265 317.697 437.321 317.434 438.634 317.434C439.331 317.434 439.987 317.505 440.603 317.649C441.225 317.786 441.833 317.987 442.428 318.254L441.669 320.069C441.156 319.843 440.64 319.659 440.121 319.515C439.608 319.365 439.085 319.29 438.552 319.29C437.93 319.29 437.455 319.385 437.126 319.577C436.805 319.768 436.645 320.042 436.645 320.397C436.645 320.664 436.723 320.889 436.88 321.074C437.038 321.258 437.308 321.443 437.69 321.627C438.08 321.812 438.62 322.041 439.311 322.314C439.987 322.574 440.572 322.848 441.064 323.135C441.563 323.415 441.946 323.76 442.212 324.17C442.479 324.581 442.612 325.11 442.612 325.76ZM447.626 317.649V329H445.217V317.649H447.626ZM446.437 313.301C446.806 313.301 447.124 313.4 447.391 313.599C447.664 313.797 447.801 314.139 447.801 314.624C447.801 315.103 447.664 315.444 447.391 315.649C447.124 315.848 446.806 315.947 446.437 315.947C446.054 315.947 445.729 315.848 445.463 315.649C445.203 315.444 445.073 315.103 445.073 314.624C445.073 314.139 445.203 313.797 445.463 313.599C445.729 313.4 446.054 313.301 446.437 313.301ZM461.131 323.299C461.131 324.242 461.008 325.08 460.762 325.811C460.516 326.542 460.157 327.161 459.685 327.667C459.213 328.166 458.646 328.549 457.983 328.815C457.32 329.075 456.571 329.205 455.737 329.205C454.958 329.205 454.244 329.075 453.594 328.815C452.945 328.549 452.381 328.166 451.902 327.667C451.431 327.161 451.065 326.542 450.805 325.811C450.545 325.08 450.416 324.242 450.416 323.299C450.416 322.048 450.631 320.988 451.062 320.12C451.499 319.245 452.121 318.579 452.928 318.121C453.734 317.663 454.695 317.434 455.809 317.434C456.855 317.434 457.778 317.663 458.578 318.121C459.377 318.579 460.003 319.245 460.454 320.12C460.905 320.995 461.131 322.055 461.131 323.299ZM452.897 323.299C452.897 324.126 452.996 324.833 453.194 325.421C453.399 326.009 453.714 326.46 454.138 326.775C454.562 327.083 455.108 327.236 455.778 327.236C456.448 327.236 456.995 327.083 457.419 326.775C457.843 326.46 458.154 326.009 458.352 325.421C458.55 324.833 458.649 324.126 458.649 323.299C458.649 322.472 458.55 321.771 458.352 321.197C458.154 320.616 457.843 320.175 457.419 319.874C456.995 319.566 456.445 319.413 455.768 319.413C454.77 319.413 454.042 319.748 453.584 320.417C453.126 321.087 452.897 322.048 452.897 323.299ZM469.816 317.434C471.094 317.434 472.089 317.765 472.8 318.428C473.518 319.084 473.876 320.141 473.876 321.597V329H471.467V322.048C471.467 321.166 471.286 320.506 470.923 320.069C470.561 319.625 470 319.402 469.242 319.402C468.141 319.402 467.375 319.741 466.945 320.417C466.521 321.094 466.309 322.075 466.309 323.36V329H463.899V317.649H465.776L466.114 319.187H466.248C466.494 318.791 466.798 318.466 467.16 318.213C467.529 317.953 467.939 317.758 468.391 317.628C468.849 317.499 469.324 317.434 469.816 317.434ZM492.077 329H481.926V327.185L485.812 323.248C486.564 322.482 487.183 321.822 487.668 321.269C488.153 320.708 488.512 320.178 488.745 319.679C488.984 319.18 489.104 318.637 489.104 318.049C489.104 317.324 488.895 316.777 488.478 316.408C488.061 316.032 487.511 315.844 486.827 315.844C486.178 315.844 485.576 315.974 485.022 316.234C484.476 316.487 483.908 316.849 483.32 317.321L481.998 315.731C482.415 315.376 482.859 315.051 483.331 314.757C483.809 314.463 484.342 314.231 484.93 314.06C485.518 313.882 486.188 313.793 486.94 313.793C487.89 313.793 488.71 313.964 489.401 314.306C490.091 314.641 490.621 315.109 490.99 315.711C491.366 316.312 491.554 317.013 491.554 317.813C491.554 318.62 491.394 319.365 491.072 320.048C490.751 320.732 490.293 321.409 489.698 322.079C489.104 322.742 488.396 323.463 487.576 324.242L484.981 326.775V326.888H492.077V329Z" fill="black"/>
</g>
<defs>
<clipPath id="clip0_4770_177">
<rect width="595" height="511" fill="white"/>
</clipPath>
</defs>
</svg>
