<svg width="1901" height="374" viewBox="0 0 1901 374" fill="none" xmlns="http://www.w3.org/2000/svg">
<mask id="mask0_4689_793" style="mask-type:alpha" maskUnits="userSpaceOnUse" x="0" y="0" width="1901" height="374">
<rect width="1901" height="373.038" fill="#D9D9D9"/>
<rect x="0.5" y="0.5" width="1900" height="372.038" stroke="#F9F6F6" stroke-opacity="0.07"/>
</mask>
<g mask="url(#mask0_4689_793)">
<path d="M-119.199 16.9087C-124.055 15.1969 -130.284 14.7932 -136.45 15.6016C-142.619 16.4055 -148.532 18.3959 -152.782 21.2917L-335.336 146.19L-335.34 146.193C-339.478 149.022 -341.434 152.688 -341.52 156.241C-341.61 159.792 -339.833 163.563 -335.84 166.621L-30.8147 399.454C-26.6434 402.633 -20.6459 405.637 -14.2946 407.881C-7.94328 410.125 -1.38838 411.559 3.86442 411.698L3.86679 411.695L387.498 422.123C392.533 422.255 396.282 420.433 398.443 417.618C400.605 414.799 401.383 410.718 399.937 405.911L336.38 194.07L336.379 194.066C334.914 189.154 331.57 183.891 327.278 179.387C322.986 174.888 317.88 171.287 313.024 169.576L-119.199 16.9087Z" fill="#F9F6F6" fill-opacity="0.05" stroke="#F9F6F6" stroke-opacity="0.07" stroke-width="9"/>
<path d="M435.877 263.612C431.021 261.9 424.792 261.496 418.626 262.305C412.457 263.109 406.544 265.099 402.294 267.995L219.741 392.894L219.736 392.896C215.598 395.725 213.642 399.391 213.556 402.944C213.466 406.495 215.243 410.266 219.236 413.324L524.261 646.157C528.433 649.336 534.43 652.34 540.782 654.584C547.133 656.828 553.688 658.262 558.941 658.401L558.943 658.398L942.575 668.826C947.609 668.958 951.359 667.136 953.519 664.321C955.681 661.502 956.46 657.421 955.013 652.614L891.456 440.773L891.455 440.769C889.99 435.858 886.647 430.594 882.355 426.09C878.062 421.591 872.956 417.99 868.101 416.279L435.877 263.612Z" fill="#F9F6F6" fill-opacity="0.05" stroke="#F9F6F6" stroke-opacity="0.07" stroke-width="9"/>
<path d="M115.995 -34.7299C111.199 -32.8566 106.217 -29.0959 102.073 -24.4583C97.925 -19.8225 94.7448 -14.4544 93.4156 -9.48644L36.6577 204.298L36.656 204.303C35.3678 209.147 36.2796 213.202 38.5334 215.949C40.7839 218.698 44.5913 220.395 49.6124 220.104L432.672 197.366C437.907 197.051 444.411 195.411 450.688 192.965C456.964 190.519 462.865 187.327 466.936 184.003L466.935 183.999L764.358 -58.5327C768.258 -61.7198 769.909 -65.5469 769.708 -69.0902C769.505 -72.6366 767.431 -76.2368 763.198 -78.9339L576.762 -197.922L576.76 -197.924C572.443 -200.688 566.474 -202.493 560.283 -203.103C554.094 -203.71 547.875 -203.104 543.08 -201.231L115.995 -34.7299Z" fill="#F9F6F6" fill-opacity="0.05" stroke="#F9F6F6" stroke-opacity="0.07" stroke-width="9"/>
<path d="M152.778 -480.367C149.432 -484.281 144.242 -487.75 138.5 -490.138C132.758 -492.532 126.643 -493.77 121.514 -493.392L-99.0462 -476.707L-99.0511 -476.708C-104.05 -476.332 -107.579 -474.137 -109.433 -471.106C-111.289 -468.076 -111.64 -463.923 -109.714 -459.276L37.7006 -104.988C39.7192 -100.147 43.4061 -94.5436 47.7796 -89.4203C52.1532 -84.2971 57.1088 -79.7734 61.5857 -77.0222L61.5892 -77.0236L388.424 124.126C392.716 126.761 396.873 127.062 400.153 125.707C403.436 124.35 406.154 121.208 407.309 116.323L458.387 -98.8686L458.388 -98.872C459.58 -103.857 459.322 -110.088 457.862 -116.135C456.4 -122.18 453.784 -127.853 450.438 -131.766L152.778 -480.367Z" fill="#F9F6F6" fill-opacity="0.05" stroke="#F9F6F6" stroke-opacity="0.07" stroke-width="9"/>
<path d="M187.179 516.884C191.046 513.484 194.442 508.246 196.75 502.471C199.063 496.696 200.216 490.564 199.766 485.441L180.001 265.135L180.002 265.13C179.556 260.138 177.312 256.639 174.255 254.828C171.2 253.015 167.042 252.722 162.423 254.712L-189.771 407.063C-194.583 409.149 -200.135 412.914 -205.196 417.358C-210.258 421.803 -214.712 426.821 -217.4 431.336L-217.399 431.34L-413.962 760.953C-416.537 765.282 -416.78 769.443 -415.38 772.704C-413.976 775.967 -410.796 778.641 -405.896 779.728L-190.012 827.794L-190.008 827.795C-185.007 828.917 -178.78 828.572 -172.754 827.028C-166.731 825.481 -161.094 822.786 -157.228 819.386L187.179 516.884Z" fill="#F9F6F6" fill-opacity="0.05" stroke="#F9F6F6" stroke-opacity="0.07" stroke-width="9"/>
<path d="M2024.77 16.9165C2029.63 15.2047 2035.86 14.8011 2042.02 15.6094C2048.19 16.4133 2054.1 18.4038 2058.35 21.2995L2240.91 146.198L2240.91 146.201C2245.05 149.029 2247.01 152.696 2247.09 156.249C2247.18 159.8 2245.41 163.571 2241.41 166.628L1936.39 399.462C1932.22 402.641 1926.22 405.644 1919.87 407.889C1913.52 410.133 1906.96 411.567 1901.71 411.706L1901.71 411.703L1518.07 422.131C1513.04 422.262 1509.29 420.441 1507.13 417.626C1504.97 414.807 1504.19 410.726 1505.64 405.919L1569.19 194.078L1569.19 194.074C1570.66 189.162 1574 183.898 1578.29 179.395C1582.59 174.895 1587.69 171.295 1592.55 169.583L2024.77 16.9165Z" fill="#F9F6F6" fill-opacity="0.05" stroke="#F9F6F6" stroke-opacity="0.07" stroke-width="9"/>
<path d="M1469.69 263.62C1474.55 261.908 1480.77 261.504 1486.94 262.312C1493.11 263.116 1499.02 265.107 1503.27 268.003L1685.83 392.901L1685.83 392.904C1689.97 395.732 1691.92 399.399 1692.01 402.952C1692.1 406.503 1690.32 410.274 1686.33 413.332L1381.3 646.165C1377.13 649.344 1371.14 652.348 1364.78 654.592C1358.43 656.836 1351.88 658.27 1346.63 658.409L1346.62 658.406L962.992 668.834C957.957 668.966 954.208 667.144 952.047 664.329C949.886 661.51 949.107 657.429 950.553 652.622L1014.11 440.781L1014.11 440.777C1015.58 435.865 1018.92 430.601 1023.21 426.098C1027.5 421.599 1032.61 417.998 1037.47 416.286L1469.69 263.62Z" fill="#F9F6F6" fill-opacity="0.05" stroke="#F9F6F6" stroke-opacity="0.07" stroke-width="9"/>
<path d="M1789.57 -34.7319C1794.37 -32.8585 1799.35 -29.0979 1803.49 -24.4603C1807.64 -19.8244 1810.82 -14.4564 1812.15 -9.48839L1868.91 204.296L1868.91 204.301C1870.2 209.145 1869.29 213.2 1867.03 215.947C1864.78 218.696 1860.98 220.393 1855.95 220.102L1472.89 197.364C1467.66 197.049 1461.16 195.409 1454.88 192.963C1448.6 190.518 1442.7 187.325 1438.63 184.001L1438.63 183.997L1141.21 -58.5347C1137.31 -61.7218 1135.66 -65.5489 1135.86 -69.0921C1136.06 -72.6385 1138.14 -76.2387 1142.37 -78.9359L1328.8 -197.924L1328.81 -197.926C1333.12 -200.69 1339.09 -202.495 1345.28 -203.105C1351.47 -203.711 1357.69 -203.106 1362.49 -201.233L1789.57 -34.7319Z" fill="#F9F6F6" fill-opacity="0.05" stroke="#F9F6F6" stroke-opacity="0.07" stroke-width="9"/>
<path d="M1752.79 -480.369C1756.14 -484.283 1761.33 -487.752 1767.07 -490.14C1772.81 -492.534 1778.93 -493.772 1784.06 -493.394L2004.62 -476.709L2004.62 -476.71C2009.62 -476.333 2013.15 -474.139 2015 -471.108C2016.86 -468.078 2017.21 -463.925 2015.29 -459.278L1867.87 -104.99C1865.85 -100.149 1862.17 -94.5455 1857.79 -89.4223C1853.42 -84.299 1848.46 -79.7753 1843.99 -77.0241L1843.98 -77.0256L1517.15 124.124C1512.86 126.759 1508.7 127.061 1505.42 125.706C1502.14 124.348 1499.42 121.206 1498.26 116.321L1447.19 -98.8705L1447.18 -98.874C1445.99 -103.859 1446.25 -110.09 1447.71 -116.137C1449.17 -122.182 1451.79 -127.855 1455.13 -131.768L1752.79 -480.369Z" fill="#F9F6F6" fill-opacity="0.05" stroke="#F9F6F6" stroke-opacity="0.07" stroke-width="9"/>
<path d="M1718.35 516.923C1714.48 513.523 1711.09 508.285 1708.78 502.51C1706.47 496.735 1705.31 490.603 1705.76 485.48L1725.53 265.175L1725.53 265.17C1725.97 260.177 1728.22 256.678 1731.27 254.867C1734.33 253.054 1738.49 252.761 1743.11 254.751L2095.3 407.102C2100.11 409.188 2105.66 412.953 2110.73 417.397C2115.79 421.842 2120.24 426.861 2122.93 431.375L2122.93 431.379L2319.49 760.992C2322.07 765.321 2322.31 769.482 2320.91 772.743C2319.51 776.006 2316.33 778.68 2311.43 779.767L2095.54 827.833L2095.54 827.834C2090.54 828.956 2084.31 828.611 2078.28 827.067C2072.26 825.52 2066.62 822.825 2062.76 819.425L1718.35 516.923Z" fill="#F9F6F6" fill-opacity="0.05" stroke="#F9F6F6" stroke-opacity="0.07" stroke-width="9"/>
</g>
</svg>
