<svg width="1901" height="1400" viewBox="0 0 1901 1400" fill="none" xmlns="http://www.w3.org/2000/svg">
<g clip-path="url(#clip0_4729_172)">
<path d="M119.891 877.862C116.684 876.732 112.57 876.465 108.498 876.999C104.425 877.53 100.52 878.844 97.7137 880.757L-22.8349 963.233L-22.8378 963.235C-25.5704 965.103 -26.8621 967.524 -26.9189 969.87C-26.978 972.215 -25.8051 974.705 -23.168 976.724L178.255 1130.48C181.009 1132.57 184.97 1134.56 189.164 1136.04C193.358 1137.52 197.686 1138.47 201.155 1138.56L201.157 1138.56L454.487 1145.44C457.812 1145.53 460.288 1144.33 461.714 1142.47C463.142 1140.61 463.656 1137.91 462.701 1134.74L420.731 994.85L420.731 994.848C419.763 991.605 417.555 988.129 414.721 985.155C411.886 982.183 408.515 979.806 405.308 978.676L119.891 877.862Z" fill="#71B8B8" fill-opacity="0.03" stroke="#71B8B8" stroke-opacity="0.05" stroke-width="9"/>
<path d="M486.443 1040.77C483.237 1039.64 479.123 1039.38 475.051 1039.91C470.978 1040.44 467.073 1041.76 464.266 1043.67L343.718 1126.15L343.715 1126.15C340.982 1128.01 339.691 1130.44 339.634 1132.78C339.575 1135.13 340.748 1137.62 343.385 1139.64L544.808 1293.39C547.562 1295.49 551.523 1297.47 555.717 1298.95C559.911 1300.43 564.239 1301.38 567.708 1301.47L567.709 1301.47L821.04 1308.36C824.365 1308.44 826.84 1307.24 828.267 1305.38C829.695 1303.52 830.209 1300.83 829.254 1297.65L787.284 1157.76L787.283 1157.76C786.316 1154.52 784.108 1151.04 781.274 1148.07C778.439 1145.1 775.067 1142.72 771.861 1141.59L486.443 1040.77Z" fill="#71B8B8" fill-opacity="0.03" stroke="#71B8B8" stroke-opacity="0.05" stroke-width="9"/>
<path d="M275.203 843.773C272.036 845.01 268.745 847.493 266.009 850.555C263.27 853.617 261.17 857.162 260.292 860.442L222.812 1001.61L222.811 1001.62C221.961 1004.82 222.563 1007.49 224.051 1009.31C225.537 1011.12 228.051 1012.24 231.367 1012.05L484.32 997.037C487.777 996.829 492.072 995.746 496.216 994.131C500.361 992.516 504.258 990.407 506.946 988.213L506.945 988.21L703.348 828.054C705.923 825.95 707.014 823.423 706.881 821.083C706.747 818.741 705.377 816.364 702.582 814.583L579.469 736.009L579.468 736.008C576.617 734.182 572.676 732.99 568.587 732.588C564.5 732.187 560.394 732.587 557.227 733.824L275.203 843.773Z" fill="#71B8B8" fill-opacity="0.03" stroke="#71B8B8" stroke-opacity="0.05" stroke-width="9"/>
<path d="M299.49 549.494C297.281 546.909 293.854 544.619 290.062 543.041C286.27 541.461 282.232 540.643 278.845 540.893L133.198 551.91L133.195 551.91C129.894 552.159 127.564 553.607 126.34 555.61C125.114 557.61 124.882 560.353 126.154 563.421L223.499 797.375C224.832 800.571 227.267 804.272 230.155 807.655C233.043 811.038 236.315 814.025 239.271 815.842L239.274 815.841L455.098 948.67C457.933 950.41 460.678 950.609 462.844 949.714C465.012 948.818 466.806 946.742 467.569 943.517L501.298 801.416L501.299 801.413C502.086 798.121 501.916 794.007 500.952 790.014C499.986 786.022 498.259 782.275 496.049 779.692L299.49 549.494Z" fill="#71B8B8" fill-opacity="0.03" stroke="#71B8B8" stroke-opacity="0.05" stroke-width="9"/>
<path d="M205.398 639.971C206.516 636.76 206.766 632.645 206.216 628.575C205.669 624.504 204.338 620.605 202.415 617.806L119.453 497.59L119.452 497.588C117.573 494.863 115.146 493.581 112.8 493.533C110.455 493.484 107.969 494.667 105.961 497.312L-46.9773 699.352C-49.0653 702.115 -51.033 706.084 -52.498 710.284C-53.9631 714.484 -54.8924 718.816 -54.9704 722.285L-54.9684 722.287L-60.8339 975.643C-60.9073 978.968 -59.6947 981.439 -57.8297 982.858C-55.9626 984.278 -53.2654 984.781 -50.0953 983.814L89.6235 941.28L89.626 941.28C92.8654 940.299 96.3325 938.077 99.2948 935.231C102.255 932.385 104.619 929.003 105.736 925.793L205.398 639.971Z" fill="#71B8B8" fill-opacity="0.03" stroke="#71B8B8" stroke-opacity="0.05" stroke-width="9"/>
<path d="M322.191 1208.01C324.744 1205.76 326.987 1202.31 328.511 1198.49C330.038 1194.68 330.8 1190.63 330.503 1187.25L317.451 1041.77L317.451 1041.76C317.157 1038.47 315.675 1036.16 313.656 1034.96C311.639 1033.76 308.893 1033.57 305.843 1034.88L73.2723 1135.49C70.0948 1136.87 66.4289 1139.35 63.0864 1142.29C59.744 1145.22 56.8028 1148.54 55.0275 1151.52L55.0285 1151.52L-74.7717 1369.18C-76.4721 1372.04 -76.6326 1374.79 -75.7077 1376.94C-74.7811 1379.09 -72.681 1380.86 -69.4451 1381.58L73.1136 1413.32L73.1159 1413.32C76.4185 1414.06 80.5302 1413.83 84.5096 1412.81C88.4872 1411.79 92.2093 1410.01 94.7621 1407.77L322.191 1208.01Z" fill="#71B8B8" fill-opacity="0.03" stroke="#71B8B8" stroke-opacity="0.05" stroke-width="9"/>
<path d="M595.358 358.204C596.445 354.982 596.657 350.865 596.069 346.801C595.483 342.735 594.117 338.848 592.167 336.068L508.086 216.632L508.085 216.629C506.181 213.922 503.742 212.663 501.396 212.637C499.05 212.61 496.576 213.816 494.592 216.48L343.548 419.94C341.486 422.722 339.555 426.709 338.129 430.922C336.704 435.136 335.815 439.477 335.769 442.946L335.771 442.948L332.272 696.348C332.23 699.673 333.466 702.133 335.344 703.535C337.224 704.937 339.926 705.415 343.087 704.418L482.402 660.581L482.405 660.581C485.635 659.57 489.081 657.316 492.016 654.442C494.95 651.568 497.282 648.165 498.369 644.944L595.358 358.204Z" fill="#71B8B8" fill-opacity="0.03" stroke="#71B8B8" stroke-opacity="0.05" stroke-width="9"/>
<path d="M599.321 1449.09C602.684 1449.6 606.774 1449.08 610.671 1447.79C614.57 1446.49 618.156 1444.46 620.55 1442.06L723.321 1338.27L723.323 1338.26C725.653 1335.91 726.463 1333.29 726.076 1330.98C725.69 1328.66 724.067 1326.44 721.096 1324.95L494.225 1212.08C491.123 1210.54 486.859 1209.34 482.46 1208.68C478.062 1208.02 473.632 1207.91 470.209 1208.47L470.208 1208.48L220.148 1249.64C216.867 1250.18 214.664 1251.83 213.614 1253.92C212.565 1256.02 212.57 1258.77 214.108 1261.7L281.782 1391.13L281.783 1391.13C283.347 1394.13 286.172 1397.13 289.518 1399.51C292.863 1401.89 296.624 1403.59 299.986 1404.09L599.321 1449.09Z" fill="#71B8B8" fill-opacity="0.03" stroke="#71B8B8" stroke-opacity="0.05" stroke-width="9"/>
<path d="M285.898 524.784C288.942 526.299 292.992 527.068 297.099 527.037C301.206 527.009 305.243 526.184 308.263 524.63L438.013 457.554L438.016 457.553C440.957 456.034 442.536 453.789 442.88 451.468C443.226 449.148 442.367 446.532 439.998 444.205L258.943 266.921C256.466 264.5 252.779 262.046 248.798 260.061C244.817 258.076 240.638 256.606 237.206 256.089L237.205 256.091L-13.3708 218.2C-16.6598 217.707 -19.2643 218.597 -20.9082 220.267C-22.553 221.939 -23.3938 224.551 -22.8352 227.818L1.66895 371.797L1.6689 371.8C2.23157 375.137 3.99672 378.858 6.44499 382.156C8.89397 385.453 11.949 388.226 14.9924 389.741L285.898 524.784Z" fill="#71B8B8" fill-opacity="0.03" stroke="#71B8B8" stroke-opacity="0.05" stroke-width="9"/>
<path d="M1782.08 877.862C1785.29 876.732 1789.4 876.465 1793.48 876.999C1797.55 877.53 1801.45 878.844 1804.26 880.757L1924.81 963.233L1924.81 963.235C1927.55 965.103 1928.84 967.524 1928.89 969.87C1928.95 972.215 1927.78 974.705 1925.14 976.724L1723.72 1130.48C1720.97 1132.57 1717 1134.56 1712.81 1136.04C1708.62 1137.52 1704.29 1138.47 1700.82 1138.56L1700.82 1138.56L1447.49 1145.44C1444.16 1145.53 1441.69 1144.33 1440.26 1142.47C1438.83 1140.61 1438.32 1137.91 1439.27 1134.74L1481.24 994.85L1481.24 994.848C1482.21 991.605 1484.42 988.129 1487.25 985.155C1490.09 982.183 1493.46 979.806 1496.67 978.676L1782.08 877.862Z" fill="#71B8B8" fill-opacity="0.03" stroke="#71B8B8" stroke-opacity="0.05" stroke-width="9"/>
<path d="M1415.53 1040.77C1418.74 1039.64 1422.85 1039.38 1426.92 1039.91C1431 1040.44 1434.9 1041.76 1437.71 1043.67L1558.26 1126.15L1558.26 1126.15C1560.99 1128.01 1562.28 1130.44 1562.34 1132.78C1562.4 1135.13 1561.23 1137.62 1558.59 1139.64L1357.17 1293.39C1354.41 1295.49 1350.45 1297.47 1346.26 1298.95C1342.06 1300.43 1337.74 1301.38 1334.27 1301.47L1334.27 1301.47L1080.93 1308.36C1077.61 1308.44 1075.13 1307.24 1073.71 1305.38C1072.28 1303.52 1071.77 1300.83 1072.72 1297.65L1114.69 1157.76L1114.69 1157.76C1115.66 1154.52 1117.87 1151.04 1120.7 1148.07C1123.54 1145.1 1126.91 1142.72 1130.11 1141.59L1415.53 1040.77Z" fill="#71B8B8" fill-opacity="0.03" stroke="#71B8B8" stroke-opacity="0.05" stroke-width="9"/>
<path d="M1626.77 843.773C1629.94 845.01 1633.23 847.493 1635.97 850.555C1638.7 853.617 1640.8 857.162 1641.68 860.442L1679.16 1001.61L1679.16 1001.62C1680.01 1004.82 1679.41 1007.49 1677.92 1009.31C1676.44 1011.12 1673.92 1012.24 1670.61 1012.05L1417.65 997.037C1414.2 996.829 1409.9 995.746 1405.76 994.131C1401.61 992.516 1397.72 990.407 1395.03 988.213L1395.03 988.21L1198.63 828.054C1196.05 825.95 1194.96 823.423 1195.09 821.083C1195.23 818.741 1196.6 816.364 1199.39 814.583L1322.51 736.009L1322.51 736.008C1325.36 734.182 1329.3 732.99 1333.39 732.588C1337.47 732.187 1341.58 732.587 1344.75 733.824L1626.77 843.773Z" fill="#71B8B8" fill-opacity="0.03" stroke="#71B8B8" stroke-opacity="0.05" stroke-width="9"/>
<path d="M1602.48 549.494C1604.69 546.909 1608.12 544.619 1611.91 543.041C1615.7 541.461 1619.74 540.643 1623.13 540.893L1768.78 551.91L1768.78 551.91C1772.08 552.159 1774.41 553.607 1775.63 555.61C1776.86 557.61 1777.09 560.353 1775.82 563.421L1678.48 797.375C1677.14 800.571 1674.71 804.272 1671.82 807.655C1668.93 811.038 1665.66 814.025 1662.7 815.842L1662.7 815.841L1446.88 948.67C1444.04 950.41 1441.3 950.609 1439.13 949.714C1436.96 948.818 1435.17 946.742 1434.41 943.517L1400.68 801.416L1400.68 801.413C1399.89 798.121 1400.06 794.007 1401.02 790.014C1401.99 786.022 1403.72 782.275 1405.93 779.692L1602.48 549.494Z" fill="#71B8B8" fill-opacity="0.03" stroke="#71B8B8" stroke-opacity="0.05" stroke-width="9"/>
<path d="M1696.58 639.971C1695.46 636.76 1695.21 632.645 1695.76 628.575C1696.31 624.504 1697.64 620.605 1699.56 617.806L1782.52 497.59L1782.52 497.588C1784.4 494.863 1786.83 493.581 1789.17 493.533C1791.52 493.484 1794.01 494.667 1796.01 497.312L1948.95 699.352C1951.04 702.115 1953.01 706.084 1954.47 710.284C1955.94 714.484 1956.87 718.816 1956.95 722.285L1956.94 722.287L1962.81 975.643C1962.88 978.968 1961.67 981.439 1959.8 982.858C1957.94 984.278 1955.24 984.781 1952.07 983.814L1812.35 941.28L1812.35 941.28C1809.11 940.299 1805.64 938.077 1802.68 935.231C1799.72 932.385 1797.36 929.003 1796.24 925.793L1696.58 639.971Z" fill="#71B8B8" fill-opacity="0.03" stroke="#71B8B8" stroke-opacity="0.05" stroke-width="9"/>
<path d="M1579.78 1208.01C1577.23 1205.76 1574.99 1202.31 1573.46 1198.49C1571.94 1194.68 1571.17 1190.63 1571.47 1187.25L1584.52 1041.77L1584.52 1041.76C1584.82 1038.47 1586.3 1036.16 1588.32 1034.96C1590.34 1033.76 1593.08 1033.57 1596.13 1034.88L1828.7 1135.49C1831.88 1136.87 1835.55 1139.35 1838.89 1142.29C1842.23 1145.22 1845.17 1148.54 1846.95 1151.52L1846.95 1151.52L1976.75 1369.18C1978.45 1372.04 1978.61 1374.79 1977.68 1376.94C1976.76 1379.09 1974.66 1380.86 1971.42 1381.58L1828.86 1413.32L1828.86 1413.32C1825.56 1414.06 1821.44 1413.83 1817.47 1412.81C1813.49 1411.79 1809.77 1410.01 1807.21 1407.77L1579.78 1208.01Z" fill="#71B8B8" fill-opacity="0.03" stroke="#71B8B8" stroke-opacity="0.05" stroke-width="9"/>
<path d="M1306.62 358.204C1305.53 354.982 1305.32 350.865 1305.91 346.801C1306.49 342.735 1307.86 338.848 1309.81 336.068L1393.89 216.632L1393.89 216.629C1395.79 213.922 1398.23 212.663 1400.58 212.637C1402.92 212.61 1405.4 213.816 1407.38 216.48L1558.43 419.94C1560.49 422.722 1562.42 426.709 1563.85 430.922C1565.27 435.136 1566.16 439.477 1566.21 442.946L1566.2 442.948L1569.7 696.348C1569.74 699.673 1568.51 702.133 1566.63 703.535C1564.75 704.937 1562.05 705.415 1558.89 704.418L1419.57 660.581L1419.57 660.581C1416.34 659.57 1412.89 657.316 1409.96 654.442C1407.02 651.568 1404.69 648.165 1403.61 644.944L1306.62 358.204Z" fill="#71B8B8" fill-opacity="0.03" stroke="#71B8B8" stroke-opacity="0.05" stroke-width="9"/>
<path d="M1302.65 1449.09C1299.29 1449.6 1295.2 1449.08 1291.3 1447.79C1287.4 1446.49 1283.82 1444.46 1281.42 1442.06L1178.65 1338.27L1178.65 1338.26C1176.32 1335.91 1175.51 1333.29 1175.9 1330.98C1176.28 1328.66 1177.91 1326.44 1180.88 1324.95L1407.75 1212.08C1410.85 1210.54 1415.12 1209.34 1419.51 1208.68C1423.91 1208.02 1428.34 1207.91 1431.77 1208.47L1431.77 1208.48L1681.83 1249.64C1685.11 1250.18 1687.31 1251.83 1688.36 1253.92C1689.41 1256.02 1689.4 1258.77 1687.87 1261.7L1620.19 1391.13L1620.19 1391.13C1618.63 1394.13 1615.8 1397.13 1612.46 1399.51C1609.11 1401.89 1605.35 1403.59 1601.99 1404.09L1302.65 1449.09Z" fill="#71B8B8" fill-opacity="0.03" stroke="#71B8B8" stroke-opacity="0.05" stroke-width="9"/>
<path d="M1616.08 524.784C1613.03 526.299 1608.98 527.068 1604.88 527.037C1600.77 527.009 1596.73 526.184 1593.71 524.63L1463.96 457.554L1463.96 457.553C1461.02 456.034 1459.44 453.789 1459.09 451.468C1458.75 449.148 1459.61 446.532 1461.98 444.205L1643.03 266.921C1645.51 264.5 1649.2 262.046 1653.18 260.061C1657.16 258.076 1661.34 256.606 1664.77 256.089L1664.77 256.091L1915.35 218.2C1918.63 217.707 1921.24 218.597 1922.88 220.267C1924.53 221.939 1925.37 224.551 1924.81 227.818L1900.31 371.797L1900.31 371.8C1899.74 375.137 1897.98 378.858 1895.53 382.156C1893.08 385.453 1890.03 388.226 1886.98 389.741L1616.08 524.784Z" fill="#71B8B8" fill-opacity="0.03" stroke="#71B8B8" stroke-opacity="0.05" stroke-width="9"/>
</g>
<defs>
<clipPath id="clip0_4729_172">
<rect width="1901" height="1400" fill="white"/>
</clipPath>
</defs>
</svg>
