<svg width="791" height="629" viewBox="0 0 791 629" fill="none" xmlns="http://www.w3.org/2000/svg">
<path d="M471.788 380.496C471.375 386.672 470.962 392.843 470.549 399.007C469.983 411.919 468.574 424.78 466.333 437.508C464.233 448.157 460.894 458.72 454.923 467.786C448.95 476.835 440.088 484.318 429.589 487.071C423.143 488.615 416.441 488.762 409.934 487.501C397.663 480.534 389.351 489.445 401.605 498.51C404.385 500.565 407.275 502.466 410.262 504.205L415.821 589.998L312.557 567.635L332.711 453.508C329.624 450.705 326.801 447.624 324.278 444.304C312.729 428.976 308.754 409.002 309.511 389.838C310.286 370.656 315.397 351.956 320.474 333.463C321.769 328.445 323.332 323.501 325.156 318.65C327.41 319.58 329.699 320.423 332.023 321.128C346.875 325.633 362.657 325.996 378.181 325.979C405.803 325.962 433.392 324.884 460.945 322.745C467.277 333.165 471.123 344.903 472.184 357.049C472.628 364.864 472.496 372.702 471.788 380.497V380.496Z" fill="#CCCCCC"/>
<path d="M471.22 364.721C468.38 381.543 470.874 398.833 478.353 414.168C481.121 419.808 484.549 426.603 481.179 431.906C480.233 433.232 479.003 434.329 477.578 435.118C476.154 435.907 474.571 436.368 472.945 436.467C469.693 436.639 466.437 436.218 463.336 435.224" fill="#CCCCCC"/>
<path d="M362.47 380.978C362.484 385.443 361.911 389.891 360.766 394.207V394.225C360.749 394.311 360.714 394.397 360.697 394.483C357.221 407.265 348.926 416.243 339.234 416.243C329.596 416.243 321.335 407.332 317.807 394.653C317.566 393.776 317.36 392.897 317.17 391.987C316.929 390.972 316.74 389.926 316.585 388.839C316.448 387.979 316.344 387.101 316.258 386.207C316.137 384.969 316.052 383.73 316.034 382.439V382.422C316 381.94 316 381.458 316 380.977V380.547L316.018 380.529C316.02 378.349 316.163 376.171 316.448 374.009C316.568 373.097 316.706 372.22 316.878 371.343C317.084 370.274 317.308 369.227 317.583 368.195C317.807 367.283 318.065 366.406 318.341 365.528C318.723 364.359 319.133 363.223 319.598 362.139C319.89 361.434 320.2 360.746 320.51 360.078C324.744 351.374 331.558 345.713 339.235 345.713C349.852 345.713 358.803 356.534 361.574 371.291C361.608 371.514 361.66 371.738 361.677 371.962V371.979C362.208 374.949 362.473 377.961 362.47 380.978Z" fill="#E6E6E6"/>
<path d="M320.73 360.833C320.72 361.149 320.602 361.451 320.395 361.689C320.188 361.927 319.905 362.087 319.594 362.141C319.886 361.435 320.196 360.747 320.506 360.079C320.649 360.305 320.726 360.566 320.73 360.833Z" fill="#71B8B8"/>
<path d="M341.821 359.267H325.187C324.859 359.267 324.594 359.532 324.594 359.86V361.348C324.594 361.676 324.859 361.941 325.187 361.941H341.821C342.149 361.941 342.415 361.676 342.415 361.348V359.86C342.415 359.532 342.149 359.267 341.821 359.267Z" fill="#71B8B8"/>
<path d="M320.271 366.854C320.27 367.21 320.129 367.551 319.877 367.803C319.625 368.055 319.284 368.196 318.928 368.196H317.586C317.81 367.285 318.068 366.408 318.343 365.53H318.928C319.281 365.53 319.62 365.668 319.872 365.916C320.123 366.164 320.267 366.501 320.271 366.854Z" fill="#71B8B8"/>
<path d="M327.573 365.526H323.648C323.32 365.526 323.055 365.792 323.055 366.12V367.608C323.055 367.935 323.32 368.201 323.648 368.201H327.573C327.901 368.201 328.167 367.935 328.167 367.608V366.12C328.167 365.792 327.901 365.526 327.573 365.526Z" fill="#71B8B8"/>
<path d="M349.259 365.304H332.625C332.297 365.304 332.031 365.569 332.031 365.897V367.385C332.031 367.713 332.297 367.978 332.625 367.978H349.259C349.586 367.978 349.852 367.713 349.852 367.385V365.897C349.852 365.569 349.586 365.304 349.259 365.304Z" fill="#71B8B8"/>
<path d="M327.105 371.561H323.179C322.852 371.561 322.586 371.826 322.586 372.154V373.642C322.586 373.97 322.852 374.235 323.179 374.235H327.105C327.432 374.235 327.698 373.97 327.698 373.642V372.154C327.698 371.826 327.432 371.561 327.105 371.561Z" fill="#71B8B8"/>
<path d="M335.003 371.561H331.078C330.75 371.561 330.484 371.826 330.484 372.154V373.642C330.484 373.97 330.75 374.235 331.078 374.235H335.003C335.331 374.235 335.597 373.97 335.597 373.642V372.154C335.597 371.826 335.331 371.561 335.003 371.561Z" fill="#71B8B8"/>
<path d="M320.128 372.669C320.128 373.025 319.986 373.366 319.735 373.617C319.483 373.869 319.142 374.011 318.786 374.011H316.445C316.566 373.099 316.704 372.222 316.875 371.345H318.785C318.96 371.343 319.134 371.376 319.297 371.442C319.459 371.507 319.607 371.605 319.732 371.728C319.857 371.851 319.956 371.997 320.024 372.159C320.092 372.321 320.127 372.494 320.128 372.67L320.128 372.669Z" fill="#71B8B8"/>
<path d="M356.688 371.339H340.054C339.727 371.339 339.461 371.604 339.461 371.932V373.42C339.461 373.748 339.727 374.013 340.054 374.013H356.688C357.016 374.013 357.282 373.748 357.282 373.42V371.932C357.282 371.604 357.016 371.339 356.688 371.339Z" fill="#71B8B8"/>
<path d="M320.733 381.477C320.733 381.652 320.698 381.826 320.63 381.987C320.562 382.149 320.463 382.295 320.338 382.418C320.213 382.542 320.065 382.639 319.902 382.705C319.74 382.77 319.566 382.803 319.391 382.802H316.964C316.619 382.803 316.287 382.674 316.034 382.44V382.423C316 381.941 316 381.459 316 380.977V380.547L316.018 380.529C316.141 380.404 316.288 380.304 316.451 380.236C316.613 380.168 316.788 380.133 316.964 380.134H319.391C319.747 380.134 320.088 380.276 320.34 380.528C320.592 380.779 320.733 381.121 320.733 381.477Z" fill="#CCCCCC"/>
<path d="M341.821 379.91H325.187C324.859 379.91 324.594 380.176 324.594 380.503V381.991C324.594 382.319 324.859 382.585 325.187 382.585H341.821C342.149 382.585 342.415 382.319 342.415 381.991V380.503C342.415 380.176 342.149 379.91 341.821 379.91Z" fill="#CCCCCC"/>
<path d="M320.268 387.498C320.267 387.854 320.126 388.195 319.874 388.447C319.622 388.698 319.281 388.84 318.925 388.84H316.585C316.447 387.98 316.344 387.103 316.258 386.209C316.335 386.18 316.417 386.169 316.498 386.174H318.925C319.278 386.174 319.617 386.312 319.869 386.56C320.12 386.808 320.264 387.145 320.268 387.498Z" fill="#CCCCCC"/>
<path d="M327.573 386.17H323.648C323.32 386.17 323.055 386.436 323.055 386.763V388.251C323.055 388.579 323.32 388.845 323.648 388.845H327.573C327.901 388.845 328.167 388.579 328.167 388.251V386.763C328.167 386.436 327.901 386.17 327.573 386.17Z" fill="#CCCCCC"/>
<path d="M349.259 385.948H332.625C332.297 385.948 332.031 386.214 332.031 386.541V388.03C332.031 388.357 332.297 388.623 332.625 388.623H349.259C349.586 388.623 349.852 388.357 349.852 388.03V386.541C349.852 386.214 349.586 385.948 349.259 385.948Z" fill="#CCCCCC"/>
<path d="M327.105 392.205H323.179C322.852 392.205 322.586 392.471 322.586 392.798V394.286C322.586 394.614 322.852 394.88 323.179 394.88H327.105C327.432 394.88 327.698 394.614 327.698 394.286V392.798C327.698 392.471 327.432 392.205 327.105 392.205Z" fill="#CCCCCC"/>
<path d="M335.003 392.205H331.078C330.75 392.205 330.484 392.471 330.484 392.798V394.286C330.484 394.614 330.75 394.88 331.078 394.88H335.003C335.331 394.88 335.597 394.614 335.597 394.286V392.798C335.597 392.471 335.331 392.205 335.003 392.205Z" fill="#CCCCCC"/>
<path d="M320.132 393.313C320.131 393.669 319.99 394.01 319.738 394.262C319.487 394.513 319.146 394.655 318.79 394.656H317.809C317.568 393.778 317.361 392.899 317.172 391.989H318.792C318.967 391.988 319.141 392.021 319.304 392.086C319.466 392.152 319.614 392.249 319.739 392.372C319.864 392.496 319.963 392.642 320.031 392.804C320.099 392.965 320.134 393.139 320.135 393.314L320.132 393.313Z" fill="#CCCCCC"/>
<path d="M356.688 391.982H340.054C339.727 391.982 339.461 392.248 339.461 392.576V394.064C339.461 394.391 339.727 394.657 340.054 394.657H356.688C357.016 394.657 357.282 394.391 357.282 394.064V392.576C357.282 392.248 357.016 391.982 356.688 391.982Z" fill="#CCCCCC"/>
<path d="M452.706 117.422H344.892L290.984 210.755L344.892 304.087H452.706L506.614 210.755L452.706 117.422Z" fill="#71B8B8"/>
<path d="M353.913 288.462H443.68L488.563 210.755L443.68 133.047H353.913L309.031 210.754L353.913 288.462Z" fill="white"/>
<path d="M365.301 132.931H364.133V181.121H365.301V132.931Z" fill="#3F3D56"/>
<path d="M364.723 187.215C366.56 187.215 368.048 185.727 368.048 183.891C368.048 182.055 366.56 180.567 364.723 180.567C362.887 180.567 361.398 182.055 361.398 183.891C361.398 185.727 362.887 187.215 364.723 187.215Z" fill="#71B8B8"/>
<path d="M390.238 132.931H389.07V181.121H390.238V132.931Z" fill="#3F3D56"/>
<path d="M389.653 187.215C391.489 187.215 392.978 185.727 392.978 183.891C392.978 182.055 391.489 180.567 389.653 180.567C387.817 180.567 386.328 182.055 386.328 183.891C386.328 185.727 387.817 187.215 389.653 187.215Z" fill="#3F3D56"/>
<path d="M434.019 132.931H432.852V181.121H434.019V132.931Z" fill="#3F3D56"/>
<path d="M433.434 187.215C435.271 187.215 436.759 185.727 436.759 183.891C436.759 182.055 435.271 180.567 433.434 180.567C431.598 180.567 430.109 182.055 430.109 183.891C430.109 185.727 431.598 187.215 433.434 187.215Z" fill="#3F3D56"/>
<path d="M415.145 234.849C416.982 234.849 418.47 233.361 418.47 231.526C418.47 229.69 416.982 228.202 415.145 228.202C413.309 228.202 411.82 229.69 411.82 231.526C411.82 233.361 413.309 234.849 415.145 234.849Z" fill="#3F3D56"/>
<path d="M347.544 204.385C349.38 204.385 350.869 202.897 350.869 201.062C350.869 199.226 349.38 197.738 347.544 197.738C345.707 197.738 344.219 199.226 344.219 201.062C344.219 202.897 345.707 204.385 347.544 204.385Z" fill="#3F3D56"/>
<path d="M415.732 228.756H414.564V170.688H389.656V169.521H415.73L415.732 228.756Z" fill="#3F3D56"/>
<path d="M372.481 255.898C374.317 255.898 375.806 254.41 375.806 252.575C375.806 250.739 374.317 249.251 372.481 249.251C370.645 249.251 369.156 250.739 369.156 252.575C369.156 254.41 370.645 255.898 372.481 255.898Z" fill="#71B8B8"/>
<path d="M373.058 249.805H371.89V191.736H346.984V190.568H373.058V249.805Z" fill="#3F3D56"/>
<path d="M449.505 229.864C451.341 229.864 452.83 228.376 452.83 226.54C452.83 224.705 451.341 223.217 449.505 223.217C447.668 223.217 446.18 224.705 446.18 226.54C446.18 228.376 447.668 229.864 449.505 229.864Z" fill="#71B8B8"/>
<path d="M450.083 223.771H448.915V165.703H432.875V164.535H450.082L450.083 223.771Z" fill="#3F3D56"/>
<path d="M348.129 197.738H346.961V168.866H364.723V170.034H348.129V197.738Z" fill="#3F3D56"/>
<path d="M389.934 268.915C391.771 268.915 393.259 267.427 393.259 265.591C393.259 263.756 391.771 262.268 389.934 262.268C388.098 262.268 386.609 263.756 386.609 265.591C386.609 267.427 388.098 268.915 389.934 268.915Z" fill="#3F3D56"/>
<path d="M390.52 262.267H389.352V234.563H372.758V233.394H390.52V262.267Z" fill="#3F3D56"/>
<path d="M432.325 244.266C434.161 244.266 435.65 242.778 435.65 240.943C435.65 239.107 434.161 237.619 432.325 237.619C430.489 237.619 429 239.107 429 240.943C429 242.778 430.489 244.266 432.325 244.266Z" fill="#3F3D56"/>
<path d="M432.91 237.619H431.742V208.747H449.504V209.914H432.91V237.619Z" fill="#3F3D56"/>
<path d="M282.526 42.751C282.165 42.7512 281.819 42.8947 281.564 43.1499C281.308 43.4052 281.165 43.7513 281.164 44.1123V87.6639C281.16 87.8453 281.192 88.0258 281.259 88.1947C281.325 88.3636 281.425 88.5174 281.552 88.6473C281.678 88.7771 281.83 88.8803 281.997 88.9507C282.165 89.0212 282.344 89.0575 282.526 89.0575C282.708 89.0575 282.887 89.0212 283.055 88.9507C283.222 88.8803 283.373 88.7771 283.5 88.6473C283.627 88.5174 283.727 88.3636 283.793 88.1947C283.86 88.0258 283.892 87.8453 283.887 87.6639V44.1123C283.887 43.7515 283.744 43.4054 283.489 43.1502C283.233 42.895 282.887 42.7514 282.526 42.751Z" fill="#3F3D56"/>
<path d="M291.752 107.727H234.509C233.023 107.725 231.599 107.135 230.549 106.085C229.499 105.035 228.908 103.611 228.906 102.126V45.6004C228.908 44.1156 229.499 42.692 230.549 41.6421C231.599 40.5922 233.023 40.0016 234.509 40H291.752C293.238 40.0016 294.662 40.5922 295.712 41.6421C296.762 42.692 297.353 44.1156 297.355 45.6004V102.126C297.353 103.611 296.762 105.035 295.712 106.085C294.662 107.135 293.238 107.725 291.752 107.727Z" fill="#090814"/>
<path d="M245.172 41.668C243.256 41.668 241.358 42.0453 239.587 42.7785C237.817 43.5117 236.208 44.5864 234.852 45.9411C233.497 47.2958 232.422 48.9042 231.689 50.6742C230.955 52.4442 230.578 54.3413 230.578 56.2572V100.927C230.578 102.288 231.119 103.593 232.082 104.555C233.044 105.518 234.35 106.058 235.711 106.058H270.716C277.341 106.058 283.694 103.428 288.378 98.7455C293.062 94.0633 295.693 87.7129 295.693 81.0912V46.7988C295.693 46.125 295.561 45.4578 295.303 44.8353C295.045 44.2128 294.667 43.6472 294.19 43.1708C293.713 42.6943 293.147 42.3164 292.525 42.0585C291.902 41.8007 291.234 41.668 290.56 41.668H245.172Z" fill="white"/>
<path d="M278.468 58.0956H247.685C247.408 58.0882 247.144 57.9728 246.951 57.7739C246.757 57.5751 246.648 57.3085 246.648 57.0309C246.648 56.7534 246.757 56.4868 246.951 56.2879C247.144 56.0891 247.408 55.9736 247.685 55.9662H278.468C278.61 55.9624 278.751 55.9871 278.884 56.0389C279.017 56.0907 279.137 56.1685 279.239 56.2678C279.341 56.367 279.422 56.4857 279.478 56.6168C279.533 56.7478 279.562 56.8887 279.562 57.0309C279.562 57.1732 279.533 57.314 279.478 57.4451C279.422 57.5762 279.341 57.6948 279.239 57.7941C279.137 57.8933 279.017 57.9711 278.884 58.0229C278.751 58.0747 278.61 58.0995 278.468 58.0956Z" fill="#D6D6E3"/>
<path d="M278.468 80.7997H247.685C247.408 80.7923 247.144 80.6769 246.951 80.478C246.757 80.2791 246.648 80.0126 246.648 79.735C246.648 79.4575 246.757 79.1909 246.951 78.992C247.144 78.7932 247.408 78.6777 247.685 78.6703H278.468C278.61 78.6665 278.751 78.6912 278.884 78.743C279.017 78.7948 279.137 78.8726 279.239 78.9719C279.341 79.0711 279.422 79.1898 279.478 79.3208C279.533 79.4519 279.562 79.5928 279.562 79.735C279.562 79.8773 279.533 80.0181 279.478 80.1492C279.422 80.2803 279.341 80.3989 279.239 80.4982C279.137 80.5974 279.017 80.6752 278.884 80.727C278.751 80.7788 278.61 80.8035 278.468 80.7997Z" fill="#D6D6E3"/>
<path d="M290.966 69.455H235.18C235.038 69.4588 234.896 69.4341 234.764 69.3823C234.631 69.3305 234.51 69.2527 234.408 69.1534C234.306 69.0542 234.225 68.9355 234.17 68.8045C234.114 68.6734 234.086 68.5326 234.086 68.3903C234.086 68.248 234.114 68.1072 234.17 67.9761C234.225 67.845 234.306 67.7264 234.408 67.6271C234.51 67.5279 234.631 67.4501 234.764 67.3983C234.896 67.3465 235.038 67.3218 235.18 67.3256H290.966C291.243 67.333 291.507 67.4484 291.701 67.6473C291.894 67.8462 292.003 68.1128 292.003 68.3903C292.003 68.6678 291.894 68.9344 291.701 69.1333C291.507 69.3321 291.243 69.4476 290.966 69.455Z" fill="#D6D6E3"/>
<path d="M291.537 90.0312H271.383C271.241 90.035 271.099 90.0103 270.967 89.9585C270.834 89.9067 270.713 89.8289 270.611 89.7296C270.509 89.6304 270.428 89.5117 270.373 89.3806C270.318 89.2496 270.289 89.1087 270.289 88.9665C270.289 88.8242 270.318 88.6834 270.373 88.5523C270.428 88.4212 270.509 88.3026 270.611 88.2033C270.713 88.1041 270.834 88.0263 270.967 87.9745C271.099 87.9227 271.241 87.8979 271.383 87.9017H291.537C291.814 87.9092 292.078 88.0246 292.272 88.2235C292.465 88.4223 292.574 88.6889 292.574 88.9665C292.574 89.244 292.465 89.5106 292.272 89.7095C292.078 89.9083 291.814 90.0238 291.537 90.0312Z" fill="#D6D6E3"/>
<path d="M230.531 114.195C235.795 114.195 240.062 109.929 240.062 104.668C240.062 99.4061 235.795 95.1406 230.531 95.1406C225.267 95.1406 221 99.4061 221 104.668C221 109.929 225.267 114.195 230.531 114.195Z" fill="#71B8B8"/>
<path d="M277.767 285.57H244.149C243.277 285.569 242.441 285.222 241.824 284.606C241.208 283.989 240.861 283.153 240.859 282.282V249.086C240.861 248.215 241.208 247.379 241.824 246.762C242.441 246.146 243.277 245.799 244.149 245.798H277.767C278.639 245.799 279.476 246.146 280.092 246.762C280.709 247.379 281.056 248.215 281.057 249.086V282.281C281.056 283.153 280.709 283.988 280.092 284.605C279.476 285.221 278.639 285.569 277.767 285.57Z" fill="#090814"/>
<path d="M250.407 246.776C249.281 246.776 248.166 246.998 247.126 247.429C246.086 247.859 245.141 248.491 244.345 249.287C243.55 250.082 242.918 251.027 242.488 252.067C242.057 253.106 241.836 254.221 241.836 255.346V281.578C241.836 282.377 242.153 283.144 242.719 283.709C243.284 284.274 244.051 284.591 244.85 284.592H265.405C269.295 284.592 273.025 283.047 275.775 280.298C278.526 277.549 280.071 273.82 280.071 269.932V249.792C280.071 249.397 279.993 249.005 279.841 248.639C279.69 248.274 279.468 247.941 279.188 247.662C278.908 247.382 278.575 247.16 278.209 247.009C277.844 246.857 277.452 246.779 277.056 246.779H250.407V246.776Z" fill="white"/>
<path d="M269.962 256.426H251.883C251.717 256.426 251.558 256.361 251.441 256.243C251.324 256.126 251.258 255.967 251.258 255.801C251.258 255.635 251.324 255.476 251.441 255.359C251.558 255.242 251.717 255.176 251.883 255.176H269.962C270.127 255.176 270.287 255.242 270.404 255.359C270.521 255.476 270.587 255.635 270.587 255.801C270.587 255.967 270.521 256.126 270.404 256.243C270.287 256.361 270.127 256.426 269.962 256.426Z" fill="#D6D6E3"/>
<path d="M269.962 269.756H251.883C251.717 269.756 251.558 269.69 251.441 269.572C251.324 269.455 251.258 269.296 251.258 269.13C251.258 268.964 251.324 268.805 251.441 268.688C251.558 268.571 251.717 268.505 251.883 268.505H269.962C270.127 268.505 270.287 268.571 270.404 268.688C270.521 268.805 270.587 268.964 270.587 269.13C270.587 269.296 270.521 269.455 270.404 269.572C270.287 269.69 270.127 269.756 269.962 269.756Z" fill="#D6D6E3"/>
<path d="M277.308 263.095H244.547C244.382 263.095 244.222 263.029 244.105 262.912C243.988 262.795 243.922 262.636 243.922 262.47C243.922 262.304 243.988 262.145 244.105 262.028C244.222 261.911 244.382 261.845 244.547 261.845H277.308C277.474 261.845 277.633 261.911 277.75 262.028C277.868 262.145 277.933 262.304 277.933 262.47C277.933 262.636 277.868 262.795 277.75 262.912C277.633 263.029 277.474 263.095 277.308 263.095Z" fill="#D6D6E3"/>
<path d="M277.64 275.177H265.805C265.639 275.177 265.48 275.112 265.363 274.994C265.246 274.877 265.18 274.718 265.18 274.552C265.18 274.386 265.246 274.227 265.363 274.11C265.48 273.993 265.639 273.927 265.805 273.927H277.64C277.806 273.927 277.965 273.993 278.082 274.11C278.2 274.227 278.266 274.386 278.266 274.552C278.266 274.718 278.2 274.877 278.082 274.994C277.965 275.112 277.806 275.177 277.64 275.177Z" fill="#D6D6E3"/>
<path d="M279.886 292.719C283.646 292.719 286.694 289.672 286.694 285.914C286.694 282.155 283.646 279.108 279.886 279.108C276.126 279.108 273.078 282.155 273.078 285.914C273.078 289.672 276.126 292.719 279.886 292.719Z" fill="#71B8B8"/>
<path d="M561.134 176.14H515.676C514.496 176.139 513.365 175.67 512.531 174.836C511.697 174.002 511.228 172.872 511.227 171.692V126.808C511.228 125.629 511.697 124.498 512.531 123.664C513.365 122.831 514.496 122.362 515.676 122.36H561.134C562.314 122.362 563.445 122.831 564.279 123.664C565.113 124.498 565.582 125.629 565.583 126.808V171.693C565.582 172.872 565.113 174.003 564.279 174.837C563.445 175.671 562.314 176.139 561.134 176.14Z" fill="#090814"/>
<path d="M524.144 123.686C521.07 123.686 518.123 124.906 515.949 127.079C513.776 129.251 512.555 132.198 512.555 135.27V170.742C512.555 171.822 512.984 172.858 513.748 173.622C514.513 174.387 515.549 174.816 516.63 174.816H544.427C549.687 174.816 554.731 172.727 558.451 169.009C562.17 165.291 564.259 160.249 564.259 154.991V127.76C564.259 126.68 563.83 125.644 563.066 124.88C562.301 124.116 561.265 123.686 560.184 123.686H524.144V123.686Z" fill="white"/>
<path d="M550.58 136.729H526.138C526.025 136.733 525.912 136.713 525.806 136.672C525.701 136.631 525.604 136.569 525.523 136.491C525.441 136.412 525.377 136.317 525.333 136.213C525.288 136.108 525.266 135.996 525.266 135.883C525.266 135.77 525.288 135.657 525.333 135.553C525.377 135.449 525.441 135.354 525.523 135.275C525.604 135.196 525.701 135.135 525.806 135.094C525.912 135.053 526.025 135.033 526.138 135.037H550.58C550.694 135.033 550.807 135.053 550.912 135.094C551.018 135.135 551.114 135.196 551.196 135.275C551.277 135.354 551.342 135.449 551.386 135.553C551.43 135.657 551.453 135.77 551.453 135.883C551.453 135.996 551.43 136.108 551.386 136.213C551.342 136.317 551.277 136.412 551.196 136.491C551.114 136.569 551.018 136.631 550.912 136.672C550.807 136.713 550.694 136.733 550.58 136.729Z" fill="#D6D6E3"/>
<path d="M550.584 154.759H526.142C525.922 154.752 525.713 154.66 525.559 154.502C525.406 154.344 525.32 154.132 525.32 153.912C525.32 153.692 525.406 153.48 525.559 153.322C525.713 153.164 525.922 153.072 526.142 153.066H550.584C550.698 153.062 550.81 153.082 550.916 153.123C551.022 153.164 551.118 153.226 551.2 153.305C551.281 153.383 551.346 153.478 551.39 153.582C551.434 153.687 551.457 153.799 551.457 153.912C551.457 154.025 551.434 154.138 551.39 154.242C551.346 154.346 551.281 154.441 551.2 154.52C551.118 154.599 551.022 154.661 550.916 154.702C550.81 154.743 550.698 154.762 550.584 154.759Z" fill="#D6D6E3"/>
<path d="M560.51 145.75H516.208C516.095 145.753 515.982 145.734 515.877 145.693C515.771 145.652 515.674 145.59 515.593 145.511C515.512 145.432 515.447 145.338 515.403 145.233C515.359 145.129 515.336 145.017 515.336 144.903C515.336 144.79 515.359 144.678 515.403 144.573C515.447 144.469 515.512 144.375 515.593 144.296C515.674 144.217 515.771 144.155 515.877 144.114C515.982 144.073 516.095 144.054 516.208 144.057H560.51C560.624 144.054 560.736 144.073 560.842 144.114C560.948 144.155 561.044 144.217 561.126 144.296C561.207 144.375 561.272 144.469 561.316 144.573C561.36 144.678 561.383 144.79 561.383 144.903C561.383 145.017 561.36 145.129 561.316 145.233C561.272 145.338 561.207 145.432 561.126 145.511C561.044 145.59 560.948 145.652 560.842 145.693C560.736 145.734 560.624 145.753 560.51 145.75Z" fill="#D6D6E3"/>
<path d="M560.967 162.088H544.966C544.853 162.091 544.74 162.072 544.634 162.031C544.529 161.99 544.432 161.928 544.351 161.849C544.27 161.77 544.205 161.676 544.161 161.571C544.117 161.467 544.094 161.355 544.094 161.241C544.094 161.128 544.117 161.016 544.161 160.911C544.205 160.807 544.27 160.713 544.351 160.634C544.432 160.555 544.529 160.493 544.634 160.452C544.74 160.411 544.853 160.392 544.966 160.395H560.967C561.08 160.392 561.193 160.411 561.299 160.452C561.404 160.493 561.501 160.555 561.582 160.634C561.664 160.713 561.728 160.807 561.772 160.911C561.817 161.016 561.839 161.128 561.839 161.241C561.839 161.355 561.817 161.467 561.772 161.571C561.728 161.676 561.664 161.77 561.582 161.849C561.501 161.928 561.404 161.99 561.299 162.031C561.193 162.072 561.08 162.091 560.967 162.088Z" fill="#D6D6E3"/>
<path d="M562.833 130.527C567.345 130.527 571.002 126.871 571.002 122.361C571.002 117.851 567.345 114.195 562.833 114.195C558.321 114.195 554.664 117.851 554.664 122.361C554.664 126.871 558.321 130.527 562.833 130.527Z" fill="#71B8B8"/>
<path d="M539.851 188.837C542.107 188.837 543.935 187.009 543.935 184.754C543.935 182.499 542.107 180.671 539.851 180.671C537.595 180.671 535.766 182.499 535.766 184.754C535.766 187.009 537.595 188.837 539.851 188.837Z" fill="#090814"/>
<path d="M506.62 200.384H540.49V184.753H539.128V199.023H506.617L506.62 200.384Z" fill="#090814"/>
<path d="M293.765 120.098C296.021 120.098 297.85 118.27 297.85 116.015C297.85 113.76 296.021 111.932 293.765 111.932C291.509 111.932 289.68 113.76 289.68 116.015C289.68 118.27 291.509 120.098 293.765 120.098Z" fill="#090814"/>
<path d="M326.589 131.645H292.719V116.015H294.081V130.285H326.591L326.589 131.645Z" fill="#090814"/>
<path d="M264.132 241.502C266.388 241.502 268.217 239.674 268.217 237.419C268.217 235.164 266.388 233.336 264.132 233.336C261.876 233.336 260.047 235.164 260.047 237.419C260.047 239.674 261.876 241.502 264.132 241.502Z" fill="#090814"/>
<path d="M297.362 221.789H263.492V237.42H264.854V223.15H297.365L297.362 221.789Z" fill="#090814"/>
</svg>
