<svg width="202" height="207" viewBox="0 0 202 207" fill="none" xmlns="http://www.w3.org/2000/svg">
<path d="M170.379 35.1633H114.029V34.8678C114.029 34.6376 113.938 34.4169 113.775 34.2542C113.613 34.0914 113.392 34 113.163 34H89.3442C89.1144 34 88.8941 34.0914 88.7316 34.2542C88.5691 34.4169 88.4778 34.6376 88.4778 34.8678V35.1633H31.8956C30.8847 35.1633 29.9152 35.5655 29.2004 36.2815C28.4856 36.9975 28.084 37.9686 28.084 38.9811V116.267C28.084 117.279 28.4856 118.25 29.2004 118.966C29.9152 119.682 30.8847 120.085 31.8956 120.085H170.379C171.39 120.085 172.359 119.682 173.074 118.966C173.789 118.25 174.191 117.279 174.191 116.267V38.9811C174.191 37.9686 173.789 36.9975 173.074 36.2815C172.359 35.5655 171.39 35.1633 170.379 35.1633V35.1633Z" fill="#3F3D56"/>
<path d="M34.9269 43.2887C34.8324 43.2888 34.7417 43.3265 34.6749 43.3935C34.608 43.4605 34.5704 43.5513 34.5703 43.646V116.953C34.5704 117.048 34.608 117.139 34.6749 117.206C34.7417 117.273 34.8324 117.31 34.9269 117.31H167.348C167.442 117.31 167.533 117.273 167.6 117.206C167.667 117.139 167.704 117.048 167.704 116.953V43.646C167.704 43.5513 167.667 43.4605 167.6 43.3935C167.533 43.3265 167.442 43.2888 167.348 43.2887H34.9269Z" fill="#71B8B8"/>
<path d="M101.021 39.8165C101.79 39.8165 102.414 39.1915 102.414 38.4206C102.414 37.6496 101.79 37.0246 101.021 37.0246C100.251 37.0246 99.627 37.6496 99.627 38.4206C99.627 39.1915 100.251 39.8165 101.021 39.8165Z" fill="#71B8B8"/>
<path d="M176.729 114.876H163.468V113.504C163.468 113.429 163.383 113.367 163.278 113.367H158.731C158.627 113.367 158.542 113.429 158.542 113.504V114.876H155.7V113.504C155.7 113.429 155.615 113.367 155.511 113.367H150.964C150.859 113.367 150.774 113.429 150.774 113.504V114.876H147.933V113.504C147.933 113.429 147.848 113.367 147.743 113.367H143.196C143.092 113.367 143.007 113.429 143.007 113.504V114.876H140.165V113.504C140.165 113.429 140.08 113.367 139.976 113.367H135.429C135.324 113.367 135.239 113.429 135.239 113.504V114.876H132.397V113.504C132.397 113.429 132.313 113.367 132.208 113.367H127.661C127.557 113.367 127.472 113.429 127.472 113.504V114.876H124.63V113.504C124.63 113.429 124.545 113.367 124.441 113.367H119.894C119.789 113.367 119.704 113.429 119.704 113.504V114.876H116.862V113.504C116.862 113.429 116.778 113.367 116.673 113.367H81.0561C80.9515 113.367 80.8667 113.429 80.8667 113.504V114.876H78.0249V113.504C78.0249 113.429 77.9401 113.367 77.8355 113.367H73.2886C73.184 113.367 73.0992 113.429 73.0992 113.504V114.876H70.2574V113.504C70.2574 113.429 70.1726 113.367 70.0679 113.367H65.5211C65.4165 113.367 65.3317 113.429 65.3317 113.504V114.876H62.4899V113.504C62.4899 113.429 62.4051 113.367 62.3004 113.367H57.7536C57.649 113.367 57.5641 113.429 57.5641 113.504V114.876H54.7224V113.504C54.7224 113.429 54.6376 113.367 54.5329 113.367H49.9861C49.8815 113.367 49.7966 113.429 49.7966 113.504V114.876H46.9549V113.504C46.9549 113.429 46.8701 113.367 46.7654 113.367H42.2186C42.1139 113.367 42.0291 113.429 42.0291 113.504V114.876H39.1873V113.504C39.1873 113.429 39.1025 113.367 38.9979 113.367H34.4511C34.3464 113.367 34.2616 113.429 34.2616 113.504V114.876H25.5468C23.0357 114.876 21 116.341 21 118.15V119.63C21 121.438 23.0357 122.904 25.5468 122.904H176.729C179.24 122.904 181.276 121.438 181.276 119.63V118.15C181.276 116.341 179.24 114.876 176.729 114.876Z" fill="#3F3D56"/>
<path d="M91.8877 82.102C92.0275 82.2383 92.1934 82.3065 92.3852 82.3065H93.7219C93.9138 82.3065 94.0796 82.2383 94.2162 82.102C94.3528 81.9657 94.4211 81.7969 94.4211 81.5957V74.3508L97.0359 81.6411C97.1107 81.8229 97.2343 81.9819 97.4034 82.1118C97.5725 82.2416 97.7546 82.3098 97.9497 82.3098H99.0132C99.2051 82.3098 99.3905 82.2448 99.5628 82.1118C99.7352 81.9819 99.8588 81.8229 99.9271 81.6411L102.548 74.3508V81.5957C102.548 81.7969 102.617 81.9689 102.753 82.102C102.89 82.2383 103.052 82.3065 103.248 82.3065H104.584C104.776 82.3065 104.942 82.2383 105.079 82.102C105.215 81.9657 105.283 81.7969 105.283 81.5957V72.3936C105.283 72.1923 105.218 72.0203 105.085 71.8807C104.955 71.7411 104.792 71.673 104.597 71.673H101.573C101.381 71.673 101.195 71.7411 101.023 71.8807C100.851 72.0203 100.734 72.1858 100.675 72.3773L98.4831 78.7101L96.2911 72.3773C96.2326 72.1858 96.1155 72.0203 95.9431 71.8807C95.7708 71.7411 95.5854 71.673 95.3935 71.673H92.369C92.1771 71.673 92.0112 71.7411 91.8779 71.8807C91.7446 72.0203 91.6763 72.1891 91.6763 72.3936V81.5957C91.6795 81.7969 91.7478 81.9657 91.8877 82.102ZM76.1503 82.102C76.2901 82.2383 76.456 82.3065 76.6479 82.3065H77.9845C78.1764 82.3065 78.3423 82.2383 78.4789 82.102C78.6155 81.9657 78.6838 81.7969 78.6838 81.5957V74.3508L81.2985 81.6411C81.3733 81.8229 81.4969 81.9819 81.666 82.1118C81.8384 82.2416 82.0173 82.3098 82.2124 82.3098H83.2759C83.4677 82.3098 83.6531 82.2448 83.8255 82.1118C83.9978 81.9819 84.1214 81.8229 84.1897 81.6411L86.811 74.3508V81.5957C86.811 81.7969 86.8793 81.9689 87.0159 82.102C87.1525 82.2383 87.3151 82.3065 87.5102 82.3065H88.8469C89.0387 82.3065 89.2046 82.2383 89.3412 82.102C89.4778 81.9657 89.5461 81.7969 89.5461 81.5957V72.3936C89.5461 72.1923 89.481 72.0203 89.3477 71.8807C89.2176 71.7411 89.055 71.673 88.8599 71.673H85.8353C85.6434 71.673 85.4581 71.7411 85.2857 71.8807C85.1133 72.0203 84.9963 72.1858 84.9377 72.3773L82.7457 78.7101L80.5538 72.3773C80.4952 72.1858 80.3782 72.0203 80.2058 71.8807C80.0334 71.7411 79.848 71.673 79.6562 71.673H76.6316C76.4398 71.673 76.2739 71.7411 76.1405 71.8807C76.0072 72.0203 75.9389 72.1891 75.9389 72.3936V81.5957C75.9422 81.7969 76.0137 81.9657 76.1503 82.102ZM66.9401 75.2629C67.0637 74.8085 67.3043 74.445 67.6556 74.1756C68.0101 73.9062 68.4231 73.7731 68.9012 73.7731H71.0183V77.6422H66.2864L66.9401 75.2629ZM62.3513 81.8456C62.348 81.93 62.3903 82.0274 62.4748 82.1377C62.5594 82.2481 62.6992 82.3033 62.8911 82.3033H64.3546C64.5465 82.3033 64.7319 82.2383 64.9042 82.1053C65.0766 81.9754 65.1904 81.8066 65.2392 81.6054L65.7368 79.7358H71.0183V81.6054C71.0183 81.8066 71.0834 81.9754 71.2167 82.1053C71.3468 82.2351 71.5159 82.3033 71.7176 82.3033H73.1128C73.3046 82.3033 73.4705 82.2383 73.6103 82.1053C73.7502 81.9754 73.8185 81.8131 73.8185 81.6184V72.3579C73.8185 72.1761 73.7567 72.0138 73.6364 71.8742C73.516 71.7347 73.3632 71.6665 73.1811 71.6665H69.1776C66.3937 71.673 64.7514 72.6338 64.244 74.5586L62.3805 81.6184C62.3643 81.6898 62.3545 81.7612 62.3513 81.8456ZM52.0223 81.5405C52.8386 82.0631 53.7557 82.3227 54.7704 82.3227L57.0209 82.3682C58.7446 82.3682 59.9609 82.0988 60.6731 81.5632C61.3821 81.0276 61.7398 80.2616 61.7398 79.2684C61.7398 78.5413 61.4634 77.9343 60.9105 77.4474C60.3577 76.9605 59.6845 76.61 58.8942 76.399C58.1006 76.188 57.3136 76.003 56.5266 75.8537C55.7428 75.7044 55.0728 75.5291 54.52 75.3311C53.9671 75.1331 53.6907 74.8799 53.6907 74.5683C53.6907 74.0003 54.1265 73.7146 54.998 73.7146L57.2356 73.7601C58.0486 73.7601 58.569 74.0035 58.8031 74.4904C59.0373 74.9773 59.3755 75.2207 59.8211 75.2207H60.7057C60.865 75.2207 61.0309 75.1558 61.2032 75.0292C61.3756 74.9026 61.4634 74.6917 61.4634 74.3995C61.4634 73.6173 61.0569 72.9681 60.2406 72.4455C59.4243 71.9229 58.5104 71.6632 57.4957 71.6632L55.6095 71.6178C53.8793 71.6178 52.663 71.8872 51.954 72.4228C51.245 72.9584 50.8905 73.7244 50.8905 74.7176C50.8905 75.2564 51.0369 75.7238 51.3328 76.1231C51.6288 76.5223 52.0125 76.8339 52.4874 77.0612C52.9622 77.2884 53.4858 77.4864 54.0517 77.6552C54.6176 77.8239 55.1899 77.9635 55.7623 78.0739C56.338 78.1842 56.8616 78.2978 57.3364 78.4114C58.3998 78.6581 58.9332 78.9989 58.9332 79.4274C58.9332 79.9954 58.4974 80.2811 57.6258 80.2811L55.0273 80.2291C54.2143 80.2291 53.6907 79.9857 53.4598 79.5021C53.2256 79.0184 52.8874 78.775 52.4418 78.775H51.5572C51.3946 78.775 51.2255 78.8367 51.0531 78.9632C50.8808 79.0898 50.793 79.2976 50.793 79.5897C50.7962 80.3655 51.2027 81.0179 52.0223 81.5405Z" fill="white"/>
<path d="M133.217 95.3238C143.325 95.3238 151.518 87.1168 151.518 76.993C151.518 66.8692 143.325 58.6622 133.217 58.6622C123.11 58.6622 114.916 66.8692 114.916 76.993C114.916 87.1168 123.11 95.3238 133.217 95.3238Z" fill="white"/>
<path d="M140.089 78.5688L134.31 84.5311C134.184 84.6581 134.034 84.758 133.868 84.8248C133.703 84.8916 133.525 84.924 133.347 84.9198H133.328C133.149 84.9237 132.971 84.8913 132.805 84.8245C132.639 84.7577 132.488 84.6579 132.362 84.5311L126.585 78.5688C126.566 78.5467 126.544 78.5274 126.525 78.5081C126.294 78.2604 126.171 77.9313 126.182 77.5928C126.194 77.2544 126.339 76.9343 126.585 76.7026C126.849 76.4543 127.197 76.316 127.559 76.316C127.921 76.316 128.27 76.4543 128.534 76.7026L131.957 80.2861V71.0463C131.973 70.6904 132.126 70.3544 132.383 70.1082C132.64 69.862 132.982 69.7245 133.337 69.7245C133.693 69.7245 134.035 69.862 134.292 70.1082C134.549 70.3544 134.702 70.6904 134.717 71.0463V80.2861L138.138 76.7026C138.403 76.4543 138.751 76.316 139.114 76.316C139.476 76.316 139.825 76.4543 140.089 76.7026C140.109 76.7219 140.128 76.7412 140.15 76.7633C140.38 77.0113 140.503 77.3403 140.491 77.6785C140.48 78.0168 140.335 78.3368 140.089 78.5688V78.5688Z" fill="#71B8B8"/>
</svg>
