<svg width="205" height="241" viewBox="0 0 205 241" fill="none" xmlns="http://www.w3.org/2000/svg">
<path d="M47.3358 147.846C50.1674 141.685 52.1588 127.081 52.1588 110.041C52.1588 87.4338 45.5238 64.9355 41.2011 64.9355H28.1562V230.756H41.2011V155.146H93.3806V230.756H106.425V147.846H47.3358ZM41.2011 147.559C41.2433 147.655 41.2854 147.753 41.328 147.846H41.2011V147.559Z" fill="#3F3D56"/>
<path d="M101.709 117.594C101.709 117.594 117.419 124.103 112.438 127.933C107.456 131.762 97.1105 123.338 97.4936 122.189C97.8768 121.04 95.9609 118.36 95.9609 118.36L101.709 117.594Z" fill="#9F616A"/>
<path d="M87.912 66.2832L92.8933 70.8783L94.0428 84.2806L97.8746 98.4488C97.8746 98.4488 104.389 111.851 103.239 114.532C102.09 117.212 104.389 117.978 104.389 117.978L95.5755 121.424C95.5755 121.424 85.9961 110.702 85.9961 108.405C85.9961 106.107 87.912 66.2832 87.912 66.2832Z" fill="#575A88"/>
<path opacity="0.1" d="M87.912 66.2832L92.8933 70.8783L94.0428 84.2806L97.8746 98.4488C97.8746 98.4488 104.389 111.851 103.239 114.532C102.09 117.212 104.389 117.978 104.389 117.978L95.5755 121.424C95.5755 121.424 85.9961 110.702 85.9961 108.405C85.9961 106.107 87.912 66.2832 87.912 66.2832Z" fill="black"/>
<path d="M135.043 204.136C135.043 204.136 133.128 212.943 132.744 213.709C132.361 214.475 140.025 217.155 140.025 217.155L149.221 210.645C149.221 210.645 145.389 202.221 145.389 200.689L135.043 204.136Z" fill="#575A88"/>
<path d="M84.8489 118.361L87.5311 121.425C87.5311 121.425 143.092 128.317 144.241 139.039C145.391 149.761 153.438 200.307 148.84 201.839C144.241 203.37 132.363 209.114 132.363 206.051C132.363 202.987 124.699 160.866 126.232 153.207C126.232 153.207 59.9423 144.783 58.4096 135.21C56.8769 125.637 59.9423 121.425 59.9423 121.425L84.8489 118.361Z" fill="#2F2E41"/>
<path opacity="0.1" d="M84.8489 118.361L87.5311 121.425C87.5311 121.425 143.092 128.317 144.241 139.039C145.391 149.761 153.438 200.307 148.84 201.839C144.241 203.37 132.363 209.114 132.363 206.051C132.363 202.987 124.699 160.866 126.232 153.207C126.232 153.207 59.9423 144.783 58.4096 135.21C56.8769 125.637 59.9423 121.425 59.9423 121.425L84.8489 118.361Z" fill="black"/>
<path d="M134.278 212.943C134.278 212.943 132.745 209.497 131.979 210.646C131.212 211.794 128.53 225.197 131.212 225.197C133.895 225.197 158.418 231.323 161.867 230.558C165.315 229.792 171.829 230.941 171.063 227.111C170.297 223.282 166.465 222.899 166.465 222.899C166.465 222.899 152.287 214.475 151.521 210.263C150.754 206.051 146.54 208.348 146.54 208.348V211.029C146.54 211.029 138.493 217.155 134.278 212.943Z" fill="#2F2E41"/>
<path d="M61.475 37.1809C61.475 37.1809 64.1572 50.2003 58.4096 51.3491C52.6619 52.4978 65.6899 60.1563 65.6899 60.1563L74.1198 64.7514L80.2507 58.6246C80.2507 58.6246 74.6946 47.3284 78.9096 38.9041C83.1245 30.4797 61.475 37.1809 61.475 37.1809Z" fill="#9F616A"/>
<path d="M80.2507 58.6246L74.1198 64.7514L65.6899 60.1563C65.6899 60.1563 52.6619 52.4978 58.4096 51.3491C62.1072 50.61 62.3141 44.9581 61.9961 41.0216C61.8923 39.7329 61.7183 38.4507 61.475 37.1809C61.475 37.1809 83.1245 30.4797 78.9096 38.9041C78.2691 40.2049 77.8249 41.5934 77.5914 43.0243C76.3001 50.5947 80.2507 58.6246 80.2507 58.6246Z" fill="#9F616A"/>
<path d="M101.707 215.239V224.047H116.268L117.417 220.6L115.885 211.41L101.707 215.239Z" fill="#575A88"/>
<path d="M41.5508 126.019C41.5508 126.019 41.5508 148.611 50.747 149.377C59.9433 150.143 92.8966 154.355 92.8966 154.355C92.8966 154.355 94.8125 191.882 98.2611 204.135C101.71 216.389 98.6442 217.155 101.71 217.921C104.775 218.686 117.803 216.006 117.42 213.326C117.037 210.645 115.504 142.868 115.504 142.868C115.504 142.868 118.953 128.316 72.9713 121.424L41.5508 126.019Z" fill="#2F2E41"/>
<path d="M102.857 221.367C102.857 221.367 100.558 216.389 100.175 217.921C99.7914 219.452 95.1933 232.855 99.7914 234.004C104.39 235.152 118.95 241.279 128.53 240.896C138.109 240.513 139.259 240.13 139.259 240.13C139.259 240.13 141.941 236.301 138.492 234.004C135.044 231.706 120.866 218.304 120.1 216.772C119.333 215.24 113.586 214.092 113.586 216.772C113.586 219.452 105.539 224.813 102.857 221.367Z" fill="#2F2E41"/>
<path opacity="0.1" d="M78.9072 38.9041C78.2668 40.2049 77.8226 41.5934 77.5891 43.0243C75.6809 44.1769 74.4049 43.8821 72.01 43.8821C68.458 43.8821 67.0249 39.3444 64.7297 36.9894C64.5496 34.8029 61.4727 37.1809 61.4727 37.1809C61.4727 37.1809 83.1222 30.4797 78.9072 38.9041Z" fill="black"/>
<path d="M71.055 43.6909C78.0386 43.6909 83.6999 38.0334 83.6999 31.0544C83.6999 24.0755 78.0386 18.418 71.055 18.418C64.0715 18.418 58.4102 24.0755 58.4102 31.0544C58.4102 38.0334 64.0715 43.6909 71.055 43.6909Z" fill="#9F616A"/>
<path d="M92.8942 70.8769C92.8942 70.8769 90.9783 84.6621 89.8288 89.6401C88.6793 94.6181 87.1466 117.594 86.3802 120.657C85.6138 123.72 81.0157 124.486 71.8195 123.337C71.2421 123.265 70.6615 123.221 70.0798 123.207C64.4165 123.027 57.937 125.145 51.9402 126.807C48.4916 127.764 45.2001 128.568 42.3148 128.698C37.9466 128.897 36.6667 124.057 36.8162 118.819C36.958 113.944 38.3412 108.717 39.6325 106.872C41.9584 103.548 39.6709 73.7067 40.5292 63.8655V63.8617C40.6594 62.3606 40.8625 61.3267 41.1652 60.9208C43.4643 57.8575 58.4082 50.199 60.0827 50.5091C61.7534 50.8193 76.0344 59.7721 76.0344 59.7721C79.483 59.7721 79.3719 56.0347 79.3719 56.0347C79.3719 56.0347 81.7821 60.5379 86.3802 61.6867C90.9783 62.8355 92.8942 70.8769 92.8942 70.8769Z" fill="#575A88"/>
<path d="M67.2798 120.521C67.2798 120.521 91.9625 121.307 87.6386 124.237C83.3147 127.168 64.1558 129.848 63.7726 126.019C63.3895 122.19 67.2798 120.521 67.2798 120.521Z" fill="#9F616A"/>
<path opacity="0.1" d="M70.0801 123.207C70.1605 124.678 66.2023 127.99 64.9225 130.23C64.2136 131.471 58.7265 129.836 51.9404 126.807C46.7329 124.471 41.6812 121.803 36.8164 118.819C36.9582 113.945 38.3415 108.718 39.6328 106.872C41.9587 103.548 39.6711 73.7069 40.5294 63.8658V63.8619C40.7341 63.7581 40.9468 63.671 41.1655 63.6016H45.7636C61.4739 70.8771 43.4645 102.277 43.4645 102.277C43.4645 102.277 67.2215 121.806 69.5206 122.572C69.6714 122.6 69.8083 122.678 69.9097 122.794C70.011 122.909 70.071 123.054 70.0801 123.207Z" fill="black"/>
<path d="M45.7639 61.3047H41.1658C41.1658 61.3047 36.9508 62.4535 33.5022 70.1119C30.0536 77.7704 17.4088 101.512 28.5209 110.702C39.6331 119.892 63.3901 130.614 64.9228 127.933C66.4555 125.253 71.82 121.041 69.5209 120.275C67.2219 119.509 43.4648 99.98 43.4648 99.98C43.4648 99.98 61.4742 68.5802 45.7639 61.3047Z" fill="#575A88"/>
<path d="M69.1104 25.1741C69.1104 25.1741 69.6653 17.4974 76.511 20.6276C83.3568 23.7577 82.9101 15.13 80.8413 13.6054C78.7726 12.0808 78.8381 11.7036 71.2719 12.7236C63.7057 13.7437 49.0163 15.472 53.766 30.6753C58.5157 45.8786 62.8174 41.9675 62.8174 41.9675C62.8174 41.9675 59.042 28.2865 62.8674 30.893L66.6928 33.4994L68.7115 33.0722L69.1104 25.1741Z" fill="#2F2E41"/>
<path d="M5.53327 241H192.467C192.608 241 192.744 240.947 192.844 240.854C192.944 240.76 193 240.633 193 240.5C193 240.367 192.944 240.24 192.844 240.146C192.744 240.053 192.608 240 192.467 240H5.53327C5.39184 240 5.25621 240.053 5.1562 240.146C5.05619 240.24 5 240.367 5 240.5C5 240.633 5.05619 240.76 5.1562 240.854C5.25621 240.947 5.39184 241 5.53327 241Z" fill="#CACACA"/>
<path d="M19.518 217.737L19.1017 208.516C14.7617 206.231 9.92102 205.024 5 205C11.7728 210.454 10.9264 220.969 15.5182 228.304C16.9681 230.581 18.9196 232.507 21.2281 233.94C23.5365 235.373 26.1427 236.276 28.8536 236.582L34.5213 240C35.299 235.729 35.1275 231.343 34.0187 227.144C32.9099 222.945 30.8901 219.032 28.0984 215.676C26.5134 213.809 24.6959 212.145 22.6888 210.725C21.3314 214.251 19.518 217.737 19.518 217.737Z" fill="#71B8B8"/>
</svg>
