<svg width="672" height="639" viewBox="0 0 672 639" fill="none" xmlns="http://www.w3.org/2000/svg">
<g clip-path="url(#clip0_4303_2111)">
<path d="M403.22 500.304C404.278 500.869 405.485 501.096 406.677 500.953C407.868 500.809 408.987 500.303 409.881 499.503C410.776 498.703 411.402 497.647 411.677 496.478C411.951 495.31 411.859 494.086 411.414 492.971C411.533 492.378 411.619 491.952 411.738 491.359C414.028 489.222 416.904 487.817 419.998 487.325C423.091 486.832 426.261 487.275 429.101 488.596C431.941 489.917 434.322 492.057 435.939 494.74C437.555 497.423 438.334 500.527 438.174 503.656C437.449 521.298 438.321 540.336 426.595 554.559C480.114 510.825 504.517 436.322 488.173 369.313C480.153 358.138 476.412 343.292 480.008 329.839C484.522 334.229 493.319 333.05 491.975 325.451C491.254 322.448 490.507 319.454 489.786 316.451C520.612 304.422 528.66 350.256 492.145 368.918C495.108 381.658 496.73 394.672 496.986 407.749C501.108 395.957 507.97 385.313 517.009 376.691C525.76 368.812 537.331 364.179 548.096 358.893C561.195 352.444 575.733 365.23 570.575 378.879C561.855 377.764 555.685 388.186 563.598 393.787C549.7 417.129 523.051 431.964 495.975 432.2C493.237 458.833 484.854 484.577 471.384 507.716C488.68 481.415 522.154 488.987 548.607 487.867C550.362 487.645 552.144 487.94 553.735 488.714C555.326 489.488 556.657 490.708 557.566 492.225C558.475 493.743 558.923 495.492 558.855 497.26C558.786 499.028 558.205 500.738 557.182 502.181C553.702 501.976 550.21 502.118 546.758 502.604C545.135 502.845 543.625 503.582 542.437 504.714C541.248 505.846 540.439 507.318 540.12 508.928C539.801 510.538 539.988 512.208 540.655 513.707C541.322 515.207 542.436 516.464 543.845 517.305C520.64 538.579 484.682 543.152 456.46 529.577C448.116 540.087 438.703 549.702 428.371 558.266L386.414 538.266C386.486 537.728 386.58 537.182 386.667 536.651C390.434 538.747 394.444 540.373 398.606 541.494C394.13 524.431 389.142 514.436 403.218 500.304H403.22Z" fill="#F2F2F2"/>
<path d="M329.088 459.94C328.321 460.863 327.288 461.528 326.131 461.845C324.973 462.162 323.746 462.115 322.616 461.711C321.486 461.307 320.507 460.566 319.812 459.587C319.118 458.609 318.741 457.44 318.732 456.24C318.398 455.736 318.158 455.374 317.824 454.869C314.897 453.754 311.704 453.537 308.653 454.248C305.603 454.959 302.834 456.565 300.702 458.86C298.57 461.155 297.172 464.034 296.687 467.129C296.202 470.223 296.652 473.392 297.98 476.229C305.306 492.295 311.68 510.255 327.905 519.004C261.842 498.689 211.139 438.894 201 370.67C204.212 357.296 202.077 342.135 193.672 331.033C191.148 336.8 182.555 339.027 180.934 331.482C180.469 328.429 180.031 325.375 179.566 322.321C146.48 322.809 156.316 368.293 197.172 371.803C199.234 384.719 202.64 397.384 207.336 409.591C199.071 400.226 188.7 392.956 177.077 388.381C166 384.385 153.536 384.458 141.573 383.623C127.009 382.591 118.368 399.916 128.293 410.612C135.948 406.29 145.593 413.615 140.378 421.787C162.054 438.162 192.33 441.85 217.495 431.855C230.077 455.488 247.552 476.168 268.755 492.516C242.815 474.682 214.67 494.322 189.748 503.262C188.039 503.72 186.5 504.664 185.319 505.981C184.138 507.298 183.365 508.93 183.096 510.678C182.826 512.427 183.071 514.216 183.801 515.827C184.531 517.439 185.714 518.803 187.206 519.753C190.352 518.252 193.639 517.066 197.02 516.214C198.614 515.824 200.29 515.937 201.818 516.538C203.345 517.138 204.65 518.196 205.553 519.567C206.456 520.937 206.912 522.554 206.86 524.194C206.809 525.835 206.251 527.419 205.263 528.73C234.779 539.679 269.806 530.351 290.822 507.133C302.514 513.72 314.859 519.073 327.658 523.108L358.971 488.759C358.702 488.288 358.409 487.818 358.128 487.359C355.43 490.72 352.33 493.739 348.897 496.347C346.606 478.856 347.456 467.719 329.089 459.939L329.088 459.94Z" fill="#F2F2F2"/>
<path d="M337.141 314.798C338.335 314.677 339.463 314.192 340.372 313.409C341.281 312.626 341.928 311.582 342.224 310.419C342.521 309.256 342.452 308.03 342.028 306.907C341.605 305.784 340.846 304.819 339.855 304.141C339.623 303.583 339.457 303.181 339.225 302.623C339.935 299.571 341.539 296.802 343.832 294.668C346.126 292.535 349.004 291.135 352.099 290.648C355.193 290.162 358.362 290.61 361.2 291.936C364.038 293.262 366.415 295.405 368.027 298.091C377.262 313.141 388.6 328.459 386.795 346.804C406.84 280.659 385.559 205.205 334.63 158.691C321.742 153.886 310.359 143.647 305.844 130.474C312.038 131.602 318.684 125.718 313.331 120.159C311.058 118.068 308.769 115.999 306.496 113.908C325.379 86.7359 357.615 120.298 337.708 156.148C347.27 165.072 355.872 174.971 363.376 185.684C360.224 173.598 359.986 160.935 362.682 148.738C365.554 137.319 372.576 127.021 378.565 116.631C385.843 103.973 405.041 106.482 408.37 120.689C400.509 124.624 401.198 136.717 410.89 136.955C412.366 164.08 398.515 191.254 376.17 206.546C388.746 230.182 396.14 256.227 397.859 282.946C397.554 251.468 429.564 239.092 450.899 223.412C452.233 222.25 453.876 221.501 455.628 221.256C457.38 221.012 459.165 221.283 460.766 222.036C462.367 222.789 463.714 223.991 464.643 225.497C465.572 227.002 466.043 228.745 465.998 230.514C462.995 232.285 460.176 234.349 457.581 236.677C456.367 237.782 455.525 239.236 455.17 240.838C454.814 242.441 454.963 244.114 455.596 245.628C456.229 247.143 457.315 248.424 458.705 249.297C460.094 250.171 461.72 250.593 463.359 250.505C455.957 281.104 428.656 304.949 397.659 309.414C396.593 322.791 394.139 336.022 390.337 348.891L344.355 355.682C344.115 355.195 343.889 354.689 343.665 354.201C347.961 353.84 352.196 352.954 356.276 351.564C343.047 339.894 333.334 334.379 337.139 314.798L337.141 314.798Z" fill="#F2F2F2"/>
<path d="M383.39 300.054C362.457 300.054 351.102 297.496 347.137 292.036C343.638 287.218 345.984 280.861 348.7 273.5C350.652 268.21 352.864 262.214 352.864 256.279C352.864 227.415 367.5 212.779 396.364 212.779C410.726 212.779 426.146 220.408 437.613 233.187C448.038 244.804 453.231 258.708 451.862 271.333C450.738 281.687 445.919 288.496 436.695 292.763L436.155 293.012L436.002 292.438C435.205 289.466 433.857 286.671 432.028 284.197C431.85 288.08 430.871 291.884 429.153 295.371L429.054 295.569L428.841 295.63C418.402 298.604 406.011 299.41 396.383 299.779C391.697 299.961 387.366 300.053 383.39 300.054Z" fill="#2F2E41"/>
<path d="M389.091 340.272C388.288 337.913 386.935 335.78 385.143 334.049C383.351 332.318 381.173 331.04 378.788 330.32C376.403 329.6 373.881 329.459 371.43 329.909C368.98 330.358 366.672 331.386 364.699 332.906L295.842 374.074L274.296 321.501C276.116 318.83 277.044 315.652 276.946 312.422C276.849 309.192 275.73 306.076 273.752 303.521C271.774 300.965 269.037 299.102 265.935 298.198C262.832 297.295 259.523 297.397 256.482 298.49C253.441 299.583 250.824 301.611 249.007 304.283C247.19 306.955 246.266 310.135 246.367 313.365C246.468 316.595 247.59 319.709 249.571 322.263C251.552 324.816 254.291 326.676 257.395 327.576C258.723 342.736 266.103 410.497 291.778 408.034C313.359 405.964 366.953 370.271 383.6 357.895C386.263 355.917 388.229 353.145 389.216 349.978C390.203 346.811 390.159 343.412 389.091 340.272Z" fill="#FFB6B6"/>
<path d="M440.98 639.279H381.05L371 589.589L367.74 639.279H312.07C312.092 600.257 314.124 561.262 318.16 522.449L318.85 520.099L319.94 516.339L320.63 513.979L332.15 474.419L333.06 471.279H402.43C406.422 475.029 410.104 479.096 413.44 483.439C414.57 484.879 415.75 486.439 416.96 488.119C417.8 489.309 418.67 490.559 419.54 491.869C427.27 503.377 433.048 516.081 436.64 529.469V529.479C437.25 531.769 437.79 534.113 438.26 536.509V536.519C438.68 538.649 439.05 540.809 439.34 543.019C439.56 544.629 439.75 546.259 439.89 547.909C440.724 557.05 440.432 566.259 439.02 575.329L440.98 639.279Z" fill="#2F2E41"/>
<path d="M123.233 184.92C127.125 183.414 129.431 179.998 128.382 177.29C127.334 174.583 123.33 173.609 119.438 175.116C115.546 176.622 113.24 180.039 114.288 182.746C115.336 185.454 119.341 186.427 123.233 184.92Z" fill="#E6E6E6"/>
<path d="M172.241 178.635C176.133 177.129 178.438 173.713 177.39 171.005C176.342 168.298 172.338 167.324 168.446 168.831C164.554 170.337 162.248 173.753 163.296 176.461C164.344 179.168 168.349 180.142 172.241 178.635Z" fill="#3F3D56"/>
<path d="M118.983 226.729C122.875 225.222 125.181 221.806 124.133 219.099C123.084 216.391 119.08 215.418 115.188 216.924C111.296 218.431 108.99 221.847 110.038 224.555C111.086 227.262 115.091 228.236 118.983 226.729Z" fill="#FF6584"/>
<path d="M104.808 245.17C106.593 244.748 107.548 242.324 106.941 239.758C106.333 237.191 104.393 235.453 102.608 235.875C100.822 236.298 99.8675 238.721 100.475 241.288C101.083 243.855 103.022 245.593 104.808 245.17Z" fill="#E6E6E6"/>
<path d="M104.519 276.393C106.304 275.97 107.259 273.547 106.652 270.98C106.044 268.414 104.104 266.675 102.319 267.098C100.533 267.521 99.5784 269.944 100.186 272.511C100.793 275.077 102.733 276.816 104.519 276.393Z" fill="#3F3D56"/>
<path d="M147.527 211.725C149.312 211.302 150.267 208.879 149.66 206.312C149.052 203.746 147.112 202.007 145.327 202.43C143.541 202.853 142.586 205.276 143.194 207.843C143.801 210.409 145.741 212.148 147.527 211.725Z" fill="#E6E6E6"/>
<path d="M121.714 205.457C123.5 205.035 124.455 202.611 123.847 200.045C123.24 197.478 121.3 195.74 119.514 196.163C117.729 196.585 116.774 199.008 117.381 201.575C117.989 204.142 119.929 205.88 121.714 205.457Z" fill="#FF6584"/>
<path d="M149.074 176.705C150.859 176.283 151.814 173.859 151.207 171.293C150.599 168.726 148.659 166.988 146.874 167.411C145.088 167.833 144.133 170.256 144.741 172.823C145.348 175.39 147.288 177.128 149.074 176.705Z" fill="#3F3D56"/>
<path d="M161.791 392.803C163.673 390.592 162.622 386.607 159.444 383.902C156.266 381.197 152.164 380.796 150.282 383.007C148.401 385.218 149.451 389.203 152.629 391.908C155.807 394.613 159.909 395.014 161.791 392.803Z" fill="#E6E6E6"/>
<path d="M132.932 352.704C134.813 350.494 133.763 346.508 130.585 343.803C127.407 341.098 123.305 340.697 121.423 342.908C119.541 345.119 120.592 349.104 123.77 351.809C126.948 354.514 131.05 354.915 132.932 352.704Z" fill="#3F3D56"/>
<path d="M200.58 376.634C202.462 374.423 201.411 370.438 198.233 367.733C195.055 365.028 190.953 364.627 189.071 366.838C187.19 369.049 188.24 373.034 191.418 375.739C194.596 378.444 198.698 378.845 200.58 376.634Z" fill="#FF6584"/>
<path d="M219.855 377.077C221.823 375.321 222.427 372.787 221.205 371.418C219.984 370.049 217.398 370.363 215.43 372.12C213.462 373.876 212.858 376.41 214.079 377.778C215.301 379.147 217.887 378.833 219.855 377.077Z" fill="#E6E6E6"/>
<path d="M247.448 362.467C249.416 360.71 250.021 358.177 248.799 356.808C247.577 355.439 244.992 355.753 243.024 357.509C241.056 359.266 240.451 361.799 241.673 363.168C242.895 364.537 245.481 364.223 247.448 362.467Z" fill="#3F3D56"/>
<path d="M170.097 355.438C172.065 353.682 172.669 351.148 171.448 349.779C170.226 348.411 167.64 348.725 165.672 350.481C163.705 352.237 163.1 354.771 164.322 356.14C165.543 357.509 168.129 357.195 170.097 355.438Z" fill="#E6E6E6"/>
<path d="M176.878 381.118C178.846 379.362 179.451 376.828 178.229 375.459C177.007 374.09 174.421 374.404 172.454 376.161C170.486 377.917 169.881 380.451 171.103 381.819C172.325 383.188 174.91 382.874 176.878 381.118Z" fill="#FF6584"/>
<path d="M138.573 370.752C140.541 368.995 141.146 366.462 139.924 365.093C138.702 363.724 136.117 364.038 134.149 365.794C132.181 367.551 131.576 370.084 132.798 371.453C134.02 372.822 136.606 372.508 138.573 370.752Z" fill="#3F3D56"/>
<path d="M355.684 135.623C358.289 134.342 358.908 130.267 357.066 126.522C355.224 122.777 351.619 120.78 349.014 122.061C346.409 123.342 345.79 127.417 347.632 131.162C349.474 134.907 353.079 136.904 355.684 135.623Z" fill="#E6E6E6"/>
<path d="M366.239 183.887C368.844 182.605 369.463 178.531 367.621 174.786C365.779 171.041 362.174 169.043 359.569 170.325C356.963 171.606 356.345 175.68 358.186 179.426C360.028 183.171 363.633 185.168 366.239 183.887Z" fill="#3F3D56"/>
<path d="M313.66 135.053C316.266 133.771 316.885 129.697 315.043 125.952C313.201 122.207 309.596 120.209 306.991 121.491C304.385 122.772 303.767 126.847 305.608 130.592C307.45 134.337 311.055 136.334 313.66 135.053Z" fill="#FF6584"/>
<path d="M291.577 119.736C294.081 118.906 295.642 116.821 295.065 115.079C294.487 113.338 291.99 112.599 289.486 113.429C286.983 114.259 285.421 116.344 285.999 118.085C286.576 119.827 289.074 120.566 291.577 119.736Z" fill="#E6E6E6"/>
<path d="M260.444 122.181C262.948 121.351 264.51 119.266 263.932 117.525C263.355 115.783 260.857 115.044 258.353 115.874C255.85 116.704 254.288 118.789 254.866 120.53C255.443 122.272 257.941 123.011 260.444 122.181Z" fill="#3F3D56"/>
<path d="M328.632 159.359C331.136 158.529 332.697 156.444 332.12 154.702C331.542 152.961 329.045 152.222 326.541 153.052C324.037 153.882 322.476 155.967 323.053 157.708C323.631 159.45 326.128 160.189 328.632 159.359Z" fill="#E6E6E6"/>
<path d="M332.616 133.099C335.12 132.269 336.681 130.184 336.104 128.442C335.527 126.701 333.029 125.962 330.525 126.792C328.022 127.622 326.46 129.707 327.038 131.448C327.615 133.19 330.113 133.929 332.616 133.099Z" fill="#FF6584"/>
<path d="M363.655 157.831C366.159 157.001 367.721 154.917 367.143 153.175C366.566 151.433 364.068 150.694 361.564 151.524C359.061 152.354 357.499 154.439 358.077 156.181C358.654 157.922 361.152 158.661 363.655 157.831Z" fill="#3F3D56"/>
<path d="M373.264 308.089L406.28 306.389L421.616 330.62C421.616 330.62 450.469 335.444 448.469 369.444C446.469 403.444 413.363 433.279 413.363 433.279L414.778 450.985L412.32 458.007L412.636 461.951L415.988 466.127L416.334 470.446L413.363 477.279L417.403 483.822L332.469 475.593L329.363 464.279L333.894 458.203L331.363 450.279L335.168 442.657L337.151 418.446C337.151 418.446 315.447 385.838 340.363 361.279L350.363 344.279L361.552 330.628L373.264 308.089Z" fill="#71B8B8"/>
<path d="M389.68 301.248C409.001 301.248 424.664 285.585 424.664 266.264C424.664 246.942 409.001 231.279 389.68 231.279C370.358 231.279 354.695 246.942 354.695 266.264C354.695 285.585 370.358 301.248 389.68 301.248Z" fill="#FFB6B6"/>
<path d="M384.994 264.142C381.979 264.142 378.966 264.057 375.955 263.887L375.417 263.857L375.488 263.323C375.931 259.984 375.682 256.589 374.754 253.35C373.179 257.038 370.836 260.347 367.881 263.057L367.714 263.21L367.49 263.186C359.311 262.291 351.207 260.813 343.239 258.763L342.934 258.685L342.873 258.376C342.278 255.454 341.97 252.48 341.953 249.498C341.953 240.182 345.331 232.341 351.464 227.42C358.139 222.063 367.708 220.416 378.418 222.778H412.663C416.428 222.783 420.037 224.28 422.699 226.942C425.362 229.604 426.859 233.214 426.863 236.979V258.665L426.49 258.762C412.945 262.322 398.999 264.13 384.994 264.142Z" fill="#2F2E41"/>
<path d="M146.281 225.229C144.748 225.79 143.5 226.935 142.811 228.415C142.122 229.895 142.047 231.587 142.605 233.122L179.548 334.491C180.109 336.024 181.254 337.272 182.734 337.961C184.214 338.65 185.906 338.724 187.441 338.167L330.824 285.912C332.357 285.351 333.605 284.205 334.294 282.726C334.983 281.246 335.057 279.553 334.5 278.019L297.557 176.65C296.996 175.117 295.85 173.869 294.371 173.18C292.891 172.491 291.198 172.417 289.664 172.974L146.281 225.229Z" fill="#CCCCCC"/>
<path d="M277.463 299.772L189.697 331.757C188.046 332.357 186.224 332.277 184.632 331.535C183.039 330.794 181.806 329.45 181.203 327.8L147.695 235.86C147.096 234.208 147.175 232.387 147.917 230.794C148.659 229.202 150.002 227.968 151.652 227.365L286.933 178.063C288.584 177.463 290.406 177.543 291.999 178.284C293.591 179.026 294.825 180.37 295.428 182.02L311.618 226.444C316.795 240.698 316.106 256.424 309.703 270.171C303.3 283.917 291.705 294.563 277.463 299.772Z" fill="white"/>
<path d="M214.311 233.352L193.455 240.953C193.193 241.048 192.916 241.091 192.638 241.079C192.359 241.067 192.086 241 191.834 240.882C191.582 240.765 191.355 240.599 191.167 240.394C190.979 240.189 190.833 239.948 190.738 239.687C190.642 239.425 190.599 239.147 190.611 238.869C190.623 238.591 190.69 238.318 190.808 238.066C190.925 237.813 191.091 237.587 191.296 237.399C191.502 237.21 191.742 237.065 192.003 236.969L212.859 229.368C213.388 229.176 213.971 229.201 214.48 229.438C214.99 229.676 215.384 230.106 215.577 230.634C215.769 231.162 215.744 231.745 215.507 232.255C215.269 232.765 214.839 233.159 214.311 233.352Z" fill="#71B8B8"/>
<path d="M264.027 224.459L196.418 249.099C196.157 249.194 195.879 249.237 195.6 249.226C195.322 249.214 195.049 249.147 194.796 249.03C194.544 248.912 194.317 248.746 194.128 248.541C193.94 248.336 193.794 248.095 193.698 247.834C193.603 247.572 193.56 247.294 193.572 247.016C193.584 246.737 193.651 246.464 193.769 246.212C193.887 245.959 194.053 245.732 194.259 245.544C194.464 245.356 194.705 245.21 194.967 245.115L262.575 220.476C262.837 220.38 263.114 220.338 263.392 220.35C263.671 220.362 263.944 220.428 264.196 220.546C264.448 220.663 264.675 220.83 264.863 221.035C265.051 221.24 265.197 221.48 265.293 221.742C265.388 222.003 265.431 222.281 265.419 222.559C265.407 222.837 265.34 223.11 265.222 223.363C265.105 223.615 264.939 223.842 264.734 224.03C264.528 224.218 264.288 224.364 264.027 224.459Z" fill="#71B8B8"/>
<path d="M267.438 233.81L199.83 258.449C199.568 258.545 199.291 258.587 199.013 258.575C198.734 258.563 198.461 258.497 198.209 258.379C197.957 258.262 197.73 258.096 197.542 257.89C197.354 257.685 197.208 257.445 197.113 257.183C197.017 256.922 196.974 256.644 196.986 256.366C196.998 256.088 197.065 255.815 197.183 255.563C197.3 255.31 197.466 255.083 197.671 254.895C197.877 254.707 198.117 254.561 198.378 254.466L265.987 229.826C266.515 229.635 267.097 229.66 267.606 229.898C268.115 230.136 268.509 230.565 268.702 231.093C268.894 231.621 268.869 232.204 268.632 232.713C268.395 233.222 267.966 233.617 267.438 233.81Z" fill="#71B8B8"/>
<path d="M270.847 243.16L203.239 267.8C202.977 267.895 202.699 267.939 202.421 267.927C202.142 267.915 201.869 267.849 201.617 267.731C201.364 267.614 201.137 267.448 200.949 267.242C200.76 267.037 200.614 266.797 200.519 266.535C200.423 266.273 200.381 265.995 200.393 265.717C200.405 265.438 200.472 265.165 200.589 264.913C200.707 264.66 200.874 264.433 201.079 264.245C201.285 264.057 201.525 263.912 201.787 263.816L269.395 239.177C269.657 239.082 269.935 239.039 270.213 239.051C270.491 239.063 270.764 239.13 271.016 239.247C271.269 239.365 271.495 239.531 271.683 239.736C271.872 239.941 272.017 240.181 272.113 240.443C272.208 240.704 272.251 240.982 272.239 241.26C272.227 241.538 272.16 241.811 272.043 242.064C271.925 242.316 271.759 242.543 271.554 242.731C271.349 242.919 271.109 243.065 270.847 243.16Z" fill="#71B8B8"/>
<path d="M274.251 252.512L206.643 277.151C206.114 277.344 205.531 277.319 205.022 277.081C204.512 276.844 204.118 276.414 203.925 275.885C203.733 275.357 203.758 274.774 203.995 274.265C204.233 273.755 204.663 273.361 205.191 273.168L272.799 248.529C273.061 248.433 273.338 248.39 273.617 248.402C273.895 248.414 274.168 248.481 274.42 248.599C274.672 248.716 274.899 248.882 275.087 249.087C275.275 249.293 275.421 249.533 275.517 249.794C275.612 250.056 275.655 250.334 275.643 250.612C275.631 250.89 275.564 251.163 275.447 251.415C275.329 251.668 275.163 251.894 274.958 252.082C274.753 252.271 274.512 252.417 274.251 252.512Z" fill="#71B8B8"/>
<path d="M488.776 278.479L451.76 367.059C450.181 370.807 447.191 373.784 443.436 375.347C439.681 376.91 435.462 376.935 431.69 375.415C429.738 374.628 427.967 373.453 426.484 371.96C425.002 370.467 423.839 368.687 423.066 366.73C422.294 364.773 421.928 362.679 421.991 360.575C422.055 358.472 422.546 356.404 423.434 354.497L464.706 263.663L487.457 207.411C485.491 205.45 484.177 202.932 483.692 200.198C483.207 197.464 483.576 194.647 484.748 192.13C485.919 189.612 487.838 187.517 490.242 186.128C492.647 184.739 495.42 184.124 498.186 184.366C500.952 184.608 503.577 185.696 505.703 187.482C507.829 189.268 509.354 191.665 510.071 194.347C510.787 197.03 510.661 199.868 509.708 202.476C508.755 205.084 507.023 207.336 504.746 208.925L488.776 278.479Z" fill="#FFB6B6"/>
</g>
<defs>
<clipPath id="clip0_4303_2111">
<rect width="672" height="639" fill="white"/>
</clipPath>
</defs>
</svg>
