<svg width="841" height="725" viewBox="0 0 841 725" fill="none" xmlns="http://www.w3.org/2000/svg">
<path d="M458.79 618.63C458.06 617.84 457.33 617.05 456.62 616.25C450.293 609.255 444.794 601.554 440.23 593.3C435.343 584.352 431.894 574.691 430.01 564.67C426.27 544.74 428.94 523.84 440.13 507.24C440.41 506.82 440.699 506.4 441 505.98C441.14 506.5 441.29 507.011 441.45 507.531C443.487 514.567 446.092 521.426 449.24 528.04C449.47 528.56 449.72 529.071 449.98 529.581C457.702 545.397 468.295 559.642 481.22 571.591C484.15 574.301 487.186 576.877 490.33 579.32V579.331C492.76 581.201 495.246 582.994 497.79 584.711C508.47 591.891 521.1 598.771 524.81 611.091C525.314 612.771 525.632 614.501 525.76 616.25C525.823 617.042 525.846 617.836 525.83 618.63H458.79Z" fill="#E6E6E6"/>
<path d="M506.01 618.63H504.65C504.64 618.48 504.61 618.32 504.59 618.17C504.49 617.52 504.37 616.88 504.23 616.25C503.12 611.35 500.62 606.83 496.11 604.26C494.621 603.43 493.04 602.776 491.4 602.31C488.17 601.33 484.75 600.89 481.47 600.23C480.62 600.06 479.78 599.86 478.96 599.64C474.753 598.608 470.815 596.688 467.41 594.01C463.24 590.487 459.699 586.281 456.94 581.57C455.108 578.596 453.426 575.533 451.9 572.39C451.69 571.98 451.49 571.58 451.3 571.17C447.761 563.633 444.996 555.756 443.05 547.66C442.039 543.502 441.251 539.293 440.69 535.05C439.449 525.832 439.261 516.502 440.13 507.24C440.16 506.82 440.21 506.4 440.25 505.98C440.34 505.11 441.66 505.42 441.57 506.28C441.53 506.7 441.49 507.11 441.45 507.53C440.62 516.424 440.781 525.382 441.93 534.24C441.98 534.69 442.04 535.13 442.11 535.58C443.802 547.87 447.392 559.822 452.75 571.01C452.8 571.13 452.86 571.24 452.91 571.36C452.92 571.37 452.92 571.37 452.92 571.38C454.18 573.98 455.537 576.527 456.99 579.021C459.632 583.808 463.01 588.151 467 591.89C470.373 594.876 474.397 597.033 478.75 598.19C479.18 598.31 479.62 598.431 480.06 598.531C480.41 598.621 480.76 598.701 481.12 598.771C484.46 599.481 487.92 599.93 491.23 600.85C492.734 601.262 494.2 601.804 495.61 602.471C497.911 603.627 499.942 605.257 501.571 607.252C503.199 609.248 504.388 611.564 505.06 614.05C505.28 614.78 505.46 615.51 505.61 616.25C505.783 617.037 505.916 617.831 506.01 618.63Z" fill="white"/>
<path d="M452.494 572.164C448.511 573.785 444.081 573.938 439.995 572.595C435.909 571.252 432.434 568.5 430.19 564.831C429.739 564.087 430.873 563.351 431.326 564.095C433.409 567.516 436.646 570.079 440.454 571.322C444.261 572.565 448.387 572.406 452.087 570.874C452.892 570.542 453.294 571.834 452.494 572.164Z" fill="white"/>
<path d="M478.586 598.578C482.072 590.507 482.388 581.419 479.471 573.125C479.181 572.304 480.471 571.898 480.761 572.718C483.78 581.354 483.432 590.812 479.786 599.203C479.437 600.002 478.239 599.374 478.586 598.578Z" fill="white"/>
<path d="M441.511 534.331C443.183 534.025 444.753 533.308 446.079 532.246C447.406 531.183 448.448 529.807 449.111 528.242C449.449 527.438 450.647 528.068 450.311 528.866C449.57 530.592 448.418 532.11 446.954 533.287C445.491 534.465 443.762 535.266 441.918 535.621C441.747 535.669 441.564 535.65 441.407 535.568C441.249 535.487 441.128 535.348 441.07 535.18C441.017 535.009 441.033 534.824 441.116 534.665C441.198 534.506 441.34 534.386 441.511 534.331Z" fill="white"/>
<path d="M549.503 618.63H494.393C494.203 617.84 494.023 617.05 493.853 616.25C492.843 611.63 492.013 606.98 491.403 602.31C491.343 601.83 491.273 601.34 491.233 600.85C490.344 593.713 490.043 586.515 490.333 579.33V579.32C490.501 575.387 490.868 571.465 491.433 567.57C492.914 557.497 495.971 547.721 500.493 538.6L500.553 538.48C509.573 520.35 524.273 505.31 543.173 498.8C543.663 498.63 544.133 498.47 544.623 498.31C544.433 498.81 544.243 499.31 544.053 499.82C544.053 499.83 544.043 499.84 544.043 499.85C541.437 506.686 539.387 513.723 537.913 520.89V520.9C537.793 521.45 537.683 522.01 537.573 522.57C534.223 539.886 534.114 557.674 537.253 575.03C537.263 575.06 537.263 575.09 537.273 575.12C538.528 581.993 540.3 588.762 542.573 595.37C544.913 602.16 547.803 609.23 549.123 616.25C549.273 617.05 549.403 617.84 549.503 618.63Z" fill="#E6E6E6"/>
<path d="M544.897 498.89C544.607 499.2 544.327 499.51 544.047 499.82C538.029 506.423 532.764 513.674 528.347 521.44C528.117 521.82 527.897 522.22 527.687 522.61C521.638 533.439 517.306 545.142 514.847 557.3C514.817 557.43 514.787 557.56 514.767 557.7C514.207 560.53 513.757 563.38 513.417 566.25C512.636 571.665 512.717 577.17 513.657 582.56C514.556 586.972 516.47 591.115 519.247 594.66C519.507 595.02 519.787 595.38 520.077 595.73C520.307 596.01 520.547 596.28 520.787 596.56C524.057 600.31 527.827 603.76 530.127 608.24C531.398 610.716 532.047 613.466 532.017 616.25C532.01 617.046 531.953 617.841 531.847 618.63H530.477C530.598 617.842 530.665 617.047 530.677 616.25C530.72 614.089 530.301 611.945 529.447 609.96C527.417 605.26 523.527 601.69 520.187 597.93C519.607 597.28 519.057 596.61 518.527 595.94C515.792 592.586 513.807 588.685 512.707 584.5C511.503 579.174 511.209 573.684 511.837 568.26C512.167 564.79 512.667 561.33 513.337 557.9C513.417 557.45 513.507 557 513.597 556.56C518.129 535.015 528.338 515.073 543.167 498.8C543.447 498.49 543.737 498.17 544.027 497.86C544.617 497.23 545.487 498.26 544.897 498.89Z" fill="white"/>
<path d="M513.956 558.079C509.799 556.976 506.17 554.431 503.716 550.898C501.263 547.366 500.145 543.077 500.562 538.796C500.649 537.93 501.999 538.025 501.912 538.892C501.516 542.878 502.557 546.873 504.849 550.158C507.14 553.442 510.53 555.8 514.407 556.804C515.249 557.024 514.793 558.298 513.956 558.079Z" fill="white"/>
<path d="M518.885 594.877C526.528 590.532 532.252 583.466 534.916 575.087C535.18 574.257 536.454 574.709 536.191 575.539C533.402 584.252 527.43 591.594 519.467 596.098C518.708 596.527 518.129 595.304 518.885 594.877Z" fill="white"/>
<path d="M527.966 521.26C529.486 522.022 531.171 522.394 532.87 522.344C534.569 522.294 536.229 521.823 537.701 520.973C538.454 520.535 539.032 521.759 538.283 522.194C536.653 523.126 534.819 523.644 532.942 523.703C531.064 523.762 529.201 523.361 527.515 522.535C527.35 522.47 527.215 522.345 527.138 522.184C527.062 522.024 527.049 521.841 527.103 521.671C527.164 521.503 527.288 521.365 527.45 521.288C527.612 521.211 527.797 521.201 527.966 521.26Z" fill="white"/>
<path d="M840.774 617.44C840.774 617.596 840.744 617.751 840.684 617.896C840.624 618.041 840.537 618.172 840.426 618.282C840.316 618.393 840.184 618.481 840.04 618.54C839.895 618.6 839.74 618.63 839.584 618.63H410.284C409.968 618.63 409.665 618.505 409.442 618.281C409.219 618.058 409.094 617.756 409.094 617.44C409.094 617.124 409.219 616.822 409.442 616.599C409.665 616.375 409.968 616.25 410.284 616.25H839.584C839.74 616.25 839.895 616.28 840.04 616.34C840.184 616.399 840.316 616.487 840.426 616.598C840.537 616.708 840.624 616.839 840.684 616.984C840.744 617.129 840.774 617.284 840.774 617.44Z" fill="#CCCCCC"/>
<path d="M517.005 167.943H3.36719C3.10197 167.943 2.84762 167.838 2.66008 167.65C2.47254 167.463 2.36719 167.209 2.36719 166.943C2.36719 166.678 2.47254 166.424 2.66008 166.236C2.84762 166.049 3.10197 165.943 3.36719 165.943H517.005C517.27 165.943 517.524 166.049 517.712 166.236C517.9 166.424 518.005 166.678 518.005 166.943C518.005 167.209 517.9 167.463 517.712 167.65C517.524 167.838 517.27 167.943 517.005 167.943Z" fill="#E6E6E6"/>
<path d="M517.005 207.945H3.36719C3.10197 207.945 2.84762 207.84 2.66008 207.652C2.47254 207.465 2.36719 207.211 2.36719 206.945C2.36719 206.68 2.47254 206.426 2.66008 206.238C2.84762 206.051 3.10197 205.945 3.36719 205.945H517.005C517.27 205.945 517.524 206.051 517.712 206.238C517.9 206.426 518.005 206.68 518.005 206.945C518.005 207.211 517.9 207.465 517.712 207.652C517.524 207.84 517.27 207.945 517.005 207.945Z" fill="#E6E6E6"/>
<path d="M517.005 247.945H3.36719C3.10197 247.945 2.84762 247.84 2.66008 247.652C2.47254 247.465 2.36719 247.211 2.36719 246.945C2.36719 246.68 2.47254 246.426 2.66008 246.238C2.84762 246.051 3.10197 245.945 3.36719 245.945H517.005C517.27 245.945 517.524 246.051 517.712 246.238C517.9 246.426 518.005 246.68 518.005 246.945C518.005 247.211 517.9 247.465 517.712 247.652C517.524 247.84 517.27 247.945 517.005 247.945Z" fill="#E6E6E6"/>
<path d="M517.005 287.944H3.36719C3.10197 287.944 2.84762 287.839 2.66008 287.651C2.47254 287.464 2.36719 287.21 2.36719 286.944C2.36719 286.679 2.47254 286.425 2.66008 286.237C2.84762 286.05 3.10197 285.944 3.36719 285.944H517.005C517.27 285.944 517.524 286.05 517.712 286.237C517.9 286.425 518.005 286.679 518.005 286.944C518.005 287.21 517.9 287.464 517.712 287.651C517.524 287.839 517.27 287.944 517.005 287.944Z" fill="#E6E6E6"/>
<path d="M517.005 327.944H3.36719C3.10197 327.944 2.84762 327.839 2.66008 327.651C2.47254 327.464 2.36719 327.21 2.36719 326.944C2.36719 326.679 2.47254 326.425 2.66008 326.237C2.84762 326.05 3.10197 325.944 3.36719 325.944H517.005C517.27 325.944 517.524 326.05 517.712 326.237C517.9 326.425 518.005 326.679 518.005 326.944C518.005 327.21 517.9 327.464 517.712 327.651C517.524 327.839 517.27 327.944 517.005 327.944Z" fill="#E6E6E6"/>
<path d="M125 329.5C124.736 329.5 124.482 329.395 124.295 329.209C124.108 329.023 124.002 328.77 124 328.506L123 166.506C122.998 166.241 123.102 165.986 123.288 165.797C123.475 165.609 123.728 165.502 123.994 165.5H124C124.264 165.5 124.517 165.605 124.705 165.791C124.892 165.977 124.998 166.23 125 166.494L126 328.494C126.002 328.759 125.898 329.014 125.711 329.203C125.525 329.391 125.271 329.498 125.006 329.5H125Z" fill="#E6E6E6"/>
<path d="M264 329.5C263.736 329.5 263.482 329.395 263.295 329.209C263.108 329.023 263.002 328.77 263 328.506L262 166.506C261.998 166.241 262.102 165.986 262.288 165.797C262.475 165.609 262.728 165.502 262.994 165.5H263C263.264 165.5 263.517 165.605 263.705 165.791C263.892 165.977 263.998 166.23 264 166.494L265 328.494C265.002 328.759 264.898 329.014 264.711 329.203C264.525 329.391 264.271 329.498 264.006 329.5H264Z" fill="#E6E6E6"/>
<path d="M403 329.5C402.736 329.5 402.482 329.395 402.295 329.209C402.108 329.023 402.002 328.77 402 328.506L401 166.506C400.998 166.241 401.102 165.986 401.288 165.797C401.475 165.609 401.728 165.502 401.994 165.5H402C402.264 165.5 402.517 165.605 402.705 165.791C402.892 165.977 402.998 166.23 403 166.494L404 328.494C404.002 328.759 403.898 329.014 403.711 329.203C403.525 329.391 403.271 329.498 403.006 329.5H403Z" fill="#E6E6E6"/>
<path d="M108.5 134H13.5C9.91958 134 6.4858 132.578 3.95406 130.046C1.42231 127.514 0 124.08 0 120.5C0 116.92 1.42231 113.486 3.95406 110.954C6.4858 108.422 9.91958 107 13.5 107H108.5C112.08 107 115.514 108.422 118.046 110.954C120.578 113.486 122 116.92 122 120.5C122 124.08 120.578 127.514 118.046 130.046C115.514 132.578 112.08 134 108.5 134Z" fill="#E6E6E6"/>
<path d="M80.0567 198.499H41.9486C40.5103 198.501 39.0858 198.219 37.7565 197.669C36.4273 197.12 35.2194 196.314 34.2019 195.297C33.1843 194.28 32.3771 193.073 31.8264 191.745C31.2757 190.416 30.9922 188.992 30.9922 187.553C30.9922 186.115 31.2757 184.691 31.8264 183.362C32.3771 182.033 33.1843 180.826 34.2019 179.81C35.2194 178.793 36.4273 177.987 37.7565 177.438C39.0858 176.888 40.5103 176.606 41.9486 176.607H80.0567C81.495 176.606 82.9195 176.888 84.2487 177.438C85.578 177.987 86.7859 178.793 87.8034 179.81C88.8209 180.826 89.6282 182.033 90.1789 183.362C90.7296 184.691 91.0131 186.115 91.0131 187.553C91.0131 188.992 90.7296 190.416 90.1789 191.745C89.6282 193.073 88.8209 194.28 87.8034 195.297C86.7859 196.314 85.578 197.12 84.2487 197.669C82.9195 198.219 81.495 198.501 80.0567 198.499Z" fill="#71B8B8"/>
<path d="M213.054 237.499H174.946C172.043 237.499 169.259 236.346 167.206 234.293C165.153 232.241 164 229.456 164 226.553C164 223.65 165.153 220.866 167.206 218.813C169.259 216.761 172.043 215.607 174.946 215.607H213.054C214.492 215.606 215.917 215.888 217.246 216.438C218.575 216.987 219.783 217.793 220.801 218.81C221.818 219.826 222.625 221.033 223.176 222.362C223.727 223.691 224.01 225.115 224.01 226.553C224.01 227.992 223.727 229.416 223.176 230.745C222.625 232.073 221.818 233.28 220.801 234.297C219.783 235.314 218.575 236.12 217.246 236.669C215.917 237.219 214.492 237.501 213.054 237.499Z" fill="#71B8B8"/>
<path d="M213.057 280.499H174.949C173.51 280.501 172.086 280.219 170.757 279.669C169.427 279.12 168.219 278.314 167.202 277.297C166.184 276.28 165.377 275.073 164.826 273.745C164.276 272.416 163.992 270.992 163.992 269.553C163.992 268.115 164.276 266.691 164.826 265.362C165.377 264.033 166.184 262.826 167.202 261.81C168.219 260.793 169.427 259.987 170.757 259.438C172.086 258.888 173.51 258.606 174.949 258.607H213.057C214.495 258.606 215.92 258.888 217.249 259.438C218.578 259.987 219.786 260.793 220.803 261.81C221.821 262.826 222.628 264.033 223.179 265.362C223.73 266.691 224.013 268.115 224.013 269.553C224.013 270.992 223.73 272.416 223.179 273.745C222.628 275.073 221.821 276.28 220.803 277.297C219.786 278.314 218.578 279.12 217.249 279.669C215.92 280.219 214.495 280.501 213.057 280.499Z" fill="#71B8B8"/>
<path d="M355.054 199.499H316.946C314.043 199.499 311.259 198.346 309.206 196.293C307.153 194.241 306 191.456 306 188.553C306 185.65 307.153 182.866 309.206 180.813C311.259 178.761 314.043 177.607 316.946 177.607H355.054C356.492 177.606 357.917 177.888 359.246 178.438C360.575 178.987 361.783 179.793 362.801 180.81C363.818 181.826 364.625 183.033 365.176 184.362C365.727 185.691 366.01 187.115 366.01 188.553C366.01 189.992 365.727 191.416 365.176 192.745C364.625 194.073 363.818 195.28 362.801 196.297C361.783 197.314 360.575 198.12 359.246 198.669C357.917 199.219 356.492 199.501 355.054 199.499Z" fill="#71B8B8"/>
<path d="M571.054 401.5H532.946C530.043 401.5 527.259 400.347 525.206 398.294C523.153 396.242 522 393.457 522 390.554C522 387.651 523.153 384.867 525.206 382.814C527.259 380.762 530.043 379.608 532.946 379.608H571.054C573.957 379.608 576.741 380.762 578.794 382.814C580.847 384.867 582 387.651 582 390.554C582 393.457 580.847 396.242 578.794 398.294C576.741 400.347 573.957 401.5 571.054 401.5Z" fill="#71B8B8"/>
<path d="M243.336 134.5H148.336C144.756 134.5 141.322 133.078 138.79 130.546C136.258 128.014 134.836 124.58 134.836 121C134.836 117.42 136.258 113.986 138.79 111.454C141.322 108.922 144.756 107.5 148.336 107.5H243.336C246.916 107.5 250.35 108.922 252.882 111.454C255.414 113.986 256.836 117.42 256.836 121C256.836 124.58 255.414 128.014 252.882 130.546C250.35 133.078 246.916 134.5 243.336 134.5Z" fill="#E6E6E6"/>
<path d="M378.164 135.5H283.164C279.584 135.5 276.15 134.078 273.618 131.546C271.086 129.014 269.664 125.58 269.664 122C269.664 118.42 271.086 114.986 273.618 112.454C276.15 109.922 279.584 108.5 283.164 108.5H378.164C381.745 108.5 385.178 109.922 387.71 112.454C390.242 114.986 391.664 118.42 391.664 122C391.664 125.58 390.242 129.014 387.71 131.546C385.178 134.078 381.745 135.5 378.164 135.5Z" fill="#E6E6E6"/>
<path d="M513 135.5H418C414.42 135.5 410.986 134.078 408.454 131.546C405.922 129.014 404.5 125.58 404.5 122C404.5 118.42 405.922 114.986 408.454 112.454C410.986 109.922 414.42 108.5 418 108.5H513C516.58 108.5 520.014 109.922 522.546 112.454C525.078 114.986 526.5 118.42 526.5 122C526.5 125.58 525.078 129.014 522.546 131.546C520.014 134.078 516.58 135.5 513 135.5Z" fill="#E6E6E6"/>
<path d="M54.977 128.88L64.0798 114.043L61.3382 113.685L66.8782 127.625C66.9941 128.002 67.2497 128.32 67.5927 128.515C67.9358 128.71 68.3402 128.766 68.7234 128.672C69.1055 128.564 69.4297 128.31 69.6258 127.965C69.8219 127.619 69.8741 127.211 69.7711 126.827L64.231 112.887C64.1444 112.61 63.98 112.363 63.7574 112.176C63.5348 111.988 63.2632 111.869 62.9748 111.831C62.6864 111.794 62.3933 111.839 62.13 111.963C61.8668 112.087 61.6445 112.283 61.4894 112.529L52.3865 127.366C51.3741 129.016 53.9679 130.524 54.977 128.88Z" fill="white"/>
<path d="M57.0312 123.889L64.9686 123.77C65.3664 123.77 65.7479 123.611 66.0293 123.33C66.3106 123.049 66.4686 122.667 66.4686 122.27C66.4686 121.872 66.3106 121.49 66.0293 121.209C65.7479 120.928 65.3664 120.77 64.9686 120.77L57.0312 120.889C56.6334 120.889 56.2519 121.047 55.9706 121.328C55.6893 121.609 55.5312 121.991 55.5312 122.389C55.5312 122.786 55.6893 123.168 55.9706 123.449C56.2519 123.73 56.6334 123.889 57.0312 123.889Z" fill="white"/>
<path d="M201.037 120.655C200.832 120.245 200.563 119.871 200.24 119.546C200.748 118.912 201.043 118.134 201.082 117.323C201.121 116.512 200.903 115.709 200.459 115.029C199.717 113.922 198.592 113.128 197.3 112.802C195.777 112.503 194.208 112.536 192.7 112.899C192.599 112.875 192.496 112.863 192.392 112.862C191.996 112.869 191.619 113.029 191.339 113.309C191.059 113.588 190.899 113.966 190.892 114.362C190.716 118.304 190.539 122.245 190.363 126.187C190.301 126.278 190.252 126.376 190.214 126.479C190.133 126.824 190.169 127.187 190.316 127.51C190.349 127.885 190.52 128.235 190.795 128.492C191.071 128.749 191.432 128.894 191.808 128.901C192.183 128.901 192.543 128.756 192.813 128.496C195.775 128.717 198.879 128.235 200.652 125.547C201.13 124.833 201.416 124.008 201.484 123.151C201.552 122.295 201.398 121.435 201.037 120.655ZM197.791 124.357C197.192 124.87 196.487 125.245 195.726 125.456C194.966 125.667 194.168 125.708 193.39 125.577C193.537 122.297 193.684 119.016 193.831 115.735C195.18 115.513 196.717 115.395 197.65 116.303C197.802 116.45 197.929 116.622 198.026 116.811C198.036 116.837 198.109 117.211 198.101 117.108C198.117 117.327 198.124 117.215 198.065 117.415C198.002 117.619 197.886 117.802 197.729 117.946C197.571 118.09 197.378 118.189 197.169 118.233C196.774 118.242 196.398 118.403 196.119 118.682C195.84 118.962 195.679 119.338 195.669 119.733C195.674 120.129 195.834 120.508 196.114 120.788C196.394 121.068 196.773 121.228 197.169 121.233C197.478 121.241 197.775 121.354 198.012 121.552C198.249 121.75 198.413 122.022 198.477 122.324C198.532 122.693 198.499 123.07 198.38 123.423C198.261 123.777 198.059 124.097 197.791 124.357Z" fill="white"/>
<path d="M333.349 113.664C331.174 114.067 329.203 115.204 327.765 116.884C326.327 118.565 325.508 120.687 325.445 122.898C325.351 125.245 326.181 127.535 327.757 129.276C329.545 131.11 332.025 131.13 334.395 130.812C334.789 130.8 335.164 130.638 335.442 130.359C335.721 130.081 335.883 129.706 335.895 129.312C335.895 128.586 335.204 127.704 334.395 127.812C332.851 128.019 330.977 128.355 329.801 127.076C328.794 125.836 328.311 124.253 328.454 122.662C328.57 121.15 329.196 119.722 330.231 118.612C331.265 117.503 332.646 116.778 334.146 116.557C334.528 116.448 334.852 116.194 335.048 115.849C335.244 115.503 335.296 115.095 335.194 114.711C335.08 114.333 334.825 114.012 334.482 113.817C334.138 113.622 333.732 113.567 333.349 113.664Z" fill="white"/>
<path d="M460.829 115.08L461.213 129.541C461.217 129.771 461.274 129.997 461.377 130.201C461.481 130.406 461.63 130.585 461.813 130.724C461.995 130.863 462.207 130.959 462.432 131.005C462.657 131.05 462.89 131.045 463.112 130.988C465.115 130.571 466.913 129.474 468.201 127.883C469.489 126.293 470.187 124.306 470.179 122.26C470.17 120.214 469.454 118.233 468.153 116.654C466.852 115.074 465.045 113.993 463.038 113.593C462.655 113.497 462.249 113.552 461.906 113.747C461.562 113.942 461.307 114.262 461.193 114.64C461.091 115.024 461.144 115.432 461.339 115.777C461.535 116.122 461.859 116.377 462.24 116.486C463.613 116.71 464.861 117.413 465.765 118.469C466.669 119.526 467.17 120.869 467.179 122.259C467.187 123.65 466.704 124.998 465.814 126.066C464.923 127.135 463.684 127.853 462.314 128.095L464.213 129.541L463.829 115.08C463.778 113.154 460.777 113.146 460.829 115.08Z" fill="white"/>
<path d="M663.948 411.782C663.005 410.653 662.322 409.332 661.945 407.911C661.569 406.49 661.509 405.004 661.769 403.557C662.029 402.11 662.603 400.738 663.451 399.537C664.299 398.336 665.4 397.335 666.676 396.606L660.094 361.482L677.214 368.675L680.84 400.926C681.923 403.152 682.152 405.697 681.484 408.08C680.817 410.463 679.298 412.519 677.215 413.857C675.133 415.195 672.632 415.723 670.187 415.34C667.742 414.958 665.522 413.692 663.948 411.782Z" fill="#FFB6B6"/>
<path d="M643.928 604.887L631.668 604.886L625.836 557.598L643.93 557.599L643.928 604.887Z" fill="#FFB6B6"/>
<path d="M645.494 483.99C645.494 483.99 652.952 438.317 659.952 426.317C666.952 414.317 664.714 385.982 664.714 385.982L657.888 385.416C657.943 384.275 657.793 383.133 657.444 382.044C653.952 372.317 605.286 375.77 605.286 375.77C605.286 375.77 587.096 404.332 593.524 429.824C599.952 455.317 606.952 504.317 606.952 504.317L627.999 584.5L645.999 583.5L644.085 538.17L644.596 538.336L645.494 483.99Z" fill="#2F2E41"/>
<path d="M673.449 248.816L655.221 227.6L625.961 226.75L614.771 244.74L611.997 264.499L597.781 382.044C597.781 382.044 644.347 404.363 669.398 393.59L681.449 292.816C686.449 272.816 673.449 248.816 673.449 248.816Z" fill="#E6E6E6"/>
<path d="M641.979 220.097C655.991 220.097 667.349 208.739 667.349 194.727C667.349 180.716 655.991 169.357 641.979 169.357C627.968 169.357 616.609 180.716 616.609 194.727C616.609 208.739 627.968 220.097 641.979 220.097Z" fill="#FFB6B6"/>
<path d="M672.55 188.955C671.771 183.385 667.999 178.097 662.634 176.409C660.503 170.221 654.858 165.664 648.622 163.678C642.846 161.837 636.623 161.965 630.928 164.042C625.233 166.119 620.388 170.028 617.155 175.155C616.677 175.905 615.21 177.749 615.251 178.644C615.303 179.782 617.043 180.956 617.917 181.673C620.083 183.347 622.42 184.789 624.887 185.975C634.01 190.705 630.973 198.138 630.849 206.561C630.789 210.654 632.156 214.149 635.646 216.487C640.683 219.861 647.892 218.518 653.373 217.164C659.592 215.628 664.762 210.164 668.309 204.897C671.45 200.232 673.329 194.525 672.55 188.955Z" fill="#2F2E41"/>
<path d="M672.727 281.846L682.599 390.129L650.883 388.428L672.727 281.846Z" fill="#E6E6E6"/>
<path d="M565.132 388.036C566.401 387.484 567.533 386.66 568.449 385.622C569.365 384.585 570.043 383.359 570.434 382.031C570.825 380.704 570.921 379.307 570.713 377.938C570.506 376.57 570.001 375.263 569.235 374.111L589.586 347.322L572.142 346.157L555.491 371.775C553.64 373.192 552.374 375.238 551.931 377.525C551.488 379.813 551.9 382.184 553.089 384.188C554.277 386.192 556.16 387.691 558.379 388.4C560.599 389.109 563.001 388.98 565.132 388.036Z" fill="#FFB8B8"/>
<path d="M622.776 244.079L619.39 242.764L616.12 243.919C616.12 243.919 605.897 253.661 604.186 263.875C603.421 268.445 591.509 313.13 591.509 313.13L559.773 361.8L576.944 373.267L620.711 307.69L622.776 244.079Z" fill="#E6E6E6"/>
<path d="M646.432 601.294L642.896 601.294L629.093 595.681L621.695 601.293C617.514 601.294 613.504 602.954 610.547 605.911C607.591 608.867 605.93 612.877 605.93 617.057V617.57L646.431 617.571L646.432 601.294Z" fill="#2F2E41"/>
<path d="M702.628 558.775L693.94 567.426L656.438 538.038L669.257 525.27L702.628 558.775Z" fill="#FFB6B6"/>
<path d="M699.561 553.574L697.477 556.43L684.805 564.27L684.977 573.555L684.976 573.555C682.511 576.933 681.489 581.15 682.134 585.281C682.779 589.412 685.039 593.117 688.415 595.583L688.829 595.885L712.708 563.171L699.561 553.574Z" fill="#2F2E41"/>
<path d="M636.998 486.5L693.998 545.5L677.998 559.5L633.203 524.315L636.998 486.5Z" fill="#2F2E41"/>
</svg>
