<svg width="171" height="210" viewBox="0 0 171 210" fill="none" xmlns="http://www.w3.org/2000/svg">
<path d="M143.041 97.7683H44.2746C42.795 97.7646 41.5956 95.3176 41.5938 92.2962V18.9936C41.5938 15.9729 42.795 13.5265 44.2746 13.5215H143.041C144.521 13.5252 145.72 15.9723 145.722 18.9936V92.2956C145.72 95.3163 144.519 97.7646 143.041 97.7683Z" fill="white"/>
<path d="M143.041 97.7683H44.2746C42.795 97.7646 41.5956 95.3176 41.5938 92.2962V18.9936C41.5938 15.9729 42.795 13.5265 44.2746 13.5215H143.041C144.521 13.5252 145.72 15.9723 145.722 18.9936V92.2956C145.72 95.3163 144.519 97.7646 143.041 97.7683ZM44.2746 15.7102C43.3865 15.7102 42.6671 17.1813 42.6658 18.9936V92.2955C42.6658 94.1078 43.3864 95.5771 44.2746 95.5789H143.041C143.929 95.5789 144.649 94.1084 144.65 92.2955V18.9936C144.65 17.1813 143.929 15.7121 143.041 15.7102L44.2746 15.7102Z" fill="#E6E6E6"/>
<path d="M115.581 36.4204C111.186 31.7652 105.136 29.016 98.7305 28.7637V53.2307L115.581 36.4204Z" fill="#3F3D56"/>
<path d="M115.581 39.4668L98.7305 56.2771H122.279C122.288 50.0245 119.89 44.0072 115.581 39.4668Z" fill="#E4E4E4"/>
<path d="M122.305 58.0352C122.306 59.5601 122.165 61.0819 121.883 62.5807C121.861 62.6994 121.838 62.8169 121.813 62.9343C121.282 65.5488 120.322 68.0581 118.972 70.3613C118.901 70.4848 118.827 70.6083 118.753 70.7294V70.7307C117.423 72.9136 115.76 74.8763 113.824 76.5479C113.728 76.6315 113.632 76.7138 113.535 76.795C109.374 80.2874 104.164 82.2956 98.7305 82.502V58.0352H122.305Z" fill="#F0F0F0"/>
<path d="M96.348 82.524C96.6739 82.524 96.998 82.5157 97.3209 82.5031V58.0352L79.4844 75.8292C84.037 80.1356 90.0742 82.5324 96.348 82.524Z" fill="#CACACA"/>
<path d="M96.3831 31.7891C93.1595 31.7891 89.9675 32.4225 86.9893 33.6532C84.0111 34.8838 81.305 36.6877 79.0256 38.9617C76.7462 41.2357 74.9381 43.9353 73.7045 46.9064C72.4709 49.8776 71.8359 53.062 71.8359 56.2779H97.3814V31.8109C97.0501 31.7977 96.7177 31.7891 96.3831 31.7891Z" fill="#71B8B8"/>
<path d="M90.5285 58.0352L85.3676 63.1838L85.1988 63.3522L85.1952 63.3558L80.6946 67.8444L80.5235 68.0152L75.6612 72.866L75.49 73.0367V73.0379L72.6916 75.8285C70.2617 73.5425 68.3265 70.7847 67.0051 67.7246C65.6837 64.6646 65.004 61.3671 65.0078 58.0352H90.5285Z" fill="#71B8B8"/>
<path d="M46.7954 130.505C47.2021 130.261 47.5504 129.931 47.8155 129.539C48.0806 129.146 48.2562 128.7 48.3299 128.232C48.4036 127.765 48.3737 127.287 48.2421 126.832C48.1105 126.377 47.8806 125.956 47.5685 125.6L51.787 83.3672L44.7429 83.8335L42.7914 125.419C42.2256 125.982 41.8864 126.733 41.838 127.528C41.7897 128.324 42.0356 129.11 42.5291 129.737C43.0226 130.363 43.7295 130.788 44.5158 130.93C45.3021 131.071 46.1132 130.92 46.7954 130.505Z" fill="#FFB8B8"/>
<path d="M41.8906 81.8037L43.7374 95.8066L43.4811 104.389L51.2285 105.096L52.7812 97.9585L53.6367 79.0616C53.7012 77.6363 53.2218 76.2396 52.2951 75.153C51.3684 74.0663 50.0632 73.3705 48.6426 73.2057C47.1688 73.0348 45.6867 73.4488 44.5162 74.3584C43.3457 75.268 42.5806 76.6003 42.386 78.0677L41.8906 81.8037Z" fill="#2F2E41"/>
<path d="M71.5596 205.012H76.2591L78.4946 186.928H71.5586L71.5596 205.012Z" fill="#FFB7B7"/>
<path d="M70.3594 203.481L79.6146 203.48C81.1789 203.481 82.6794 204.101 83.7855 205.204C84.8916 206.307 85.513 207.804 85.5132 209.365V209.556L70.3597 209.556L70.3594 203.481Z" fill="#2F2E41"/>
<path d="M32.7549 205.012H37.4544L39.6899 186.928H32.7539L32.7549 205.012Z" fill="#FFB7B7"/>
<path d="M31.5547 203.481L40.8099 203.48C42.3742 203.481 43.8747 204.101 44.9808 205.204C46.0869 206.307 46.7084 207.804 46.7085 209.365V209.556L31.555 209.556L31.5547 203.481Z" fill="#2F2E41"/>
<path d="M51.0291 66.5488C56.6564 66.5488 61.2183 61.9977 61.2183 56.3838C61.2183 50.7698 56.6564 46.2188 51.0291 46.2188C45.4017 46.2188 40.8398 50.7698 40.8398 56.3838C40.8398 61.9977 45.4017 66.5488 51.0291 66.5488Z" fill="#FFB8B8"/>
<path d="M52.3449 70.6758L45.2739 71.482C43.5544 73.9147 42.4395 76.7205 42.0211 79.6678C41.6028 82.6151 41.893 85.6194 42.8678 88.4328L48.2033 103.831C48.2033 103.831 40.7968 118.644 40.7968 132.397C40.7968 146.15 26.6914 195.241 26.6914 195.241L46.5461 197.307L55.2093 145.011L67.1477 197.097L80.7765 194.883L73.2701 126.594L68.3099 104.116L68.0986 93.155C68.0986 93.155 70.2077 84.93 64.9291 79.664L58.4845 70.7051L52.3449 70.6758Z" fill="#2F2E41"/>
<path d="M102.193 106.886C102.173 106.368 102.038 105.86 101.8 105.399C101.561 104.938 101.224 104.535 100.813 104.218C100.401 103.901 99.9249 103.678 99.4175 103.565C98.9101 103.451 98.3839 103.45 97.8761 103.561L59.4249 77.2754L56.1641 84.2729L95.1868 108.045C95.4308 108.884 95.9748 109.604 96.7156 110.07C97.4565 110.535 98.3427 110.713 99.2063 110.57C100.07 110.428 100.851 109.974 101.402 109.294C101.952 108.615 102.234 107.758 102.193 106.886Z" fill="#FFB8B8"/>
<path d="M52.7069 85.939L67.1654 91.5437L75.2956 96.3093L80.0575 89.2561L74.001 84.0084L56.2524 73.2361C54.9137 72.4236 53.3161 72.1475 51.7814 72.4635C50.2468 72.7795 48.8893 73.664 47.9825 74.9388C47.0416 76.2615 46.6598 77.9001 46.9193 79.5011C47.1789 81.1022 48.059 82.5372 49.3698 83.4965L52.7069 85.939Z" fill="#2F2E41"/>
<path d="M62.9063 52.7534H47.9336V46.2423C51.2199 44.9398 54.4358 43.8321 56.3797 46.2423C58.1107 46.2423 59.7707 46.9283 60.9947 48.1494C62.2187 49.3704 62.9063 51.0265 62.9063 52.7534Z" fill="#2F2E41"/>
<path d="M50.6048 45.5919C41.6539 45.6314 39.1484 56.7849 39.1484 63.0995C39.1484 66.621 40.7448 67.8806 43.2534 68.3067L44.1393 63.593L46.2143 68.5096C46.919 68.5131 47.6593 68.4995 48.4267 68.4853L49.1303 67.0401L50.6991 68.4594C56.9825 68.4687 66.1135 67.9089 62.061 63.0995C56.6321 56.6566 58.4067 45.5575 50.6048 45.5919Z" fill="#2F2E41"/>
<path d="M96.0447 185.56C97.0149 177.777 101.85 170.109 109.29 167.576C106.356 175.587 106.356 184.375 109.292 192.385C110.435 195.47 112.029 198.783 110.953 201.892C110.284 203.827 108.647 205.307 106.818 206.233C104.988 207.158 102.957 207.6 100.952 208.032L100.557 208.357C97.3739 201.186 95.0745 193.343 96.0447 185.56Z" fill="#F0F0F0"/>
<path d="M109.367 167.722C105.034 172.566 102.341 178.648 101.67 185.105C101.501 186.492 101.552 187.898 101.822 189.269C102.128 190.597 102.785 191.819 103.724 192.807C104.581 193.747 105.567 194.609 106.18 195.74C106.485 196.324 106.664 196.965 106.703 197.622C106.743 198.279 106.642 198.937 106.409 199.553C105.867 201.103 104.8 202.365 103.713 203.564C102.507 204.895 101.232 206.259 100.72 208.024C100.657 208.237 100.329 208.129 100.391 207.915C101.283 204.845 104.27 203.101 105.695 200.336C106.36 199.045 106.639 197.547 106.016 196.185C105.471 194.994 104.455 194.105 103.579 193.161C102.648 192.209 101.965 191.045 101.59 189.77C101.251 188.417 101.146 187.016 101.278 185.627C101.527 182.496 102.267 179.423 103.472 176.521C104.829 173.201 106.745 170.138 109.138 167.463C109.286 167.298 109.514 167.558 109.367 167.722Z" fill="white"/>
<path d="M101.76 183.014C100.689 182.755 99.7459 182.124 99.0982 181.235C98.4506 180.346 98.1408 179.256 98.2243 178.16C98.2419 177.938 98.5881 177.955 98.5704 178.177C98.4908 179.198 98.7794 180.213 99.3842 181.04C99.989 181.866 100.87 182.45 101.869 182.686C102.085 182.737 101.976 183.065 101.76 183.014Z" fill="white"/>
<path d="M103.228 192.388C105.162 191.237 106.589 189.4 107.226 187.245C107.289 187.031 107.618 187.14 107.555 187.353C106.888 189.595 105.399 191.503 103.384 192.697C103.192 192.811 103.037 192.502 103.228 192.388Z" fill="white"/>
<path d="M105.148 173.529C105.541 173.715 105.975 173.801 106.41 173.779C106.845 173.757 107.267 173.628 107.64 173.403C107.83 173.286 107.985 173.596 107.795 173.711C107.383 173.958 106.916 174.101 106.436 174.126C105.955 174.151 105.476 174.059 105.039 173.857C104.997 173.841 104.961 173.81 104.941 173.77C104.921 173.729 104.916 173.682 104.929 173.639C104.944 173.595 104.975 173.559 105.016 173.539C105.057 173.518 105.104 173.515 105.148 173.529Z" fill="white"/>
<path d="M131.973 181.476C131.856 181.552 131.739 181.628 131.622 181.706C130.055 182.734 128.574 183.888 127.194 185.155C127.086 185.251 126.978 185.35 126.873 185.449C123.581 188.537 120.893 192.208 118.945 196.275C118.171 197.895 117.522 199.57 117.003 201.287C116.287 203.659 115.699 206.288 114.281 208.228C114.135 208.432 113.977 208.627 113.807 208.811H100.99C100.961 208.797 100.932 208.785 100.902 208.77L100.391 208.794C100.411 208.703 100.434 208.61 100.455 208.519C100.467 208.467 100.481 208.414 100.493 208.362C100.502 208.327 100.511 208.292 100.516 208.26C100.519 208.248 100.522 208.237 100.525 208.228C100.531 208.196 100.54 208.166 100.546 208.137C100.674 207.615 100.807 207.093 100.943 206.571C100.943 206.568 100.943 206.568 100.946 206.565C101.948 202.576 103.42 198.719 105.333 195.076C105.391 194.969 105.45 194.858 105.514 194.75C106.399 193.137 107.416 191.599 108.552 190.152C109.177 189.362 109.842 188.603 110.544 187.879C112.361 186.013 114.461 184.444 116.767 183.229C121.364 180.808 126.686 179.88 131.598 181.359C131.724 181.397 131.847 181.435 131.973 181.476Z" fill="#F0F0F0"/>
<path d="M131.943 181.639C125.56 182.904 119.74 186.143 115.307 190.896C114.335 191.902 113.528 193.055 112.915 194.312C112.358 195.556 112.145 196.925 112.298 198.279C112.416 199.544 112.683 200.825 112.49 202.096C112.381 202.745 112.137 203.365 111.771 203.913C111.406 204.461 110.929 204.926 110.371 205.278C109.004 206.19 107.389 206.557 105.798 206.862C104.032 207.2 102.191 207.523 100.717 208.624C100.538 208.757 100.341 208.473 100.519 208.34C103.085 206.424 106.523 206.826 109.329 205.474C110.638 204.843 111.765 203.815 112.09 202.353C112.373 201.074 112.099 199.754 111.969 198.474C111.8 197.156 111.958 195.816 112.428 194.572C112.974 193.288 113.735 192.106 114.679 191.077C116.767 188.726 119.213 186.717 121.926 185.124C125.013 183.289 128.392 181.993 131.916 181.295C132.134 181.252 132.16 181.597 131.943 181.639Z" fill="white"/>
<path d="M116.646 189.281C115.948 188.431 115.575 187.361 115.594 186.262C115.614 185.163 116.024 184.107 116.752 183.282C116.9 183.115 117.167 183.337 117.018 183.503C116.339 184.27 115.957 185.254 115.941 186.278C115.925 187.301 116.276 188.296 116.931 189.084C117.073 189.256 116.787 189.451 116.646 189.281Z" fill="white"/>
<path d="M112.153 197.645C114.393 197.886 116.641 197.277 118.45 195.939C118.629 195.806 118.826 196.09 118.647 196.223C116.762 197.612 114.421 198.241 112.091 197.985C111.869 197.96 111.933 197.62 112.153 197.645Z" fill="white"/>
<path d="M125.071 183.744C125.273 184.129 125.567 184.458 125.928 184.702C126.288 184.946 126.704 185.096 127.137 185.14C127.359 185.162 127.296 185.502 127.075 185.48C126.597 185.429 126.138 185.263 125.739 184.994C125.34 184.726 125.013 184.364 124.786 183.941C124.762 183.903 124.753 183.857 124.761 183.812C124.769 183.767 124.794 183.727 124.83 183.7C124.868 183.674 124.915 183.665 124.96 183.673C125.005 183.681 125.045 183.707 125.071 183.744Z" fill="white"/>
</svg>
