<svg width="800" height="623" viewBox="0 0 800 623" fill="none" xmlns="http://www.w3.org/2000/svg">
<g clip-path="url(#clip0_4475_408)">
<path d="M680.233 254.738C680.23 242.222 676.758 229.952 670.204 219.29C663.649 208.628 654.267 199.991 643.101 194.338C631.934 188.686 619.419 186.239 606.946 187.269C594.473 188.299 582.529 192.766 572.441 200.174C562.352 207.581 554.515 217.64 549.798 229.233C545.081 240.826 543.669 253.499 545.72 265.846C547.77 278.193 553.202 289.73 561.413 299.176C569.624 308.622 580.292 315.607 592.233 319.357L594.496 449.674L697.996 347.519C697.996 347.519 657.641 331.894 649.91 311.189C659.237 305.019 666.888 296.634 672.18 286.782C677.472 276.931 680.239 265.921 680.233 254.738Z" fill="#ED9DA0"/>
<path d="M649.602 311.227C649.602 311.227 672.702 302.999 684.55 278.968C695.424 256.895 696.624 219.293 665.733 210.161C665.733 210.161 683.533 194.796 650.719 185.436L655.083 189.463C655.083 189.463 651.233 182.507 632.214 186.62C632.214 186.62 561.938 178.435 549.465 201.574C549.465 201.574 511.747 209.304 531.833 237.996C531.833 237.996 532.871 243.579 540.038 243.474L536.457 238.791L547.37 243.474C547.37 243.474 562.548 219.298 576.87 232.666C576.87 232.666 604.27 231.513 617.37 229.113C617.37 229.113 614.74 264.307 639.89 271.161C665.04 278.015 649.597 311.229 649.597 311.229L649.602 311.227Z" fill="#090814"/>
<path d="M417.263 538.656L541.031 612.486L551.323 564.519L434.052 508.802C431.831 500.372 425.689 492.31 416.58 487.187C400.641 478.224 381.707 481.65 374.289 494.841C366.871 508.032 373.778 525.991 389.717 534.954C398.831 540.08 408.906 541.137 417.263 538.656Z" fill="#ED9DA0"/>
<path d="M675.118 330.344C646.592 359.007 619.503 366.701 594.579 342.803L559.379 600.748L574.015 621.955L663.027 622.209L675.12 330.344H675.118Z" fill="#71B8B8"/>
<path d="M679.801 327.748L694.686 339.971L739.874 365.74C749.515 369.318 758.207 375.056 765.284 382.516C772.361 389.975 777.635 398.957 780.7 408.772C787.92 431.952 793.041 455.734 796 479.83C803.431 540.761 798.031 621.103 798.031 621.103L729.331 621.703L732.318 581.413L743.37 481.734L743.077 621.956H663.024C663.024 621.956 657.545 384.129 669.484 331.239C669.732 330.177 670.246 329.195 670.979 328.387C671.712 327.579 672.639 326.972 673.672 326.623C674.706 326.273 675.811 326.194 676.884 326.391C677.957 326.589 678.961 327.057 679.802 327.751L679.801 327.748Z" fill="#090814"/>
<path d="M594.581 342.805L540.45 368.834C531.291 373.238 523.273 379.697 517.02 387.707C510.766 395.718 506.447 405.064 504.398 415.018L481.718 525.18L474.305 591.818C474.305 591.818 506.193 620.377 527.119 610.907L525.626 621.958H574.015L594.581 342.805Z" fill="#090814"/>
<path d="M520.255 621.188C533.055 599.51 537.425 582.188 543.709 557.817C549.971 533.539 552.871 508.516 552.326 483.449C552.018 469.355 550.585 455.308 548.04 441.442C547.735 439.783 550.276 439.071 550.584 440.742C552.884 453.229 554.296 465.863 554.811 478.549C555.319 491.244 554.939 503.958 553.676 516.599C552.427 529.174 550.325 541.65 547.385 553.94C544.429 566.297 540.617 578.432 535.976 590.259C531.336 602.067 532.041 607.403 525.776 618.438C525 619.806 524.212 621.166 523.411 622.519C523.228 622.808 522.94 623.015 522.608 623.096C522.276 623.177 521.925 623.126 521.63 622.953C521.334 622.781 521.117 622.5 521.025 622.171C520.932 621.842 520.971 621.49 521.133 621.188H520.255Z" fill="white"/>
<path d="M729.014 619.899C730.344 606.306 729.397 592.474 728.146 578.906C726.805 563.269 724.4 547.742 720.946 532.433C719.467 525.58 717.435 518.858 714.87 512.334C714.293 510.934 716.841 510.333 717.414 511.719C719.698 517.492 721.543 523.429 722.932 529.48C724.725 536.824 726.14 544.237 727.341 551.673C729.913 567.269 731.492 583.013 732.071 598.809C732.392 605.842 732.253 612.888 731.656 619.903C731.512 621.373 728.873 621.386 729.018 619.903L729.014 619.899Z" fill="white"/>
<path d="M641.639 602.456L739.659 613.656L730.25 576.02L643.33 568.244C637.578 561.693 628.483 557.222 618.045 556.706C599.781 555.806 584.37 567.324 583.622 582.439C582.874 597.554 597.075 610.539 615.339 611.439C625.777 611.955 635.269 608.402 641.639 602.451V602.456Z" fill="#ED9DA0"/>
<path d="M733.82 561.77L665.301 558.801L671.183 609.423C671.183 609.423 721.119 632.423 772.198 613.812L733.82 561.77Z" fill="#090814"/>
<path d="M594.219 344.081L559.365 599.473L556.328 595.073L591.528 337.128C614.3 358.963 638.88 354.428 664.71 331.618C665.307 331.091 666.042 330.746 666.829 330.624C667.615 330.501 668.421 330.607 669.149 330.928C669.878 331.249 670.499 331.772 670.939 332.436C671.38 333.099 671.621 333.874 671.634 334.67C644.253 360.795 618.234 367.105 594.216 344.08L594.219 344.081Z" fill="#090814"/>
<path d="M515.169 543.699L451.546 508.453L433.324 558.932C433.324 558.932 469.897 604.246 527.115 610.905L515.167 543.698L515.169 543.699Z" fill="#090814"/>
<path d="M469.837 512.113C473.215 517.978 477.812 523.05 483.318 526.986C488.823 530.922 495.11 533.632 501.752 534.931C503.417 535.252 502.712 537.795 501.052 537.475C494.079 536.088 487.483 533.227 481.707 529.082C475.93 524.938 471.107 519.606 467.56 513.445C467.398 513.144 467.359 512.792 467.452 512.462C467.544 512.133 467.761 511.853 468.056 511.68C468.352 511.508 468.702 511.457 469.035 511.537C469.367 511.618 469.655 511.825 469.838 512.114L469.837 512.113Z" fill="white"/>
<path d="M415.644 306.311H337.472C335.999 306.31 334.588 305.724 333.546 304.683C332.505 303.641 331.92 302.23 331.918 300.757V268.925C331.92 267.453 332.505 266.041 333.546 265C334.588 263.958 335.999 263.373 337.472 263.371H415.645C417.117 263.373 418.529 263.958 419.57 265C420.612 266.041 421.197 267.453 421.199 268.925V300.758C421.197 302.231 420.612 303.642 419.57 304.684C418.529 305.725 417.117 306.311 415.645 306.312L415.644 306.311Z" fill="#E6E6E6"/>
<path d="M292.988 449.78C288.808 449.766 284.646 449.229 280.6 448.18L279.8 447.959L279.06 447.588C252.315 434.178 229.751 416.466 211.996 394.943C197.298 377.021 185.839 356.674 178.134 334.815C168.92 308.644 164.487 281.029 165.047 253.29C165.058 252.708 165.068 252.258 165.068 251.948C165.068 238.464 172.553 226.632 184.137 221.805C193.003 218.111 273.498 185.048 279.314 182.659C290.267 177.171 301.952 181.752 303.822 182.553C308.016 184.268 382.429 214.704 398.51 222.361C415.083 230.253 419.504 244.43 419.504 251.561C419.504 283.853 413.911 314.032 402.881 341.26C393.973 363.3 381.348 383.648 365.555 401.415C335.085 435.705 304.606 447.862 304.312 447.969C300.67 449.222 296.837 449.834 292.985 449.778L292.988 449.78ZM285.82 432.026C288.462 432.618 294.546 433.507 298.511 432.061C303.548 430.224 329.058 416.996 352.897 390.169C385.834 353.1 402.543 306.509 402.57 251.681C402.511 250.57 401.722 242.648 391.231 237.652C375.462 230.143 298.116 198.516 297.337 198.198L297.123 198.107C295.502 197.428 290.344 195.997 286.788 197.86L286.076 198.192C285.214 198.546 199.767 233.641 190.654 237.438C184.279 240.094 182.008 246.674 182.008 251.947C182.008 252.332 181.998 252.893 181.984 253.617C181.255 291.133 189.936 383.447 285.82 432.025V432.026Z" fill="#3F3D56"/>
<path d="M282.652 190.129C282.652 190.129 196.429 225.542 187.19 229.392C177.951 233.242 173.333 242.479 173.333 251.718C173.333 260.957 166.404 381.504 282.652 439.788C282.652 439.788 293.203 442.707 301.207 439.788C309.211 436.869 410.832 387.592 410.832 251.332C410.832 251.332 410.832 237.475 394.665 229.776C378.498 222.077 300.334 190.129 300.334 190.129C300.334 190.129 290.736 185.893 282.652 190.129Z" fill="#71B8B8"/>
<path opacity="0.1" d="M292.095 218.074V406.988C292.095 406.988 205.102 365.113 205.872 255.024L292.095 218.074Z" fill="black"/>
<path d="M280.885 360.275C278.192 360.279 275.571 359.409 273.416 357.794L273.282 357.694L245.153 336.158C243.808 335.175 242.672 333.934 241.813 332.507C240.954 331.079 240.389 329.495 240.151 327.846C239.914 326.197 240.008 324.517 240.428 322.905C240.849 321.294 241.588 319.782 242.601 318.46C243.614 317.137 244.881 316.031 246.328 315.205C247.775 314.379 249.372 313.851 251.026 313.652C252.68 313.452 254.357 313.585 255.959 314.043C257.56 314.501 259.054 315.274 260.353 316.317L278.573 330.289L321.629 274.138C323.646 271.508 326.625 269.787 329.911 269.354C333.196 268.92 336.52 269.809 339.15 271.825L338.882 272.189L339.157 271.831C341.784 273.85 343.503 276.828 343.936 280.113C344.37 283.397 343.483 286.72 341.47 289.352L290.826 355.399C289.655 356.921 288.149 358.152 286.424 358.998C284.7 359.844 282.804 360.281 280.884 360.276L280.885 360.275Z" fill="white"/>
</g>
<defs>
<clipPath id="clip0_4475_408">
<rect width="800" height="623" fill="white"/>
</clipPath>
</defs>
</svg>
