<svg width="316" height="150" viewBox="0 0 316 150" fill="none" xmlns="http://www.w3.org/2000/svg">
<mask id="mask0_2937_146" style="mask-type:luminance" maskUnits="userSpaceOnUse" x="0" y="0" width="316" height="150">
<path d="M315.405 0H0V150H315.405V0Z" fill="white"/>
</mask>
<g mask="url(#mask0_2937_146)">
<path d="M70.7229 121.503L21.5657 120.938L16.4805 153.144L28.911 264.454H45.2078L48.9694 160.772L55.7497 266.431H72.4357L80.0458 146.081L70.7229 121.503Z" fill="#2F2E41"/>
<path d="M54.0546 37.0312H36.5589L33.1487 43.8116L16.4805 51.4661L22.4132 95.2288L17.893 124.045H74.3577L69.3103 90.7087L76.0906 50.5919L57.4448 43.2465L54.0546 37.0312Z" fill="#CBCBCB"/>
<path d="M112.617 143.076C111.854 141.519 111.506 139.919 111.546 138.519L103.34 124.148L110.293 120.443L117.868 135.42C118.999 136.247 120.05 137.502 120.813 139.059C122.556 142.616 122.135 146.398 119.872 147.507C117.608 148.617 114.361 146.633 112.617 143.076Z" fill="#FFB6B6"/>
<path d="M58.5321 48.664C58.5321 48.664 64.0678 42.9683 70.2778 46.9319C76.4877 50.8955 99.141 91.4551 99.141 91.4551L116.615 126.324L104.281 132.071L89.4 98.6805L58.1484 65.0495L58.5321 48.664Z" fill="#CBCBCB"/>
<path d="M44.5679 33.7257C53.2931 33.7257 60.3663 26.6525 60.3663 17.9273C60.3663 9.20209 53.2931 2.12891 44.5679 2.12891C35.8427 2.12891 28.7695 9.20209 28.7695 17.9273C28.7695 26.6525 35.8427 33.7257 44.5679 33.7257Z" fill="#FFB6B6"/>
<path d="M39.6091 30.6425C39.6822 32.1903 39.7188 32.9642 39.481 33.0577C38.7652 33.3392 29.5481 27.8959 28.4628 24.2723C27.9566 22.5822 28.3841 22.5485 28.0146 17.7404C27.6612 13.1419 27.265 13.1052 27.7334 11.9675C28.254 10.703 29.8439 9.14498 33.0236 6.029C34.2258 4.85082 34.827 4.26174 35.2065 3.95716C36.3566 3.03404 40.6412 -0.404879 44.57 0.0394172C46.2169 0.225655 45.9354 0.883163 52.0876 4.21943C52.6175 4.50679 53.3281 4.88613 54.3095 5.32166C56.6962 6.38092 58.1769 6.65554 58.9564 6.95093C63.6806 8.74118 62.2942 18.7138 61.8882 18.7709C61.7403 18.7918 61.7001 17.4986 60.9249 17.3917C60.2271 17.2954 59.7827 18.2774 59.1485 18.3131C57.4165 18.4107 59.3399 16.7527 55.1009 14.9113C53.453 14.1954 58.0383 17.4231 53.6733 17.3707C46.8473 17.2888 51.213 17.7233 48.6206 19.085C46.7301 20.0781 39.1247 14.6128 39.4337 16.3592C39.6517 17.591 40.5455 17.9456 40.4166 19.3255C40.2917 20.6624 39.287 22.1033 38.4007 22.1562C37.5839 22.205 37.1363 21.0588 36.8638 21.1684C36.5674 21.2878 36.893 22.7262 37.532 24.204C38.3433 26.0801 38.8276 26.0948 39.2555 27.5377C39.5016 28.3676 39.5374 29.1259 39.6091 30.6425Z" fill="#2F2E41"/>
<path d="M-17 149.19C-17 149.85 -16.8636 150.38 -16.6938 150.38H152.694C152.864 150.38 153 149.85 153 149.19C153 148.53 152.864 148 152.694 148H-16.6938C-16.8636 148 -17 148.53 -17 149.19Z" fill="#CCCCCC"/>
<rect x="66.9998" y="35.6079" width="130.428" height="74.5051" rx="2.5" transform="rotate(14.2907 66.9998 35.6079)" fill="white" stroke="#3F3D56"/>
<g clip-path="url(#clip0_2937_146)">
<path d="M87.2053 84.3512C86.6399 83.0277 85.1753 81.3593 83.9408 80.6222L40.731 54.8779C39.4928 54.1418 38.2282 54.6831 37.9071 56.0849L31.4136 84.3855C31.0922 85.791 31.5988 87.804 32.5462 88.889L72.069 134.015C73.0179 135.099 74.9534 135.872 76.3888 135.74L105.391 133.135C106.829 133.007 107.538 131.833 106.972 130.509L87.2053 84.3512Z" fill="#3F3D56"/>
<path d="M121.386 103.187C120.038 102.684 117.819 102.594 116.434 102.98L67.9948 116.525C66.608 116.914 66.128 118.204 66.9219 119.403L82.942 143.619C83.7383 144.821 85.5456 145.842 86.9847 145.904L146.92 148.394C148.359 148.454 150.253 147.585 151.148 146.455L169.258 123.653C170.157 122.523 169.795 121.2 168.447 120.697L121.386 103.187Z" fill="#3F3D56"/>
<path d="M156.088 116.111C154.67 116.359 152.711 117.404 151.711 118.437L116.77 154.617C115.771 155.654 116.009 157.009 117.3 157.642L143.366 170.433C144.661 171.068 146.737 171.035 148.01 170.36L200.976 142.201C202.248 141.525 203.443 139.817 203.643 138.39L207.737 109.56C207.941 108.131 206.96 107.172 205.542 107.42L156.088 116.111Z" fill="#3F3D56"/>
<path d="M160.271 126.821L160.271 126.821C160.041 126.705 159.701 126.605 159.332 126.548C158.963 126.492 158.608 126.485 158.354 126.527C158.354 126.527 158.353 126.527 158.353 126.527L135.828 130.21C135.828 130.21 135.828 130.21 135.828 130.21C135.635 130.242 135.555 130.328 135.526 130.386C135.496 130.445 135.475 130.559 135.564 130.733L135.564 130.733L141.577 142.457L160.271 126.821ZM160.271 126.821L180.62 137.075C180.794 137.162 180.842 137.267 180.852 137.33C180.862 137.393 180.848 137.509 180.709 137.649L180.708 137.65L171.398 147.027L171.398 147.028M160.271 126.821L171.398 147.028M171.398 147.028C171.237 147.19 170.974 147.345 170.664 147.448C170.354 147.55 170.049 147.583 169.825 147.548L142.917 143.424M171.398 147.028L142.917 143.424M142.917 143.424C142.692 143.39 142.413 143.268 142.149 143.077M142.917 143.424L142.149 143.077M142.149 143.077C141.885 142.887 141.681 142.66 141.577 142.457L142.149 143.077Z" stroke="#71B8B8" stroke-opacity="0.3"/>
<path d="M63.271 103.821L63.2706 103.821C63.0408 103.705 62.7011 103.605 62.3317 103.548C61.9626 103.492 61.6083 103.485 61.3537 103.527C61.3535 103.527 61.3534 103.527 61.3532 103.527L38.8281 107.21C38.828 107.21 38.8279 107.21 38.8278 107.21C38.6347 107.242 38.5554 107.328 38.5258 107.386C38.4962 107.445 38.4747 107.559 38.5638 107.733L38.5639 107.733L44.5767 119.457L63.271 103.821ZM63.271 103.821L83.6197 114.075C83.7938 114.162 83.842 114.267 83.852 114.33C83.8621 114.393 83.848 114.509 83.7085 114.649L83.7082 114.65L74.3982 124.027L74.3975 124.028M63.271 103.821L74.3975 124.028M74.3975 124.028C74.2374 124.19 73.9737 124.345 73.6637 124.448C73.3537 124.55 73.0494 124.583 72.8247 124.548L45.9175 120.424M74.3975 124.028L45.9175 120.424M45.9175 120.424C45.6925 120.39 45.4127 120.268 45.1489 120.077M45.9175 120.424L45.1489 120.077M45.1489 120.077C44.8852 119.887 44.6811 119.66 44.5769 119.457L45.1489 120.077Z" stroke="#71B8B8" stroke-opacity="0.3"/>
<path d="M132.156 123.906L132.156 123.906C131.904 123.96 131.577 124.097 131.255 124.285C130.932 124.473 130.653 124.691 130.481 124.884C130.481 124.884 130.481 124.884 130.481 124.884L115.293 141.922C115.293 141.922 115.293 141.922 115.293 141.922C115.163 142.068 115.155 142.185 115.169 142.249C115.183 142.313 115.238 142.415 115.416 142.494L115.417 142.494L127.468 147.822L132.156 123.906ZM132.156 123.906L154.423 119.069C154.614 119.028 154.717 119.078 154.764 119.121C154.812 119.164 154.874 119.263 154.854 119.46L154.854 119.46L153.52 132.607L153.52 132.608M132.156 123.906L153.52 132.608M153.52 132.608C153.497 132.834 153.39 133.121 153.214 133.396C153.037 133.671 152.821 133.888 152.625 134.002L129.118 147.73M153.52 132.608L129.118 147.73M129.118 147.73C128.922 147.845 128.627 147.926 128.303 147.944M129.118 147.73L128.303 147.944M128.303 147.944C127.978 147.962 127.677 147.914 127.468 147.822L128.303 147.944Z" stroke="#71B8B8" stroke-opacity="0.3"/>
<path d="M72.1562 114.906L72.1558 114.906C71.9042 114.96 71.5774 115.097 71.2547 115.285C70.9323 115.473 70.6528 115.691 70.4809 115.884C70.4808 115.884 70.4807 115.884 70.4806 115.884L55.2931 132.922C55.293 132.922 55.2929 132.922 55.2928 132.922C55.1628 133.068 55.1549 133.185 55.1688 133.249C55.1827 133.313 55.238 133.415 55.4164 133.494L55.4166 133.494L67.4676 138.822L72.1562 114.906ZM72.1562 114.906L94.4231 110.069C94.6138 110.028 94.7167 110.078 94.7641 110.121C94.812 110.164 94.874 110.263 94.8539 110.46L94.8538 110.46L93.5197 123.607L93.5196 123.608M72.1562 114.906L93.5196 123.608M93.5196 123.608C93.4971 123.834 93.39 124.121 93.2136 124.396C93.0372 124.671 92.8211 124.888 92.6248 125.002L69.1184 138.73M93.5196 123.608L69.1184 138.73M69.1184 138.73C68.9216 138.845 68.6274 138.926 68.3026 138.944M69.1184 138.73L68.3026 138.944M68.3026 138.944C67.978 138.962 67.6766 138.914 67.4679 138.822L68.3026 138.944Z" stroke="#71B8B8" stroke-opacity="0.3"/>
<path d="M92.0244 114.99L92.024 114.99C91.7684 114.96 91.4151 114.982 91.0486 115.056C90.6825 115.129 90.3473 115.244 90.1223 115.37C90.1221 115.37 90.122 115.37 90.1219 115.371L70.2197 126.544C70.2196 126.544 70.2195 126.544 70.2194 126.544C70.0489 126.64 70.0036 126.748 69.9958 126.813C69.9881 126.878 70.0071 126.993 70.1502 127.126L70.1503 127.126L79.8142 136.082L92.0244 114.99ZM92.0244 114.99L114.654 117.657C114.848 117.68 114.929 117.761 114.96 117.817C114.991 117.873 115.017 117.987 114.934 118.166L114.934 118.167L109.398 130.165L109.397 130.166M92.0244 114.99L109.397 130.166M109.397 130.166C109.302 130.373 109.108 130.609 108.852 130.812C108.596 131.014 108.321 131.149 108.098 131.194L81.4051 136.532M109.397 130.166L81.4051 136.532M81.4051 136.532C81.1818 136.577 80.8772 136.558 80.5641 136.469M81.4051 136.532L80.5641 136.469M80.5641 136.469C80.2513 136.381 79.9818 136.237 79.8145 136.083L80.5641 136.469Z" stroke="#71B8B8" stroke-opacity="0.3"/>
<path d="M124.1 135.947L124.1 135.947C124.326 136.071 124.662 136.182 125.029 136.251C125.396 136.32 125.75 136.339 126.006 136.306C126.006 136.306 126.006 136.306 126.006 136.306L148.644 133.393C148.644 133.393 148.644 133.393 148.644 133.393C148.838 133.368 148.921 133.285 148.952 133.227C148.984 133.17 149.009 133.056 148.926 132.88L148.926 132.88L143.316 120.957L124.1 135.947ZM124.1 135.947L104.113 125.005C103.942 124.911 103.897 124.806 103.889 124.743C103.881 124.679 103.899 124.563 104.043 124.428L104.044 124.427L113.668 115.373L113.669 115.372M124.1 135.947L113.669 115.372M113.669 115.372C113.834 115.216 114.103 115.069 114.416 114.978C114.73 114.886 115.035 114.864 115.258 114.906L142.009 119.945M113.669 115.372L142.009 119.945M142.009 119.945C142.233 119.987 142.508 120.119 142.766 120.318M142.009 119.945L142.766 120.318M142.766 120.318C143.023 120.517 143.219 120.751 143.316 120.957L142.766 120.318Z" stroke="#71B8B8" stroke-opacity="0.3"/>
<path d="M112.13 133.297L112.13 133.297C112.26 133.52 112.49 133.789 112.769 134.037C113.048 134.286 113.342 134.484 113.578 134.588C113.578 134.588 113.578 134.588 113.578 134.588L134.475 143.767C134.476 143.767 134.476 143.767 134.476 143.767C134.655 143.846 134.768 143.817 134.825 143.784C134.882 143.751 134.962 143.667 134.982 143.473L134.982 143.473L136.324 130.365L112.13 133.297ZM112.13 133.297L100.649 113.615C100.551 113.446 100.567 113.333 100.593 113.274C100.619 113.216 100.694 113.126 100.887 113.084L100.888 113.084L113.803 110.29L113.804 110.29M112.13 133.297L113.804 110.29M113.804 110.29C114.026 110.241 114.332 110.255 114.648 110.337C114.964 110.42 115.237 110.559 115.407 110.71L135.727 128.824M113.804 110.29L135.727 128.824M135.727 128.824C135.897 128.975 136.065 129.23 136.182 129.533M135.727 128.824L136.182 129.533M136.182 129.533C136.3 129.836 136.347 130.138 136.324 130.365L136.182 129.533Z" stroke="#71B8B8" stroke-opacity="0.3"/>
<path d="M167.13 144.297L167.13 144.297C167.26 144.52 167.49 144.789 167.769 145.037C168.048 145.286 168.342 145.484 168.578 145.588C168.578 145.588 168.578 145.588 168.578 145.588L189.475 154.767C189.476 154.767 189.476 154.767 189.476 154.767C189.655 154.846 189.768 154.817 189.825 154.784C189.882 154.751 189.962 154.667 189.982 154.473L189.982 154.473L191.324 141.365L167.13 144.297ZM167.13 144.297L155.649 124.615C155.551 124.446 155.567 124.333 155.593 124.274C155.619 124.216 155.694 124.126 155.887 124.084L155.888 124.084L168.803 121.29L168.804 121.29M167.13 144.297L168.804 121.29M168.804 121.29C169.026 121.241 169.332 121.255 169.648 121.337C169.964 121.42 170.237 121.559 170.407 121.71L190.727 139.824M168.804 121.29L190.727 139.824M190.727 139.824C190.897 139.975 191.065 140.23 191.182 140.533M190.727 139.824L191.182 140.533M191.182 140.533C191.3 140.836 191.347 141.138 191.324 141.365L191.182 140.533Z" stroke="#71B8B8" stroke-opacity="0.3"/>
<path d="M51.13 124.297L51.1302 124.297C51.2597 124.52 51.4903 124.789 51.7693 125.037C52.0481 125.286 52.3417 125.484 52.5777 125.588C52.5779 125.588 52.578 125.588 52.5781 125.588L73.4754 134.767C73.4756 134.767 73.4757 134.767 73.4758 134.767C73.6551 134.846 73.7681 134.817 73.8249 134.784C73.8817 134.751 73.9619 134.667 73.9817 134.473L73.9817 134.473L75.3244 121.365L51.13 124.297ZM51.13 124.297L39.6488 104.615C39.5506 104.446 39.5668 104.333 39.5928 104.274C39.619 104.216 39.6939 104.126 39.8873 104.084L39.8878 104.084L52.8032 101.29L52.8041 101.29M51.13 124.297L52.8041 101.29M52.8041 101.29C53.0265 101.241 53.3324 101.255 53.6482 101.337C53.9641 101.42 54.2369 101.559 54.4066 101.71L74.7268 119.824M52.8041 101.29L74.7268 119.824M74.7268 119.824C74.8966 119.975 75.0648 120.23 75.1824 120.533M74.7268 119.824L75.1824 120.533M75.1824 120.533C75.2999 120.836 75.3474 121.138 75.3244 121.365L75.1824 120.533Z" stroke="#71B8B8" stroke-opacity="0.3"/>
<path d="M190.718 136.397L190.718 136.397C190.73 136.14 190.682 135.789 190.582 135.429C190.483 135.069 190.344 134.743 190.202 134.527C190.202 134.527 190.202 134.527 190.202 134.527L177.629 115.477C177.629 115.477 177.629 115.477 177.629 115.477C177.521 115.314 177.411 115.276 177.345 115.273C177.279 115.27 177.167 115.298 177.045 115.45L177.044 115.45L168.804 125.731L190.718 136.397ZM190.718 136.397L189.682 159.16C189.673 159.355 189.597 159.441 189.544 159.476C189.49 159.511 189.378 159.546 189.193 159.476L189.193 159.476L176.828 154.814L176.827 154.814M190.718 136.397L176.827 154.814M176.827 154.814C176.614 154.734 176.364 154.557 176.144 154.316C175.924 154.075 175.77 153.811 175.709 153.592L168.47 127.351M176.827 154.814L168.47 127.351M168.47 127.351C168.409 127.131 168.406 126.826 168.472 126.507M168.47 127.351L168.472 126.507M168.472 126.507C168.538 126.189 168.661 125.91 168.804 125.732L168.472 126.507Z" stroke="#71B8B8" stroke-opacity="0.3"/>
<path d="M143.718 132.397L143.718 132.397C143.73 132.14 143.682 131.789 143.582 131.429C143.483 131.069 143.344 130.743 143.202 130.527C143.202 130.527 143.202 130.527 143.202 130.527L130.629 111.477C130.629 111.477 130.629 111.477 130.629 111.477C130.521 111.314 130.411 111.276 130.345 111.273C130.279 111.27 130.167 111.298 130.045 111.45L130.044 111.45L121.804 121.731L143.718 132.397ZM143.718 132.397L142.682 155.16C142.673 155.355 142.597 155.441 142.544 155.476C142.49 155.511 142.378 155.546 142.193 155.476L142.193 155.476L129.828 150.814L129.827 150.814M143.718 132.397L129.827 150.814M129.827 150.814C129.614 150.734 129.364 150.557 129.144 150.316C128.924 150.075 128.77 149.811 128.709 149.592L121.47 123.351M129.827 150.814L121.47 123.351M121.47 123.351C121.409 123.131 121.406 122.826 121.472 122.507M121.47 123.351L121.472 122.507M121.472 122.507C121.538 122.189 121.661 121.91 121.804 121.732L121.472 122.507Z" stroke="#71B8B8" stroke-opacity="0.3"/>
<path d="M86.0652 63.0074C86.1604 62.6352 86.3385 62.3986 86.5996 62.2973C86.8623 62.1898 87.0977 62.1627 87.3058 62.2159L88.4317 62.5038C88.9994 62.649 89.3524 63.0686 89.4907 63.7625C89.6291 64.4565 90.2155 64.9357 91.2499 65.2003L94.5441 66.1134C95.6541 66.3973 96.3021 66.1766 96.4881 65.4513C96.6281 64.9025 96.0601 64.297 94.7851 63.6348C94.2171 63.3349 93.5841 63.022 92.8881 62.6961C92.1937 62.3639 91.5112 61.9978 90.8407 61.5979C90.1765 61.1995 89.5787 60.7778 89.0474 60.3328C88.5161 59.8878 88.1258 59.3647 87.8764 58.7633C87.6349 58.1572 87.6021 57.5104 87.7779 56.8229C88.1022 55.5551 88.8024 54.696 89.8786 54.2454C90.9564 53.7886 92.5959 53.8417 94.7971 54.4047L97.1861 55.0761C98.4791 55.4068 99.5571 56.0387 100.42 56.9718C101.292 57.9003 101.6 58.8628 101.345 59.8593C101.25 60.2315 101.071 60.4713 100.808 60.5788C100.546 60.6864 100.313 60.7143 100.111 60.6627L98.9861 60.3748C98.4181 60.2296 98.0651 59.81 97.9261 59.1161C97.7901 58.4158 97.2041 57.9334 96.1701 57.6689L93.3361 56.8838C92.2265 56.5998 91.5787 56.8206 91.3932 57.5459C91.2915 57.9433 91.5585 58.3576 92.1941 58.789C92.8361 59.222 93.6301 59.6637 94.5771 60.1141C95.5311 60.5598 96.4781 61.0473 97.4181 61.5766C98.3581 62.1059 99.0981 62.7723 99.6391 63.5758C100.187 64.3746 100.342 65.2376 100.105 66.1648C99.7811 67.4326 99.0771 68.2941 97.9931 68.7493C96.9171 69.1998 95.2811 69.1444 93.0861 68.583L90.234 67.7931C88.941 67.4624 87.8588 66.8328 86.9875 65.9044C86.1177 64.9696 85.8103 64.004 86.0652 63.0074ZM102.236 65.1271L104.104 57.8231C104.166 57.5771 104.306 57.3876 104.521 57.2545C104.743 57.1231 104.983 57.0905 105.242 57.1566L107.011 57.6091C107.251 57.6704 107.436 57.8119 107.568 58.0337C107.699 58.2555 107.733 58.4894 107.67 58.7353L105.798 66.0582C105.56 66.9854 105.586 67.7277 105.873 68.2851C106.167 68.8441 106.74 69.2324 107.591 69.4502L109.105 69.8374C109.956 70.0552 110.642 69.9886 111.162 69.6377C111.688 69.2884 112.07 68.6502 112.307 67.723L114.18 60.4001C114.243 60.1541 114.382 59.9646 114.597 59.8316C114.819 59.7001 115.053 59.6659 115.299 59.7288L117.059 60.1788C117.317 60.245 117.512 60.3889 117.644 60.6107C117.775 60.8325 117.809 61.0664 117.746 61.3124L115.878 68.6163C115.436 70.3446 114.586 71.555 113.327 72.2477C112.069 72.9341 110.466 73.0281 108.517 72.5296L106.814 72.0941C104.859 71.594 103.494 70.741 102.721 69.5352C101.955 68.3247 101.794 66.8553 102.236 65.1271ZM117.246 73.754L120.258 61.9749C120.324 61.7163 120.468 61.5213 120.69 61.3899C120.912 61.2584 121.146 61.2242 121.392 61.2871L126.681 62.6397C129.418 63.3398 131.268 64.3975 132.229 65.8128C133.199 67.2234 133.385 69.0987 132.786 71.4387C132.19 73.7725 131.127 75.3252 129.599 76.097C128.078 76.8704 125.948 76.907 123.211 76.2069L117.922 74.8543C117.676 74.7914 117.486 74.6553 117.351 74.4462C117.218 74.2307 117.183 74 117.246 73.754ZM121.275 72.8592L123.791 73.5028C125.488 73.9367 126.721 73.9229 127.491 73.4612C128.261 72.9996 128.837 72.0213 129.22 70.5265C129.604 69.0253 129.569 67.8874 129.115 67.1128C128.663 66.3319 127.588 65.7245 125.892 65.2906L123.375 64.6469L121.275 72.8592ZM132.445 77.6212L132.798 76.2398C133.003 75.4388 133.345 74.7869 133.823 74.2842C134.307 73.7831 134.85 73.4316 135.453 73.2296C136.056 73.0276 136.703 72.8874 137.395 72.809C138.087 72.7306 138.767 72.6996 139.435 72.7158C140.111 72.7274 140.727 72.7236 141.283 72.7045C142.546 72.6513 143.261 72.2999 143.427 71.6502C143.608 70.9438 143.548 70.4145 143.249 70.0624C142.949 69.7102 142.364 69.4228 141.493 69.2002L140.822 69.0284C139.604 68.717 138.704 68.9001 138.121 69.5775C137.686 70.0978 137.184 70.2854 136.616 70.1402L135.49 69.8522C135.181 69.7732 134.97 69.6015 134.856 69.3372C134.742 69.0729 134.718 68.8114 134.785 68.5528C134.968 67.8338 135.408 67.2574 136.104 66.8238C136.807 66.3855 137.606 66.1261 138.5 66.0457C139.394 65.9652 140.286 66.0387 141.175 66.2662L142.453 66.5929C145.222 67.301 146.778 68.519 147.123 70.2467C147.258 70.9265 147.223 71.6668 147.018 72.4679C146.813 73.2689 146.475 73.9082 146.004 74.3856C145.532 74.8631 144.995 75.2029 144.392 75.4049C143.791 75.6006 143.141 75.7368 142.443 75.8136C141.751 75.8919 141.069 75.9293 140.398 75.9257C139.729 75.9157 139.118 75.914 138.565 75.9205C137.302 75.9468 136.603 76.2217 136.469 76.7452L144.322 78.7536C144.581 78.8198 144.772 78.9629 144.898 79.1831C145.029 79.4049 145.063 79.6387 145 79.8847L144.773 80.7741C144.71 81.0201 144.564 81.208 144.336 81.3378C144.116 81.4629 143.883 81.494 143.637 81.4311L133.135 78.7452C132.889 78.6823 132.697 78.5423 132.557 78.3252C132.42 78.1018 132.382 77.8671 132.445 77.6212ZM146.674 78.2666C146.771 77.8881 146.95 77.6483 147.211 77.5471C147.474 77.4395 147.709 77.4124 147.917 77.4656L149.034 77.7512C149.62 77.9012 149.989 78.3785 150.139 79.183C150.29 79.9875 150.967 80.5439 152.172 80.852L153.525 81.198C154.301 81.3964 154.896 81.4312 155.312 81.3024C155.728 81.1736 156.004 80.8443 156.14 80.3145C156.275 79.7847 156.191 79.3634 155.888 79.0507C155.585 78.738 155.046 78.4824 154.27 78.284L152.567 77.8484C152.321 77.7855 152.131 77.6463 151.998 77.4309C151.867 77.2091 151.833 76.9752 151.896 76.7292L152.094 75.9534C152.154 75.72 152.291 75.5368 152.507 75.4038C152.724 75.2644 152.949 75.2246 153.182 75.2843L154.573 75.64C155.412 75.8545 156.049 75.8998 156.484 75.7758C156.925 75.6535 157.214 75.3274 157.349 74.7976C157.485 74.2677 157.387 73.8464 157.057 73.5336C156.735 73.216 156.155 72.95 155.316 72.7354L154.616 72.5563C153.405 72.2466 152.505 72.4297 151.915 73.1055C151.48 73.6258 150.978 73.8133 150.411 73.6681L149.285 73.3802C148.982 73.3028 148.774 73.1319 148.66 72.8676C148.546 72.6033 148.522 72.3418 148.588 72.0832C148.772 71.3641 149.212 70.7878 149.907 70.3542C150.605 69.9142 151.4 69.6541 152.294 69.5736C153.189 69.4932 154.08 69.5667 154.97 69.7942L156.275 70.1281C160.072 71.0992 161.618 72.9661 160.911 75.7287C160.616 76.883 159.952 77.6776 158.92 78.1126C159.751 78.9903 160.013 80.0283 159.706 81.2267C159.334 82.6837 158.598 83.6177 157.498 84.0286C156.406 84.4348 154.965 84.4089 153.173 83.9507L151.158 83.4353C149.745 83.074 148.573 82.4044 147.64 81.4267C146.709 80.4427 146.387 79.3893 146.674 78.2666Z" fill="#2F2E41"/>
<path d="M121.503 93.2071L123.913 83.7839C123.964 83.5871 124.075 83.4355 124.247 83.329C124.42 83.2226 124.604 83.1946 124.801 83.2449L127.026 83.814C127.203 83.8592 127.372 83.9776 127.532 84.1692C127.693 84.3608 127.811 84.5711 127.887 84.8002L130.66 93.0009L132.463 85.9543C132.513 85.7575 132.624 85.6084 132.795 85.507C132.971 85.4069 133.157 85.382 133.354 85.4323L134.656 85.7653C134.853 85.8156 135.002 85.9263 135.103 86.0974C135.21 86.2698 135.236 86.4594 135.183 86.6663L132.773 96.0893C132.723 96.2863 132.609 96.4373 132.432 96.5423C132.261 96.6443 132.077 96.6693 131.88 96.6193L129.367 95.9763C129.17 95.9263 128.986 95.8063 128.814 95.6173C128.643 95.4233 128.522 95.2123 128.452 94.9843L125.927 87.4196L124.266 93.9137C124.216 94.1105 124.102 94.2615 123.924 94.3666C123.753 94.468 123.569 94.4936 123.373 94.4432L122.04 94.1025C121.844 94.0522 121.692 93.9408 121.586 93.7685C121.48 93.591 121.453 93.4039 121.503 93.2071ZM135.564 96.5613C134.963 95.6333 134.843 94.463 135.204 93.0501C135.566 91.6322 136.234 90.6631 137.205 90.1429C138.178 89.6176 139.402 89.5434 140.875 89.9202C142.353 90.2983 143.393 90.9513 143.995 91.8793C144.597 92.8022 144.717 93.9726 144.355 95.3903C143.993 96.8033 143.326 97.7723 142.353 98.2973C141.38 98.8233 140.154 98.8963 138.676 98.5183C137.203 98.1413 136.165 97.4893 135.564 96.5613ZM138.803 91.8739C138.385 92.2026 138.062 92.8161 137.832 93.7142C137.602 94.6123 137.591 95.3083 137.798 95.8023C138.005 96.2963 138.444 96.6283 139.115 96.8003C139.792 96.9733 140.339 96.8933 140.758 96.5593C141.181 96.2263 141.508 95.6113 141.738 94.7133C141.967 93.8149 141.976 93.1208 141.762 92.6308C141.554 92.1421 141.112 91.8113 140.436 91.6383C139.764 91.4667 139.22 91.5452 138.803 91.8739ZM146.278 91.4634L147.732 91.8351C147.948 91.8906 148.137 92.0059 148.296 92.1811C148.457 92.3512 148.553 92.545 148.583 92.7625L149.443 98.0063L152.708 93.8175C152.839 93.6413 153.016 93.5172 153.239 93.4452C153.463 93.368 153.683 93.3572 153.9 93.4127L155.361 93.7863C155.538 93.8315 155.637 93.9268 155.659 94.0722C155.671 94.1291 155.664 94.1973 155.639 94.2767C155.619 94.3524 155.573 94.4374 155.501 94.5318L150.45 100.659C150.309 100.832 150.124 100.957 149.895 101.033C149.672 101.105 149.457 101.114 149.251 101.061L148.138 100.777C147.931 100.724 147.747 100.612 147.586 100.442C147.427 100.267 147.327 100.069 147.286 99.8493L145.798 92.0501C145.776 91.9262 145.774 91.8264 145.794 91.7507C145.859 91.4933 146.021 91.3976 146.278 91.4634ZM161.425 95.4263C161.386 95.3243 161.382 95.2163 161.412 95.1003C161.441 94.9843 161.557 94.8763 161.76 94.7783L164.013 93.6607C164.342 93.492 164.743 93.4657 165.219 93.582L166.332 93.8665C166.539 93.9194 166.695 94.0346 166.8 94.212C166.905 94.3894 166.932 94.5766 166.882 94.7733L164.472 104.196C164.422 104.393 164.305 104.543 164.123 104.647C163.941 104.746 163.752 104.77 163.556 104.72L162.148 104.36C161.951 104.31 161.799 104.201 161.691 104.033C161.59 103.862 161.564 103.678 161.615 103.482L163.486 96.1633L162.453 96.5763C162.334 96.6213 162.213 96.6143 162.088 96.5553C161.963 96.4963 161.872 96.4113 161.814 96.2993L161.425 95.4263Z" fill="#2F2E41"/>
</g>
<path d="M93.496 81.3743C92.913 81.0799 91.917 80.9284 91.273 81.0331L68.747 84.7168C68.102 84.8229 67.821 85.3803 68.119 85.9609L74.132 97.6855C74.431 98.2675 75.195 98.8185 75.841 98.9185L102.749 103.043C103.395 103.142 104.293 102.845 104.753 102.38L114.063 93.002C114.525 92.5376 114.428 91.9225 113.845 91.6282L93.496 81.3743Z" fill="#66B8B8"/>
<path d="M58.3641 71.7881C56.9091 72.7307 55.3617 73.2666 53.9668 73.3939L40.6727 83.2497L36.168 76.7866L50.1385 67.4848C50.8248 66.2637 51.9463 65.0705 53.4014 64.1278C56.7255 61.9743 60.5311 61.9433 61.9015 64.0586C63.2719 66.1739 61.6882 69.6345 58.3641 71.7881Z" fill="#FFB6B6"/>
<path d="M27.2242 48.7891C27.2242 48.7891 17.0537 47.659 15.3587 51.6142C13.6636 55.5694 10.2734 95.1211 10.2734 95.1211L15.9237 104.727L52.9773 76.6831L45.4736 69.1794L29.5933 76.6831L27.2242 48.7891Z" fill="#CBCBCB"/>
</g>
<defs>
<clipPath id="clip0_2937_146">
<rect width="129.422" height="73.4595" fill="white" transform="translate(67.3613 36.249) rotate(14.2685)"/>
</clipPath>
</defs>
</svg>
