<svg width="316" height="150" viewBox="0 0 316 150" fill="none" xmlns="http://www.w3.org/2000/svg">
<g clip-path="url(#clip0_2327_1156)">
<path d="M273.915 53.7354H246.574V10.1064L273.915 18.8322V53.7354Z" fill="#2F2E41"/>
<path d="M275.66 101.437L239.593 122.96L231.449 156.118L235.521 258.501H253.38L257.336 159.899L265.253 258.501H283.392L287.979 147.775C289.243 139.728 288.246 131.489 285.099 123.975L275.66 101.437Z" fill="#2F2E41"/>
<path d="M267.521 35.7025L252.396 34.5391L248.324 42.6831L236.69 45.5917L233.781 81.6583C239.535 96.6075 243.147 110.893 239.598 122.96L283.809 120.633L276.428 100.674C276.428 100.674 276.247 93.2927 280.319 83.4034C284.391 73.5142 277.992 47.9186 277.992 47.9186L268.684 45.5917L267.521 35.7025Z" fill="#71B8B8"/>
<path d="M165.676 49.7315C167.149 49.7772 168.51 49.4864 169.58 48.9655L183.582 50.2864L184.016 43.6052L169.765 42.9846C168.729 42.3984 167.389 42.0239 165.916 41.9783C162.552 41.8741 159.771 43.5252 159.704 45.6662C159.638 47.8072 162.312 49.6273 165.676 49.7315Z" fill="#A0616A"/>
<path d="M248.506 70.1281C248.506 70.1281 248.012 48.8439 243.343 45.6493C241.418 44.3318 211.816 44.0325 210.737 43.9207C204.087 43.2315 199.354 40.5911 193.755 40.3017C180.108 39.5964 173.209 42.9079 173.209 42.9079L172.969 49.7413L248.506 70.1281Z" fill="#71B8B8"/>
<path d="M258.667 33.9868C265.337 33.9868 270.744 28.5798 270.744 21.9099C270.744 15.24 265.337 9.83301 258.667 9.83301C251.997 9.83301 246.59 15.24 246.59 21.9099C246.59 28.5798 251.997 33.9868 258.667 33.9868Z" fill="#A0616A"/>
<path d="M255.006 3.92712C252.408 5.56459 250.506 4.39225 248.65 5.21809C245.025 6.83161 238.905 18.1644 239.457 22.909C240.238 29.6286 242.708 29.9053 242.635 34.7263C242.516 42.4678 241.901 42.4357 243.486 45.1388C245.25 48.1452 255.237 47.3289 257.091 43.252C257.457 42.4476 253.394 42.764 248.905 32.2118C246.652 26.9168 248.131 22.0917 248.905 19.9957C249.086 19.505 249.169 16.0212 249.555 16.4078C252.945 19.798 254.846 17.3198 256.893 17.0354C261.094 16.4517 264.258 19.8411 265.532 18.6243C266.481 17.7188 265.271 15.3248 265.731 15.1486C266.221 14.9607 267.845 17.5871 268.909 20.4118C269.594 22.2334 269.937 23.1442 269.902 24.1854C269.792 27.4008 268.972 36.5175 267.52 39.1925C264.382 44.9691 268.333 47.1488 270.795 46.7277C272.785 46.3874 281.581 47.7269 282.063 46.7548C282.491 45.8888 281.512 36.9806 280.482 28.6989C279.245 18.7448 274.286 9.59748 266.51 3.26084C266.054 2.88924 265.714 2.63428 265.532 2.53686C265.102 2.30612 260.661 0.000380266 257.389 1.84173C256.185 2.5196 256.381 3.06039 255.006 3.92712Z" fill="#2F2E41"/>
<path d="M227.126 138.437L125.332 112.538C118.825 110.883 114.878 104.242 116.534 97.7347L129.197 47.9611C130.853 41.454 137.494 37.507 144.001 39.1625L245.795 65.0615C252.302 66.7171 256.249 73.358 254.593 79.8651L241.929 129.639C240.274 136.146 233.633 140.093 227.126 138.437Z" fill="white"/>
<path d="M227.127 138.437L125.333 112.538C122.079 111.711 119.466 109.636 117.599 106.886C114.883 102.885 114.174 97.847 115.366 93.16L125.986 51.4214C127.178 46.7344 130.208 42.6479 134.507 40.4313C137.461 38.9077 140.748 38.3349 144.002 39.1626L245.795 65.0617C252.313 66.7199 256.252 73.3477 254.594 79.8652L241.93 129.639C240.275 136.146 233.634 140.093 227.127 138.437ZM143.723 40.2578C137.81 38.7535 139.356 44.1084 137.851 50.0211C130.512 78.8681 145.692 108.692 173.34 119.721C188.264 125.675 200.677 130.542 200.677 130.542C221.352 135.802 242.375 123.306 247.635 102.632L253.499 79.5865C255.003 73.6739 251.429 67.6612 245.517 66.1568L143.723 40.2578Z" fill="#3F3D56"/>
<path d="M237.535 61.5693C238.744 62.8124 240.133 63.6794 241.465 64.1141L252.23 76.6831L258.061 71.3855L246.513 59.206C246.116 57.8627 245.288 56.4498 244.08 55.2067C241.319 52.367 237.615 51.4893 235.808 53.2463C234.001 55.0033 234.775 58.7296 237.535 61.5693Z" fill="#A0616A"/>
<path d="M273.014 46.082C273.014 46.082 283.18 47.2453 283.952 51.4787C284.724 55.712 279.221 95.0255 279.221 95.0255L271.573 103.131L241.695 67.5403L250.682 61.8961L264.492 72.7479L273.014 46.082Z" fill="#71B8B8"/>
<path d="M154.827 84.3128C154.244 84.0184 153.248 83.8669 152.604 83.9716L130.078 87.6553C129.433 87.7614 129.152 88.3188 129.45 88.8994L135.463 100.624C135.762 101.206 136.526 101.757 137.172 101.857L164.08 105.981C164.726 106.08 165.624 105.783 166.084 105.318L175.394 95.9405C175.856 95.4761 175.759 94.861 175.176 94.5667L154.827 84.3128Z" fill="#66B8B8"/>
<path d="M143.778 58.3392C143.769 58.2722 143.774 58.2009 143.793 58.1252C143.814 58.0444 143.88 57.9646 143.991 57.8856C144.109 57.8029 144.256 57.7841 144.433 57.8293L146.091 58.2532C146.287 58.3035 146.452 58.4181 146.583 58.5969C146.715 58.7758 146.79 58.9776 146.807 59.2026L147.272 65.7082L150.652 60.186C150.921 59.744 151.283 59.5811 151.737 59.6973L153.13 60.0535C153.584 60.1696 153.823 60.4861 153.846 61.0029L154.16 67.4698L157.691 61.9862C157.815 61.7974 157.977 61.6562 158.179 61.5625C158.38 61.4689 158.579 61.4472 158.776 61.4976L160.434 61.9215C160.605 61.9654 160.72 62.0513 160.779 62.1792C160.844 62.3033 160.866 62.4058 160.846 62.4865C160.826 62.5622 160.799 62.6277 160.763 62.6831L154.971 71.2657C154.653 71.7326 154.224 71.8971 153.684 71.759L152.587 71.4783C152.027 71.335 151.732 70.9854 151.702 70.4295L151.345 64.1291L148.008 69.4848C147.71 69.9569 147.283 70.122 146.728 69.98L145.623 69.6974C145.088 69.5606 144.793 69.211 144.738 68.6485L143.778 58.3392ZM159.561 72.6813C159.013 72.0468 158.848 71.3056 159.065 70.4579C159.282 69.6102 159.781 69.0445 160.563 68.7607C161.351 68.4782 162.272 68.4718 163.326 68.7415L165.831 69.3823C165.982 68.7919 165.964 68.349 165.776 68.0537C165.588 67.7583 165.184 67.5313 164.563 67.3725C163.948 67.2151 163.474 67.258 163.143 67.5013C162.819 67.7408 162.475 67.8141 162.111 67.7212L160.984 67.4328C160.847 67.3979 160.745 67.326 160.676 67.217C160.613 67.1042 160.599 66.9822 160.632 66.851C161.003 65.4029 162.563 65.0304 165.313 65.7338C166.514 66.0409 167.409 66.5574 167.997 67.2831C168.587 68.0038 168.738 68.9268 168.45 70.052L167.252 74.7372C167.217 74.8734 167.146 74.9734 167.038 75.0373C166.931 75.1011 166.809 75.1156 166.672 75.0808L165.211 74.7072C165.075 74.6723 164.975 74.6011 164.911 74.4933C164.849 74.3806 164.834 74.2586 164.868 74.1274L164.928 73.8928C163.985 74.259 162.992 74.3061 161.948 74.0339C160.909 73.7681 160.113 73.3172 159.561 72.6813ZM163.068 70.5061C162.715 70.4158 162.413 70.4299 162.162 70.5486C161.917 70.6685 161.759 70.8647 161.689 71.1372C161.62 71.4097 161.668 71.6613 161.835 71.8921C162.002 72.1229 162.279 72.288 162.668 72.3874C163.445 72.5861 164.252 72.5507 165.09 72.2811L165.392 71.1004L163.068 70.5061ZM170.069 69.5549C170.486 67.925 172.009 67.4463 174.638 68.1187C177.403 68.8259 178.601 69.9036 178.23 71.3517C178.197 71.4829 178.125 71.583 178.016 71.6519C177.909 71.7157 177.787 71.7302 177.65 71.6954L176.523 71.4069C176.159 71.314 175.893 71.0846 175.723 70.7186C175.554 70.3475 175.107 70.0691 174.38 69.8833C173.381 69.6277 172.82 69.7422 172.696 70.2266C172.638 70.4537 172.784 70.6926 173.133 70.9433C173.488 71.1953 173.931 71.451 174.461 71.7103C174.998 71.9659 175.524 72.2536 176.039 72.5734C176.554 72.8933 176.956 73.2972 177.245 73.7851C177.54 74.2692 177.613 74.8065 177.462 75.3969C177.045 77.0267 175.449 77.4867 172.674 76.7769C169.898 76.0671 168.695 74.9907 169.064 73.5475C169.099 73.4113 169.17 73.3113 169.278 73.2474C169.392 73.1798 169.517 73.1634 169.654 73.1983L170.781 73.4867C171.145 73.5796 171.411 73.8116 171.579 74.1827C171.749 74.5486 172.197 74.8246 172.924 75.0104C174.079 75.3059 174.719 75.2115 174.843 74.7271C174.901 74.5 174.753 74.2605 174.398 74.0084C174.048 73.7577 173.605 73.502 173.07 73.2414C172.536 72.9758 172.01 72.6855 171.494 72.3707C170.984 72.0522 170.582 71.6483 170.288 71.1591C169.994 70.6699 169.921 70.1352 170.069 69.5549ZM178.401 77.5886L180.939 67.6658C180.974 67.5295 181.045 67.4295 181.153 67.3657C181.267 67.2981 181.389 67.281 181.521 67.3146L183.216 67.7482C183.347 67.7818 183.444 67.8549 183.507 67.9677C183.575 68.0767 183.593 68.1993 183.558 68.3356L182.781 71.3707C183.836 70.861 184.853 70.7313 185.832 70.9817C186.816 71.2333 187.539 71.7381 188.001 72.496C188.465 73.2489 188.539 74.2409 188.224 75.4721L187.113 79.8167C187.079 79.9479 187.005 80.0473 186.891 80.1149C186.784 80.1787 186.662 80.1932 186.525 80.1583L184.838 79.7267C184.706 79.6931 184.606 79.6218 184.537 79.5128C184.475 79.4001 184.46 79.2781 184.494 79.1469L185.605 74.8023C185.914 73.5964 185.586 72.8701 184.622 72.6237C183.991 72.4623 183.223 72.6502 182.317 73.1872L181.02 78.2584C180.986 78.3896 180.912 78.4889 180.798 78.5565C180.691 78.6204 180.571 78.6355 180.44 78.602L178.745 78.1684C178.613 78.1348 178.513 78.0635 178.445 77.9545C178.382 77.8418 178.367 77.7198 178.401 77.5886ZM191.39 70.8791L191.456 70.6218C191.525 70.3543 191.655 70.1618 191.846 70.0441C192.042 69.9276 192.277 69.9043 192.549 69.974L193.488 70.214C193.755 70.2824 193.947 70.4148 194.064 70.6113C194.181 70.8026 194.205 71.0346 194.136 71.307L194.07 71.5644C194.001 71.8318 193.869 72.0237 193.673 72.1402C193.481 72.2579 193.249 72.2819 192.977 72.2122L192.038 71.9722C191.771 71.9038 191.579 71.7713 191.462 71.5749C191.346 71.3785 191.322 71.1466 191.39 70.8791ZM189.013 80.3025L190.85 73.1197C190.884 72.9834 190.956 72.8834 191.063 72.8196C191.176 72.757 191.298 72.7425 191.429 72.7761L193.125 73.2097C193.261 73.2445 193.36 73.3183 193.423 73.4311C193.487 73.5388 193.502 73.6583 193.468 73.7895L191.631 80.9723C191.597 81.1086 191.523 81.208 191.41 81.2705C191.302 81.3344 191.183 81.3495 191.052 81.3159L189.356 80.8823C189.22 80.8475 189.12 80.7762 189.056 80.6685C188.992 80.5608 188.978 80.4388 189.013 80.3025ZM193.524 81.4563L195.407 74.0918C195.442 73.9555 195.513 73.8555 195.621 73.7916C195.735 73.724 195.858 73.707 195.989 73.7406L197.684 74.1742C197.815 74.2077 197.912 74.2809 197.975 74.3937C198.044 74.5027 198.061 74.6253 198.026 74.7615L197.904 75.2384C198.959 74.7287 199.976 74.599 200.955 74.8494C201.939 75.101 202.662 75.6058 203.124 76.3637C203.587 77.1166 203.661 78.1086 203.347 79.3398L202.235 83.6844C202.202 83.8156 202.128 83.9149 202.014 83.9825C201.906 84.0464 201.784 84.0609 201.648 84.026L199.96 83.5944C199.829 83.5608 199.729 83.4895 199.66 83.3805C199.598 83.2678 199.583 83.1458 199.617 83.0146L200.728 78.67C201.036 77.4641 200.708 76.7378 199.745 76.4913C199.114 76.33 198.346 76.5179 197.439 77.0549L196.142 82.1261C196.109 82.2572 196.035 82.3566 195.921 82.4242C195.813 82.4881 195.694 82.5032 195.563 82.4697L193.867 82.0361C193.736 82.0025 193.636 81.9312 193.567 81.8222C193.505 81.7094 193.49 81.5875 193.524 81.4563ZM207.51 84.8479C206.365 84.555 205.527 83.9725 204.997 83.1005C204.473 82.2299 204.367 81.1814 204.681 79.9553C204.995 78.7291 205.64 77.8755 206.618 77.3945C207.596 76.9134 208.834 76.8645 210.333 77.2478C211.064 77.4349 211.803 77.7124 212.547 78.0803C213.293 78.4431 213.835 78.794 214.173 79.1331L212.38 86.1419C212.093 87.2671 211.509 88.0023 210.631 88.3475C209.751 88.6977 208.64 88.7012 207.298 88.3579C205.961 88.0159 204.972 87.5829 204.332 87.059C203.695 86.5415 203.476 85.8967 203.673 85.1246C203.708 84.9884 203.78 84.8858 203.889 84.8169C204.002 84.7544 204.126 84.7405 204.263 84.7754L205.39 85.0638C205.754 85.1567 206.01 85.3647 206.158 85.6876C206.348 86.1017 206.796 86.3991 207.503 86.5797C208.214 86.7617 208.731 86.7702 209.052 86.6052C209.374 86.4402 209.611 86.0625 209.762 85.4721L209.852 85.1164C208.992 85.1168 208.211 85.0273 207.51 84.8479ZM209.705 79.0388C208.511 78.7279 207.736 79.2663 207.381 80.6539C207.028 82.0365 207.434 82.8769 208.599 83.175C209.084 83.2989 209.65 83.3632 210.3 83.368L211.26 79.6138C210.856 79.3868 210.337 79.1951 209.705 79.0388ZM218.47 86.5784L219.53 86.7528L219.81 86.8244C219.946 86.8593 220.046 86.9306 220.11 87.0383C220.179 87.1473 220.196 87.2699 220.161 87.4062L219.954 88.216C219.926 88.327 219.855 88.4163 219.74 88.4839C219.633 88.5478 219.508 88.5724 219.367 88.5577C218.826 88.527 218.142 88.4058 217.315 88.1942C215.145 87.6392 214.351 86.2265 214.931 83.9558L216.755 76.8259C216.79 76.6897 216.861 76.5896 216.969 76.5258C217.083 76.4582 217.205 76.4412 217.336 76.4747L219.032 76.9083C219.163 76.9419 219.26 77.015 219.323 77.1278C219.391 77.2368 219.408 77.3594 219.374 77.4957L218.727 80.0237L220.839 80.5638C220.97 80.5973 221.067 80.668 221.131 80.7757C221.2 80.8847 221.217 81.0073 221.182 81.1436L220.952 82.0443C220.917 82.1805 220.843 82.2799 220.731 82.3424C220.623 82.4063 220.503 82.4214 220.372 82.3879L218.261 81.8478L217.55 84.6256C217.418 85.1403 217.438 85.5699 217.608 85.9144C217.779 86.2538 218.066 86.4752 218.47 86.5784ZM221.953 88.2193C221.352 87.2913 221.232 86.1209 221.593 84.7081C221.956 83.2902 222.623 82.3211 223.595 81.8009C224.568 81.2756 225.791 81.2013 227.264 81.5782C228.743 81.9563 229.783 82.6093 230.384 83.5373C230.987 84.4601 231.107 85.6305 230.744 87.0484C230.383 88.4613 229.715 89.4304 228.742 89.9557C227.769 90.481 226.544 90.5545 225.065 90.1764C223.592 89.7996 222.555 89.1472 221.953 88.2193ZM225.192 83.5319C224.775 83.8606 224.451 84.4741 224.222 85.3722C223.992 86.2704 223.98 86.9664 224.188 87.4602C224.395 87.9539 224.834 88.2866 225.505 88.4583C226.181 88.6312 226.728 88.5508 227.147 88.217C227.571 87.8846 227.897 87.2693 228.127 86.3711C228.357 85.4729 228.365 84.7788 228.152 84.2888C227.943 83.8001 227.501 83.4692 226.825 83.2963C226.154 83.1247 225.61 83.2032 225.192 83.5319ZM231.202 91.0926L233.085 83.7281C233.12 83.5918 233.191 83.4918 233.299 83.428C233.413 83.3604 233.536 83.3433 233.667 83.3769L235.362 83.8105C235.493 83.8441 235.59 83.9172 235.653 84.03C235.722 84.139 235.739 84.2616 235.704 84.3979L235.582 84.8747C236.637 84.365 237.654 84.2354 238.633 84.4857C239.617 84.7374 240.34 85.2421 240.802 86.0001C241.265 86.7529 241.339 87.745 241.024 88.9762L239.913 93.3207C239.88 93.4519 239.806 93.5513 239.692 93.6189C239.584 93.6827 239.462 93.6972 239.326 93.6624L237.638 93.2307C237.507 93.1971 237.407 93.1259 237.338 93.0168C237.275 92.9041 237.261 92.7821 237.294 92.6509L238.406 88.3064C238.714 87.1004 238.386 86.3742 237.423 86.1277C236.792 85.9664 236.023 86.1542 235.117 86.6912L233.82 91.7624C233.787 91.8936 233.713 91.993 233.599 92.0606C233.491 92.1244 233.372 92.1396 233.241 92.106L231.545 91.6724C231.414 91.6388 231.314 91.5676 231.245 91.4585C231.182 91.3458 231.168 91.2238 231.202 91.0926ZM211.592 106.471L214.002 97.0479C214.055 96.841 214.17 96.685 214.348 96.5798C214.525 96.4747 214.712 96.4473 214.909 96.4976L219.14 97.5797C221.33 98.1398 222.81 98.9859 223.579 100.118C224.355 101.247 224.503 102.747 224.025 104.619C223.547 106.486 222.697 107.728 221.475 108.346C220.258 108.964 218.554 108.994 216.364 108.433L212.133 107.351C211.936 107.301 211.784 107.192 211.676 107.025C211.57 106.853 211.542 106.668 211.592 106.471ZM214.815 105.755L216.829 106.27C218.186 106.617 219.173 106.606 219.788 106.237C220.404 105.868 220.865 105.085 221.171 103.889C221.478 102.688 221.45 101.778 221.087 101.158C220.726 100.533 219.866 100.048 218.509 99.7004L216.495 99.1855L214.815 105.755ZM225.297 109.355C224.592 108.223 224.478 106.724 224.956 104.857C225.434 102.985 226.255 101.722 227.417 101.067C228.585 100.409 230.105 100.32 231.977 100.798L233.665 101.23C234.81 101.523 235.746 102.079 236.472 102.899C237.202 103.721 237.435 104.649 237.171 105.683C237.095 105.981 236.952 106.173 236.741 106.259C236.533 106.34 236.345 106.359 236.178 106.316L235.278 106.086C234.813 105.967 234.524 105.597 234.408 104.976C234.239 104.084 233.72 103.526 232.852 103.304L231.505 102.96C230.4 102.677 229.59 102.723 229.075 103.096C228.56 103.47 228.139 104.298 227.811 105.579C227.483 106.861 227.455 107.792 227.726 108.372C227.998 108.947 228.687 109.376 229.792 109.658L231.298 110.043C232.166 110.265 232.886 110.025 233.458 109.322C233.859 108.827 234.294 108.64 234.763 108.76L235.664 108.991C235.901 109.051 236.065 109.187 236.156 109.399C236.252 109.612 236.274 109.821 236.221 110.028C235.956 111.063 235.309 111.765 234.279 112.136C233.25 112.502 232.162 112.539 231.017 112.246L229.17 111.773C227.298 111.294 226.007 110.488 225.297 109.355Z" fill="#2F2E41"/>
<path d="M165 149C165 149.555 165.384 150 165.863 150H643.137C643.616 150 644 149.555 644 149C644 148.445 643.616 148 643.137 148H165.863C165.384 148 165 148.445 165 149Z" fill="#CCCCCC"/>
</g>
<defs>
<clipPath id="clip0_2327_1156">
<rect width="315.405" height="150" fill="white"/>
</clipPath>
</defs>
</svg>
