<svg width="147" height="217" viewBox="0 0 147 217" fill="none" xmlns="http://www.w3.org/2000/svg">
<g clip-path="url(#clip0_3736_656)">
<path d="M34.3772 208.579C34.4461 211.151 34.8767 213.699 35.6563 216.15C35.6735 216.207 35.6927 216.263 35.7114 216.32H40.484C40.479 216.269 40.4738 216.212 40.4688 216.15C40.1506 212.49 41.9686 190.481 44.1622 186.672C43.97 186.981 34.0072 196.95 34.3772 208.579Z" fill="#E6E6E6"/>
<path d="M34.7358 216.15C34.7757 216.207 34.8172 216.264 34.8597 216.32H38.4403C38.4131 216.272 38.3817 216.215 38.3452 216.15C37.7538 215.083 36.0031 211.89 34.378 208.58C32.6323 205.022 31.0294 201.33 31.1644 199.994C31.1226 200.295 29.9141 209.483 34.7358 216.15Z" fill="#E6E6E6"/>
<path d="M53.3918 84.7254L52.8525 74.606L47.4094 70.1816L44.256 79.5523L26.6194 103.084C25.7856 103.218 25.0075 103.588 24.3772 104.15C23.7468 104.712 23.2907 105.443 23.0626 106.257C22.8346 107.07 22.8443 107.932 23.0904 108.74C23.3366 109.548 23.8091 110.269 24.4518 110.817C25.0946 111.365 25.8808 111.717 26.7174 111.832C27.554 111.947 28.406 111.819 29.1726 111.465C29.9392 111.111 30.5883 110.544 31.0431 109.832C31.4979 109.121 31.7394 108.293 31.739 107.448C31.739 107.389 31.7324 107.331 31.7301 107.272L53.3918 84.7254Z" fill="#FFB7B7"/>
<path d="M63.8736 212.264L59.7031 212.264L57.7188 196.17L63.8742 196.17L63.8736 212.264Z" fill="#FFB7B7"/>
<path d="M64.9365 216.308L51.4883 216.307V216.137C51.4884 214.748 52.0399 213.416 53.0215 212.434C54.0031 211.452 55.3345 210.9 56.7227 210.9L64.9367 210.901L64.9365 216.308Z" fill="#2F2E41"/>
<path d="M83.2642 212.264L79.0937 212.264L77.1094 196.17L83.2649 196.17L83.2642 212.264Z" fill="#FFB7B7"/>
<path d="M84.3271 216.308L70.8789 216.307V216.137C70.879 214.748 71.4305 213.416 72.4121 212.434C73.3938 211.452 74.7251 210.9 76.1133 210.9L84.3273 210.901L84.3271 216.308Z" fill="#2F2E41"/>
<path d="M78.8549 42.4513C80.6207 35.1575 82.1166 26.9308 78.7865 20.213C76.4759 15.5519 67.9281 13.9823 63.0282 15.6615C58.1282 17.3407 54.5855 21.8965 53.0275 26.8638C51.4694 31.8311 51.6505 37.1837 52.3295 42.3475C61.3412 42.1743 70.3529 42.0011 78.8549 42.4513Z" fill="#2F2E41"/>
<path d="M68.6886 41.1625C73.7811 38.3775 75.6527 31.9898 72.8688 26.8952C70.085 21.8006 63.7 19.9283 58.6075 22.7132C53.515 25.4982 51.6434 31.8859 54.4273 36.9805C57.2111 42.0751 63.5961 43.9474 68.6886 41.1625Z" fill="#FFB8B8"/>
<path d="M76.4975 29.7724C76.5309 28.003 76.2084 26.2449 75.5493 24.6027C74.8901 22.9605 73.9078 21.4675 72.6605 20.2126C71.4132 18.9577 69.9265 17.9663 68.2887 17.2976C66.651 16.6288 64.8955 16.2962 63.1267 16.3195C61.3579 16.3428 59.6118 16.7216 57.9923 17.4334C56.3727 18.1451 54.9126 19.1753 53.6988 20.4627C52.4851 21.75 51.5424 23.2684 50.9267 24.9274C50.3111 26.5865 50.0351 28.3524 50.1151 30.1203C59.1096 30.1394 68.1042 30.1585 76.4975 29.7724Z" fill="#2F2E41"/>
<path d="M46.7729 95.2755C46.7729 95.2755 45.0628 120.124 45.9908 127.704C46.9189 135.284 57.0232 201.551 57.0232 201.551L64.6451 201.538L66.9079 123.446L75.921 202.297L83.8032 201.477L88.2746 124.346C88.2746 124.346 87.5735 95.4698 81.8746 92.5742L46.7729 95.2755Z" fill="#2F2E41"/>
<path d="M58.731 119.906C53.1326 119.905 47.6153 118.568 42.6362 116.007L42.5273 115.952L46.7402 87.9856L46.4667 54.6553C46.4593 53.7404 46.634 52.8333 46.9807 51.9867C47.3275 51.1402 47.8392 50.3711 48.4862 49.7246C49.1332 49.078 49.9024 48.5668 50.7489 48.2208C51.5955 47.8748 52.5025 47.7009 53.4169 47.7093L76.0231 47.9168C77.024 47.926 78.0123 48.1412 78.9265 48.5489C79.8407 48.9566 80.6613 49.5481 81.3371 50.2867C82.013 51.0253 82.5297 51.8951 82.8551 52.8421C83.1805 53.7891 83.3077 54.7929 83.2287 55.7911L81.1132 82.511L88.1092 104.198L86.8932 105.816C83.6149 110.191 79.3632 113.742 74.475 116.187C69.5868 118.633 64.1964 119.906 58.731 119.906Z" fill="#3F3D56"/>
<path d="M44.1953 76.4651L46.5642 52.2834L47.3255 51.1996C47.847 50.4573 48.51 49.8253 49.2763 49.34C50.0426 48.8547 50.8972 48.5256 51.7909 48.3715C52.6847 48.2175 53.6001 48.2415 54.4846 48.4423C55.369 48.6431 56.2051 49.0167 56.9449 49.5416L57.5974 50.0047L56.9533 74.5108L44.1953 76.4651Z" fill="#3F3D56"/>
<path d="M141.258 194.607C147.382 192.915 149.996 202.218 143.887 203.965C137.764 205.657 135.15 196.353 141.258 194.607Z" fill="#3F3D56"/>
<path d="M107.305 206.58C113.429 204.887 116.043 214.191 109.934 215.937C103.81 217.629 101.197 208.326 107.305 206.58Z" fill="#3F3D56"/>
<path d="M93.566 108.458L93.6606 108.432L109.434 151.274L111.514 150.689L95.6271 107.54C95.5927 106.875 95.332 106.241 94.8883 105.745C94.4445 105.249 93.8444 104.919 93.1876 104.811C85.2991 103.563 82.1016 110.569 82.1016 110.569L82.1331 110.615L98.2599 154.416L100.34 153.831L84.6873 111.319C89.4524 106.604 93.566 108.458 93.566 108.458Z" fill="#3F3D56"/>
<path d="M111.642 208.991C109.391 208.972 107.205 208.234 105.403 206.885C103.601 205.536 102.276 203.647 101.622 201.492C98.6119 191.635 91.5087 168.015 90.5675 161.605C89.3421 153.259 96.2472 150.886 96.401 150.835C96.5869 150.773 99.3631 149.995 103.205 148.919C109.737 147.091 119.607 144.327 119.97 144.164C121.499 143.632 123.122 143.422 124.736 143.547C126.351 143.671 127.922 144.128 129.352 144.889C130.825 145.664 132.125 146.731 133.174 148.025C134.222 149.319 134.996 150.813 135.45 152.415L145.61 188.577C146.237 190.794 146.061 193.161 145.114 195.261C144.166 197.361 142.508 199.058 140.431 200.054C132.592 203.822 121.094 208.848 111.796 208.99C111.745 208.991 111.693 208.991 111.642 208.991Z" fill="#71B8B8"/>
<path d="M91.8876 106.976L86.7801 77.1296L86.2102 67.0566L77.9531 69.7624L84.917 108.845C84.6359 109.605 84.5693 110.429 84.7244 111.225C84.8795 112.02 85.2504 112.758 85.7965 113.358C86.3426 113.957 87.0428 114.394 87.8208 114.622C88.5987 114.85 89.4242 114.86 90.2072 114.65C90.9902 114.44 91.7004 114.019 92.2602 113.432C92.82 112.846 93.2078 112.117 93.3813 111.325C93.5548 110.533 93.5072 109.708 93.2437 108.941C92.9803 108.174 92.5111 107.494 91.8876 106.976Z" fill="#FFB7B7"/>
<path d="M88.1773 75.2583L75.2897 74.5571L72.2617 50.2303L72.5564 49.9746C73.2821 49.3448 74.125 48.8647 75.0367 48.5617C75.9484 48.2587 76.9109 48.1388 77.869 48.2089C78.8271 48.279 79.762 48.5377 80.6199 48.9702C81.4778 49.4027 82.2418 50.0005 82.8682 50.7292L83.4642 51.4228L83.473 51.4667L88.1773 75.2583Z" fill="#3F3D56"/>
<path d="M140.656 194.088L127.484 149.486L96.5093 158.244L96.3242 157.589L127.946 148.648L128.041 148.971L141.309 193.895L140.656 194.088Z" fill="#3F3D56"/>
</g>
<defs>
<clipPath id="clip0_3736_656">
<rect width="147" height="217" fill="white"/>
</clipPath>
</defs>
</svg>
