<svg width="147" height="217" viewBox="0 0 147 217" fill="none" xmlns="http://www.w3.org/2000/svg">
<g clip-path="url(#clip0_3736_612)">
<path d="M6.6487 201.083C6.78424 206.144 7.63171 211.16 9.16614 215.984C9.20016 216.096 9.23793 216.207 9.27467 216.319H18.6685C18.6586 216.218 18.6484 216.106 18.6385 215.984C18.0122 208.781 21.5904 165.461 25.9082 157.963C25.5299 158.571 5.92035 178.194 6.6487 201.083Z" fill="#E6E6E6"/>
<path d="M7.35304 215.986C7.43162 216.098 7.51327 216.209 7.59696 216.32H14.6444C14.591 216.224 14.5291 216.113 14.4573 215.986C13.2932 213.884 9.84735 207.599 6.64884 201.084C3.21287 194.083 0.0579001 186.816 0.323592 184.186C0.241265 184.778 -2.13738 202.862 7.35304 215.986Z" fill="#E6E6E6"/>
<path d="M93.328 61.9941L81.1797 70.6387L88.7388 71.4487L99.2679 62.5353L93.328 61.9941Z" fill="#3F3D56"/>
<path d="M45.7982 209.594L53.1049 209.593L56.5811 181.398L45.7969 181.399L45.7982 209.594Z" fill="#9F616A"/>
<path d="M43.9336 207.208L58.3232 207.207H58.3238C60.7559 207.207 63.0882 208.174 64.8079 209.894C66.5277 211.615 67.4939 213.948 67.494 216.381V216.679L43.934 216.68L43.9336 207.208Z" fill="#2F2E41"/>
<path d="M41.2056 108.889C41.2056 108.889 38.0389 112.47 43.2824 126.429L42.3588 202.972L59.3516 202.64L63.0867 165.303L69.8874 110.818L41.2056 108.889Z" fill="#2F2E41"/>
<path d="M24.2386 96.8053C23.2347 96.8026 22.2713 96.4086 21.553 95.7069C20.8346 95.0053 20.4179 94.0512 20.3912 93.0472L19.5938 62.9826L33.2385 37.0854C33.5483 36.5023 34.0017 36.0077 34.5557 35.6486C35.1097 35.2895 35.7461 35.0777 36.4047 35.0331L46.8033 34.3652L45.9054 94.9672L24.5768 96.7909C24.4636 96.8007 24.3509 96.8055 24.2386 96.8053Z" fill="#71B8B8"/>
<path d="M75.7151 119.471L75.5291 119.443C53.7907 116.126 37.3865 112.946 37.2233 112.914L37.0195 112.875L42.7181 99.0088C42.6731 97.5598 41.4395 56.8724 43.8009 45.1824C46.0869 33.8659 56.8622 32.0113 58.0901 31.8369L59.3231 27.75L74.8997 35.8587L77.6164 45.2125L78.1682 70.8489L75.7151 119.471Z" fill="#3F3D56"/>
<path d="M54.3098 80.6603C44.2741 80.6603 36.1094 69.7441 36.1094 56.3262C36.1094 42.9084 44.2741 31.9922 54.3098 31.9922C64.3456 31.9922 72.5102 42.9084 72.5102 56.3262C72.5102 69.7441 64.3456 80.6603 54.3098 80.6603ZM54.3098 34.3745C45.5872 34.3745 38.4907 44.222 38.4907 56.3262C38.4907 68.4305 45.5872 78.2779 54.3098 78.2779C63.0325 78.2779 70.1289 68.4305 70.1289 56.3262C70.1289 44.222 63.0325 34.3745 54.3098 34.3745Z" fill="#71B8B8"/>
<path d="M85.0961 66.7051C84.3947 66.7049 83.7008 66.85 83.0581 67.1312C82.4154 67.4124 81.8379 67.8236 81.3618 68.3389H55.1801L45.5898 70.3812L47.1644 82.5307L81.2796 75.1908C81.8444 75.8289 82.56 76.3153 83.3611 76.6056C84.1622 76.896 85.0231 76.9809 85.8655 76.8527C86.7078 76.7245 87.5046 76.3873 88.1831 75.8718C88.8616 75.3563 89.4003 74.679 89.7499 73.9017C90.0995 73.1245 90.2489 72.2719 90.1845 71.422C90.12 70.5721 89.8438 69.7519 89.381 69.0362C88.9183 68.3205 88.2837 67.7323 87.5352 67.3251C86.7867 66.9179 85.9482 66.7047 85.0961 66.7051Z" fill="#9F616A"/>
<path d="M83.1734 26.0296C88.1012 21.0999 88.1012 13.1072 83.1735 8.17741C78.2457 3.24765 70.2564 3.24766 65.3286 8.17741C60.4009 13.1072 60.4009 21.0999 65.3287 26.0296C70.2564 30.9594 78.2457 30.9594 83.1734 26.0296Z" fill="#9F616A"/>
<path d="M62.3847 7.01089L61.773 5.77917L64.851 4.24923C64.851 4.24923 68.2466 -1.27802 74.391 0.275258C80.5354 1.82854 83.2999 2.75814 83.2999 2.75814L86.3701 4.30363L84.8292 5.83745L87.5936 6.76709L85.7468 7.68505L87.8956 8.92066L86.7388 15.2548C86.7388 15.2548 84.8175 10.4506 81.1239 12.2865C77.4303 14.1224 70.6741 11.3375 70.6741 11.3375L64.8045 22.7018C64.8045 22.7018 63.5936 18.718 61.4346 19.7803C61.4346 19.7803 55.9189 10.9926 62.3847 7.01089Z" fill="#2F2E41"/>
<path d="M25.2229 93.6087L23.8203 63.0121L38.1874 34.916L38.793 35.2261L24.5085 63.1612L25.9026 93.5774L25.2229 93.6087Z" fill="#3F3D56"/>
<path d="M47.3316 84.8082L44.3375 75.8983L43.6133 46.1976L44.889 41.9836C45.3482 40.4669 46.1087 39.0586 47.125 37.843C48.1413 36.6274 49.3925 35.6296 50.8035 34.9093C52.2145 34.1891 53.7563 33.7612 55.3366 33.6514C56.9169 33.5415 58.503 33.752 60.0001 34.2701C61.4971 34.7883 62.8741 35.6034 64.0487 36.6667C65.2232 37.7301 66.1711 39.0197 66.8355 40.4583C67.4999 41.8969 67.8672 43.4549 67.9153 45.0389C67.9634 46.6229 67.6914 48.2003 67.1155 49.6766L60.2777 67.2059L60.6253 67.8808L75.4394 67.7608L80.7016 77.2367L47.3316 84.8082Z" fill="#3F3D56"/>
</g>
<defs>
<clipPath id="clip0_3736_612">
<rect width="147" height="217" fill="white"/>
</clipPath>
</defs>
</svg>
