<svg width="190" height="140" viewBox="0 0 190 140" fill="none" xmlns="http://www.w3.org/2000/svg">
<path d="M167.414 20.1313C166.052 16.2165 163.852 12.646 160.967 9.66893C158.083 6.69182 154.584 4.37972 150.715 2.89388C146.845 1.40803 142.698 0.784199 138.563 1.06588C134.427 1.34757 130.403 2.52799 126.771 4.52483C123.138 6.52167 119.985 9.28687 117.531 12.6276C115.077 15.9683 113.381 19.8042 112.562 23.8676C111.743 27.9311 111.82 32.1244 112.788 36.155C113.755 40.1857 115.591 43.9568 118.165 47.2052C118.421 47.5275 118.687 47.8499 118.958 48.1619C118.979 48.1824 118.994 48.2029 119.014 48.2233C119.681 48.9916 120.39 49.7226 121.138 50.413C121.332 50.592 121.537 50.7762 121.741 50.9501C122.13 51.298 122.529 51.6306 122.943 51.9478C123.753 52.5855 124.596 53.1782 125.471 53.723L125.501 53.7384C126.069 54.0914 126.647 54.4188 127.236 54.7309L127.476 54.8537C128.028 55.1402 128.591 55.4113 129.169 55.662C129.287 55.7131 129.415 55.7643 129.532 55.8155C129.543 55.8206 129.548 55.8206 129.558 55.8257C130.726 56.3114 131.926 56.7165 133.149 57.0382C135.547 57.6774 138.019 58.0007 140.5 58C141.406 58 142.301 57.9591 143.186 57.8721C145.208 57.6854 147.205 57.2824 149.141 56.6698C149.146 56.6698 149.151 56.6647 149.156 56.6647C150.379 56.2751 151.574 55.8016 152.732 55.2476C152.737 55.2425 152.748 55.2425 152.753 55.2374C153.013 55.1146 153.264 54.9816 153.52 54.8537L153.643 54.7923C153.847 54.6848 154.052 54.5774 154.257 54.4648C154.768 54.1835 155.27 53.8867 155.766 53.5696C155.904 53.4877 156.037 53.4007 156.175 53.3086C156.625 53.0119 157.07 52.6947 157.5 52.3724C157.577 52.3161 157.659 52.2599 157.735 52.1985C162.528 48.5603 166.046 43.4981 167.785 37.7375C169.523 31.977 169.394 25.8138 167.414 20.1314V20.1313Z" fill="white"/>
<path d="M150 41C152.209 41 154 38.9853 154 36.5C154 34.0147 152.209 32 150 32C147.791 32 146 34.0147 146 36.5C146 38.9853 147.791 41 150 41Z" fill="#E4E4E4"/>
<path d="M150.907 32.6431C151.552 32.6431 152.185 32.8367 152.746 33.2051C153.306 33.5734 153.775 34.1038 154.105 34.7444C154.435 35.3851 154.616 36.114 154.631 36.8599C154.645 37.6058 154.491 38.3432 154.186 39C154.508 38.5324 154.743 37.9921 154.876 37.4135C155.008 36.8349 155.035 36.2307 154.955 35.6395C154.874 35.0482 154.688 34.4828 154.409 33.9793C154.129 33.4758 153.762 33.0453 153.331 32.7151C152.899 32.3849 152.414 32.1623 151.904 32.0615C151.394 31.9607 150.872 31.984 150.37 32.1297C149.869 32.2755 149.399 32.5405 148.991 32.9081C148.583 33.2756 148.245 33.7375 148 34.2643C148.348 33.7583 148.79 33.3498 149.294 33.0691C149.797 32.7884 150.349 32.6428 150.908 32.6431H150.907Z" fill="#E4E4E4"/>
<path d="M141.5 37C148.404 37 154 31.1797 154 24C154 16.8203 148.404 11 141.5 11C134.596 11 129 16.8203 129 24C129 31.1797 134.596 37 141.5 37Z" fill="#E4E4E4"/>
<path d="M131.796 15.9709C133.935 13.4549 136.925 11.9065 140.135 11.6525C143.345 11.3984 146.523 12.4586 149 14.6093C148.899 14.5082 148.798 14.4066 148.693 14.3087C146.24 12.013 143.016 10.8301 139.73 11.0197C136.444 11.2094 133.364 12.7563 131.168 15.3202C128.972 17.8842 127.839 21.2553 128.019 24.6925C128.198 28.1297 129.676 31.3516 132.126 33.6498C132.15 33.6718 132.173 33.6938 132.197 33.7157C132.302 33.8137 132.411 33.9063 132.518 34C130.186 31.6794 128.807 28.502 128.672 25.1382C128.538 21.7744 129.658 18.4874 131.796 15.9709L131.796 15.9709Z" fill="#E4E4E4"/>
<path d="M142 37C146.418 37 150 33.4183 150 29C150 24.5817 146.418 21 142 21C137.582 21 134 24.5817 134 29C134 33.4183 137.582 37 142 37Z" fill="white"/>
<path d="M156 49.0515V51.6896C155.514 51.9982 155.023 52.2868 154.522 52.5606C154.321 52.6701 154.121 52.7746 153.92 52.8792L153.8 52.9389C153.55 53.0633 153.304 53.1927 153.048 53.3122C153.043 53.3172 153.033 53.3172 153.028 53.3221C151.894 53.8611 150.724 54.3218 149.525 54.7009C149.521 54.7009 149.516 54.7059 149.511 54.7059C147.614 55.3018 145.658 55.694 143.678 55.8756C142.811 55.9602 141.934 56 141.047 56C138.616 56.0007 136.195 55.6861 133.846 55.0642C132.648 54.7513 131.472 54.3572 130.328 53.8846C130.318 53.8796 130.313 53.8796 130.303 53.8747C130.188 53.8249 130.062 53.7751 129.947 53.7253C129.381 53.4814 128.83 53.2176 128.288 52.9389L128.053 52.8194C127.477 52.5158 126.91 52.1972 126.354 51.8538L126.324 51.8389C125.468 51.3088 124.641 50.7322 123.849 50.1117C123.443 49.8031 123.052 49.4796 122.671 49.1411C122.471 48.9718 122.27 48.7927 122.08 48.6185C121.348 47.9468 120.653 47.2356 120 46.4881C120.087 45.9697 120.214 45.4587 120.381 44.96L120.386 44.9551C120.416 44.8701 120.451 44.787 120.491 44.7062C120.519 44.6347 120.55 44.5649 120.586 44.4971C121.483 42.8297 123.107 42.4166 125.121 42.327C126.259 42.2772 127.517 42.332 128.845 42.317C129.546 42.312 130.273 42.2872 130.999 42.2225C135.585 41.8094 134.753 39.1215 134.958 37.6731C135.164 36.2695 136.437 37.484 136.522 37.5636L136.527 37.5686C139.121 38.7747 141.992 39.2746 144.845 39.017C145.336 38.9573 145.827 38.9224 146.318 38.9075C147.611 38.8926 147.331 39.2609 146.885 39.5645C146.668 39.706 146.442 39.8324 146.208 39.9428C146.208 39.9428 146.003 41.1872 145.792 43.0487C145.592 44.8306 151.911 45.4479 153.149 45.8361H153.154C153.86 46.0941 154.491 46.5234 154.988 47.085C155.485 47.6465 155.833 48.3225 156 49.0515Z" fill="#E4E4E4"/>
<path d="M134 18V26H135.866L138.242 23.4744L137.924 26H146.174L145.664 23.4744L146.685 26H148V18H134Z" fill="#E4E4E4"/>
<path d="M133.5 28C133.776 28 134 27.3284 134 26.5C134 25.6716 133.776 25 133.5 25C133.224 25 133 25.6716 133 26.5C133 27.3284 133.224 28 133.5 28Z" fill="#E4E4E4"/>
<path d="M149.5 28C149.776 28 150 27.3284 150 26.5C150 25.6716 149.776 25 149.5 25C149.224 25 149 25.6716 149 26.5C149 27.3284 149.224 28 149.5 28Z" fill="#E4E4E4"/>
<path d="M167.414 20.1313C166.052 16.2165 163.852 12.646 160.967 9.66893C158.083 6.69182 154.584 4.37972 150.715 2.89388C146.845 1.40803 142.698 0.784199 138.563 1.06588C134.427 1.34757 130.403 2.52799 126.771 4.52483C123.138 6.52167 119.985 9.28687 117.531 12.6276C115.077 15.9683 113.381 19.8042 112.562 23.8676C111.743 27.9311 111.82 32.1244 112.788 36.155C113.755 40.1857 115.591 43.9568 118.165 47.2052C118.421 47.5275 118.687 47.8499 118.958 48.1619C118.979 48.1824 118.994 48.2029 119.014 48.2233C119.681 48.9916 120.39 49.7226 121.138 50.413C121.332 50.592 121.537 50.7762 121.741 50.9501C122.13 51.298 122.529 51.6306 122.943 51.9478C123.753 52.5855 124.596 53.1782 125.471 53.723L125.501 53.7384C126.069 54.0914 126.647 54.4188 127.236 54.7309L127.476 54.8537C128.028 55.1402 128.591 55.4113 129.169 55.662C129.287 55.7131 129.415 55.7643 129.532 55.8155C129.543 55.8206 129.548 55.8206 129.558 55.8257C130.726 56.3114 131.926 56.7165 133.149 57.0382C135.547 57.6774 138.019 58.0007 140.5 58C141.406 58 142.301 57.9591 143.186 57.8721C145.208 57.6854 147.205 57.2824 149.141 56.6698C149.146 56.6698 149.151 56.6647 149.156 56.6647C150.379 56.2751 151.574 55.8016 152.732 55.2476C152.737 55.2425 152.748 55.2425 152.753 55.2374C153.013 55.1146 153.264 54.9816 153.52 54.8537L153.643 54.7923C153.847 54.6848 154.052 54.5774 154.257 54.4648C154.768 54.1835 155.27 53.8867 155.766 53.5696C155.904 53.4877 156.037 53.4007 156.175 53.3086C156.625 53.0119 157.07 52.6947 157.5 52.3724C157.577 52.3161 157.659 52.2599 157.735 52.1985C162.528 48.5603 166.046 43.4981 167.785 37.7375C169.523 31.977 169.394 25.8138 167.414 20.1314V20.1313ZM156.794 50.9553C156.625 51.0883 156.451 51.2162 156.277 51.3338C156.109 51.4617 155.94 51.5845 155.766 51.6971C155.617 51.8045 155.469 51.9068 155.315 52.004C155.188 52.091 155.06 52.1729 154.932 52.2547C154.507 52.5208 154.078 52.7765 153.643 53.0221C153.597 53.0477 153.551 53.0733 153.505 53.0989C153.31 53.2063 153.116 53.3086 152.922 53.4109C152.896 53.4263 152.865 53.4365 152.84 53.4519L152.809 53.4672C152.563 53.5951 152.313 53.7179 152.062 53.8356C151.095 54.3015 150.098 54.7048 149.079 55.043C148.947 55.089 148.813 55.135 148.681 55.176C146.848 55.7589 144.958 56.1431 143.043 56.322C142.204 56.3987 141.355 56.4396 140.5 56.4396C138.153 56.4445 135.815 56.1382 133.548 55.529C132.385 55.2253 131.245 54.8389 130.136 54.3728C130.018 54.3267 129.901 54.2756 129.788 54.2295C129.727 54.2039 129.671 54.1784 129.609 54.1477C129.128 53.9379 128.653 53.7077 128.187 53.4672L127.962 53.3496C127.394 53.0528 126.836 52.7356 126.294 52.398C126.095 52.2752 125.895 52.1473 125.701 52.0143C125.087 51.6101 124.488 51.1753 123.905 50.7199C123.511 50.4232 123.133 50.106 122.764 49.7786C122.57 49.6149 122.381 49.4358 122.197 49.267C121.471 48.5971 120.785 47.8866 120.14 47.1387C119.925 46.8932 119.715 46.6476 119.516 46.3918C119.47 46.3412 119.428 46.2882 119.388 46.2332C116.064 42.0386 114.065 36.9491 113.645 31.6137C113.225 26.2782 114.404 20.9386 117.031 16.2759C119.658 11.6132 123.615 7.83871 128.396 5.43373C133.176 3.02875 138.565 2.10232 143.875 2.77258C149.184 3.44285 154.174 5.67943 158.207 9.19709C162.24 12.7148 165.135 17.3541 166.521 22.5234C167.907 27.6927 167.722 33.1577 165.989 38.2215C164.257 43.2853 161.056 47.7183 156.794 50.9553L156.794 50.9553Z" fill="#E4E4E4"/>
<path d="M174.518 64L155.115 63.5549C153.174 55.9371 154.048 48.6839 155.597 42L175 42.4451C173.037 49.4723 172.872 56.89 174.518 64V64Z" fill="#71B8B8"/>
<path d="M159 46.6727L159.011 46L169 46.3273L168.99 47L159 46.6727Z" fill="white"/>
<path d="M159 49.6724L159.011 49L169 49.3276L168.989 50L159 49.6724Z" fill="white"/>
<path d="M159 52.6727L159.011 52L169 52.3273L168.989 53L159 52.6727Z" fill="white"/>
<path d="M159 55.6727L159.01 55L169 55.3273L168.989 56L159 55.6727Z" fill="white"/>
<path d="M159 58.6727L159.01 58L169 58.3277L168.989 59L159 58.6727Z" fill="white"/>
<path d="M67.4697 54.7957C66.1549 50.9495 64.0319 47.4417 61.2489 44.5168C58.4659 41.5919 55.0898 39.3204 51.356 37.8606C47.6222 36.4009 43.6207 35.788 39.6304 36.0647C35.6401 36.3415 31.7571 37.5012 28.2522 39.463C24.7473 41.4248 21.7049 44.1415 19.3371 47.4236C16.9692 50.7057 15.333 54.4743 14.5425 58.4664C13.752 62.4586 13.8262 66.5783 14.76 70.5383C15.6938 74.4983 17.4646 78.2032 19.9491 81.3946C20.1959 81.7113 20.4526 82.0279 20.7143 82.3345C20.7341 82.3546 20.7488 82.3748 20.7686 82.3948C21.412 83.1498 22.0959 83.8679 22.817 84.5461C23.0048 84.722 23.2022 84.9029 23.3996 85.0739C23.7746 85.4156 24.1598 85.7423 24.5596 86.0539C24.7175 86.1796 24.8706 86.3053 25.0335 86.4259C25.6652 86.9134 26.3218 87.3658 26.9981 87.7981L27.0277 87.8131C27.2201 87.9338 27.4177 88.0544 27.6151 88.17C27.9704 88.3861 28.3358 88.5922 28.7009 88.7882L28.933 88.9089C29.4662 89.1904 30.0092 89.4567 30.5669 89.703C30.6805 89.7533 30.8039 89.8035 30.9174 89.8538C30.9273 89.8588 30.9321 89.8588 30.942 89.8639C31.2037 89.9744 31.4652 90.08 31.7318 90.1805C32.6074 90.521 33.5005 90.813 34.4072 91.0551C36.7212 91.683 39.1058 92.0007 41.5006 92C42.3743 92 43.2381 91.9598 44.092 91.8743C46.0433 91.6909 47.9695 91.295 49.8378 90.6932C49.8426 90.6932 49.8477 90.6882 49.8525 90.6882C51.0327 90.3053 52.1856 89.8401 53.303 89.2959C53.3079 89.2908 53.3177 89.2908 53.3228 89.2858C53.5744 89.1652 53.8164 89.0345 54.0632 88.9089C54.1028 88.8887 54.1421 88.8687 54.1816 88.8485C54.379 88.743 54.5766 88.6374 54.774 88.5269C55.2676 88.2504 55.7514 87.9589 56.23 87.6473C56.3633 87.5668 56.4918 87.4814 56.6251 87.3909C56.8126 87.2653 57.0001 87.1346 57.1828 86.9989C57.4246 86.828 57.6665 86.6521 57.9035 86.4711C57.9775 86.4158 58.0565 86.3606 58.1305 86.3002C62.7551 82.726 66.1495 77.7527 67.8272 72.0931C69.505 66.4335 69.3798 60.3784 67.4697 54.7957L67.4697 54.7957Z" fill="white"/>
<path d="M31.9941 70.4598L33.5912 75.9058L54 75.5514L53.8212 65.573C53.6796 57.6748 48.0093 50.8628 39.9861 51.0021C31.9629 51.1414 26.8613 57.8186 27.0029 65.7168L28.1684 76L31.4959 75.9422L31.9941 70.4598Z" fill="#E4E4E4"/>
<path d="M40.5 74C45.7467 74 50 69.9706 50 65C50 60.0294 45.7467 56 40.5 56C35.2533 56 31 60.0294 31 65C31 69.9706 35.2533 74 40.5 74Z" fill="white"/>
<path d="M59 79.3639L58.7914 83.303C54.373 87.9782 48.3458 90.7302 41.9752 90.9812C35.6047 91.2322 29.3863 88.9627 24.6256 84.6493C24.4129 84.4588 24.2042 84.2597 24 84.0562C25.2766 82.7663 28.8001 79.5804 32.7107 79.286L50.3448 78.1562C50.3448 78.1562 57.0255 77.3597 59 79.3639Z" fill="#E4E4E4"/>
<path d="M50.9959 58.5691C50.9839 57.8534 50.7674 57.1573 50.3737 56.5687C50.3321 56.5082 50.2903 56.4521 50.2485 56.3959C49.9138 55.9539 49.4849 55.598 48.9953 55.3559C48.5057 55.1138 47.9685 54.9921 47.4259 55.0004L40.9335 55.1214L34.4451 55.238C33.5155 55.2573 32.6312 55.6568 31.9857 56.3491C31.3401 57.0414 30.9858 57.9701 31.0004 58.932L32.5454 62.1508L33.4347 64L33.5808 63.9136C39.1965 60.6473 41.4929 60.6041 48.925 63.6414L49.0752 63.7019L49.664 62.1421L51 58.6036L50.9959 58.5691Z" fill="#E4E4E4"/>
<path d="M61 82.2928C60.4577 82.8921 59.9681 82.8812 59.3563 83.428C57.8119 84.8175 55.3471 86.0075 53.4207 87L53 80.4906L58.8702 80C58.8702 80 60.1844 80.6037 61 82.2928Z" fill="#E4E4E4"/>
<path d="M67.4697 54.7957C66.1549 50.9495 64.0319 47.4417 61.2489 44.5168C58.4659 41.5919 55.0898 39.3204 51.356 37.8606C47.6222 36.4009 43.6207 35.788 39.6304 36.0647C35.6401 36.3415 31.7571 37.5012 28.2522 39.463C24.7473 41.4248 21.7049 44.1415 19.3371 47.4236C16.9692 50.7057 15.333 54.4743 14.5425 58.4664C13.752 62.4586 13.8262 66.5783 14.76 70.5383C15.6938 74.4983 17.4646 78.2032 19.9491 81.3946C20.1959 81.7113 20.4526 82.0279 20.7143 82.3345C20.7341 82.3546 20.7488 82.3748 20.7686 82.3948C21.412 83.1498 22.0959 83.8679 22.817 84.5461C23.0048 84.722 23.2022 84.9029 23.3996 85.0739C23.7746 85.4156 24.1598 85.7423 24.5596 86.0539C24.7175 86.1796 24.8706 86.3053 25.0335 86.4259C25.6652 86.9134 26.3218 87.3658 26.9981 87.7981L27.0277 87.8131C27.2201 87.9338 27.4177 88.0544 27.6151 88.17C27.9704 88.3861 28.3358 88.5922 28.7009 88.7882L28.933 88.9089C29.4662 89.1904 30.0092 89.4567 30.5669 89.703C30.6805 89.7533 30.8039 89.8035 30.9174 89.8538C30.9273 89.8588 30.9321 89.8588 30.942 89.8639C31.2037 89.9744 31.4652 90.08 31.7318 90.1805C32.6074 90.521 33.5005 90.813 34.4072 91.0551C36.7212 91.683 39.1058 92.0007 41.5006 92C42.3743 92 43.2381 91.9598 44.092 91.8743C46.0433 91.6909 47.9695 91.295 49.8378 90.6932C49.8426 90.6932 49.8477 90.6882 49.8525 90.6882C51.0327 90.3053 52.1856 89.8401 53.303 89.2959C53.3079 89.2908 53.3177 89.2908 53.3228 89.2858C53.5744 89.1652 53.8164 89.0345 54.0632 88.9089C54.1028 88.8887 54.1421 88.8687 54.1816 88.8485C54.379 88.743 54.5766 88.6374 54.774 88.5269C55.2676 88.2504 55.7514 87.9589 56.23 87.6473C56.3633 87.5668 56.4918 87.4814 56.6251 87.3909C56.8126 87.2653 57.0001 87.1346 57.1828 86.9989C57.4246 86.828 57.6665 86.6521 57.9035 86.4711C57.9775 86.4158 58.0565 86.3606 58.1305 86.3002C62.7551 82.726 66.1495 77.7527 67.8272 72.0931C69.505 66.4335 69.3798 60.3784 67.4697 54.7957L67.4697 54.7957ZM57.2223 85.0789C57.0594 85.2096 56.8916 85.3352 56.7236 85.4508C56.5607 85.5765 56.398 85.6971 56.23 85.8077C56.0869 85.9132 55.9437 86.0138 55.7957 86.1093C55.781 86.1193 55.7661 86.1294 55.7513 86.1394C55.6426 86.2148 55.5342 86.2852 55.4255 86.3556C55.0157 86.6169 54.6011 86.8682 54.1816 87.1095C54.1372 87.1346 54.0926 87.1598 54.0483 87.1849C53.8607 87.2904 53.6732 87.391 53.4857 87.4915C53.4609 87.5065 53.4312 87.5166 53.4067 87.5317L53.377 87.5468C53.1401 87.6724 52.8981 87.793 52.6563 87.9086C51.723 88.3663 50.7617 88.7626 49.7785 89.0949C49.65 89.1401 49.5218 89.1853 49.3936 89.2255C47.6252 89.7982 45.8015 90.1757 43.9539 90.3514C43.1443 90.4268 42.3248 90.467 41.5005 90.467C39.2355 90.4718 36.9798 90.1709 34.7923 89.5723C33.6697 89.274 32.5695 88.8943 31.4999 88.4364C31.4455 88.4113 31.3862 88.3912 31.332 88.366C31.2729 88.3409 31.2184 88.3208 31.1642 88.2957C31.1049 88.2705 31.0507 88.2454 30.9914 88.2153C30.5274 88.0092 30.0683 87.783 29.6192 87.5468L29.4021 87.4312C28.854 87.1396 28.316 86.828 27.7927 86.4963C27.6397 86.4008 27.4818 86.3003 27.3336 86.1947C27.2943 86.1696 27.2596 86.1445 27.2201 86.1193C26.8696 85.8831 26.5192 85.6368 26.1786 85.3805C25.9467 85.2045 25.7146 85.0286 25.4876 84.8477C25.1075 84.5561 24.7421 84.2445 24.3868 83.9228C24.1993 83.762 24.0166 83.5861 23.839 83.4202C23.1391 82.7622 22.4765 82.0641 21.8546 81.3293C21.6473 81.088 21.4449 80.8468 21.2523 80.5955C21.2085 80.5457 21.1673 80.4937 21.1289 80.4396C17.9217 76.3187 15.9926 71.3185 15.5876 66.0766C15.1826 60.8347 16.3201 55.5888 18.855 51.0079C21.3899 46.427 25.2073 42.7187 29.8204 40.3559C34.4335 37.9931 39.6332 37.0829 44.7564 37.7414C49.8796 38.3999 54.694 40.5973 58.5858 44.0532C62.4775 47.5092 65.2702 52.0671 66.6076 57.1457C67.945 62.2244 67.7666 67.5935 66.095 72.5685C64.4235 77.5434 61.3346 81.8987 57.2223 85.0789L57.2223 85.0789Z" fill="#E4E4E4"/>
<path d="M76.5184 96L57.1153 95.5346C55.1745 87.5706 56.0483 79.9877 57.597 73L77 73.4653C75.0374 80.812 74.8717 88.5668 76.5184 96V96Z" fill="#71B8B8"/>
<path d="M61 81.3449L61.0107 80L71 80.6551L70.9893 82L61 81.3449Z" fill="white"/>
<path d="M61 84.3453L61.0107 83L71 83.6547L70.9893 85L61 84.3453Z" fill="white"/>
<path d="M61 90.3453L61.0103 89L71 89.6553L70.9893 91L61 90.3453Z" fill="white"/>
<path d="M141.47 103.46C140.155 99.6826 138.032 96.2374 135.249 93.3647C132.466 90.4921 129.09 88.2611 125.356 86.8274C121.622 85.3937 117.621 84.7918 113.63 85.0636C109.64 85.3354 105.757 86.4744 102.252 88.4012C98.7473 90.3279 95.7049 92.9961 93.3371 96.2196C90.9692 99.4431 89.333 103.144 88.5425 107.065C87.752 110.986 87.8262 115.032 88.76 118.922C89.6938 122.811 91.4646 126.45 93.9491 129.584C94.1959 129.895 94.4526 130.206 94.7143 130.507C94.7341 130.527 94.7488 130.547 94.7686 130.566C95.412 131.308 96.0959 132.013 96.817 132.679C97.0048 132.852 97.2022 133.03 97.3996 133.198C97.7746 133.533 98.1598 133.854 98.5596 134.16C98.7175 134.284 98.8706 134.407 99.0335 134.525C99.6652 135.004 100.322 135.449 100.998 135.873L101.028 135.888C101.22 136.006 101.418 136.125 101.615 136.238C101.97 136.451 102.336 136.653 102.701 136.846L102.933 136.964C103.466 137.241 104.009 137.502 104.567 137.744C104.68 137.793 104.804 137.843 104.917 137.892C104.927 137.897 104.932 137.897 104.942 137.902C105.204 138.011 105.465 138.114 105.732 138.213C106.607 138.547 107.501 138.834 108.407 139.072C110.721 139.689 113.106 140.001 115.501 140C116.374 140 117.238 139.961 118.092 139.877C120.043 139.696 121.97 139.308 123.838 138.717C123.843 138.717 123.848 138.712 123.853 138.712C125.033 138.336 126.186 137.879 127.303 137.344C127.308 137.339 127.318 137.339 127.323 137.334C127.574 137.216 127.816 137.087 128.063 136.964C128.103 136.944 128.142 136.925 128.182 136.905C128.379 136.801 128.577 136.697 128.774 136.589C129.268 136.317 129.751 136.031 130.23 135.725C130.363 135.646 130.492 135.562 130.625 135.473C130.813 135.35 131 135.221 131.183 135.088C131.425 134.92 131.667 134.748 131.903 134.57C131.977 134.516 132.057 134.461 132.131 134.402C136.755 130.892 140.15 126.007 141.827 120.449C143.505 114.89 143.38 108.943 141.47 103.46Z" fill="white"/>
<path d="M129.563 133.151C127.215 131.899 124.764 130.855 122.238 130.031L121.915 126.425L108.851 125L107.191 129.61L102.502 131.391C102.335 131.455 102.175 131.539 102.027 131.641H102.022C101.76 131.82 101.537 132.051 101.367 132.32C101.196 132.59 101.082 132.891 101.03 133.206C100.98 133.52 100.992 133.841 101.065 134.149L101.313 135.178C101.67 135.393 102.037 135.599 102.403 135.795L102.636 135.915C103.172 136.196 103.717 136.462 104.277 136.708C104.391 136.758 104.515 136.808 104.629 136.858C104.639 136.863 104.643 136.863 104.653 136.868C104.916 136.979 105.179 137.084 105.446 137.184C106.326 137.524 107.222 137.815 108.133 138.057C110.456 138.684 112.85 139.001 115.254 139C116.132 139 116.999 138.96 117.856 138.875C119.816 138.692 121.75 138.296 123.625 137.696C123.63 137.696 123.635 137.691 123.64 137.691C124.825 137.309 125.983 136.844 127.105 136.301C127.109 136.296 127.119 136.296 127.124 136.291C127.377 136.171 127.62 136.041 127.868 135.915C127.908 135.895 127.947 135.875 127.987 135.855C128.185 135.75 128.383 135.644 128.581 135.534C129.077 135.258 129.563 134.967 130.043 134.656C130.177 134.576 130.306 134.491 130.44 134.4C130.628 134.275 130.817 134.144 131 134.009C130.539 133.708 130.058 133.422 129.563 133.151Z" fill="#E4E4E4"/>
<path d="M104.642 135.368L103.912 132H102.007C101.987 132 101.968 132.002 101.949 132.005H101.945C101.26 132.064 100.6 132.297 100.026 132.683C99.6361 132.937 99.2896 133.255 99 133.623C99.5659 134.061 100.154 134.468 100.76 134.857L100.786 134.871C100.959 134.979 101.136 135.088 101.312 135.192C101.631 135.386 101.958 135.571 102.285 135.748L102.493 135.856C102.971 136.109 103.457 136.349 103.957 136.571C104.058 136.616 104.169 136.661 104.27 136.706C104.279 136.711 104.284 136.711 104.293 136.715C104.527 136.815 104.761 136.91 105 137L104.642 135.368Z" fill="#E4E4E4"/>
<path d="M115 123C119.971 123 124 118.747 124 113.5C124 108.253 119.971 104 115 104C110.029 104 106 108.253 106 113.5C106 118.747 110.029 123 115 123Z" fill="white"/>
<path d="M114.992 123C113.467 122.998 111.964 122.665 110.596 122.027C109.227 121.389 108.031 120.463 107.097 119.319C106.163 118.175 105.517 116.844 105.208 115.427C104.899 114.01 104.935 112.545 105.313 111.143C105.691 109.741 106.402 108.439 107.391 107.338C108.379 106.237 109.62 105.364 111.018 104.787C112.416 104.21 113.934 103.944 115.457 104.01C116.98 104.075 118.467 104.469 119.804 105.163V105.163C121.753 106.178 123.29 107.779 124.174 109.715C125.058 111.651 125.238 113.81 124.687 115.854C124.135 117.898 122.883 119.709 121.128 121.003C119.373 122.297 117.214 122.999 114.992 123ZM115.021 104.713C112.767 104.71 110.589 105.489 108.896 106.903C107.204 108.317 106.114 110.269 105.831 112.393C105.547 114.516 106.091 116.665 107.358 118.435C108.626 120.205 110.531 121.475 112.715 122.005C114.899 122.536 117.212 122.292 119.219 121.318C121.227 120.344 122.791 118.708 123.617 116.716C124.444 114.725 124.476 112.515 123.707 110.503C122.939 108.491 121.423 106.814 119.445 105.788C118.088 105.085 116.567 104.715 115.021 104.713H115.021Z" fill="#E4E4E4"/>
<path d="M109.211 108.603C110.194 109.857 111.859 110.211 113.394 110.356C116.513 110.65 121.047 110.172 124.095 109.415C124.312 111.685 123.719 114.133 124.961 116C125.543 113.739 125.882 111.414 125.97 109.07C126.063 108.064 125.941 107.049 125.613 106.101C125.234 105.178 124.407 104.395 123.454 104.387C124.162 103.808 124.991 103.427 125.868 103.275L122.851 101.643L123.626 100.786L118.164 100.426L119.746 99.3439C117.365 98.9915 114.956 98.9097 112.559 99.0996C111.446 99.1879 110.282 99.3566 109.38 100.051C108.478 100.745 107.957 102.126 108.517 103.145C107.816 103.269 107.156 103.584 106.6 104.059C106.043 104.535 105.609 105.155 105.337 105.862C104.994 106.986 104.911 108.183 105.096 109.349C105.302 111.219 105.705 113.058 106.299 114.83L109.211 108.603Z" fill="#E4E4E4"/>
<path d="M141.47 103.46C140.155 99.6826 138.032 96.2374 135.249 93.3647C132.466 90.4921 129.09 88.2611 125.356 86.8274C121.622 85.3937 117.621 84.7918 113.63 85.0636C109.64 85.3354 105.757 86.4744 102.252 88.4012C98.7473 90.3279 95.7049 92.9961 93.3371 96.2196C90.9692 99.4431 89.333 103.144 88.5425 107.065C87.752 110.986 87.8262 115.032 88.76 118.922C89.6938 122.811 91.4646 126.45 93.9491 129.584C94.1959 129.895 94.4526 130.206 94.7143 130.507C94.7341 130.527 94.7488 130.547 94.7686 130.566C95.412 131.308 96.0959 132.013 96.817 132.679C97.0048 132.852 97.2022 133.03 97.3996 133.198C97.7746 133.533 98.1598 133.854 98.5596 134.16C98.7175 134.284 98.8706 134.407 99.0335 134.525C99.6652 135.004 100.322 135.449 100.998 135.873L101.028 135.888C101.22 136.006 101.418 136.125 101.615 136.238C101.97 136.451 102.336 136.653 102.701 136.846L102.933 136.964C103.466 137.241 104.009 137.502 104.567 137.744C104.68 137.793 104.804 137.843 104.917 137.892C104.927 137.897 104.932 137.897 104.942 137.902C105.204 138.011 105.465 138.114 105.732 138.213C106.607 138.547 107.501 138.834 108.407 139.072C110.721 139.689 113.106 140.001 115.501 140C116.374 140 117.238 139.961 118.092 139.877C120.043 139.696 121.97 139.308 123.838 138.717C123.843 138.717 123.848 138.712 123.853 138.712C125.033 138.336 126.186 137.879 127.303 137.344C127.308 137.339 127.318 137.339 127.323 137.334C127.574 137.216 127.816 137.087 128.063 136.964C128.103 136.944 128.142 136.925 128.182 136.905C128.379 136.801 128.577 136.697 128.774 136.589C129.268 136.317 129.751 136.031 130.23 135.725C130.363 135.646 130.492 135.562 130.625 135.473C130.813 135.35 131 135.221 131.183 135.088C131.425 134.92 131.667 134.748 131.903 134.57C131.977 134.516 132.057 134.461 132.131 134.402C136.755 130.892 140.15 126.007 141.827 120.449C143.505 114.89 143.38 108.943 141.47 103.46H141.47ZM131.222 133.202C131.059 133.331 130.892 133.454 130.724 133.568C130.561 133.691 130.398 133.81 130.23 133.918C130.087 134.022 129.944 134.121 129.796 134.214C129.781 134.224 129.766 134.234 129.751 134.244C129.643 134.318 129.534 134.387 129.425 134.456C129.016 134.713 128.601 134.96 128.182 135.197C128.137 135.222 128.093 135.246 128.048 135.271C127.861 135.375 127.673 135.473 127.486 135.572C127.461 135.587 127.431 135.597 127.407 135.611L127.377 135.626C127.14 135.75 126.898 135.868 126.656 135.982C125.723 136.431 124.762 136.82 123.779 137.147C123.65 137.191 123.522 137.236 123.394 137.275C121.625 137.838 119.802 138.208 117.954 138.381C117.144 138.455 116.325 138.494 115.501 138.494C113.235 138.499 110.98 138.204 108.792 137.616C107.67 137.323 106.569 136.95 105.5 136.5C105.445 136.475 105.386 136.456 105.332 136.431C105.273 136.406 105.218 136.386 105.164 136.362C105.105 136.337 105.051 136.312 104.991 136.283C104.527 136.08 104.068 135.858 103.619 135.626L103.402 135.513C102.854 135.226 102.316 134.92 101.793 134.595C101.64 134.501 101.482 134.402 101.334 134.298C101.294 134.274 101.26 134.249 101.22 134.224C100.87 133.992 100.519 133.75 100.179 133.499C99.9467 133.326 99.7146 133.153 99.4876 132.975C99.1075 132.689 98.7421 132.383 98.3868 132.067C98.1993 131.909 98.0166 131.736 97.839 131.573C97.1391 130.927 96.4765 130.241 95.8546 129.52C95.6473 129.283 95.4449 129.046 95.2523 128.799C95.2085 128.75 95.1673 128.699 95.1289 128.646C91.9217 124.599 89.9926 119.688 89.5876 114.539C89.1826 109.391 90.3201 104.239 92.855 99.7399C95.3899 95.2408 99.2073 91.5987 103.82 89.2781C108.434 86.9575 113.633 86.0636 118.756 86.7103C123.88 87.357 128.694 89.5151 132.586 92.9094C136.478 96.3036 139.27 100.78 140.608 105.768C141.945 110.756 141.767 116.029 140.095 120.915C138.423 125.802 135.335 130.079 131.222 133.202L131.222 133.202Z" fill="#E4E4E4"/>
<path d="M150.518 140L131.115 139.555C129.174 131.937 130.048 124.684 131.597 118L151 118.445C149.037 125.472 148.872 132.89 150.518 140V140Z" fill="#71B8B8"/>
<path d="M135 122.673L135.011 122L145 122.327L144.99 123L135 122.673Z" fill="white"/>
<path d="M135 125.672L135.011 125L145 125.328L144.989 126L135 125.672Z" fill="white"/>
<path d="M135 128.673L135.011 128L145 128.327L144.989 129L135 128.673Z" fill="white"/>
<path d="M135 131.673L135.01 131L145 131.327L144.989 132L135 131.673Z" fill="white"/>
<path d="M135 134.673L135.01 134L145 134.328L144.989 135L135 134.673Z" fill="white"/>
</svg>
