<svg width="130" height="140" viewBox="0 0 130 140" fill="none" xmlns="http://www.w3.org/2000/svg">
<path d="M6.75 19.5677C15.7923 24.4786 27.5799 23.3549 37.6793 19.5677C56.0064 12.695 87.0499 1.88346 91.9634 20.83C94.4709 30.4989 78.3826 40.162 69.2398 44.1848C37.6793 58.0714 33.7155 63.204 34.5233 72.9049C35.6494 86.4292 64.0669 86.476 84.7045 86.476C103.956 86.476 121.822 94.962 119.864 109.647C118.04 123.33 88.21 135.753 88.21 135.753" stroke="white"/>
<path d="M69.8697 124.348C75.2731 124.348 79.6535 119.968 79.6535 114.565C79.6535 109.161 75.2731 104.781 69.8697 104.781C64.4663 104.781 60.0859 109.161 60.0859 114.565C60.0859 119.968 64.4663 124.348 69.8697 124.348Z" fill="#71B8B8"/>
<path d="M5.80359 20.2202C8.59245 20.2202 10.8533 17.9594 10.8533 15.1705C10.8533 12.3817 8.59245 10.1208 5.80359 10.1208C3.01473 10.1208 0.753906 12.3817 0.753906 15.1705C0.753906 17.9594 3.01473 20.2202 5.80359 20.2202Z" fill="white"/>
<path d="M40.5204 29.0356C43.3093 29.0356 45.5701 26.7748 45.5701 23.986C45.5701 21.1971 43.3093 18.9363 40.5204 18.9363C37.7315 18.9363 35.4707 21.1971 35.4707 23.986C35.4707 26.7748 37.7315 29.0356 40.5204 29.0356Z" fill="white"/>
<path d="M70.1884 10.0994C72.9772 10.0994 75.238 7.83855 75.238 5.04968C75.238 2.26082 72.9772 0 70.1884 0C67.3995 0 65.1387 2.26082 65.1387 5.04968C65.1387 7.83855 67.3995 10.0994 70.1884 10.0994Z" fill="white"/>
<path d="M88.493 30.9293C91.2819 30.9293 93.5427 28.8098 93.5427 26.1953C93.5427 23.5807 91.2819 21.4612 88.493 21.4612C85.7042 21.4612 83.4434 23.5807 83.4434 26.1953C83.4434 28.8098 85.7042 30.9293 88.493 30.9293Z" fill="white"/>
<path d="M63.8759 56.1777C66.6647 56.1777 68.9255 53.9169 68.9255 51.1281C68.9255 48.3392 66.6647 46.0784 63.8759 46.0784C61.087 46.0784 58.8262 48.3392 58.8262 51.1281C58.8262 53.9169 61.087 56.1777 63.8759 56.1777Z" fill="white"/>
<path d="M31.9981 68.1707C34.9613 68.1707 37.3634 65.9098 37.3634 63.121C37.3634 60.3321 34.9613 58.0713 31.9981 58.0713C29.0349 58.0713 26.6328 60.3321 26.6328 63.121C26.6328 65.9098 29.0349 68.1707 31.9981 68.1707Z" fill="white"/>
<path d="M65.4528 86.4758C68.0674 86.4758 70.1869 84.3563 70.1869 81.7418C70.1869 79.1272 68.0674 77.0077 65.4528 77.0077C62.8383 77.0077 60.7188 79.1272 60.7188 81.7418C60.7188 84.3563 62.8383 86.4758 65.4528 86.4758Z" fill="white"/>
<path d="M101.093 98.2084C103.882 98.2084 106.142 95.9476 106.142 93.1587C106.142 90.3698 103.882 88.109 101.093 88.109C98.3038 88.109 96.043 90.3698 96.043 93.1587C96.043 95.9476 98.3038 98.2084 101.093 98.2084Z" fill="white"/>
<path d="M124.472 112.987C127.26 112.987 129.521 110.867 129.521 108.253C129.521 105.638 127.26 103.519 124.472 103.519C121.683 103.519 119.422 105.638 119.422 108.253C119.422 110.867 121.683 112.987 124.472 112.987Z" fill="white"/>
<path d="M84.7743 140C87.5632 140 89.824 137.88 89.824 135.266C89.824 132.651 87.5632 130.532 84.7743 130.532C81.9854 130.532 79.7246 132.651 79.7246 135.266C79.7246 137.88 81.9854 140 84.7743 140Z" fill="white"/>
<path d="M68.723 14.5185C53.6821 14.6248 41.3668 26.8534 41.1532 41.9002C41.1512 42.0391 41.1503 43.0159 41.1504 44.2935C41.1505 46.1667 41.8943 47.9632 43.2182 49.2879C44.5422 50.6125 46.3378 51.3568 48.2101 51.357H48.2101C49.1383 51.3568 50.0573 51.1736 50.9147 50.8179C51.7721 50.4622 52.551 49.941 53.2069 49.284C53.8629 48.6271 54.383 47.8472 54.7376 46.9891C55.0922 46.1309 55.2743 45.2113 55.2735 44.2827C55.2728 43.4136 55.2723 42.8121 55.2723 42.7751C55.2718 40.4497 55.8764 38.1641 57.0266 36.1433C58.1768 34.1226 59.833 32.4361 61.8323 31.25C63.8315 30.0638 66.105 29.4187 68.429 29.3782C70.753 29.3377 73.0476 29.9032 75.0869 31.019C77.1262 32.1348 78.8401 33.7625 80.0599 35.742C81.2798 37.7215 81.9635 39.9846 82.044 42.3087C82.1244 44.6327 81.5988 46.9377 80.5188 48.9969C79.4387 51.0561 77.8415 52.7985 75.8843 54.0528L75.8867 54.0558C75.8867 54.0558 65.8385 60.5277 62.775 69.4059L62.7776 69.4065C62.2389 71.2253 61.966 73.1124 61.9672 75.0094C61.9672 75.7891 62.0131 82.6119 62.1017 88.1496C62.1326 90.0603 62.9132 91.8822 64.2748 93.2223C65.6365 94.5624 67.4702 95.3132 69.3803 95.3128H69.3803C70.34 95.3127 71.2903 95.1228 72.1764 94.754C73.0625 94.3851 73.867 93.8446 74.5436 93.1635C75.2201 92.4825 75.7554 91.6743 76.1185 90.7855C76.4817 89.8967 76.6656 88.9448 76.6597 87.9846C76.6289 82.9131 76.6123 77.0078 76.6123 76.5792C76.6123 71.1277 81.8688 65.696 86.1867 62.1539C91.1589 58.075 94.7369 52.5165 96.174 46.2463C96.492 44.9554 96.6674 43.6334 96.6969 42.3042C96.6969 38.6383 95.9719 35.0087 94.5636 31.6245C93.1552 28.2402 91.0915 25.1682 88.4912 22.5854C85.891 20.0027 82.8056 17.9602 79.4128 16.5757C76.0201 15.1912 72.387 14.4921 68.723 14.5185V14.5185Z" fill="#71B8B8"/>
<path d="M50.3221 47.7919C48.4457 47.7917 46.6462 47.0502 45.3194 45.7307C43.9926 44.4111 43.2472 42.6215 43.2471 40.7555C43.247 39.4827 43.2479 38.5097 43.2498 38.3713C43.3094 34.012 44.4134 29.7297 46.4701 25.8796C43.091 30.48 41.233 36.011 41.1532 41.7075C41.1512 41.8459 41.1503 42.8189 41.1504 44.0916C41.1505 45.9577 41.8959 47.7473 43.2227 49.0669C44.5495 50.3864 46.349 51.1278 48.2254 51.1281V51.1281C49.7673 51.1275 51.2669 50.6264 52.4963 49.701C53.7257 48.7755 54.6178 47.4763 55.037 46.0006C53.7415 47.156 52.0622 47.794 50.3221 47.7919V47.7919Z" fill="#3F3D56"/>
<path d="M69.4787 29.1498C71.6077 29.2503 73.6803 29.8602 75.5184 30.9271C77.3565 31.994 78.9052 33.486 80.0316 35.275C81.1581 37.064 81.8285 39.0966 81.9853 41.1982C82.1422 43.2998 81.7808 45.4077 80.9322 47.3408C82.1596 45.9156 83.0618 44.2454 83.5772 42.4442C84.0927 40.643 84.2092 38.7531 83.9188 36.9033C83.6285 35.0536 82.9382 33.2874 81.8949 31.7254C80.8516 30.1633 79.4799 28.842 77.8733 27.8515C76.2667 26.8611 74.463 26.2248 72.5851 25.986C70.7073 25.7472 68.7994 25.9116 66.9916 26.4679C65.1838 27.0242 63.5186 27.9593 62.1095 29.2096C60.7003 30.4598 59.5805 31.9958 58.8262 33.7127C60.1298 32.1965 61.7683 30.9965 63.6153 30.2054C65.4622 29.4143 67.4682 29.0531 69.4787 29.1498V29.1498Z" fill="#3F3D56"/>
<path d="M71.5626 91.9347C69.6371 91.9351 67.7886 91.1778 66.4159 89.8261C65.0432 88.4743 64.2563 86.6366 64.2251 84.7093C64.1358 79.1235 64.0896 72.2414 64.0896 71.4549C64.0883 69.5414 64.3635 67.6379 64.9065 65.8033L64.904 65.8027C65.2246 64.8818 65.6119 63.9856 66.0627 63.1211C64.6788 64.9673 63.5774 67.0096 62.7949 69.1808L62.7974 69.1814C62.2544 71.016 61.9792 72.9196 61.9805 74.833C61.9805 75.6195 62.0267 82.5016 62.116 88.0874C62.1472 90.0147 62.9341 91.8524 64.3068 93.2042C65.6795 94.5559 67.528 95.3133 69.4535 95.3128V95.3128C71.0412 95.3125 72.5859 94.797 73.8561 93.8435C75.1262 92.89 76.0533 91.5499 76.4983 90.0243C75.1491 91.2558 73.3885 91.9373 71.5626 91.9347V91.9347Z" fill="#3F3D56"/>
<path d="M67.6076 121.959C66.2401 121.376 65.0298 120.489 64.0722 119.369C63.1145 118.249 62.4357 116.926 62.0893 115.505C61.7429 114.084 61.7384 112.604 62.0761 111.181C62.4138 109.758 63.0846 108.431 64.0354 107.306C62.933 108.094 62.0144 109.103 61.3406 110.266C60.6667 111.429 60.2531 112.719 60.127 114.05C60.001 115.381 60.1655 116.723 60.6096 117.988C61.0537 119.252 61.7673 120.409 62.7029 121.383C63.6385 122.356 64.7748 123.124 66.0364 123.634C67.298 124.145 68.656 124.387 70.0203 124.344C71.3845 124.301 72.7239 123.974 73.9494 123.385C75.175 122.797 76.2587 121.959 77.1286 120.929C75.7718 121.9 74.1788 122.507 72.5083 122.687C70.8378 122.868 69.1481 122.617 67.6076 121.959V121.959Z" fill="#3F3D56"/>
</svg>
