<svg width="183" height="243" viewBox="0 0 183 243" fill="none" xmlns="http://www.w3.org/2000/svg">
<g clip-path="url(#clip0_3919_390)">
<path d="M72 147.534V229.522H84.875V154.753H136.375V229.522H149.25V65.5469H136.375C132.109 65.5469 125.56 87.7947 125.56 110.15C125.56 127.001 127.525 141.442 130.32 147.534H72ZM136.375 147.534H136.25C136.292 147.443 136.333 147.346 136.375 147.25V147.534Z" fill="#3F3D56"/>
<path d="M119.679 25.1152C109.087 25.1152 100.5 34.571 100.5 46.2353V61.0549H105.093L107.753 55.5641L107.088 61.0549H136.613L139.03 56.0633L138.426 61.0549H141.75V49.4189C141.75 35.9964 131.869 25.1152 119.679 25.1152Z" fill="#2F2E41"/>
<path d="M97.8382 122.453L86.0082 127.429L44.899 160.502C43.3874 162.34 42.461 164.581 42.2373 166.941C41.9415 170.746 29.52 190.648 33.9563 193.282C38.3925 195.916 54.363 203.819 55.2503 198.55C56.1376 193.282 60.8695 170.746 60.8695 170.746L100.5 135.624L97.8382 122.453Z" fill="#2F2E41"/>
<path d="M51.75 194.018L46.7178 208.822C46.7178 208.822 52.046 214.448 49.3819 219.185V235.47H45.2377L44.0537 226.883C44.0537 226.883 39.3334 235.361 36.9493 235.47C31.9514 235.697 22.0542 237.475 21.7582 234.811C21.4622 232.146 29.2529 229.548 29.2529 229.548L37.5413 206.75L41.0935 192.834L51.75 194.018Z" fill="#2F2E41"/>
<path d="M128.557 118.545C128.557 118.545 131.206 144.328 123.553 149.015C115.9 153.703 82.052 168.645 82.052 168.645C82.052 168.645 96.4743 182.122 93.531 185.345C90.5876 188.568 77.3426 197.357 75.5766 195.599C73.8106 193.841 54.0903 172.747 56.4449 166.008C58.7996 159.27 91.4706 137.296 91.4706 137.296L95.297 123.526L96.4743 112.393L108.836 104.482L128.557 118.545Z" fill="#2F2E41"/>
<path d="M114.75 58.0594C121.377 58.0594 126.75 52.6958 126.75 46.0795C126.75 39.4632 121.377 34.0996 114.75 34.0996C108.123 34.0996 102.75 39.4632 102.75 46.0795C102.75 52.6958 108.123 58.0594 114.75 58.0594Z" fill="#FFB9B9"/>
<path d="M124.198 51.3223C124.198 51.3223 123.617 62.4999 132.625 66.0297C141.633 69.5595 110.25 92.5032 110.25 92.5032V66.9122C110.25 66.9122 114.318 62.4999 110.25 55.7345L124.198 51.3223Z" fill="#FFB9B9"/>
<path d="M144 103.734L141.648 115.21L134.593 154.64C134.593 154.64 140.472 171.412 132.535 171.117C124.598 170.823 128.42 152.874 128.42 152.874L132.535 120.212V107.56L144 103.734Z" fill="#FFB9B9"/>
<path d="M93.0893 97.7441L90.4429 108.08L78.3871 137.316C78.3871 137.316 70.1538 151.196 76.9168 150.9C83.6799 150.605 83.6799 137.316 83.6799 137.316L97.5 113.691V100.402L93.0893 97.7441Z" fill="#FFB9B9"/>
<path d="M91.1786 183.85L100.902 192.967C100.902 192.967 107.679 191.497 110.33 199.438C112.982 207.379 114.75 212.379 114.75 212.379L111.214 214.438L106.795 208.262C106.795 208.262 104.143 219.438 101.491 220.321C98.8393 221.203 85.5803 227.085 86.7589 220.321L93.2411 210.909C93.2411 210.909 94.125 200.32 91.4732 199.438C88.8214 198.556 81.75 189.732 81.75 189.732L91.1786 183.85Z" fill="#2F2E41"/>
<path d="M128.866 127.693C128.866 127.693 101.168 117.474 99.4003 118.375C98.0843 118.968 96.6826 119.339 95.25 119.474L95.2751 115.37C95.2751 115.37 104.41 112.063 109.419 114.167C114.428 116.271 129.75 125.589 129.75 125.589L128.866 127.693Z" fill="#3F3D56"/>
<path d="M111.929 86.2214C111.929 86.2214 119.82 77.1208 122.157 71.543C123.636 68.1615 126.351 65.4796 129.742 64.0508C129.742 64.0508 147.289 68.0201 146.996 75.0658C146.704 82.1115 135.892 92.9735 135.892 92.9735C135.892 92.9735 137.353 132.018 129.463 131.431C127.761 129.391 126.56 126.977 125.956 124.385C125.08 120.276 97.9027 115.872 97.9027 115.872C97.9027 115.872 95.5649 119.982 95.2727 118.221C94.9804 116.459 97.6105 73.3044 97.6105 73.3044L111.546 64.0508L111.929 86.2214Z" fill="#D0CDE1"/>
<path d="M144.97 72.0641L145.169 72.1763C145.801 72.5344 146.328 73.0559 146.694 73.6874C147.061 74.3188 147.254 75.0373 147.254 75.769L147.251 97.9263C147.253 98.5286 147.385 99.1231 147.638 99.6688C147.891 100.214 148.259 100.698 148.715 101.086C149.856 102.064 150.913 103.474 148.731 104.208C145.178 105.402 131.265 111.373 130.969 109.283C130.673 107.193 130.081 104.805 130.969 104.805C131.664 104.805 135.807 83.3952 139.135 74.2414C139.339 73.681 139.66 73.1718 140.078 72.749C140.495 72.3263 140.999 72.0001 141.554 71.7931C142.109 71.586 142.702 71.503 143.292 71.5498C143.882 71.5966 144.454 71.7721 144.97 72.0641Z" fill="#D0CDE1"/>
<path d="M101.25 72.2871L97.2089 73.4686L92.5906 93.8496C92.5906 93.8496 87.1063 95.0311 88.8381 97.0987C90.57 99.1663 97.7862 104.483 97.7862 104.483L101.25 72.2871Z" fill="#D0CDE1"/>
<path d="M125.091 30.6675C124.162 29.4269 122.959 28.4158 121.574 27.7127C120.189 27.0096 118.66 26.6334 117.105 26.6133H116.726C109.422 26.6133 103.5 33.1896 103.5 41.3018L105.948 41.3019L106.343 38.3084L106.922 41.3019H121.439L122.655 38.7694L122.351 41.3019H125.207C126.54 47.8864 124.625 54.471 119.463 61.0555H124.328L126.76 55.9905L126.152 61.0555H135.426L137.25 49.4059C137.25 40.6814 132.155 33.2832 125.091 30.6675Z" fill="#2F2E41"/>
<path opacity="0.1" d="M111.18 147.91L113.342 148.658L114 150.757C113.966 150.803 113.935 150.852 113.907 150.905L111.007 150.025L111 148.045C111 148.045 111.04 148.014 111.118 147.956C111.136 147.943 111.158 147.927 111.18 147.91Z" fill="white"/>
<path d="M194.467 236H7.53327C7.39184 236 7.2562 235.947 7.15619 235.854C7.05618 235.76 7 235.633 7 235.5C7 235.367 7.05618 235.24 7.15619 235.146C7.2562 235.053 7.39184 235 7.53327 235H194.467C194.608 235 194.744 235.053 194.844 235.146C194.944 235.24 195 235.367 195 235.5C195 235.633 194.944 235.76 194.844 235.854C194.744 235.947 194.608 236 194.467 236Z" fill="#CACACA"/>
<path d="M162.482 212.737L162.898 203.516C167.238 201.231 172.079 200.024 177 200C170.227 205.454 171.074 215.969 166.482 223.304C165.032 225.581 163.08 227.507 160.772 228.94C158.463 230.373 155.857 231.276 153.146 231.582L147.479 235C146.701 230.729 146.872 226.343 147.981 222.144C149.09 217.945 151.11 214.032 153.902 210.676C155.487 208.809 157.304 207.145 159.311 205.725C160.669 209.251 162.482 212.737 162.482 212.737Z" fill="#71B8B8"/>
</g>
<defs>
<clipPath id="clip0_3919_390">
<rect width="183" height="243" fill="white"/>
</clipPath>
</defs>
</svg>
