<svg width="265" height="170" viewBox="0 0 265 170" fill="none" xmlns="http://www.w3.org/2000/svg">
<path d="M70.947 67.0271C70.9826 67.1598 70.8879 67.2517 70.749 67.2258C68.0596 66.1128 58.6919 61.6212 58.5273 58.9354C68.4676 63.0909 75.5683 47.1507 74.4111 41.5908C73.7905 44.6873 67.8033 48.5552 65.1074 47.9498C64.8049 47.8819 61.4042 51.8902 62.435 52.6198C61.103 54.6827 59.7716 64.8022 58.08 65.4373C58.024 65.4584 57.9444 65.4192 57.8821 65.4373C51.0933 63.2716 45.4171 64.0853 41.254 56.9917C38.4921 52.2853 40.6946 53.5393 43.7285 51.5268C49.7438 47.5366 47.6562 44.985 50.7558 39.5042C57.6726 27.2733 71.9542 32.2114 75.4999 38.7093C79.7072 46.4198 73.7669 56.9976 80.4487 65.338C77.4304 66.627 71.5986 66.4074 70.848 66.6296C70.4585 66.7449 70.9417 67.0073 70.947 67.0271Z" fill="#090814"/>
<path d="M48.8125 47.5553C48.8125 39.9999 54.9137 33.875 62.4399 33.875C69.9662 33.875 76.0674 39.9999 76.0674 47.5553C76.0674 53.6827 72.0542 58.8686 66.5227 60.6103L64.491 62.2536L68.1386 75.0697L63.8883 78.0882L50.4583 66.8531C50.4583 66.8531 53.3596 63.1433 54.9155 58.9602C51.2382 56.5103 48.8125 52.3179 48.8125 47.5553Z" fill="#FFB6B6"/>
<path d="M109.692 82.6062L99.9284 116.667L90.0547 109.787L101.69 80.0704C100.675 78.1838 100.423 75.7041 101.194 73.2531C102.543 68.9644 106.502 66.3961 110.037 67.5165C113.573 68.6369 115.346 73.0218 113.997 77.3105C113.226 79.7615 111.602 81.6464 109.692 82.6062Z" fill="#FFB6B6"/>
<path d="M77.11 96.0586H41.8906V137.238H77.11V96.0586Z" fill="#FFB6B6"/>
<path d="M101.68 158H19.6763C19.4106 157.98 19.2143 157.748 19.2315 157.481C19.2143 157.217 19.4106 156.985 19.6763 156.965H101.68C101.914 156.994 102.099 157.179 102.128 157.414C102.165 157.701 101.966 157.962 101.68 158Z" fill="#CCCCCC"/>
<path d="M53.7122 63.2188L45.3398 82.4125L46.1683 115.4H74.4649L75.3531 80.3978L64.8476 64.1424L53.7122 63.2188Z" fill="#71B8B8"/>
<path d="M36.8917 70.8566C36.8917 70.8566 34.4406 141.438 27.8594 153.086C27.8594 153.086 36.9546 154.677 39.2678 151.386C41.581 148.096 50.5032 126.187 50.5999 121.335C50.6966 116.483 53.4918 63.1953 53.4918 63.1953L36.8917 70.8566Z" fill="#090814"/>
<path d="M64.1094 66.0841L64.8484 64.1445L83.6141 71.6257C83.6141 71.6257 82.7385 142.162 90.3355 149.289C90.3355 149.289 77.6439 148.681 77.2224 148.389C76.801 148.097 67.5871 111.623 67.5871 111.623C67.5871 111.623 71.9793 94.7266 72.3184 87.5118C72.6575 80.297 64.1094 66.0841 64.1094 66.0841Z" fill="#090814"/>
<path d="M39.726 121.777L31.7376 146.146L31.2617 157.798H90.328L78.9362 121.777H39.726Z" fill="#090814"/>
<path d="M78.8516 73.004L83.613 71.625L94.5615 93.8839L99.2536 81.6923L110.846 85.0173C110.846 85.0173 105.577 119.345 97.6108 117.499C89.6446 115.652 78.8516 96.8009 78.8516 96.8009L78.8516 73.004Z" fill="#090814"/>
<path d="M31.9127 140.979L15.9336 117.66L23.2793 111.172L38.2947 136.552C40.2422 136.878 42.1886 138.099 43.5342 140.054C45.8886 143.474 45.5114 147.833 42.6917 149.789C39.8719 151.745 35.6775 150.558 33.323 147.137C31.9774 145.183 31.5278 142.923 31.9127 140.979Z" fill="#FFB6B6"/>
<path d="M39.7269 72.8274L36.8908 70.8594L13.6899 114.851C13.6899 114.851 11.8067 117.504 14.263 121.779C16.7194 126.053 29.3305 139.142 29.3305 139.142L39.2669 133.508L29.1465 114.574L38.6859 98.0096L39.7269 72.8274Z" fill="#090814"/>
<path d="M74.4111 41.5908C73.7905 44.6873 61.4042 51.8902 62.435 52.6198C61.103 54.6827 59.7716 64.8022 58.08 65.4373C58.024 65.4584 57.9444 65.4192 57.8821 65.4373C51.0933 63.2716 45.4171 64.0853 41.254 56.9917C38.4921 52.2853 40.6946 53.5393 43.7285 51.5268C49.7438 47.5366 47.6562 44.985 50.7558 39.5042C57.6726 27.2733 71.9542 32.2114 75.4999 38.7093C79.7072 46.4198 75.5683 47.1507 74.4111 41.5908Z" fill="#090814"/>
<path d="M159.001 74.7539H69.9062V156.02H159.001V74.7539Z" fill="#D6D6E3"/>
<path d="M152.738 150.212H75.207V93.5391H152.738V150.212ZM75.6176 149.8H152.327V93.9513H75.6176V149.8Z" fill="#090814"/>
<path d="M152.535 102.992H75.8945V103.404H152.535V102.992Z" fill="#090814"/>
<path d="M86.6372 93.5039H86.2266V149.765H86.6372V93.5039Z" fill="#090814"/>
<path d="M97.1723 93.5039H96.7617V149.765H97.1723V93.5039Z" fill="#090814"/>
<path d="M107.711 93.5039H107.301V149.765H107.711V93.5039Z" fill="#090814"/>
<path d="M119.207 93.5039H118.797V149.765H119.207V93.5039Z" fill="#090814"/>
<path d="M130.227 93.5039H129.816V149.765H130.227V93.5039Z" fill="#090814"/>
<path d="M141.723 93.5039H141.312V149.765H141.723V93.5039Z" fill="#090814"/>
<path d="M152.774 112.293H76.1328V112.705H152.774V112.293Z" fill="#090814"/>
<path d="M152.055 121.594H75.4141V122.006H152.055V121.594Z" fill="#090814"/>
<path d="M151.817 130.895H75.1758V131.307H151.817V130.895Z" fill="#090814"/>
<path d="M152.055 140.195H75.4141V140.608H152.055V140.195Z" fill="#090814"/>
<path d="M118.114 104.133H108.465V111.552H118.114V104.133Z" fill="#71B8B8"/>
</svg>
