<svg width="202" height="207" viewBox="0 0 202 207" fill="none" xmlns="http://www.w3.org/2000/svg">
<path d="M115.633 3.18518C117.436 2.09288 119.501 1.50201 121.612 1.47435C123.723 1.44668 125.803 1.98324 127.634 3.02793C129.465 4.07262 130.981 5.58707 132.021 7.41291C133.062 9.23875 133.59 11.3089 133.55 13.407C128.436 14.7062 122.985 15.2496 117.21 13.7199L115.89 10.5085L115.111 13.7223C113.344 14.9576 111.639 14.9554 109.995 13.7156C109.925 11.6234 110.409 9.54977 111.399 7.70184C112.388 5.85391 113.848 4.29646 115.633 3.18518Z" fill="#2F2E41"/>
<path d="M74.4134 29.3641C74.4732 29.6255 74.5122 29.8912 74.5301 30.1588L95.4707 42.1653L100.561 39.2531L105.987 46.3132L97.4802 52.339C96.793 52.8258 95.9654 53.0779 95.1218 53.0575C94.2781 53.037 93.4639 52.7452 92.8013 52.2257L71.2079 35.2949C70.2334 35.6534 69.1722 35.7086 68.1653 35.453C67.1585 35.1975 66.2539 34.6433 65.5717 33.8643C64.8895 33.0853 64.4621 32.1183 64.3463 31.092C64.2306 30.0656 64.4319 29.0286 64.9237 28.1188C65.4154 27.209 66.1742 26.4696 67.0991 25.9988C68.024 25.5281 69.0712 25.3483 70.1014 25.4835C71.1316 25.6187 72.0959 26.0624 72.8662 26.7556C73.6365 27.4488 74.1761 28.3587 74.4134 29.3642V29.3641Z" fill="#FFB6B6"/>
<path d="M95.7625 40.8397C95.829 40.5334 95.9611 40.245 96.1499 39.9941C96.3387 39.7432 96.5797 39.5357 96.8566 39.3859L106.525 34.1506C107.812 33.1848 109.432 32.7659 111.03 32.9858C112.628 33.2056 114.073 34.0462 115.048 35.3233C116.023 36.6003 116.448 38.2096 116.231 39.7981C116.014 41.3867 115.172 42.8248 113.89 43.7972L106.141 51.6206C105.92 51.8439 105.653 52.0171 105.359 52.1286C105.064 52.2401 104.749 52.2871 104.434 52.2666C104.12 52.246 103.813 52.1583 103.536 52.0094C103.258 51.8606 103.017 51.6541 102.827 51.4039L96.1553 42.6129C95.9654 42.3628 95.8319 42.0749 95.7641 41.7689C95.6963 41.4629 95.6958 41.1459 95.7625 40.8397V40.8397Z" fill="#3F3D56"/>
<path d="M113.035 10.4034C114.426 5.99746 117.589 1.95648 121.964 0.467028C126.339 -1.02242 132.745 1.2465 136.034 4.50424C142.05 10.4633 143.518 30.9348 139.385 37.4041C138.563 37.3608 135.726 37.3288 134.894 37.2978L133.716 33.3987V37.2594C127.222 37.0599 120.46 37.1848 113.695 37.314C113.088 32.7337 111.644 14.8094 113.035 10.4034Z" fill="#2F2E41"/>
<path d="M111.173 195.342H105.25L102.432 172.633L111.175 172.633L111.173 195.342Z" fill="#FFB6B6"/>
<path d="M163.029 191.681L157.297 193.166L148.807 171.898L157.267 169.706L163.029 191.681Z" fill="#FFB6B6"/>
<path d="M130.385 55.8658L131.727 59.3342L131.459 62.8026L105.189 71.8456L106.493 56.6662L109.446 53.1973L130.385 55.8658Z" fill="#FFB6B6"/>
<path d="M122.08 24.6528C127.261 24.6528 131.462 20.4779 131.462 15.3279C131.462 10.1779 127.261 6.00296 122.08 6.00296C116.898 6.00296 112.697 10.1779 112.697 15.3279C112.697 20.4779 116.898 24.6528 122.08 24.6528Z" fill="#FFB7B7"/>
<path d="M113.823 206.521H109.62L108.869 202.577L106.948 206.521H95.7992C95.2648 206.521 94.7444 206.352 94.314 206.037C93.8835 205.722 93.5655 205.279 93.4065 204.772C93.2475 204.265 93.2557 203.72 93.43 203.218C93.6042 202.716 93.9354 202.283 94.3752 201.981L103.278 195.87V191.882L112.642 192.438L113.823 206.521Z" fill="#2F2E41"/>
<path d="M168.951 201.7L164.883 202.754L163.156 199.125L162.298 203.423L151.509 206.218C150.992 206.352 150.446 206.319 149.949 206.122C149.453 205.925 149.033 205.576 148.75 205.125C148.468 204.674 148.337 204.146 148.379 203.616C148.42 203.087 148.63 202.584 148.979 202.182L156.043 194.036L155.031 190.178L164.234 188.368L168.951 201.7Z" fill="#2F2E41"/>
<path d="M162.303 177.4L144.939 141.93L139.488 98.7596C143.247 91.8226 136.267 77.7073 136.267 77.7073V71.7808L109.229 76.8503V76.8504C103.699 91.8411 101.017 107.722 101.32 123.686L102.41 181.072H102.068C101.501 181.072 100.957 181.296 100.556 181.694C100.155 182.093 99.9297 182.633 99.9297 183.197C99.9297 183.761 100.155 184.301 100.556 184.7C100.957 185.098 101.501 185.322 102.068 185.322H112.76C113.327 185.322 113.871 185.098 114.272 184.7C114.673 184.301 114.898 183.761 114.898 183.197C114.898 182.633 114.673 182.093 114.272 181.694C113.871 181.296 113.327 181.072 112.76 181.072H112.484L120.16 108.066L129.084 144.093L150.652 177.264C150.102 177.306 149.589 177.559 149.223 177.969C148.856 178.379 148.664 178.914 148.686 179.462C148.708 180.01 148.943 180.528 149.342 180.908C149.74 181.287 150.271 181.498 150.823 181.497H161.515C162.012 181.497 162.494 181.326 162.877 181.011C163.261 180.696 163.521 180.258 163.615 179.773C163.708 179.287 163.628 178.785 163.389 178.352C163.15 177.918 162.766 177.582 162.303 177.4H162.303Z" fill="#2F2E41"/>
<path d="M138.712 81.3407H138.712C138.623 80.9939 138.426 80.684 138.149 80.4553C137.872 80.2266 137.53 80.091 137.17 80.0678C136.814 76.0182 134.459 50.0469 134.37 49.285L134.366 49.2528L133.684 34.7765C133.66 34.2508 133.441 33.7525 133.07 33.3769C132.699 33.0013 132.202 32.7747 131.673 32.7404L128.072 32.5064C128.022 32.5048 127.976 32.4841 127.941 32.4488C127.907 32.4135 127.888 32.3663 127.888 32.3171C127.888 31.9219 127.809 31.5305 127.657 31.1653C127.505 30.8001 127.282 30.4683 127.001 30.1888C126.719 29.9093 126.386 29.6876 126.018 29.5363C125.651 29.385 125.257 29.3072 124.859 29.3072H114.197C113.506 29.3074 112.839 29.5582 112.322 30.0124C111.804 30.4666 111.471 31.093 111.385 31.7741C111.38 31.821 111.357 31.8644 111.322 31.8956C111.286 31.9268 111.24 31.9435 111.193 31.9425L111.192 31.9424C109.98 31.9176 108.8 32.3253 107.865 33.0915C106.93 33.8576 106.302 34.9315 106.096 36.1183C104.638 44.5475 101.717 63.6785 103.161 74.3143C103.664 78.0168 103.435 83.5854 103.245 86.6832C103.226 86.9826 103.267 87.2827 103.365 87.5664C103.463 87.8501 103.617 88.1118 103.816 88.3365C103.391 88.4583 103.03 88.7395 102.81 89.1207C102.589 89.5019 102.526 89.9534 102.633 90.38H102.633C102.744 90.8172 103.025 91.1928 103.415 91.424C103.804 91.6553 104.27 91.7233 104.71 91.613L137.472 83.4049C137.912 83.2947 138.289 83.0153 138.522 82.6282C138.755 82.2411 138.823 81.778 138.712 81.3407V81.3407Z" fill="#3F3D56"/>
<path d="M109.897 32.0869C109.892 31.3705 109.632 30.6788 109.164 30.1345C108.695 29.5903 108.047 29.2286 107.336 29.1137L63.5605 21.9693C63.1407 21.9002 62.711 21.9192 62.2991 22.025L52.0401 24.6614L46.1538 26.1759L35.2908 28.9668C34.635 29.136 34.0544 29.5168 33.6398 30.0494C33.2252 30.582 33.0002 31.2363 33 31.9096V67.5682C33.0033 68.2632 33.2449 68.9363 33.685 69.4764C34.1251 70.0165 34.7374 70.3913 35.4208 70.5389L80.009 79.9677C80.2183 80.0124 80.4319 80.0345 80.646 80.0335C80.958 80.0341 81.2683 79.9871 81.566 79.8942L108.057 71.5798C108.682 71.3859 109.228 70.9969 109.613 70.4704C109.998 69.9439 110.202 69.3081 110.195 68.6572L109.897 32.0869Z" fill="white"/>
<path d="M63.063 24.5879C63.0311 24.5879 62.9992 24.592 62.9683 24.6L35.9599 31.5419C35.878 31.5629 35.8055 31.6104 35.7537 31.6769C35.7019 31.7434 35.6738 31.8251 35.6738 31.9091V67.5672C35.6741 67.654 35.7043 67.7381 35.7592 67.8056C35.8142 67.8731 35.8907 67.92 35.976 67.9384L80.5643 77.367C80.6289 77.3805 80.6959 77.3773 80.7589 77.3576L107.25 69.0434C107.328 69.0192 107.397 68.9706 107.445 68.9049C107.493 68.8391 107.518 68.7596 107.517 68.6784L107.22 32.1082C107.219 32.0187 107.187 31.9324 107.128 31.8644C107.07 31.7965 106.989 31.7514 106.9 31.737L63.1247 24.5929C63.1043 24.5896 63.0837 24.588 63.063 24.5879V24.5879Z" fill="#71B8B8"/>
<path d="M109.897 32.0869C109.892 31.3705 109.632 30.6788 109.164 30.1345C108.695 29.5903 108.047 29.2286 107.336 29.1137L63.5605 21.9693C63.1407 21.9002 62.711 21.9192 62.2991 22.025L52.0401 24.6614L46.1538 26.1759L35.2908 28.9668C34.635 29.136 34.0544 29.5168 33.6398 30.0494C33.2252 30.582 33.0002 31.2363 33 31.9096V67.5682C33.0033 68.2632 33.2449 68.9363 33.685 69.4764C34.1251 70.0165 34.7374 70.3913 35.4208 70.5389L80.009 79.9677C80.2183 80.0124 80.4319 80.0345 80.646 80.0335C80.958 80.0341 81.2683 79.9871 81.566 79.8942L108.057 71.5798C108.682 71.3859 109.228 70.9969 109.613 70.4704C109.998 69.9439 110.202 69.3081 110.195 68.6572L109.897 32.0869ZM107.828 70.8555L81.3366 79.1699C80.9587 79.2869 80.557 79.3061 80.1696 79.2256L35.5788 69.7969C35.0664 69.6858 34.6075 69.4045 34.2776 68.9994C33.9478 68.5942 33.7668 68.0894 33.7645 67.5682V31.9096C33.7648 31.4429 33.9091 30.9876 34.1779 30.6049C34.4468 30.2222 34.8272 29.9307 35.2679 29.7696C35.3379 29.7435 35.4093 29.7215 35.4819 29.7038L46.9743 26.7508L53.7703 25.0033L62.4902 22.762C62.6772 22.7124 62.87 22.6877 63.0636 22.6885C63.1882 22.6885 63.3126 22.6987 63.4356 22.7189L107.211 29.8633C107.563 29.9208 107.897 30.0589 108.186 30.2668C108.476 30.4748 108.712 30.7467 108.877 31.0612C109.043 31.3801 109.13 31.7333 109.132 32.092L109.43 68.6623C109.436 69.1505 109.283 69.6275 108.994 70.0226C108.706 70.4176 108.296 70.7097 107.828 70.8555V70.8555Z" fill="#3F3D56"/>
<path d="M108.876 31.0613C108.846 31.0807 108.813 31.0952 108.779 31.1043L95.9029 34.5638L91.8946 35.6401L80.494 38.702C80.4614 38.7099 80.4281 38.7142 80.3946 38.7147C80.3716 38.7142 80.3486 38.7125 80.3258 38.7096L34.3564 30.38L34.2035 30.3521C34.1039 30.3336 34.0157 30.2766 33.9582 30.1936C33.9007 30.1106 33.8787 30.0083 33.8969 29.9092C33.915 29.8101 33.972 29.7222 34.0553 29.6647C34.1385 29.6072 34.2413 29.5848 34.3412 29.6025L35.2661 29.7696L80.3793 37.9448L90.2051 35.3058L95.7015 33.8293L108.379 30.423L108.58 30.3699C108.667 30.347 108.759 30.3553 108.841 30.3933C108.922 30.4312 108.988 30.4964 109.026 30.5775C109.036 30.5969 109.044 30.6173 109.049 30.6383C109.07 30.7179 109.064 30.8022 109.033 30.8784C109.002 30.9547 108.947 31.0188 108.876 31.0613Z" fill="#3F3D56"/>
<path d="M80.7781 80.1222C80.6774 80.1222 80.5807 80.0826 80.5091 80.0121C80.4375 79.9417 80.3968 79.8459 80.3959 79.7458L80.0137 38.3382C80.0128 38.2375 80.0522 38.1405 80.1232 38.0686C80.1942 37.9968 80.2911 37.9558 80.3924 37.9549H80.3959C80.4967 37.9549 80.5934 37.9944 80.665 38.0649C80.7365 38.1354 80.7772 38.2312 80.7781 38.3313L81.1604 79.7388C81.1613 79.8396 81.1219 79.9366 81.0508 80.0085C80.9798 80.0803 80.883 80.1212 80.7816 80.1222H80.7781Z" fill="#3F3D56"/>
<path d="M95.9033 75.0849L91.8949 76.1612L90.2055 35.3058L47.0978 26.7812C47.0555 26.7738 47.0138 26.7636 46.9729 26.7508C46.6418 26.6571 46.3524 26.4544 46.1523 26.1759L52.0387 24.6614L53.7689 25.0033L94.6724 33.0898C94.8875 33.132 95.0909 33.22 95.2686 33.3476C95.4463 33.4753 95.5941 33.6396 95.7019 33.8293C95.8294 34.0497 95.9007 74.8215 95.9033 75.0849Z" fill="#3F3D56"/>
<path d="M94.1085 51.7908C94.3135 51.9651 94.5043 52.1552 94.6793 52.3592L118.691 49.5721L121.027 44.2162L129.62 46.6626L126.413 56.5433C126.154 57.3415 125.641 58.0347 124.952 58.5187C124.263 59.0027 123.434 59.2515 122.591 59.2277L95.0978 58.4509C94.5312 59.3166 93.7128 59.9903 92.7515 60.3825C91.7902 60.7746 90.7315 60.8666 89.7163 60.6462C88.7011 60.4258 87.7776 59.9034 87.0684 59.1485C86.3592 58.3937 85.898 57.4421 85.7463 56.4205C85.5945 55.3988 85.7593 54.3554 86.2188 53.429C86.6782 52.5027 87.4105 51.7374 88.3183 51.2348C89.2261 50.7322 90.2663 50.5162 91.3006 50.6155C92.3349 50.7149 93.3143 51.1248 94.1085 51.7908V51.7908Z" fill="#FFB6B6"/>
<path d="M118.129 48.3359C117.998 48.0508 117.931 47.741 117.932 47.4277C117.932 47.1144 118.001 46.805 118.133 46.5205L122.747 36.5852C123.2 35.0468 124.249 33.7498 125.663 32.9786C127.077 32.2073 128.741 32.0249 130.29 32.4712C131.839 32.9175 133.147 33.9562 133.927 35.3594C134.706 36.7626 134.895 38.4159 134.45 39.9568L132.93 50.8302C132.887 51.1405 132.777 51.4379 132.607 51.7021C132.438 51.9663 132.213 52.1911 131.948 52.3612C131.684 52.5312 131.385 52.6426 131.073 52.6877C130.761 52.7328 130.443 52.7105 130.141 52.6224L119.509 49.5257C119.206 49.4377 118.926 49.2859 118.688 49.0806C118.45 48.8752 118.259 48.6212 118.129 48.3359V48.3359Z" fill="#3F3D56"/>
<path d="M51.1764 57.1696C51.1287 57.1695 51.0812 57.1643 51.0348 57.1538L37.7769 54.1785C37.6111 54.1411 37.4671 54.0398 37.3763 53.8969C37.2856 53.754 37.2557 53.5812 37.2931 53.4163C37.3305 53.2515 37.4322 53.1082 37.5758 53.0178C37.7195 52.9275 37.8934 52.8975 38.0592 52.9344L51.3171 55.9098C51.471 55.9444 51.6067 56.0341 51.6983 56.1618C51.7898 56.2896 51.8308 56.4464 51.8134 56.6022C51.796 56.7581 51.7214 56.9021 51.6039 57.0068C51.4864 57.1115 51.3342 57.1694 51.1764 57.1696V57.1696Z" fill="white"/>
</svg>
