<svg width="171" height="210" viewBox="0 0 171 210" fill="none" xmlns="http://www.w3.org/2000/svg">
<path d="M98.2267 204.061H92.5462L89.8438 182.201L98.2278 182.202L98.2267 204.061Z" fill="#A0616A"/>
<path d="M99.6767 209.555L81.3594 209.555V209.324C81.3595 207.437 82.1107 205.628 83.4478 204.294C84.7848 202.96 86.5982 202.211 88.489 202.211L99.6771 202.211L99.6767 209.555Z" fill="#2F2E41"/>
<path d="M142.455 201.61L136.838 202.457L130.891 181.246L138.254 179.996L142.455 201.61Z" fill="#A0616A"/>
<path d="M144.715 206.824L126.603 209.555L126.568 209.326C126.286 207.461 126.758 205.561 127.88 204.042C129.002 202.524 130.683 201.513 132.552 201.231L143.614 199.562L144.715 206.824Z" fill="#2F2E41"/>
<path d="M124.945 95.7305L118.637 97.3792L119.057 107.581L119.109 126.156C118.487 126.585 118.011 127.192 117.743 127.896C117.475 128.601 117.427 129.37 117.607 130.102C117.787 130.835 118.185 131.495 118.749 131.997C119.313 132.498 120.017 132.817 120.766 132.911C121.516 133.005 122.277 132.87 122.947 132.523C123.618 132.176 124.168 131.635 124.524 130.97C124.879 130.304 125.024 129.547 124.939 128.798C124.854 128.049 124.543 127.344 124.047 126.775L125.985 108.132L124.945 95.7305Z" fill="#A0616A"/>
<path d="M126.71 101.865L117.49 98.7681L117.468 98.6295C117.455 98.5424 116.102 89.8311 116.119 83.8545C116.1 83.1888 116.228 82.5271 116.492 81.9155C116.756 81.3039 117.151 80.7572 117.649 80.3134C118.341 79.683 119.203 79.268 120.129 79.1195C121.055 78.971 122.004 79.0954 122.86 79.4774C123.774 79.8535 124.56 80.4843 125.125 81.2943C125.689 82.1044 126.008 83.0595 126.043 84.0455L126.71 101.865Z" fill="#E4E4E4"/>
<path d="M109.555 101.011L95.4532 97.3691L88.9348 119.27L88.7031 200.861L99.4866 200.793L103.994 134.756L132.723 195.776L144.307 194.389L119.054 128.978C119.054 128.978 120.444 117.421 116.042 111.643L116.969 105.633L109.555 101.011Z" fill="#2F2E41"/>
<path d="M117.386 107.25L116.319 107.233L94.6484 98.592L105.016 75.5562L109.938 76.4487L109.042 72.8729L119.918 70.2207L121.81 77.7718L124.603 80.3039C125.306 80.9423 125.808 81.7705 126.048 82.6882C126.289 83.6059 126.257 84.5734 125.956 85.4733L119.524 104.724C119.577 105.035 119.561 105.353 119.478 105.656C119.395 105.96 119.247 106.242 119.043 106.482C118.84 106.723 118.586 106.916 118.3 107.049C118.014 107.181 117.702 107.25 117.386 107.25Z" fill="#E4E4E4"/>
<path d="M101.088 90.0025L95.3872 86.8457L88.6236 94.509L75.7946 107.971C75.0484 107.852 74.2837 107.963 73.6017 108.287C72.9197 108.611 72.3525 109.135 71.9752 109.788C71.5978 110.441 71.4281 111.193 71.4885 111.944C71.5489 112.696 71.8364 113.411 72.3132 113.996C72.79 114.581 73.4335 115.007 74.1586 115.219C74.8837 115.431 75.6562 115.419 76.374 115.183C77.0917 114.948 77.7209 114.5 78.1782 113.9C78.6355 113.3 78.8995 112.576 78.9351 111.823L93.2499 99.6839L101.088 90.0025Z" fill="#A0616A"/>
<path d="M98.1161 95.6511L93.5977 87.0564L93.6779 86.9413C93.7284 86.869 98.7853 79.6398 102.937 75.3315C103.385 74.8376 103.935 74.4471 104.55 74.1872C105.165 73.9274 105.829 73.8044 106.496 73.8268C107.433 73.8489 108.343 74.1434 109.115 74.6742C109.887 75.205 110.487 75.9489 110.841 76.8148C111.242 77.7169 111.373 78.7149 111.22 79.6895C111.067 80.664 110.636 81.574 109.978 82.3106L98.1161 95.6511Z" fill="#E4E4E4"/>
<path d="M111.872 68.8178C116.644 68.8178 120.513 64.9581 120.513 60.197C120.513 55.4358 116.644 51.5762 111.872 51.5762C107.099 51.5762 103.23 55.4358 103.23 60.197C103.23 64.9581 107.099 68.8178 111.872 68.8178Z" fill="#A0616A"/>
<path d="M56.9837 185.56C56.0135 177.777 51.1786 170.109 43.7385 167.576C46.6727 175.587 46.672 184.375 43.7367 192.385C42.5934 195.47 40.9998 198.783 42.0752 201.892C42.7443 203.827 44.3812 205.307 46.2108 206.233C48.0406 207.158 50.0713 207.6 52.0766 208.032L52.4712 208.357C55.6545 201.186 57.9539 193.343 56.9837 185.56Z" fill="#F0F0F0"/>
<path d="M43.6647 167.722C47.9975 172.566 50.6905 178.648 51.3611 185.105C51.5302 186.492 51.479 187.898 51.2094 189.269C50.9036 190.597 50.2469 191.819 49.3077 192.807C48.4505 193.747 47.4646 194.609 46.8513 195.74C46.546 196.324 46.3678 196.965 46.3284 197.622C46.2889 198.279 46.3892 198.937 46.6226 199.553C47.1641 201.103 48.2313 202.365 49.3181 203.564C50.5246 204.895 51.799 206.259 52.3119 208.024C52.3741 208.237 52.703 208.129 52.6409 207.915C51.7486 204.845 48.7612 203.101 47.3364 200.336C46.6716 199.045 46.3926 197.547 47.0158 196.185C47.5608 194.994 48.5767 194.105 49.4528 193.161C50.3832 192.209 51.066 191.045 51.4416 189.77C51.7803 188.417 51.8856 187.016 51.7531 185.627C51.5049 182.496 50.7646 179.423 49.5595 176.521C48.2026 173.201 46.2864 170.138 43.894 167.463C43.7458 167.298 43.5176 167.558 43.6647 167.722Z" fill="white"/>
<path d="M51.2655 183.014C52.3362 182.755 53.2796 182.124 53.9272 181.235C54.5749 180.346 54.8846 179.256 54.8012 178.16C54.7835 177.938 54.4374 177.955 54.455 178.177C54.5347 179.198 54.246 180.213 53.6412 181.04C53.0364 181.866 52.1553 182.45 51.1569 182.686C50.94 182.737 51.0499 183.065 51.2655 183.014Z" fill="white"/>
<path d="M49.8035 192.388C47.8698 191.237 46.4423 189.4 45.8057 187.245C45.7428 187.031 45.4139 187.14 45.4767 187.353C46.1434 189.595 47.6328 191.503 49.6477 192.697C49.8398 192.811 49.9946 192.502 49.8035 192.388Z" fill="white"/>
<path d="M47.8821 173.529C47.4888 173.715 47.0552 173.801 46.6203 173.779C46.1854 173.757 45.7628 173.628 45.3905 173.403C45.1999 173.286 45.0453 173.596 45.2346 173.711C45.6472 173.958 46.1141 174.101 46.5945 174.126C47.0749 174.151 47.5543 174.059 47.9907 173.857C48.0335 173.841 48.0686 173.81 48.0891 173.77C48.1095 173.729 48.1138 173.682 48.1009 173.639C48.0863 173.595 48.0551 173.559 48.0142 173.539C47.9732 173.518 47.9257 173.515 47.8821 173.529Z" fill="white"/>
<path d="M21.0586 181.476C21.1755 181.552 21.2925 181.628 21.4096 181.706C22.9765 182.734 24.4571 183.888 25.8368 185.155C25.945 185.251 26.0533 185.35 26.1585 185.449C29.4499 188.537 32.138 192.208 34.0861 196.275C34.8598 197.895 35.509 199.57 36.0279 201.287C36.7444 203.659 37.3321 206.288 38.7504 208.228C38.8961 208.432 39.0543 208.627 39.2242 208.811H52.0412C52.0703 208.797 52.0996 208.785 52.1289 208.77L52.6406 208.794C52.6201 208.703 52.5968 208.61 52.5762 208.519C52.5645 208.467 52.5499 208.414 52.5382 208.362C52.5295 208.327 52.5207 208.292 52.5148 208.26C52.5119 208.248 52.509 208.237 52.5061 208.228C52.5002 208.196 52.4914 208.166 52.4855 208.137C52.3569 207.615 52.2243 207.093 52.0879 206.571C52.0879 206.568 52.0879 206.568 52.085 206.565C51.0834 202.576 49.611 198.719 47.6986 195.076C47.6401 194.969 47.5817 194.858 47.5173 194.75C46.6317 193.137 45.6156 191.6 44.4789 190.152C43.854 189.362 43.1893 188.603 42.4875 187.879C40.6705 186.013 38.5706 184.444 36.2647 183.229C31.6677 180.808 26.3457 179.88 21.4328 181.359C21.3072 181.397 21.1842 181.435 21.0586 181.476Z" fill="#F0F0F0"/>
<path d="M21.0878 181.639C27.4702 182.904 33.291 186.143 37.7233 190.896C38.6957 191.902 39.503 193.055 40.1155 194.312C40.6725 195.556 40.8855 196.925 40.7323 198.279C40.615 199.544 40.348 200.825 40.5409 202.096C40.6493 202.745 40.8942 203.365 41.2593 203.913C41.6244 204.461 42.1015 204.926 42.6595 205.278C44.0269 206.19 45.6412 206.557 47.2324 206.862C48.9991 207.2 50.8395 207.523 52.314 208.624C52.4927 208.757 52.6897 208.473 52.5113 208.34C49.946 206.424 46.5082 206.826 43.7018 205.474C42.3923 204.843 41.2654 203.815 40.941 202.353C40.6574 201.074 40.9315 199.754 41.0614 198.474C41.2302 197.156 41.0729 195.816 40.6032 194.572C40.0568 193.288 39.2954 192.106 38.3515 191.077C36.2635 188.726 33.8179 186.717 31.1044 185.124C28.0177 183.289 24.639 181.993 21.1145 181.295C20.8963 181.252 20.8711 181.597 21.0878 181.639Z" fill="white"/>
<path d="M36.3846 189.281C37.083 188.431 37.4557 187.361 37.4362 186.262C37.4167 185.163 37.0062 184.107 36.2781 183.282C36.1303 183.115 35.8641 183.337 36.0122 183.503C36.6916 184.27 37.0738 185.254 37.0899 186.278C37.1059 187.301 36.7548 188.296 36.0998 189.084C35.9576 189.256 36.2433 189.451 36.3846 189.281Z" fill="white"/>
<path d="M40.8767 197.645C38.6375 197.886 36.3893 197.277 34.5803 195.939C34.4012 195.806 34.2041 196.09 34.383 196.223C36.2681 197.612 38.609 198.241 40.9385 197.985C41.1605 197.96 41.0975 197.62 40.8767 197.645Z" fill="white"/>
<path d="M27.9579 183.744C27.7564 184.129 27.4622 184.458 27.1017 184.702C26.7411 184.946 26.3256 185.096 25.8924 185.14C25.6701 185.162 25.7335 185.502 25.9543 185.48C26.4327 185.429 26.8914 185.263 27.2903 184.994C27.6892 184.726 28.0163 184.364 28.2428 183.941C28.2675 183.903 28.2767 183.857 28.2686 183.812C28.2604 183.767 28.2355 183.727 28.199 183.7C28.1611 183.674 28.1146 183.665 28.0695 183.673C28.0243 183.681 27.9842 183.707 27.9579 183.744Z" fill="white"/>
<path d="M48.8519 72.4473H46.9395C45.2264 72.4453 43.5841 71.7656 42.3727 70.5571C41.1614 69.3487 40.48 67.7102 40.4781 66.0012V64.3995C40.4781 60.4324 41.2315 57.1107 42.7176 54.5268C44.5185 51.5211 46.6195 48.7049 48.9886 46.121C50.5614 44.5432 51.9884 42.8272 53.2525 40.9938C54.1595 39.5695 54.6277 37.9111 54.5992 36.2239C54.5992 32.2444 52.0003 30.3098 46.6539 30.3098C43.6882 30.3432 40.7412 30.7845 37.8963 31.6211C36.7992 31.9336 35.6443 31.9877 34.5227 31.7793C33.401 31.5709 32.3431 31.1056 31.4323 30.42C30.5215 29.7345 29.7826 28.8474 29.2738 27.8286C28.765 26.8098 28.5001 25.6871 28.5001 24.5489V21.3066C28.4938 19.9108 28.8935 18.5432 29.6507 17.3695C30.4079 16.1959 31.4901 15.2665 32.7662 14.6941C37.7906 12.555 43.209 11.4916 48.6712 11.5727C54.3934 11.5727 59.5589 12.5316 64.0247 14.4223C68.4986 16.3175 72.0332 18.9898 74.5303 22.3653C77.0199 25.7169 78.3431 29.7885 78.2984 33.9598C78.2984 38.4391 77.0725 42.3405 74.6551 45.5555C72.2639 48.7378 68.8362 52.2217 64.4671 55.9109C62.165 57.8209 59.9836 59.871 57.9353 62.0497C56.6123 63.4713 55.6773 65.2079 55.2198 67.0933C54.9648 68.5931 54.1851 69.954 53.0192 70.9343C51.8532 71.9146 50.3766 72.4507 48.8519 72.4473Z" fill="#71B8B8"/>
<path d="M47.7904 102.761H47.5382C44.3634 102.759 41.3193 101.5 39.0751 99.2595C36.831 97.0192 35.5703 93.9816 35.5703 90.8143C35.5703 87.6471 36.831 84.6095 39.0751 82.3692C41.3193 80.1288 44.3634 78.8692 47.5382 78.8672H47.7904C49.3637 78.8662 50.9218 79.1744 52.3756 79.7744C53.8294 80.3743 55.1505 81.2542 56.2634 82.3637C57.3762 83.4732 58.259 84.7906 58.8613 86.2406C59.4637 87.6906 59.7737 89.2448 59.7737 90.8143C59.7737 92.3839 59.4637 93.9381 58.8613 95.3881C58.259 96.8381 57.3762 98.1555 56.2634 99.265C55.1505 100.374 53.8294 101.254 52.3756 101.854C50.9218 102.454 49.3637 102.762 47.7904 102.761Z" fill="#71B8B8"/>
<path d="M123.142 68.5394L114.815 68.8359C114.308 68.854 112.93 63.4199 112.75 62.2926C112.607 61.5587 112.2 60.9014 111.605 60.4433C111.009 59.9853 110.266 59.7579 109.514 59.8037C108.891 59.8621 107.319 58.7069 105.697 57.3389C102.618 54.7419 102.778 49.8643 106.161 47.6698C106.253 47.6098 106.344 47.5551 106.433 47.5055C108.567 46.3207 111.063 45.9228 113.508 45.8924C115.725 45.8649 118.005 46.1417 119.958 47.1825C123.459 49.0485 125.322 53.1262 125.486 57.0655C125.649 61.0048 124.376 64.8567 122.932 68.5297" fill="#2F2E41"/>
</svg>
