<svg width="790" height="632" viewBox="0 0 790 632" fill="none" xmlns="http://www.w3.org/2000/svg">
<path d="M133.607 419.025C130.742 419.025 127.871 419.143 125.067 419.382L124.659 419.416C106.061 421.06 92.4572 430.594 93.0166 441.595L93.1248 443.584C93.1961 444.841 93.2721 446.193 93.3347 447.693C93.3686 448.432 94.3782 449 95.6346 449H553.102C585.356 448.804 617.493 448.558 648.615 448.268C654.452 448.28 660.285 447.978 666.089 447.363C674.738 446.339 680.741 444.311 684.443 441.162H684.444C689.048 437.257 689.193 432.339 688.914 426.783C688.347 415.564 687.785 403.778 687.224 392.028C686.728 381.673 686.234 371.345 685.741 361.457C685.436 355.589 684.758 350.41 679.53 346.451C673.864 342.17 663.53 340 648.815 340C648.637 340 648.461 340 648.281 340.001C602.165 340.165 556.472 356.015 534.58 379.442C532.059 382.14 529.71 385.028 527.439 387.821C524.082 391.948 520.611 396.214 516.47 400.03C514.228 402.124 511.803 404.013 509.224 405.676C509.046 405.798 508.843 405.93 508.628 406.055C508.135 406.376 507.621 406.685 507.119 406.96C504.182 408.656 501.088 410.062 497.879 411.16L497.555 411.268C497.311 411.355 497.047 411.442 496.783 411.522C494.929 412.117 493.004 412.631 491.075 413.047C482.731 414.885 473.242 415.326 462.873 414.355C453.351 413.44 443.952 411.526 434.832 408.643C425.23 405.61 416.244 401.828 407.552 398.172C403.735 396.565 399.786 394.904 395.843 393.33C395.102 393.033 394.373 392.744 393.633 392.454C388.816 390.578 384.45 389.028 380.284 387.717C369.963 384.455 359.279 382.477 348.473 381.827C337.004 381.2 326.897 382.383 318.44 385.338C316.108 386.149 313.838 387.127 311.646 388.264C301.63 393.463 295.454 401.137 289.483 408.559C282.055 417.79 274.373 427.336 259.206 432.285C241.704 438 216.157 435.626 198.083 431.497C192.4 430.198 186.724 428.705 181.235 427.26C179.018 426.676 176.8 426.096 174.58 425.52C170.218 424.394 166.647 423.532 163.344 422.804L162.299 422.571C161.718 422.445 161.137 422.319 160.544 422.199C156.621 421.375 152.968 420.727 149.37 420.218L148.519 420.094C146.812 419.869 145.217 419.682 143.651 419.525L143.026 419.463C139.96 419.171 136.786 419.025 133.607 419.025Z" fill="#F2F2F2"/>
<path d="M607.267 431.554C620.047 420.023 639.055 414.225 655 420.691C638.644 429.784 626.028 444.376 619.382 461.886C616.844 468.648 614.724 476.434 608.481 480.055C604.596 482.307 599.763 482.418 595.407 481.33C591.051 480.243 587.058 478.062 583.12 475.904L582 475.879C587.03 459.406 594.488 443.085 607.267 431.554Z" fill="#E6E6E6"/>
<path d="M654.643 420.772C640.539 422.621 627.367 428.932 617 438.808C614.73 440.894 612.8 443.329 611.278 446.025C609.88 448.7 609.212 451.706 609.346 454.731C609.415 457.553 609.808 460.433 609.199 463.223C608.867 464.647 608.242 465.983 607.364 467.145C606.487 468.306 605.378 469.266 604.109 469.962C600.992 471.78 597.418 472.353 593.903 472.79C590.001 473.275 585.94 473.716 582.562 475.937C582.153 476.206 581.765 475.546 582.174 475.277C588.051 471.414 595.488 472.819 601.807 470.241C604.756 469.038 607.365 466.926 608.289 463.733C609.097 460.94 608.694 457.971 608.6 455.113C608.427 452.165 608.968 449.218 610.176 446.53C611.557 443.764 613.393 441.257 615.603 439.116C620.504 434.215 626.133 430.127 632.286 427C639.288 423.392 646.847 421.026 654.636 420.004C655.118 419.941 655.122 420.709 654.643 420.772Z" fill="white"/>
<path d="M620.058 435.828C618.531 433.775 617.816 431.269 618.04 428.757C618.264 426.245 619.413 423.892 621.281 422.117C621.66 421.759 622.258 422.306 621.879 422.665C620.136 424.315 619.066 426.507 618.863 428.847C618.659 431.186 619.335 433.518 620.768 435.422C621.079 435.836 620.367 436.24 620.058 435.828Z" fill="white"/>
<path d="M609.465 453.923C614.309 454.8 619.298 453.779 623.438 451.063C623.848 450.794 624.235 451.458 623.826 451.727C619.513 454.545 614.318 455.597 609.28 454.673C608.8 454.585 608.987 453.835 609.465 453.923Z" fill="white"/>
<path d="M639.663 425.172C640.025 425.986 640.587 426.699 641.297 427.247C642.008 427.794 642.845 428.159 643.734 428.308C644.19 428.383 644.012 429.069 643.559 428.994C642.577 428.825 641.653 428.421 640.867 427.818C640.08 427.215 639.455 426.431 639.047 425.535C639.001 425.453 638.988 425.358 639.011 425.268C639.034 425.178 639.091 425.1 639.171 425.049C639.252 425.002 639.35 424.988 639.442 425.011C639.534 425.034 639.613 425.092 639.663 425.172Z" fill="white"/>
<path d="M673 476.49C672.696 476.448 672.392 476.406 672.083 476.369C667.992 475.823 663.863 475.612 659.737 475.739C659.418 475.743 659.095 475.753 658.776 475.767C648.84 476.177 639.066 478.437 629.951 482.432C626.325 484.025 622.826 485.893 619.482 488.02C614.865 490.957 610.091 494.51 604.929 495.708C604.392 495.839 603.847 495.937 603.298 496L581.972 477.449C581.945 477.382 581.913 477.321 581.885 477.254L581 476.552C581.165 476.43 581.338 476.308 581.503 476.186C581.598 476.115 581.699 476.048 581.794 475.977C581.859 475.931 581.924 475.885 581.98 475.84C582.002 475.824 582.024 475.809 582.041 475.799C582.097 475.753 582.154 475.717 582.206 475.677C583.174 474.988 584.149 474.305 585.13 473.627C585.134 473.622 585.134 473.623 585.143 473.622C592.57 468.388 600.59 464.057 609.033 460.721C609.286 460.625 609.543 460.524 609.806 460.436C613.608 459.016 617.52 457.91 621.501 457.13C623.683 456.71 625.884 456.401 628.097 456.204C633.815 455.708 639.575 456.118 645.166 457.419C656.312 460.016 666.507 466.164 672.546 475.753C672.7 475.999 672.85 476.24 673 476.49Z" fill="#E6E6E6"/>
<path d="M672.376 476.616C659.913 469.597 645.532 466.641 631.275 468.168C628.199 468.442 625.187 469.195 622.349 470.398C619.622 471.658 617.287 473.617 615.584 476.072C613.951 478.329 612.544 480.826 610.384 482.651C609.264 483.569 607.961 484.243 606.56 484.628C605.158 485.013 603.691 485.1 602.253 484.885C598.656 484.44 595.435 482.743 592.344 480.975C588.911 479.012 585.378 476.92 581.329 476.634C580.839 476.6 580.921 475.849 581.411 475.883C588.455 476.38 593.602 481.95 600.233 483.721C603.327 484.548 606.692 484.457 609.346 482.504C611.667 480.797 613.12 478.224 614.754 475.924C616.379 473.505 618.579 471.517 621.16 470.132C623.927 468.79 626.905 467.924 629.966 467.571C636.844 466.666 643.824 466.838 650.648 468.078C658.445 469.451 665.947 472.133 672.83 476.009C673.256 476.249 672.799 476.855 672.376 476.616Z" fill="white"/>
<path d="M636 467.6C636.064 465.239 636.962 462.978 638.534 461.22C640.105 459.462 642.249 458.322 644.581 458.004C645.053 457.941 645.172 458.674 644.7 458.737C642.527 459.03 640.531 460.092 639.071 461.732C637.61 463.371 636.782 465.481 636.736 467.68C636.725 468.158 635.99 468.075 636 467.6Z" fill="white"/>
<path d="M616.694 475.125C620.08 478.697 624.714 480.885 629.67 481.253C630.162 481.289 630.079 482.035 629.588 481.999C624.431 481.606 619.614 479.32 616.099 475.596C615.764 475.241 616.361 474.772 616.694 475.125Z" fill="white"/>
<path d="M658.13 470.399C657.858 471.284 657.876 472.206 658.181 473.084C658.486 473.962 659.068 474.767 659.876 475.428C660.292 475.766 659.559 476.217 659.146 475.882C658.258 475.148 657.616 474.258 657.276 473.288C656.937 472.319 656.91 471.301 657.198 470.322C657.215 470.228 657.278 470.142 657.374 470.083C657.47 470.023 657.592 469.994 657.714 470.001C657.838 470.012 657.951 470.06 658.028 470.134C658.106 470.209 658.143 470.304 658.13 470.399Z" fill="white"/>
<path d="M269.77 443.315C280.277 427.382 299.073 415.856 318 418.336C302.972 432.653 293.494 451.823 291.242 472.454C290.402 480.414 290.298 489.354 284.603 494.98C281.059 498.48 275.9 499.948 270.919 499.998C265.937 500.049 261.041 498.826 256.21 497.612L255 497.898C255.806 478.83 259.262 459.248 269.77 443.315Z" fill="#E6E6E6"/>
<path d="M318.715 418.848C303.895 424.782 291.333 435.206 282.814 448.64C280.928 451.499 279.508 454.636 278.605 457.935C277.83 461.177 277.943 464.567 278.931 467.751C279.793 470.738 281.023 473.694 281.139 476.838C281.175 478.448 280.867 480.047 280.237 481.53C279.607 483.014 278.669 484.348 277.483 485.446C274.601 488.258 270.875 489.873 267.175 491.326C263.067 492.94 258.775 494.552 255.721 497.866C255.351 498.268 254.746 497.674 255.115 497.273C260.428 491.506 268.906 490.913 275.058 486.39C277.929 484.28 280.177 481.297 280.291 477.636C280.391 474.435 279.126 471.385 278.227 468.368C277.216 465.276 276.983 461.985 277.548 458.783C278.278 455.449 279.575 452.262 281.381 449.361C285.343 442.763 290.325 436.826 296.142 431.766C302.75 425.955 310.309 421.31 318.493 418.032C319 417.829 319.218 418.647 318.715 418.848Z" fill="white"/>
<path d="M285.232 443.895C283.082 442.142 281.641 439.703 281.169 437.013C280.696 434.323 281.222 431.557 282.653 429.209C282.944 428.735 283.715 429.152 283.423 429.627C282.087 431.811 281.598 434.388 282.043 436.892C282.488 439.396 283.839 441.663 285.851 443.283C286.288 443.636 285.666 444.245 285.232 443.895Z" fill="white"/>
<path d="M278.392 466.146C283.714 465.708 288.681 463.204 292.303 459.134C292.662 458.73 293.246 459.329 292.888 459.732C289.111 463.961 283.937 466.555 278.398 466.999C277.87 467.04 277.867 466.188 278.392 466.146Z" fill="white"/>
<path d="M302.745 427.106C303.431 427.841 304.324 428.42 305.341 428.791C306.358 429.163 307.469 429.315 308.573 429.235C309.14 429.192 309.142 429.937 308.58 429.979C307.359 430.063 306.133 429.893 305.008 429.485C303.883 429.077 302.893 428.442 302.126 427.636C302.046 427.566 302.001 427.472 302 427.374C301.999 427.276 302.042 427.182 302.121 427.11C302.203 427.04 302.315 427.001 302.432 427C302.549 426.999 302.661 427.037 302.745 427.106Z" fill="white"/>
<path d="M353 473.404C352.661 473.443 352.322 473.482 351.979 473.528C347.424 474.077 342.921 474.989 338.516 476.253C338.174 476.345 337.828 476.444 337.49 476.546C326.91 479.702 317.02 484.755 308.323 491.449C304.865 494.115 301.619 497.036 298.613 500.185C294.462 504.534 290.314 509.573 285.093 512.246C284.551 512.531 283.992 512.783 283.419 513L255.296 499.378C255.248 499.315 255.197 499.259 255.148 499.197L254 498.703C254.143 498.53 254.296 498.354 254.439 498.18C254.522 498.08 254.611 497.982 254.694 497.881C254.751 497.815 254.809 497.749 254.857 497.686C254.875 497.664 254.895 497.642 254.911 497.626C254.958 497.563 255.009 497.51 255.054 497.453C255.904 496.465 256.763 495.48 257.63 494.5C257.633 494.494 257.633 494.494 257.643 494.491C264.27 487.038 271.591 480.063 279.759 474.397C280.005 474.227 280.254 474.05 280.512 473.886C284.209 471.352 288.11 469.119 292.178 467.208C294.409 466.169 296.692 465.24 299.019 464.427C305.035 462.338 311.349 461.188 317.729 461.021C330.448 460.689 343.135 464.346 352.306 472.755C352.54 472.97 352.769 473.182 353 473.404Z" fill="#E6E6E6"/>
<path d="M352.42 473.42C337.183 469.3 321.04 470.105 306.284 475.719C303.086 476.871 300.089 478.522 297.403 480.61C294.852 482.73 292.913 485.497 291.788 488.623C290.68 491.516 289.881 494.605 288.092 497.178C287.157 498.482 285.957 499.572 284.573 500.377C283.188 501.183 281.65 501.686 280.058 501.852C276.103 502.372 272.198 501.434 268.411 500.383C264.206 499.216 259.857 497.938 255.465 498.755C254.933 498.854 254.811 498.02 255.343 497.921C262.983 496.499 270.023 501.087 277.581 501.157C281.108 501.19 284.665 500.156 286.945 497.308C288.939 494.818 289.766 491.634 290.863 488.694C291.916 485.628 293.701 482.868 296.062 480.654C298.633 478.435 301.562 476.671 304.723 475.438C311.795 472.548 319.276 470.792 326.891 470.235C335.578 469.551 344.319 470.363 352.734 472.637C353.254 472.778 352.937 473.56 352.42 473.42Z" fill="white"/>
<path d="M311.268 473.671C310.711 471.132 311.028 468.468 312.162 466.153C313.296 463.838 315.173 462.023 317.458 461.033C317.921 460.835 318.236 461.584 317.772 461.783C315.642 462.701 313.894 464.391 312.842 466.549C311.791 468.707 311.505 471.191 312.037 473.551C312.152 474.064 311.382 474.181 311.268 473.671Z" fill="white"/>
<path d="M291.694 487.066C296.392 489.791 302.045 490.803 307.525 489.9C308.068 489.81 308.193 490.582 307.65 490.672C301.945 491.602 296.065 490.538 291.183 487.693C290.718 487.421 291.231 486.796 291.694 487.066Z" fill="white"/>
<path d="M334.834 470.394C334.857 471.556 335.142 472.693 335.663 473.703C336.184 474.713 336.924 475.565 337.818 476.182C338.278 476.497 337.774 477.237 337.318 476.924C336.333 476.237 335.516 475.295 334.938 474.181C334.36 473.066 334.039 471.812 334.003 470.529C333.99 470.409 334.02 470.287 334.086 470.19C334.151 470.092 334.248 470.026 334.357 470.005C334.467 469.987 334.579 470.019 334.668 470.092C334.757 470.165 334.817 470.273 334.834 470.394Z" fill="white"/>
<path d="M344.745 323.013C345.453 322.324 345.998 321.491 346.342 320.574C346.685 319.656 346.819 318.676 346.733 317.703C346.648 316.729 346.345 315.786 345.847 314.939C345.348 314.092 344.666 313.363 343.848 312.802L355 260L342.968 263.713L333.996 314.795C333.124 316.202 332.809 317.872 333.112 319.491C333.415 321.109 334.314 322.562 335.639 323.575C336.964 324.588 338.623 325.09 340.301 324.987C341.98 324.883 343.561 324.181 344.745 323.013Z" fill="#FFB6B6"/>
<path d="M370.852 180.581L363.441 175.002C363.441 175.002 356.904 174.541 355.746 186.299C354.589 198.056 347.339 243.183 347.339 243.183L336 295.564L351.697 299L363.842 242.472L376 203.473L370.852 180.581Z" fill="#E6E6E6"/>
<path d="M364.991 277.444L330.005 249.821C329.46 249.389 329.106 248.756 329.02 248.06C328.934 247.364 329.124 246.662 329.548 246.107L353.352 215.021C353.777 214.467 354.4 214.108 355.086 214.021C355.771 213.933 356.463 214.126 357.009 214.556L391.995 242.179C392.54 242.611 392.894 243.244 392.98 243.94C393.066 244.636 392.876 245.338 392.452 245.893L368.648 276.979C368.223 277.533 367.6 277.892 366.914 277.979C366.229 278.067 365.537 277.874 364.991 277.444Z" fill="#3F3D56"/>
<path d="M364.35 274.508L331.904 249.297C331.414 248.915 331.095 248.354 331.018 247.738C330.941 247.121 331.112 246.499 331.493 246.009L353.36 217.904C353.742 217.414 354.303 217.095 354.92 217.018C355.537 216.941 356.159 217.112 356.65 217.492L389.096 242.703C389.586 243.085 389.905 243.646 389.982 244.262C390.059 244.879 389.888 245.501 389.507 245.991L367.64 274.096C367.258 274.586 366.697 274.905 366.08 274.982C365.463 275.059 364.841 274.888 364.35 274.508Z" fill="white"/>
<path d="M336.222 248.88C336.102 248.786 336.023 248.649 336.004 248.499C335.985 248.348 336.027 248.196 336.121 248.077L346.969 234.221C347.063 234.101 347.2 234.023 347.352 234.004C347.427 233.995 347.503 234.001 347.576 234.02C347.649 234.04 347.718 234.074 347.777 234.121C347.837 234.167 347.887 234.224 347.925 234.289C347.962 234.355 347.986 234.427 347.996 234.501C348.005 234.576 347.999 234.652 347.979 234.724C347.959 234.797 347.925 234.864 347.879 234.924L337.031 248.779C336.937 248.899 336.799 248.977 336.648 248.996C336.496 249.014 336.343 248.973 336.222 248.88Z" fill="#E4E4E4"/>
<path d="M338.222 249.88C338.102 249.786 338.023 249.649 338.004 249.499C337.985 249.348 338.027 249.196 338.121 249.076L348.969 235.221C349.062 235.101 349.2 235.023 349.352 235.004C349.504 234.986 349.657 235.027 349.777 235.121C349.898 235.214 349.977 235.351 349.996 235.501C350.015 235.652 349.972 235.804 349.879 235.924L339.031 249.779C338.937 249.899 338.799 249.977 338.648 249.996C338.496 250.014 338.343 249.973 338.222 249.88Z" fill="#E4E4E4"/>
<path d="M346.228 243.865C346.104 243.761 346.024 243.608 346.005 243.439C345.985 243.271 346.028 243.101 346.124 242.967L350.943 236.248C350.99 236.182 351.049 236.126 351.117 236.084C351.184 236.042 351.259 236.016 351.336 236.005C351.413 235.995 351.491 236.001 351.566 236.023C351.641 236.045 351.711 236.083 351.772 236.135C351.833 236.187 351.885 236.251 351.923 236.324C351.961 236.397 351.986 236.478 351.995 236.561C352.005 236.645 351.999 236.73 351.979 236.811C351.958 236.892 351.923 236.968 351.875 237.034L347.057 243.753C346.96 243.887 346.819 243.974 346.664 243.995C346.508 244.016 346.352 243.97 346.228 243.865Z" fill="#E4E4E4"/>
<path d="M349.219 255.875C349.1 255.777 349.023 255.635 349.004 255.478C348.986 255.321 349.027 255.162 349.119 255.037L365.984 232.23C366.03 232.169 366.087 232.117 366.152 232.078C366.217 232.039 366.288 232.014 366.362 232.005C366.436 231.995 366.511 232.001 366.583 232.021C366.655 232.042 366.722 232.078 366.781 232.126C366.84 232.174 366.889 232.234 366.926 232.302C366.963 232.37 366.986 232.445 366.996 232.523C367.005 232.6 366.999 232.679 366.98 232.755C366.96 232.831 366.926 232.901 366.88 232.963L350.015 255.77C349.923 255.895 349.787 255.976 349.638 255.995C349.488 256.015 349.338 255.972 349.219 255.875Z" fill="#E4E4E4"/>
<path d="M350.231 256.88C350.106 256.787 350.024 256.65 350.005 256.499C349.985 256.349 350.029 256.197 350.126 256.077L367.928 234.221C367.976 234.162 368.036 234.112 368.105 234.075C368.173 234.038 368.248 234.014 368.326 234.004C368.405 233.995 368.484 234.001 368.56 234.02C368.635 234.04 368.706 234.074 368.769 234.12C368.831 234.167 368.883 234.224 368.922 234.289C368.961 234.354 368.986 234.426 368.995 234.501C369.005 234.575 368.999 234.651 368.979 234.724C368.958 234.796 368.922 234.864 368.874 234.923L351.072 256.779C350.974 256.899 350.831 256.977 350.673 256.996C350.516 257.014 350.357 256.973 350.231 256.88Z" fill="#E4E4E4"/>
<path d="M355.219 259.88C355.1 259.787 355.023 259.65 355.004 259.499C354.986 259.349 355.027 259.197 355.119 259.077L371.984 237.221C372.03 237.162 372.087 237.112 372.152 237.075C372.217 237.038 372.288 237.014 372.362 237.004C372.436 236.995 372.511 237.001 372.583 237.02C372.655 237.04 372.722 237.074 372.781 237.12C372.84 237.167 372.889 237.224 372.926 237.289C372.963 237.354 372.986 237.426 372.996 237.501C373.005 237.575 372.999 237.651 372.98 237.724C372.96 237.796 372.926 237.864 372.88 237.923L356.015 259.779C355.923 259.899 355.787 259.977 355.638 259.996C355.488 260.014 355.338 259.973 355.219 259.88Z" fill="#E4E4E4"/>
<path d="M356.231 261.875C356.106 261.777 356.024 261.635 356.005 261.478C355.985 261.32 356.029 261.162 356.126 261.037L373.928 238.23C373.976 238.169 374.036 238.117 374.105 238.078C374.173 238.039 374.248 238.014 374.326 238.005C374.405 237.995 374.484 238.001 374.56 238.021C374.635 238.042 374.706 238.078 374.769 238.126C374.831 238.174 374.883 238.234 374.922 238.302C374.961 238.37 374.986 238.445 374.995 238.523C375.005 238.601 374.999 238.679 374.979 238.755C374.958 238.831 374.922 238.901 374.874 238.963L357.072 261.77C356.974 261.895 356.831 261.976 356.673 261.995C356.516 262.015 356.357 261.972 356.231 261.875Z" fill="#E4E4E4"/>
<path d="M361.219 264.88C361.1 264.787 361.023 264.65 361.004 264.499C360.986 264.349 361.027 264.197 361.119 264.077L377.984 242.221C378.03 242.162 378.087 242.112 378.152 242.075C378.217 242.038 378.288 242.014 378.362 242.004C378.436 241.995 378.511 242.001 378.583 242.02C378.655 242.04 378.722 242.074 378.781 242.12C378.84 242.167 378.889 242.224 378.926 242.289C378.963 242.354 378.986 242.426 378.996 242.501C379.005 242.575 378.999 242.651 378.98 242.724C378.96 242.796 378.926 242.864 378.88 242.923L362.015 264.779C361.923 264.899 361.787 264.977 361.638 264.996C361.488 265.014 361.338 264.973 361.219 264.88Z" fill="#E4E4E4"/>
<path d="M362.231 265.88C362.106 265.787 362.024 265.65 362.005 265.499C361.985 265.349 362.029 265.197 362.126 265.077L379.929 243.219C380.027 243.1 380.17 243.023 380.327 243.004C380.485 242.986 380.643 243.028 380.769 243.12C380.894 243.213 380.975 243.35 380.995 243.5C381.015 243.65 380.972 243.802 380.875 243.922L363.072 265.779C362.974 265.899 362.831 265.977 362.673 265.996C362.516 266.014 362.357 265.973 362.231 265.88Z" fill="#E4E4E4"/>
<path d="M368.466 127.127C367.613 131.674 366.214 136.104 364.299 140.321C353.332 163.332 384.563 155.832 395.724 155.832C407.927 155.832 419.602 162.197 417.819 133.916C417.057 121.836 407.927 112 395.724 112C385.301 112 370.646 116.595 368.466 127.127Z" fill="#2F2E41"/>
<path d="M407 463H396.837L392 424H407V463Z" fill="#FFB6B6"/>
<path d="M412 481H404.629L403.314 473.995L399.944 481H380.395C379.458 481 378.545 480.699 377.79 480.14C377.036 479.581 376.478 478.793 376.199 477.893C375.92 476.992 375.935 476.025 376.24 475.134C376.546 474.242 377.127 473.472 377.898 472.936L393.509 462.082V455L409.93 455.987L412 481Z" fill="#2F2E41"/>
<path d="M468 449.858L459.713 456L432 427.065L444.231 418L468 449.858Z" fill="#FFB6B6"/>
<path d="M483 461.494L476.972 465.843L471.664 461.097L473.14 468.607L457.152 480.141C456.385 480.694 455.457 480.995 454.502 481C453.547 481.005 452.615 480.713 451.843 480.168C451.071 479.623 450.499 478.852 450.21 477.969C449.921 477.086 449.931 476.136 450.237 475.259L456.448 457.493L452.17 451.911L466.195 443L483 461.494Z" fill="#2F2E41"/>
<path d="M373 281L422 273.357L412.256 244H373V281Z" fill="#FFB6B6"/>
<path d="M418.516 259C418.516 259 438.042 275.829 429.033 323.803L418.034 370.81L448 422.709L432.763 431L395.836 379.8L378.938 340.258L370 270.958L418.516 259Z" fill="#2F2E41"/>
<path d="M388.188 351L387 369.206L390.476 423.118L407.732 429L411 373.762L388.188 351Z" fill="#2F2E41"/>
<path d="M383.266 162L402.216 162.734L409.769 175.179L427 178.518L416.713 230.177L418.605 259.581L401.447 259.477C389.082 259.402 377.124 263.862 367.867 272L368.38 233.832L361 205.34L362.659 175.464L376.521 173.744L383.266 162Z" fill="#E6E6E6"/>
<path d="M393.5 156C403.165 156 411 147.941 411 138C411 128.059 403.165 120 393.5 120C383.835 120 376 128.059 376 138C376 147.941 383.835 156 393.5 156Z" fill="#FFB6B6"/>
<path d="M381.822 119.944C384.959 118.065 388.552 117.049 392.225 117.002C395.898 116.954 399.517 117.877 402.703 119.673C405.889 121.47 408.526 124.074 410.336 127.213C412.147 130.353 413.066 133.912 412.996 137.52C403.875 139.769 394.292 141.491 384.565 138.058L382.268 132.536L380.914 138.062C377.951 139.251 374.981 140.258 372.011 138.051C371.89 134.453 372.732 130.888 374.454 127.71C376.176 124.532 378.716 121.854 381.822 119.944Z" fill="#2F2E41"/>
<path d="M423.12 295.428L425.568 317.13C425.739 317.671 426.083 318.145 426.549 318.482C427.016 318.818 427.581 319 428.161 319H439.447C440.027 319 440.592 318.818 441.059 318.482C441.525 318.145 441.869 317.671 442.04 317.13L444.068 300.497C444.653 300.777 445.298 300.918 445.95 300.907C446.602 300.896 447.242 300.735 447.817 300.435C448.393 300.136 448.887 299.708 449.26 299.185C449.633 298.663 449.873 298.062 449.962 297.431C450.05 296.8 449.984 296.158 449.769 295.557C449.554 294.956 449.196 294.413 448.724 293.974C448.252 293.534 447.68 293.21 447.056 293.029C446.431 292.847 445.771 292.813 445.13 292.929C444.877 292.637 444.561 292.403 444.206 292.242C443.851 292.082 443.463 291.999 443.072 292H425.713C425.288 292 424.869 292.097 424.491 292.284C424.112 292.471 423.783 292.742 423.531 293.075C423.278 293.409 423.11 293.795 423.039 294.204C422.967 294.613 422.995 295.032 423.12 295.428ZM444.422 299.372L445.664 295.428C445.808 294.973 445.822 294.488 445.705 294.026C445.758 294.023 445.808 294.011 445.862 294.011C446.642 294.011 447.39 294.313 447.942 294.852C448.493 295.391 448.803 296.121 448.803 296.883C448.803 297.645 448.493 298.375 447.942 298.914C447.39 299.453 446.642 299.755 445.862 299.755C445.356 299.752 444.86 299.62 444.422 299.372Z" fill="#71B8B8"/>
<path d="M440.066 318.96C439.352 318.258 438.804 317.41 438.46 316.478C438.117 315.546 437.986 314.551 438.078 313.564C438.17 312.577 438.482 311.622 438.992 310.766C439.502 309.91 440.197 309.173 441.03 308.609L430 255L442.18 258.827L451.009 310.68C451.885 312.111 452.195 313.807 451.88 315.446C451.564 317.086 450.645 318.555 449.296 319.576C447.947 320.597 446.263 321.098 444.561 320.984C442.86 320.871 441.261 320.151 440.066 318.96Z" fill="#FFB6B6"/>
<path d="M419.148 183.581L426.559 178.002C426.559 178.002 433.096 177.541 434.254 189.299C435.411 201.056 442.661 246.183 442.661 246.183L454 298.564L438.303 302L426.158 245.472L414 206.473L419.148 183.581Z" fill="#E6E6E6"/>
<path d="M356 232C358.209 232 360 230.209 360 228C360 225.791 358.209 224 356 224C353.791 224 352 225.791 352 228C352 230.209 353.791 232 356 232Z" fill="#71B8B8"/>
<path d="M223.001 512L231.809 511.999L236 478L223 478.001L223.001 512Z" fill="#FFB6B6"/>
<path d="M221 508.847L223.444 508.847L232.987 505L238.101 508.846C240.991 508.846 243.764 509.984 245.808 512.01C247.852 514.036 249 516.783 249 519.648V519.999L221.001 520L221 508.847Z" fill="#2F2E41"/>
<path d="M257 506.064L265.097 508L276 475.857L264.051 473L257 506.064Z" fill="#FFB6B6"/>
<path d="M255.419 503.127L257.747 503.657L267.668 502L271.704 506.834L271.705 506.834C274.457 507.461 276.849 509.164 278.356 511.57C279.863 513.975 280.36 516.885 279.739 519.66L279.663 520L253 513.93L255.419 503.127Z" fill="#2F2E41"/>
<path d="M207 338.976L214.851 427.159C214.851 427.159 211.909 480.101 221.401 498.731H235.167L241.983 422.325L242.839 371.04L272.352 414.307L253.554 497.482L270.497 499L301 408.736L267.488 324L207 338.976Z" fill="#2F2E41"/>
<path d="M215.5 199C226.822 199 236 190.046 236 179C236 167.954 226.822 159 215.5 159C204.178 159 195 167.954 195 179C195 190.046 204.178 199 215.5 199Z" fill="#FFB8B8"/>
<path d="M251.115 218.723L234.38 211.587L226.233 203L205.88 206.262L200.48 215.462L183 231.614L203.48 323.635L202.86 343.733C202.86 343.733 215.968 349.597 272.816 336.096C273.497 335.934 272.07 335.225 272.07 335.225L251.115 218.723Z" fill="#3F3D56"/>
<path d="M235.442 163.886C234.087 160.892 231.671 158.525 228.675 157.255C225.705 156.04 222.385 156.043 219.417 157.263C216.738 155.546 213.76 154.184 210.625 154.016C207.489 153.847 204.174 155.027 202.242 157.625C201.81 158.31 201.32 158.956 200.777 159.555C199.224 161.014 196.864 160.803 194.799 160.505C195.725 161.31 196.651 162.115 197.578 162.92C196.457 163.217 195.336 163.514 194.215 163.811C195.523 164.616 196.831 165.42 198.139 166.225C194.342 168.537 192.616 173.583 193.072 178.166C193.503 182.506 195.568 186.473 198.037 190C199.022 187.892 198.809 185.369 198.793 182.995C198.776 180.486 199.214 177.638 201.196 176.236C202.532 175.29 204.251 175.248 205.864 175.257C213.995 175.302 222.118 175.816 230.192 176.797C231.287 176.845 232.355 177.16 233.306 177.714C235.092 178.949 235.44 181.499 235.619 183.736C236.562 180.042 237.024 176.239 236.992 172.424C237.072 169.499 236.543 166.59 235.442 163.886Z" fill="#2F2E41"/>
<path d="M242 401C259.673 401 274 386.673 274 369C274 351.327 259.673 337 242 337C224.327 337 210 351.327 210 369C210 386.673 224.327 401 242 401Z" fill="white"/>
<path d="M241.5 337C239.866 337 238.234 337.123 236.618 337.368C235.791 337.488 234.986 337.643 234.187 337.834C228.322 339.186 222.948 342.142 218.664 346.371C214.38 350.601 211.356 355.937 209.928 361.786C208.499 367.634 208.724 373.765 210.576 379.493C212.429 385.221 215.836 390.322 220.418 394.226C220.962 394.686 221.512 395.131 222.085 395.555C226.21 398.631 231.006 400.683 236.078 401.543C241.151 402.403 246.355 402.046 251.263 400.501C256.17 398.955 260.641 396.267 264.307 392.656C267.973 389.045 270.729 384.615 272.348 379.73C273.968 374.846 274.404 369.647 273.622 364.56C272.841 359.474 270.862 354.646 267.85 350.474C264.838 346.302 260.879 342.905 256.298 340.562C251.717 338.22 246.645 336.999 241.5 337ZM241.5 400.601C234.89 400.608 228.452 398.495 223.13 394.573C222.551 394.149 221.993 393.711 221.449 393.244C216.985 389.478 213.673 384.529 211.892 378.966C210.112 373.403 209.935 367.45 211.382 361.791C212.829 356.132 215.842 350.995 220.074 346.971C224.306 342.946 229.587 340.195 235.311 339.035C236.102 338.873 236.893 338.745 237.699 338.647C238.96 338.49 240.229 338.412 241.5 338.413C249.745 338.413 257.652 341.689 263.482 347.52C269.312 353.352 272.587 361.26 272.587 369.507C272.587 377.754 269.312 385.662 263.482 391.494C257.652 397.325 249.745 400.601 241.5 400.601Z" fill="#3F3D56"/>
<path d="M226.05 363H256.95C258.082 363 259 361.908 259 360.56V360.44C259 359.092 258.082 358 256.95 358H226.05C224.918 358 224 359.092 224 360.44V360.56C224 361.908 224.918 363 226.05 363Z" fill="#71B8B8"/>
<path d="M226.05 371H256.95C258.082 371 259 370.126 259 369.048V368.952C259 367.874 258.082 367 256.95 367H226.05C224.918 367 224 367.874 224 368.952V369.048C224 370.126 224.918 371 226.05 371Z" fill="#71B8B8"/>
<path d="M226.05 380H256.95C258.082 380 259 378.908 259 377.56V377.44C259 376.092 258.082 375 256.95 375H226.05C224.918 375 224 376.092 224 377.44V377.56C224 378.908 224.918 380 226.05 380Z" fill="#71B8B8"/>
<path d="M597.999 511L589.19 510.999L585 475L598 475.001L597.999 511Z" fill="#9E616A"/>
<path d="M554.998 511L546.19 510.999L542 475L555 475.001L554.998 511Z" fill="#9E616A"/>
<path d="M555.999 520L528 519.999V519.648C528 516.783 529.148 514.036 531.192 512.01C533.236 509.984 536.008 508.846 538.898 508.846H538.899L544.013 505L553.556 508.847L556 508.847L555.999 520Z" fill="#2F2E41"/>
<path d="M599.999 520L572 519.999V519.648C572 516.783 573.148 514.036 575.192 512.01C577.236 509.984 580.008 508.846 582.898 508.846H582.899L588.013 505L597.556 508.847L600 508.847L599.999 520Z" fill="#2F2E41"/>
<path d="M546.011 302.821L532.176 387.197L535.941 399.77L531 408.675L538.256 486.88L535.31 493.374L543.539 498.457H560.284L561.172 427.658L565.309 417.263V411.534L573.729 368.362L575.279 428.821L577.728 439.233L575.671 446.645L578.359 451.839L585.5 500H604.276L602.824 488.795C604.459 487.966 605.773 486.616 606.559 484.957C607.345 483.298 607.558 481.425 607.165 479.632L606.088 474.721L608.538 460.199L613 379.188L611.742 313.822L589.777 297L546.011 302.821Z" fill="#2F2E41"/>
<path d="M578.5 194C588.165 194 596 186.389 596 177C596 167.611 588.165 160 578.5 160C568.835 160 561 167.611 561 177C561 186.389 568.835 194 578.5 194Z" fill="#9E616A"/>
<path d="M540.268 335.7C541.047 334.923 541.64 333.99 542.005 332.968C542.37 331.945 542.499 330.858 542.382 329.782C542.265 328.706 541.905 327.669 541.328 326.742C540.751 325.815 539.971 325.022 539.042 324.418L546 299L532.595 303.356L528.042 326.825C527.095 328.399 526.779 330.255 527.154 332.039C527.528 333.824 528.567 335.414 530.074 336.508C531.581 337.602 533.451 338.124 535.33 337.975C537.209 337.826 538.966 337.017 540.268 335.7Z" fill="#9E616A"/>
<path d="M547.25 212.582L544.417 212L542 213.325C542 213.325 535.25 222.239 535.25 230.409C535.25 238.58 527 317.315 527 317.315L542 324L554 262.349L547.25 212.582Z" fill="#E6E6E6"/>
<path d="M593.821 164.326C593.821 164.326 598.374 155.67 588.357 154.883C588.357 154.883 579.817 147.179 571.113 153.474C571.113 153.474 566.365 153.474 563.769 158.818C563.769 158.818 560.035 157.409 559.214 161.178C559.214 161.178 556.482 169.048 559.214 176.13C561.947 183.213 562.854 184 562.854 184C562.854 184 558.364 169.151 569.293 168.364C580.222 167.577 592.451 160.785 593.362 169.441C594.273 178.098 595.643 180.231 595.643 180.231C595.643 180.231 604.294 167.867 593.821 164.326Z" fill="#2F2E41"/>
<path d="M656.943 408C655.631 408.002 654.365 407.521 653.387 406.649L600.793 360.018C599.733 359.076 599.091 357.754 599.009 356.342C598.927 354.93 599.41 353.543 600.353 352.485L634.046 314.786C634.991 313.73 636.319 313.091 637.737 313.009C639.155 312.927 640.548 313.408 641.61 314.348L694.205 360.979C695.266 361.92 695.909 363.242 695.991 364.655C696.073 366.068 695.589 367.455 694.644 368.512L660.951 406.211C660.485 406.736 659.919 407.164 659.285 407.469C658.651 407.775 657.963 407.952 657.26 407.991C657.154 407.997 657.048 408 656.943 408Z" fill="white"/>
<path d="M657.472 409C656.072 409.002 654.72 408.483 653.676 407.543L600.914 360.272C599.782 359.255 599.098 357.829 599.01 356.305C598.922 354.781 599.438 353.284 600.445 352.143L634.245 313.926C635.255 312.787 636.672 312.098 638.186 312.01C639.7 311.921 641.187 312.44 642.321 313.454L695.084 360.726C696.216 361.741 696.902 363.168 696.99 364.692C697.078 366.216 696.561 367.713 695.553 368.854L661.752 407.07C661.254 407.637 660.649 408.098 659.973 408.428C659.297 408.757 658.562 408.949 657.812 408.99C657.698 408.997 657.585 409 657.472 409ZM638.52 313.389C637.907 313.388 637.301 313.518 636.742 313.77C636.183 314.022 635.684 314.39 635.277 314.851L601.477 353.068C600.713 353.933 600.322 355.068 600.388 356.224C600.455 357.38 600.974 358.462 601.833 359.233L654.595 406.504C655.021 406.885 655.517 407.179 656.055 407.367C656.593 407.555 657.163 407.635 657.732 407.602C658.3 407.569 658.857 407.423 659.37 407.173C659.883 406.923 660.342 406.574 660.72 406.146L694.521 367.929C695.286 367.064 695.678 365.929 695.611 364.773C695.544 363.617 695.024 362.535 694.165 361.765L641.402 314.492C640.609 313.78 639.583 313.388 638.52 313.389Z" fill="#3F3D56"/>
<path d="M676.676 372C676.108 372.001 675.558 371.794 675.134 371.42L633.784 335.016C633.555 334.816 633.368 334.573 633.234 334.302C633.101 334.03 633.022 333.735 633.004 333.433C632.986 333.132 633.028 332.829 633.128 332.544C633.228 332.258 633.384 331.995 633.588 331.769C633.791 331.544 634.037 331.36 634.312 331.229C634.587 331.097 634.886 331.021 635.191 331.004C635.496 330.987 635.802 331.029 636.09 331.129C636.378 331.229 636.644 331.384 636.871 331.586L678.222 367.989C678.574 368.299 678.822 368.707 678.934 369.159C679.045 369.612 679.015 370.087 678.848 370.522C678.68 370.957 678.383 371.331 677.995 371.595C677.607 371.859 677.147 372 676.676 372Z" fill="#71B8B8"/>
<path d="M668.676 381C668.107 381.001 667.558 380.794 667.133 380.42L625.778 344.011C625.55 343.811 625.365 343.568 625.232 343.297C625.099 343.025 625.022 342.73 625.004 342.429C624.986 342.128 625.029 341.827 625.129 341.542C625.229 341.257 625.385 340.995 625.588 340.769C625.791 340.544 626.036 340.361 626.311 340.229C626.585 340.098 626.883 340.021 627.188 340.004C627.492 339.986 627.797 340.028 628.085 340.127C628.373 340.227 628.638 340.381 628.866 340.581L670.222 376.99C670.573 377.299 670.822 377.707 670.934 378.159C671.045 378.612 671.016 379.087 670.848 379.522C670.68 379.957 670.383 380.332 669.995 380.596C669.607 380.86 669.147 381.001 668.676 381Z" fill="#71B8B8"/>
<path d="M660.677 390C660.108 390.001 659.558 389.794 659.134 389.419L617.78 353.014C617.552 352.813 617.366 352.57 617.233 352.299C617.1 352.027 617.022 351.732 617.004 351.431C616.986 351.13 617.028 350.828 617.129 350.543C617.229 350.258 617.385 349.995 617.588 349.769C617.791 349.544 618.037 349.36 618.311 349.229C618.586 349.098 618.884 349.021 619.189 349.004C619.494 348.986 619.799 349.029 620.087 349.128C620.375 349.227 620.641 349.382 620.868 349.583L662.221 385.989C662.573 386.299 662.822 386.707 662.934 387.159C663.045 387.611 663.016 388.086 662.848 388.522C662.68 388.957 662.383 389.331 661.995 389.595C661.607 389.859 661.148 390 660.677 390Z" fill="#71B8B8"/>
<path d="M612.97 337.119C612.425 336.169 612.1 335.114 612.02 334.028C611.939 332.943 612.105 331.853 612.504 330.836C612.904 329.82 613.527 328.9 614.332 328.144C615.136 327.387 616.102 326.81 617.16 326.455L617.206 300L629 307.588L627.148 331.547C627.644 333.315 627.455 335.198 626.618 336.84C625.781 338.481 624.353 339.767 622.606 340.454C620.858 341.141 618.912 341.181 617.136 340.566C615.36 339.952 613.878 338.725 612.97 337.119Z" fill="#9E616A"/>
<path d="M614.172 219.978L619.283 215L623.037 217.738C623.037 217.738 626.731 222.218 629.687 235.655C632.642 249.093 629.687 323 629.687 323L613.433 320.76L615.649 281.94L609 249.093L614.172 219.978Z" fill="#E6E6E6"/>
<path d="M622 216.303L604.67 208.046L592.905 197.16L571.45 197L564.529 205.975L546.257 212.166L549.303 275.012L547.226 279.845C547.226 279.845 548.673 281.148 549.334 281.877C549.995 282.606 548.421 288.71 548.421 288.71L547.533 295.35L549.995 297.104L546.795 300.875L546 306.819C546 306.819 601.863 292.969 612.418 315.913C612.976 317.125 611.602 305.278 611.602 305.278L610.229 296.605L611.591 288.82L613.668 286.749L610.185 283.275L612.418 266.793L622 216.303Z" fill="#3F3D56"/>
<path d="M229.427 355.866C229.868 354.78 230.059 353.613 229.984 352.448C229.91 351.283 229.574 350.148 228.998 349.123C228.423 348.098 227.623 347.207 226.654 346.515C225.686 345.822 224.572 345.343 223.393 345.113L219.445 317L208 326.703L213.503 351.913C213.236 353.86 213.714 355.836 214.848 357.465C215.982 359.093 217.692 360.262 219.655 360.749C221.618 361.237 223.697 361.009 225.498 360.109C227.299 359.209 228.697 357.699 229.427 355.866Z" fill="#FFB8B8"/>
<path d="M185.074 231L182.039 231.576L180.205 233.863C180.205 233.863 177.237 245.392 180.618 253.449C183.999 261.507 208.443 342.496 208.443 342.496L226 343L212.323 277.335L185.074 231Z" fill="#3F3D56"/>
<path d="M254.393 351.463C253.608 350.619 253.015 349.611 252.655 348.509C252.295 347.407 252.177 346.238 252.31 345.085C252.442 343.932 252.822 342.822 253.423 341.834C254.023 340.846 254.83 340.004 255.785 339.367L249 312L262.628 316.839L266.982 342.086C267.929 343.787 268.229 345.783 267.824 347.694C267.42 349.605 266.339 351.299 264.788 352.455C263.236 353.61 261.321 354.148 259.405 353.965C257.489 353.782 255.706 352.892 254.393 351.463Z" fill="#FFB8B8"/>
<path d="M247.803 219.588L250.822 219L253.373 220.45C253.373 220.45 260.434 230.082 260.331 238.834C260.228 247.586 268 332.027 268 332.027L251.974 339L240 272.812L247.803 219.588Z" fill="#3F3D56"/>
</svg>
