<svg width="239" height="217" viewBox="0 0 239 217" fill="none" xmlns="http://www.w3.org/2000/svg">
<path d="M94.8615 188.744L95.3697 177.26C100.667 174.414 106.575 172.911 112.582 172.881C104.315 179.674 105.348 192.768 99.7435 201.903C97.9738 204.739 95.5919 207.138 92.7743 208.923C89.9567 210.707 86.7757 211.832 83.4669 212.213L76.5492 216.47C75.5999 211.151 75.8092 205.689 77.1626 200.459C78.516 195.229 80.9813 190.357 84.3886 186.177C86.3233 183.851 88.5416 181.779 90.9913 180.011C92.6481 184.402 94.8615 188.744 94.8615 188.744Z" fill="#F9F6F6"/>
<path d="M61.16 8.29825C60.3215 6.35122 59.0491 4.62391 57.441 3.24968C55.8328 1.87544 53.932 0.891057 51.8852 0.372525C47.3408 -0.815532 40.6867 0.994263 37.2704 3.59279C31.0212 8.34602 29.4962 24.6751 33.7896 29.8353C34.6436 29.8007 37.5903 29.7752 38.4547 29.7505L39.6773 26.6404V29.7199C46.4237 29.5608 53.4472 29.6604 60.4745 29.7634C61.1044 26.11 62.6048 11.8126 61.16 8.29825Z" fill="#2F2E41"/>
<path d="M60.0165 205.201H66.1701L69.0972 181.346L60.0156 181.346L60.0165 205.201Z" fill="#9E616A"/>
<path d="M6.14844 201.353L12.1026 202.913L20.922 180.571L12.1337 178.27L6.14844 201.353Z" fill="#9E616A"/>
<path d="M40.062 58.684L38.668 62.3275L38.947 65.9709L66.2338 75.4702L64.8798 59.5248L61.8123 55.8809L40.062 58.684Z" fill="#FFB6B6"/>
<path d="M51.7654 25.8977C57.1479 25.8977 61.5112 21.5121 61.5112 16.1022C61.5112 10.6922 57.1479 6.30664 51.7654 6.30664C46.3829 6.30664 42.0195 10.6922 42.0195 16.1022C42.0195 21.5121 46.3829 25.8977 51.7654 25.8977Z" fill="#9E616A"/>
<path d="M58.4606 3.34708C56.588 2.19965 54.4431 1.57896 52.2501 1.5499C50.0571 1.52084 47.8967 2.08448 45.9946 3.1819C44.0926 4.27931 42.5188 5.87018 41.4378 7.78817C40.3568 9.70615 39.8084 11.8808 39.8498 14.0848C45.1623 15.4495 50.8236 16.0203 56.8229 14.4134L58.1943 11.04L59.0028 14.4159C60.8382 15.7136 62.6097 15.7112 64.3173 14.4089C64.3897 12.2112 63.8869 10.0329 62.8591 8.09167C61.8314 6.15048 60.3147 4.51444 58.4606 3.34708Z" fill="#2F2E41"/>
<path d="M58.4882 202.15L68.2153 201.566V205.755L77.4631 212.175C77.9199 212.492 78.2639 212.947 78.4449 213.474C78.6259 214.002 78.6344 214.574 78.4693 215.106C78.3041 215.639 77.9738 216.105 77.5267 216.435C77.0795 216.766 76.539 216.944 75.9839 216.944H64.4034L62.4074 212.801L61.628 216.944H57.2617L58.4882 202.15Z" fill="#2F2E41"/>
<path d="M4.89952 197.873L14.4585 199.774L13.4073 203.828L20.7451 212.384C21.1076 212.807 21.3262 213.335 21.369 213.891C21.4118 214.447 21.2765 215.003 20.983 215.476C20.6895 215.95 20.253 216.316 19.7374 216.523C19.2218 216.73 18.6539 216.765 18.1168 216.624L6.9108 213.688L6.01905 209.173L4.2251 212.985L0 211.878L4.89952 197.873Z" fill="#2F2E41"/>
<path d="M6.90598 186.352L24.9426 149.092L30.6047 103.743C26.7008 96.4556 33.9509 81.6279 33.9509 81.6279V75.4023L62.0358 80.7277C67.7801 96.475 70.5656 113.157 70.2508 129.927L69.1192 190.209H69.4742C70.0633 190.209 70.6282 190.444 71.0448 190.863C71.4613 191.281 71.6954 191.849 71.6954 192.441C71.6954 193.034 71.4613 193.601 71.0448 194.02C70.6282 194.439 70.0633 194.674 69.4742 194.674H58.3682C57.7791 194.674 57.2141 194.439 56.7976 194.02C56.381 193.601 56.147 193.034 56.147 192.441C56.147 191.849 56.381 191.281 56.7976 190.863C57.2141 190.444 57.7791 190.209 58.3682 190.209H58.6546L50.6818 113.519L41.4115 151.364L19.0087 186.208C19.5802 186.253 20.1122 186.519 20.4929 186.949C20.8736 187.38 21.0735 187.942 21.0505 188.518C21.0275 189.094 20.7834 189.638 20.3695 190.036C19.9557 190.435 19.4042 190.657 18.831 190.655H7.7251C7.20856 190.656 6.70802 190.475 6.30976 190.145C5.9115 189.814 5.64048 189.354 5.54343 188.844C5.44638 188.334 5.52936 187.806 5.77809 187.351C6.02682 186.896 6.42571 186.543 6.90598 186.352Z" fill="#2F2E41"/>
<path d="M31.4094 85.4446C31.5016 85.0803 31.7063 84.7548 31.994 84.5145C32.2817 84.2743 32.6377 84.1318 33.0109 84.1075C33.3811 79.8535 35.8271 52.5716 35.9202 51.7712L35.9238 51.7374L36.632 36.5305C36.6578 35.9782 36.885 35.4548 37.2704 35.0603C37.6557 34.6657 38.1722 34.4277 38.7211 34.3916L42.4619 34.1459C42.5132 34.1441 42.5619 34.1224 42.5975 34.0853C42.6332 34.0482 42.6532 33.9986 42.6532 33.947C42.6532 33.5318 42.7346 33.1207 42.8926 32.737C43.0507 32.3534 43.2824 32.0049 43.5746 31.7113C43.8667 31.4177 44.2135 31.1847 44.5951 31.0258C44.9768 30.8669 45.3859 30.7852 45.799 30.7852H56.8744C57.5917 30.7855 58.2843 31.0489 58.8222 31.526C59.36 32.0032 59.7061 32.6612 59.7955 33.3766C59.8004 33.4258 59.8236 33.4714 59.8605 33.5042C59.8974 33.537 59.9453 33.5546 59.9945 33.5534L59.9959 33.5534C61.2543 33.5274 62.4804 33.9556 63.4516 34.7604C64.4228 35.5653 65.0747 36.6934 65.2892 37.94C66.8033 46.7946 69.8377 66.8911 68.3375 78.0637C67.8152 81.953 68.0526 87.8026 68.2501 91.0568C68.2697 91.3712 68.2274 91.6865 68.1256 91.9845C68.0237 92.2826 67.8644 92.5574 67.6567 92.7935C68.0984 92.9215 68.4734 93.2168 68.7027 93.6173C68.9319 94.0177 68.9975 94.492 68.8857 94.9401C68.7705 95.3994 68.4784 95.7939 68.0738 96.0368C67.6692 96.2797 67.1852 96.3511 66.7282 96.2354L32.6981 87.613C32.2411 87.4973 31.8486 87.2037 31.6069 86.7971C31.3652 86.3904 31.2942 85.904 31.4094 85.4446Z" fill="#3F3D56"/>
<path d="M32.9773 111.099C33.4244 110.648 33.7675 110.103 33.9825 109.504C34.1975 108.904 34.2791 108.265 34.2216 107.63C34.1642 106.996 33.969 106.382 33.6498 105.831C33.3306 105.281 32.8953 104.807 32.3744 104.444L39.2779 69.9805L31.6543 72.4406L26.1284 105.776C25.5796 106.696 25.3856 107.786 25.5832 108.84C25.7808 109.894 26.3562 110.839 27.2004 111.495C28.0446 112.151 29.099 112.473 30.1637 112.401C31.2284 112.328 32.2296 111.865 32.9773 111.099Z" fill="#9E616A"/>
<path d="M43.1714 38.184L38.4413 34.5953C38.4413 34.5953 34.2686 34.2983 33.5296 41.8616C32.7906 49.4249 31.2731 64.1644 31.2731 64.1644L24.0352 97.8588L34.0545 100.069L41.8069 63.707L46.4576 52.9088L43.1714 38.184Z" fill="#3F3D56"/>
<path d="M104.608 47.9393C104.017 47.7075 103.384 47.6086 102.751 47.6497C102.118 47.6907 101.503 47.8707 100.947 48.1769C100.391 48.4831 99.9085 48.908 99.5337 49.4218C99.1589 49.9357 98.9007 50.5258 98.7774 51.1507L64.582 58.5423L69.8688 64.5863L102.485 56.3756C103.543 56.5142 104.615 56.2579 105.498 55.6551C106.381 55.0524 107.013 54.1451 107.274 53.1052C107.536 52.0653 107.409 50.9651 106.918 50.013C106.426 49.0609 105.604 48.323 104.608 47.9393Z" fill="#9E616A"/>
<path d="M59.2071 66.6032C58.1144 65.5421 57.2927 64.2316 56.8117 62.783L50.5679 43.913C50.1118 42.5345 50.0405 41.0568 50.3618 39.6404C50.6831 38.2241 51.3847 36.9235 52.3903 35.88C53.3958 34.8365 54.6667 34.0901 56.0649 33.7221C57.4631 33.354 58.9348 33.3784 60.3202 33.7925C61.8844 34.2621 63.266 35.2063 64.2756 36.4958C65.2852 37.7853 65.8735 39.3569 65.9599 40.9955L66.7246 55.8451L91.9575 52.1312L98.516 58.191L98.1618 58.3123C96.7686 58.7894 64.876 69.6556 59.5965 66.8781C59.4543 66.8055 59.3232 66.713 59.2071 66.6032Z" fill="#3F3D56"/>
</svg>
