<svg width="316" height="150" viewBox="0 0 316 150" fill="none" xmlns="http://www.w3.org/2000/svg">
<g clip-path="url(#clip0_2327_1128)">
<path d="M70.7229 121.503L21.5657 120.938L16.4805 153.144L28.911 264.454H45.2078L48.9694 160.772L55.7497 266.431H72.4357L80.0458 146.081L70.7229 121.503Z" fill="#2F2E41"/>
<path d="M54.0546 37.0312H36.5589L33.1487 43.8115L16.4805 51.4661L22.4132 95.2288L17.893 124.045H74.3577L69.3103 90.7086L76.0906 50.5918L57.4448 43.2465L54.0546 37.0312Z" fill="#CBCBCB"/>
<path d="M112.617 143.076C111.854 141.519 111.506 139.919 111.546 138.519L103.34 124.148L110.293 120.443L117.868 135.42C118.999 136.247 120.05 137.502 120.813 139.059C122.556 142.616 122.135 146.398 119.872 147.507C117.608 148.617 114.361 146.633 112.617 143.076Z" fill="#FFB6B6"/>
<path d="M58.5321 48.664C58.5321 48.664 64.0678 42.9683 70.2778 46.9319C76.4877 50.8955 99.141 91.4551 99.141 91.4551L116.615 126.324L104.281 132.071L89.4 98.6805L58.1484 65.0495L58.5321 48.664Z" fill="#CBCBCB"/>
<path d="M44.5679 33.7257C53.2931 33.7257 60.3663 26.6525 60.3663 17.9273C60.3663 9.20209 53.2931 2.12891 44.5679 2.12891C35.8427 2.12891 28.7695 9.20209 28.7695 17.9273C28.7695 26.6525 35.8427 33.7257 44.5679 33.7257Z" fill="#FFB6B6"/>
<path d="M39.6091 30.6425C39.6822 32.1903 39.7188 32.9642 39.481 33.0577C38.7652 33.3392 29.5481 27.8959 28.4628 24.2723C27.9566 22.5822 28.3841 22.5485 28.0146 17.7404C27.6612 13.1419 27.265 13.1052 27.7334 11.9675C28.254 10.703 29.8439 9.14498 33.0236 6.029C34.2258 4.85082 34.827 4.26174 35.2065 3.95716C36.3566 3.03404 40.6412 -0.404879 44.57 0.0394171C46.2169 0.225655 45.9354 0.883163 52.0876 4.21943C52.6175 4.50679 53.3281 4.88613 54.3095 5.32166C56.6962 6.38092 58.1769 6.65554 58.9564 6.95093C63.6806 8.74118 62.2942 18.7138 61.8882 18.7709C61.7403 18.7918 61.7001 17.4986 60.9249 17.3917C60.2271 17.2954 59.7827 18.2774 59.1485 18.3131C57.4165 18.4107 59.3399 16.7527 55.1009 14.9113C53.453 14.1954 58.0383 17.4231 53.6733 17.3707C46.8473 17.2888 51.213 17.7233 48.6206 19.085C46.7301 20.0781 39.1247 14.6128 39.4337 16.3592C39.6517 17.591 40.5455 17.9456 40.4166 19.3255C40.2917 20.6624 39.287 22.1033 38.4007 22.1562C37.5839 22.205 37.1363 21.0588 36.8638 21.1684C36.5674 21.2878 36.893 22.7262 37.532 24.204C38.3433 26.0801 38.8276 26.0948 39.2555 27.5377C39.5016 28.3676 39.5374 29.1259 39.6091 30.6425Z" fill="#2F2E41"/>
<path d="M164.126 138.437L62.3322 112.538C55.8251 110.883 51.8781 104.242 53.5336 97.7347L66.1973 47.9611C67.8529 41.454 74.4938 37.507 81.0009 39.1625L182.795 65.0615C189.302 66.7171 193.249 73.358 191.593 79.8651L178.929 129.639C177.274 136.146 170.633 140.093 164.126 138.437Z" fill="white"/>
<path d="M164.127 138.437L62.333 112.538C59.0795 111.711 56.466 109.636 54.599 106.886C51.8826 102.885 51.1738 97.847 52.3663 93.16L62.9857 51.4214C64.1782 46.7344 67.2085 42.6479 71.5069 40.4313C74.4612 38.9077 77.7482 38.3349 81.0017 39.1626L182.795 65.0617C189.313 66.7199 193.252 73.3477 191.594 79.8652L178.93 129.639C177.275 136.146 170.634 140.093 164.127 138.437ZM80.7231 40.2578C74.8104 38.7535 76.3558 44.1084 74.8514 50.0211C67.512 78.8681 82.6923 108.692 110.34 119.721C125.264 125.675 137.677 130.542 137.677 130.542C158.352 135.802 179.375 123.306 184.635 102.632L190.499 79.5865C192.003 73.6739 188.429 67.6612 182.517 66.1568L80.7231 40.2578Z" fill="#3F3D56"/>
<path d="M58.3641 71.7881C56.9091 72.7307 55.3617 73.2666 53.9668 73.3939L40.6727 83.2497L36.168 76.7866L50.1385 67.4848C50.8248 66.2637 51.9463 65.0705 53.4014 64.1278C56.7255 61.9743 60.5311 61.9433 61.9015 64.0586C63.2719 66.1739 61.6882 69.6345 58.3641 71.7881Z" fill="#FFB6B6"/>
<path d="M27.2242 48.7891C27.2242 48.7891 17.0537 47.659 15.3587 51.6142C13.6636 55.5694 10.2734 95.1211 10.2734 95.1211L15.9237 104.727L52.9773 76.6831L45.4736 69.1794L29.5933 76.6831L27.2242 48.7891Z" fill="#CBCBCB"/>
<path d="M91.8273 84.3128C91.2444 84.0184 90.2484 83.8669 89.6042 83.9716L67.0783 87.6553C66.4334 87.7614 66.152 88.3188 66.45 88.8994L72.4625 100.624C72.762 101.206 73.5257 101.757 74.1715 101.857L101.08 105.981C101.726 106.08 102.624 105.783 103.084 105.318L112.394 95.9405C112.856 95.4761 112.759 94.861 112.176 94.5667L91.8273 84.3128Z" fill="#66B8B8"/>
<path d="M93.4461 68.4118C93.5413 68.0396 93.7194 67.803 93.9805 67.7017C94.2432 67.5942 94.4786 67.5671 94.6867 67.6203L95.8126 67.9082C96.3803 68.0534 96.7333 68.473 96.8716 69.1669C97.01 69.8609 97.5964 70.3401 98.6308 70.6047L101.925 71.5178C103.035 71.8017 103.683 71.581 103.869 70.8557C104.009 70.3069 103.441 69.7014 102.166 69.0392C101.598 68.7393 100.965 68.4264 100.269 68.1005C99.5746 67.7683 98.8921 67.4022 98.2216 67.0023C97.5574 66.6039 96.9596 66.1822 96.4283 65.7372C95.897 65.2922 95.5067 64.7691 95.2573 64.1677C95.0158 63.5616 94.983 62.9148 95.1588 62.2273C95.4831 60.9595 96.1833 60.1004 97.2595 59.6498C98.3373 59.193 99.9768 59.2461 102.178 59.8091L104.567 60.4805C105.86 60.8112 106.938 61.4431 107.801 62.3762C108.673 63.3047 108.981 64.2672 108.726 65.2637C108.631 65.6359 108.452 65.8757 108.189 65.9832C107.927 66.0908 107.694 66.1187 107.492 66.0671L106.367 65.7792C105.799 65.634 105.446 65.2144 105.307 64.5205C105.171 63.8202 104.585 63.3378 103.551 63.0733L100.717 62.2882C99.6074 62.0042 98.9596 62.225 98.7741 62.9503C98.6724 63.3477 98.9394 63.762 99.575 64.1934C100.217 64.6264 101.011 65.0681 101.958 65.5185C102.912 65.9642 103.859 66.4517 104.799 66.981C105.739 67.5103 106.479 68.1767 107.02 68.9802C107.568 69.779 107.723 70.642 107.486 71.5692C107.162 72.837 106.458 73.6985 105.374 74.1537C104.298 74.6042 102.662 74.5488 100.467 73.9874L97.6149 73.1975C96.3219 72.8668 95.2397 72.2372 94.3684 71.3088C93.4986 70.374 93.1912 69.4084 93.4461 68.4118ZM109.617 70.5315L111.485 63.2275C111.547 62.9815 111.687 62.792 111.902 62.6589C112.124 62.5275 112.364 62.4949 112.623 62.561L114.392 63.0135C114.632 63.0748 114.817 63.2163 114.949 63.4381C115.08 63.6599 115.114 63.8938 115.051 64.1397L113.179 71.4626C112.941 72.3898 112.967 73.1321 113.254 73.6895C113.548 74.2485 114.121 74.6368 114.972 74.8546L116.486 75.2418C117.337 75.4596 118.023 75.393 118.543 75.0421C119.069 74.6928 119.451 74.0546 119.688 73.1274L121.561 65.8045C121.624 65.5585 121.763 65.369 121.978 65.236C122.2 65.1045 122.434 65.0703 122.68 65.1332L124.44 65.5832C124.698 65.6494 124.893 65.7933 125.025 66.0151C125.156 66.2369 125.19 66.4708 125.127 66.7168L123.259 74.0207C122.817 75.749 121.967 76.9594 120.708 77.6521C119.45 78.3385 117.847 78.4325 115.898 77.934L114.195 77.4985C112.24 76.9984 110.875 76.1454 110.102 74.9396C109.336 73.7291 109.175 72.2597 109.617 70.5315ZM124.627 79.1584L127.639 67.3793C127.705 67.1207 127.849 66.9257 128.071 66.7943C128.293 66.6628 128.527 66.6286 128.773 66.6915L134.062 68.0441C136.799 68.7442 138.649 69.8019 139.61 71.2172C140.58 72.6278 140.766 74.5031 140.167 76.8431C139.571 79.1769 138.508 80.7296 136.98 81.5014C135.459 82.2748 133.329 82.3114 130.592 81.6113L125.303 80.2587C125.057 80.1958 124.867 80.0597 124.732 79.8506C124.599 79.6351 124.564 79.4044 124.627 79.1584ZM128.656 78.2636L131.172 78.9072C132.869 79.3411 134.102 79.3273 134.872 78.8656C135.642 78.404 136.218 77.4257 136.601 75.9309C136.985 74.4297 136.95 73.2918 136.496 72.5172C136.044 71.7363 134.969 71.1289 133.273 70.695L130.756 70.0513L128.656 78.2636ZM139.826 83.0256L140.179 81.6442C140.384 80.8432 140.726 80.1913 141.204 79.6886C141.688 79.1875 142.231 78.836 142.834 78.634C143.437 78.432 144.084 78.2918 144.776 78.2134C145.468 78.135 146.148 78.104 146.816 78.1202C147.492 78.1318 148.108 78.128 148.664 78.1089C149.927 78.0557 150.642 77.7043 150.808 77.0546C150.989 76.3482 150.929 75.8189 150.63 75.4668C150.33 75.1146 149.745 74.8272 148.874 74.6046L148.203 74.4328C146.985 74.1214 146.085 74.3045 145.502 74.9819C145.067 75.5022 144.565 75.6898 143.997 75.5446L142.871 75.2566C142.562 75.1776 142.351 75.0059 142.237 74.7416C142.123 74.4773 142.099 74.2158 142.166 73.9572C142.349 73.2382 142.789 72.6618 143.485 72.2282C144.188 71.7899 144.987 71.5305 145.881 71.4501C146.775 71.3696 147.667 71.4431 148.556 71.6706L149.834 71.9973C152.603 72.7054 154.159 73.9234 154.504 75.6511C154.639 76.3309 154.604 77.0712 154.399 77.8723C154.194 78.6733 153.856 79.3126 153.385 79.79C152.913 80.2675 152.376 80.6073 151.773 80.8093C151.172 81.005 150.522 81.1412 149.824 81.218C149.132 81.2963 148.45 81.3337 147.779 81.3301C147.11 81.3201 146.499 81.3184 145.946 81.3249C144.683 81.3512 143.984 81.6261 143.85 82.1496L151.703 84.158C151.962 84.2242 152.153 84.3673 152.279 84.5875C152.41 84.8093 152.444 85.0431 152.381 85.2891L152.154 86.1785C152.091 86.4245 151.945 86.6124 151.717 86.7422C151.497 86.8673 151.264 86.8984 151.018 86.8355L140.516 84.1496C140.27 84.0867 140.078 83.9467 139.938 83.7296C139.801 83.5062 139.763 83.2715 139.826 83.0256ZM154.055 83.671C154.152 83.2925 154.331 83.0527 154.592 82.9515C154.855 82.8439 155.09 82.8168 155.298 82.87L156.415 83.1556C157.001 83.3056 157.37 83.7829 157.52 84.5874C157.671 85.3919 158.348 85.9483 159.553 86.2564L160.906 86.6024C161.682 86.8008 162.277 86.8356 162.693 86.7068C163.109 86.578 163.385 86.2487 163.521 85.7189C163.656 85.1891 163.572 84.7678 163.269 84.4551C162.966 84.1424 162.427 83.8868 161.651 83.6884L159.948 83.2528C159.702 83.1899 159.512 83.0507 159.379 82.8353C159.248 82.6135 159.214 82.3796 159.277 82.1336L159.475 81.3578C159.535 81.1244 159.672 80.9412 159.888 80.8082C160.105 80.6688 160.33 80.629 160.563 80.6887L161.954 81.0444C162.793 81.2589 163.43 81.3042 163.865 81.1802C164.306 81.0579 164.595 80.7318 164.73 80.202C164.866 79.6721 164.768 79.2508 164.438 78.938C164.116 78.6204 163.536 78.3544 162.697 78.1398L161.997 77.9607C160.786 77.651 159.886 77.8341 159.296 78.5099C158.861 79.0302 158.359 79.2177 157.792 79.0725L156.666 78.7846C156.363 78.7072 156.155 78.5363 156.041 78.272C155.927 78.0077 155.903 77.7462 155.969 77.4876C156.153 76.7685 156.593 76.1922 157.288 75.7586C157.986 75.3186 158.781 75.0585 159.675 74.978C160.57 74.8976 161.461 74.9711 162.351 75.1986L163.656 75.5325C167.453 76.5036 168.999 78.3705 168.292 81.1331C167.997 82.2874 167.333 83.082 166.301 83.517C167.132 84.3947 167.394 85.4327 167.087 86.6311C166.715 88.0881 165.979 89.0221 164.879 89.433C163.787 89.8392 162.346 89.8133 160.554 89.3551L158.539 88.8397C157.126 88.4784 155.954 87.8088 155.021 86.8311C154.09 85.8471 153.768 84.7937 154.055 83.671Z" fill="#2F2E41"/>
<path d="M-17 149.19C-17 149.85 -16.8636 150.38 -16.6938 150.38H152.694C152.864 150.38 153 149.85 153 149.19C153 148.53 152.864 148 152.694 148H-16.6938C-16.8636 148 -17 148.53 -17 149.19Z" fill="#CCCCCC"/>
<path d="M124.883 98.6118L127.293 89.1886C127.344 88.9918 127.455 88.8402 127.627 88.7337C127.8 88.6273 127.984 88.5993 128.181 88.6496L130.406 89.2187C130.583 89.2639 130.752 89.3823 130.912 89.5739C131.073 89.7655 131.191 89.9758 131.267 90.2049L134.04 98.4056L135.843 91.359C135.893 91.1622 136.004 91.0131 136.175 90.9117C136.351 90.8116 136.537 90.7867 136.734 90.837L138.036 91.17C138.233 91.2203 138.382 91.331 138.483 91.5021C138.59 91.6745 138.616 91.8641 138.563 92.071L136.153 101.494C136.103 101.691 135.989 101.842 135.812 101.947C135.641 102.049 135.457 102.074 135.26 102.024L132.747 101.381C132.55 101.331 132.366 101.211 132.194 101.022C132.023 100.828 131.902 100.617 131.832 100.389L129.307 92.8243L127.646 99.3184C127.596 99.5152 127.482 99.6662 127.304 99.7713C127.133 99.8727 126.949 99.8983 126.753 99.8479L125.42 99.5072C125.224 99.4569 125.072 99.3455 124.966 99.1732C124.86 98.9957 124.833 98.8086 124.883 98.6118ZM138.944 101.966C138.343 101.038 138.223 99.8677 138.584 98.4548C138.946 97.0369 139.614 96.0678 140.585 95.5476C141.558 95.0223 142.782 94.9481 144.255 95.3249C145.733 95.703 146.773 96.356 147.375 97.284C147.977 98.2069 148.097 99.3773 147.735 100.795C147.373 102.208 146.706 103.177 145.733 103.702C144.76 104.228 143.534 104.301 142.056 103.923C140.583 103.546 139.545 102.894 138.944 101.966ZM142.183 97.2786C141.765 97.6073 141.442 98.2208 141.212 99.1189C140.982 100.017 140.971 100.713 141.178 101.207C141.385 101.701 141.824 102.033 142.495 102.205C143.172 102.378 143.719 102.298 144.138 101.964C144.561 101.631 144.888 101.016 145.118 100.118C145.347 99.2196 145.356 98.5255 145.142 98.0355C144.934 97.5468 144.492 97.216 143.816 97.043C143.144 96.8714 142.6 96.9499 142.183 97.2786ZM149.658 96.8681L151.112 97.2398C151.328 97.2953 151.517 97.4106 151.676 97.5858C151.837 97.7559 151.933 97.9497 151.963 98.1672L152.823 103.411L156.088 99.2222C156.219 99.046 156.396 98.9219 156.619 98.8499C156.843 98.7727 157.063 98.7619 157.28 98.8174L158.741 99.191C158.918 99.2362 159.017 99.3315 159.039 99.4769C159.051 99.5338 159.044 99.602 159.019 99.6814C158.999 99.7571 158.953 99.8421 158.881 99.9365L153.83 106.064C153.689 106.237 153.504 106.362 153.275 106.438C153.052 106.51 152.837 106.519 152.631 106.466L151.518 106.182C151.311 106.129 151.127 106.017 150.966 105.847C150.807 105.672 150.707 105.474 150.666 105.254L149.178 97.4548C149.156 97.3309 149.154 97.2311 149.174 97.1554C149.239 96.898 149.401 96.8023 149.658 96.8681ZM164.805 100.831C164.766 100.729 164.762 100.621 164.792 100.505C164.821 100.389 164.937 100.281 165.14 100.183L167.393 99.0654C167.722 98.8967 168.123 98.8704 168.599 98.9867L169.712 99.2712C169.919 99.3241 170.075 99.4393 170.18 99.6167C170.285 99.7941 170.312 99.9813 170.262 100.178L167.852 109.601C167.802 109.798 167.685 109.948 167.503 110.052C167.321 110.151 167.132 110.175 166.936 110.125L165.528 109.765C165.331 109.715 165.179 109.606 165.071 109.438C164.97 109.267 164.944 109.083 164.995 108.887L166.866 101.568L165.833 101.981C165.714 102.026 165.593 102.019 165.468 101.96C165.343 101.901 165.252 101.816 165.194 101.704L164.805 100.831Z" fill="#2F2E41"/>
</g>
<defs>
<clipPath id="clip0_2327_1128">
<rect width="315.405" height="150" fill="white"/>
</clipPath>
</defs>
</svg>
