<svg width="239" height="217" viewBox="0 0 239 217" fill="none" xmlns="http://www.w3.org/2000/svg">
<g clip-path="url(#clip0_3340_260)">
<path d="M237.882 194.28C237.286 193.518 236.477 192.953 235.559 192.658C234.64 192.363 233.655 192.351 232.73 192.624L232.528 192.685L230.714 199.807C230.442 198.745 229.861 196.349 229.494 194.004L229.462 193.81L229.282 193.889C227.386 194.732 225.603 195.813 223.976 197.106C221.093 199.431 218.749 202.359 217.106 205.687C215.462 209.015 214.559 212.663 214.459 216.378L214.456 216.515L214.453 216.6L214.693 216.515L219.848 214.662C222.13 214.864 224.429 214.551 226.575 213.746C228.722 212.941 230.663 211.664 232.256 210.009C234.339 207.8 235.768 204.959 237.149 202.21C237.553 201.409 237.967 200.582 238.391 199.788C238.863 198.924 239.067 197.937 238.977 196.956C238.886 195.974 238.505 195.042 237.882 194.28Z" fill="#F9F6F6"/>
<path d="M106.245 12.6526C106.348 13.1918 106.568 13.7016 106.888 14.1461C107.209 14.5906 107.623 14.9591 108.1 15.2255C108.577 15.4919 109.107 15.6497 109.652 15.688C110.197 15.7262 110.743 15.6439 111.253 15.4468L126.659 33.4689L128.609 26.8159L113.336 10.3277C112.95 9.48857 112.271 8.82101 111.428 8.45149C110.585 8.08196 109.637 8.03615 108.763 8.32274C107.889 8.60933 107.15 9.20842 106.686 10.0065C106.221 10.8045 106.065 11.746 106.245 12.6526Z" fill="#FFB8B8"/>
<path d="M168.336 212.205H163.238L160.812 192.43H168.337L168.336 212.205Z" fill="#FFB6B6"/>
<path d="M168.199 210.531L162.755 208.305L162.6 208.24L159.594 210.531C157.897 210.531 156.27 211.209 155.07 212.416C153.87 213.623 153.196 215.259 153.195 216.966V217.175H169.634V210.531H168.199Z" fill="#2F2E41"/>
<path d="M204.704 212.205H199.605L197.18 192.43H204.705L204.704 212.205Z" fill="#FFB6B6"/>
<path d="M204.57 210.531L199.127 208.305L198.971 208.24L195.965 210.531C194.268 210.531 192.641 211.209 191.441 212.416C190.241 213.623 189.567 215.259 189.566 216.966V217.175H206.005V210.531H204.57Z" fill="#2F2E41"/>
<path d="M192.671 94.1172C192.671 94.1172 199.066 100.807 199.066 106.304C199.066 111.801 197.467 119.349 199.066 121.001C200.664 122.653 202.663 124.662 200.265 127.073C197.867 129.485 196.667 130.691 198.266 132.298C199.865 133.906 199.066 162.039 199.066 162.039L207.459 199.819H196.885L183.478 162.039L179.881 130.691L168.248 160.834L169.533 200.143L158.478 199.818L153.902 158.02C153.902 158.02 160.697 118.26 159.498 117.241C158.299 116.222 159.498 114.165 159.498 114.165L162.695 98.94L192.671 94.1172Z" fill="#2F2E41"/>
<path d="M180.152 46.6838C180.152 46.6838 182.327 38.0678 172.309 35.5975C162.292 33.1272 133.656 29.9535 133.656 29.9535L119.185 14.5117L114.281 21.6728L130.504 41.9451L168.943 49.8847L180.152 46.6838Z" fill="#3F3D56"/>
<path d="M116.665 21.1446C117.115 20.5591 117.467 19.904 117.707 19.2049L119.782 14.0769L119.243 14.0543C118.498 13.9132 117.731 13.9322 116.993 14.1099C116.256 14.2877 115.564 14.6202 114.963 15.0856C114.362 15.5511 113.865 16.139 113.506 16.8108C113.147 17.4826 112.933 18.2232 112.878 18.984C112.81 19.6421 112.928 20.3062 113.217 20.9002C113.365 21.1947 113.58 21.45 113.844 21.645C114.108 21.84 114.415 21.9692 114.739 22.0222C115.106 22.0419 115.473 21.9725 115.809 21.8198C116.144 21.6671 116.438 21.4355 116.665 21.1446Z" fill="#E6E6E6"/>
<path d="M160.656 100.994L159.457 109.734C159.457 109.734 161.855 112.324 163.054 112C164.253 111.676 168.65 109.792 168.65 109.792C168.65 109.792 173.845 112.648 176.643 112.971C179.441 113.295 194.229 111.353 194.628 110.382C195.028 109.41 199.673 105.609 199.673 105.609L197.826 94.5195L160.656 100.994Z" fill="#E6E6E6"/>
<path d="M199.596 70.4177C199.596 70.4177 198.581 78.8456 199.381 79.6213C200.18 80.393 198.581 85.2761 196.983 88.4914C195.384 91.7066 198.182 92.1086 198.182 94.52C198.182 96.9314 199.381 105.773 199.381 105.773C199.381 105.773 186.991 106.577 184.992 104.568C182.994 102.558 179.797 104.166 175.4 108.587C171.004 113.008 161.456 109.39 159.457 107.381C157.459 105.371 161.012 98.1371 162.211 96.7345C163.41 95.3318 161.056 96.9555 159.857 92.5104C158.658 88.0654 161.012 88.4914 163.01 86.4818C165.009 84.4723 163.01 80.8552 161.412 77.238C159.813 73.6209 161.012 46.6932 161.012 40.2627C161.012 33.8322 169.805 33.0284 169.805 33.0284L173.286 28.6275L175.844 25.3921L180.856 25.1912L180.988 25.1872L185.836 24.9902L188.19 27.7473L193.385 33.8322L199.381 35.0379C204.177 36.6455 202.978 46.6932 202.978 46.6932L199.596 70.4177Z" fill="#3F3D56"/>
<path d="M180.61 23.4474C186.284 23.4474 190.883 18.822 190.883 13.1163C190.883 7.41055 186.284 2.78516 180.61 2.78516C174.936 2.78516 170.336 7.41055 170.336 13.1163C170.336 18.822 174.936 23.4474 180.61 23.4474Z" fill="#FFB6B6"/>
<path d="M192.52 9.64058C189.694 7.89792 190.056 3.34141 187.333 1.75028C185.98 0.965838 184.459 0.521763 182.898 0.455854C181.337 0.389945 179.784 0.704154 178.37 1.37173C176.453 0.546723 174.155 1.20511 172.621 2.6949C171.087 4.18469 170.256 6.38247 170.011 8.59274C169.835 10.8135 169.993 13.0483 170.482 15.2213C170.634 14.3482 170.786 13.4752 170.939 12.6021L179.038 10.8221C178.321 11.4698 177.604 12.1176 176.887 12.7654C180.555 13.6052 184.404 12.9999 187.642 11.0741C191.168 12.6636 190.529 16.2332 187.434 20.9705C188.633 22.98 195.74 11.6262 192.52 9.64058Z" fill="#2F2E41"/>
<path d="M201.012 106.936C201.482 106.658 201.887 106.279 202.196 105.827C202.506 105.374 202.713 104.859 202.803 104.318C202.893 103.776 202.863 103.221 202.717 102.692C202.571 102.163 202.311 101.673 201.956 101.256L213.694 80.6289L206.807 81.0052L196.462 100.994C195.804 101.64 195.406 102.506 195.341 103.429C195.277 104.351 195.551 105.265 196.112 105.997C196.673 106.73 197.481 107.23 198.384 107.403C199.287 107.576 200.222 107.41 201.012 106.936Z" fill="#FFB8B8"/>
<path d="M187.789 34.6351C187.789 34.6351 200.221 30.616 203.419 40.2618C206.616 49.9075 217.365 76.0314 217.365 76.0314L205.817 99.7439L200.621 94.1172L206.174 77.639L190.187 53.5247L187.789 34.6351Z" fill="#3F3D56"/>
<path d="M206.217 97.3237C205.843 96.6869 205.368 96.1157 204.811 95.6322L200.845 91.793L200.624 92.2878C200.217 92.9317 199.951 93.6548 199.841 94.4096C199.732 95.1645 199.783 95.934 199.99 96.6678C200.197 97.4016 200.556 98.0832 201.043 98.6677C201.53 99.2523 202.135 99.7267 202.817 100.06C203.4 100.367 204.057 100.504 204.713 100.454C205.04 100.425 205.355 100.319 205.633 100.144C205.911 99.9696 206.144 99.7312 206.313 99.4485C206.468 99.1125 206.54 98.7441 206.523 98.3743C206.506 98.0045 206.401 97.6441 206.217 97.3237Z" fill="#E6E6E6"/>
</g>
<defs>
<clipPath id="clip0_3340_260">
<rect width="239" height="217" fill="white"/>
</clipPath>
</defs>
</svg>
