<svg width="316" height="150" viewBox="0 0 316 150" fill="none" xmlns="http://www.w3.org/2000/svg">
<g clip-path="url(#clip0_2937_127)">
<mask id="mask0_2937_127" style="mask-type:luminance" maskUnits="userSpaceOnUse" x="0" y="0" width="316" height="150">
<path d="M315.405 0H0V150H315.405V0Z" fill="white"/>
</mask>
<g mask="url(#mask0_2937_127)">
<path d="M273.915 53.7354H246.574V10.1064L273.915 18.8322V53.7354Z" fill="#2F2E41"/>
<path d="M275.66 101.437L239.593 122.96L231.449 156.118L235.521 258.501H253.38L257.336 159.899L265.253 258.501H283.392L287.979 147.775C289.243 139.728 288.246 131.489 285.099 123.975L275.66 101.437Z" fill="#2F2E41"/>
<path d="M267.521 35.7025L252.396 34.5391L248.324 42.6831L236.69 45.5917L233.781 81.6583C239.535 96.6075 243.147 110.893 239.598 122.96L283.809 120.633L276.428 100.674C276.428 100.674 276.247 93.2927 280.319 83.4034C284.391 73.5142 277.992 47.9186 277.992 47.9186L268.684 45.5917L267.521 35.7025Z" fill="#71B8B8"/>
<path d="M165.676 49.7315C167.149 49.7772 168.51 49.4864 169.58 48.9655L183.582 50.2864L184.016 43.6052L169.765 42.9846C168.729 42.3984 167.389 42.0239 165.916 41.9783C162.552 41.8741 159.771 43.5252 159.704 45.6662C159.638 47.8072 162.312 49.6273 165.676 49.7315Z" fill="#A0616A"/>
<path d="M248.506 70.1281C248.506 70.1281 248.012 48.8439 243.343 45.6493C241.418 44.3318 211.816 44.0325 210.737 43.9207C204.087 43.2315 199.354 40.5911 193.755 40.3017C180.108 39.5964 173.209 42.9079 173.209 42.9079L172.969 49.7413L248.506 70.1281Z" fill="#71B8B8"/>
<path d="M258.667 33.9868C265.337 33.9868 270.744 28.5798 270.744 21.9099C270.744 15.24 265.337 9.83301 258.667 9.83301C251.997 9.83301 246.59 15.24 246.59 21.9099C246.59 28.5798 251.997 33.9868 258.667 33.9868Z" fill="#A0616A"/>
<path d="M255.006 3.92712C252.408 5.56459 250.506 4.39225 248.65 5.21809C245.025 6.83161 238.905 18.1644 239.457 22.909C240.238 29.6286 242.708 29.9053 242.635 34.7263C242.516 42.4678 241.901 42.4357 243.486 45.1388C245.25 48.1452 255.237 47.3289 257.091 43.252C257.457 42.4476 253.394 42.764 248.905 32.2118C246.652 26.9168 248.131 22.0917 248.905 19.9957C249.086 19.505 249.169 16.0212 249.555 16.4078C252.945 19.798 254.846 17.3198 256.893 17.0354C261.094 16.4517 264.258 19.8411 265.532 18.6243C266.481 17.7188 265.271 15.3248 265.731 15.1486C266.221 14.9607 267.845 17.5871 268.909 20.4118C269.594 22.2334 269.937 23.1442 269.902 24.1854C269.792 27.4008 268.972 36.5175 267.52 39.1925C264.382 44.9691 268.333 47.1488 270.795 46.7277C272.785 46.3874 281.581 47.7269 282.063 46.7548C282.491 45.8888 281.512 36.9806 280.482 28.6989C279.245 18.7448 274.286 9.59748 266.51 3.26084C266.054 2.88924 265.714 2.63428 265.532 2.53686C265.102 2.30612 260.661 0.000379384 257.389 1.84173C256.185 2.5196 256.381 3.06039 255.006 3.92712Z" fill="#2F2E41"/>
<path d="M165 149C165 149.555 165.384 150 165.863 150H643.137C643.616 150 644 149.555 644 149C644 148.445 643.616 148 643.137 148H165.863C165.384 148 165 148.445 165 149Z" fill="#CCCCCC"/>
<rect x="130" y="35.6079" width="130.428" height="74.5051" rx="2.5" transform="rotate(14.2907 130 35.6079)" fill="white" stroke="#3F3D56"/>
<g clip-path="url(#clip1_2937_127)">
<path d="M150.205 84.3512C149.64 83.0277 148.175 81.3593 146.941 80.6222L103.731 54.8779C102.493 54.1418 101.228 54.6831 100.907 56.0849L94.4136 84.3855C94.0922 85.791 94.5988 87.804 95.5462 88.889L135.069 134.015C136.018 135.099 137.953 135.872 139.389 135.74L168.391 133.135C169.829 133.007 170.538 131.833 169.972 130.509L150.205 84.3512Z" fill="#3F3D56"/>
<path d="M184.386 103.187C183.038 102.684 180.819 102.594 179.434 102.98L130.995 116.525C129.608 116.914 129.128 118.204 129.922 119.403L145.942 143.619C146.738 144.821 148.546 145.842 149.985 145.904L209.92 148.394C211.359 148.454 213.253 147.585 214.148 146.455L232.258 123.653C233.157 122.523 232.795 121.2 231.447 120.697L184.386 103.187Z" fill="#3F3D56"/>
<path d="M219.088 116.111C217.67 116.359 215.711 117.404 214.711 118.437L179.77 154.617C178.771 155.654 179.009 157.009 180.3 157.642L206.366 170.433C207.661 171.068 209.737 171.035 211.01 170.36L263.976 142.201C265.248 141.525 266.443 139.817 266.643 138.39L270.737 109.56C270.941 108.131 269.96 107.172 268.542 107.42L219.088 116.111Z" fill="#3F3D56"/>
<path d="M223.271 126.821L223.271 126.821C223.041 126.705 222.701 126.605 222.332 126.548C221.963 126.492 221.608 126.485 221.354 126.527C221.354 126.527 221.353 126.527 221.353 126.527L198.828 130.21C198.828 130.21 198.828 130.21 198.828 130.21C198.635 130.242 198.555 130.328 198.526 130.386C198.496 130.445 198.475 130.559 198.564 130.733L198.564 130.733L204.577 142.457L223.271 126.821ZM223.271 126.821L243.62 137.075C243.794 137.162 243.842 137.267 243.852 137.33C243.862 137.393 243.848 137.509 243.709 137.649L243.708 137.65L234.398 147.027L234.398 147.028M223.271 126.821L234.398 147.028M234.398 147.028C234.237 147.19 233.974 147.345 233.664 147.448C233.354 147.55 233.049 147.583 232.825 147.548L205.917 143.424M234.398 147.028L205.917 143.424M205.917 143.424C205.692 143.39 205.413 143.268 205.149 143.077M205.917 143.424L205.149 143.077M205.149 143.077C204.885 142.887 204.681 142.66 204.577 142.457L205.149 143.077Z" stroke="#71B8B8" stroke-opacity="0.3"/>
<path d="M126.271 103.821L126.271 103.821C126.041 103.705 125.701 103.605 125.332 103.548C124.963 103.492 124.608 103.485 124.354 103.527C124.354 103.527 124.353 103.527 124.353 103.527L101.828 107.21C101.828 107.21 101.828 107.21 101.828 107.21C101.635 107.242 101.555 107.328 101.526 107.386C101.496 107.445 101.475 107.559 101.564 107.733L101.564 107.733L107.577 119.457L126.271 103.821ZM126.271 103.821L146.62 114.075C146.794 114.162 146.842 114.267 146.852 114.33C146.862 114.393 146.848 114.509 146.709 114.649L146.708 114.65L137.398 124.027L137.398 124.028M126.271 103.821L137.398 124.028M137.398 124.028C137.237 124.19 136.974 124.345 136.664 124.448C136.354 124.55 136.049 124.583 135.825 124.548L108.917 120.424M137.398 124.028L108.917 120.424M108.917 120.424C108.692 120.39 108.413 120.268 108.149 120.077M108.917 120.424L108.149 120.077M108.149 120.077C107.885 119.887 107.681 119.66 107.577 119.457L108.149 120.077Z" stroke="#71B8B8" stroke-opacity="0.3"/>
<path d="M195.156 123.906L195.156 123.906C194.904 123.96 194.577 124.097 194.255 124.285C193.932 124.473 193.653 124.691 193.481 124.884C193.481 124.884 193.481 124.884 193.481 124.884L178.293 141.922C178.293 141.922 178.293 141.922 178.293 141.922C178.163 142.068 178.155 142.185 178.169 142.249C178.183 142.313 178.238 142.415 178.416 142.494L178.417 142.494L190.468 147.822L195.156 123.906ZM195.156 123.906L217.423 119.069C217.614 119.028 217.717 119.078 217.764 119.121C217.812 119.164 217.874 119.263 217.854 119.46L217.854 119.46L216.52 132.607L216.52 132.608M195.156 123.906L216.52 132.608M216.52 132.608C216.497 132.834 216.39 133.121 216.214 133.396C216.037 133.671 215.821 133.888 215.625 134.002L192.118 147.73M216.52 132.608L192.118 147.73M192.118 147.73C191.922 147.845 191.627 147.926 191.303 147.944M192.118 147.73L191.303 147.944M191.303 147.944C190.978 147.962 190.677 147.914 190.468 147.822L191.303 147.944Z" stroke="#71B8B8" stroke-opacity="0.3"/>
<path d="M135.156 114.906L135.156 114.906C134.904 114.96 134.577 115.097 134.255 115.285C133.932 115.473 133.653 115.691 133.481 115.884C133.481 115.884 133.481 115.884 133.481 115.884L118.293 132.922C118.293 132.922 118.293 132.922 118.293 132.922C118.163 133.068 118.155 133.185 118.169 133.249C118.183 133.313 118.238 133.415 118.416 133.494L118.417 133.494L130.468 138.822L135.156 114.906ZM135.156 114.906L157.423 110.069C157.614 110.028 157.717 110.078 157.764 110.121C157.812 110.164 157.874 110.263 157.854 110.46L157.854 110.46L156.52 123.607L156.52 123.608M135.156 114.906L156.52 123.608M156.52 123.608C156.497 123.834 156.39 124.121 156.214 124.396C156.037 124.671 155.821 124.888 155.625 125.002L132.118 138.73M156.52 123.608L132.118 138.73M132.118 138.73C131.922 138.845 131.627 138.926 131.303 138.944M132.118 138.73L131.303 138.944M131.303 138.944C130.978 138.962 130.677 138.914 130.468 138.822L131.303 138.944Z" stroke="#71B8B8" stroke-opacity="0.3"/>
<path d="M155.024 114.99L155.024 114.99C154.768 114.96 154.415 114.982 154.049 115.056C153.683 115.129 153.347 115.244 153.122 115.37C153.122 115.37 153.122 115.37 153.122 115.371L133.22 126.544C133.22 126.544 133.219 126.544 133.219 126.544C133.049 126.64 133.004 126.748 132.996 126.813C132.988 126.878 133.007 126.993 133.15 127.126L133.15 127.126L142.814 136.082L155.024 114.99ZM155.024 114.99L177.654 117.657C177.848 117.68 177.929 117.761 177.96 117.817C177.991 117.873 178.017 117.987 177.934 118.166L177.934 118.167L172.398 130.165L172.397 130.166M155.024 114.99L172.397 130.166M172.397 130.166C172.302 130.373 172.108 130.609 171.852 130.812C171.596 131.014 171.321 131.149 171.098 131.194L144.405 136.532M172.397 130.166L144.405 136.532M144.405 136.532C144.182 136.577 143.877 136.558 143.564 136.469M144.405 136.532L143.564 136.469M143.564 136.469C143.251 136.381 142.982 136.237 142.814 136.083L143.564 136.469Z" stroke="#71B8B8" stroke-opacity="0.3"/>
<path d="M187.1 135.947L187.1 135.947C187.326 136.071 187.662 136.182 188.029 136.251C188.396 136.32 188.75 136.339 189.006 136.306C189.006 136.306 189.006 136.306 189.006 136.306L211.644 133.393C211.644 133.393 211.644 133.393 211.644 133.393C211.838 133.368 211.921 133.285 211.952 133.227C211.984 133.17 212.009 133.056 211.926 132.88L211.926 132.88L206.316 120.957L187.1 135.947ZM187.1 135.947L167.113 125.005C166.942 124.911 166.897 124.806 166.889 124.743C166.881 124.679 166.899 124.563 167.043 124.428L167.044 124.427L176.668 115.373L176.669 115.372M187.1 135.947L176.669 115.372M176.669 115.372C176.834 115.216 177.103 115.069 177.416 114.978C177.73 114.886 178.035 114.864 178.258 114.906L205.009 119.945M176.669 115.372L205.009 119.945M205.009 119.945C205.233 119.987 205.508 120.119 205.766 120.318M205.009 119.945L205.766 120.318M205.766 120.318C206.023 120.517 206.219 120.751 206.316 120.957L205.766 120.318Z" stroke="#71B8B8" stroke-opacity="0.3"/>
<path d="M175.13 133.297L175.13 133.297C175.26 133.52 175.49 133.789 175.769 134.037C176.048 134.286 176.342 134.484 176.578 134.588C176.578 134.588 176.578 134.588 176.578 134.588L197.475 143.767C197.476 143.767 197.476 143.767 197.476 143.767C197.655 143.846 197.768 143.817 197.825 143.784C197.882 143.751 197.962 143.667 197.982 143.473L197.982 143.473L199.324 130.365L175.13 133.297ZM175.13 133.297L163.649 113.615C163.551 113.446 163.567 113.333 163.593 113.274C163.619 113.216 163.694 113.126 163.887 113.084L163.888 113.084L176.803 110.29L176.804 110.29M175.13 133.297L176.804 110.29M176.804 110.29C177.026 110.241 177.332 110.255 177.648 110.337C177.964 110.42 178.237 110.559 178.407 110.71L198.727 128.824M176.804 110.29L198.727 128.824M198.727 128.824C198.897 128.975 199.065 129.23 199.182 129.533M198.727 128.824L199.182 129.533M199.182 129.533C199.3 129.836 199.347 130.138 199.324 130.365L199.182 129.533Z" stroke="#71B8B8" stroke-opacity="0.3"/>
<path d="M230.13 144.297L230.13 144.297C230.26 144.52 230.49 144.789 230.769 145.037C231.048 145.286 231.342 145.484 231.578 145.588C231.578 145.588 231.578 145.588 231.578 145.588L252.475 154.767C252.476 154.767 252.476 154.767 252.476 154.767C252.655 154.846 252.768 154.817 252.825 154.784C252.882 154.751 252.962 154.667 252.982 154.473L252.982 154.473L254.324 141.365L230.13 144.297ZM230.13 144.297L218.649 124.615C218.551 124.446 218.567 124.333 218.593 124.274C218.619 124.216 218.694 124.126 218.887 124.084L218.888 124.084L231.803 121.29L231.804 121.29M230.13 144.297L231.804 121.29M231.804 121.29C232.026 121.241 232.332 121.255 232.648 121.337C232.964 121.42 233.237 121.559 233.407 121.71L253.727 139.824M231.804 121.29L253.727 139.824M253.727 139.824C253.897 139.975 254.065 140.23 254.182 140.533M253.727 139.824L254.182 140.533M254.182 140.533C254.3 140.836 254.347 141.138 254.324 141.365L254.182 140.533Z" stroke="#71B8B8" stroke-opacity="0.3"/>
<path d="M114.13 124.297L114.13 124.297C114.26 124.52 114.49 124.789 114.769 125.037C115.048 125.286 115.342 125.484 115.578 125.588C115.578 125.588 115.578 125.588 115.578 125.588L136.475 134.767C136.476 134.767 136.476 134.767 136.476 134.767C136.655 134.846 136.768 134.817 136.825 134.784C136.882 134.751 136.962 134.667 136.982 134.473L136.982 134.473L138.324 121.365L114.13 124.297ZM114.13 124.297L102.649 104.615C102.551 104.446 102.567 104.333 102.593 104.274C102.619 104.216 102.694 104.126 102.887 104.084L102.888 104.084L115.803 101.29L115.804 101.29M114.13 124.297L115.804 101.29M115.804 101.29C116.026 101.241 116.332 101.255 116.648 101.337C116.964 101.42 117.237 101.559 117.407 101.71L137.727 119.824M115.804 101.29L137.727 119.824M137.727 119.824C137.897 119.975 138.065 120.23 138.182 120.533M137.727 119.824L138.182 120.533M138.182 120.533C138.3 120.836 138.347 121.138 138.324 121.365L138.182 120.533Z" stroke="#71B8B8" stroke-opacity="0.3"/>
<path d="M253.718 136.397L253.718 136.397C253.73 136.14 253.682 135.789 253.582 135.429C253.483 135.069 253.344 134.743 253.202 134.527C253.202 134.527 253.202 134.527 253.202 134.527L240.629 115.477C240.629 115.477 240.629 115.477 240.629 115.477C240.521 115.314 240.411 115.276 240.345 115.273C240.279 115.27 240.167 115.298 240.045 115.45L240.044 115.45L231.804 125.731L253.718 136.397ZM253.718 136.397L252.682 159.16C252.673 159.355 252.597 159.441 252.544 159.476C252.49 159.511 252.378 159.546 252.193 159.476L252.193 159.476L239.828 154.814L239.827 154.814M253.718 136.397L239.827 154.814M239.827 154.814C239.614 154.734 239.364 154.557 239.144 154.316C238.924 154.075 238.77 153.811 238.709 153.592L231.47 127.351M239.827 154.814L231.47 127.351M231.47 127.351C231.409 127.131 231.406 126.826 231.472 126.507M231.47 127.351L231.472 126.507M231.472 126.507C231.538 126.189 231.661 125.91 231.804 125.732L231.472 126.507Z" stroke="#71B8B8" stroke-opacity="0.3"/>
<path d="M206.718 132.397L206.718 132.397C206.73 132.14 206.682 131.789 206.582 131.429C206.483 131.069 206.344 130.743 206.202 130.527C206.202 130.527 206.202 130.527 206.202 130.527L193.629 111.477C193.629 111.477 193.629 111.477 193.629 111.477C193.521 111.314 193.411 111.276 193.345 111.273C193.279 111.27 193.167 111.298 193.045 111.45L193.044 111.45L184.804 121.731L206.718 132.397ZM206.718 132.397L205.682 155.16C205.673 155.355 205.597 155.441 205.544 155.476C205.49 155.511 205.378 155.546 205.193 155.476L205.193 155.476L192.828 150.814L192.827 150.814M206.718 132.397L192.827 150.814M192.827 150.814C192.614 150.734 192.364 150.557 192.144 150.316C191.924 150.075 191.77 149.811 191.709 149.592L184.47 123.351M192.827 150.814L184.47 123.351M184.47 123.351C184.409 123.131 184.406 122.826 184.472 122.507M184.47 123.351L184.472 122.507M184.472 122.507C184.538 122.189 184.661 121.91 184.804 121.732L184.472 122.507Z" stroke="#71B8B8" stroke-opacity="0.3"/>
</g>
<path d="M156.496 81.3743C155.913 81.0799 154.917 80.9284 154.273 81.0331L131.747 84.7168C131.102 84.8229 130.821 85.3803 131.119 85.9609L137.132 97.6855C137.431 98.2675 138.195 98.8185 138.841 98.9185L165.749 103.043C166.395 103.142 167.293 102.845 167.753 102.38L177.063 93.002C177.525 92.5376 177.428 91.9225 176.845 91.6282L156.496 81.3743Z" fill="#66B8B8"/>
<path d="M140.004 56.5338C139.995 56.4668 140 56.3955 140.019 56.3198C140.04 56.239 140.106 56.1592 140.217 56.0802C140.335 55.9975 140.482 55.9787 140.659 56.0239L142.317 56.4478C142.513 56.4981 142.678 56.6127 142.809 56.7915C142.941 56.9704 143.016 57.1722 143.033 57.3972L143.498 63.9028L146.878 58.3806C147.147 57.9386 147.509 57.7757 147.963 57.8919L149.356 58.2481C149.81 58.3642 150.049 58.6807 150.072 59.1975L150.386 65.6644L153.917 60.1808C154.041 59.992 154.203 59.8508 154.405 59.7571C154.606 59.6635 154.805 59.6418 155.002 59.6922L156.66 60.1161C156.831 60.16 156.946 60.2459 157.005 60.3738C157.07 60.4979 157.092 60.6004 157.072 60.6811C157.052 60.7568 157.025 60.8223 156.989 60.8777L151.197 69.4603C150.879 69.9272 150.45 70.0917 149.91 69.9536L148.813 69.6729C148.253 69.5296 147.958 69.18 147.928 68.6241L147.571 62.3237L144.234 67.6794C143.936 68.1515 143.509 68.3166 142.954 68.1746L141.849 67.892C141.314 67.7552 141.019 67.4056 140.964 66.8431L140.004 56.5338ZM155.787 70.8759C155.239 70.2414 155.074 69.5002 155.291 68.6525C155.508 67.8048 156.007 67.2391 156.789 66.9553C157.577 66.6728 158.498 66.6664 159.552 66.9361L162.057 67.5769C162.208 66.9865 162.19 66.5436 162.002 66.2483C161.814 65.9529 161.41 65.7259 160.789 65.5671C160.174 65.4097 159.7 65.4526 159.369 65.6959C159.045 65.9354 158.701 66.0087 158.337 65.9158L157.21 65.6274C157.073 65.5925 156.971 65.5206 156.902 65.4116C156.839 65.2988 156.825 65.1768 156.858 65.0456C157.229 63.5975 158.789 63.225 161.539 63.9284C162.74 64.2355 163.635 64.752 164.223 65.4777C164.813 66.1984 164.964 67.1214 164.676 68.2466L163.478 72.9318C163.443 73.068 163.372 73.168 163.264 73.2319C163.157 73.2957 163.035 73.3102 162.898 73.2754L161.437 72.9018C161.301 72.8669 161.201 72.7957 161.137 72.6879C161.075 72.5752 161.06 72.4533 161.094 72.3221L161.154 72.0874C160.211 72.4536 159.218 72.5007 158.174 72.2285C157.135 71.9627 156.339 71.5118 155.787 70.8759ZM159.294 68.7007C158.941 68.6104 158.639 68.6245 158.388 68.7432C158.143 68.8631 157.985 69.0593 157.915 69.3318C157.846 69.6043 157.894 69.8559 158.061 70.0867C158.228 70.3175 158.505 70.4826 158.894 70.582C159.671 70.7807 160.478 70.7453 161.316 70.4757L161.618 69.295L159.294 68.7007ZM166.295 67.7495C166.712 66.1196 168.235 65.6409 170.864 66.3133C173.629 67.0205 174.827 68.0982 174.456 69.5463C174.423 69.6775 174.351 69.7776 174.242 69.8465C174.135 69.9103 174.013 69.9248 173.876 69.89L172.749 69.6015C172.385 69.5086 172.119 69.2792 171.949 68.9132C171.78 68.5421 171.333 68.2637 170.606 68.0779C169.607 67.8223 169.046 67.9368 168.922 68.4212C168.864 68.6483 169.01 68.8872 169.359 69.1379C169.714 69.3899 170.157 69.6456 170.687 69.9049C171.224 70.1605 171.75 70.4482 172.265 70.768C172.78 71.0879 173.182 71.4918 173.471 71.9797C173.766 72.4638 173.839 73.0011 173.688 73.5915C173.271 75.2213 171.675 75.6813 168.9 74.9715C166.124 74.2617 164.921 73.1853 165.29 71.7421C165.325 71.6059 165.396 71.5059 165.504 71.442C165.618 71.3744 165.743 71.358 165.88 71.3929L167.007 71.6813C167.371 71.7742 167.637 72.0062 167.805 72.3773C167.975 72.7432 168.423 73.0192 169.15 73.205C170.305 73.5005 170.945 73.4061 171.069 72.9217C171.127 72.6946 170.979 72.4551 170.624 72.203C170.274 71.9523 169.831 71.6966 169.296 71.436C168.762 71.1704 168.236 70.8801 167.72 70.5653C167.21 70.2468 166.808 69.8429 166.514 69.3537C166.22 68.8645 166.147 68.3298 166.295 67.7495ZM174.627 75.7832L177.165 65.8604C177.2 65.7241 177.271 65.6241 177.379 65.5603C177.493 65.4927 177.615 65.4756 177.747 65.5092L179.442 65.9428C179.573 65.9764 179.67 66.0495 179.733 66.1623C179.801 66.2713 179.819 66.3939 179.784 66.5302L179.007 69.5653C180.062 69.0556 181.079 68.9259 182.058 69.1763C183.042 69.4279 183.765 69.9327 184.227 70.6906C184.691 71.4435 184.765 72.4355 184.45 73.6667L183.339 78.0114C183.305 78.1426 183.231 78.2419 183.117 78.3095C183.01 78.3733 182.888 78.3878 182.751 78.3529L181.064 77.9213C180.932 77.8877 180.832 77.8164 180.763 77.7074C180.701 77.5947 180.686 77.4727 180.72 77.3415L181.831 72.9969C182.14 71.791 181.812 71.0647 180.848 70.8183C180.217 70.6569 179.449 70.8448 178.543 71.3818L177.246 76.453C177.212 76.5842 177.138 76.6836 177.024 76.7512C176.917 76.8151 176.797 76.8301 176.666 76.7966L174.971 76.3631C174.839 76.3295 174.739 76.2581 174.671 76.1491C174.608 76.0364 174.593 75.9144 174.627 75.7832ZM187.616 69.0737L187.682 68.8164C187.751 68.5489 187.881 68.3564 188.072 68.2387C188.268 68.1222 188.503 68.0989 188.775 68.1686L189.714 68.4086C189.981 68.477 190.173 68.6094 190.29 68.8059C190.407 68.9972 190.431 69.2292 190.362 69.5016L190.296 69.759C190.227 70.0264 190.095 70.2183 189.899 70.3348C189.707 70.4525 189.475 70.4765 189.203 70.4068L188.264 70.1668C187.997 70.0984 187.805 69.9659 187.688 69.7695C187.572 69.5731 187.548 69.3412 187.616 69.0737ZM185.239 78.4971L187.076 71.3143C187.11 71.178 187.182 71.078 187.289 71.0142C187.402 70.9516 187.524 70.9371 187.655 70.9707L189.351 71.4043C189.487 71.4391 189.586 71.5129 189.649 71.6257C189.713 71.7334 189.728 71.8529 189.694 71.9841L187.857 79.1669C187.823 79.3032 187.749 79.4026 187.636 79.4651C187.528 79.529 187.409 79.5441 187.278 79.5105L185.582 79.0769C185.446 79.0421 185.346 78.9708 185.282 78.8631C185.218 78.7554 185.204 78.6334 185.239 78.4971ZM189.75 79.6509L191.633 72.2864C191.668 72.1501 191.739 72.0501 191.847 71.9862C191.961 71.9186 192.084 71.9016 192.215 71.9352L193.91 72.3688C194.041 72.4023 194.138 72.4755 194.201 72.5883C194.27 72.6973 194.287 72.8199 194.252 72.9561L194.13 73.4331C195.185 72.9234 196.202 72.7937 197.181 73.0441C198.165 73.2957 198.888 73.8004 199.35 74.5583C199.813 75.3112 199.887 76.3032 199.573 77.5344L198.461 81.879C198.428 82.0102 198.354 82.1095 198.24 82.1771C198.132 82.241 198.01 82.2555 197.874 82.2206L196.186 81.789C196.055 81.7554 195.955 81.6841 195.886 81.5751C195.824 81.4624 195.809 81.3404 195.843 81.2092L196.954 76.8646C197.262 75.6587 196.934 74.9324 195.971 74.6859C195.34 74.5246 194.572 74.7125 193.665 75.2495L192.368 80.3207C192.335 80.4518 192.261 80.5512 192.147 80.6188C192.039 80.6827 191.92 80.6979 191.789 80.6644L190.093 80.2307C189.962 80.1971 189.862 80.1258 189.793 80.0168C189.731 79.904 189.716 79.7821 189.75 79.6509ZM203.736 83.0425C202.591 82.7496 201.753 82.1671 201.223 81.2951C200.699 80.4245 200.593 79.376 200.907 78.1499C201.221 76.9237 201.866 76.0701 202.844 75.5891C203.822 75.108 205.06 75.0591 206.559 75.4424C207.29 75.6295 208.029 75.907 208.773 76.2749C209.519 76.6377 210.061 76.9886 210.399 77.3277L208.606 84.3365C208.319 85.4617 207.735 86.197 206.857 86.5422C205.977 86.8924 204.866 86.8958 203.524 86.5525C202.187 86.2105 201.198 85.7775 200.558 85.2536C199.921 84.7361 199.702 84.0914 199.899 83.3193C199.934 83.1831 200.006 83.0804 200.115 83.0115C200.228 82.949 200.352 82.9351 200.489 82.97L201.616 83.2584C201.98 83.3513 202.236 83.5593 202.384 83.8822C202.574 84.2963 203.022 84.5937 203.729 84.7743C204.44 84.9563 204.957 84.9648 205.278 84.7998C205.6 84.6348 205.837 84.2571 205.988 83.6667L206.078 83.311C205.218 83.3114 204.437 83.2219 203.736 83.0425ZM205.931 77.2334C204.737 76.9225 203.962 77.4609 203.607 78.8485C203.254 80.2311 203.66 81.0715 204.825 81.3696C205.31 81.4935 205.876 81.5578 206.526 81.5626L207.486 77.8084C207.082 77.5814 206.563 77.3897 205.931 77.2334ZM214.696 84.773L215.756 84.9474L216.036 85.019C216.172 85.0539 216.272 85.1252 216.336 85.2329C216.405 85.3419 216.422 85.4645 216.387 85.6008L216.18 86.4107C216.152 86.5217 216.081 86.6109 215.966 86.6785C215.859 86.7424 215.734 86.767 215.593 86.7523C215.052 86.7216 214.368 86.6004 213.541 86.3888C211.371 85.8338 210.577 84.4211 211.157 82.1504L212.981 75.0205C213.016 74.8843 213.087 74.7842 213.195 74.7204C213.309 74.6528 213.431 74.6358 213.562 74.6693L215.258 75.1029C215.389 75.1365 215.486 75.2096 215.549 75.3224C215.617 75.4314 215.634 75.554 215.6 75.6903L214.953 78.2183L217.065 78.7584C217.196 78.7919 217.293 78.8627 217.357 78.9704C217.426 79.0794 217.443 79.2019 217.408 79.3382L217.178 80.2389C217.143 80.3751 217.069 80.4745 216.957 80.537C216.849 80.6009 216.729 80.616 216.598 80.5825L214.487 80.0424L213.776 82.8202C213.644 83.3349 213.664 83.7645 213.834 84.109C214.005 84.4484 214.292 84.6698 214.696 84.773ZM218.179 86.4139C217.578 85.4859 217.458 84.3155 217.819 82.9027C218.182 81.4848 218.849 80.5158 219.821 79.9956C220.794 79.4703 222.017 79.3959 223.49 79.7728C224.969 80.1509 226.009 80.8039 226.61 81.7319C227.213 82.6547 227.333 83.8251 226.97 85.243C226.609 86.6559 225.941 87.625 224.968 88.1503C223.995 88.6756 222.77 88.7491 221.291 88.371C219.818 87.9942 218.781 87.3418 218.179 86.4139ZM221.418 81.7265C221.001 82.0552 220.677 82.6687 220.448 83.5668C220.218 84.465 220.206 85.161 220.414 85.6548C220.621 86.1485 221.06 86.4812 221.731 86.6529C222.407 86.8258 222.954 86.7454 223.373 86.4116C223.797 86.0792 224.123 85.4639 224.353 84.5657C224.583 83.6675 224.591 82.9734 224.378 82.4834C224.169 81.9947 223.727 81.6638 223.051 81.4909C222.38 81.3193 221.836 81.3978 221.418 81.7265ZM227.428 89.2872L229.311 81.9228C229.346 81.7865 229.417 81.6864 229.525 81.6226C229.639 81.555 229.762 81.5379 229.893 81.5715L231.588 82.0051C231.719 82.0387 231.816 82.1118 231.879 82.2246C231.948 82.3336 231.965 82.4563 231.93 82.5926L231.808 83.0693C232.863 82.5596 233.88 82.43 234.859 82.6803C235.843 82.932 236.566 83.4367 237.028 84.1947C237.491 84.9475 237.565 85.9396 237.25 87.1708L236.139 91.5153C236.106 91.6465 236.032 91.7459 235.918 91.8135C235.81 91.8773 235.688 91.8918 235.552 91.857L233.864 89.4253C233.733 89.3917 233.633 89.3205 233.564 89.2114C233.501 89.0987 233.487 90.9767 233.52 90.8455L234.632 86.501C234.94 85.295 234.612 84.5688 233.649 84.3223C233.018 84.161 232.249 84.3488 231.343 84.8858L230.046 89.957C230.013 90.0882 229.939 90.1876 229.825 90.2552C229.717 90.319 229.598 90.3342 229.467 90.3006L227.771 89.867C227.64 89.8334 227.54 89.7622 227.471 89.6531C227.408 89.5404 227.394 89.4184 227.428 89.2872ZM207.818 102.666L210.228 93.2425C210.281 93.0356 210.396 92.8796 210.574 92.7744C210.751 92.6693 210.938 92.6419 211.135 92.6922L215.366 93.7743C217.556 94.3344 219.036 95.1805 219.805 96.3126C220.581 97.4416 220.729 98.9416 220.251 100.814C219.773 102.681 218.923 103.923 217.701 104.541C216.484 105.159 214.78 105.189 212.59 104.628L208.359 103.546C208.162 103.496 208.01 103.387 207.902 103.22C207.796 103.048 207.768 102.863 207.818 102.666ZM211.041 101.95L213.055 102.465C214.412 102.812 215.399 102.801 216.014 102.432C216.63 102.063 217.091 101.28 217.397 100.084C217.704 98.8826 217.676 97.9726 217.313 97.3526C216.952 96.7276 216.092 96.2426 214.735 95.895L212.721 95.3801L211.041 101.95ZM221.523 105.55C220.818 104.418 220.704 102.919 221.182 101.052C221.66 99.1796 222.481 97.9166 223.643 97.2616C224.811 96.6036 226.331 96.5146 228.203 96.9926L229.891 97.4246C231.036 97.7176 231.972 98.2736 232.698 99.0936C233.428 99.9156 233.661 100.844 233.397 101.878C233.321 102.176 233.178 102.368 232.967 102.454C232.759 102.535 232.571 102.554 232.404 102.511L231.504 102.281C231.039 102.162 230.75 101.792 230.634 101.171C230.465 100.279 229.946 99.7206 229.078 99.4986L227.731 99.1546C226.626 98.8716 225.816 98.9176 225.301 99.2906C224.786 99.6646 224.365 100.493 224.037 101.774C223.709 103.056 223.681 103.987 223.952 104.567C224.224 105.142 224.913 105.571 226.018 105.853L227.524 106.238C228.392 106.46 229.112 106.22 229.684 105.517C230.085 105.022 230.52 104.835 230.989 104.955L231.89 105.186C232.127 105.246 232.291 105.382 232.382 105.594C232.478 105.807 232.5 106.016 232.447 106.223C232.182 107.258 231.535 107.96 230.505 108.331C229.476 108.697 228.388 108.734 227.243 108.441L225.396 107.968C223.524 107.489 222.233 106.683 221.523 105.55Z" fill="#2F2E41"/>
<path d="M237.535 61.5693C238.744 62.8124 240.133 63.6794 241.465 64.1141L252.23 76.6831L258.061 71.3855L246.513 59.206C246.116 57.8627 245.288 56.4498 244.08 55.2067C241.319 52.367 237.615 51.4893 235.808 53.2463C234.001 55.0033 234.775 58.7296 237.535 61.5693Z" fill="#A0616A"/>
<path d="M273.014 46.082C273.014 46.082 283.18 47.2453 283.952 51.4787C284.724 55.712 279.221 95.0255 279.221 95.0255L271.573 103.131L241.695 67.5403L250.682 61.8961L264.492 72.7479L273.014 46.082Z" fill="#71B8B8"/>
</g>
</g>
<defs>
<clipPath id="clip0_2937_127">
<rect width="316" height="150" fill="white"/>
</clipPath>
<clipPath id="clip1_2937_127">
<rect width="129.422" height="73.4595" fill="white" transform="translate(130.361 36.249) rotate(14.2685)"/>
</clipPath>
</defs>
</svg>
