<svg width="323" height="170" viewBox="0 0 323 170" fill="none" xmlns="http://www.w3.org/2000/svg">
<path d="M253.902 57.5351C253.904 63.9046 252.65 70.2119 250.213 76.0968C247.776 81.9817 244.204 87.3288 239.7 91.8327C235.196 96.3366 229.849 99.909 223.964 102.346C218.079 104.783 211.772 106.036 205.402 106.035C178.617 106.035 156.902 84.3206 156.902 57.5351C156.898 52.325 157.733 47.1481 159.376 42.2038C162.601 32.5475 168.781 24.1495 177.04 18.1973C185.3 12.2451 195.222 9.04001 205.402 9.03516C214.183 9.03211 222.799 11.4135 230.331 15.925C237.864 20.4365 244.03 26.9089 248.171 34.6512C249.198 36.5614 250.094 38.5392 250.852 40.5709C250.957 40.8538 251.06 41.1367 251.159 41.4224V41.4251C251.604 42.6806 251.996 43.9596 252.334 45.2619C253.379 49.2693 253.906 53.3939 253.902 57.5351Z" fill="#3F3D56"/>
<path d="M200.902 24.9756C198.729 23.808 196.316 23.149 193.847 23.0486C191.378 22.9483 188.918 23.4093 186.656 24.3966C184.664 25.2577 182.567 26.8024 181.902 29.5918C184.59 28.0163 188.069 30.5055 188.76 34.4988L188.599 34.543C188.234 37.3088 189.049 40.3201 190.628 42.0352C190.835 40.2537 192.014 39.0413 193.174 38.2839C194.334 37.5266 195.617 36.9764 196.502 35.6746C197.552 34.1313 197.818 31.8757 198.235 29.8181C198.652 27.7605 199.443 25.5489 200.902 24.9756Z" fill="white"/>
<path d="M185.764 48.7671C185.011 49.882 184.005 50.5816 183.103 51.4526C182.203 52.3264 181.347 53.5056 181.167 55.0199C181.053 55.9902 181.23 56.9764 181.205 57.9574C181.181 58.9384 180.849 60.0426 180.172 60.2865C179.104 60.6671 178.289 58.7105 177.19 58.5738C176.318 58.4666 175.532 59.8201 175.785 60.9941C176.038 62.168 177.226 62.6879 177.908 61.9214C178.525 62.9425 178.09 64.7946 177.163 65.1081C177.065 65.7514 176.968 66.3919 176.872 67.0352C174.529 65.419 172.162 63.7761 170.169 61.4095C167.953 58.7997 166.579 55.5966 166.222 52.2111C165.964 49.4907 166.347 46.3791 165.081 44.2859C164.067 42.6108 162.327 42.2409 160.761 42.3454C160.476 42.3642 160.188 42.3963 159.902 42.4312C160.826 39.6967 161.998 37.0504 163.406 34.5246C163.725 34.3898 164.021 34.2082 164.284 33.9859C165.741 32.7665 166.388 30.298 167.571 28.5907C167.647 28.4808 167.725 28.3736 167.807 28.2691C169.017 26.7119 170.637 25.9105 172.202 25.1654C175.668 23.5064 179.235 21.826 182.893 22.0565L181.852 22.1556C180.637 25.5112 179.421 28.8668 178.204 32.2224C178.02 32.7369 177.833 33.2524 177.644 33.7688C176.954 35.6771 176.242 37.7087 176.348 39.8448C176.41 41.1098 176.856 42.4606 177.704 42.8948C178.495 43.2968 179.36 42.8037 180.123 42.3159C180.447 42.1122 180.768 41.9085 181.091 41.7021C182.252 40.9651 183.538 40.2093 184.764 40.7024C185.886 41.1527 186.715 42.6563 186.873 44.2778C187.017 45.854 186.627 47.433 185.764 48.7671Z" fill="white"/>
<path d="M192.462 71.3015C189.141 69.261 185.82 67.2205 182.5 65.18L182.556 65.0352C180.491 65.82 179.634 69.4826 179.975 72.4779C180.316 75.4731 181.473 78.1507 182.058 81.0692C182.846 85.0631 182.549 89.1947 181.196 93.0352C185.563 88.1455 189.428 82.8313 192.732 77.1723C193.193 76.4591 193.545 75.6807 193.775 74.8633C193.986 73.9937 193.954 72.9482 193.531 72.2508C193.259 71.8506 192.892 71.5243 192.462 71.3015Z" fill="white"/>
<path d="M179.266 33.5836C178.899 34.3606 178.757 35.3968 179.091 36.2008C179.431 37.0219 180.151 37.393 180.814 37.702L182.726 38.5934C183.362 38.8899 184.048 39.1894 184.696 38.9455C185.478 38.6512 186.02 37.4979 185.88 36.4273C185.731 35.288 184.967 34.5043 184.261 33.8369C183.273 32.903 182.285 31.9691 181.297 31.0352L180.74 31.6767C180.137 32.2294 179.639 32.8741 179.266 33.5836Z" fill="white"/>
<path d="M244.049 46.4777C244.878 46.6704 245.707 46.8632 246.537 47.0559C246.392 49.8206 245.004 52.3793 243.142 53.3061C242.366 53.6916 241.502 53.8342 240.86 54.5551C240.279 55.2099 239.985 56.2291 239.715 57.2035C239.242 58.904 238.768 60.6045 238.295 62.305C237.786 64.1375 237.134 66.1734 235.812 66.8335C234.678 67.4012 233.38 66.7068 232.508 65.5423C231.636 64.3778 231.104 62.812 230.588 61.2858C230.62 62.9493 229.836 64.5812 228.726 65.1594C227.613 65.7377 226.259 65.2149 225.516 63.9237C224.981 62.9968 224.758 61.7742 224.234 60.8342C223.71 59.8942 222.61 59.3555 222.038 60.2375C221.661 60.8237 221.709 61.7214 221.522 62.4661C221.23 63.6226 220.347 64.3488 219.472 64.4122C218.6 64.4755 217.75 63.9791 217.019 63.3058C215.513 61.9115 214.403 59.6988 213.972 57.2405C213.783 56.1446 213.729 54.9511 214.058 53.9239C214.387 52.8968 215.182 52.1046 215.971 52.3C216.49 51.2174 215.465 49.781 214.542 49.9077C213.617 50.0344 212.892 51.0141 212.132 51.7666C211.375 52.5192 210.316 53.0658 209.553 52.3185C209.559 53.013 208.986 53.4724 208.491 53.4143C207.999 53.3589 207.56 52.9681 207.108 52.6908C205.361 51.6161 203.144 52.3291 201.902 54.3623C202.678 51.1039 203.815 47.3649 206.199 46.5991C207.172 46.2849 208.234 46.5437 209.155 45.9997C210.784 45.0359 211.113 41.3946 209.706 39.8922C209.885 41.3127 209.85 42.971 209.09 43.9427C208.331 44.9145 206.736 44.2807 206.833 42.8443C206.613 43.8345 205.522 43.985 205.019 43.2245C204.513 42.464 204.556 41.2204 204.915 40.312C205.273 39.4036 205.883 38.7514 206.474 38.1256C207.745 36.7816 209.034 35.4217 210.505 34.5767C211.979 33.7318 213.681 33.4466 215.157 34.2863C215.936 34.7299 216.621 35.4693 217.415 35.8601C218.21 36.2535 219.218 36.2033 219.745 35.2844C220.337 34.2599 220.058 32.7389 220.278 31.4583C220.671 29.1954 222.963 28.1365 224.234 29.631C223.284 29.3907 222.303 30.4998 222.185 31.8438C222.065 33.1878 222.752 34.5451 223.672 34.9517C225.219 35.6277 226.733 33.9272 227.902 32.3534C229.122 30.7057 230.343 29.0589 231.567 27.413C231.762 27.1328 231.981 26.8695 232.222 26.6261C232.605 26.2575 233.116 26.0464 233.651 26.0356C234.186 26.0248 234.705 26.2151 235.103 26.568C236.339 27.5635 236.92 29.6047 237.933 31.0094C239.405 33.0505 241.606 33.547 243.655 33.943C245.183 34.2361 246.711 34.531 248.241 34.8276C249.26 36.6996 250.149 38.6378 250.902 40.6289C248.313 41.7141 245.924 43.7447 244.049 46.4777Z" fill="white"/>
<path d="M248.902 78.6416C247.76 80.8835 246.431 83.0322 244.928 85.0664C243.968 84.6695 242.936 85.3782 242.037 86.0431C241.098 86.7389 239.97 87.4167 239.007 86.7828C238.023 86.1333 237.706 84.3165 238.018 82.8758C238.33 81.4378 239.109 80.2935 239.863 79.206C240.664 78.0514 241.52 76.853 242.632 76.4046C243.747 75.9562 245.179 76.5902 245.504 78.121L246.294 78.0952C245.851 77.5076 246.083 76.2912 246.678 76.0773C247.363 75.8273 247.958 76.737 248.364 77.5411C248.545 77.9045 248.729 78.2705 248.902 78.6416Z" fill="white"/>
<path d="M218.657 67.1268C216.983 67.2342 215.657 65.1309 214.775 63.0617C213.894 60.9924 213.09 58.6262 211.579 57.5729C210.716 56.9711 209.732 56.8885 208.796 56.5969C207.86 56.3053 206.88 55.7019 206.432 54.473L205.37 54.0352C203.967 54.84 202.546 55.6595 201.338 56.9692C199.982 58.4387 199.138 60.3223 198.935 62.3297C198.732 64.4991 199.481 66.9181 200.881 67.733C201.987 68.377 203.275 67.9711 204.395 68.5606C205.795 69.2971 206.626 71.4367 206.941 73.5492C207.256 75.6617 207.176 77.857 207.401 79.9935C207.626 82.13 208.246 84.3531 209.53 85.4479C211.136 86.818 213.494 85.6795 214.214 83.1855C214.568 81.9621 214.556 80.5817 214.82 79.3118C215.286 77.0754 216.542 75.4162 217.539 73.5817C218.535 71.7473 219.32 69.2557 218.657 67.1268Z" fill="white"/>
<path d="M202.084 45.2432C202.196 45.3699 202.301 45.5062 202.397 45.6511C202.497 45.8621 202.548 46.1025 202.544 46.3464C202.541 46.5903 202.483 46.8284 202.378 47.0352C202.523 47.025 202.664 46.9782 202.794 46.8975C202.923 46.8168 203.038 46.7041 203.13 46.5665C203.349 46.2598 203.542 45.926 203.706 45.5706C203.829 45.3252 203.959 44.9933 203.876 44.7018C203.819 44.5029 203.685 44.418 203.591 44.2684C203.441 44.0312 203.404 43.6546 203.327 43.3291C203.16 42.626 202.76 42.1091 202.326 42.0352L202.386 42.0493C202.205 42.1255 202.078 42.4787 202.118 42.7965C202.155 43.086 202.306 43.3263 202.291 43.6215C202.27 44.0459 201.924 44.2451 201.902 44.6697C201.899 44.8826 201.964 45.0887 202.084 45.2432Z" fill="white"/>
<path d="M199.433 38.9341C199.788 38.7358 199.986 38.1871 199.869 37.728C199.752 37.2716 199.34 36.9648 198.96 37.0491C198.85 37.1464 198.713 37.2177 198.562 37.2563C198.411 37.2949 198.252 37.2996 198.099 37.2698C197.864 37.2171 197.606 37.0815 197.402 37.2356C197.285 37.3507 197.204 37.4894 197.165 37.639C197.089 37.8406 197.014 38.0422 196.938 38.2438C196.902 38.3159 196.893 38.396 196.912 38.473C196.926 38.5038 196.949 38.5309 196.979 38.5516C197.009 38.5723 197.045 38.586 197.083 38.5913C197.535 38.7075 197.988 38.8236 198.44 38.9398C198.77 39.0244 199.126 39.106 199.433 38.9341Z" fill="white"/>
<path d="M235.566 71.4537C235.343 71.0834 235.12 70.7131 234.897 70.3428C234.677 69.9139 234.378 69.5326 234.015 69.2201C233.935 69.1523 233.842 69.1013 233.743 69.0703C233.643 69.0392 233.539 69.0286 233.435 69.0391C233.331 69.0496 233.231 69.0811 233.139 69.1316C233.048 69.182 232.967 69.2506 232.902 69.3331L232.93 69.5446C233.438 70.1914 233.976 70.9099 234.105 71.8699C234.156 72.2483 234.138 72.64 234.183 73.02C234.227 73.4001 234.354 73.7943 234.596 73.9581C234.947 74.1961 235.359 73.8453 235.609 73.4172C235.833 73.0656 235.933 72.648 235.894 72.2316C235.838 71.9522 235.727 71.6874 235.566 71.4537Z" fill="white"/>
<path d="M245.688 57.4053C245.737 56.9772 245.786 56.5491 245.834 56.121C245.914 55.6508 245.924 55.1644 245.864 54.6891C245.85 54.5853 245.821 54.4862 245.778 54.3976C245.735 54.309 245.68 54.2327 245.614 54.1732C245.549 54.1137 245.476 54.0722 245.398 54.0511C245.321 54.03 245.241 54.0298 245.164 54.0505L245.078 54.2297C245.061 55.0549 245.027 55.9541 244.64 56.7711C244.487 57.0932 244.288 57.3807 244.131 57.6999C243.974 58.0192 243.858 58.4028 243.919 58.6856C244.008 59.0961 244.416 59.097 244.768 58.9331C245.066 58.8103 245.326 58.5567 245.504 58.2133C245.606 57.9636 245.668 57.6886 245.688 57.4053Z" fill="#E6E6E6"/>
<path d="M239.28 71.6942C239.363 71.3464 239.244 70.9474 239.218 70.5629C239.206 70.0663 239.296 69.5758 239.477 69.1549C239.656 68.7577 239.791 68.3222 239.879 67.8638C239.916 67.655 239.909 67.4348 239.86 67.2316C239.804 67.0475 239.668 66.9636 239.59 67.1093L239.757 67.2662C239.532 67.2075 239.301 67.2239 239.081 67.3141C238.956 67.3843 238.844 67.4978 238.755 67.6448C238.666 67.7918 238.602 67.968 238.57 68.1586C238.542 68.4558 238.497 68.7489 238.436 69.0348C238.336 69.3335 238.144 69.4328 238.023 69.695C237.941 69.9274 237.9 70.1861 237.902 70.4478C237.905 70.7096 237.953 70.9661 238.04 71.1944C238.192 71.5678 238.433 71.8453 238.717 71.9729C238.92 72.0796 239.187 72.0853 239.28 71.6942Z" fill="white"/>
<path d="M245.912 73.4253C246.002 73.7044 246.124 73.9682 246.272 74.2096C246.551 74.5422 246.929 74.3378 247.267 74.257C247.573 74.1996 247.887 74.2416 248.175 74.3786C248.463 74.5156 248.714 74.7425 248.902 75.0352C248.771 74.2604 248.486 73.5343 248.069 72.9177C247.652 72.3012 247.117 71.8122 246.508 71.4919C245.712 71.1069 244.873 71.0698 244.045 71.0352L243.902 71.0786C244.267 72.3368 245.411 72.3087 245.912 73.4253Z" fill="white"/>
<path d="M218.175 77.8294C217.897 78.1974 217.658 78.5803 217.459 78.9749C217.197 79.6139 217.024 80.2706 216.941 80.9349C216.876 81.3126 216.856 81.7951 217.181 81.9792C217.274 82.0243 217.387 82.0431 217.498 82.0321C217.608 82.0211 217.71 81.9811 217.783 81.9195C217.964 81.7804 218.111 81.6205 218.22 81.4463C218.858 80.6452 219.353 79.7881 219.694 78.8956C220.005 77.9556 220.002 76.849 219.453 76.0352C219.027 76.6333 218.601 77.2313 218.175 77.8294Z" fill="white"/>
<path d="M209.321 28.7436C209.446 28.8832 209.604 28.9779 209.776 29.0162C209.947 29.0545 210.125 29.0345 210.286 28.9589C210.621 28.7915 210.928 28.5596 211.194 28.2733C211.415 28.0869 211.601 27.8539 211.745 27.5868C211.824 27.4273 211.874 27.2514 211.893 27.0694C211.913 26.8874 211.9 26.7029 211.857 26.5263C211.733 26.1106 211.417 25.9713 211.139 25.8769C210.693 25.7258 210.248 25.5748 209.802 25.4237L210.124 25.0916C209.793 24.8881 209.426 25.2657 209.219 25.7333C209.086 26.0385 208.993 26.3646 208.944 26.701C208.833 27.4348 208.941 28.3087 209.321 28.7436Z" fill="#E6E6E6"/>
<path d="M218.242 25.8054C218.386 25.9371 218.585 26.0184 218.798 26.0328C219.011 26.0473 219.223 25.9937 219.39 25.883C219.534 25.793 219.654 25.6788 219.742 25.5478C219.829 25.4168 219.882 25.272 219.898 25.1227C219.934 24.7893 219.736 24.4186 219.453 24.3899L219.517 24.0777C218.972 23.9958 218.3 23.9793 218.008 24.5302C217.909 24.7412 217.879 24.97 217.92 25.1938C217.961 25.4176 218.072 25.6285 218.242 25.8054Z" fill="#E6E6E6"/>
<path d="M178.402 21.0958C175.919 20.8101 173.425 21.5422 171.47 23.131C169.516 24.7198 168.26 27.0352 167.98 29.5679C167.397 34.8418 170.122 46.2943 175.09 51.0352C177.43 41.9521 185.627 36.5645 186.712 31.7222C187.871 26.5481 183.575 21.6907 178.402 21.0958Z" fill="#71B8B8"/>
<path d="M176.902 33.0352C178.559 33.0352 179.902 31.4682 179.902 29.5352C179.902 27.6022 178.559 26.0352 176.902 26.0352C175.245 26.0352 173.902 27.6022 173.902 29.5352C173.902 31.4682 175.245 33.0352 176.902 33.0352Z" fill="white"/>
<path d="M172.902 55.0352C174.007 55.0352 174.902 54.1397 174.902 53.0352C174.902 51.9306 174.007 51.0352 172.902 51.0352C171.798 51.0352 170.902 51.9306 170.902 53.0352C170.902 54.1397 171.798 55.0352 172.902 55.0352Z" fill="#71B8B8"/>
<path opacity="0.2" d="M179.302 27.3969C179.673 27.6023 179.997 27.8729 180.255 28.1934C180.513 28.5139 180.699 28.878 180.804 29.2648C180.909 29.6517 180.93 30.0537 180.866 30.448C180.802 30.8423 180.654 31.2212 180.431 31.5629C180.208 31.9046 179.913 32.2026 179.565 32.4397C179.217 32.6769 178.821 32.8485 178.4 32.945C177.98 33.0414 177.543 33.0607 177.114 33.0018C176.686 32.9429 176.274 32.8068 175.902 32.6015C176.667 32.758 177.468 32.659 178.161 32.3222C178.853 31.9854 179.393 31.4327 179.684 30.7631C179.974 30.0935 179.996 29.3508 179.745 28.6677C179.495 27.9847 178.988 27.406 178.316 27.0352C178.664 27.106 178.997 27.2282 179.302 27.3969Z" fill="#231F20"/>
<path opacity="0.2" d="M186.713 31.5288C185.638 36.4196 177.509 41.8611 175.19 51.0352C174.726 50.5805 174.296 50.0909 173.902 49.5703C176.509 40.947 184.131 35.7071 185.171 30.9817C186.101 26.7524 183.488 22.7331 179.739 21.0352C184.277 22.2199 187.767 26.7397 186.713 31.5288Z" fill="#231F20"/>
<path d="M315.428 135.035H229.37C229.091 135.015 228.885 134.791 228.903 134.534C228.885 134.279 229.091 134.055 229.37 134.035H315.428C315.674 134.063 315.867 134.242 315.898 134.469C315.937 134.747 315.728 134.999 315.428 135.035Z" fill="#CCCCCC"/>
<path d="M282.567 49.3093C282.566 46.4061 281.761 43.5598 280.241 41.0866C278.72 38.6133 276.544 36.6099 273.954 35.2987C271.363 33.9875 268.46 33.4198 265.567 33.6588C262.674 33.8977 259.903 34.9339 257.563 36.6522C255.223 38.3706 253.405 40.7039 252.311 43.393C251.216 46.0822 250.889 49.022 251.365 51.886C251.84 54.75 253.1 57.4262 255.005 59.6173C256.909 61.8085 259.384 63.4289 262.154 64.2987L262.679 94.5277L286.687 70.8313C286.687 70.8313 277.326 67.2068 275.533 62.404C277.697 60.9728 279.472 59.0276 280.699 56.7424C281.927 54.4572 282.568 51.9033 282.567 49.3093Z" fill="#9F616A"/>
<path d="M275.462 62.4141C275.462 62.4141 280.821 60.5055 283.569 54.9311C286.091 49.8109 286.37 41.0886 279.204 38.9702C279.204 38.9702 283.333 35.4061 275.721 33.2349L276.734 34.169C276.734 34.169 275.841 32.5555 271.429 33.5095C271.429 33.5095 255.127 31.6109 252.234 36.9784C252.234 36.9784 243.485 38.7714 248.144 45.427C248.144 45.427 248.385 46.7221 250.047 46.6977L249.217 45.6114L251.748 46.6977C251.748 46.6977 255.269 41.0897 258.591 44.1906C258.591 44.1906 264.947 43.9232 267.986 43.3665C267.986 43.3665 267.376 51.5303 273.209 53.1201C279.043 54.71 275.461 62.4145 275.461 62.4145L275.462 62.4141Z" fill="#090814"/>
<path d="M221.57 115.172L250.28 132.298L252.667 121.171L225.464 108.247C224.949 106.291 223.524 104.421 221.412 103.233C217.714 101.154 213.322 101.949 211.601 105.008C209.881 108.068 211.483 112.234 215.18 114.313C217.294 115.502 219.631 115.747 221.57 115.172Z" fill="#9F616A"/>
<path d="M281.383 66.8516C274.766 73.5004 268.482 75.2851 262.7 69.7416L254.535 129.576L257.93 134.495L278.578 134.554L281.383 66.8516H281.383Z" fill="#71B8B8"/>
<path d="M282.468 66.2496L285.921 69.0849L296.403 75.0624C298.639 75.8922 300.655 77.2234 302.297 78.9538C303.939 80.6841 305.162 82.7676 305.873 85.0444C307.548 90.4212 308.736 95.9378 309.422 101.527C311.146 115.661 309.893 134.298 309.893 134.298L293.957 134.437L294.65 125.091L297.214 101.969L297.146 134.496H278.576C278.576 134.496 277.305 79.328 280.075 67.0594C280.132 66.8129 280.251 66.5852 280.421 66.3978C280.591 66.2104 280.806 66.0694 281.046 65.9884C281.286 65.9074 281.542 65.8889 281.791 65.9347C282.04 65.9806 282.273 66.0892 282.468 66.2503L282.468 66.2496Z" fill="#090814"/>
<path d="M262.701 69.7422L250.144 75.78C248.02 76.8016 246.16 78.2998 244.709 80.158C243.259 82.0162 242.257 84.1842 241.781 86.4931L236.52 112.047L234.801 127.505C234.801 127.505 242.198 134.129 247.052 131.933L246.705 134.496H257.93L262.701 69.7422Z" fill="#090814"/>
<path d="M245.461 134.317C248.43 129.288 249.444 125.27 250.902 119.617C252.354 113.985 253.027 108.181 252.901 102.366C252.829 99.0966 252.497 95.8382 251.906 92.6218C251.836 92.237 252.425 92.0718 252.496 92.4594C253.03 95.3559 253.358 98.2865 253.477 101.229C253.595 104.174 253.507 107.123 253.214 110.056C252.924 112.973 252.436 115.867 251.754 118.717C251.069 121.584 250.185 124.399 249.108 127.142C248.032 129.881 248.195 131.119 246.742 133.679C246.562 133.996 246.379 134.311 246.193 134.625C246.151 134.692 246.084 134.74 246.007 134.759C245.93 134.778 245.849 134.766 245.78 134.726C245.712 134.686 245.661 134.621 245.64 134.545C245.618 134.468 245.627 134.387 245.665 134.317H245.461Z" fill="white"/>
<path d="M293.886 134.018C294.195 130.865 293.975 127.657 293.685 124.509C293.374 120.882 292.816 117.281 292.015 113.729C291.672 112.14 291.201 110.58 290.606 109.067C290.472 108.742 291.063 108.603 291.196 108.924C291.726 110.263 292.153 111.641 292.476 113.044C292.892 114.748 293.22 116.468 293.498 118.192C294.095 121.81 294.461 125.462 294.596 129.126C294.67 130.758 294.638 132.392 294.499 134.019C294.466 134.36 293.854 134.363 293.887 134.019L293.886 134.018Z" fill="white"/>
<path d="M273.617 129.968L296.354 132.566L294.172 123.835L274.009 122.032C272.675 120.512 270.565 119.475 268.144 119.355C263.907 119.146 260.332 121.818 260.159 125.324C259.985 128.831 263.28 131.843 267.516 132.051C269.937 132.171 272.139 131.347 273.617 129.966V129.968Z" fill="#9F616A"/>
<path d="M295 120.532L279.105 119.844L280.47 131.586C280.47 131.586 292.053 136.922 303.902 132.604L295 120.532Z" fill="#090814"/>
<path d="M262.618 70.0355L254.533 129.278L253.828 128.257L261.993 68.4227C267.276 73.4877 272.977 72.4357 278.969 67.1446C279.107 67.0223 279.278 66.9422 279.46 66.9138C279.643 66.8854 279.83 66.9099 279.999 66.9844C280.168 67.0589 280.312 67.1803 280.414 67.3341C280.516 67.488 280.572 67.6679 280.575 67.8525C274.224 73.9126 268.188 75.3763 262.617 70.0353L262.618 70.0355Z" fill="#090814"/>
<path d="M244.278 116.34L229.52 108.164L225.293 119.873C225.293 119.873 233.777 130.385 247.049 131.929L244.278 116.34L244.278 116.34Z" fill="#090814"/>
<path d="M233.764 109.017C234.548 110.378 235.614 111.554 236.891 112.467C238.168 113.38 239.626 114.009 241.167 114.31C241.553 114.385 241.39 114.975 241.005 114.9C239.387 114.579 237.857 113.915 236.517 112.954C235.177 111.992 234.059 110.755 233.236 109.326C233.198 109.256 233.189 109.175 233.211 109.098C233.232 109.022 233.282 108.957 233.351 108.917C233.419 108.877 233.501 108.865 233.578 108.884C233.655 108.902 233.722 108.95 233.764 109.017L233.764 109.017Z" fill="white"/>
</svg>
