<svg width="485" height="246" viewBox="0 0 485 246" fill="none" xmlns="http://www.w3.org/2000/svg">
<path d="M283.362 65.8199L281.542 60.6573H274.426L272.606 65.8199H269.385L276.31 47.1532H279.696L286.608 65.8199H283.362ZM280.753 58.0378L278.983 52.9515C278.915 52.7311 278.818 52.4217 278.691 52.0233C278.563 51.6164 278.436 51.2052 278.309 50.7899C278.181 50.366 278.075 50.01 277.99 49.7217C277.906 50.0693 277.8 50.4593 277.672 50.8916C277.553 51.3155 277.435 51.7139 277.316 52.0869C277.206 52.4599 277.121 52.7481 277.061 52.9515L275.279 58.0378H280.753Z" fill="#2C3030"/>
<path d="M298.23 61.8017C298.23 62.7257 298.005 63.5056 297.555 64.1414C297.106 64.7772 296.448 65.2604 295.582 65.591C294.725 65.9131 293.673 66.0742 292.425 66.0742C291.441 66.0742 290.592 66.0021 289.88 65.858C289.175 65.7224 288.509 65.5105 287.881 65.2222V62.6409C288.552 62.9546 289.303 63.2259 290.134 63.4548C290.974 63.6836 291.768 63.7981 292.515 63.7981C293.499 63.7981 294.208 63.6455 294.64 63.3403C295.073 63.0267 295.29 62.6113 295.29 62.0942C295.29 61.789 295.2 61.5177 295.022 61.2804C294.853 61.0345 294.53 60.7844 294.055 60.5301C293.588 60.2673 292.901 59.9537 291.993 59.5892C291.102 59.2331 290.351 58.8771 289.74 58.521C289.129 58.165 288.666 57.7369 288.352 57.2368C288.038 56.7281 287.881 56.0796 287.881 55.2912C287.881 54.0451 288.373 53.0999 289.358 52.4556C290.351 51.8029 291.662 51.4765 293.291 51.4765C294.157 51.4765 294.971 51.5655 295.735 51.7435C296.507 51.9131 297.263 52.1632 298.001 52.4938L297.059 54.7445C296.422 54.4647 295.782 54.2358 295.137 54.0578C294.5 53.8713 293.851 53.7781 293.189 53.7781C292.417 53.7781 291.827 53.8967 291.42 54.1341C291.021 54.3715 290.822 54.7106 290.822 55.1514C290.822 55.482 290.919 55.7617 291.114 55.9906C291.31 56.2195 291.645 56.4484 292.12 56.6773C292.604 56.9061 293.274 57.1901 294.131 57.5292C294.971 57.8513 295.697 58.1904 296.308 58.5465C296.927 58.894 297.403 59.3221 297.734 59.8308C298.065 60.3394 298.23 60.9964 298.23 61.8017Z" fill="#2C3030"/>
<path d="M310.934 61.8017C310.934 62.7257 310.709 63.5056 310.259 64.1414C309.809 64.7772 309.152 65.2604 308.286 65.591C307.429 65.9131 306.377 66.0742 305.129 66.0742C304.145 66.0742 303.296 66.0021 302.583 65.858C301.879 65.7224 301.213 65.5105 300.585 65.2222V62.6409C301.255 62.9546 302.006 63.2259 302.838 63.4548C303.678 63.6836 304.472 63.7981 305.218 63.7981C306.203 63.7981 306.911 63.6455 307.344 63.3403C307.777 63.0267 307.993 62.6113 307.993 62.0942C307.993 61.789 307.904 61.5177 307.726 61.2804C307.556 61.0345 307.234 60.7844 306.759 60.5301C306.292 60.2673 305.605 59.9537 304.697 59.5892C303.805 59.2331 303.054 58.8771 302.443 58.521C301.832 58.165 301.37 57.7369 301.056 57.2368C300.742 56.7281 300.585 56.0796 300.585 55.2912C300.585 54.0451 301.077 53.0999 302.062 52.4556C303.054 51.8029 304.366 51.4765 305.995 51.4765C306.86 51.4765 307.675 51.5655 308.439 51.7435C309.211 51.9131 309.966 52.1632 310.705 52.4938L309.763 54.7445C309.126 54.4647 308.486 54.2358 307.841 54.0578C307.204 53.8713 306.555 53.7781 305.893 53.7781C305.121 53.7781 304.531 53.8967 304.124 54.1341C303.725 54.3715 303.525 54.7106 303.525 55.1514C303.525 55.482 303.623 55.7617 303.818 55.9906C304.013 56.2195 304.349 56.4484 304.824 56.6773C305.308 56.9061 305.978 57.1901 306.835 57.5292C307.675 57.8513 308.401 58.1904 309.012 58.5465C309.631 58.894 310.106 59.3221 310.437 59.8308C310.768 60.3394 310.934 60.9964 310.934 61.8017Z" fill="#2C3030"/>
<path d="M319.781 51.4765C321.037 51.4765 322.114 51.7351 323.014 52.2522C323.913 52.7693 324.605 53.5026 325.089 54.452C325.573 55.4014 325.814 56.5374 325.814 57.8598V59.462H316.407C316.441 60.8268 316.806 61.878 317.502 62.6155C318.207 63.353 319.191 63.7218 320.455 63.7218C321.355 63.7218 322.161 63.637 322.874 63.4675C323.595 63.2895 324.338 63.0309 325.102 62.6918V65.1205C324.397 65.4511 323.68 65.6927 322.95 65.8453C322.22 65.9979 321.346 66.0742 320.328 66.0742C318.945 66.0742 317.727 65.8072 316.675 65.2731C315.631 64.7306 314.812 63.9252 314.218 62.8571C313.632 61.789 313.34 60.4623 313.34 58.8771C313.34 57.3003 313.607 55.9609 314.142 54.8589C314.676 53.7569 315.427 52.9176 316.395 52.3412C317.362 51.7647 318.491 51.4765 319.781 51.4765ZM319.781 53.7272C318.839 53.7272 318.075 54.0324 317.489 54.6427C316.912 55.2531 316.573 56.1474 316.471 57.3258H322.887C322.878 56.6222 322.759 55.9991 322.53 55.4565C322.31 54.914 321.97 54.4902 321.512 54.185C321.062 53.8798 320.485 53.7272 319.781 53.7272Z" fill="#2C3030"/>
<path d="M338.658 61.8017C338.658 62.7257 338.433 63.5056 337.984 64.1414C337.534 64.7772 336.876 65.2604 336.011 65.591C335.153 65.9131 334.101 66.0742 332.854 66.0742C331.869 66.0742 331.021 66.0021 330.308 65.858C329.603 65.7224 328.937 65.5105 328.309 65.2222V62.6409C328.98 62.9546 329.731 63.2259 330.562 63.4548C331.403 63.6836 332.196 63.7981 332.943 63.7981C333.927 63.7981 334.636 63.6455 335.069 63.3403C335.501 63.0267 335.718 62.6113 335.718 62.0942C335.718 61.789 335.629 61.5177 335.45 61.2804C335.281 61.0345 334.958 60.7844 334.483 60.5301C334.016 60.2673 333.329 59.9537 332.421 59.5892C331.53 59.2331 330.779 58.8771 330.168 58.521C329.557 58.165 329.094 57.7369 328.78 57.2368C328.466 56.7281 328.309 56.0796 328.309 55.2912C328.309 54.0451 328.802 53.0999 329.786 52.4556C330.779 51.8029 332.09 51.4765 333.719 51.4765C334.585 51.4765 335.4 51.5655 336.163 51.7435C336.936 51.9131 337.691 52.1632 338.429 52.4938L337.487 54.7445C336.851 54.4647 336.21 54.2358 335.565 54.0578C334.929 53.8713 334.279 53.7781 333.617 53.7781C332.845 53.7781 332.255 53.8967 331.848 54.1341C331.449 54.3715 331.25 54.7106 331.25 55.1514C331.25 55.482 331.347 55.7617 331.543 55.9906C331.738 56.2195 332.073 56.4484 332.548 56.6773C333.032 56.9061 333.702 57.1901 334.559 57.5292C335.4 57.8513 336.125 58.1904 336.736 58.5465C337.356 58.894 337.831 59.3221 338.162 59.8308C338.493 60.3394 338.658 60.9964 338.658 61.8017Z" fill="#2C3030"/>
<path d="M351.362 61.8017C351.362 62.7257 351.137 63.5056 350.687 64.1414C350.238 64.7772 349.58 65.2604 348.714 65.591C347.857 65.9131 346.805 66.0742 345.557 66.0742C344.573 66.0742 343.724 66.0021 343.012 65.858C342.307 65.7224 341.641 65.5105 341.013 65.2222V62.6409C341.684 62.9546 342.435 63.2259 343.266 63.4548C344.106 63.6836 344.9 63.7981 345.647 63.7981C346.631 63.7981 347.34 63.6455 347.772 63.3403C348.205 63.0267 348.422 62.6113 348.422 62.0942C348.422 61.789 348.332 61.5177 348.154 61.2804C347.985 61.0345 347.662 60.7844 347.187 60.5301C346.72 60.2673 346.033 59.9537 345.125 59.5892C344.234 59.2331 343.483 58.8771 342.872 58.521C342.261 58.165 341.798 57.7369 341.484 57.2368C341.17 56.7281 341.013 56.0796 341.013 55.2912C341.013 54.0451 341.505 53.0999 342.49 52.4556C343.483 51.8029 344.794 51.4765 346.423 51.4765C347.289 51.4765 348.103 51.5655 348.867 51.7435C349.639 51.9131 350.395 52.1632 351.133 52.4938L350.191 54.7445C349.554 54.4647 348.914 54.2358 348.269 54.0578C347.632 53.8713 346.983 53.7781 346.321 53.7781C345.549 53.7781 344.959 53.8967 344.552 54.1341C344.153 54.3715 343.954 54.7106 343.954 55.1514C343.954 55.482 344.051 55.7617 344.246 55.9906C344.442 56.2195 344.777 56.4484 345.252 56.6773C345.736 56.9061 346.406 57.1901 347.263 57.5292C348.103 57.8513 348.829 58.1904 349.44 58.5465C350.059 58.894 350.535 59.3221 350.866 59.8308C351.197 60.3394 351.362 60.9964 351.362 61.8017Z" fill="#2C3030"/>
<path d="M370.52 51.4765C372.098 51.4765 373.286 51.8834 374.084 52.6972C374.89 53.511 375.293 54.8165 375.293 56.6137V65.8199H372.302V57.1477C372.302 56.0796 372.094 55.2743 371.678 54.7318C371.262 54.1892 370.63 53.9179 369.781 53.9179C368.593 53.9179 367.736 54.2994 367.21 55.0624C366.692 55.8168 366.434 56.9146 366.434 58.3557V65.8199H363.442V57.1477C363.442 56.4357 363.349 55.8423 363.162 55.3675C362.984 54.8843 362.708 54.5241 362.335 54.2867C361.961 54.0409 361.49 53.9179 360.922 53.9179C360.099 53.9179 359.441 54.1044 358.949 54.4774C358.465 54.8504 358.117 55.4014 357.905 56.1305C357.693 56.851 357.587 57.7369 357.587 58.7881V65.8199H354.595V51.7435H356.925L357.345 53.6382H357.51C357.799 53.1465 358.155 52.7439 358.58 52.4302C359.012 52.1081 359.492 51.8707 360.018 51.7181C360.544 51.5571 361.091 51.4765 361.66 51.4765C362.712 51.4765 363.599 51.663 364.32 52.036C365.042 52.4005 365.581 52.96 365.937 53.7145H366.166C366.607 52.9515 367.223 52.3878 368.012 52.0233C368.801 51.6588 369.637 51.4765 370.52 51.4765Z" fill="#2C3030"/>
<path d="M385.082 51.4765C386.338 51.4765 387.416 51.7351 388.315 52.2522C389.215 52.7693 389.906 53.5026 390.39 54.452C390.874 55.4014 391.116 56.5374 391.116 57.8598V59.462H381.709C381.743 60.8268 382.107 61.878 382.803 62.6155C383.508 63.353 384.492 63.7218 385.757 63.7218C386.656 63.7218 387.462 63.637 388.175 63.4675C388.896 63.2895 389.639 63.0309 390.403 62.6918V65.1205C389.698 65.4511 388.981 65.6927 388.251 65.8453C387.522 65.9979 386.648 66.0742 385.629 66.0742C384.246 66.0742 383.028 65.8072 381.976 65.2731C380.932 64.7306 380.113 63.9252 379.519 62.8571C378.934 61.789 378.641 60.4623 378.641 58.8771C378.641 57.3003 378.908 55.9609 379.443 54.8589C379.977 53.7569 380.728 52.9176 381.696 52.3412C382.663 51.7647 383.792 51.4765 385.082 51.4765ZM385.082 53.7272C384.14 53.7272 383.376 54.0324 382.791 54.6427C382.214 55.2531 381.874 56.1474 381.772 57.3258H388.188C388.179 56.6222 388.061 55.9991 387.831 55.4565C387.611 54.914 387.271 54.4902 386.813 54.185C386.363 53.8798 385.786 53.7272 385.082 53.7272Z" fill="#2C3030"/>
<path d="M401.834 51.4765C403.421 51.4765 404.655 51.8877 405.538 52.7099C406.429 53.5238 406.874 54.8335 406.874 56.6391V65.8199H403.883V57.1986C403.883 56.1051 403.658 55.287 403.208 54.7445C402.759 54.1934 402.063 53.9179 401.121 53.9179C399.755 53.9179 398.804 54.3376 398.269 55.1768C397.743 56.016 397.48 57.2325 397.48 58.8262V65.8199H394.489V51.7435H396.818L397.238 53.6509H397.404C397.709 53.1592 398.087 52.7566 398.537 52.4429C398.995 52.1208 399.504 51.8792 400.064 51.7181C400.633 51.5571 401.223 51.4765 401.834 51.4765Z" fill="#2C3030"/>
<path d="M416.307 63.6582C416.697 63.6582 417.083 63.6243 417.465 63.5565C417.847 63.4802 418.195 63.3912 418.509 63.2895V65.5529C418.178 65.697 417.749 65.8199 417.223 65.9216C416.697 66.0233 416.15 66.0742 415.581 66.0742C414.784 66.0742 414.066 65.9428 413.43 65.68C412.794 65.4087 412.289 64.9467 411.915 64.294C411.542 63.6413 411.355 62.7384 411.355 61.5855V54.0197H409.433V52.6845L411.495 51.6291L412.475 48.6155H414.359V51.7435H418.394V54.0197H414.359V61.5474C414.359 62.2595 414.537 62.7893 414.894 63.1369C415.25 63.4844 415.721 63.6582 416.307 63.6582Z" fill="#2C3030"/>
<path d="M434.904 65.8199H431.837V49.8235H426.388V47.2295H440.34V49.8235H434.904V65.8199Z" fill="#2C3030"/>
<path d="M440.76 51.7435H444.018L446.908 59.7799C447.035 60.1444 447.15 60.5047 447.252 60.8607C447.362 61.2083 447.455 61.5516 447.532 61.8907C447.617 62.2298 447.684 62.5689 447.735 62.908H447.812C447.897 62.4672 448.015 61.9755 448.168 61.433C448.329 60.8819 448.508 60.3309 448.703 59.7799L451.478 51.7435H454.698L448.652 67.7527C448.304 68.6682 447.875 69.4481 447.366 70.0924C446.866 70.7451 446.272 71.2368 445.584 71.5674C444.897 71.9065 444.112 72.076 443.229 72.076C442.805 72.076 442.436 72.0506 442.122 71.9997C441.808 71.9574 441.54 71.9107 441.32 71.8599V69.4693C441.498 69.5117 441.723 69.5498 441.994 69.5837C442.266 69.6177 442.546 69.6346 442.835 69.6346C443.369 69.6346 443.832 69.5286 444.222 69.3167C444.612 69.1048 444.943 68.8039 445.215 68.4139C445.487 68.0324 445.711 67.5959 445.89 67.1042L446.386 65.7817L440.76 51.7435Z" fill="#2C3030"/>
<path d="M464.067 51.4765C465.739 51.4765 467.08 52.0869 468.09 53.3076C469.108 54.5283 469.617 56.3424 469.617 58.7499C469.617 60.3436 469.379 61.6873 468.904 62.7808C468.437 63.8659 467.78 64.6882 466.931 65.2477C466.091 65.7987 465.111 66.0742 463.991 66.0742C463.278 66.0742 462.658 65.981 462.132 65.7945C461.606 65.608 461.156 65.3664 460.783 65.0697C460.41 64.7645 460.096 64.4339 459.841 64.0778H459.663C459.705 64.4169 459.743 64.7942 459.777 65.2095C459.82 65.6164 459.841 65.9894 459.841 66.3285V72.0633H456.837V51.7435H459.281L459.701 53.6891H459.841C460.104 53.2906 460.422 52.9219 460.796 52.5828C461.178 52.2437 461.636 51.9767 462.17 51.7817C462.713 51.5782 463.346 51.4765 464.067 51.4765ZM463.265 53.9179C462.442 53.9179 461.78 54.0832 461.279 54.4139C460.787 54.736 460.426 55.2234 460.197 55.8762C459.977 56.5289 459.858 57.347 459.841 58.3303V58.7499C459.841 59.7926 459.947 60.6785 460.159 61.4075C460.38 62.1281 460.74 62.6791 461.241 63.0606C461.75 63.4336 462.438 63.6201 463.303 63.6201C464.033 63.6201 464.636 63.4208 465.111 63.0224C465.595 62.624 465.955 62.056 466.193 61.3185C466.43 60.581 466.549 59.7121 466.549 58.7118C466.549 57.1944 466.278 56.016 465.735 55.1768C465.2 54.3376 464.377 53.9179 463.265 53.9179Z" fill="#2C3030"/>
<path d="M478.693 51.4765C479.949 51.4765 481.027 51.7351 481.926 52.2522C482.826 52.7693 483.517 53.5026 484.001 54.452C484.485 55.4014 484.727 56.5374 484.727 57.8598V59.462H475.32C475.354 60.8268 475.719 61.878 476.414 62.6155C477.119 63.353 478.103 63.7218 479.368 63.7218C480.267 63.7218 481.073 63.637 481.786 63.4675C482.508 63.2895 483.25 63.0309 484.014 62.6918V65.1205C483.309 65.4511 482.592 65.6927 481.863 65.8453C481.133 65.9979 480.259 66.0742 479.24 66.0742C477.857 66.0742 476.639 65.8072 475.587 65.2731C474.543 64.7306 473.724 63.9252 473.13 62.8571C472.545 61.789 472.252 60.4623 472.252 58.8771C472.252 57.3003 472.519 55.9609 473.054 54.8589C473.589 53.7569 474.34 52.9176 475.307 52.3412C476.274 51.7647 477.403 51.4765 478.693 51.4765ZM478.693 53.7272C477.751 53.7272 476.987 54.0324 476.402 54.6427C475.825 55.2531 475.485 56.1474 475.383 57.3258H481.799C481.79 56.6222 481.672 55.9991 481.443 55.4565C481.222 54.914 480.882 54.4902 480.424 54.185C479.974 53.8798 479.397 53.7272 478.693 53.7272Z" fill="#2C3030"/>
<path d="M269.385 105.651H278.075V114.332H269.385V105.651Z" fill="#71B8B8"/>
<path d="M269.385 130.97H278.075V139.65H269.385V130.97Z" fill="#909199"/>
<path d="M229.895 61.8288C243.371 85.2997 248.722 112.555 245.118 139.372C241.515 166.189 229.159 191.07 209.964 210.161C190.769 229.251 165.807 241.485 138.946 244.966C112.085 248.447 84.8244 242.982 61.3881 229.417C37.9518 215.852 19.6482 194.945 9.31343 169.934C-1.02139 144.924 -2.81047 117.207 4.22341 91.0777C11.2573 64.9486 26.7214 41.866 48.2197 25.4068C69.718 8.94754 96.0503 0.0304932 123.136 0.037117L123.106 123.013L229.895 61.8288Z" fill="#909199"/>
<path d="M123.106 0.0371094C144.792 0.0371096 166.093 5.75919 184.853 16.6245C203.614 27.4898 219.168 43.1127 229.942 61.9121L123.106 123.013V0.0371094Z" fill="#71B8B8"/>
<path d="M286.833 111.359C286.833 111.849 286.712 112.271 286.471 112.625C286.233 112.979 285.89 113.251 285.441 113.439C284.996 113.627 284.464 113.722 283.846 113.722C283.544 113.722 283.256 113.705 282.98 113.671C282.705 113.637 282.445 113.588 282.2 113.524C281.958 113.456 281.738 113.375 281.538 113.281V112.004C281.873 112.151 282.249 112.284 282.664 112.405C283.078 112.522 283.501 112.58 283.931 112.58C284.282 112.58 284.572 112.535 284.802 112.444C285.036 112.35 285.209 112.218 285.323 112.049C285.436 111.875 285.492 111.674 285.492 111.444C285.492 111.199 285.426 110.992 285.294 110.822C285.162 110.653 284.962 110.498 284.695 110.359C284.431 110.216 284.099 110.063 283.699 109.901C283.427 109.792 283.167 109.668 282.918 109.528C282.673 109.389 282.454 109.225 282.262 109.037C282.07 108.848 281.917 108.626 281.804 108.37C281.694 108.11 281.64 107.805 281.64 107.454C281.64 106.987 281.751 106.588 281.973 106.256C282.2 105.925 282.516 105.67 282.924 105.493C283.335 105.316 283.814 105.228 284.361 105.228C284.795 105.228 285.202 105.273 285.583 105.363C285.968 105.454 286.345 105.582 286.714 105.747L286.284 106.838C285.945 106.699 285.615 106.588 285.294 106.505C284.977 106.422 284.653 106.38 284.321 106.38C284.035 106.38 283.791 106.424 283.591 106.51C283.391 106.597 283.239 106.719 283.133 106.878C283.031 107.032 282.98 107.217 282.98 107.432C282.98 107.673 283.039 107.876 283.156 108.042C283.276 108.204 283.461 108.353 283.71 108.488C283.963 108.624 284.287 108.775 284.683 108.941C285.14 109.129 285.526 109.327 285.843 109.534C286.164 109.741 286.409 109.99 286.578 110.28C286.748 110.566 286.833 110.926 286.833 111.359Z" fill="#2C3030"/>
<path d="M290.788 107.234C291.346 107.234 291.825 107.349 292.225 107.579C292.624 107.808 292.932 108.134 293.147 108.556C293.362 108.978 293.469 109.483 293.469 110.071V110.783H289.288C289.304 111.389 289.466 111.857 289.775 112.184C290.088 112.512 290.526 112.676 291.087 112.676C291.487 112.676 291.846 112.638 292.162 112.563C292.483 112.484 292.813 112.369 293.152 112.218V113.298C292.839 113.445 292.521 113.552 292.196 113.62C291.872 113.688 291.484 113.722 291.031 113.722C290.416 113.722 289.875 113.603 289.407 113.366C288.943 113.124 288.579 112.767 288.315 112.292C288.055 111.817 287.925 111.227 287.925 110.523C287.925 109.822 288.044 109.227 288.281 108.737C288.519 108.247 288.853 107.874 289.283 107.618C289.713 107.362 290.214 107.234 290.788 107.234ZM290.788 108.234C290.369 108.234 290.03 108.37 289.769 108.641C289.513 108.912 289.362 109.31 289.317 109.833H292.168C292.164 109.521 292.111 109.244 292.01 109.003C291.912 108.762 291.761 108.573 291.557 108.438C291.357 108.302 291.101 108.234 290.788 108.234Z" fill="#2C3030"/>
<path d="M296.304 113.609H294.969V104.815H296.304V113.609Z" fill="#2C3030"/>
<path d="M301.333 108.364H299.811V113.609H298.482V108.364H297.458V107.725L298.482 107.335V106.9C298.482 106.369 298.565 105.947 298.731 105.634C298.9 105.322 299.142 105.098 299.455 104.962C299.772 104.822 300.149 104.753 300.586 104.753C300.873 104.753 301.135 104.777 301.373 104.826C301.61 104.871 301.81 104.924 301.972 104.984L301.627 105.99C301.499 105.949 301.356 105.911 301.197 105.877C301.039 105.84 300.869 105.821 300.688 105.821C300.386 105.821 300.164 105.915 300.021 106.103C299.881 106.292 299.811 106.567 299.811 106.929V107.352H301.333V108.364Z" fill="#2C3030"/>
<path d="M301.859 111.065V109.941H304.779V111.065H301.859Z" fill="#2C3030"/>
<path d="M311.398 113.609L310.589 111.314H307.426L306.617 113.609H305.186L308.264 105.312H309.768L312.84 113.609H311.398ZM310.238 110.15L309.452 107.889C309.421 107.791 309.378 107.654 309.321 107.477C309.265 107.296 309.208 107.113 309.152 106.929C309.095 106.74 309.048 106.582 309.01 106.454C308.973 106.608 308.925 106.782 308.869 106.974C308.816 107.162 308.763 107.339 308.71 107.505C308.661 107.671 308.624 107.799 308.597 107.889L307.805 110.15H310.238Z" fill="#2C3030"/>
<path d="M318.006 111.823C318.006 112.233 317.906 112.58 317.706 112.863C317.506 113.145 317.214 113.36 316.829 113.507C316.448 113.65 315.98 113.722 315.426 113.722C314.988 113.722 314.611 113.69 314.294 113.626C313.981 113.565 313.685 113.471 313.406 113.343V112.196C313.704 112.335 314.038 112.456 314.408 112.557C314.781 112.659 315.134 112.71 315.465 112.71C315.903 112.71 316.218 112.642 316.41 112.507C316.603 112.367 316.699 112.183 316.699 111.953C316.699 111.817 316.659 111.697 316.58 111.591C316.505 111.482 316.361 111.371 316.15 111.258C315.943 111.141 315.637 111.001 315.234 110.839C314.837 110.681 314.504 110.523 314.232 110.365C313.961 110.206 313.755 110.016 313.615 109.794C313.476 109.568 313.406 109.28 313.406 108.929C313.406 108.375 313.625 107.955 314.062 107.669C314.504 107.379 315.086 107.234 315.811 107.234C316.195 107.234 316.557 107.273 316.897 107.352C317.24 107.428 317.576 107.539 317.904 107.686L317.485 108.686C317.202 108.562 316.918 108.46 316.631 108.381C316.348 108.298 316.06 108.257 315.765 108.257C315.422 108.257 315.16 108.309 314.979 108.415C314.802 108.52 314.713 108.671 314.713 108.867C314.713 109.014 314.756 109.138 314.843 109.24C314.93 109.342 315.079 109.443 315.29 109.545C315.505 109.647 315.803 109.773 316.184 109.924C316.557 110.067 316.88 110.218 317.151 110.376C317.427 110.53 317.638 110.721 317.785 110.947C317.932 111.173 318.006 111.465 318.006 111.823Z" fill="#2C3030"/>
<path d="M323.652 111.823C323.652 112.233 323.552 112.58 323.352 112.863C323.152 113.145 322.86 113.36 322.475 113.507C322.094 113.65 321.626 113.722 321.072 113.722C320.635 113.722 320.257 113.69 319.941 113.626C319.627 113.565 319.331 113.471 319.052 113.343V112.196C319.35 112.335 319.684 112.456 320.054 112.557C320.427 112.659 320.78 112.71 321.112 112.71C321.549 112.71 321.864 112.642 322.056 112.507C322.249 112.367 322.345 112.183 322.345 111.953C322.345 111.817 322.305 111.697 322.226 111.591C322.151 111.482 322.007 111.371 321.796 111.258C321.589 111.141 321.283 111.001 320.88 110.839C320.484 110.681 320.15 110.523 319.878 110.365C319.607 110.206 319.401 110.016 319.262 109.794C319.122 109.568 319.052 109.28 319.052 108.929C319.052 108.375 319.271 107.955 319.709 107.669C320.15 107.379 320.733 107.234 321.457 107.234C321.841 107.234 322.203 107.273 322.543 107.352C322.886 107.428 323.222 107.539 323.55 107.686L323.131 108.686C322.848 108.562 322.564 108.46 322.277 108.381C321.994 108.298 321.706 108.257 321.411 108.257C321.068 108.257 320.806 108.309 320.625 108.415C320.448 108.52 320.359 108.671 320.359 108.867C320.359 109.014 320.403 109.138 320.489 109.24C320.576 109.342 320.725 109.443 320.936 109.545C321.151 109.647 321.449 109.773 321.83 109.924C322.204 110.067 322.526 110.218 322.798 110.376C323.073 110.53 323.284 110.721 323.431 110.947C323.578 111.173 323.652 111.465 323.652 111.823Z" fill="#2C3030"/>
<path d="M327.584 107.234C328.142 107.234 328.621 107.349 329.021 107.579C329.421 107.808 329.728 108.134 329.943 108.556C330.158 108.978 330.265 109.483 330.265 110.071V110.783H326.085C326.1 111.389 326.262 111.857 326.571 112.184C326.884 112.512 327.322 112.676 327.884 112.676C328.283 112.676 328.642 112.638 328.958 112.563C329.279 112.484 329.609 112.369 329.949 112.218V113.298C329.636 113.445 329.317 113.552 328.992 113.62C328.668 113.688 328.28 113.722 327.827 113.722C327.212 113.722 326.671 113.603 326.203 113.366C325.739 113.124 325.375 112.767 325.111 112.292C324.851 111.817 324.721 111.227 324.721 110.523C324.721 109.822 324.84 109.227 325.077 108.737C325.315 108.247 325.649 107.874 326.079 107.618C326.509 107.362 327.01 107.234 327.584 107.234ZM327.584 108.234C327.165 108.234 326.826 108.37 326.565 108.641C326.309 108.912 326.158 109.31 326.113 109.833H328.964C328.96 109.521 328.908 109.244 328.806 109.003C328.708 108.762 328.557 108.573 328.353 108.438C328.153 108.302 327.897 108.234 327.584 108.234Z" fill="#2C3030"/>
<path d="M335.974 111.823C335.974 112.233 335.874 112.58 335.674 112.863C335.474 113.145 335.182 113.36 334.797 113.507C334.416 113.65 333.948 113.722 333.394 113.722C332.956 113.722 332.579 113.69 332.262 113.626C331.949 113.565 331.653 113.471 331.374 113.343V112.196C331.672 112.335 332.006 112.456 332.376 112.557C332.749 112.659 333.102 112.71 333.434 112.71C333.871 112.71 334.186 112.642 334.378 112.507C334.571 112.367 334.667 112.183 334.667 111.953C334.667 111.817 334.627 111.697 334.548 111.591C334.473 111.482 334.329 111.371 334.118 111.258C333.911 111.141 333.605 111.001 333.202 110.839C332.806 110.681 332.472 110.523 332.2 110.365C331.929 110.206 331.723 110.016 331.584 109.794C331.444 109.568 331.374 109.28 331.374 108.929C331.374 108.375 331.593 107.955 332.03 107.669C332.472 107.379 333.055 107.234 333.779 107.234C334.163 107.234 334.525 107.273 334.865 107.352C335.208 107.428 335.544 107.539 335.872 107.686L335.453 108.686C335.17 108.562 334.886 108.46 334.599 108.381C334.316 108.298 334.028 108.257 333.733 108.257C333.39 108.257 333.128 108.309 332.947 108.415C332.77 108.52 332.681 108.671 332.681 108.867C332.681 109.014 332.724 109.138 332.811 109.24C332.898 109.342 333.047 109.443 333.258 109.545C333.473 109.647 333.771 109.773 334.152 109.924C334.525 110.067 334.848 110.218 335.119 110.376C335.395 110.53 335.606 110.721 335.753 110.947C335.9 111.173 335.974 111.465 335.974 111.823Z" fill="#2C3030"/>
<path d="M341.62 111.823C341.62 112.233 341.52 112.58 341.32 112.863C341.12 113.145 340.828 113.36 340.443 113.507C340.062 113.65 339.595 113.722 339.04 113.722C338.603 113.722 338.225 113.69 337.909 113.626C337.596 113.565 337.299 113.471 337.02 113.343V112.196C337.318 112.335 337.652 112.456 338.022 112.557C338.395 112.659 338.748 112.71 339.08 112.71C339.517 112.71 339.832 112.642 340.024 112.507C340.217 112.367 340.313 112.183 340.313 111.953C340.313 111.817 340.273 111.697 340.194 111.591C340.119 111.482 339.975 111.371 339.764 111.258C339.557 111.141 339.251 111.001 338.848 110.839C338.452 110.681 338.118 110.523 337.846 110.365C337.575 110.206 337.369 110.016 337.23 109.794C337.09 109.568 337.02 109.28 337.02 108.929C337.02 108.375 337.239 107.955 337.677 107.669C338.118 107.379 338.701 107.234 339.425 107.234C339.81 107.234 340.172 107.273 340.511 107.352C340.854 107.428 341.19 107.539 341.518 107.686L341.099 108.686C340.817 108.562 340.532 108.46 340.245 108.381C339.962 108.298 339.674 108.257 339.38 108.257C339.036 108.257 338.774 108.309 338.593 108.415C338.416 108.52 338.327 108.671 338.327 108.867C338.327 109.014 338.371 109.138 338.457 109.24C338.544 109.342 338.693 109.443 338.904 109.545C339.119 109.647 339.417 109.773 339.798 109.924C340.172 110.067 340.494 110.218 340.766 110.376C341.041 110.53 341.252 110.721 341.399 110.947C341.546 111.173 341.62 111.465 341.62 111.823Z" fill="#2C3030"/>
<path d="M350.134 107.234C350.836 107.234 351.364 107.415 351.718 107.776C352.077 108.138 352.256 108.718 352.256 109.517V113.609H350.926V109.754C350.926 109.28 350.834 108.922 350.649 108.681C350.464 108.439 350.183 108.319 349.806 108.319C349.278 108.319 348.897 108.488 348.663 108.827C348.433 109.163 348.318 109.651 348.318 110.291V113.609H346.989V109.754C346.989 109.438 346.947 109.174 346.864 108.963C346.785 108.748 346.663 108.588 346.497 108.483C346.331 108.373 346.121 108.319 345.869 108.319C345.503 108.319 345.21 108.402 344.992 108.568C344.777 108.733 344.622 108.978 344.528 109.302C344.434 109.622 344.386 110.016 344.386 110.483V113.609H343.057V107.352H344.092L344.279 108.195H344.352C344.481 107.976 344.639 107.797 344.828 107.658C345.02 107.514 345.233 107.409 345.467 107.341C345.701 107.27 345.944 107.234 346.197 107.234C346.664 107.234 347.059 107.317 347.379 107.482C347.7 107.644 347.939 107.893 348.098 108.228H348.2C348.396 107.889 348.669 107.639 349.02 107.477C349.371 107.315 349.742 107.234 350.134 107.234Z" fill="#2C3030"/>
<path d="M356.606 107.234C357.165 107.234 357.644 107.349 358.043 107.579C358.443 107.808 358.751 108.134 358.966 108.556C359.181 108.978 359.288 109.483 359.288 110.071V110.783H355.107C355.122 111.389 355.285 111.857 355.594 112.184C355.907 112.512 356.344 112.676 356.906 112.676C357.306 112.676 357.664 112.638 357.981 112.563C358.302 112.484 358.632 112.369 358.971 112.218V113.298C358.658 113.445 358.34 113.552 358.015 113.62C357.691 113.688 357.302 113.722 356.85 113.722C356.235 113.722 355.694 113.603 355.226 113.366C354.762 113.124 354.398 112.767 354.134 112.292C353.874 111.817 353.744 111.227 353.744 110.523C353.744 109.822 353.863 109.227 354.1 108.737C354.338 108.247 354.672 107.874 355.102 107.618C355.532 107.362 356.033 107.234 356.606 107.234ZM356.606 108.234C356.188 108.234 355.848 108.37 355.588 108.641C355.332 108.912 355.181 109.31 355.136 109.833H357.987C357.983 109.521 357.93 109.244 357.828 109.003C357.73 108.762 357.58 108.573 357.376 108.438C357.176 108.302 356.92 108.234 356.606 108.234Z" fill="#2C3030"/>
<path d="M364.052 107.234C364.757 107.234 365.306 107.416 365.698 107.782C366.094 108.144 366.292 108.726 366.292 109.528V113.609H364.963V109.777C364.963 109.291 364.863 108.927 364.663 108.686C364.463 108.441 364.154 108.319 363.735 108.319C363.128 108.319 362.705 108.505 362.468 108.878C362.234 109.251 362.117 109.792 362.117 110.5V113.609H360.787V107.352H361.823L362.009 108.2H362.083C362.219 107.982 362.387 107.803 362.586 107.663C362.79 107.52 363.016 107.413 363.265 107.341C363.518 107.27 363.78 107.234 364.052 107.234Z" fill="#2C3030"/>
<path d="M370.484 112.648C370.658 112.648 370.829 112.633 370.999 112.603C371.169 112.569 371.323 112.529 371.463 112.484V113.49C371.316 113.554 371.125 113.609 370.892 113.654C370.658 113.699 370.414 113.722 370.162 113.722C369.807 113.722 369.489 113.663 369.206 113.546C368.923 113.426 368.698 113.221 368.532 112.93C368.366 112.64 368.283 112.239 368.283 111.727V108.364H367.429V107.771L368.346 107.302L368.781 105.962H369.619V107.352H371.412V108.364H369.619V111.71C369.619 112.026 369.698 112.262 369.856 112.416C370.015 112.571 370.224 112.648 370.484 112.648Z" fill="#2C3030"/>
<path d="M284.927 139.65H283.563V132.541H281.142V131.388H287.342V132.541H284.927V139.65Z" fill="#2C3030"/>
<path d="M289.803 130.857V133.067C289.803 133.296 289.796 133.521 289.781 133.739C289.769 133.958 289.756 134.127 289.741 134.248H289.815C289.947 134.029 290.109 133.85 290.301 133.711C290.493 133.568 290.708 133.46 290.946 133.389C291.187 133.317 291.444 133.281 291.715 133.281C292.194 133.281 292.602 133.362 292.937 133.524C293.273 133.683 293.53 133.929 293.707 134.265C293.888 134.6 293.978 135.035 293.978 135.57V139.65H292.649V135.819C292.649 135.333 292.549 134.969 292.349 134.728C292.149 134.483 291.84 134.361 291.421 134.361C291.018 134.361 290.697 134.445 290.46 134.615C290.226 134.781 290.058 135.028 289.956 135.355C289.854 135.679 289.803 136.075 289.803 136.542V139.65H288.474V130.857H289.803Z" fill="#2C3030"/>
<path d="M297.169 133.394V139.65H295.84V133.394H297.169ZM296.513 130.998C296.717 130.998 296.892 131.053 297.039 131.162C297.19 131.271 297.265 131.46 297.265 131.727C297.265 131.991 297.19 132.179 297.039 132.292C296.892 132.402 296.717 132.456 296.513 132.456C296.302 132.456 296.123 132.402 295.976 132.292C295.832 132.179 295.761 131.991 295.761 131.727C295.761 131.46 295.832 131.271 295.976 131.162C296.123 131.053 296.302 130.998 296.513 130.998Z" fill="#2C3030"/>
<path d="M302.25 133.276C302.355 133.276 302.47 133.281 302.595 133.293C302.719 133.304 302.827 133.319 302.917 133.338L302.793 134.581C302.714 134.559 302.615 134.542 302.499 134.53C302.385 134.519 302.284 134.513 302.193 134.513C301.955 134.513 301.729 134.553 301.514 134.632C301.299 134.707 301.109 134.824 300.943 134.982C300.777 135.137 300.647 135.331 300.552 135.564C300.458 135.798 300.411 136.069 300.411 136.378V139.65H299.076V133.394H300.117L300.298 134.496H300.36C300.485 134.274 300.639 134.071 300.824 133.886C301.009 133.701 301.22 133.554 301.458 133.445C301.699 133.332 301.963 133.276 302.25 133.276Z" fill="#2C3030"/>
<path d="M306.182 139.763C305.435 139.763 304.835 139.492 304.383 138.95C303.934 138.403 303.709 137.599 303.709 136.537C303.709 135.463 303.937 134.651 304.394 134.101C304.854 133.551 305.459 133.276 306.21 133.276C306.527 133.276 306.804 133.319 307.042 133.406C307.279 133.488 307.483 133.602 307.653 133.745C307.826 133.888 307.973 134.048 308.094 134.225H308.156C308.137 134.108 308.115 133.941 308.088 133.722C308.066 133.5 308.054 133.294 308.054 133.106V130.857H309.389V139.65H308.348L308.111 138.797H308.054C307.941 138.978 307.798 139.142 307.624 139.289C307.455 139.432 307.251 139.547 307.013 139.633C306.779 139.72 306.502 139.763 306.182 139.763ZM306.555 138.684C307.124 138.684 307.526 138.52 307.76 138.192C307.994 137.865 308.115 137.373 308.122 136.717V136.542C308.122 135.841 308.009 135.304 307.783 134.932C307.556 134.555 307.143 134.366 306.544 134.366C306.065 134.366 305.699 134.56 305.446 134.948C305.197 135.333 305.073 135.87 305.073 136.559C305.073 137.249 305.197 137.776 305.446 138.142C305.699 138.503 306.068 138.684 306.555 138.684Z" fill="#2C3030"/>
<path d="M310.753 137.107V135.983H313.672V137.107H310.753Z" fill="#2C3030"/>
<path d="M317.57 131.388C318.637 131.388 319.416 131.607 319.907 132.044C320.397 132.481 320.642 133.093 320.642 133.88C320.642 134.238 320.585 134.579 320.472 134.903C320.363 135.223 320.182 135.508 319.929 135.757C319.676 136.002 319.343 136.196 318.928 136.339C318.517 136.482 318.009 136.553 317.406 136.553H316.523V139.65H315.166V131.388H317.57ZM317.48 132.513H316.523V135.423H317.265C317.691 135.423 318.053 135.374 318.351 135.276C318.649 135.175 318.875 135.014 319.03 134.796C319.184 134.577 319.262 134.289 319.262 133.931C319.262 133.453 319.116 133.097 318.826 132.863C318.539 132.629 318.091 132.513 317.48 132.513Z" fill="#2C3030"/>
<path d="M324.614 133.276C325.406 133.276 326.003 133.451 326.407 133.801C326.814 134.152 327.018 134.698 327.018 135.44V139.65H326.073L325.819 138.763H325.773C325.596 138.989 325.413 139.176 325.225 139.323C325.036 139.47 324.817 139.579 324.568 139.65C324.323 139.726 324.023 139.763 323.669 139.763C323.295 139.763 322.962 139.696 322.667 139.56C322.373 139.421 322.141 139.21 321.972 138.927C321.802 138.645 321.717 138.287 321.717 137.853C321.717 137.209 321.956 136.725 322.435 136.401C322.918 136.077 323.646 135.898 324.619 135.864L325.705 135.824V135.497C325.705 135.063 325.604 134.754 325.4 134.57C325.2 134.385 324.917 134.293 324.551 134.293C324.238 134.293 323.935 134.338 323.641 134.429C323.346 134.519 323.06 134.63 322.781 134.762L322.351 133.824C322.656 133.662 323.003 133.53 323.392 133.428C323.784 133.326 324.191 133.276 324.614 133.276ZM325.7 136.661L324.891 136.689C324.227 136.712 323.761 136.825 323.493 137.028C323.226 137.232 323.092 137.51 323.092 137.865C323.092 138.174 323.184 138.4 323.369 138.543C323.554 138.682 323.797 138.752 324.099 138.752C324.559 138.752 324.94 138.622 325.242 138.362C325.547 138.098 325.7 137.712 325.7 137.203V136.661Z" fill="#2C3030"/>
<path d="M332.053 133.276C332.159 133.276 332.274 133.281 332.398 133.293C332.523 133.304 332.63 133.319 332.721 133.338L332.596 134.581C332.517 134.559 332.419 134.542 332.302 134.53C332.189 134.519 332.087 134.513 331.997 134.513C331.759 134.513 331.533 134.553 331.318 134.632C331.103 134.707 330.912 134.824 330.746 134.982C330.58 135.137 330.45 135.331 330.356 135.564C330.262 135.798 330.214 136.069 330.214 136.378V139.65H328.879V133.394H329.92L330.101 134.496H330.164C330.288 134.274 330.443 134.071 330.627 133.886C330.812 133.701 331.023 133.554 331.261 133.445C331.502 133.332 331.766 133.276 332.053 133.276Z" fill="#2C3030"/>
<path d="M336.211 138.69C336.385 138.69 336.556 138.675 336.726 138.645C336.896 138.611 337.051 138.571 337.19 138.526V139.532C337.043 139.596 336.853 139.65 336.619 139.696C336.385 139.741 336.142 139.763 335.889 139.763C335.534 139.763 335.216 139.705 334.933 139.588C334.65 139.468 334.426 139.262 334.26 138.972C334.094 138.682 334.011 138.281 334.011 137.769V134.406H333.156V133.813L334.073 133.343L334.508 132.004H335.346V133.394H337.139V134.406H335.346V137.752C335.346 138.068 335.425 138.304 335.583 138.458C335.742 138.612 335.951 138.69 336.211 138.69Z" fill="#2C3030"/>
<path d="M337.518 133.394H338.967L340.251 136.966C340.307 137.128 340.358 137.288 340.404 137.446C340.453 137.601 340.494 137.753 340.528 137.904C340.566 138.055 340.596 138.206 340.619 138.356H340.652C340.69 138.16 340.743 137.942 340.811 137.701C340.883 137.456 340.962 137.211 341.048 136.966L342.282 133.394H343.713L341.026 140.509C340.871 140.916 340.681 141.263 340.454 141.549C340.232 141.839 339.968 142.058 339.662 142.205C339.357 142.356 339.008 142.431 338.616 142.431C338.427 142.431 338.263 142.42 338.124 142.397C337.984 142.378 337.865 142.358 337.767 142.335V141.272C337.846 141.291 337.946 141.308 338.067 141.323C338.188 141.338 338.312 141.346 338.44 141.346C338.678 141.346 338.884 141.299 339.057 141.205C339.231 141.11 339.378 140.977 339.498 140.803C339.619 140.634 339.719 140.44 339.798 140.221L340.019 139.633L337.518 133.394Z" fill="#2C3030"/>
<path d="M352.935 139.65L352.126 137.356H348.963L348.154 139.65H346.723L349.801 131.354H351.305L354.377 139.65H352.935ZM351.775 136.192L350.989 133.931C350.958 133.833 350.915 133.696 350.859 133.519C350.802 133.338 350.745 133.155 350.689 132.97C350.632 132.782 350.585 132.624 350.547 132.496C350.51 132.65 350.462 132.824 350.406 133.016C350.353 133.204 350.3 133.381 350.247 133.547C350.198 133.713 350.161 133.841 350.134 133.931L349.342 136.192H351.775Z" fill="#2C3030"/>
<path d="M359.543 137.865C359.543 138.275 359.443 138.622 359.243 138.904C359.043 139.187 358.751 139.402 358.366 139.549C357.985 139.692 357.517 139.763 356.963 139.763C356.525 139.763 356.148 139.731 355.831 139.667C355.518 139.607 355.222 139.513 354.943 139.385V138.238C355.241 138.377 355.575 138.498 355.945 138.599C356.318 138.701 356.671 138.752 357.003 138.752C357.44 138.752 357.755 138.684 357.947 138.548C358.14 138.409 358.236 138.224 358.236 137.995C358.236 137.859 358.196 137.738 358.117 137.633C358.042 137.524 357.898 137.412 357.687 137.299C357.48 137.183 357.174 137.043 356.771 136.881C356.375 136.723 356.041 136.565 355.769 136.407C355.498 136.248 355.292 136.058 355.153 135.836C355.013 135.61 354.943 135.321 354.943 134.971C354.943 134.417 355.162 133.997 355.599 133.711C356.041 133.421 356.623 133.276 357.348 133.276C357.732 133.276 358.094 133.315 358.434 133.394C358.777 133.47 359.113 133.581 359.441 133.728L359.022 134.728C358.739 134.604 358.455 134.502 358.168 134.423C357.885 134.34 357.597 134.299 357.302 134.299C356.959 134.299 356.697 134.351 356.516 134.457C356.339 134.562 356.25 134.713 356.25 134.909C356.25 135.056 356.293 135.18 356.38 135.282C356.467 135.384 356.616 135.485 356.827 135.587C357.042 135.689 357.34 135.815 357.721 135.966C358.094 136.109 358.417 136.26 358.688 136.418C358.964 136.572 359.175 136.763 359.322 136.989C359.469 137.215 359.543 137.507 359.543 137.865Z" fill="#2C3030"/>
<path d="M365.189 137.865C365.189 138.275 365.089 138.622 364.889 138.904C364.689 139.187 364.397 139.402 364.012 139.549C363.631 139.692 363.163 139.763 362.609 139.763C362.172 139.763 361.794 139.731 361.478 139.667C361.165 139.607 360.868 139.513 360.589 139.385V138.238C360.887 138.377 361.221 138.498 361.591 138.599C361.964 138.701 362.317 138.752 362.649 138.752C363.086 138.752 363.401 138.684 363.593 138.548C363.786 138.409 363.882 138.224 363.882 137.995C363.882 137.859 363.842 137.738 363.763 137.633C363.688 137.524 363.544 137.412 363.333 137.299C363.126 137.183 362.82 137.043 362.417 136.881C362.021 136.723 361.687 136.565 361.415 136.407C361.144 136.248 360.938 136.058 360.799 135.836C360.659 135.61 360.589 135.321 360.589 134.971C360.589 134.417 360.808 133.997 361.246 133.711C361.687 133.421 362.27 133.276 362.994 133.276C363.378 133.276 363.741 133.315 364.08 133.394C364.423 133.47 364.759 133.581 365.087 133.728L364.668 134.728C364.385 134.604 364.101 134.502 363.814 134.423C363.531 134.34 363.243 134.299 362.948 134.299C362.605 134.299 362.343 134.351 362.162 134.457C361.985 134.562 361.896 134.713 361.896 134.909C361.896 135.056 361.94 135.18 362.026 135.282C362.113 135.384 362.262 135.485 362.473 135.587C362.688 135.689 362.986 135.815 363.367 135.966C363.741 136.109 364.063 136.26 364.335 136.418C364.61 136.572 364.821 136.763 364.968 136.989C365.115 137.215 365.189 137.507 365.189 137.865Z" fill="#2C3030"/>
<path d="M369.121 133.276C369.679 133.276 370.158 133.391 370.558 133.62C370.958 133.85 371.265 134.176 371.48 134.598C371.695 135.02 371.802 135.525 371.802 136.113V136.825H367.622C367.637 137.431 367.799 137.899 368.108 138.226C368.421 138.554 368.859 138.718 369.421 138.718C369.82 138.718 370.179 138.68 370.496 138.605C370.816 138.526 371.146 138.411 371.486 138.26V139.34C371.173 139.487 370.854 139.594 370.529 139.662C370.205 139.73 369.817 139.763 369.364 139.763C368.749 139.763 368.208 139.645 367.74 139.407C367.276 139.166 366.912 138.808 366.648 138.334C366.388 137.859 366.258 137.269 366.258 136.565C366.258 135.864 366.377 135.269 366.615 134.779C366.852 134.289 367.186 133.916 367.616 133.66C368.046 133.404 368.547 133.276 369.121 133.276ZM369.121 134.276C368.702 134.276 368.363 134.412 368.102 134.683C367.846 134.954 367.695 135.352 367.65 135.875H370.501C370.497 135.563 370.445 135.286 370.343 135.045C370.245 134.803 370.094 134.615 369.89 134.479C369.69 134.344 369.434 134.276 369.121 134.276Z" fill="#2C3030"/>
<path d="M377.511 137.865C377.511 138.275 377.411 138.622 377.211 138.904C377.011 139.187 376.719 139.402 376.334 139.549C375.953 139.692 375.485 139.763 374.931 139.763C374.493 139.763 374.116 139.731 373.799 139.667C373.486 139.607 373.19 139.513 372.911 139.385V138.238C373.209 138.377 373.543 138.498 373.913 138.599C374.286 138.701 374.639 138.752 374.971 138.752C375.408 138.752 375.723 138.684 375.915 138.548C376.108 138.409 376.204 138.224 376.204 137.995C376.204 137.859 376.164 137.738 376.085 137.633C376.01 137.524 375.866 137.412 375.655 137.299C375.448 137.183 375.142 137.043 374.739 136.881C374.343 136.723 374.009 136.565 373.737 136.407C373.466 136.248 373.26 136.058 373.121 135.836C372.981 135.61 372.911 135.321 372.911 134.971C372.911 134.417 373.13 133.997 373.568 133.711C374.009 133.421 374.592 133.276 375.316 133.276C375.7 133.276 376.062 133.315 376.402 133.394C376.745 133.47 377.081 133.581 377.409 133.728L376.99 134.728C376.707 134.604 376.423 134.502 376.136 134.423C375.853 134.34 375.565 134.299 375.27 134.299C374.927 134.299 374.665 134.351 374.484 134.457C374.307 134.562 374.218 134.713 374.218 134.909C374.218 135.056 374.262 135.18 374.348 135.282C374.435 135.384 374.584 135.485 374.795 135.587C375.01 135.689 375.308 135.815 375.689 135.966C376.062 136.109 376.385 136.26 376.657 136.418C376.932 136.572 377.143 136.763 377.29 136.989C377.437 137.215 377.511 137.507 377.511 137.865Z" fill="#2C3030"/>
<path d="M383.157 137.865C383.157 138.275 383.057 138.622 382.857 138.904C382.657 139.187 382.365 139.402 381.98 139.549C381.599 139.692 381.132 139.763 380.577 139.763C380.14 139.763 379.762 139.731 379.446 139.667C379.133 139.607 378.837 139.513 378.557 139.385V138.238C378.855 138.377 379.189 138.498 379.559 138.599C379.932 138.701 380.285 138.752 380.617 138.752C381.054 138.752 381.369 138.684 381.562 138.548C381.754 138.409 381.85 138.224 381.85 137.995C381.85 137.859 381.81 137.738 381.731 137.633C381.656 137.524 381.513 137.412 381.301 137.299C381.094 137.183 380.788 137.043 380.385 136.881C379.989 136.723 379.655 136.565 379.383 136.407C379.112 136.248 378.906 136.058 378.767 135.836C378.627 135.61 378.557 135.321 378.557 134.971C378.557 134.417 378.776 133.997 379.214 133.711C379.655 133.421 380.238 133.276 380.962 133.276C381.347 133.276 381.709 133.315 382.048 133.394C382.391 133.47 382.727 133.581 383.055 133.728L382.636 134.728C382.354 134.604 382.069 134.502 381.782 134.423C381.499 134.34 381.211 134.299 380.917 134.299C380.573 134.299 380.311 134.351 380.13 134.457C379.953 134.562 379.864 134.713 379.864 134.909C379.864 135.056 379.908 135.18 379.994 135.282C380.081 135.384 380.23 135.485 380.441 135.587C380.656 135.689 380.954 135.815 381.335 135.966C381.709 136.109 382.031 136.26 382.303 136.418C382.578 136.572 382.789 136.763 382.936 136.989C383.083 137.215 383.157 137.507 383.157 137.865Z" fill="#2C3030"/>
<path d="M391.671 133.276C392.373 133.276 392.901 133.456 393.255 133.818C393.614 134.18 393.793 134.76 393.793 135.559V139.65H392.463V135.796C392.463 135.321 392.371 134.964 392.186 134.722C392.001 134.481 391.72 134.361 391.343 134.361C390.815 134.361 390.434 134.53 390.2 134.869C389.97 135.205 389.855 135.693 389.855 136.333V139.65H388.526V135.796C388.526 135.48 388.484 135.216 388.401 135.005C388.322 134.79 388.2 134.63 388.034 134.525C387.868 134.415 387.658 134.361 387.406 134.361C387.04 134.361 386.748 134.444 386.529 134.609C386.314 134.775 386.159 135.02 386.065 135.344C385.971 135.664 385.923 136.058 385.923 136.525V139.65H384.594V133.394H385.629L385.816 134.236H385.889C386.018 134.018 386.176 133.839 386.365 133.699C386.557 133.556 386.77 133.451 387.004 133.383C387.238 133.311 387.481 133.276 387.734 133.276C388.202 133.276 388.596 133.359 388.916 133.524C389.237 133.686 389.476 133.935 389.635 134.27H389.737C389.933 133.931 390.206 133.681 390.557 133.519C390.908 133.357 391.279 133.276 391.671 133.276Z" fill="#2C3030"/>
<path d="M398.144 133.276C398.702 133.276 399.181 133.391 399.581 133.62C399.98 133.85 400.288 134.176 400.503 134.598C400.718 135.02 400.825 135.525 400.825 136.113V136.825H396.644C396.659 137.431 396.822 137.899 397.131 138.226C397.444 138.554 397.881 138.718 398.443 138.718C398.843 138.718 399.201 138.68 399.518 138.605C399.839 138.526 400.169 138.411 400.508 138.26V139.34C400.195 139.487 399.877 139.594 399.552 139.662C399.228 139.73 398.839 139.763 398.387 139.763C397.772 139.763 397.231 139.645 396.763 139.407C396.299 139.166 395.935 138.808 395.671 138.334C395.411 137.859 395.281 137.269 395.281 136.565C395.281 135.864 395.4 135.269 395.637 134.779C395.875 134.289 396.209 133.916 396.639 133.66C397.069 133.404 397.57 133.276 398.144 133.276ZM398.144 134.276C397.725 134.276 397.385 134.412 397.125 134.683C396.869 134.954 396.718 135.352 396.673 135.875H399.524C399.52 135.563 399.467 135.286 399.366 135.045C399.267 134.803 399.117 134.615 398.913 134.479C398.713 134.344 398.457 134.276 398.144 134.276Z" fill="#2C3030"/>
<path d="M405.589 133.276C406.294 133.276 406.843 133.458 407.235 133.824C407.631 134.186 407.829 134.768 407.829 135.57V139.65H406.5V135.819C406.5 135.333 406.4 134.969 406.2 134.728C406 134.483 405.691 134.361 405.272 134.361C404.665 134.361 404.242 134.547 404.005 134.92C403.771 135.293 403.654 135.834 403.654 136.542V139.65H402.324V133.394H403.36L403.546 134.242H403.62C403.756 134.023 403.924 133.845 404.123 133.705C404.327 133.562 404.553 133.455 404.802 133.383C405.055 133.311 405.317 133.276 405.589 133.276Z" fill="#2C3030"/>
<path d="M412.021 138.69C412.195 138.69 412.366 138.675 412.536 138.645C412.706 138.611 412.86 138.571 413 138.526V139.532C412.853 139.596 412.662 139.65 412.429 139.696C412.195 139.741 411.951 139.763 411.699 139.763C411.344 139.763 411.026 139.705 410.743 139.588C410.46 139.468 410.235 139.262 410.069 138.972C409.904 138.682 409.821 138.281 409.821 137.769V134.406H408.966V133.813L409.883 133.343L410.318 132.004H411.156V133.394H412.949V134.406H411.156V137.752C411.156 138.068 411.235 138.304 411.393 138.458C411.552 138.612 411.761 138.69 412.021 138.69Z" fill="#2C3030"/>
<path d="M133.244 59.3546H168.728V82.503H133.244V59.3546Z" fill="#2C3030"/>
<path d="M143.467 75.2691H142.132V69.951C142.132 69.774 142.134 69.5969 142.138 69.4198C142.142 69.2427 142.146 69.0694 142.149 68.8999C142.157 68.7303 142.166 68.5683 142.178 68.4138C142.098 68.5005 142 68.5947 141.883 68.6964C141.77 68.7982 141.65 68.9036 141.521 69.0129L140.571 69.7702L139.903 68.9281L142.359 67.0067H143.467V75.2691Z" fill="#F9F6F6"/>
<path d="M147.134 75.2691L150.381 68.1708H146.087V67.0067H151.812V67.9165L148.565 75.2691H147.134Z" fill="#F9F6F6"/>
<path d="M154.584 66.888C155.192 66.888 155.652 67.114 155.965 67.5661C156.278 68.0145 156.434 68.6493 156.434 69.4707C156.434 70.2882 156.283 70.9269 155.982 71.3865C155.684 71.8462 155.218 72.076 154.584 72.076C153.992 72.076 153.542 71.8462 153.232 71.3865C152.923 70.9269 152.768 70.2882 152.768 69.4707C152.768 68.6493 152.914 68.0145 153.204 67.5661C153.498 67.114 153.958 66.888 154.584 66.888ZM154.59 67.8148C154.345 67.8148 154.164 67.9523 154.047 68.2274C153.934 68.5024 153.877 68.9187 153.877 69.4763C153.877 70.0302 153.934 70.4484 154.047 70.7309C154.164 71.0097 154.345 71.1492 154.59 71.1492C154.839 71.1492 155.024 71.0097 155.144 70.7309C155.269 70.4521 155.331 70.0339 155.331 69.4763C155.331 68.9225 155.271 68.5081 155.15 68.233C155.029 67.9542 154.843 67.8148 154.59 67.8148ZM160.14 67.0067L155.552 75.2691H154.46L159.048 67.0067H160.14ZM159.987 70.1941C160.594 70.1941 161.055 70.4201 161.368 70.8722C161.684 71.3206 161.843 71.9554 161.843 72.7768C161.843 73.5906 161.692 74.2273 161.39 74.687C161.092 75.1466 160.625 75.3764 159.987 75.3764C159.395 75.3764 158.944 75.1466 158.635 74.687C158.326 74.2273 158.171 73.5906 158.171 72.7768C158.171 71.9554 158.316 71.3206 158.607 70.8722C158.901 70.4201 159.361 70.1941 159.987 70.1941ZM159.993 71.1209C159.748 71.1209 159.567 71.2584 159.45 71.5334C159.337 71.8085 159.28 72.2248 159.28 72.7824C159.28 73.3363 159.337 73.7545 159.45 74.037C159.567 74.3159 159.748 74.4552 159.993 74.4552C160.246 74.4552 160.432 74.3177 160.553 74.0427C160.674 73.7639 160.734 73.3438 160.734 72.7824C160.734 72.2286 160.674 71.8141 160.553 71.5391C160.432 71.2603 160.246 71.1209 159.993 71.1209Z" fill="#F9F6F6"/>
<path d="M70.9672 159.905H106.451V183.054H70.9672V159.905Z" fill="#2C3030"/>
<path d="M80.07 167.444C80.549 167.444 80.9809 167.52 81.3656 167.67C81.7503 167.817 82.0558 168.038 82.2821 168.332C82.5084 168.625 82.6215 168.989 82.6215 169.422C82.6215 169.758 82.5518 170.05 82.4122 170.298C82.2764 170.547 82.0916 170.765 81.8578 170.954C81.6239 171.138 81.3618 171.302 81.0714 171.445C81.3958 171.604 81.6937 171.786 81.9653 171.994C82.2406 172.197 82.4612 172.436 82.6272 172.711C82.7969 172.986 82.8818 173.309 82.8818 173.678C82.8818 174.141 82.763 174.542 82.5254 174.882C82.2915 175.217 81.9653 175.477 81.5466 175.661C81.128 175.842 80.6395 175.933 80.0813 175.933C79.4816 175.933 78.9706 175.844 78.5482 175.667C78.1257 175.49 77.8052 175.238 77.5864 174.91C77.3676 174.578 77.2583 174.183 77.2583 173.723C77.2583 173.342 77.3337 173.013 77.4846 172.734C77.6354 172.455 77.8372 172.214 78.0899 172.011C78.3464 171.807 78.6274 171.636 78.9329 171.496C78.6726 171.342 78.435 171.169 78.22 170.976C78.0051 170.781 77.8334 170.556 77.7052 170.304C77.5807 170.048 77.5185 169.752 77.5185 169.417C77.5185 168.987 77.6335 168.627 77.8636 168.337C78.0937 168.043 78.4011 167.821 78.7858 167.67C79.1743 167.52 79.6023 167.444 80.07 167.444ZM78.5255 173.672C78.5255 174.034 78.6538 174.332 78.9102 174.565C79.1667 174.799 79.5495 174.915 80.0587 174.915C80.5641 174.915 80.9488 174.801 81.2128 174.571C81.4768 174.341 81.6088 174.038 81.6088 173.661C81.6088 173.42 81.541 173.207 81.4052 173.022C81.2732 172.838 81.094 172.674 80.8677 172.531C80.6452 172.384 80.3982 172.248 80.1266 172.124L79.9456 172.05C79.6514 172.175 79.3987 172.316 79.1875 172.474C78.9763 172.629 78.8122 172.804 78.6953 173C78.5821 173.196 78.5255 173.42 78.5255 173.672ZM80.0587 168.467C79.6929 168.467 79.3911 168.558 79.1535 168.738C78.9197 168.916 78.8028 169.172 78.8028 169.507C78.8028 169.744 78.8593 169.948 78.9725 170.117C79.0894 170.287 79.2459 170.434 79.442 170.558C79.6382 170.679 79.855 170.792 80.0927 170.897C80.3227 170.796 80.5302 170.684 80.715 170.564C80.9036 170.44 81.0525 170.293 81.1619 170.123C81.2751 169.95 81.3316 169.743 81.3316 169.501C81.3316 169.17 81.2128 168.916 80.9752 168.738C80.7414 168.558 80.4359 168.467 80.0587 168.467Z" fill="#F9F6F6"/>
<path d="M89.1955 169.445C89.1955 169.818 89.1201 170.142 88.9692 170.417C88.8183 170.692 88.6109 170.918 88.3469 171.095C88.0866 171.268 87.7849 171.393 87.4417 171.468V171.508C88.1017 171.591 88.5996 171.798 88.9353 172.129C89.2747 172.461 89.4444 172.9 89.4444 173.446C89.4444 173.925 89.3294 174.352 89.0993 174.729C88.8693 175.102 88.5166 175.396 88.0414 175.611C87.5662 175.825 86.9552 175.933 86.2084 175.933C85.7595 175.933 85.3428 175.897 84.9581 175.825C84.5771 175.754 84.2151 175.639 83.8718 175.481V174.299C84.2226 174.473 84.596 174.607 84.992 174.701C85.388 174.795 85.7633 174.842 86.1178 174.842C86.8081 174.842 87.3003 174.714 87.5944 174.458C87.8886 174.198 88.0357 173.84 88.0357 173.384C88.0357 173.09 87.9584 172.849 87.8038 172.661C87.6529 172.472 87.4172 172.331 87.0966 172.237C86.7798 172.143 86.3705 172.095 85.8689 172.095H85.1391V171.027H85.8746C86.3536 171.027 86.7383 170.971 87.0287 170.858C87.3191 170.741 87.5284 170.581 87.6567 170.377C87.7887 170.174 87.8547 169.937 87.8547 169.665C87.8547 169.311 87.7397 169.036 87.5096 168.84C87.2795 168.64 86.9382 168.541 86.4856 168.541C86.2065 168.541 85.9519 168.573 85.7218 168.637C85.4955 168.701 85.2862 168.782 85.0938 168.88C84.9015 168.978 84.7186 169.083 84.5451 169.196L83.9058 168.275C84.2188 168.041 84.5922 167.844 85.026 167.682C85.4597 167.52 85.9651 167.439 86.5422 167.439C87.3908 167.439 88.0452 167.621 88.5053 167.987C88.9654 168.349 89.1955 168.835 89.1955 169.445Z" fill="#F9F6F6"/>
<path d="M92.3071 167.439C92.9143 167.439 93.3745 167.665 93.6875 168.117C94.0006 168.565 94.1571 169.2 94.1571 170.021C94.1571 170.839 94.0062 171.478 93.7045 171.937C93.4065 172.397 92.9407 172.627 92.3071 172.627C91.715 172.627 91.2642 172.397 90.955 171.937C90.6457 171.478 90.4911 170.839 90.4911 170.021C90.4911 169.2 90.6363 168.565 90.9267 168.117C91.2209 167.665 91.681 167.439 92.3071 167.439ZM92.3128 168.365C92.0676 168.365 91.8866 168.503 91.7696 168.778C91.6565 169.053 91.5999 169.469 91.5999 170.027C91.5999 170.581 91.6565 170.999 91.7696 171.282C91.8866 171.56 92.0676 171.7 92.3128 171.7C92.5617 171.7 92.7465 171.56 92.8672 171.282C92.9917 171.003 93.0539 170.585 93.0539 170.027C93.0539 169.473 92.9935 169.059 92.8728 168.784C92.7522 168.505 92.5655 168.365 92.3128 168.365ZM97.8627 167.557L93.2745 175.82H92.1826L96.7708 167.557H97.8627ZM97.71 170.745C98.3172 170.745 98.7773 170.971 99.0904 171.423C99.4072 171.871 99.5656 172.506 99.5656 173.327C99.5656 174.141 99.4148 174.778 99.113 175.238C98.8151 175.697 98.3474 175.927 97.71 175.927C97.1178 175.927 96.6671 175.697 96.3578 175.238C96.0486 174.778 95.8939 174.141 95.8939 173.327C95.8939 172.506 96.0391 171.871 96.3296 171.423C96.6237 170.971 97.0839 170.745 97.71 170.745ZM97.7156 171.672C97.4705 171.672 97.2894 171.809 97.1725 172.084C97.0594 172.359 97.0028 172.775 97.0028 173.333C97.0028 173.887 97.0594 174.305 97.1725 174.588C97.2894 174.866 97.4705 175.006 97.7156 175.006C97.9683 175.006 98.155 174.868 98.2757 174.593C98.3964 174.315 98.4568 173.894 98.4568 173.333C98.4568 172.779 98.3964 172.365 98.2757 172.09C98.155 171.811 97.9683 171.672 97.7156 171.672Z" fill="#F9F6F6"/>
<g filter="url(#filter0_d_4292_1779)">
<rect x="133" y="59.9883" width="36" height="23" fill="#2C3030"/>
</g>
<g filter="url(#filter1_d_4292_1779)">
<rect x="71" y="159.988" width="35" height="23" fill="#2C3030"/>
</g>
<path d="M143.534 75.3659H142.193V70.0501C142.193 69.8731 142.195 69.6961 142.198 69.5191C142.202 69.3421 142.206 69.1688 142.21 68.9994C142.217 68.8299 142.227 68.668 142.238 68.5135C142.159 68.6002 142.06 68.6943 141.942 68.796C141.829 68.8977 141.707 69.0031 141.579 69.1124L140.624 69.8693L139.953 69.0276L142.42 67.1069H143.534V75.3659Z" fill="#F9F6F6"/>
<path d="M147.218 75.3659L150.482 68.2706H146.167V67.1069H151.92V68.0164L148.657 75.3659H147.218Z" fill="#F9F6F6"/>
<path d="M154.706 66.9883C155.316 66.9883 155.778 67.2142 156.093 67.6662C156.408 68.1143 156.565 68.7489 156.565 69.5699C156.565 70.3872 156.413 71.0255 156.11 71.485C155.811 71.9445 155.343 72.1742 154.706 72.1742C154.111 72.1742 153.658 71.9445 153.347 71.485C153.036 71.0255 152.881 70.3872 152.881 69.5699C152.881 68.7489 153.027 68.1143 153.319 67.6662C153.614 67.2142 154.077 66.9883 154.706 66.9883ZM154.712 67.9147C154.465 67.9147 154.283 68.0522 154.166 68.3271C154.052 68.602 153.995 69.0182 153.995 69.5756C153.995 70.1292 154.052 70.5472 154.166 70.8297C154.283 71.1084 154.465 71.2477 154.712 71.2477C154.962 71.2477 155.147 71.1084 155.269 70.8297C155.394 70.551 155.456 70.133 155.456 69.5756C155.456 69.022 155.396 68.6077 155.274 68.3328C155.153 68.0541 154.965 67.9147 154.712 67.9147ZM160.289 67.1069L155.678 75.3659H154.581L159.191 67.1069H160.289ZM160.135 70.293C160.745 70.293 161.208 70.519 161.522 70.9709C161.841 71.4191 162 72.0537 162 72.8747C162 73.6882 161.848 74.3246 161.545 74.7841C161.246 75.2435 160.776 75.4733 160.135 75.4733C159.54 75.4733 159.087 75.2435 158.776 74.7841C158.466 74.3246 158.31 73.6882 158.31 72.8747C158.31 72.0537 158.456 71.4191 158.748 70.9709C159.044 70.519 159.506 70.293 160.135 70.293ZM160.141 71.2195C159.895 71.2195 159.713 71.3569 159.595 71.6319C159.481 71.9068 159.425 72.3229 159.425 72.8803C159.425 73.4339 159.481 73.852 159.595 74.1344C159.713 74.4131 159.895 74.5525 160.141 74.5525C160.395 74.5525 160.582 74.415 160.704 74.1401C160.825 73.8614 160.886 73.4415 160.886 72.8803C160.886 72.3267 160.825 71.9124 160.704 71.6375C160.582 71.3588 160.395 71.2195 160.141 71.2195Z" fill="#F9F6F6"/>
<path d="M79.8256 167.503C80.3069 167.503 80.7409 167.579 81.1275 167.729C81.5141 167.876 81.8211 168.096 82.0485 168.39C82.2759 168.684 82.3896 169.047 82.3896 169.48C82.3896 169.816 82.3195 170.108 82.1793 170.356C82.0428 170.605 81.8571 170.823 81.6221 171.011C81.3871 171.196 81.1237 171.36 80.8319 171.503C81.1578 171.661 81.4572 171.844 81.7301 172.051C82.0068 172.254 82.2285 172.493 82.3953 172.768C82.5658 173.043 82.6511 173.365 82.6511 173.734C82.6511 174.198 82.5317 174.599 82.293 174.938C82.058 175.273 81.7301 175.533 81.3094 175.717C80.8887 175.898 80.3979 175.988 79.8369 175.988C79.2343 175.988 78.7207 175.9 78.2962 175.723C77.8717 175.546 77.5496 175.293 77.3297 174.966C77.1099 174.634 77 174.239 77 173.779C77 173.399 77.0758 173.07 77.2274 172.791C77.379 172.512 77.5818 172.271 77.8357 172.068C78.0935 171.864 78.3758 171.693 78.6828 171.554C78.4213 171.399 78.1825 171.226 77.9665 171.034C77.7505 170.838 77.578 170.614 77.4491 170.362C77.3241 170.106 77.2615 169.81 77.2615 169.475C77.2615 169.045 77.3771 168.686 77.6083 168.396C77.8395 168.102 78.1484 167.88 78.535 167.729C78.9254 167.579 79.3556 167.503 79.8256 167.503ZM78.2735 173.729C78.2735 174.09 78.4024 174.388 78.6601 174.621C78.9178 174.855 79.3025 174.971 79.8142 174.971C80.3221 174.971 80.7087 174.857 80.974 174.627C81.2393 174.397 81.3719 174.094 81.3719 173.717C81.3719 173.476 81.3037 173.264 81.1673 173.079C81.0346 172.894 80.8546 172.731 80.6272 172.588C80.4036 172.441 80.1553 172.305 79.8824 172.181L79.7005 172.107C79.4049 172.232 79.1509 172.373 78.9387 172.531C78.7264 172.685 78.5615 172.861 78.4441 173.056C78.3303 173.252 78.2735 173.476 78.2735 173.729ZM79.8142 168.526C79.4465 168.526 79.1433 168.616 78.9046 168.797C78.6696 168.974 78.5521 169.23 78.5521 169.565C78.5521 169.802 78.6089 170.006 78.7226 170.175C78.8401 170.345 78.9974 170.492 79.1945 170.616C79.3916 170.736 79.6095 170.849 79.8483 170.955C80.0795 170.853 80.288 170.742 80.4737 170.622C80.6632 170.497 80.8129 170.35 80.9228 170.181C81.0365 170.008 81.0934 169.801 81.0934 169.56C81.0934 169.228 80.974 168.974 80.7352 168.797C80.5002 168.616 80.1932 168.526 79.8142 168.526Z" fill="#F9F6F6"/>
<path d="M88.9959 169.503C88.9959 169.876 88.9201 170.2 88.7684 170.475C88.6168 170.75 88.4084 170.976 88.1431 171.153C87.8815 171.326 87.5783 171.45 87.2334 171.525V171.565C87.8967 171.648 88.397 171.855 88.7343 172.186C89.0754 172.518 89.246 172.957 89.246 173.503C89.246 173.981 89.1304 174.408 88.8992 174.785C88.668 175.158 88.3136 175.452 87.8361 175.666C87.3585 175.881 86.7445 175.988 85.994 175.988C85.543 175.988 85.1242 175.953 84.7376 175.881C84.3548 175.809 83.9909 175.695 83.646 175.536V174.356C83.9985 174.529 84.3738 174.663 84.7717 174.757C85.1697 174.851 85.5468 174.898 85.9031 174.898C86.5967 174.898 87.0913 174.77 87.3869 174.514C87.6826 174.254 87.8304 173.896 87.8304 173.441C87.8304 173.147 87.7527 172.906 87.5973 172.717C87.4457 172.529 87.2088 172.388 86.8866 172.294C86.5683 172.2 86.157 172.153 85.6529 172.153H84.9195V171.085H85.6586C86.14 171.085 86.5266 171.028 86.8184 170.915C87.1102 170.799 87.3206 170.639 87.4495 170.435C87.5821 170.232 87.6485 169.995 87.6485 169.723C87.6485 169.369 87.5329 169.094 87.3017 168.899C87.0705 168.699 86.7274 168.599 86.2726 168.599C85.9922 168.599 85.7363 168.631 85.5051 168.695C85.2777 168.759 85.0674 168.84 84.8741 168.938C84.6808 169.036 84.4969 169.142 84.3226 169.255L83.6802 168.334C83.9947 168.1 84.37 167.902 84.8058 167.741C85.2417 167.579 85.7496 167.498 86.3295 167.498C87.1823 167.498 87.8399 167.68 88.3023 168.046C88.7647 168.407 88.9959 168.893 88.9959 169.503Z" fill="#F9F6F6"/>
<path d="M92.1227 167.498C92.733 167.498 93.1953 167.724 93.5099 168.176C93.8245 168.624 93.9818 169.258 93.9818 170.079C93.9818 170.897 93.8302 171.535 93.527 171.994C93.2276 172.454 92.7595 172.684 92.1227 172.684C91.5277 172.684 91.0748 172.454 90.764 171.994C90.4532 171.535 90.2978 170.897 90.2978 170.079C90.2978 169.258 90.4437 168.624 90.7355 168.176C91.0312 167.724 91.4936 167.498 92.1227 167.498ZM92.1284 168.424C91.8821 168.424 91.7001 168.562 91.5826 168.836C91.4689 169.111 91.4121 169.528 91.4121 170.085C91.4121 170.639 91.4689 171.057 91.5826 171.339C91.7001 171.618 91.8821 171.757 92.1284 171.757C92.3786 171.757 92.5643 171.618 92.6856 171.339C92.8106 171.06 92.8732 170.642 92.8732 170.085C92.8732 169.531 92.8125 169.117 92.6913 168.842C92.57 168.563 92.3824 168.424 92.1284 168.424ZM97.7056 167.616L93.0949 175.875H91.9977L96.6084 167.616H97.7056ZM97.5521 170.802C98.1624 170.802 98.6248 171.028 98.9393 171.48C99.2577 171.928 99.4169 172.563 99.4169 173.384C99.4169 174.198 99.2653 174.834 98.9621 175.293C98.6627 175.753 98.1927 175.983 97.5521 175.983C96.9571 175.983 96.5042 175.753 96.1934 175.293C95.8826 174.834 95.7272 174.198 95.7272 173.384C95.7272 172.563 95.8731 171.928 96.1649 171.48C96.4606 171.028 96.923 170.802 97.5521 170.802ZM97.5578 171.729C97.3115 171.729 97.1295 171.866 97.012 172.141C96.8983 172.416 96.8415 172.832 96.8415 173.39C96.8415 173.943 96.8983 174.361 97.012 174.644C97.1295 174.922 97.3115 175.062 97.5578 175.062C97.8118 175.062 97.9994 174.924 98.1207 174.649C98.2419 174.371 98.3026 173.951 98.3026 173.39C98.3026 172.836 98.2419 172.422 98.1207 172.147C97.9994 171.868 97.8118 171.729 97.5578 171.729Z" fill="#F9F6F6"/>
<defs>
<filter id="filter0_d_4292_1779" x="133" y="59.9883" width="44" height="31" filterUnits="userSpaceOnUse" color-interpolation-filters="sRGB">
<feFlood flood-opacity="0" result="BackgroundImageFix"/>
<feColorMatrix in="SourceAlpha" type="matrix" values="0 0 0 0 0 0 0 0 0 0 0 0 0 0 0 0 0 0 127 0" result="hardAlpha"/>
<feOffset dx="4" dy="4"/>
<feGaussianBlur stdDeviation="2"/>
<feComposite in2="hardAlpha" operator="out"/>
<feColorMatrix type="matrix" values="0 0 0 0 0 0 0 0 0 0 0 0 0 0 0 0 0 0 0.25 0"/>
<feBlend mode="normal" in2="BackgroundImageFix" result="effect1_dropShadow_4292_1779"/>
<feBlend mode="normal" in="SourceGraphic" in2="effect1_dropShadow_4292_1779" result="shape"/>
</filter>
<filter id="filter1_d_4292_1779" x="71" y="159.988" width="43" height="31" filterUnits="userSpaceOnUse" color-interpolation-filters="sRGB">
<feFlood flood-opacity="0" result="BackgroundImageFix"/>
<feColorMatrix in="SourceAlpha" type="matrix" values="0 0 0 0 0 0 0 0 0 0 0 0 0 0 0 0 0 0 127 0" result="hardAlpha"/>
<feOffset dx="4" dy="4"/>
<feGaussianBlur stdDeviation="2"/>
<feComposite in2="hardAlpha" operator="out"/>
<feColorMatrix type="matrix" values="0 0 0 0 0 0 0 0 0 0 0 0 0 0 0 0 0 0 0.25 0"/>
<feBlend mode="normal" in2="BackgroundImageFix" result="effect1_dropShadow_4292_1779"/>
<feBlend mode="normal" in="SourceGraphic" in2="effect1_dropShadow_4292_1779" result="shape"/>
</filter>
</defs>
</svg>
