<svg width="1339" height="589" viewBox="0 0 1339 589" fill="none" xmlns="http://www.w3.org/2000/svg">
<g clip-path="url(#clip0_3115_767)">
<path d="M516.954 377.636C516.388 376.659 516.043 375.57 515.944 374.446C515.845 373.321 515.993 372.189 516.379 371.128C516.764 370.067 517.378 369.103 518.176 368.305C518.974 367.507 519.938 366.894 520.999 366.508L520.601 339.072L532.617 346.749L531.153 371.626C531.682 373.451 531.523 375.407 530.707 377.123C529.891 378.839 528.473 380.196 526.723 380.937C524.973 381.678 523.012 381.751 521.211 381.143C519.411 380.534 517.896 379.286 516.954 377.636Z" fill="#A0616A"/>
<path d="M502.477 228.679C498.915 229.308 495.682 231.153 493.327 233.898C490.972 236.644 489.642 240.121 489.563 243.737C489.389 251.766 492.068 254.76 495.855 255.842C502.855 257.842 514.003 298.291 514.003 298.291C514.003 298.291 515.186 336.016 517.095 334.154C519.003 332.291 516.843 336.638 517.423 337.964C518.003 339.291 514.674 341.277 517.839 342.784C521.003 344.291 519.003 356.291 519.003 356.291L533.003 355.291C533.003 355.291 530.679 345.515 533.841 344.903C537.003 344.291 535.566 341.509 534.285 339.4C533.003 337.291 536.552 334.285 534.777 333.288C533.003 332.291 538.003 293.291 538.003 293.291L518.454 235.771C516.8 233.133 514.395 231.048 511.549 229.785C508.702 228.521 505.544 228.136 502.477 228.679Z" fill="#71B8B8"/>
<path d="M460 230.943L470.071 213.291H483.677L493.882 231.943L460 230.943Z" fill="#71B8B8"/>
<path d="M432.908 72.2066C424.861 45.2522 402.127 27.6556 374.656 23.7954C374.354 23.7528 374.067 23.8091 373.767 23.7896C373.378 23.6708 372.981 23.5794 372.579 23.5161C334.801 18.6336 293.561 27.3781 260.738 47.915C229.276 67.6004 193.125 78.708 156.013 78.4612C154.86 78.4535 153.703 78.4785 152.542 78.5362C123.981 79.9613 98.7752 100.751 91.054 128.097C90.0407 131.685 91.8065 134.89 94.6459 136.923C99.6352 140.497 103.043 143.001 109.182 144.302C120.135 146.622 131.126 148.756 142.155 150.703V106.774C142.159 102.616 143.814 98.6285 146.754 95.6878C149.695 92.7471 153.682 91.0929 157.841 91.0881H373.31C377.469 91.0929 381.456 92.7471 384.397 95.6878C387.337 98.6285 388.991 102.616 388.996 106.774V161.482C391.952 160.558 394.836 159.422 397.629 158.084C408.023 152.95 416.903 145.2 423.397 135.597C435.872 117.496 439.167 93.1702 432.908 72.2066Z" fill="#F2F2F2"/>
<path d="M342.19 329.29H151.713C147.317 329.285 143.103 327.537 139.995 324.429C136.887 321.321 135.139 317.107 135.134 312.711V238.801C111.934 231.699 87.499 229.557 63.4172 232.515C63.0155 232.578 62.6186 232.669 62.2297 232.788C61.9288 232.808 61.642 232.751 61.3398 232.794C33.8693 236.654 11.1355 254.251 3.08856 281.205C-3.17035 302.169 0.124452 326.495 12.5991 344.595C19.093 354.199 27.9732 361.948 38.3676 367.082C52.6549 373.965 67.6929 374.482 83.2867 374.968C130.107 376.429 176.972 374.658 223.548 369.666C246.469 367.208 269.295 363.995 292.026 360.028C303.661 357.992 315.257 355.749 326.814 353.3C332.953 352 336.361 349.496 341.35 345.922C344.19 343.889 345.956 340.683 344.942 337.095C344.189 334.438 343.27 331.832 342.19 329.29Z" fill="#F2F2F2"/>
<path d="M359.045 307.365H172.109C168.501 307.361 165.042 305.925 162.491 303.374C159.939 300.823 158.504 297.364 158.5 293.756V120.033C158.504 116.425 159.939 112.966 162.491 110.414C165.042 107.863 168.501 106.428 172.109 106.424H359.045C362.653 106.428 366.112 107.863 368.663 110.414C371.214 112.966 372.649 116.425 372.654 120.033V293.756C372.649 297.364 371.214 300.823 368.663 303.374C366.112 305.925 362.653 307.361 359.045 307.365Z" fill="#E6E6E6"/>
<path d="M319.706 298.184H181.297C177.688 298.18 174.229 296.745 171.678 294.193C169.127 291.642 167.692 288.183 167.688 284.575V129.218C167.692 125.61 169.127 122.151 171.678 119.6C174.229 117.049 177.688 115.614 181.297 115.609H349.871C353.479 115.614 356.938 117.049 359.489 119.6C362.041 122.151 363.476 125.61 363.48 129.218V254.41C363.467 266.016 358.851 277.142 350.644 285.349C342.438 293.555 331.312 298.171 319.706 298.184Z" fill="white"/>
<path d="M265.578 267.896C299.267 267.896 326.578 240.586 326.578 206.896C326.578 173.207 299.267 145.896 265.578 145.896C231.889 145.896 204.578 173.207 204.578 206.896C204.578 240.586 231.889 267.896 265.578 267.896Z" fill="#71B8B8"/>
<path d="M291.278 203.828L270.922 179.074C270.369 178.402 269.678 177.859 268.895 177.481C268.112 177.103 267.256 176.9 266.387 176.886C265.517 176.871 264.655 177.046 263.86 177.398C263.065 177.749 262.356 178.269 261.782 178.922L240.013 203.676C238.964 204.871 238.433 206.434 238.536 208.021C238.639 209.608 239.367 211.089 240.561 212.139C241.755 213.189 243.317 213.722 244.904 213.621C246.491 213.52 247.973 212.794 249.025 211.601L260.288 198.793V230.909C260.288 232.5 260.92 234.026 262.045 235.151C263.17 236.276 264.696 236.909 266.288 236.909C267.879 236.909 269.405 236.276 270.53 235.151C271.655 234.026 272.288 232.5 272.288 230.909V199.628L282.009 211.45C283.02 212.679 284.478 213.456 286.061 213.61C287.645 213.765 289.226 213.284 290.455 212.273C291.684 211.262 292.461 209.805 292.615 208.221C292.77 206.637 292.289 205.057 291.278 203.828Z" fill="white"/>
<path d="M528.456 578.324L519.407 578.323L515.102 543.416L528.459 543.417L528.456 578.324Z" fill="#A0616A"/>
<path d="M528.775 587.764L500.945 587.763V587.411C500.946 584.538 502.087 581.783 504.118 579.752C506.15 577.721 508.905 576.579 511.777 576.579L516.861 572.723L526.346 576.58L528.775 576.58L528.775 587.764Z" fill="#2F2E41"/>
<path d="M460.456 578.324L451.407 578.323L447.102 543.416L460.459 543.417L460.456 578.324Z" fill="#A0616A"/>
<path d="M460.775 587.764L432.945 587.763V587.411C432.946 584.538 434.087 581.783 436.118 579.752C438.15 577.721 440.905 576.579 443.777 576.579L448.861 572.723L458.346 576.58L460.775 576.58L460.775 587.764Z" fill="#2F2E41"/>
<path d="M531.341 549.433C534.643 547.275 532.73 547.415 532.73 547.415C532.73 547.415 525.347 487.555 519.73 469.415L513.23 381.079C513.23 381.079 512.818 382.841 513.23 378.558C513.643 374.275 516.643 377.275 513.643 374.275C510.643 371.275 508.643 369.747 510.643 367.511C512.643 365.275 518.16 360.752 514.901 358.014C511.643 355.275 505.23 337.415 505.23 337.415L442.73 337.915L445.23 337.415C445.23 337.415 437.428 334.521 441.002 338.29C444.576 342.06 439.002 351.29 437.002 360.29C435.346 367.744 430.428 369.722 437.002 371.29C443.576 372.858 437.627 377.301 437.627 377.301C437.627 377.301 427.73 424.415 435.23 455.415C435.23 455.415 440.404 532.087 443.024 538.681C445.643 545.275 446.643 541.275 445.643 545.275C444.643 549.275 442.643 542.275 444.643 549.275C445.734 552.932 446.598 556.652 447.23 560.415L460.792 559.415C460.792 559.415 463.942 549.488 460.792 546.882C457.643 544.275 459.818 551.882 463.23 546.078C466.643 540.275 462.643 542.275 461.643 534.275C460.643 526.275 469.818 489.008 463.23 466.141L475.403 401.979L494.73 468.415C494.73 468.415 504.981 549.555 508.312 552.415C511.643 555.275 510.298 548.333 511.643 555.275C513.002 562.29 516.089 560.43 516.002 561.29C515.071 570.463 531.341 561.415 531.341 561.415C531.182 559.085 531.182 556.746 531.341 554.415C531.643 552.275 528.04 551.59 531.341 549.433Z" fill="#2F2E41"/>
<path d="M448.999 358.291C444.999 358.291 433.999 352.874 435.999 350.582C437.999 348.291 437.999 340.685 437.999 338.488C437.999 336.291 446.999 255.291 446.999 255.291L446.315 235.459C446.274 234.27 446.472 233.085 446.899 231.975C447.326 230.864 447.972 229.851 448.798 228.996C449.625 228.14 450.615 227.46 451.71 226.995C452.805 226.53 453.982 226.291 455.172 226.291L463.999 223.291L488.999 222.291L501.465 226.291C502.702 226.291 503.918 226.608 504.997 227.213C506.076 227.818 506.982 228.689 507.628 229.744C508.274 230.799 508.639 232.001 508.687 233.237C508.735 234.473 508.465 235.701 507.902 236.803C514.517 247.603 517.837 260.098 517.455 272.757C517.168 282.229 512.37 293.795 511.213 304.495C511.112 305.435 511.038 306.367 510.999 307.291C510.987 307.549 508.94 308.832 510.97 308.062C512.999 307.291 509.882 310.011 510.94 311.651C511.999 313.291 514.05 312.286 511.024 314.289C507.999 316.291 514.657 335.633 513.999 336.291C511.999 338.291 507.999 339.291 510.999 342.291C513.999 345.291 516.999 343.291 512.999 347.291C508.999 351.291 497.014 358.291 497.014 358.291L448.999 358.291Z" fill="#3F3D56"/>
<path d="M475.734 210.679C487.621 210.679 497.257 201.043 497.257 189.156C497.257 177.269 487.621 167.633 475.734 167.633C463.847 167.633 454.211 177.269 454.211 189.156C454.211 201.043 463.847 210.679 475.734 210.679Z" fill="#A0616A"/>
<path d="M344.647 255.935C345.679 255.478 346.799 255.254 347.928 255.277C349.056 255.3 350.166 255.571 351.179 256.069C352.192 256.568 353.083 257.282 353.79 258.163C354.496 259.043 355.001 260.067 355.269 261.164L382.586 263.748L373.651 274.859L349.08 270.702C347.208 271.03 345.281 270.66 343.663 269.662C342.046 268.664 340.851 267.107 340.304 265.287C339.758 263.467 339.898 261.509 340.699 259.786C341.499 258.062 342.904 256.692 344.647 255.935Z" fill="#A0616A"/>
<path d="M474.164 239.912C473.534 236.351 471.69 233.117 468.944 230.762C466.198 228.408 462.722 227.078 459.106 226.998C451.076 226.824 448.082 229.504 447 233.29C445 240.29 412.803 264.897 412.803 264.897L385.152 261.904C383.489 261.364 384.278 259.85 378.026 261.133C374.947 259.116 372.956 259.458 371.241 260.399L361 259.29L362 275.29C362 275.29 372.963 272.682 375 277.29C377.037 281.898 376.57 282.56 381 279.29C385.43 276.02 385 279.29 385 279.29L417 287.29L467.071 255.89C469.71 254.235 471.794 251.831 473.058 248.984C474.321 246.138 474.706 242.979 474.164 239.912Z" fill="#71B8B8"/>
<path d="M484.092 208.371L485.502 208.821C481.092 209.191 473.232 211.651 474.002 210.291C474.772 208.931 471.862 203.801 473.282 203.151C474.759 202.633 476.075 201.741 477.102 200.561C478.002 199.301 477.982 197.221 476.632 196.451C475.322 195.691 473.702 196.511 472.402 197.281C471.092 198.041 468.672 186.861 469.292 183.371C465.642 181.371 461.222 185.201 457.122 184.451C454.612 183.991 452.802 181.931 451.662 179.591C453.525 177.825 454.911 175.616 455.692 173.171C453.952 174.048 452.092 174.665 450.172 175.001C449.828 173.185 449.876 171.317 450.312 169.521C450.647 168.088 451.331 166.759 452.302 165.653C453.274 164.547 454.504 163.698 455.882 163.181C457.281 162.718 458.796 162.744 460.177 163.257C461.559 163.769 462.725 164.737 463.482 166.001C463.567 164.64 463.218 163.287 462.484 162.137C461.751 160.987 460.672 160.099 459.402 159.601C460.329 159.12 461.354 158.86 462.398 158.841C463.442 158.822 464.476 159.044 465.42 159.49C466.364 159.936 467.191 160.595 467.839 161.414C468.486 162.233 468.936 163.19 469.152 164.211C473.668 161.948 478.85 161.394 483.742 162.651C488.582 163.921 495.002 169.291 495.002 169.291C505.922 171.701 505.402 213.221 484.092 208.371Z" fill="#2F2E41"/>
<path d="M598.119 579.183C598.369 579.195 598.615 579.129 598.826 578.996C599.037 578.863 599.201 578.668 599.297 578.437C599.394 578.207 599.417 577.953 599.364 577.709C599.311 577.466 599.184 577.244 599.001 577.075L598.918 576.744L598.951 576.664C599.202 576.071 599.622 575.566 600.16 575.211C600.697 574.857 601.327 574.669 601.971 574.671C602.615 574.673 603.243 574.866 603.778 575.225C604.313 575.583 604.73 576.092 604.976 576.686C605.962 579.06 607.217 581.438 607.525 583.947C607.662 585.057 607.604 586.181 607.356 587.271C609.671 582.222 610.872 576.734 610.88 571.179C610.881 569.785 610.803 568.393 610.648 567.007C610.52 565.872 610.342 564.744 610.115 563.625C608.874 557.551 606.211 551.859 602.343 547.014C600.471 545.993 598.957 544.422 598.005 542.514C597.66 541.828 597.416 541.095 597.281 540.339C597.691 539.257 597.907 538.111 597.918 536.953C598.213 536.507 598.739 536.285 599.061 535.849C600.659 533.682 602.862 534.06 604.011 537.005C606.468 538.245 606.491 540.301 604.984 542.278C604.026 543.536 603.894 545.238 603.052 546.585C603.139 546.696 603.229 546.803 603.316 546.914C604.898 548.948 606.277 551.133 607.433 553.436C607.152 550.856 607.487 548.245 608.412 545.82C609.349 543.559 611.105 541.655 612.652 539.701C613.061 539.176 613.617 538.784 614.248 538.575C614.88 538.366 615.56 538.348 616.201 538.525C616.843 538.702 617.418 539.065 617.853 539.569C618.288 540.072 618.564 540.693 618.647 541.354L618.656 541.44C618.426 541.57 618.201 541.707 617.981 541.853C617.705 542.038 617.491 542.302 617.367 542.61C617.243 542.918 617.215 543.257 617.287 543.582C617.359 543.906 617.527 544.202 617.77 544.429C618.012 544.656 618.318 544.805 618.647 544.856L618.68 544.861C618.598 545.689 618.454 546.509 618.247 547.315C620.232 554.989 615.948 557.784 609.831 557.909C609.696 557.978 609.565 558.048 609.43 558.113C610.591 561.405 611.32 564.833 611.597 568.313C611.754 570.365 611.745 572.427 611.569 574.479L611.58 574.406C612.023 572.125 613.239 570.067 615.024 568.579C617.675 566.402 621.42 565.6 624.28 563.849C624.584 563.654 624.938 563.55 625.299 563.549C625.66 563.548 626.014 563.651 626.319 563.844C626.624 564.038 626.867 564.315 627.02 564.642C627.172 564.969 627.228 565.334 627.181 565.692L627.169 565.768C626.743 565.942 626.328 566.142 625.926 566.367C625.696 566.497 625.472 566.634 625.252 566.78C624.975 566.964 624.761 567.228 624.637 567.537C624.513 567.845 624.485 568.184 624.557 568.509C624.629 568.833 624.798 569.128 625.04 569.356C625.283 569.583 625.588 569.732 625.917 569.782L625.951 569.788L626.02 569.798C625.291 571.537 624.269 573.138 622.997 574.53C621.757 581.229 616.428 581.865 610.728 579.914H610.724C610.099 582.632 609.193 585.277 608.021 587.807H598.361C598.327 587.7 598.296 587.589 598.264 587.482C599.158 587.538 600.056 587.485 600.937 587.323C600.22 586.443 599.504 585.557 598.787 584.678C598.771 584.661 598.756 584.644 598.742 584.626C598.379 584.176 598.012 583.729 597.648 583.279C597.629 581.9 597.787 580.522 598.119 579.183Z" fill="#F2F2F2"/>
<path d="M1110.84 579.183C1111.09 579.195 1111.33 579.129 1111.54 578.996C1111.76 578.863 1111.92 578.668 1112.02 578.437C1112.11 578.207 1112.14 577.953 1112.08 577.709C1112.03 577.466 1111.9 577.244 1111.72 577.075L1111.64 576.744L1111.67 576.664C1111.92 576.071 1112.34 575.566 1112.88 575.211C1113.42 574.857 1114.05 574.669 1114.69 574.671C1115.33 574.673 1115.96 574.866 1116.5 575.225C1117.03 575.583 1117.45 576.092 1117.7 576.686C1118.68 579.06 1119.94 581.438 1120.24 583.947C1120.38 585.057 1120.32 586.181 1120.07 587.271C1122.39 582.222 1123.59 576.734 1123.6 571.179C1123.6 569.785 1123.52 568.393 1123.37 567.007C1123.24 565.872 1123.06 564.744 1122.83 563.625C1121.59 557.551 1118.93 551.859 1115.06 547.014C1113.19 545.993 1111.68 544.422 1110.72 542.514C1110.38 541.828 1110.14 541.095 1110 540.339C1110.41 539.257 1110.63 538.111 1110.64 536.953C1110.93 536.507 1111.46 536.285 1111.78 535.849C1113.38 533.682 1115.58 534.06 1116.73 537.005C1119.19 538.245 1119.21 540.301 1117.7 542.278C1116.74 543.536 1116.61 545.238 1115.77 546.585C1115.86 546.696 1115.95 546.803 1116.03 546.914C1117.62 548.948 1119 551.133 1120.15 553.436C1119.87 550.856 1120.21 548.245 1121.13 545.82C1122.07 543.559 1123.82 541.655 1125.37 539.701C1125.78 539.176 1126.34 538.784 1126.97 538.575C1127.6 538.366 1128.28 538.348 1128.92 538.525C1129.56 538.702 1130.14 539.065 1130.57 539.569C1131.01 540.072 1131.28 540.693 1131.37 541.354L1131.37 541.44C1131.14 541.57 1130.92 541.707 1130.7 541.853C1130.42 542.038 1130.21 542.302 1130.09 542.61C1129.96 542.918 1129.93 543.257 1130.01 543.582C1130.08 543.906 1130.25 544.202 1130.49 544.429C1130.73 544.656 1131.04 544.805 1131.37 544.856L1131.4 544.861C1131.32 545.689 1131.17 546.509 1130.97 547.315C1132.95 554.989 1128.67 557.784 1122.55 557.909C1122.41 557.978 1122.28 558.048 1122.15 558.113C1123.31 561.405 1124.04 564.833 1124.32 568.313C1124.47 570.365 1124.46 572.427 1124.29 574.479L1124.3 574.406C1124.74 572.125 1125.96 570.067 1127.74 568.579C1130.39 566.402 1134.14 565.6 1137 563.849C1137.3 563.654 1137.66 563.55 1138.02 563.549C1138.38 563.548 1138.73 563.651 1139.04 563.844C1139.34 564.038 1139.59 564.315 1139.74 564.642C1139.89 564.969 1139.95 565.334 1139.9 565.692L1139.89 565.768C1139.46 565.942 1139.05 566.142 1138.64 566.367C1138.42 566.497 1138.19 566.634 1137.97 566.78C1137.69 566.964 1137.48 567.228 1137.36 567.537C1137.23 567.845 1137.2 568.184 1137.28 568.509C1137.35 568.833 1137.52 569.128 1137.76 569.356C1138 569.583 1138.31 569.732 1138.64 569.782L1138.67 569.788L1138.74 569.798C1138.01 571.537 1136.99 573.138 1135.72 574.53C1134.48 581.229 1129.15 581.865 1123.45 579.914H1123.44C1122.82 582.632 1121.91 585.277 1120.74 587.807H1111.08C1111.05 587.7 1111.01 587.589 1110.98 587.482C1111.88 587.538 1112.77 587.485 1113.66 587.323C1112.94 586.443 1112.22 585.557 1111.51 584.678C1111.49 584.661 1111.47 584.644 1111.46 584.626C1111.1 584.176 1110.73 583.729 1110.37 583.279C1110.35 581.9 1110.51 580.522 1110.84 579.183Z" fill="#F2F2F2"/>
<path d="M1105.4 571.509C1104.93 571.53 1104.46 571.405 1104.06 571.15C1103.66 570.895 1103.34 570.522 1103.16 570.082C1102.98 569.642 1102.93 569.156 1103.03 568.69C1103.13 568.224 1103.37 567.801 1103.72 567.477L1103.88 566.843L1103.82 566.691C1103.34 565.558 1102.54 564.591 1101.52 563.913C1100.49 563.235 1099.29 562.875 1098.06 562.88C1096.84 562.885 1095.64 563.253 1094.62 563.939C1093.6 564.624 1092.81 565.597 1092.34 566.734C1090.46 571.273 1088.07 575.819 1087.48 580.618C1087.22 582.74 1087.33 584.89 1087.8 586.974C1083.39 577.319 1081.1 566.824 1081.09 556.203C1081.09 553.538 1081.24 550.874 1081.53 548.225C1081.78 546.054 1082.11 543.898 1082.55 541.757C1084.91 530.143 1089.99 519.257 1097.36 509.993C1100.92 508.04 1103.81 505.037 1105.62 501.387C1106.28 500.075 1106.74 498.675 1107 497.23C1106.22 495.16 1105.81 492.968 1105.79 490.755C1105.23 489.901 1104.22 489.476 1103.61 488.643C1100.56 484.499 1096.37 485.222 1094.18 490.854C1089.5 493.225 1089.45 497.156 1092.32 500.937C1094.15 503.342 1094.4 506.597 1096 509.173C1095.84 509.384 1095.67 509.59 1095.5 509.802C1092.49 513.692 1089.86 517.869 1087.66 522.274C1088.19 517.34 1087.55 512.348 1085.79 507.71C1084.01 503.387 1080.66 499.746 1077.71 496.009C1076.93 495.005 1075.88 494.256 1074.67 493.856C1073.47 493.456 1072.17 493.422 1070.95 493.761C1069.73 494.099 1068.63 494.793 1067.8 495.756C1066.97 496.719 1066.45 497.907 1066.29 499.17L1066.27 499.335C1066.71 499.583 1067.14 499.846 1067.56 500.124C1068.09 500.477 1068.49 500.982 1068.73 501.572C1068.97 502.162 1069.02 502.809 1068.88 503.43C1068.75 504.051 1068.42 504.615 1067.96 505.05C1067.5 505.484 1066.92 505.769 1066.29 505.866L1066.23 505.876C1066.38 507.459 1066.66 509.028 1067.05 510.569C1063.27 525.243 1071.43 530.587 1083.09 530.827C1083.35 530.96 1083.6 531.092 1083.85 531.218C1081.64 537.512 1080.25 544.068 1079.72 550.721C1079.42 554.647 1079.44 558.59 1079.78 562.512L1079.76 562.373C1078.91 558.011 1076.59 554.076 1073.19 551.231C1068.14 547.067 1061.01 545.534 1055.56 542.186C1054.98 541.813 1054.31 541.614 1053.62 541.612C1052.93 541.611 1052.25 541.806 1051.67 542.177C1051.09 542.547 1050.63 543.076 1050.34 543.702C1050.05 544.328 1049.94 545.025 1050.03 545.709L1050.05 545.856C1050.87 546.188 1051.66 546.57 1052.42 547.001C1052.86 547.249 1053.29 547.512 1053.71 547.79C1054.23 548.143 1054.64 548.648 1054.88 549.238C1055.11 549.827 1055.17 550.475 1055.03 551.096C1054.89 551.716 1054.57 552.281 1054.11 552.716C1053.65 553.15 1053.07 553.435 1052.44 553.532L1052.38 553.542L1052.24 553.561C1053.63 556.887 1055.58 559.949 1058 562.611C1060.37 575.421 1070.52 576.636 1081.38 572.906H1081.39C1082.58 578.103 1084.3 583.161 1086.54 588H1104.94C1105.01 587.795 1105.07 587.583 1105.13 587.378C1103.42 587.485 1101.71 587.383 1100.03 587.073C1101.4 585.392 1102.77 583.697 1104.13 582.015C1104.16 581.984 1104.19 581.951 1104.22 581.916C1104.91 581.055 1105.61 580.201 1106.3 579.341C1106.34 576.703 1106.04 574.069 1105.4 571.509Z" fill="#F2F2F2"/>
<path d="M278.17 591.086L1315.83 592C1316.67 592 1317.48 591.627 1318.07 590.962C1318.67 590.298 1319 589.397 1319 588.457C1319 587.518 1318.67 586.617 1318.07 585.952C1317.48 585.288 1316.67 584.914 1315.83 584.914L278.17 584C277.329 584 276.523 584.373 275.929 585.038C275.334 585.702 275 586.603 275 587.543C275 588.482 275.334 589.383 275.929 590.048C276.523 590.712 277.329 591.086 278.17 591.086Z" fill="#CACACA"/>
<path d="M715.442 291.543L1187.56 292C1187.94 292 1188.31 291.813 1188.58 291.481C1188.85 291.149 1189 290.698 1189 290.229C1189 289.759 1188.85 289.308 1188.58 288.976C1188.31 288.644 1187.94 288.457 1187.56 288.457L715.442 288C715.06 288 714.693 288.187 714.422 288.519C714.152 288.851 714 289.302 714 289.771C714 290.241 714.152 290.692 714.422 291.024C714.693 291.356 715.06 291.543 715.442 291.543Z" fill="#71B8B8"/>
<path d="M256.614 422.291C253.817 422.291 251.082 421.461 248.755 419.907C246.429 418.353 244.616 416.144 243.546 413.559C242.475 410.974 242.195 408.13 242.741 405.386C243.286 402.642 244.634 400.121 246.612 398.143C248.59 396.165 251.111 394.818 253.855 394.272C256.599 393.726 259.443 394.006 262.027 395.077C264.612 396.147 266.821 397.96 268.376 400.287C269.93 402.613 270.76 405.348 270.76 408.146C270.756 411.896 269.264 415.491 266.612 418.143C263.96 420.795 260.365 422.287 256.614 422.291ZM256.614 396C254.212 396 251.864 396.712 249.867 398.047C247.869 399.381 246.313 401.278 245.393 403.498C244.474 405.717 244.233 408.159 244.702 410.515C245.171 412.871 246.327 415.035 248.026 416.734C249.725 418.432 251.889 419.589 254.245 420.058C256.601 420.526 259.043 420.286 261.262 419.367C263.481 418.447 265.378 416.891 266.713 414.893C268.047 412.896 268.76 410.548 268.76 408.146C268.756 404.925 267.475 401.838 265.199 399.561C262.922 397.284 259.834 396.004 256.614 396Z" fill="#F2F2F2"/>
<path d="M262.154 407.484L257.767 402.149C257.648 402.005 257.499 401.888 257.33 401.806C257.162 401.725 256.977 401.681 256.79 401.678C256.603 401.675 256.417 401.712 256.246 401.788C256.074 401.864 255.921 401.976 255.798 402.117L251.106 407.451C250.882 407.709 250.769 408.045 250.792 408.386C250.815 408.727 250.972 409.045 251.228 409.271C251.485 409.496 251.82 409.611 252.161 409.59C252.502 409.57 252.821 409.414 253.048 409.159L255.475 406.399V413.32C255.475 413.663 255.612 413.992 255.854 414.234C256.097 414.477 256.426 414.613 256.769 414.613C257.111 414.613 257.44 414.477 257.683 414.234C257.925 413.992 258.061 413.663 258.061 413.32V406.579L260.157 409.127C260.374 409.391 260.688 409.559 261.03 409.592C261.371 409.625 261.712 409.522 261.977 409.304C262.241 409.086 262.409 408.772 262.442 408.431C262.475 408.089 262.372 407.749 262.154 407.484Z" fill="#F2F2F2"/>
<path d="M417.614 213.291C414.817 213.291 412.082 212.461 409.755 210.907C407.429 209.353 405.616 207.144 404.545 204.559C403.475 201.974 403.195 199.13 403.741 196.386C404.286 193.642 405.634 191.121 407.612 189.143C409.59 187.165 412.111 185.818 414.855 185.272C417.599 184.726 420.443 185.006 423.027 186.077C425.612 187.147 427.821 188.96 429.376 191.287C430.93 193.613 431.76 196.348 431.76 199.145C431.756 202.896 430.264 206.491 427.612 209.143C424.96 211.795 421.365 213.287 417.614 213.291ZM417.614 187C415.212 187 412.864 187.712 410.867 189.047C408.869 190.381 407.313 192.278 406.393 194.498C405.474 196.717 405.233 199.159 405.702 201.515C406.171 203.871 407.328 206.035 409.026 207.734C410.725 209.432 412.889 210.589 415.245 211.058C417.601 211.526 420.043 211.286 422.262 210.367C424.481 209.447 426.378 207.891 427.713 205.893C429.047 203.896 429.76 201.548 429.76 199.145C429.756 195.925 428.475 192.838 426.199 190.561C423.922 188.284 420.834 187.004 417.614 187Z" fill="#F2F2F2"/>
<path d="M423.154 198.484L418.767 193.149C418.648 193.005 418.499 192.888 418.33 192.806C418.162 192.725 417.977 192.681 417.79 192.678C417.603 192.675 417.417 192.712 417.246 192.788C417.074 192.864 416.921 192.976 416.798 193.117L412.106 198.451C411.882 198.709 411.769 199.045 411.792 199.386C411.815 199.727 411.972 200.045 412.228 200.271C412.485 200.496 412.82 200.611 413.161 200.59C413.502 200.57 413.821 200.414 414.048 200.159L416.475 197.399V204.32C416.475 204.663 416.612 204.992 416.854 205.234C417.097 205.477 417.426 205.613 417.769 205.613C418.111 205.613 418.44 205.477 418.683 205.234C418.925 204.992 419.061 204.663 419.061 204.32V197.579L421.157 200.127C421.374 200.391 421.688 200.559 422.03 200.592C422.371 200.625 422.712 200.522 422.977 200.304C423.241 200.086 423.409 199.772 423.442 199.431C423.475 199.089 423.372 198.749 423.154 198.484Z" fill="#F2F2F2"/>
<path d="M98.6143 201.291C95.8166 201.291 93.0817 200.461 90.7555 198.907C88.4292 197.353 86.6162 195.144 85.5455 192.559C84.4749 189.974 84.1948 187.13 84.7406 184.386C85.2864 181.642 86.6336 179.121 88.6119 177.143C90.5901 175.165 93.1106 173.818 95.8546 173.272C98.5986 172.726 101.443 173.006 104.028 174.077C106.612 175.147 108.821 176.96 110.376 179.287C111.93 181.613 112.76 184.348 112.76 187.145C112.755 190.896 111.264 194.491 108.612 197.143C105.96 199.795 102.365 201.287 98.6143 201.291ZM98.6143 175C96.2121 175 93.8639 175.712 91.8666 177.047C89.8692 178.381 88.3125 180.278 87.3933 182.498C86.474 184.717 86.2335 187.159 86.7021 189.515C87.1708 191.871 88.3275 194.035 90.0261 195.734C91.7247 197.432 93.8888 198.589 96.2448 199.058C98.6008 199.526 101.043 199.286 103.262 198.367C105.481 197.447 107.378 195.891 108.713 193.893C110.047 191.896 110.76 189.548 110.76 187.145C110.756 183.925 109.475 180.838 107.199 178.561C104.922 176.284 101.834 175.004 98.6143 175Z" fill="#F2F2F2"/>
<path d="M104.154 186.484L99.7673 181.149C99.6482 181.005 99.4992 180.888 99.3305 180.806C99.1617 180.725 98.9773 180.681 98.79 180.678C98.6026 180.675 98.4169 180.712 98.2455 180.788C98.0742 180.864 97.9213 180.976 97.7976 181.117L93.1064 186.451C92.8822 186.709 92.7691 187.045 92.792 187.386C92.8148 187.727 92.9716 188.045 93.2282 188.271C93.4848 188.496 93.8203 188.611 94.1613 188.59C94.5024 188.57 94.8213 188.414 95.0484 188.159L97.4755 185.399V192.32C97.4755 192.663 97.6117 192.992 97.8542 193.234C98.0967 193.477 98.4256 193.613 98.7685 193.613C99.1114 193.613 99.4403 193.477 99.6828 193.234C99.9253 192.992 100.062 192.663 100.062 192.32V185.579L102.157 188.127C102.374 188.391 102.688 188.559 103.03 188.592C103.371 188.625 103.712 188.522 103.977 188.304C104.241 188.086 104.409 187.772 104.442 187.431C104.475 187.089 104.372 186.749 104.154 186.484Z" fill="#F2F2F2"/>
<path d="M211.614 28.291C208.817 28.291 206.082 27.4614 203.755 25.9071C201.429 24.3528 199.616 22.1435 198.546 19.5588C197.475 16.974 197.195 14.1298 197.741 11.3859C198.286 8.64191 199.634 6.12142 201.612 4.14314C203.59 2.16485 206.111 0.817621 208.855 0.271812C211.599 -0.273996 214.443 0.00611925 217.028 1.07676C219.612 2.1474 221.821 3.96047 223.376 6.28669C224.93 8.61291 225.76 11.3478 225.76 14.1455C225.755 17.8958 224.264 21.4913 221.612 24.1432C218.96 26.7951 215.365 28.2868 211.614 28.291ZM211.614 2.00002C209.212 2.00002 206.864 2.71235 204.867 4.04691C202.869 5.38148 201.313 7.27834 200.393 9.49764C199.474 11.7169 199.233 14.159 199.702 16.515C200.171 18.871 201.327 21.0351 203.026 22.7337C204.725 24.4323 206.889 25.589 209.245 26.0577C211.601 26.5263 214.043 26.2858 216.262 25.3665C218.481 24.4473 220.378 22.8905 221.713 20.8932C223.047 18.8959 223.76 16.5477 223.76 14.1455C223.756 10.9254 222.475 7.83824 220.199 5.56129C217.922 3.28434 214.834 2.0036 211.614 2.00002Z" fill="#F2F2F2"/>
<path d="M217.154 13.484L212.767 8.14942C212.648 8.00472 212.499 7.88761 212.33 7.80619C212.162 7.72478 211.977 7.68101 211.79 7.67791C211.603 7.67481 211.417 7.71245 211.246 7.78823C211.074 7.86401 210.921 7.97612 210.798 8.1168L206.106 13.4513C205.882 13.7092 205.769 14.0453 205.792 14.3862C205.815 14.7272 205.972 15.0452 206.228 15.2708C206.485 15.4965 206.82 15.6114 207.161 15.5905C207.502 15.5695 207.821 15.4145 208.048 15.1592L210.476 12.3992V19.32C210.476 19.663 210.612 19.9918 210.854 20.2343C211.097 20.4768 211.426 20.613 211.769 20.613C212.111 20.613 212.44 20.4768 212.683 20.2343C212.925 19.9918 213.062 19.663 213.062 19.32V12.5789L215.157 15.1266C215.374 15.3915 215.688 15.5589 216.03 15.5922C216.371 15.6255 216.712 15.5218 216.977 15.304C217.241 15.0862 217.409 14.772 217.442 14.4307C217.475 14.0894 217.372 13.7488 217.154 13.484Z" fill="#F2F2F2"/>
<path d="M60.6148 306.291C57.817 306.292 55.082 305.462 52.7557 303.908C50.4294 302.353 48.6163 300.144 47.5456 297.559C46.4749 294.974 46.1947 292.13 46.7406 289.386C47.2864 286.642 48.6336 284.122 50.612 282.143C52.5903 280.165 55.1108 278.818 57.8549 278.272C60.5989 277.726 63.4432 278.006 66.028 279.077C68.6128 280.148 70.822 281.961 72.3764 284.287C73.9307 286.613 74.7603 289.348 74.7602 292.146C74.756 295.896 73.2643 299.492 70.6124 302.144C67.9606 304.796 64.3651 306.287 60.6148 306.291ZM60.6148 280C58.2126 280 55.8643 280.712 53.8669 282.047C51.8695 283.381 50.3127 285.278 49.3934 287.498C48.4741 289.717 48.2335 292.159 48.7021 294.515C49.1707 296.871 50.3274 299.035 52.026 300.734C53.7246 302.433 55.8887 303.589 58.2448 304.058C60.6008 304.527 63.0429 304.286 65.2623 303.367C67.4816 302.448 69.3786 300.891 70.7132 298.894C72.0478 296.896 72.7602 294.548 72.7603 292.146C72.7567 288.926 71.476 285.839 69.199 283.562C66.9221 281.285 63.8349 280.004 60.6148 280Z" fill="white"/>
<path d="M66.154 291.484L61.7673 286.149C61.6482 286.005 61.4992 285.888 61.3305 285.806C61.1617 285.725 60.9773 285.681 60.79 285.678C60.6026 285.675 60.4169 285.712 60.2455 285.788C60.0742 285.864 59.9213 285.976 59.7976 286.117L55.1064 291.451C54.8822 291.709 54.7691 292.045 54.792 292.386C54.8148 292.727 54.9716 293.045 55.2282 293.271C55.4848 293.496 55.8203 293.611 56.1613 293.59C56.5024 293.57 56.8213 293.414 57.0484 293.159L59.4755 290.399V297.32C59.4755 297.663 59.6117 297.992 59.8542 298.234C60.0967 298.477 60.4256 298.613 60.7685 298.613C61.1114 298.613 61.4403 298.477 61.6828 298.234C61.9253 297.992 62.0615 297.663 62.0615 297.32V290.579L64.1565 293.127C64.3744 293.391 64.6885 293.559 65.0298 293.592C65.3711 293.625 65.7117 293.522 65.9766 293.304C66.2414 293.086 66.4089 292.772 66.4422 292.431C66.4755 292.089 66.3719 291.749 66.154 291.484Z" fill="white"/>
<path d="M366.615 69.2915C363.817 69.2916 361.082 68.462 358.756 66.9076C356.429 65.3533 354.616 63.144 353.546 60.5592C352.475 57.9744 352.195 55.1302 352.741 52.3861C353.286 49.6421 354.634 47.1215 356.612 45.1432C358.59 43.1649 361.111 41.8176 363.855 41.2718C366.599 40.726 369.443 41.0061 372.028 42.0768C374.613 43.1475 376.822 44.9606 378.376 47.2869C379.931 49.6132 380.76 52.3482 380.76 55.146C380.756 58.8963 379.264 62.4918 376.612 65.1437C373.961 67.7956 370.365 69.2872 366.615 69.2915ZM366.615 43C364.213 43 361.864 43.7122 359.867 45.0468C357.87 46.3814 356.313 48.2782 355.393 50.4976C354.474 52.7169 354.233 55.159 354.702 57.515C355.171 59.8711 356.327 62.0353 358.026 63.7339C359.725 65.4326 361.889 66.5894 364.245 67.0581C366.601 67.5268 369.043 67.2863 371.262 66.3671C373.482 65.4478 375.379 63.8911 376.713 61.8938C378.048 59.8965 378.76 57.5482 378.76 55.146C378.757 51.9258 377.476 48.8386 375.199 46.5616C372.922 44.2845 369.835 43.0037 366.615 43Z" fill="white"/>
<path d="M372.154 54.484L367.767 49.1494C367.648 49.0047 367.499 48.8876 367.33 48.8062C367.162 48.7248 366.977 48.681 366.79 48.6779C366.603 48.6748 366.417 48.7125 366.246 48.7882C366.074 48.864 365.921 48.9761 365.798 49.1168L361.106 54.4513C360.882 54.7092 360.769 55.0453 360.792 55.3862C360.815 55.7272 360.972 56.0452 361.228 56.2708C361.485 56.4965 361.82 56.6114 362.161 56.5905C362.502 56.5695 362.821 56.4145 363.048 56.1592L365.475 53.3992V60.32C365.475 60.663 365.612 60.9918 365.854 61.2343C366.097 61.4768 366.426 61.613 366.769 61.613C367.111 61.613 367.44 61.4768 367.683 61.2343C367.925 60.9918 368.061 60.663 368.061 60.32V53.5789L370.157 56.1266C370.374 56.3915 370.688 56.5589 371.03 56.5922C371.371 56.6255 371.712 56.5218 371.977 56.304C372.241 56.0862 372.409 55.772 372.442 55.4307C372.475 55.0894 372.372 54.7488 372.154 54.484Z" fill="white"/>
<path d="M695.521 176.626C695.521 182.897 694.353 188.141 692.017 192.355C689.681 196.545 686.291 199.706 681.848 201.839C677.404 203.946 672.047 205 665.775 205H650.312V149.318H667.451C673.215 149.318 678.191 150.359 682.381 152.441C686.57 154.498 689.808 157.558 692.093 161.62C694.378 165.657 695.521 170.659 695.521 176.626ZM685.999 176.893C685.999 172.322 685.275 168.564 683.828 165.619C682.406 162.674 680.299 160.49 677.506 159.068C674.738 157.621 671.323 156.897 667.261 156.897H659.453V197.345H665.928C672.656 197.345 677.684 195.631 681.01 192.203C684.336 188.775 685.999 183.672 685.999 176.893ZM743.928 183.824C743.928 187.328 743.471 190.438 742.557 193.155C741.643 195.872 740.31 198.17 738.558 200.049C736.806 201.902 734.698 203.324 732.235 204.314C729.772 205.279 726.992 205.762 723.895 205.762C721 205.762 718.347 205.279 715.935 204.314C713.522 203.324 711.428 201.902 709.65 200.049C707.898 198.17 706.54 195.872 705.575 193.155C704.61 190.438 704.128 187.328 704.128 183.824C704.128 179.178 704.928 175.242 706.527 172.018C708.152 168.768 710.463 166.292 713.459 164.591C716.455 162.89 720.022 162.039 724.161 162.039C728.046 162.039 731.474 162.89 734.444 164.591C737.415 166.292 739.738 168.768 741.414 172.018C743.09 175.268 743.928 179.203 743.928 183.824ZM713.345 183.824C713.345 186.896 713.713 189.524 714.449 191.708C715.211 193.892 716.379 195.567 717.953 196.735C719.527 197.878 721.559 198.449 724.047 198.449C726.535 198.449 728.566 197.878 730.141 196.735C731.715 195.567 732.87 193.892 733.606 191.708C734.343 189.524 734.711 186.896 734.711 183.824C734.711 180.752 734.343 178.149 733.606 176.017C732.87 173.858 731.715 172.221 730.141 171.104C728.566 169.961 726.522 169.39 724.009 169.39C720.302 169.39 717.598 170.634 715.896 173.122C714.195 175.61 713.345 179.178 713.345 183.824ZM776.187 162.039C780.935 162.039 784.629 163.271 787.27 165.733C789.936 168.171 791.269 172.094 791.269 177.502V205H782.318V179.178C782.318 175.902 781.646 173.452 780.3 171.827C778.954 170.177 776.872 169.352 774.054 169.352C769.966 169.352 767.122 170.608 765.522 173.122C763.948 175.636 763.161 179.279 763.161 184.053V205H754.211V162.839H761.181L762.438 168.552H762.933C763.847 167.079 764.977 165.873 766.322 164.934C767.693 163.969 769.217 163.245 770.893 162.763C772.594 162.28 774.358 162.039 776.187 162.039ZM820.328 162.039C825.66 162.039 829.685 163.22 832.401 165.581C835.144 167.942 836.515 171.624 836.515 176.626V205H830.154L828.44 199.021H828.136C826.942 200.544 825.711 201.801 824.441 202.791C823.172 203.781 821.699 204.518 820.023 205C818.373 205.508 816.354 205.762 813.968 205.762C811.454 205.762 809.207 205.305 807.227 204.391C805.246 203.451 803.685 202.029 802.542 200.125C801.399 198.221 800.828 195.809 800.828 192.889C800.828 188.547 802.44 185.284 805.665 183.101C808.915 180.917 813.815 179.711 820.366 179.482L827.679 179.216V177.007C827.679 174.087 826.993 172.005 825.622 170.761C824.276 169.517 822.372 168.895 819.909 168.895C817.802 168.895 815.758 169.199 813.777 169.809C811.797 170.418 809.867 171.167 807.988 172.056L805.094 165.733C807.15 164.642 809.486 163.753 812.102 163.067C814.742 162.382 817.484 162.039 820.328 162.039ZM827.641 184.853L822.194 185.043C817.726 185.195 814.59 185.957 812.787 187.328C810.984 188.699 810.083 190.578 810.083 192.965C810.083 195.047 810.705 196.57 811.949 197.535C813.193 198.475 814.831 198.944 816.862 198.944C819.96 198.944 822.524 198.068 824.556 196.316C826.612 194.539 827.641 191.937 827.641 188.509V184.853ZM864.736 198.525C865.904 198.525 867.06 198.424 868.202 198.221C869.345 197.992 870.386 197.726 871.325 197.421V204.2C870.335 204.632 869.053 205 867.479 205.305C865.904 205.609 864.267 205.762 862.565 205.762C860.179 205.762 858.033 205.368 856.129 204.581C854.225 203.769 852.714 202.385 851.597 200.43C850.479 198.475 849.921 195.771 849.921 192.317V169.656H844.17V165.657L850.34 162.496L853.272 153.47H858.909V162.839H870.982V169.656H858.909V192.203C858.909 194.336 859.442 195.923 860.509 196.964C861.575 198.005 862.984 198.525 864.736 198.525ZM896.69 162.039C900.448 162.039 903.673 162.813 906.364 164.362C909.056 165.911 911.125 168.107 912.572 170.951C914.02 173.795 914.743 177.197 914.743 181.158V185.957H886.598C886.699 190.045 887.791 193.193 889.873 195.402C891.98 197.611 894.926 198.716 898.709 198.716C901.4 198.716 903.812 198.462 905.945 197.954C908.104 197.421 910.325 196.646 912.61 195.631V202.905C910.503 203.896 908.357 204.619 906.174 205.076C903.99 205.533 901.375 205.762 898.328 205.762C894.189 205.762 890.546 204.962 887.397 203.362C884.274 201.737 881.824 199.325 880.047 196.126C878.295 192.927 877.419 188.953 877.419 184.205C877.419 179.482 878.219 175.471 879.818 172.17C881.418 168.869 883.665 166.355 886.56 164.629C889.454 162.902 892.831 162.039 896.69 162.039ZM896.69 168.78C893.872 168.78 891.587 169.694 889.835 171.522C888.108 173.351 887.093 176.029 886.788 179.559H905.983C905.958 177.451 905.603 175.585 904.917 173.96C904.257 172.335 903.241 171.065 901.87 170.151C900.524 169.237 898.798 168.78 896.69 168.78ZM959.266 205.762C954.238 205.762 950.201 203.934 947.154 200.277C944.133 196.596 942.622 191.175 942.622 184.015C942.622 176.778 944.158 171.307 947.23 167.6C950.328 163.893 954.403 162.039 959.456 162.039C961.589 162.039 963.455 162.331 965.055 162.915C966.654 163.474 968.025 164.235 969.168 165.2C970.336 166.165 971.326 167.244 972.139 168.438H972.558C972.431 167.65 972.278 166.521 972.101 165.048C971.948 163.55 971.872 162.166 971.872 160.896V145.738H980.86V205H973.853L972.253 199.249H971.872C971.11 200.468 970.146 201.572 968.978 202.562C967.835 203.527 966.464 204.302 964.864 204.886C963.29 205.47 961.424 205.762 959.266 205.762ZM961.779 198.487C965.613 198.487 968.317 197.383 969.892 195.174C971.466 192.965 972.278 189.651 972.329 185.233V184.053C972.329 179.33 971.567 175.712 970.044 173.198C968.521 170.659 965.74 169.39 961.703 169.39C958.479 169.39 956.016 170.697 954.314 173.312C952.639 175.902 951.801 179.521 951.801 184.167C951.801 188.813 952.639 192.368 954.314 194.831C956.016 197.269 958.504 198.487 961.779 198.487ZM1010.22 162.039C1015.56 162.039 1019.58 163.22 1022.3 165.581C1025.04 167.942 1026.41 171.624 1026.41 176.626V205H1020.05L1018.34 199.021H1018.03C1016.84 200.544 1015.61 201.801 1014.34 202.791C1013.07 203.781 1011.6 204.518 1009.92 205C1008.27 205.508 1006.25 205.762 1003.86 205.762C1001.35 205.762 999.104 205.305 997.123 204.391C995.143 203.451 993.581 202.029 992.438 200.125C991.296 198.221 990.725 195.809 990.725 192.889C990.725 188.547 992.337 185.284 995.562 183.101C998.812 180.917 1003.71 179.711 1010.26 179.482L1017.58 179.216V177.007C1017.58 174.087 1016.89 172.005 1015.52 170.761C1014.17 169.517 1012.27 168.895 1009.81 168.895C1007.7 168.895 1005.65 169.199 1003.67 169.809C1001.69 170.418 999.764 171.167 997.885 172.056L994.99 165.733C997.047 164.642 999.383 163.753 1002 163.067C1004.64 162.382 1007.38 162.039 1010.22 162.039ZM1017.54 184.853L1012.09 185.043C1007.62 185.195 1004.49 185.957 1002.68 187.328C1000.88 188.699 999.979 190.578 999.979 192.965C999.979 195.047 1000.6 196.57 1001.85 197.535C1003.09 198.475 1004.73 198.944 1006.76 198.944C1009.86 198.944 1012.42 198.068 1014.45 196.316C1016.51 194.539 1017.54 191.937 1017.54 188.509V184.853ZM1054.63 198.525C1055.8 198.525 1056.96 198.424 1058.1 198.221C1059.24 197.992 1060.28 197.726 1061.22 197.421V204.2C1060.23 204.632 1058.95 205 1057.38 205.305C1055.8 205.609 1054.16 205.762 1052.46 205.762C1050.08 205.762 1047.93 205.368 1046.03 204.581C1044.12 203.769 1042.61 202.385 1041.49 200.43C1040.38 198.475 1039.82 195.771 1039.82 192.317V169.656H1034.07V165.657L1040.24 162.496L1043.17 153.47H1048.81V162.839H1060.88V169.656H1048.81V192.203C1048.81 194.336 1049.34 195.923 1050.41 196.964C1051.47 198.005 1052.88 198.525 1054.63 198.525ZM1086.32 162.039C1091.65 162.039 1095.68 163.22 1098.39 165.581C1101.14 167.942 1102.51 171.624 1102.51 176.626V205H1096.15L1094.43 199.021H1094.13C1092.93 200.544 1091.7 201.801 1090.43 202.791C1089.16 203.781 1087.69 204.518 1086.02 205C1084.37 205.508 1082.35 205.762 1079.96 205.762C1077.45 205.762 1075.2 205.305 1073.22 204.391C1071.24 203.451 1069.68 202.029 1068.53 200.125C1067.39 198.221 1066.82 195.809 1066.82 192.889C1066.82 188.547 1068.43 185.284 1071.66 183.101C1074.91 180.917 1079.81 179.711 1086.36 179.482L1093.67 179.216V177.007C1093.67 174.087 1092.99 172.005 1091.61 170.761C1090.27 169.517 1088.36 168.895 1085.9 168.895C1083.79 168.895 1081.75 169.199 1079.77 169.809C1077.79 170.418 1075.86 171.167 1073.98 172.056L1071.09 165.733C1073.14 164.642 1075.48 163.753 1078.09 163.067C1080.73 162.382 1083.48 162.039 1086.32 162.039ZM1093.63 184.853L1088.19 185.043C1083.72 185.195 1080.58 185.957 1078.78 187.328C1076.98 188.699 1076.08 190.578 1076.08 192.965C1076.08 195.047 1076.7 196.57 1077.94 197.535C1079.19 198.475 1080.82 198.944 1082.85 198.944C1085.95 198.944 1088.52 198.068 1090.55 196.316C1092.6 194.539 1093.63 191.937 1093.63 188.509V184.853ZM1143.37 192.965C1143.37 195.732 1142.7 198.068 1141.35 199.973C1140.01 201.877 1138.04 203.324 1135.45 204.314C1132.89 205.279 1129.74 205.762 1126.01 205.762C1123.06 205.762 1120.52 205.546 1118.39 205.114C1116.28 204.708 1114.29 204.073 1112.41 203.21V195.479C1114.42 196.418 1116.66 197.23 1119.15 197.916C1121.66 198.602 1124.04 198.944 1126.27 198.944C1129.22 198.944 1131.34 198.487 1132.63 197.573C1133.93 196.634 1134.58 195.39 1134.58 193.841C1134.58 192.927 1134.31 192.114 1133.78 191.403C1133.27 190.667 1132.3 189.918 1130.88 189.156C1129.48 188.369 1127.43 187.43 1124.71 186.338C1122.04 185.271 1119.8 184.205 1117.97 183.139C1116.14 182.072 1114.76 180.79 1113.82 179.292C1112.88 177.769 1112.41 175.826 1112.41 173.465C1112.41 169.732 1113.88 166.901 1116.83 164.972C1119.8 163.017 1123.72 162.039 1128.6 162.039C1131.19 162.039 1133.62 162.306 1135.91 162.839C1138.22 163.347 1140.48 164.096 1142.69 165.086L1139.87 171.827C1137.96 170.989 1136.05 170.304 1134.12 169.771C1132.21 169.212 1130.27 168.933 1128.29 168.933C1125.98 168.933 1124.22 169.288 1123 169.999C1121.8 170.71 1121.21 171.726 1121.21 173.046C1121.21 174.036 1121.5 174.874 1122.08 175.56C1122.67 176.245 1123.67 176.931 1125.09 177.616C1126.54 178.302 1128.54 179.152 1131.11 180.168C1133.62 181.133 1135.79 182.148 1137.62 183.215C1139.48 184.256 1140.9 185.538 1141.89 187.062C1142.88 188.585 1143.37 190.553 1143.37 192.965ZM1169.84 162.039C1173.6 162.039 1176.83 162.813 1179.52 164.362C1182.21 165.911 1184.28 168.107 1185.72 170.951C1187.17 173.795 1187.9 177.197 1187.9 181.158V185.957H1159.75C1159.85 190.045 1160.94 193.193 1163.03 195.402C1165.13 197.611 1168.08 198.716 1171.86 198.716C1174.55 198.716 1176.96 198.462 1179.1 197.954C1181.26 197.421 1183.48 196.646 1185.76 195.631V202.905C1183.66 203.896 1181.51 204.619 1179.33 205.076C1177.14 205.533 1174.53 205.762 1171.48 205.762C1167.34 205.762 1163.7 204.962 1160.55 203.362C1157.43 201.737 1154.98 199.325 1153.2 196.126C1151.45 192.927 1150.57 188.953 1150.57 184.205C1150.57 179.482 1151.37 175.471 1152.97 172.17C1154.57 168.869 1156.82 166.355 1159.71 164.629C1162.61 162.902 1165.98 162.039 1169.84 162.039ZM1169.84 168.78C1167.02 168.78 1164.74 169.694 1162.99 171.522C1161.26 173.351 1160.25 176.029 1159.94 179.559H1179.14C1179.11 177.451 1178.75 175.585 1178.07 173.96C1177.41 172.335 1176.39 171.065 1175.02 170.151C1173.68 169.237 1171.95 168.78 1169.84 168.78ZM1213.68 198.525C1214.85 198.525 1216 198.424 1217.15 198.221C1218.29 197.992 1219.33 197.726 1220.27 197.421V204.2C1219.28 204.632 1218 205 1216.42 205.305C1214.85 205.609 1213.21 205.762 1211.51 205.762C1209.12 205.762 1206.98 205.368 1205.07 204.581C1203.17 203.769 1201.66 202.385 1200.54 200.43C1199.42 198.475 1198.86 195.771 1198.86 192.317V169.656H1193.11V165.657L1199.28 162.496L1202.22 153.47H1207.85V162.839H1219.93V169.656H1207.85V192.203C1207.85 194.336 1208.39 195.923 1209.45 196.964C1210.52 198.005 1211.93 198.525 1213.68 198.525ZM1257.17 192.965C1257.17 195.732 1256.5 198.068 1255.16 199.973C1253.81 201.877 1251.84 203.324 1249.25 204.314C1246.69 205.279 1243.54 205.762 1239.81 205.762C1236.86 205.762 1234.32 205.546 1232.19 205.114C1230.08 204.708 1228.09 204.073 1226.21 203.21V195.479C1228.22 196.418 1230.46 197.23 1232.95 197.916C1235.46 198.602 1237.84 198.944 1240.07 198.944C1243.02 198.944 1245.14 198.487 1246.43 197.573C1247.73 196.634 1248.38 195.39 1248.38 193.841C1248.38 192.927 1248.11 192.114 1247.58 191.403C1247.07 190.667 1246.1 189.918 1244.68 189.156C1243.29 188.369 1241.23 187.43 1238.51 186.338C1235.85 185.271 1233.6 184.205 1231.77 183.139C1229.94 182.072 1228.56 180.79 1227.62 179.292C1226.68 177.769 1226.21 175.826 1226.21 173.465C1226.21 169.732 1227.68 166.901 1230.63 164.972C1233.6 163.017 1237.52 162.039 1242.4 162.039C1244.99 162.039 1247.42 162.306 1249.71 162.839C1252.02 163.347 1254.28 164.096 1256.49 165.086L1253.67 171.827C1251.77 170.989 1249.85 170.304 1247.92 169.771C1246.01 169.212 1244.07 168.933 1242.09 168.933C1239.78 168.933 1238.02 169.288 1236.8 169.999C1235.6 170.71 1235.01 171.726 1235.01 173.046C1235.01 174.036 1235.3 174.874 1235.88 175.56C1236.47 176.245 1237.47 176.931 1238.89 177.616C1240.34 178.302 1242.35 179.152 1244.91 180.168C1247.42 181.133 1249.59 182.148 1251.42 183.215C1253.28 184.256 1254.7 185.538 1255.69 187.062C1256.68 188.585 1257.17 190.553 1257.17 192.965Z" fill="#2F2E41"/>
<path d="M746.438 280.975L742.883 267.898C742.714 267.255 742.51 266.477 742.273 265.562C742.036 264.648 741.799 263.709 741.562 262.744C741.326 261.762 741.105 260.857 740.902 260.027C740.716 259.198 740.572 258.555 740.471 258.098H740.268C740.183 258.555 740.048 259.198 739.861 260.027C739.675 260.857 739.464 261.762 739.227 262.744C738.99 263.726 738.753 264.682 738.516 265.613C738.296 266.544 738.092 267.34 737.906 268L734.174 280.975H727.623L719.752 252.867H725.795L729.451 266.832C729.688 267.78 729.917 268.804 730.137 269.904C730.374 271.005 730.577 272.054 730.746 273.053C730.915 274.051 731.042 274.872 731.127 275.516H731.33C731.398 275.059 731.491 274.483 731.609 273.789C731.728 273.078 731.863 272.342 732.016 271.58C732.168 270.801 732.32 270.074 732.473 269.396C732.625 268.702 732.769 268.144 732.904 267.721L737.221 252.867H743.746L747.885 267.721C748.071 268.364 748.274 269.176 748.494 270.158C748.714 271.123 748.909 272.096 749.078 273.078C749.264 274.043 749.383 274.847 749.434 275.49H749.637C749.704 274.915 749.823 274.136 749.992 273.154C750.178 272.156 750.39 271.098 750.627 269.98C750.864 268.846 751.109 267.797 751.363 266.832L755.096 252.867H761.037L753.115 280.975H746.438ZM776.881 252.359C780.436 252.359 783.118 253.146 784.93 254.721C786.758 256.295 787.672 258.749 787.672 262.084V281H783.432L782.289 277.014H782.086C781.29 278.029 780.469 278.867 779.623 279.527C778.777 280.188 777.795 280.678 776.678 281C775.577 281.339 774.232 281.508 772.641 281.508C770.965 281.508 769.467 281.203 768.146 280.594C766.826 279.967 765.785 279.02 765.023 277.75C764.262 276.48 763.881 274.872 763.881 272.926C763.881 270.031 764.956 267.856 767.105 266.4C769.272 264.945 772.539 264.141 776.906 263.988L781.781 263.811V262.338C781.781 260.391 781.324 259.003 780.41 258.174C779.513 257.344 778.243 256.93 776.602 256.93C775.197 256.93 773.834 257.133 772.514 257.539C771.193 257.945 769.907 258.445 768.654 259.037L766.725 254.822C768.096 254.094 769.653 253.502 771.396 253.045C773.157 252.588 774.985 252.359 776.881 252.359ZM781.756 267.568L778.125 267.695C775.146 267.797 773.055 268.305 771.854 269.219C770.652 270.133 770.051 271.385 770.051 272.977C770.051 274.365 770.465 275.38 771.295 276.023C772.124 276.65 773.216 276.963 774.57 276.963C776.635 276.963 778.345 276.379 779.699 275.211C781.07 274.026 781.756 272.291 781.756 270.006V267.568ZM806.486 276.684C807.265 276.684 808.035 276.616 808.797 276.48C809.559 276.328 810.253 276.15 810.879 275.947V280.467C810.219 280.755 809.364 281 808.314 281.203C807.265 281.406 806.173 281.508 805.039 281.508C803.448 281.508 802.018 281.245 800.748 280.721C799.479 280.179 798.471 279.257 797.727 277.953C796.982 276.65 796.609 274.847 796.609 272.545V257.438H792.775V254.771L796.889 252.664L798.844 246.646H802.602V252.893H810.65V257.438H802.602V272.469C802.602 273.891 802.957 274.949 803.668 275.643C804.379 276.337 805.318 276.684 806.486 276.684ZM827.916 281.508C825.258 281.508 822.956 280.992 821.01 279.959C819.063 278.926 817.565 277.344 816.516 275.211C815.466 273.078 814.941 270.37 814.941 267.086C814.941 263.667 815.517 260.874 816.668 258.707C817.819 256.54 819.41 254.941 821.441 253.908C823.49 252.876 825.834 252.359 828.475 252.359C830.15 252.359 831.665 252.529 833.02 252.867C834.391 253.189 835.55 253.587 836.498 254.061L834.721 258.834C833.688 258.411 832.63 258.055 831.547 257.768C830.464 257.48 829.423 257.336 828.424 257.336C826.782 257.336 825.411 257.7 824.311 258.428C823.227 259.156 822.415 260.239 821.873 261.678C821.348 263.117 821.086 264.902 821.086 267.035C821.086 269.1 821.357 270.844 821.898 272.266C822.44 273.671 823.244 274.737 824.311 275.465C825.377 276.176 826.689 276.531 828.246 276.531C829.786 276.531 831.166 276.345 832.385 275.973C833.604 275.6 834.755 275.118 835.838 274.525V279.705C834.771 280.314 833.629 280.763 832.41 281.051C831.191 281.355 829.693 281.508 827.916 281.508ZM848.406 241.492V251.42C848.406 252.452 848.372 253.46 848.305 254.441C848.254 255.423 848.195 256.185 848.127 256.727H848.457C849.049 255.745 849.777 254.941 850.641 254.314C851.504 253.671 852.469 253.189 853.535 252.867C854.618 252.546 855.77 252.385 856.988 252.385C859.138 252.385 860.966 252.749 862.473 253.477C863.979 254.188 865.13 255.296 865.926 256.803C866.738 258.309 867.145 260.264 867.145 262.668V281H861.178V263.785C861.178 261.602 860.729 259.968 859.832 258.885C858.935 257.785 857.547 257.234 855.668 257.234C853.857 257.234 852.418 257.615 851.352 258.377C850.302 259.122 849.549 260.23 849.092 261.703C848.635 263.159 848.406 264.936 848.406 267.035V281H842.439V241.492H848.406ZM894.973 252.893V281H889.006V252.893H894.973ZM892.027 242.127C892.941 242.127 893.729 242.372 894.389 242.863C895.066 243.354 895.404 244.201 895.404 245.402C895.404 246.587 895.066 247.434 894.389 247.941C893.729 248.432 892.941 248.678 892.027 248.678C891.079 248.678 890.275 248.432 889.615 247.941C888.972 247.434 888.65 246.587 888.65 245.402C888.65 244.201 888.972 243.354 889.615 242.863C890.275 242.372 891.079 242.127 892.027 242.127ZM918.18 252.359C921.345 252.359 923.808 253.18 925.568 254.822C927.346 256.447 928.234 259.062 928.234 262.668V281H922.268V263.785C922.268 261.602 921.819 259.968 920.922 258.885C920.025 257.785 918.637 257.234 916.758 257.234C914.033 257.234 912.137 258.072 911.07 259.748C910.021 261.424 909.496 263.853 909.496 267.035V281H903.529V252.893H908.176L909.014 256.701H909.344C909.953 255.719 910.706 254.915 911.604 254.289C912.518 253.646 913.533 253.163 914.65 252.842C915.785 252.52 916.961 252.359 918.18 252.359ZM955.479 272.977C955.479 274.822 955.03 276.379 954.133 277.648C953.236 278.918 951.924 279.883 950.197 280.543C948.488 281.186 946.389 281.508 943.9 281.508C941.937 281.508 940.244 281.364 938.822 281.076C937.417 280.805 936.089 280.382 934.836 279.807V274.652C936.173 275.279 937.671 275.82 939.33 276.277C941.006 276.734 942.589 276.963 944.078 276.963C946.042 276.963 947.455 276.658 948.318 276.049C949.182 275.423 949.613 274.593 949.613 273.561C949.613 272.951 949.436 272.41 949.08 271.936C948.742 271.445 948.098 270.945 947.15 270.438C946.219 269.913 944.848 269.286 943.037 268.559C941.26 267.848 939.762 267.137 938.543 266.426C937.324 265.715 936.402 264.86 935.775 263.861C935.149 262.846 934.836 261.551 934.836 259.977C934.836 257.488 935.818 255.601 937.781 254.314C939.762 253.011 942.377 252.359 945.627 252.359C947.354 252.359 948.979 252.537 950.502 252.893C952.042 253.231 953.549 253.73 955.021 254.391L953.143 258.885C951.873 258.326 950.595 257.869 949.309 257.514C948.039 257.141 946.744 256.955 945.424 256.955C943.883 256.955 942.707 257.192 941.895 257.666C941.099 258.14 940.701 258.817 940.701 259.697C940.701 260.357 940.896 260.916 941.285 261.373C941.674 261.83 942.343 262.287 943.291 262.744C944.256 263.201 945.593 263.768 947.303 264.445C948.979 265.089 950.426 265.766 951.645 266.477C952.88 267.171 953.828 268.025 954.488 269.041C955.148 270.057 955.479 271.368 955.479 272.977ZM972.389 276.684C973.167 276.684 973.938 276.616 974.699 276.48C975.461 276.328 976.155 276.15 976.781 275.947V280.467C976.121 280.755 975.266 281 974.217 281.203C973.167 281.406 972.076 281.508 970.941 281.508C969.35 281.508 967.92 281.245 966.65 280.721C965.381 280.179 964.374 279.257 963.629 277.953C962.884 276.65 962.512 274.847 962.512 272.545V257.438H958.678V254.771L962.791 252.664L964.746 246.646H968.504V252.893H976.553V257.438H968.504V272.469C968.504 273.891 968.859 274.949 969.57 275.643C970.281 276.337 971.221 276.684 972.389 276.684ZM996.738 252.359C997.212 252.359 997.729 252.385 998.287 252.436C998.846 252.486 999.328 252.554 999.734 252.639L999.176 258.225C998.82 258.123 998.38 258.047 997.855 257.996C997.348 257.945 996.891 257.92 996.484 257.92C995.418 257.92 994.402 258.098 993.438 258.453C992.473 258.792 991.618 259.316 990.873 260.027C990.128 260.721 989.544 261.593 989.121 262.643C988.698 263.692 988.486 264.911 988.486 266.299V281H982.494V252.893H987.166L987.979 257.844H988.258C988.816 256.845 989.51 255.931 990.34 255.102C991.169 254.272 992.117 253.612 993.184 253.121C994.267 252.613 995.452 252.359 996.738 252.359ZM1029.44 252.893V281H1024.74L1023.93 277.217H1023.6C1023.01 278.182 1022.26 278.986 1021.34 279.629C1020.43 280.255 1019.41 280.721 1018.29 281.025C1017.18 281.347 1016 281.508 1014.77 281.508C1012.65 281.508 1010.84 281.152 1009.33 280.441C1007.84 279.714 1006.7 278.596 1005.9 277.09C1005.11 275.583 1004.71 273.637 1004.71 271.25V252.893H1010.7V270.133C1010.7 272.316 1011.14 273.95 1012.02 275.033C1012.92 276.117 1014.31 276.658 1016.19 276.658C1018 276.658 1019.44 276.286 1020.5 275.541C1021.57 274.796 1022.32 273.696 1022.76 272.24C1023.22 270.785 1023.45 268.999 1023.45 266.883V252.893H1029.44ZM1049.32 281.508C1046.66 281.508 1044.36 280.992 1042.42 279.959C1040.47 278.926 1038.97 277.344 1037.92 275.211C1036.87 273.078 1036.35 270.37 1036.35 267.086C1036.35 263.667 1036.92 260.874 1038.07 258.707C1039.23 256.54 1040.82 254.941 1042.85 253.908C1044.9 252.876 1047.24 252.359 1049.88 252.359C1051.56 252.359 1053.07 252.529 1054.43 252.867C1055.8 253.189 1056.96 253.587 1057.9 254.061L1056.13 258.834C1055.09 258.411 1054.04 258.055 1052.95 257.768C1051.87 257.48 1050.83 257.336 1049.83 257.336C1048.19 257.336 1046.82 257.7 1045.72 258.428C1044.63 259.156 1043.82 260.239 1043.28 261.678C1042.75 263.117 1042.49 264.902 1042.49 267.035C1042.49 269.1 1042.76 270.844 1043.3 272.266C1043.85 273.671 1044.65 274.737 1045.72 275.465C1046.78 276.176 1048.1 276.531 1049.65 276.531C1051.19 276.531 1052.57 276.345 1053.79 275.973C1055.01 275.6 1056.16 275.118 1057.24 274.525V279.705C1056.18 280.314 1055.04 280.763 1053.82 281.051C1052.6 281.355 1051.1 281.508 1049.32 281.508ZM1074.31 276.684C1075.09 276.684 1075.86 276.616 1076.62 276.48C1077.38 276.328 1078.07 276.15 1078.7 275.947V280.467C1078.04 280.755 1077.18 281 1076.13 281.203C1075.09 281.406 1073.99 281.508 1072.86 281.508C1071.27 281.508 1069.84 281.245 1068.57 280.721C1067.3 280.179 1066.29 279.257 1065.55 277.953C1064.8 276.65 1064.43 274.847 1064.43 272.545V257.438H1060.6V254.771L1064.71 252.664L1066.66 246.646H1070.42V252.893H1078.47V257.438H1070.42V272.469C1070.42 273.891 1070.78 274.949 1071.49 275.643C1072.2 276.337 1073.14 276.684 1074.31 276.684ZM1090.38 252.893V281H1084.41V252.893H1090.38ZM1087.43 242.127C1088.35 242.127 1089.13 242.372 1089.79 242.863C1090.47 243.354 1090.81 244.201 1090.81 245.402C1090.81 246.587 1090.47 247.434 1089.79 247.941C1089.13 248.432 1088.35 248.678 1087.43 248.678C1086.49 248.678 1085.68 248.432 1085.02 247.941C1084.38 247.434 1084.06 246.587 1084.06 245.402C1084.06 244.201 1084.38 243.354 1085.02 242.863C1085.68 242.372 1086.49 242.127 1087.43 242.127ZM1123.82 266.883C1123.82 269.219 1123.51 271.292 1122.9 273.104C1122.29 274.915 1121.41 276.447 1120.24 277.699C1119.07 278.935 1117.67 279.883 1116.02 280.543C1114.38 281.186 1112.53 281.508 1110.46 281.508C1108.53 281.508 1106.76 281.186 1105.16 280.543C1103.55 279.883 1102.15 278.935 1100.97 277.699C1099.8 276.447 1098.89 274.915 1098.25 273.104C1097.61 271.292 1097.29 269.219 1097.29 266.883C1097.29 263.785 1097.82 261.161 1098.88 259.012C1099.97 256.845 1101.51 255.195 1103.51 254.061C1105.5 252.926 1107.88 252.359 1110.64 252.359C1113.23 252.359 1115.52 252.926 1117.5 254.061C1119.48 255.195 1121.03 256.845 1122.14 259.012C1123.26 261.178 1123.82 263.802 1123.82 266.883ZM1103.43 266.883C1103.43 268.931 1103.68 270.683 1104.17 272.139C1104.67 273.594 1105.45 274.712 1106.5 275.49C1107.55 276.252 1108.91 276.633 1110.56 276.633C1112.22 276.633 1113.58 276.252 1114.63 275.49C1115.68 274.712 1116.45 273.594 1116.94 272.139C1117.43 270.683 1117.67 268.931 1117.67 266.883C1117.67 264.835 1117.43 263.1 1116.94 261.678C1116.45 260.239 1115.68 259.147 1114.63 258.402C1113.58 257.641 1112.21 257.26 1110.54 257.26C1108.07 257.26 1106.26 258.089 1105.13 259.748C1104 261.407 1103.43 263.785 1103.43 266.883ZM1145.32 252.359C1148.49 252.359 1150.95 253.18 1152.71 254.822C1154.49 256.447 1155.38 259.062 1155.38 262.668V281H1149.41V263.785C1149.41 261.602 1148.96 259.968 1148.07 258.885C1147.17 257.785 1145.78 257.234 1143.9 257.234C1141.18 257.234 1139.28 258.072 1138.21 259.748C1137.17 261.424 1136.64 263.853 1136.64 267.035V281H1130.67V252.893H1135.32L1136.16 256.701H1136.49C1137.1 255.719 1137.85 254.915 1138.75 254.289C1139.66 253.646 1140.68 253.163 1141.79 252.842C1142.93 252.52 1144.11 252.359 1145.32 252.359ZM1182.62 272.977C1182.62 274.822 1182.17 276.379 1181.28 277.648C1180.38 278.918 1179.07 279.883 1177.34 280.543C1175.63 281.186 1173.53 281.508 1171.04 281.508C1169.08 281.508 1167.39 281.364 1165.97 281.076C1164.56 280.805 1163.23 280.382 1161.98 279.807V274.652C1163.32 275.279 1164.82 275.82 1166.47 276.277C1168.15 276.734 1169.73 276.963 1171.22 276.963C1173.19 276.963 1174.6 276.658 1175.46 276.049C1176.33 275.423 1176.76 274.593 1176.76 273.561C1176.76 272.951 1176.58 272.41 1176.22 271.936C1175.89 271.445 1175.24 270.945 1174.29 270.438C1173.36 269.913 1171.99 269.286 1170.18 268.559C1168.4 267.848 1166.91 267.137 1165.69 266.426C1164.47 265.715 1163.55 264.86 1162.92 263.861C1162.29 262.846 1161.98 261.551 1161.98 259.977C1161.98 257.488 1162.96 255.601 1164.93 254.314C1166.91 253.011 1169.52 252.359 1172.77 252.359C1174.5 252.359 1176.12 252.537 1177.65 252.893C1179.19 253.231 1180.69 253.73 1182.17 254.391L1180.29 258.885C1179.02 258.326 1177.74 257.869 1176.45 257.514C1175.18 257.141 1173.89 256.955 1172.57 256.955C1171.03 256.955 1169.85 257.192 1169.04 257.666C1168.24 258.14 1167.85 258.817 1167.85 259.697C1167.85 260.357 1168.04 260.916 1168.43 261.373C1168.82 261.83 1169.49 262.287 1170.44 262.744C1171.4 263.201 1172.74 263.768 1174.45 264.445C1176.12 265.089 1177.57 265.766 1178.79 266.477C1180.02 267.171 1180.97 268.025 1181.63 269.041C1182.29 270.057 1182.62 271.368 1182.62 272.977Z" fill="#2F2E41"/>
</g>
<defs>
<clipPath id="clip0_3115_767">
<rect width="1339" height="589" fill="white"/>
</clipPath>
</defs>
</svg>
