<svg width="2202" height="610" viewBox="0 0 2202 610" fill="none" xmlns="http://www.w3.org/2000/svg">
<path d="M70.5723 526.274H82.8385C88.1586 526.274 92.1721 527.045 94.8792 528.586C97.5862 530.128 98.9397 532.788 98.9397 536.567C98.9397 538.146 98.6577 539.574 98.0938 540.853C97.5486 542.112 96.7496 543.156 95.6969 543.983C94.6442 544.791 93.347 545.336 91.8055 545.618V545.9C93.4034 546.182 94.8228 546.68 96.0635 547.395C97.323 548.109 98.3099 549.134 99.0243 550.468C99.7574 551.803 100.124 553.532 100.124 555.657C100.124 558.176 99.5225 560.319 98.3193 562.086C97.135 563.853 95.4337 565.197 93.2155 566.118C91.016 567.039 88.403 567.5 85.3763 567.5H70.5723V526.274ZM77.3398 543.278H83.8254C86.8896 543.278 89.0139 542.78 90.1982 541.783C91.3826 540.787 91.9747 539.33 91.9747 537.412C91.9747 535.457 91.2698 534.047 89.8599 533.183C88.4688 532.318 86.2505 531.886 83.2051 531.886H77.3398V543.278ZM77.3398 548.748V561.832H84.474C87.6322 561.832 89.8505 561.221 91.1288 559.999C92.4071 558.777 93.0463 557.123 93.0463 555.036C93.0463 553.758 92.7549 552.649 92.1721 551.709C91.6082 550.769 90.6776 550.045 89.3805 549.538C88.0834 549.011 86.3351 548.748 84.1356 548.748H77.3398Z" fill="#464646"/>
<path d="M135.174 536.285V567.5H129.958L129.055 563.298H128.689C128.031 564.37 127.194 565.263 126.179 565.977C125.164 566.673 124.036 567.19 122.795 567.528C121.555 567.885 120.248 568.064 118.876 568.064C116.526 568.064 114.515 567.669 112.841 566.88C111.187 566.071 109.918 564.831 109.035 563.157C108.151 561.484 107.709 559.323 107.709 556.672V536.285H114.364V555.431C114.364 557.856 114.853 559.67 115.83 560.873C116.827 562.077 118.368 562.678 120.455 562.678C122.466 562.678 124.064 562.265 125.249 561.437C126.433 560.61 127.27 559.388 127.758 557.772C128.266 556.155 128.52 554.172 128.52 551.822V536.285H135.174Z" fill="#464646"/>
<path d="M165.657 558.589C165.657 560.638 165.159 562.368 164.162 563.778C163.166 565.188 161.709 566.259 159.792 566.992C157.893 567.707 155.562 568.064 152.798 568.064C150.618 568.064 148.738 567.904 147.159 567.585C145.598 567.284 144.123 566.814 142.732 566.175V560.45C144.217 561.146 145.88 561.748 147.723 562.255C149.584 562.763 151.341 563.016 152.996 563.016C155.176 563.016 156.746 562.678 157.705 562.001C158.664 561.306 159.143 560.385 159.143 559.238C159.143 558.561 158.946 557.96 158.551 557.433C158.175 556.888 157.46 556.333 156.408 555.77C155.374 555.187 153.851 554.491 151.84 553.683C149.866 552.893 148.202 552.104 146.849 551.314C145.495 550.525 144.47 549.575 143.775 548.466C143.079 547.338 142.732 545.9 142.732 544.152C142.732 541.388 143.822 539.292 146.003 537.864C148.202 536.416 151.106 535.692 154.716 535.692C156.633 535.692 158.438 535.89 160.13 536.285C161.841 536.661 163.514 537.215 165.149 537.948L163.062 542.939C161.653 542.319 160.233 541.811 158.805 541.417C157.395 541.003 155.957 540.796 154.49 540.796C152.78 540.796 151.473 541.059 150.571 541.586C149.687 542.112 149.245 542.864 149.245 543.842C149.245 544.575 149.462 545.195 149.894 545.703C150.326 546.21 151.069 546.718 152.122 547.225C153.193 547.733 154.678 548.363 156.577 549.115C158.438 549.829 160.045 550.581 161.399 551.371C162.771 552.141 163.824 553.091 164.557 554.219C165.29 555.347 165.657 556.803 165.657 558.589Z" fill="#464646"/>
<path d="M179.446 536.285V567.5H172.819V536.285H179.446ZM176.175 524.328C177.19 524.328 178.064 524.601 178.797 525.146C179.549 525.691 179.925 526.631 179.925 527.966C179.925 529.282 179.549 530.222 178.797 530.786C178.064 531.331 177.19 531.604 176.175 531.604C175.122 531.604 174.229 531.331 173.496 530.786C172.781 530.222 172.424 529.282 172.424 527.966C172.424 526.631 172.781 525.691 173.496 525.146C174.229 524.601 175.122 524.328 176.175 524.328Z" fill="#464646"/>
<path d="M205.219 535.692C208.734 535.692 211.469 536.604 213.425 538.428C215.398 540.232 216.385 543.137 216.385 547.141V567.5H209.759V548.382C209.759 545.957 209.261 544.142 208.264 542.939C207.268 541.717 205.726 541.106 203.64 541.106C200.613 541.106 198.508 542.037 197.323 543.898C196.158 545.759 195.575 548.457 195.575 551.991V567.5H188.948V536.285H194.109L195.039 540.514H195.406C196.083 539.424 196.919 538.531 197.916 537.835C198.931 537.121 200.059 536.585 201.299 536.228C202.559 535.871 203.865 535.692 205.219 535.692Z" fill="#464646"/>
<path d="M238.098 535.692C240.88 535.692 243.268 536.266 245.26 537.412C247.253 538.559 248.785 540.185 249.857 542.291C250.928 544.396 251.464 546.915 251.464 549.848V553.401H230.625C230.701 556.427 231.509 558.759 233.051 560.394C234.611 562.03 236.792 562.847 239.593 562.847C241.585 562.847 243.371 562.659 244.95 562.283C246.548 561.889 248.193 561.315 249.885 560.563V565.949C248.325 566.682 246.736 567.218 245.119 567.556C243.503 567.895 241.566 568.064 239.311 568.064C236.246 568.064 233.549 567.472 231.218 566.287C228.905 565.084 227.091 563.298 225.775 560.93C224.478 558.561 223.83 555.619 223.83 552.104C223.83 548.607 224.422 545.637 225.606 543.193C226.791 540.749 228.454 538.888 230.597 537.61C232.74 536.332 235.241 535.692 238.098 535.692ZM238.098 540.683C236.011 540.683 234.319 541.36 233.022 542.714C231.744 544.067 230.992 546.051 230.766 548.664H244.978C244.96 547.103 244.696 545.722 244.189 544.518C243.7 543.315 242.948 542.375 241.933 541.699C240.937 541.022 239.658 540.683 238.098 540.683Z" fill="#464646"/>
<path d="M279.916 558.589C279.916 560.638 279.418 562.368 278.422 563.778C277.425 565.188 275.968 566.259 274.051 566.992C272.152 567.707 269.821 568.064 267.058 568.064C264.877 568.064 262.997 567.904 261.418 567.585C259.858 567.284 258.382 566.814 256.991 566.175V560.45C258.476 561.146 260.14 561.748 261.982 562.255C263.843 562.763 265.601 563.016 267.255 563.016C269.436 563.016 271.005 562.678 271.964 562.001C272.923 561.306 273.402 560.385 273.402 559.238C273.402 558.561 273.205 557.96 272.81 557.433C272.434 556.888 271.72 556.333 270.667 555.77C269.633 555.187 268.11 554.491 266.099 553.683C264.125 552.893 262.461 552.104 261.108 551.314C259.754 550.525 258.73 549.575 258.034 548.466C257.339 547.338 256.991 545.9 256.991 544.152C256.991 541.388 258.081 539.292 260.262 537.864C262.461 536.416 265.366 535.692 268.975 535.692C270.893 535.692 272.697 535.89 274.389 536.285C276.1 536.661 277.773 537.215 279.408 537.948L277.322 542.939C275.912 542.319 274.493 541.811 273.064 541.417C271.654 541.003 270.216 540.796 268.75 540.796C267.039 540.796 265.732 541.059 264.83 541.586C263.946 542.112 263.505 542.864 263.505 543.842C263.505 544.575 263.721 545.195 264.153 545.703C264.586 546.21 265.328 546.718 266.381 547.225C267.452 547.733 268.938 548.363 270.836 549.115C272.697 549.829 274.305 550.581 275.658 551.371C277.03 552.141 278.083 553.091 278.816 554.219C279.549 555.347 279.916 556.803 279.916 558.589Z" fill="#464646"/>
<path d="M308.058 558.589C308.058 560.638 307.56 562.368 306.563 563.778C305.567 565.188 304.11 566.259 302.193 566.992C300.294 567.707 297.963 568.064 295.199 568.064C293.019 568.064 291.139 567.904 289.56 567.585C288 567.284 286.524 566.814 285.133 566.175V560.45C286.618 561.146 288.281 561.748 290.124 562.255C291.985 562.763 293.743 563.016 295.397 563.016C297.578 563.016 299.147 562.678 300.106 562.001C301.065 561.306 301.544 560.385 301.544 559.238C301.544 558.561 301.347 557.96 300.952 557.433C300.576 556.888 299.862 556.333 298.809 555.77C297.775 555.187 296.252 554.491 294.241 553.683C292.267 552.893 290.603 552.104 289.25 551.314C287.896 550.525 286.872 549.575 286.176 548.466C285.48 547.338 285.133 545.9 285.133 544.152C285.133 541.388 286.223 539.292 288.404 537.864C290.603 536.416 293.508 535.692 297.117 535.692C299.034 535.692 300.839 535.89 302.531 536.285C304.242 536.661 305.915 537.215 307.55 537.948L305.464 542.939C304.054 542.319 302.634 541.811 301.206 541.417C299.796 541.003 298.358 540.796 296.891 540.796C295.181 540.796 293.874 541.059 292.972 541.586C292.088 542.112 291.646 542.864 291.646 543.842C291.646 544.575 291.863 545.195 292.295 545.703C292.727 546.21 293.47 546.718 294.523 547.225C295.594 547.733 297.079 548.363 298.978 549.115C300.839 549.829 302.446 550.581 303.8 551.371C305.172 552.141 306.225 553.091 306.958 554.219C307.691 555.347 308.058 556.803 308.058 558.589Z" fill="#464646"/>
<path d="M337.61 567.5H330.898V526.274H354.19V531.97H337.61V544.829H353.119V550.496H337.61V567.5Z" fill="#464646"/>
<path d="M388.225 536.285V567.5H383.009L382.106 563.298H381.74C381.082 564.37 380.245 565.263 379.23 565.977C378.215 566.673 377.087 567.19 375.846 567.528C374.606 567.885 373.299 568.064 371.927 568.064C369.577 568.064 367.566 567.669 365.892 566.88C364.238 566.071 362.969 564.831 362.086 563.157C361.202 561.484 360.76 559.323 360.76 556.672V536.285H367.415V555.431C367.415 557.856 367.904 559.67 368.881 560.873C369.878 562.077 371.419 562.678 373.506 562.678C375.517 562.678 377.115 562.265 378.3 561.437C379.484 560.61 380.321 559.388 380.809 557.772C381.317 556.155 381.571 554.172 381.571 551.822V536.285H388.225Z" fill="#464646"/>
<path d="M413.999 535.692C417.514 535.692 420.249 536.604 422.204 538.428C424.178 540.232 425.165 543.137 425.165 547.141V567.5H418.539V548.382C418.539 545.957 418.04 544.142 417.044 542.939C416.048 541.717 414.506 541.106 412.42 541.106C409.393 541.106 407.287 542.037 406.103 543.898C404.938 545.759 404.355 548.457 404.355 551.991V567.5H397.728V536.285H402.889L403.819 540.514H404.186C404.862 539.424 405.699 538.531 406.695 537.835C407.71 537.121 408.838 536.585 410.079 536.228C411.339 535.871 412.645 535.692 413.999 535.692Z" fill="#464646"/>
<path d="M447.019 568.064C444.067 568.064 441.511 567.491 439.349 566.344C437.187 565.197 435.523 563.439 434.358 561.071C433.192 558.702 432.609 555.694 432.609 552.047C432.609 548.25 433.249 545.148 434.527 542.742C435.805 540.336 437.572 538.559 439.828 537.412C442.103 536.266 444.707 535.692 447.639 535.692C449.5 535.692 451.183 535.88 452.687 536.256C454.209 536.614 455.497 537.055 456.55 537.582L454.576 542.883C453.429 542.413 452.254 542.018 451.051 541.699C449.848 541.379 448.692 541.219 447.583 541.219C445.759 541.219 444.237 541.623 443.015 542.432C441.812 543.24 440.909 544.443 440.308 546.041C439.725 547.639 439.433 549.622 439.433 551.991C439.433 554.284 439.734 556.221 440.336 557.8C440.937 559.36 441.83 560.544 443.015 561.353C444.199 562.142 445.656 562.537 447.385 562.537C449.096 562.537 450.628 562.33 451.982 561.917C453.335 561.503 454.614 560.967 455.817 560.309V566.062C454.632 566.739 453.363 567.237 452.01 567.556C450.656 567.895 448.993 568.064 447.019 568.064Z" fill="#464646"/>
<path d="M474.766 562.706C475.631 562.706 476.486 562.631 477.332 562.481C478.178 562.312 478.949 562.114 479.644 561.889V566.908C478.911 567.227 477.962 567.5 476.796 567.726C475.631 567.951 474.418 568.064 473.159 568.064C471.391 568.064 469.803 567.773 468.393 567.19C466.983 566.588 465.865 565.564 465.037 564.116C464.21 562.669 463.797 560.667 463.797 558.11V541.332H459.539V538.371L464.107 536.031L466.278 529.348H470.452V536.285H479.39V541.332H470.452V558.025C470.452 559.604 470.846 560.779 471.636 561.55C472.425 562.321 473.469 562.706 474.766 562.706Z" fill="#464646"/>
<path d="M492.615 536.285V567.5H485.989V536.285H492.615ZM489.344 524.328C490.359 524.328 491.234 524.601 491.967 525.146C492.719 525.691 493.095 526.631 493.095 527.966C493.095 529.282 492.719 530.222 491.967 530.786C491.234 531.331 490.359 531.604 489.344 531.604C488.292 531.604 487.399 531.331 486.666 530.786C485.951 530.222 485.594 529.282 485.594 527.966C485.594 526.631 485.951 525.691 486.666 525.146C487.399 524.601 488.292 524.328 489.344 524.328Z" fill="#464646"/>
<path d="M529.752 551.822C529.752 554.416 529.414 556.719 528.737 558.73C528.061 560.742 527.074 562.443 525.776 563.834C524.479 565.207 522.919 566.259 521.096 566.992C519.272 567.707 517.214 568.064 514.92 568.064C512.777 568.064 510.813 567.707 509.027 566.992C507.241 566.259 505.69 565.207 504.374 563.834C503.077 562.443 502.071 560.742 501.357 558.73C500.642 556.719 500.285 554.416 500.285 551.822C500.285 548.382 500.877 545.468 502.062 543.08C503.265 540.674 504.976 538.841 507.194 537.582C509.412 536.322 512.053 535.692 515.118 535.692C517.994 535.692 520.532 536.322 522.731 537.582C524.931 538.841 526.651 540.674 527.891 543.08C529.132 545.487 529.752 548.4 529.752 551.822ZM507.109 551.822C507.109 554.096 507.382 556.042 507.927 557.659C508.491 559.276 509.356 560.516 510.521 561.381C511.687 562.227 513.191 562.65 515.033 562.65C516.875 562.65 518.379 562.227 519.545 561.381C520.71 560.516 521.566 559.276 522.111 557.659C522.656 556.042 522.928 554.096 522.928 551.822C522.928 549.547 522.656 547.62 522.111 546.041C521.566 544.443 520.71 543.231 519.545 542.404C518.379 541.558 516.866 541.135 515.005 541.135C512.26 541.135 510.258 542.056 508.999 543.898C507.739 545.74 507.109 548.382 507.109 551.822Z" fill="#464646"/>
<path d="M553.636 535.692C557.152 535.692 559.887 536.604 561.842 538.428C563.816 540.232 564.803 543.137 564.803 547.141V567.5H558.176V548.382C558.176 545.957 557.678 544.142 556.682 542.939C555.685 541.717 554.144 541.106 552.057 541.106C549.031 541.106 546.925 542.037 545.741 543.898C544.575 545.759 543.993 548.457 543.993 551.991V567.5H537.366V536.285H542.526L543.457 540.514H543.823C544.5 539.424 545.337 538.531 546.333 537.835C547.348 537.121 548.476 536.585 549.717 536.228C550.976 535.871 552.283 535.692 553.636 535.692Z" fill="#464646"/>
<path d="M1838.5 53.25L1832.84 36.8547H1832.72C1832.75 37.2218 1832.78 37.7231 1832.82 38.3586C1832.85 38.9942 1832.88 39.6746 1832.91 40.3997C1832.94 41.1248 1832.95 41.8185 1832.95 42.481V53.25H1830.02V33.6187H1834.55L1839.99 49.2888H1840.07L1845.69 33.6187H1850.21V53.25H1847.13V42.3198C1847.13 41.7201 1847.14 41.071 1847.16 40.3728C1847.19 39.6746 1847.21 39.0121 1847.24 38.3855C1847.27 37.7589 1847.3 37.2576 1847.32 36.8816H1847.21L1841.34 53.25H1838.5Z" fill="#464646"/>
<path d="M1860.88 38.1035C1862.76 38.1035 1864.18 38.5198 1865.14 39.3523C1866.1 40.1848 1866.59 41.4828 1866.59 43.2463V53.25H1864.35L1863.74 51.1418H1863.63C1863.21 51.679 1862.78 52.1221 1862.33 52.4712C1861.88 52.8203 1861.36 53.0799 1860.77 53.25C1860.19 53.429 1859.48 53.5186 1858.64 53.5186C1857.75 53.5186 1856.96 53.3574 1856.26 53.0352C1855.56 52.7039 1855.01 52.2026 1854.61 51.5312C1854.21 50.8599 1854.01 50.0094 1854.01 48.98C1854.01 47.4492 1854.57 46.2989 1855.71 45.5291C1856.86 44.7592 1858.59 44.334 1860.89 44.2534L1863.47 44.1594V43.3806C1863.47 42.3512 1863.23 41.6171 1862.75 41.1785C1862.27 40.7398 1861.6 40.5205 1860.73 40.5205C1859.99 40.5205 1859.27 40.6279 1858.57 40.8428C1857.87 41.0576 1857.19 41.3217 1856.53 41.635L1855.51 39.406C1856.24 39.0211 1857.06 38.7078 1857.98 38.4661C1858.91 38.2244 1859.88 38.1035 1860.88 38.1035ZM1863.46 46.1467L1861.54 46.2139C1859.96 46.2676 1858.86 46.5361 1858.22 47.0195C1857.59 47.5029 1857.27 48.1654 1857.27 49.0068C1857.27 49.7409 1857.49 50.278 1857.93 50.6182C1858.37 50.9494 1858.94 51.115 1859.66 51.115C1860.75 51.115 1861.66 50.8062 1862.37 50.1885C1863.1 49.5618 1863.46 48.6443 1863.46 47.4358V46.1467Z" fill="#464646"/>
<path d="M1876.54 50.9673C1876.95 50.9673 1877.36 50.9315 1877.76 50.8599C1878.16 50.7793 1878.53 50.6853 1878.86 50.5779V52.968C1878.51 53.1202 1878.06 53.25 1877.5 53.3574C1876.95 53.4648 1876.37 53.5186 1875.77 53.5186C1874.93 53.5186 1874.17 53.3798 1873.5 53.1023C1872.83 52.8158 1872.3 52.328 1871.91 51.6387C1871.51 50.9494 1871.31 49.996 1871.31 48.7786V40.7891H1869.29V39.3792L1871.46 38.2646L1872.5 35.0823H1874.48V38.3855H1878.74V40.7891H1874.48V48.7383C1874.48 49.4902 1874.67 50.0497 1875.05 50.4167C1875.42 50.7838 1875.92 50.9673 1876.54 50.9673Z" fill="#464646"/>
<path d="M1894.84 38.3855V53.25H1892.36L1891.93 51.2493H1891.75C1891.44 51.7595 1891.04 52.1847 1890.56 52.5249C1890.07 52.8561 1889.54 53.1023 1888.95 53.2634C1888.35 53.4335 1887.73 53.5186 1887.08 53.5186C1885.96 53.5186 1885 53.3306 1884.21 52.9546C1883.42 52.5697 1882.81 51.9788 1882.39 51.1821C1881.97 50.3854 1881.76 49.356 1881.76 48.0938V38.3855H1884.93V47.5029C1884.93 48.6577 1885.16 49.5216 1885.63 50.0945C1886.1 50.6674 1886.84 50.9539 1887.83 50.9539C1888.79 50.9539 1889.55 50.7569 1890.11 50.363C1890.68 49.9692 1891.08 49.3873 1891.31 48.6174C1891.55 47.8476 1891.67 46.9032 1891.67 45.7842V38.3855H1894.84Z" fill="#464646"/>
<path d="M1906.9 38.1035C1907.15 38.1035 1907.42 38.1169 1907.72 38.1438C1908.01 38.1707 1908.27 38.2065 1908.48 38.2512L1908.19 41.2053C1908 41.1516 1907.77 41.1113 1907.49 41.0845C1907.22 41.0576 1906.98 41.0442 1906.76 41.0442C1906.2 41.0442 1905.66 41.1382 1905.15 41.3262C1904.64 41.5052 1904.19 41.7827 1903.8 42.1587C1903.4 42.5257 1903.09 42.9867 1902.87 43.5417C1902.65 44.0968 1902.53 44.7413 1902.53 45.4753V53.25H1899.37V38.3855H1901.84L1902.27 41.0039H1902.41C1902.71 40.4757 1903.08 39.9924 1903.51 39.5537C1903.95 39.1151 1904.45 38.766 1905.02 38.5063C1905.59 38.2378 1906.22 38.1035 1906.9 38.1035Z" fill="#464646"/>
<path d="M1914.39 38.3855V53.25H1911.24V38.3855H1914.39ZM1912.83 32.6921C1913.32 32.6921 1913.73 32.8219 1914.08 33.0815C1914.44 33.3411 1914.62 33.7887 1914.62 34.4243C1914.62 35.0509 1914.44 35.4985 1914.08 35.7671C1913.73 36.0267 1913.32 36.1565 1912.83 36.1565C1912.33 36.1565 1911.91 36.0267 1911.56 35.7671C1911.22 35.4985 1911.05 35.0509 1911.05 34.4243C1911.05 33.7887 1911.22 33.3411 1911.56 33.0815C1911.91 32.8219 1912.33 32.6921 1912.83 32.6921Z" fill="#464646"/>
<path d="M1924.45 50.9673C1924.86 50.9673 1925.27 50.9315 1925.67 50.8599C1926.07 50.7793 1926.44 50.6853 1926.77 50.5779V52.968C1926.42 53.1202 1925.97 53.25 1925.42 53.3574C1924.86 53.4648 1924.28 53.5186 1923.68 53.5186C1922.84 53.5186 1922.08 53.3798 1921.41 53.1023C1920.74 52.8158 1920.21 52.328 1919.82 51.6387C1919.42 50.9494 1919.22 49.996 1919.22 48.7786V40.7891H1917.2V39.3792L1919.37 38.2646L1920.41 35.0823H1922.39V38.3855H1926.65V40.7891H1922.39V48.7383C1922.39 49.4902 1922.58 50.0497 1922.96 50.4167C1923.33 50.7838 1923.83 50.9673 1924.45 50.9673Z" fill="#464646"/>
<path d="M1927.55 38.3855H1930.99L1934.04 46.8718C1934.17 47.2568 1934.29 47.6372 1934.4 48.0132C1934.51 48.3802 1934.61 48.7428 1934.69 49.1008C1934.78 49.4589 1934.85 49.817 1934.91 50.175H1934.99C1935.08 49.7096 1935.2 49.1903 1935.36 48.6174C1935.54 48.0356 1935.72 47.4537 1935.93 46.8718L1938.86 38.3855H1942.25L1935.88 55.291C1935.51 56.2578 1935.06 57.0814 1934.52 57.7617C1933.99 58.451 1933.36 58.9702 1932.64 59.3193C1931.91 59.6774 1931.09 59.8564 1930.16 59.8564C1929.71 59.8564 1929.32 59.8296 1928.99 59.7759C1928.66 59.7311 1928.37 59.6819 1928.14 59.6282V57.1038C1928.33 57.1485 1928.57 57.1888 1928.85 57.2246C1929.14 57.2604 1929.43 57.2783 1929.74 57.2783C1930.3 57.2783 1930.79 57.1664 1931.2 56.9426C1931.61 56.7188 1931.96 56.401 1932.25 55.9893C1932.54 55.5864 1932.77 55.1254 1932.96 54.6062L1933.49 53.2097L1927.55 38.3855Z" fill="#464646"/>
<path d="M1954.82 53.25H1951.65V32.3564H1954.82V53.25Z" fill="#464646"/>
<path d="M1965.26 38.1035C1966.58 38.1035 1967.72 38.3765 1968.67 38.9226C1969.61 39.4687 1970.34 40.243 1970.85 41.2456C1971.36 42.2482 1971.62 43.4478 1971.62 44.8442V46.5361H1961.7C1961.73 47.9774 1962.12 49.0874 1962.85 49.8662C1963.59 50.645 1964.63 51.0344 1965.97 51.0344C1966.92 51.0344 1967.77 50.9449 1968.52 50.7659C1969.28 50.5779 1970.06 50.3049 1970.87 49.9468V52.5115C1970.12 52.8606 1969.37 53.1157 1968.6 53.2769C1967.83 53.438 1966.91 53.5186 1965.83 53.5186C1964.37 53.5186 1963.09 53.2366 1961.98 52.6726C1960.88 52.0997 1960.01 51.2493 1959.39 50.1213C1958.77 48.9934 1958.46 47.5924 1958.46 45.9185C1958.46 44.2534 1958.74 42.839 1959.31 41.6753C1959.87 40.5116 1960.66 39.6253 1961.68 39.0166C1962.7 38.4079 1963.89 38.1035 1965.26 38.1035ZM1965.26 40.4802C1964.26 40.4802 1963.46 40.8025 1962.84 41.447C1962.23 42.0916 1961.87 43.036 1961.76 44.2803H1968.53C1968.52 43.5373 1968.4 42.8793 1968.16 42.3064C1967.92 41.7335 1967.56 41.2859 1967.08 40.9636C1966.61 40.6414 1966 40.4802 1965.26 40.4802Z" fill="#464646"/>
<path d="M1978.58 53.25L1972.92 38.3855H1976.27L1979.33 47.1135C1979.52 47.6685 1979.7 48.2683 1979.86 48.9128C1980.03 49.5574 1980.14 50.099 1980.2 50.5376H1980.31C1980.37 50.0811 1980.49 49.535 1980.67 48.8994C1980.85 48.2549 1981.03 47.6596 1981.22 47.1135L1984.28 38.3855H1987.61L1981.96 53.25H1978.58Z" fill="#464646"/>
<path d="M1995.79 38.1035C1997.11 38.1035 1998.25 38.3765 1999.2 38.9226C2000.15 39.4687 2000.88 40.243 2001.39 41.2456C2001.9 42.2482 2002.15 43.4478 2002.15 44.8442V46.5361H1992.23C1992.27 47.9774 1992.65 49.0874 1993.39 49.8662C1994.13 50.645 1995.17 51.0344 1996.5 51.0344C1997.45 51.0344 1998.3 50.9449 1999.05 50.7659C1999.81 50.5779 2000.6 50.3049 2001.4 49.9468V52.5115C2000.66 52.8606 1999.9 53.1157 1999.13 53.2769C1998.36 53.438 1997.44 53.5186 1996.37 53.5186C1994.91 53.5186 1993.62 53.2366 1992.51 52.6726C1991.41 52.0997 1990.55 51.2493 1989.92 50.1213C1989.3 48.9934 1989 47.5924 1989 45.9185C1989 44.2534 1989.28 42.839 1989.84 41.6753C1990.41 40.5116 1991.2 39.6253 1992.22 39.0166C1993.24 38.4079 1994.43 38.1035 1995.79 38.1035ZM1995.79 40.4802C1994.8 40.4802 1993.99 40.8025 1993.37 41.447C1992.76 42.0916 1992.41 43.036 1992.3 44.2803H1999.07C1999.06 43.5373 1998.93 42.8793 1998.69 42.3064C1998.46 41.7335 1998.1 41.2859 1997.62 40.9636C1997.14 40.6414 1996.53 40.4802 1995.79 40.4802Z" fill="#464646"/>
<path d="M2008.88 53.25H2005.71V32.3564H2008.88V53.25Z" fill="#464646"/>
<path d="M2028.8 53.25H2025.63V40.6145C2025.63 40.1938 2025.63 39.773 2025.64 39.3523C2025.65 38.9316 2025.66 38.5198 2025.67 38.1169C2025.68 37.7141 2025.71 37.3292 2025.73 36.9622C2025.55 37.1681 2025.31 37.3918 2025.04 37.6335C2024.77 37.8752 2024.48 38.1259 2024.18 38.3855L2021.92 40.1848L2020.34 38.1841L2026.16 33.6187H2028.8V53.25Z" fill="#464646"/>
<path d="M2049.25 38.1035C2051.13 38.1035 2052.54 38.5198 2053.5 39.3523C2054.47 40.1848 2054.95 41.4828 2054.95 43.2463V53.25H2052.71L2052.11 51.1418H2052C2051.58 51.679 2051.14 52.1221 2050.7 52.4712C2050.25 52.8203 2049.73 53.0799 2049.14 53.25C2048.56 53.429 2047.84 53.5186 2047 53.5186C2046.12 53.5186 2045.32 53.3574 2044.63 53.0352C2043.93 52.7039 2043.38 52.2026 2042.97 51.5312C2042.57 50.8599 2042.37 50.0094 2042.37 48.98C2042.37 47.4492 2042.94 46.2989 2044.08 45.5291C2045.22 44.7592 2046.95 44.334 2049.26 44.2534L2051.84 44.1594V43.3806C2051.84 42.3512 2051.6 41.6171 2051.11 41.1785C2050.64 40.7398 2049.97 40.5205 2049.1 40.5205C2048.35 40.5205 2047.63 40.6279 2046.94 40.8428C2046.24 41.0576 2045.56 41.3217 2044.9 41.635L2043.87 39.406C2044.6 39.0211 2045.42 38.7078 2046.35 38.4661C2047.28 38.2244 2048.24 38.1035 2049.25 38.1035ZM2051.82 46.1467L2049.9 46.2139C2048.33 46.2676 2047.22 46.5361 2046.59 47.0195C2045.95 47.5029 2045.63 48.1654 2045.63 49.0068C2045.63 49.7409 2045.85 50.278 2046.29 50.6182C2046.73 50.9494 2047.31 51.115 2048.02 51.115C2049.12 51.115 2050.02 50.8062 2050.74 50.1885C2051.46 49.5618 2051.82 48.6443 2051.82 47.4358V46.1467Z" fill="#464646"/>
<path d="M2065.36 53.5186C2063.95 53.5186 2062.74 53.2455 2061.71 52.6995C2060.68 52.1534 2059.88 51.3164 2059.33 50.1885C2058.77 49.0605 2058.5 47.6283 2058.5 45.8916C2058.5 44.0833 2058.8 42.6063 2059.41 41.4604C2060.02 40.3146 2060.86 39.4687 2061.93 38.9226C2063.02 38.3765 2064.26 38.1035 2065.65 38.1035C2066.54 38.1035 2067.34 38.193 2068.06 38.3721C2068.78 38.5422 2069.4 38.7525 2069.9 39.0032L2068.96 41.5276C2068.41 41.3038 2067.85 41.1158 2067.28 40.9636C2066.71 40.8114 2066.16 40.7354 2065.63 40.7354C2064.76 40.7354 2064.03 40.9278 2063.45 41.3127C2062.88 41.6977 2062.45 42.2706 2062.16 43.0315C2061.89 43.7924 2061.75 44.7368 2061.75 45.8647C2061.75 46.9569 2061.89 47.8789 2062.18 48.6309C2062.46 49.3739 2062.89 49.9378 2063.45 50.3228C2064.02 50.6987 2064.71 50.8867 2065.53 50.8867C2066.35 50.8867 2067.08 50.7882 2067.72 50.5913C2068.37 50.3944 2068.98 50.1392 2069.55 49.8259V52.5652C2068.98 52.8875 2068.38 53.1247 2067.74 53.2769C2067.09 53.438 2066.3 53.5186 2065.36 53.5186Z" fill="#464646"/>
<path d="M2078.57 50.9673C2078.98 50.9673 2079.39 50.9315 2079.79 50.8599C2080.2 50.7793 2080.56 50.6853 2080.89 50.5779V52.968C2080.55 53.1202 2080.09 53.25 2079.54 53.3574C2078.98 53.4648 2078.41 53.5186 2077.81 53.5186C2076.96 53.5186 2076.21 53.3798 2075.54 53.1023C2074.87 52.8158 2074.33 52.328 2073.94 51.6387C2073.55 50.9494 2073.35 49.996 2073.35 48.7786V40.7891H2071.32V39.3792L2073.5 38.2646L2074.53 35.0823H2076.52V38.3855H2080.77V40.7891H2076.52V48.7383C2076.52 49.4902 2076.71 50.0497 2077.08 50.4167C2077.46 50.7838 2077.95 50.9673 2078.57 50.9673Z" fill="#464646"/>
<path d="M2087.07 38.3855V53.25H2083.92V38.3855H2087.07ZM2085.51 32.6921C2086 32.6921 2086.41 32.8219 2086.76 33.0815C2087.12 33.3411 2087.3 33.7887 2087.3 34.4243C2087.3 35.0509 2087.12 35.4985 2086.76 35.7671C2086.41 36.0267 2086 36.1565 2085.51 36.1565C2085.01 36.1565 2084.59 36.0267 2084.24 35.7671C2083.9 35.4985 2083.73 35.0509 2083.73 34.4243C2083.73 33.7887 2083.9 33.3411 2084.24 33.0815C2084.59 32.8219 2085.01 32.6921 2085.51 32.6921Z" fill="#464646"/>
<path d="M2094.99 53.25L2089.34 38.3855H2092.68L2095.75 47.1135C2095.94 47.6685 2096.12 48.2683 2096.28 48.9128C2096.44 49.5574 2096.56 50.099 2096.62 50.5376H2096.73C2096.79 50.0811 2096.91 49.535 2097.09 48.8994C2097.27 48.2549 2097.45 47.6596 2097.64 47.1135L2100.7 38.3855H2104.03L2098.38 53.25H2094.99Z" fill="#464646"/>
<path d="M2109.44 38.3855V53.25H2106.29V38.3855H2109.44ZM2107.88 32.6921C2108.37 32.6921 2108.78 32.8219 2109.13 33.0815C2109.49 33.3411 2109.67 33.7887 2109.67 34.4243C2109.67 35.0509 2109.49 35.4985 2109.13 35.7671C2108.78 36.0267 2108.37 36.1565 2107.88 36.1565C2107.38 36.1565 2106.96 36.0267 2106.61 35.7671C2106.27 35.4985 2106.1 35.0509 2106.1 34.4243C2106.1 33.7887 2106.27 33.3411 2106.61 33.0815C2106.96 32.8219 2107.38 32.6921 2107.88 32.6921Z" fill="#464646"/>
<path d="M2119.5 50.9673C2119.91 50.9673 2120.32 50.9315 2120.72 50.8599C2121.12 50.7793 2121.49 50.6853 2121.82 50.5779V52.968C2121.47 53.1202 2121.02 53.25 2120.47 53.3574C2119.91 53.4648 2119.33 53.5186 2118.73 53.5186C2117.89 53.5186 2117.14 53.3798 2116.46 53.1023C2115.79 52.8158 2115.26 52.328 2114.87 51.6387C2114.47 50.9494 2114.28 49.996 2114.28 48.7786V40.7891H2112.25V39.3792L2114.42 38.2646L2115.46 35.0823H2117.45V38.3855H2121.7V40.7891H2117.45V48.7383C2117.45 49.4902 2117.63 50.0497 2118.01 50.4167C2118.39 50.7838 2118.88 50.9673 2119.5 50.9673Z" fill="#464646"/>
<path d="M2122.6 38.3855H2126.04L2129.09 46.8718C2129.22 47.2568 2129.34 47.6372 2129.45 48.0132C2129.57 48.3802 2129.66 48.7428 2129.74 49.1008C2129.83 49.4589 2129.91 49.817 2129.96 50.175H2130.04C2130.13 49.7096 2130.26 49.1903 2130.42 48.6174C2130.59 48.0356 2130.77 47.4537 2130.98 46.8718L2133.91 38.3855H2137.3L2130.93 55.291C2130.56 56.2578 2130.11 57.0814 2129.57 57.7617C2129.04 58.451 2128.42 58.9702 2127.69 59.3193C2126.97 59.6774 2126.14 59.8564 2125.21 59.8564C2124.76 59.8564 2124.37 59.8296 2124.04 59.7759C2123.71 59.7311 2123.42 59.6819 2123.19 59.6282V57.1038C2123.38 57.1485 2123.62 57.1888 2123.9 57.2246C2124.19 57.2604 2124.49 57.2783 2124.79 57.2783C2125.35 57.2783 2125.84 57.1664 2126.25 56.9426C2126.67 56.7188 2127.01 56.401 2127.3 55.9893C2127.59 55.5864 2127.82 55.1254 2128.01 54.6062L2128.54 53.2097L2122.6 38.3855Z" fill="#464646"/>
<path d="M1450.04 178.302C1450.04 179.815 1449.67 181.119 1448.92 182.213C1448.19 183.307 1447.13 184.144 1445.74 184.726C1444.37 185.308 1442.73 185.599 1440.82 185.599C1439.89 185.599 1439 185.547 1438.15 185.442C1437.3 185.337 1436.5 185.186 1435.74 184.988C1435 184.779 1434.32 184.528 1433.7 184.238V180.292C1434.74 180.746 1435.89 181.159 1437.17 181.532C1438.45 181.893 1439.76 182.073 1441.08 182.073C1442.17 182.073 1443.06 181.933 1443.77 181.654C1444.49 181.363 1445.03 180.956 1445.38 180.432C1445.73 179.897 1445.9 179.274 1445.9 178.564C1445.9 177.808 1445.7 177.168 1445.29 176.644C1444.88 176.12 1444.27 175.643 1443.44 175.213C1442.63 174.771 1441.6 174.299 1440.37 173.799C1439.53 173.461 1438.73 173.077 1437.96 172.647C1437.2 172.216 1436.53 171.71 1435.93 171.128C1435.34 170.546 1434.87 169.86 1434.52 169.068C1434.18 168.265 1434.01 167.323 1434.01 166.24C1434.01 164.797 1434.36 163.564 1435.04 162.54C1435.74 161.516 1436.72 160.73 1437.98 160.183C1439.24 159.636 1440.72 159.363 1442.41 159.363C1443.75 159.363 1445.01 159.502 1446.18 159.782C1447.37 160.061 1448.53 160.457 1449.67 160.969L1448.35 164.338C1447.3 163.907 1446.28 163.564 1445.29 163.308C1444.31 163.052 1443.31 162.924 1442.29 162.924C1441.4 162.924 1440.65 163.058 1440.04 163.325C1439.42 163.593 1438.95 163.971 1438.62 164.46C1438.31 164.937 1438.15 165.507 1438.15 166.171C1438.15 166.915 1438.33 167.544 1438.69 168.056C1439.06 168.556 1439.63 169.016 1440.4 169.435C1441.18 169.854 1442.18 170.319 1443.41 170.831C1444.81 171.413 1446.01 172.024 1446.98 172.664C1447.97 173.304 1448.73 174.072 1449.25 174.968C1449.78 175.853 1450.04 176.964 1450.04 178.302Z" fill="#464646"/>
<path d="M1461.73 182.282C1462.27 182.282 1462.8 182.236 1463.32 182.143C1463.85 182.038 1464.32 181.916 1464.75 181.776V184.883C1464.3 185.081 1463.71 185.25 1462.99 185.39C1462.27 185.529 1461.52 185.599 1460.74 185.599C1459.64 185.599 1458.66 185.419 1457.79 185.058C1456.92 184.686 1456.22 184.051 1455.71 183.155C1455.2 182.259 1454.94 181.02 1454.94 179.437V169.051H1452.31V167.218L1455.14 165.769L1456.48 161.632H1459.06V165.926H1464.6V169.051H1459.06V179.385C1459.06 180.362 1459.31 181.09 1459.8 181.567C1460.29 182.044 1460.93 182.282 1461.73 182.282Z" fill="#464646"/>
<path d="M1478.47 165.56C1478.8 165.56 1479.16 165.577 1479.54 165.612C1479.92 165.647 1480.25 165.693 1480.53 165.752L1480.15 169.592C1479.91 169.522 1479.6 169.47 1479.24 169.435C1478.89 169.4 1478.58 169.382 1478.3 169.382C1477.57 169.382 1476.87 169.505 1476.2 169.749C1475.54 169.982 1474.95 170.343 1474.44 170.831C1473.93 171.308 1473.53 171.908 1473.24 172.629C1472.95 173.351 1472.8 174.189 1472.8 175.143V185.25H1468.68V165.926H1471.89L1472.45 169.33H1472.64C1473.03 168.643 1473.51 168.015 1474.08 167.445C1474.65 166.875 1475.3 166.421 1476.03 166.083C1476.78 165.734 1477.59 165.56 1478.47 165.56Z" fill="#464646"/>
<path d="M1491.81 165.56C1493.53 165.56 1495.01 165.915 1496.24 166.624C1497.48 167.334 1498.43 168.341 1499.09 169.644C1499.75 170.948 1500.08 172.507 1500.08 174.323V176.522H1487.18C1487.23 178.396 1487.73 179.839 1488.69 180.851C1489.65 181.864 1491 182.37 1492.74 182.37C1493.97 182.37 1495.07 182.253 1496.05 182.021C1497.04 181.776 1498.06 181.421 1499.11 180.956V184.29C1498.14 184.744 1497.16 185.075 1496.16 185.285C1495.16 185.494 1493.96 185.599 1492.56 185.599C1490.66 185.599 1488.99 185.233 1487.55 184.499C1486.12 183.755 1485 182.649 1484.18 181.183C1483.38 179.716 1482.98 177.895 1482.98 175.719C1482.98 173.554 1483.34 171.716 1484.08 170.203C1484.81 168.69 1485.84 167.538 1487.17 166.747C1488.49 165.955 1490.04 165.56 1491.81 165.56ZM1491.81 168.649C1490.52 168.649 1489.47 169.068 1488.67 169.906C1487.88 170.744 1487.41 171.972 1487.27 173.589H1496.07C1496.06 172.623 1495.9 171.768 1495.58 171.023C1495.28 170.279 1494.81 169.697 1494.18 169.278C1493.57 168.859 1492.78 168.649 1491.81 168.649Z" fill="#464646"/>
<path d="M1512.29 165.56C1514.73 165.56 1516.57 166.101 1517.82 167.183C1519.08 168.265 1519.71 169.953 1519.71 172.245V185.25H1516.79L1516 182.509H1515.87C1515.32 183.208 1514.75 183.784 1514.17 184.238C1513.59 184.691 1512.92 185.029 1512.15 185.25C1511.39 185.483 1510.47 185.599 1509.37 185.599C1508.22 185.599 1507.19 185.39 1506.28 184.971C1505.37 184.54 1504.66 183.888 1504.13 183.016C1503.61 182.143 1503.35 181.037 1503.35 179.699C1503.35 177.709 1504.09 176.214 1505.57 175.213C1507.06 174.212 1509.3 173.659 1512.3 173.554L1515.66 173.432V172.42C1515.66 171.082 1515.34 170.127 1514.71 169.557C1514.1 168.987 1513.22 168.702 1512.09 168.702C1511.13 168.702 1510.19 168.841 1509.28 169.121C1508.38 169.4 1507.49 169.743 1506.63 170.151L1505.3 167.253C1506.25 166.752 1507.32 166.345 1508.52 166.031C1509.73 165.717 1510.98 165.56 1512.29 165.56ZM1515.64 176.016L1513.14 176.103C1511.09 176.173 1509.66 176.522 1508.83 177.15C1508 177.779 1507.59 178.64 1507.59 179.734C1507.59 180.688 1507.88 181.386 1508.45 181.829C1509.02 182.259 1509.77 182.474 1510.7 182.474C1512.12 182.474 1513.29 182.073 1514.22 181.27C1515.17 180.455 1515.64 179.263 1515.64 177.692V176.016Z" fill="#464646"/>
<path d="M1547.29 165.56C1549.45 165.56 1551.08 166.118 1552.17 167.235C1553.28 168.353 1553.83 170.145 1553.83 172.612V185.25H1549.73V173.345C1549.73 171.879 1549.44 170.773 1548.87 170.028C1548.3 169.284 1547.44 168.911 1546.27 168.911C1544.64 168.911 1543.47 169.435 1542.75 170.482C1542.04 171.518 1541.68 173.025 1541.68 175.003V185.25H1537.58V173.345C1537.58 172.367 1537.45 171.553 1537.2 170.901C1536.95 170.238 1536.57 169.743 1536.06 169.417C1535.55 169.08 1534.9 168.911 1534.12 168.911C1533 168.911 1532.09 169.167 1531.42 169.679C1530.76 170.191 1530.28 170.948 1529.99 171.948C1529.7 172.938 1529.55 174.154 1529.55 175.597V185.25H1525.45V165.926H1528.64L1529.22 168.527H1529.45C1529.84 167.852 1530.33 167.299 1530.91 166.869C1531.51 166.427 1532.16 166.101 1532.88 165.891C1533.61 165.67 1534.36 165.56 1535.14 165.56C1536.58 165.56 1537.8 165.816 1538.78 166.328C1539.77 166.828 1540.51 167.596 1541 168.632H1541.32C1541.92 167.584 1542.76 166.811 1543.85 166.31C1544.93 165.81 1546.08 165.56 1547.29 165.56Z" fill="#464646"/>
<path d="M1585.08 185.25L1582.58 178.163H1572.82L1570.33 185.25H1565.91L1575.41 159.625H1580.05L1589.53 185.25H1585.08ZM1581.5 174.567L1579.07 167.584C1578.98 167.282 1578.85 166.857 1578.67 166.31C1578.5 165.752 1578.32 165.187 1578.15 164.617C1577.97 164.035 1577.83 163.546 1577.71 163.151C1577.6 163.628 1577.45 164.163 1577.28 164.757C1577.11 165.338 1576.95 165.885 1576.79 166.397C1576.64 166.91 1576.52 167.305 1576.44 167.584L1573.99 174.567H1581.5Z" fill="#464646"/>
<path d="M1450.07 428.552C1450.07 430.065 1449.7 431.369 1448.96 432.463C1448.22 433.557 1447.16 434.394 1445.78 434.976C1444.41 435.558 1442.76 435.849 1440.86 435.849C1439.93 435.849 1439.04 435.797 1438.19 435.692C1437.34 435.587 1436.53 435.436 1435.78 435.238C1435.03 435.029 1434.35 434.778 1433.73 434.488V430.542C1434.77 430.996 1435.93 431.409 1437.21 431.782C1438.49 432.143 1439.79 432.323 1441.12 432.323C1442.2 432.323 1443.1 432.183 1443.81 431.904C1444.53 431.613 1445.06 431.206 1445.41 430.682C1445.76 430.147 1445.94 429.524 1445.94 428.814C1445.94 428.058 1445.73 427.418 1445.33 426.894C1444.92 426.37 1444.3 425.893 1443.47 425.463C1442.66 425.021 1441.64 424.549 1440.4 424.049C1439.56 423.711 1438.76 423.327 1437.99 422.897C1437.24 422.466 1436.56 421.96 1435.97 421.378C1435.38 420.796 1434.9 420.11 1434.55 419.318C1434.22 418.515 1434.05 417.573 1434.05 416.49C1434.05 415.047 1434.39 413.814 1435.08 412.79C1435.78 411.766 1436.75 410.98 1438.01 410.433C1439.28 409.886 1440.76 409.613 1442.44 409.613C1443.78 409.613 1445.04 409.752 1446.22 410.032C1447.4 410.311 1448.57 410.707 1449.71 411.219L1448.38 414.588C1447.33 414.157 1446.31 413.814 1445.33 413.558C1444.35 413.302 1443.35 413.174 1442.32 413.174C1441.44 413.174 1440.69 413.308 1440.07 413.575C1439.45 413.843 1438.98 414.221 1438.66 414.71C1438.34 415.187 1438.19 415.757 1438.19 416.421C1438.19 417.165 1438.37 417.794 1438.73 418.306C1439.1 418.806 1439.67 419.266 1440.44 419.685C1441.22 420.104 1442.22 420.569 1443.44 421.081C1444.85 421.663 1446.04 422.274 1447.02 422.914C1448.01 423.554 1448.76 424.322 1449.29 425.218C1449.81 426.103 1450.07 427.214 1450.07 428.552Z" fill="#464646"/>
<path d="M1461.77 432.532C1462.3 432.532 1462.83 432.486 1463.36 432.393C1463.88 432.288 1464.36 432.166 1464.79 432.026V435.133C1464.33 435.331 1463.75 435.5 1463.03 435.64C1462.3 435.779 1461.55 435.849 1460.77 435.849C1459.68 435.849 1458.7 435.669 1457.82 435.308C1456.95 434.936 1456.26 434.301 1455.75 433.405C1455.23 432.509 1454.98 431.27 1454.98 429.687V419.301H1452.34V417.468L1455.17 416.019L1456.51 411.882H1459.1V416.176H1464.63V419.301H1459.1V429.635C1459.1 430.612 1459.34 431.34 1459.83 431.817C1460.32 432.294 1460.97 432.532 1461.77 432.532Z" fill="#464646"/>
<path d="M1478.51 415.81C1478.84 415.81 1479.19 415.827 1479.57 415.862C1479.96 415.897 1480.29 415.943 1480.57 416.002L1480.18 419.842C1479.94 419.772 1479.64 419.72 1479.28 419.685C1478.93 419.65 1478.61 419.632 1478.33 419.632C1477.6 419.632 1476.9 419.755 1476.24 419.999C1475.58 420.232 1474.99 420.593 1474.48 421.081C1473.96 421.558 1473.56 422.158 1473.27 422.879C1472.98 423.601 1472.84 424.439 1472.84 425.393V435.5H1468.72V416.176H1471.93L1472.49 419.58H1472.68C1473.06 418.893 1473.54 418.265 1474.11 417.695C1474.68 417.125 1475.33 416.671 1476.07 416.333C1476.81 415.984 1477.62 415.81 1478.51 415.81Z" fill="#464646"/>
<path d="M1491.85 415.81C1493.57 415.81 1495.05 416.165 1496.28 416.874C1497.51 417.584 1498.46 418.591 1499.12 419.894C1499.79 421.198 1500.12 422.757 1500.12 424.573V426.772H1487.22C1487.27 428.646 1487.77 430.089 1488.72 431.101C1489.69 432.114 1491.04 432.62 1492.77 432.62C1494 432.62 1495.11 432.503 1496.09 432.271C1497.08 432.026 1498.09 431.671 1499.14 431.206V434.54C1498.18 434.994 1497.19 435.325 1496.19 435.535C1495.19 435.744 1493.99 435.849 1492.6 435.849C1490.7 435.849 1489.03 435.483 1487.59 434.749C1486.15 434.005 1485.03 432.899 1484.22 431.433C1483.41 429.966 1483.01 428.145 1483.01 425.969C1483.01 423.804 1483.38 421.966 1484.11 420.453C1484.85 418.94 1485.88 417.788 1487.2 416.997C1488.53 416.205 1490.08 415.81 1491.85 415.81ZM1491.85 418.899C1490.55 418.899 1489.51 419.318 1488.7 420.156C1487.91 420.994 1487.45 422.222 1487.31 423.839H1496.1C1496.09 422.873 1495.93 422.018 1495.62 421.273C1495.31 420.529 1494.85 419.947 1494.22 419.528C1493.6 419.109 1492.81 418.899 1491.85 418.899Z" fill="#464646"/>
<path d="M1512.32 415.81C1514.77 415.81 1516.61 416.351 1517.86 417.433C1519.11 418.515 1519.74 420.203 1519.74 422.495V435.5H1516.83L1516.04 432.759H1515.9C1515.35 433.458 1514.79 434.034 1514.21 434.488C1513.62 434.941 1512.95 435.279 1512.18 435.5C1511.43 435.733 1510.5 435.849 1509.41 435.849C1508.25 435.849 1507.22 435.64 1506.32 435.221C1505.41 434.79 1504.69 434.138 1504.17 433.266C1503.65 432.393 1503.38 431.287 1503.38 429.949C1503.38 427.959 1504.12 426.464 1505.6 425.463C1507.09 424.462 1509.34 423.909 1512.34 423.804L1515.69 423.682V422.67C1515.69 421.332 1515.38 420.377 1514.75 419.807C1514.13 419.237 1513.26 418.952 1512.13 418.952C1511.16 418.952 1510.23 419.091 1509.32 419.371C1508.41 419.65 1507.53 419.993 1506.67 420.401L1505.34 417.503C1506.28 417.002 1507.35 416.595 1508.55 416.281C1509.76 415.967 1511.02 415.81 1512.32 415.81ZM1515.67 426.266L1513.18 426.353C1511.13 426.423 1509.69 426.772 1508.87 427.4C1508.04 428.029 1507.63 428.89 1507.63 429.984C1507.63 430.938 1507.91 431.636 1508.48 432.079C1509.05 432.509 1509.8 432.724 1510.73 432.724C1512.15 432.724 1513.33 432.323 1514.26 431.52C1515.2 430.705 1515.67 429.513 1515.67 427.942V426.266Z" fill="#464646"/>
<path d="M1547.32 415.81C1549.49 415.81 1551.11 416.368 1552.21 417.485C1553.31 418.603 1553.87 420.395 1553.87 422.862V435.5H1549.76V423.595C1549.76 422.129 1549.48 421.023 1548.91 420.278C1548.34 419.534 1547.47 419.161 1546.31 419.161C1544.68 419.161 1543.5 419.685 1542.78 420.732C1542.07 421.768 1541.72 423.275 1541.72 425.253V435.5H1537.62V423.595C1537.62 422.617 1537.49 421.803 1537.23 421.151C1536.99 420.488 1536.61 419.993 1536.1 419.667C1535.58 419.33 1534.94 419.161 1534.16 419.161C1533.03 419.161 1532.13 419.417 1531.45 419.929C1530.79 420.441 1530.31 421.198 1530.02 422.198C1529.73 423.188 1529.59 424.404 1529.59 425.847V435.5H1525.48V416.176H1528.68L1529.25 418.777H1529.48C1529.88 418.102 1530.37 417.549 1530.95 417.119C1531.54 416.677 1532.2 416.351 1532.92 416.141C1533.64 415.92 1534.39 415.81 1535.17 415.81C1536.61 415.81 1537.83 416.066 1538.82 416.578C1539.81 417.078 1540.55 417.846 1541.04 418.882H1541.35C1541.96 417.834 1542.8 417.061 1543.88 416.56C1544.96 416.06 1546.11 415.81 1547.32 415.81Z" fill="#464646"/>
<path d="M1569.3 409.979H1576.89C1580.18 409.979 1582.67 410.456 1584.35 411.411C1586.02 412.365 1586.86 414.012 1586.86 416.351C1586.86 417.328 1586.68 418.213 1586.34 419.004C1586 419.784 1585.5 420.43 1584.85 420.942C1584.2 421.442 1583.4 421.78 1582.44 421.954V422.129C1583.43 422.303 1584.31 422.612 1585.08 423.054C1585.86 423.496 1586.47 424.13 1586.91 424.957C1587.37 425.783 1587.59 426.853 1587.59 428.168C1587.59 429.728 1587.22 431.055 1586.47 432.148C1585.74 433.242 1584.69 434.074 1583.32 434.645C1581.95 435.215 1580.34 435.5 1578.46 435.5H1569.3V409.979ZM1573.49 420.505H1577.5C1579.4 420.505 1580.71 420.197 1581.45 419.58C1582.18 418.963 1582.55 418.061 1582.55 416.874C1582.55 415.664 1582.11 414.791 1581.24 414.256C1580.38 413.721 1579 413.453 1577.12 413.453H1573.49V420.505ZM1573.49 423.892V431.991H1577.9C1579.86 431.991 1581.23 431.613 1582.02 430.857C1582.81 430.1 1583.21 429.076 1583.21 427.784C1583.21 426.993 1583.03 426.306 1582.67 425.725C1582.32 425.143 1581.74 424.695 1580.94 424.38C1580.14 424.055 1579.06 423.892 1577.69 423.892H1573.49Z" fill="#464646"/>
<path d="M836.521 305.415C836.521 307.393 836.034 309.098 835.06 310.528C834.101 311.959 832.717 313.054 830.906 313.815C829.11 314.576 826.964 314.957 824.468 314.957C823.251 314.957 822.087 314.888 820.976 314.751C819.865 314.614 818.815 314.416 817.826 314.158C816.852 313.884 815.961 313.556 815.155 313.176V308.017C816.509 308.611 818.024 309.151 819.698 309.638C821.372 310.11 823.076 310.345 824.811 310.345C826.226 310.345 827.398 310.163 828.326 309.798C829.27 309.417 829.97 308.885 830.426 308.2C830.883 307.5 831.111 306.686 831.111 305.757C831.111 304.768 830.845 303.931 830.312 303.246C829.78 302.561 828.973 301.937 827.892 301.374C826.827 300.796 825.488 300.18 823.875 299.525C822.779 299.084 821.729 298.582 820.725 298.019C819.736 297.456 818.853 296.794 818.077 296.033C817.301 295.272 816.684 294.374 816.228 293.339C815.786 292.289 815.566 291.057 815.566 289.641C815.566 287.754 816.015 286.141 816.913 284.802C817.826 283.463 819.104 282.435 820.748 281.72C822.406 281.005 824.339 280.647 826.546 280.647C828.296 280.647 829.939 280.83 831.476 281.195C833.029 281.56 834.55 282.078 836.042 282.747L834.307 287.153C832.937 286.59 831.606 286.141 830.312 285.806C829.034 285.471 827.725 285.304 826.386 285.304C825.229 285.304 824.248 285.479 823.441 285.829C822.635 286.179 822.018 286.674 821.592 287.313C821.181 287.937 820.976 288.682 820.976 289.55C820.976 290.524 821.212 291.346 821.683 292.015C822.17 292.67 822.916 293.271 823.921 293.819C824.94 294.366 826.249 294.975 827.847 295.645C829.688 296.406 831.248 297.205 832.526 298.042C833.82 298.879 834.809 299.883 835.494 301.055C836.179 302.211 836.521 303.665 836.521 305.415Z" fill="#464646"/>
<path d="M852.477 288.751C854.73 288.751 856.662 289.215 858.275 290.143C859.889 291.072 861.129 292.388 861.996 294.093C862.864 295.797 863.297 297.836 863.297 300.21V303.086H846.428C846.489 305.537 847.143 307.424 848.391 308.748C849.654 310.072 851.42 310.734 853.687 310.734C855.3 310.734 856.746 310.581 858.024 310.277C859.318 309.957 860.649 309.493 862.019 308.885V313.245C860.756 313.838 859.47 314.272 858.161 314.546C856.852 314.82 855.285 314.957 853.459 314.957C850.978 314.957 848.795 314.477 846.907 313.518C845.036 312.544 843.567 311.099 842.502 309.181C841.452 307.264 840.927 304.882 840.927 302.036C840.927 299.206 841.406 296.801 842.365 294.823C843.324 292.845 844.67 291.338 846.405 290.303C848.14 289.268 850.164 288.751 852.477 288.751ZM852.477 292.791C850.788 292.791 849.418 293.339 848.368 294.435C847.334 295.531 846.725 297.136 846.542 299.251H858.047C858.032 297.988 857.819 296.87 857.408 295.896C857.012 294.922 856.404 294.161 855.582 293.613C854.775 293.065 853.74 292.791 852.477 292.791Z" fill="#464646"/>
<path d="M879.527 314.957C877.138 314.957 875.069 314.492 873.318 313.564C871.568 312.636 870.222 311.213 869.278 309.295C868.335 307.378 867.863 304.943 867.863 301.991C867.863 298.917 868.38 296.406 869.415 294.458C870.45 292.51 871.88 291.072 873.707 290.143C875.548 289.215 877.656 288.751 880.03 288.751C881.536 288.751 882.898 288.903 884.116 289.208C885.348 289.497 886.391 289.854 887.243 290.28L885.645 294.572C884.717 294.191 883.766 293.872 882.792 293.613C881.818 293.354 880.882 293.225 879.984 293.225C878.508 293.225 877.275 293.552 876.286 294.207C875.312 294.861 874.582 295.835 874.095 297.129C873.623 298.422 873.387 300.028 873.387 301.945C873.387 303.802 873.63 305.369 874.117 306.647C874.604 307.911 875.327 308.869 876.286 309.524C877.245 310.163 878.424 310.482 879.824 310.482C881.209 310.482 882.449 310.315 883.545 309.98C884.641 309.645 885.676 309.212 886.65 308.679V313.336C885.691 313.884 884.664 314.287 883.568 314.546C882.472 314.82 881.125 314.957 879.527 314.957Z" fill="#464646"/>
<path d="M914.613 289.23V314.5H910.39L909.659 311.099H909.363C908.83 311.966 908.153 312.689 907.331 313.267C906.509 313.83 905.596 314.249 904.592 314.523C903.587 314.812 902.53 314.957 901.419 314.957C899.516 314.957 897.888 314.637 896.534 313.998C895.194 313.343 894.167 312.339 893.452 310.985C892.737 309.63 892.379 307.88 892.379 305.734V289.23H897.766V304.73C897.766 306.693 898.162 308.162 898.953 309.136C899.76 310.11 901.008 310.597 902.697 310.597C904.325 310.597 905.619 310.262 906.578 309.592C907.536 308.923 908.214 307.933 908.609 306.625C909.02 305.316 909.226 303.71 909.226 301.808V289.23H914.613Z" fill="#464646"/>
<path d="M935.112 288.751C935.538 288.751 936.002 288.774 936.504 288.819C937.006 288.865 937.44 288.926 937.805 289.002L937.303 294.024C936.983 293.933 936.588 293.864 936.116 293.819C935.659 293.773 935.249 293.75 934.883 293.75C933.925 293.75 933.011 293.91 932.144 294.229C931.277 294.534 930.508 295.006 929.839 295.645C929.169 296.269 928.644 297.052 928.263 297.996C927.883 298.939 927.693 300.035 927.693 301.283V314.5H922.306V289.23H926.506L927.236 293.682H927.487C927.99 292.784 928.613 291.962 929.359 291.216C930.105 290.471 930.957 289.877 931.916 289.436C932.89 288.979 933.955 288.751 935.112 288.751Z" fill="#464646"/>
<path d="M947.849 289.23V314.5H942.485V289.23H947.849ZM945.201 279.552C946.023 279.552 946.731 279.772 947.324 280.214C947.933 280.655 948.237 281.416 948.237 282.496C948.237 283.562 947.933 284.323 947.324 284.779C946.731 285.22 946.023 285.441 945.201 285.441C944.349 285.441 943.626 285.22 943.033 284.779C942.454 284.323 942.165 283.562 942.165 282.496C942.165 281.416 942.454 280.655 943.033 280.214C943.626 279.772 944.349 279.552 945.201 279.552Z" fill="#464646"/>
<path d="M964.947 310.619C965.647 310.619 966.339 310.559 967.024 310.437C967.709 310.3 968.333 310.14 968.896 309.957V314.021C968.302 314.279 967.534 314.5 966.59 314.683C965.647 314.865 964.665 314.957 963.646 314.957C962.215 314.957 960.929 314.721 959.788 314.249C958.646 313.762 957.741 312.933 957.071 311.761C956.402 310.589 956.067 308.968 956.067 306.899V293.316H952.62V290.92L956.318 289.025L958.076 283.615H961.454V289.23H968.69V293.316H961.454V306.83C961.454 308.108 961.774 309.06 962.413 309.683C963.052 310.307 963.897 310.619 964.947 310.619Z" fill="#464646"/>
<path d="M970.22 289.23H976.063L981.245 303.657C981.474 304.311 981.679 304.958 981.862 305.597C982.059 306.221 982.227 306.838 982.364 307.446C982.516 308.055 982.638 308.664 982.729 309.273H982.866C983.018 308.481 983.231 307.599 983.505 306.625C983.794 305.635 984.114 304.646 984.464 303.657L989.44 289.23H995.215L984.373 317.97C983.749 319.613 982.98 321.013 982.067 322.17C981.169 323.342 980.104 324.224 978.871 324.818C977.639 325.427 976.231 325.731 974.648 325.731C973.887 325.731 973.225 325.685 972.662 325.594C972.099 325.518 971.62 325.434 971.224 325.343V321.051C971.544 321.127 971.947 321.196 972.434 321.257C972.921 321.318 973.423 321.348 973.941 321.348C974.899 321.348 975.729 321.158 976.429 320.777C977.129 320.397 977.722 319.857 978.209 319.157C978.696 318.472 979.099 317.688 979.419 316.806L980.309 314.432L970.22 289.23Z" fill="#464646"/>
<path d="M1021.44 281.127C1025.75 281.127 1028.89 282.009 1030.87 283.775C1032.85 285.54 1033.84 288.013 1033.84 291.193C1033.84 292.639 1033.61 294.016 1033.15 295.325C1032.71 296.619 1031.98 297.768 1030.96 298.772C1029.94 299.761 1028.6 300.545 1026.92 301.123C1025.26 301.702 1023.22 301.991 1020.78 301.991H1017.22V314.5H1011.74V281.127H1021.44ZM1021.08 285.669H1017.22V297.425H1020.21C1021.93 297.425 1023.39 297.227 1024.59 296.832C1025.8 296.421 1026.71 295.774 1027.33 294.891C1027.96 294.009 1028.27 292.845 1028.27 291.399C1028.27 289.466 1027.68 288.028 1026.51 287.085C1025.35 286.141 1023.54 285.669 1021.08 285.669Z" fill="#464646"/>
<path d="M1052.76 288.751C1053.19 288.751 1053.65 288.774 1054.16 288.819C1054.66 288.865 1055.09 288.926 1055.46 289.002L1054.95 294.024C1054.63 293.933 1054.24 293.864 1053.77 293.819C1053.31 293.773 1052.9 293.75 1052.53 293.75C1051.58 293.75 1050.66 293.91 1049.8 294.229C1048.93 294.534 1048.16 295.006 1047.49 295.645C1046.82 296.269 1046.3 297.052 1045.91 297.996C1045.53 298.939 1045.34 300.035 1045.34 301.283V314.5H1039.96V289.23H1044.16L1044.89 293.682H1045.14C1045.64 292.784 1046.26 291.962 1047.01 291.216C1047.76 290.471 1048.61 289.877 1049.57 289.436C1050.54 288.979 1051.61 288.751 1052.76 288.751Z" fill="#464646"/>
<path d="M1070.04 288.751C1073.24 288.751 1075.65 289.459 1077.28 290.874C1078.92 292.289 1079.74 294.496 1079.74 297.494V314.5H1075.93L1074.91 310.916H1074.72C1074.01 311.829 1073.27 312.583 1072.51 313.176C1071.75 313.77 1070.86 314.211 1069.86 314.5C1068.87 314.804 1067.66 314.957 1066.23 314.957C1064.72 314.957 1063.38 314.683 1062.19 314.135C1061 313.572 1060.07 312.719 1059.38 311.578C1058.7 310.437 1058.36 308.991 1058.36 307.241C1058.36 304.639 1059.32 302.683 1061.25 301.374C1063.2 300.066 1066.14 299.343 1070.07 299.206L1074.45 299.046V297.722C1074.45 295.972 1074.04 294.724 1073.22 293.978C1072.41 293.233 1071.27 292.86 1069.79 292.86C1068.53 292.86 1067.3 293.042 1066.12 293.408C1064.93 293.773 1063.77 294.222 1062.65 294.755L1060.91 290.965C1062.14 290.311 1063.54 289.778 1065.11 289.367C1066.69 288.956 1068.34 288.751 1070.04 288.751ZM1074.43 302.424L1071.16 302.539C1068.48 302.63 1066.6 303.086 1065.52 303.908C1064.44 304.73 1063.9 305.856 1063.9 307.287C1063.9 308.535 1064.28 309.448 1065.02 310.026C1065.77 310.589 1066.75 310.87 1067.97 310.87C1069.82 310.87 1071.36 310.345 1072.58 309.295C1073.81 308.23 1074.43 306.67 1074.43 304.616V302.424Z" fill="#464646"/>
<path d="M1097.44 314.957C1095.05 314.957 1092.98 314.492 1091.23 313.564C1089.48 312.636 1088.13 311.213 1087.19 309.295C1086.24 307.378 1085.77 304.943 1085.77 301.991C1085.77 298.917 1086.29 296.406 1087.32 294.458C1088.36 292.51 1089.79 291.072 1091.61 290.143C1093.46 289.215 1095.56 288.751 1097.94 288.751C1099.44 288.751 1100.81 288.903 1102.02 289.208C1103.26 289.497 1104.3 289.854 1105.15 290.28L1103.55 294.572C1102.62 294.191 1101.67 293.872 1100.7 293.613C1099.73 293.354 1098.79 293.225 1097.89 293.225C1096.42 293.225 1095.18 293.552 1094.19 294.207C1093.22 294.861 1092.49 295.835 1092 297.129C1091.53 298.422 1091.29 300.028 1091.29 301.945C1091.29 303.802 1091.54 305.369 1092.03 306.647C1092.51 307.911 1093.24 308.869 1094.19 309.524C1095.15 310.163 1096.33 310.482 1097.73 310.482C1099.12 310.482 1100.36 310.315 1101.45 309.98C1102.55 309.645 1103.58 309.212 1104.56 308.679V313.336C1103.6 313.884 1102.57 314.287 1101.48 314.546C1100.38 314.82 1099.03 314.957 1097.44 314.957Z" fill="#464646"/>
<path d="M1119.9 310.619C1120.6 310.619 1121.29 310.559 1121.97 310.437C1122.66 310.3 1123.28 310.14 1123.85 309.957V314.021C1123.25 314.279 1122.48 314.5 1121.54 314.683C1120.6 314.865 1119.62 314.957 1118.6 314.957C1117.17 314.957 1115.88 314.721 1114.74 314.249C1113.6 313.762 1112.69 312.933 1112.02 311.761C1111.35 310.589 1111.02 308.968 1111.02 306.899V293.316H1107.57V290.92L1111.27 289.025L1113.03 283.615H1116.4V289.23H1123.64V293.316H1116.4V306.83C1116.4 308.108 1116.72 309.06 1117.36 309.683C1118 310.307 1118.85 310.619 1119.9 310.619Z" fill="#464646"/>
<path d="M1134.35 289.23V314.5H1128.98V289.23H1134.35ZM1131.7 279.552C1132.52 279.552 1133.23 279.772 1133.82 280.214C1134.43 280.655 1134.73 281.416 1134.73 282.496C1134.73 283.562 1134.43 284.323 1133.82 284.779C1133.23 285.22 1132.52 285.441 1131.7 285.441C1130.85 285.441 1130.12 285.22 1129.53 284.779C1128.95 284.323 1128.66 283.562 1128.66 282.496C1128.66 281.416 1128.95 280.655 1129.53 280.214C1130.12 279.772 1130.85 279.552 1131.7 279.552Z" fill="#464646"/>
<path d="M1152.22 314.957C1149.83 314.957 1147.76 314.492 1146.01 313.564C1144.26 312.636 1142.91 311.213 1141.97 309.295C1141.03 307.378 1140.56 304.943 1140.56 301.991C1140.56 298.917 1141.07 296.406 1142.11 294.458C1143.14 292.51 1144.57 291.072 1146.4 290.143C1148.24 289.215 1150.35 288.751 1152.72 288.751C1154.23 288.751 1155.59 288.903 1156.81 289.208C1158.04 289.497 1159.08 289.854 1159.94 290.28L1158.34 294.572C1157.41 294.191 1156.46 293.872 1155.48 293.613C1154.51 293.354 1153.57 293.225 1152.68 293.225C1151.2 293.225 1149.97 293.552 1148.98 294.207C1148.01 294.861 1147.27 295.835 1146.79 297.129C1146.32 298.422 1146.08 300.028 1146.08 301.945C1146.08 303.802 1146.32 305.369 1146.81 306.647C1147.3 307.911 1148.02 308.869 1148.98 309.524C1149.94 310.163 1151.12 310.482 1152.52 310.482C1153.9 310.482 1155.14 310.315 1156.24 309.98C1157.33 309.645 1158.37 309.212 1159.34 308.679V313.336C1158.38 313.884 1157.36 314.287 1156.26 314.546C1155.17 314.82 1153.82 314.957 1152.22 314.957Z" fill="#464646"/>
<path d="M1175.34 288.751C1177.6 288.751 1179.53 289.215 1181.14 290.143C1182.76 291.072 1184 292.388 1184.86 294.093C1185.73 295.797 1186.16 297.836 1186.16 300.21V303.086H1169.3C1169.36 305.537 1170.01 307.424 1171.26 308.748C1172.52 310.072 1174.29 310.734 1176.55 310.734C1178.17 310.734 1179.61 310.581 1180.89 310.277C1182.19 309.957 1183.52 309.493 1184.89 308.885V313.245C1183.62 313.838 1182.34 314.272 1181.03 314.546C1179.72 314.82 1178.15 314.957 1176.33 314.957C1173.85 314.957 1171.66 314.477 1169.77 313.518C1167.9 312.544 1166.43 311.099 1165.37 309.181C1164.32 307.264 1163.79 304.882 1163.79 302.036C1163.79 299.206 1164.27 296.801 1165.23 294.823C1166.19 292.845 1167.54 291.338 1169.27 290.303C1171.01 289.268 1173.03 288.751 1175.34 288.751ZM1175.34 292.791C1173.66 292.791 1172.29 293.339 1171.24 294.435C1170.2 295.531 1169.59 297.136 1169.41 299.251H1180.91C1180.9 297.988 1180.69 296.87 1180.28 295.896C1179.88 294.922 1179.27 294.161 1178.45 293.613C1177.64 293.065 1176.61 292.791 1175.34 292.791Z" fill="#464646"/>
<path d="M1838.5 179.75L1832.84 163.355H1832.72C1832.75 163.722 1832.78 164.223 1832.82 164.859C1832.85 165.494 1832.88 166.175 1832.91 166.9C1832.94 167.625 1832.95 168.319 1832.95 168.981V179.75H1830.02V160.119H1834.55L1839.99 175.789H1840.07L1845.69 160.119H1850.21V179.75H1847.13V168.82C1847.13 168.22 1847.14 167.571 1847.16 166.873C1847.19 166.175 1847.21 165.512 1847.24 164.885C1847.27 164.259 1847.3 163.758 1847.32 163.382H1847.21L1841.34 179.75H1838.5Z" fill="#464646"/>
<path d="M1860.88 164.604C1862.76 164.604 1864.18 165.02 1865.14 165.852C1866.1 166.685 1866.59 167.983 1866.59 169.746V179.75H1864.35L1863.74 177.642H1863.63C1863.21 178.179 1862.78 178.622 1862.33 178.971C1861.88 179.32 1861.36 179.58 1860.77 179.75C1860.19 179.929 1859.48 180.019 1858.64 180.019C1857.75 180.019 1856.96 179.857 1856.26 179.535C1855.56 179.204 1855.01 178.703 1854.61 178.031C1854.21 177.36 1854.01 176.509 1854.01 175.48C1854.01 173.949 1854.57 172.799 1855.71 172.029C1856.86 171.259 1858.59 170.834 1860.89 170.753L1863.47 170.659V169.881C1863.47 168.851 1863.23 168.117 1862.75 167.678C1862.27 167.24 1861.6 167.021 1860.73 167.021C1859.99 167.021 1859.27 167.128 1858.57 167.343C1857.87 167.558 1857.19 167.822 1856.53 168.135L1855.51 165.906C1856.24 165.521 1857.06 165.208 1857.98 164.966C1858.91 164.724 1859.88 164.604 1860.88 164.604ZM1863.46 172.647L1861.54 172.714C1859.96 172.768 1858.86 173.036 1858.22 173.52C1857.59 174.003 1857.27 174.665 1857.27 175.507C1857.27 176.241 1857.49 176.778 1857.93 177.118C1858.37 177.449 1858.94 177.615 1859.66 177.615C1860.75 177.615 1861.66 177.306 1862.37 176.688C1863.1 176.062 1863.46 175.144 1863.46 173.936V172.647Z" fill="#464646"/>
<path d="M1876.54 177.467C1876.95 177.467 1877.36 177.431 1877.76 177.36C1878.16 177.279 1878.53 177.185 1878.86 177.078V179.468C1878.51 179.62 1878.06 179.75 1877.5 179.857C1876.95 179.965 1876.37 180.019 1875.77 180.019C1874.93 180.019 1874.17 179.88 1873.5 179.602C1872.83 179.316 1872.3 178.828 1871.91 178.139C1871.51 177.449 1871.31 176.496 1871.31 175.279V167.289H1869.29V165.879L1871.46 164.765L1872.5 161.582H1874.48V164.885H1878.74V167.289H1874.48V175.238C1874.48 175.99 1874.67 176.55 1875.05 176.917C1875.42 177.284 1875.92 177.467 1876.54 177.467Z" fill="#464646"/>
<path d="M1894.84 164.885V179.75H1892.36L1891.93 177.749H1891.75C1891.44 178.26 1891.04 178.685 1890.56 179.025C1890.07 179.356 1889.54 179.602 1888.95 179.763C1888.35 179.934 1887.73 180.019 1887.08 180.019C1885.96 180.019 1885 179.831 1884.21 179.455C1883.42 179.07 1882.81 178.479 1882.39 177.682C1881.97 176.885 1881.76 175.856 1881.76 174.594V164.885H1884.93V174.003C1884.93 175.158 1885.16 176.022 1885.63 176.594C1886.1 177.167 1886.84 177.454 1887.83 177.454C1888.79 177.454 1889.55 177.257 1890.11 176.863C1890.68 176.469 1891.08 175.887 1891.31 175.117C1891.55 174.348 1891.67 173.403 1891.67 172.284V164.885H1894.84Z" fill="#464646"/>
<path d="M1906.9 164.604C1907.15 164.604 1907.42 164.617 1907.72 164.644C1908.01 164.671 1908.27 164.706 1908.48 164.751L1908.19 167.705C1908 167.652 1907.77 167.611 1907.49 167.584C1907.22 167.558 1906.98 167.544 1906.76 167.544C1906.2 167.544 1905.66 167.638 1905.15 167.826C1904.64 168.005 1904.19 168.283 1903.8 168.659C1903.4 169.026 1903.09 169.487 1902.87 170.042C1902.65 170.597 1902.53 171.241 1902.53 171.975V179.75H1899.37V164.885H1901.84L1902.27 167.504H1902.41C1902.71 166.976 1903.08 166.492 1903.51 166.054C1903.95 165.615 1904.45 165.266 1905.02 165.006C1905.59 164.738 1906.22 164.604 1906.9 164.604Z" fill="#464646"/>
<path d="M1914.39 164.885V179.75H1911.24V164.885H1914.39ZM1912.83 159.192C1913.32 159.192 1913.73 159.322 1914.08 159.582C1914.44 159.841 1914.62 160.289 1914.62 160.924C1914.62 161.551 1914.44 161.999 1914.08 162.267C1913.73 162.527 1913.32 162.656 1912.83 162.656C1912.33 162.656 1911.91 162.527 1911.56 162.267C1911.22 161.999 1911.05 161.551 1911.05 160.924C1911.05 160.289 1911.22 159.841 1911.56 159.582C1911.91 159.322 1912.33 159.192 1912.83 159.192Z" fill="#464646"/>
<path d="M1924.45 177.467C1924.86 177.467 1925.27 177.431 1925.67 177.36C1926.07 177.279 1926.44 177.185 1926.77 177.078V179.468C1926.42 179.62 1925.97 179.75 1925.42 179.857C1924.86 179.965 1924.28 180.019 1923.68 180.019C1922.84 180.019 1922.08 179.88 1921.41 179.602C1920.74 179.316 1920.21 178.828 1919.82 178.139C1919.42 177.449 1919.22 176.496 1919.22 175.279V167.289H1917.2V165.879L1919.37 164.765L1920.41 161.582H1922.39V164.885H1926.65V167.289H1922.39V175.238C1922.39 175.99 1922.58 176.55 1922.96 176.917C1923.33 177.284 1923.83 177.467 1924.45 177.467Z" fill="#464646"/>
<path d="M1927.55 164.885H1930.99L1934.04 173.372C1934.17 173.757 1934.29 174.137 1934.4 174.513C1934.51 174.88 1934.61 175.243 1934.69 175.601C1934.78 175.959 1934.85 176.317 1934.91 176.675H1934.99C1935.08 176.21 1935.2 175.69 1935.36 175.117C1935.54 174.536 1935.72 173.954 1935.93 173.372L1938.86 164.885H1942.25L1935.88 181.791C1935.51 182.758 1935.06 183.581 1934.52 184.262C1933.99 184.951 1933.36 185.47 1932.64 185.819C1931.91 186.177 1931.09 186.356 1930.16 186.356C1929.71 186.356 1929.32 186.33 1928.99 186.276C1928.66 186.231 1928.37 186.182 1928.14 186.128V183.604C1928.33 183.649 1928.57 183.689 1928.85 183.725C1929.14 183.76 1929.43 183.778 1929.74 183.778C1930.3 183.778 1930.79 183.666 1931.2 183.443C1931.61 183.219 1931.96 182.901 1932.25 182.489C1932.54 182.086 1932.77 181.625 1932.96 181.106L1933.49 179.71L1927.55 164.885Z" fill="#464646"/>
<path d="M1954.82 179.75H1951.65V158.856H1954.82V179.75Z" fill="#464646"/>
<path d="M1965.26 164.604C1966.58 164.604 1967.72 164.877 1968.67 165.423C1969.61 165.969 1970.34 166.743 1970.85 167.746C1971.36 168.748 1971.62 169.948 1971.62 171.344V173.036H1961.7C1961.73 174.477 1962.12 175.587 1962.85 176.366C1963.59 177.145 1964.63 177.534 1965.97 177.534C1966.92 177.534 1967.77 177.445 1968.52 177.266C1969.28 177.078 1970.06 176.805 1970.87 176.447V179.011C1970.12 179.361 1969.37 179.616 1968.6 179.777C1967.83 179.938 1966.91 180.019 1965.83 180.019C1964.37 180.019 1963.09 179.737 1961.98 179.173C1960.88 178.6 1960.01 177.749 1959.39 176.621C1958.77 175.493 1958.46 174.092 1958.46 172.418C1958.46 170.753 1958.74 169.339 1959.31 168.175C1959.87 167.012 1960.66 166.125 1961.68 165.517C1962.7 164.908 1963.89 164.604 1965.26 164.604ZM1965.26 166.98C1964.26 166.98 1963.46 167.302 1962.84 167.947C1962.23 168.592 1961.87 169.536 1961.76 170.78H1968.53C1968.52 170.037 1968.4 169.379 1968.16 168.806C1967.92 168.233 1967.56 167.786 1967.08 167.464C1966.61 167.141 1966 166.98 1965.26 166.98Z" fill="#464646"/>
<path d="M1978.58 179.75L1972.92 164.885H1976.27L1979.33 173.614C1979.52 174.169 1979.7 174.768 1979.86 175.413C1980.03 176.057 1980.14 176.599 1980.2 177.038H1980.31C1980.37 176.581 1980.49 176.035 1980.67 175.399C1980.85 174.755 1981.03 174.16 1981.22 173.614L1984.28 164.885H1987.61L1981.96 179.75H1978.58Z" fill="#464646"/>
<path d="M1995.79 164.604C1997.11 164.604 1998.25 164.877 1999.2 165.423C2000.15 165.969 2000.88 166.743 2001.39 167.746C2001.9 168.748 2002.15 169.948 2002.15 171.344V173.036H1992.23C1992.27 174.477 1992.65 175.587 1993.39 176.366C1994.13 177.145 1995.17 177.534 1996.5 177.534C1997.45 177.534 1998.3 177.445 1999.05 177.266C1999.81 177.078 2000.6 176.805 2001.4 176.447V179.011C2000.66 179.361 1999.9 179.616 1999.13 179.777C1998.36 179.938 1997.44 180.019 1996.37 180.019C1994.91 180.019 1993.62 179.737 1992.51 179.173C1991.41 178.6 1990.55 177.749 1989.92 176.621C1989.3 175.493 1989 174.092 1989 172.418C1989 170.753 1989.28 169.339 1989.84 168.175C1990.41 167.012 1991.2 166.125 1992.22 165.517C1993.24 164.908 1994.43 164.604 1995.79 164.604ZM1995.79 166.98C1994.8 166.98 1993.99 167.302 1993.37 167.947C1992.76 168.592 1992.41 169.536 1992.3 170.78H1999.07C1999.06 170.037 1998.93 169.379 1998.69 168.806C1998.46 168.233 1998.1 167.786 1997.62 167.464C1997.14 167.141 1996.53 166.98 1995.79 166.98Z" fill="#464646"/>
<path d="M2008.88 179.75H2005.71V158.856H2008.88V179.75Z" fill="#464646"/>
<path d="M2032.81 179.75H2019.52V177.373L2024.61 172.217C2025.59 171.214 2026.4 170.351 2027.04 169.625C2027.67 168.891 2028.14 168.198 2028.45 167.544C2028.76 166.891 2028.92 166.179 2028.92 165.409C2028.92 164.46 2028.64 163.744 2028.1 163.261C2027.55 162.768 2026.83 162.522 2025.94 162.522C2025.08 162.522 2024.3 162.692 2023.57 163.032C2022.86 163.364 2022.11 163.838 2021.34 164.456L2019.61 162.375C2020.16 161.909 2020.74 161.484 2021.36 161.099C2021.98 160.714 2022.68 160.41 2023.45 160.186C2024.22 159.953 2025.1 159.837 2026.08 159.837C2027.33 159.837 2028.4 160.06 2029.31 160.508C2030.21 160.947 2030.9 161.56 2031.39 162.348C2031.88 163.135 2032.13 164.053 2032.13 165.1C2032.13 166.157 2031.91 167.132 2031.49 168.028C2031.07 168.923 2030.47 169.809 2029.69 170.686C2028.92 171.555 2027.99 172.499 2026.92 173.52L2023.52 176.836V176.984H2032.81V179.75Z" fill="#464646"/>
<path d="M2049.25 164.604C2051.13 164.604 2052.54 165.02 2053.5 165.852C2054.47 166.685 2054.95 167.983 2054.95 169.746V179.75H2052.71L2052.11 177.642H2052C2051.58 178.179 2051.14 178.622 2050.7 178.971C2050.25 179.32 2049.73 179.58 2049.14 179.75C2048.56 179.929 2047.84 180.019 2047 180.019C2046.12 180.019 2045.32 179.857 2044.63 179.535C2043.93 179.204 2043.38 178.703 2042.97 178.031C2042.57 177.36 2042.37 176.509 2042.37 175.48C2042.37 173.949 2042.94 172.799 2044.08 172.029C2045.22 171.259 2046.95 170.834 2049.26 170.753L2051.84 170.659V169.881C2051.84 168.851 2051.6 168.117 2051.11 167.678C2050.64 167.24 2049.97 167.021 2049.1 167.021C2048.35 167.021 2047.63 167.128 2046.94 167.343C2046.24 167.558 2045.56 167.822 2044.9 168.135L2043.87 165.906C2044.6 165.521 2045.42 165.208 2046.35 164.966C2047.28 164.724 2048.24 164.604 2049.25 164.604ZM2051.82 172.647L2049.9 172.714C2048.33 172.768 2047.22 173.036 2046.59 173.52C2045.95 174.003 2045.63 174.665 2045.63 175.507C2045.63 176.241 2045.85 176.778 2046.29 177.118C2046.73 177.449 2047.31 177.615 2048.02 177.615C2049.12 177.615 2050.02 177.306 2050.74 176.688C2051.46 176.062 2051.82 175.144 2051.82 173.936V172.647Z" fill="#464646"/>
<path d="M2065.36 180.019C2063.95 180.019 2062.74 179.746 2061.71 179.199C2060.68 178.653 2059.88 177.816 2059.33 176.688C2058.77 175.561 2058.5 174.128 2058.5 172.392C2058.5 170.583 2058.8 169.106 2059.41 167.96C2060.02 166.815 2060.86 165.969 2061.93 165.423C2063.02 164.877 2064.26 164.604 2065.65 164.604C2066.54 164.604 2067.34 164.693 2068.06 164.872C2068.78 165.042 2069.4 165.253 2069.9 165.503L2068.96 168.028C2068.41 167.804 2067.85 167.616 2067.28 167.464C2066.71 167.311 2066.16 167.235 2065.63 167.235C2064.76 167.235 2064.03 167.428 2063.45 167.813C2062.88 168.198 2062.45 168.771 2062.16 169.531C2061.89 170.292 2061.75 171.237 2061.75 172.365C2061.75 173.457 2061.89 174.379 2062.18 175.131C2062.46 175.874 2062.89 176.438 2063.45 176.823C2064.02 177.199 2064.71 177.387 2065.53 177.387C2066.35 177.387 2067.08 177.288 2067.72 177.091C2068.37 176.894 2068.98 176.639 2069.55 176.326V179.065C2068.98 179.387 2068.38 179.625 2067.74 179.777C2067.09 179.938 2066.3 180.019 2065.36 180.019Z" fill="#464646"/>
<path d="M2078.57 177.467C2078.98 177.467 2079.39 177.431 2079.79 177.36C2080.2 177.279 2080.56 177.185 2080.89 177.078V179.468C2080.55 179.62 2080.09 179.75 2079.54 179.857C2078.98 179.965 2078.41 180.019 2077.81 180.019C2076.96 180.019 2076.21 179.88 2075.54 179.602C2074.87 179.316 2074.33 178.828 2073.94 178.139C2073.55 177.449 2073.35 176.496 2073.35 175.279V167.289H2071.32V165.879L2073.5 164.765L2074.53 161.582H2076.52V164.885H2080.77V167.289H2076.52V175.238C2076.52 175.99 2076.71 176.55 2077.08 176.917C2077.46 177.284 2077.95 177.467 2078.57 177.467Z" fill="#464646"/>
<path d="M2087.07 164.885V179.75H2083.92V164.885H2087.07ZM2085.51 159.192C2086 159.192 2086.41 159.322 2086.76 159.582C2087.12 159.841 2087.3 160.289 2087.3 160.924C2087.3 161.551 2087.12 161.999 2086.76 162.267C2086.41 162.527 2086 162.656 2085.51 162.656C2085.01 162.656 2084.59 162.527 2084.24 162.267C2083.9 161.999 2083.73 161.551 2083.73 160.924C2083.73 160.289 2083.9 159.841 2084.24 159.582C2084.59 159.322 2085.01 159.192 2085.51 159.192Z" fill="#464646"/>
<path d="M2094.99 179.75L2089.34 164.885H2092.68L2095.75 173.614C2095.94 174.169 2096.12 174.768 2096.28 175.413C2096.44 176.057 2096.56 176.599 2096.62 177.038H2096.73C2096.79 176.581 2096.91 176.035 2097.09 175.399C2097.27 174.755 2097.45 174.16 2097.64 173.614L2100.7 164.885H2104.03L2098.38 179.75H2094.99Z" fill="#464646"/>
<path d="M2109.44 164.885V179.75H2106.29V164.885H2109.44ZM2107.88 159.192C2108.37 159.192 2108.78 159.322 2109.13 159.582C2109.49 159.841 2109.67 160.289 2109.67 160.924C2109.67 161.551 2109.49 161.999 2109.13 162.267C2108.78 162.527 2108.37 162.656 2107.88 162.656C2107.38 162.656 2106.96 162.527 2106.61 162.267C2106.27 161.999 2106.1 161.551 2106.1 160.924C2106.1 160.289 2106.27 159.841 2106.61 159.582C2106.96 159.322 2107.38 159.192 2107.88 159.192Z" fill="#464646"/>
<path d="M2119.5 177.467C2119.91 177.467 2120.32 177.431 2120.72 177.36C2121.12 177.279 2121.49 177.185 2121.82 177.078V179.468C2121.47 179.62 2121.02 179.75 2120.47 179.857C2119.91 179.965 2119.33 180.019 2118.73 180.019C2117.89 180.019 2117.14 179.88 2116.46 179.602C2115.79 179.316 2115.26 178.828 2114.87 178.139C2114.47 177.449 2114.28 176.496 2114.28 175.279V167.289H2112.25V165.879L2114.42 164.765L2115.46 161.582H2117.45V164.885H2121.7V167.289H2117.45V175.238C2117.45 175.99 2117.63 176.55 2118.01 176.917C2118.39 177.284 2118.88 177.467 2119.5 177.467Z" fill="#464646"/>
<path d="M2122.6 164.885H2126.04L2129.09 173.372C2129.22 173.757 2129.34 174.137 2129.45 174.513C2129.57 174.88 2129.66 175.243 2129.74 175.601C2129.83 175.959 2129.91 176.317 2129.96 176.675H2130.04C2130.13 176.21 2130.26 175.69 2130.42 175.117C2130.59 174.536 2130.77 173.954 2130.98 173.372L2133.91 164.885H2137.3L2130.93 181.791C2130.56 182.758 2130.11 183.581 2129.57 184.262C2129.04 184.951 2128.42 185.47 2127.69 185.819C2126.97 186.177 2126.14 186.356 2125.21 186.356C2124.76 186.356 2124.37 186.33 2124.04 186.276C2123.71 186.231 2123.42 186.182 2123.19 186.128V183.604C2123.38 183.649 2123.62 183.689 2123.9 183.725C2124.19 183.76 2124.49 183.778 2124.79 183.778C2125.35 183.778 2125.84 183.666 2126.25 183.443C2126.67 183.219 2127.01 182.901 2127.3 182.489C2127.59 182.086 2127.82 181.625 2128.01 181.106L2128.54 179.71L2122.6 164.885Z" fill="#464646"/>
<path d="M1838.5 306.25L1832.84 289.855H1832.72C1832.75 290.222 1832.78 290.723 1832.82 291.359C1832.85 291.994 1832.88 292.675 1832.91 293.4C1832.94 294.125 1832.95 294.819 1832.95 295.481V306.25H1830.02V286.619H1834.55L1839.99 302.289H1840.07L1845.69 286.619H1850.21V306.25H1847.13V295.32C1847.13 294.72 1847.14 294.071 1847.16 293.373C1847.19 292.675 1847.21 292.012 1847.24 291.385C1847.27 290.759 1847.3 290.258 1847.32 289.882H1847.21L1841.34 306.25H1838.5Z" fill="#464646"/>
<path d="M1860.88 291.104C1862.76 291.104 1864.18 291.52 1865.14 292.352C1866.1 293.185 1866.59 294.483 1866.59 296.246V306.25H1864.35L1863.74 304.142H1863.63C1863.21 304.679 1862.78 305.122 1862.33 305.471C1861.88 305.82 1861.36 306.08 1860.77 306.25C1860.19 306.429 1859.48 306.519 1858.64 306.519C1857.75 306.519 1856.96 306.357 1856.26 306.035C1855.56 305.704 1855.01 305.203 1854.61 304.531C1854.21 303.86 1854.01 303.009 1854.01 301.98C1854.01 300.449 1854.57 299.299 1855.71 298.529C1856.86 297.759 1858.59 297.334 1860.89 297.253L1863.47 297.159V296.381C1863.47 295.351 1863.23 294.617 1862.75 294.178C1862.27 293.74 1861.6 293.521 1860.73 293.521C1859.99 293.521 1859.27 293.628 1858.57 293.843C1857.87 294.058 1857.19 294.322 1856.53 294.635L1855.51 292.406C1856.24 292.021 1857.06 291.708 1857.98 291.466C1858.91 291.224 1859.88 291.104 1860.88 291.104ZM1863.46 299.147L1861.54 299.214C1859.96 299.268 1858.86 299.536 1858.22 300.02C1857.59 300.503 1857.27 301.165 1857.27 302.007C1857.27 302.741 1857.49 303.278 1857.93 303.618C1858.37 303.949 1858.94 304.115 1859.66 304.115C1860.75 304.115 1861.66 303.806 1862.37 303.188C1863.1 302.562 1863.46 301.644 1863.46 300.436V299.147Z" fill="#464646"/>
<path d="M1876.54 303.967C1876.95 303.967 1877.36 303.931 1877.76 303.86C1878.16 303.779 1878.53 303.685 1878.86 303.578V305.968C1878.51 306.12 1878.06 306.25 1877.5 306.357C1876.95 306.465 1876.37 306.519 1875.77 306.519C1874.93 306.519 1874.17 306.38 1873.5 306.102C1872.83 305.816 1872.3 305.328 1871.91 304.639C1871.51 303.949 1871.31 302.996 1871.31 301.779V293.789H1869.29V292.379L1871.46 291.265L1872.5 288.082H1874.48V291.385H1878.74V293.789H1874.48V301.738C1874.48 302.49 1874.67 303.05 1875.05 303.417C1875.42 303.784 1875.92 303.967 1876.54 303.967Z" fill="#464646"/>
<path d="M1894.84 291.385V306.25H1892.36L1891.93 304.249H1891.75C1891.44 304.76 1891.04 305.185 1890.56 305.525C1890.07 305.856 1889.54 306.102 1888.95 306.263C1888.35 306.434 1887.73 306.519 1887.08 306.519C1885.96 306.519 1885 306.331 1884.21 305.955C1883.42 305.57 1882.81 304.979 1882.39 304.182C1881.97 303.385 1881.76 302.356 1881.76 301.094V291.385H1884.93V300.503C1884.93 301.658 1885.16 302.522 1885.63 303.094C1886.1 303.667 1886.84 303.954 1887.83 303.954C1888.79 303.954 1889.55 303.757 1890.11 303.363C1890.68 302.969 1891.08 302.387 1891.31 301.617C1891.55 300.848 1891.67 299.903 1891.67 298.784V291.385H1894.84Z" fill="#464646"/>
<path d="M1906.9 291.104C1907.15 291.104 1907.42 291.117 1907.72 291.144C1908.01 291.171 1908.27 291.206 1908.48 291.251L1908.19 294.205C1908 294.152 1907.77 294.111 1907.49 294.084C1907.22 294.058 1906.98 294.044 1906.76 294.044C1906.2 294.044 1905.66 294.138 1905.15 294.326C1904.64 294.505 1904.19 294.783 1903.8 295.159C1903.4 295.526 1903.09 295.987 1902.87 296.542C1902.65 297.097 1902.53 297.741 1902.53 298.475V306.25H1899.37V291.385H1901.84L1902.27 294.004H1902.41C1902.71 293.476 1903.08 292.992 1903.51 292.554C1903.95 292.115 1904.45 291.766 1905.02 291.506C1905.59 291.238 1906.22 291.104 1906.9 291.104Z" fill="#464646"/>
<path d="M1914.39 291.385V306.25H1911.24V291.385H1914.39ZM1912.83 285.692C1913.32 285.692 1913.73 285.822 1914.08 286.082C1914.44 286.341 1914.62 286.789 1914.62 287.424C1914.62 288.051 1914.44 288.499 1914.08 288.767C1913.73 289.027 1913.32 289.156 1912.83 289.156C1912.33 289.156 1911.91 289.027 1911.56 288.767C1911.22 288.499 1911.05 288.051 1911.05 287.424C1911.05 286.789 1911.22 286.341 1911.56 286.082C1911.91 285.822 1912.33 285.692 1912.83 285.692Z" fill="#464646"/>
<path d="M1924.45 303.967C1924.86 303.967 1925.27 303.931 1925.67 303.86C1926.07 303.779 1926.44 303.685 1926.77 303.578V305.968C1926.42 306.12 1925.97 306.25 1925.42 306.357C1924.86 306.465 1924.28 306.519 1923.68 306.519C1922.84 306.519 1922.08 306.38 1921.41 306.102C1920.74 305.816 1920.21 305.328 1919.82 304.639C1919.42 303.949 1919.22 302.996 1919.22 301.779V293.789H1917.2V292.379L1919.37 291.265L1920.41 288.082H1922.39V291.385H1926.65V293.789H1922.39V301.738C1922.39 302.49 1922.58 303.05 1922.96 303.417C1923.33 303.784 1923.83 303.967 1924.45 303.967Z" fill="#464646"/>
<path d="M1927.55 291.385H1930.99L1934.04 299.872C1934.17 300.257 1934.29 300.637 1934.4 301.013C1934.51 301.38 1934.61 301.743 1934.69 302.101C1934.78 302.459 1934.85 302.817 1934.91 303.175H1934.99C1935.08 302.71 1935.2 302.19 1935.36 301.617C1935.54 301.036 1935.72 300.454 1935.93 299.872L1938.86 291.385H1942.25L1935.88 308.291C1935.51 309.258 1935.06 310.081 1934.52 310.762C1933.99 311.451 1933.36 311.97 1932.64 312.319C1931.91 312.677 1931.09 312.856 1930.16 312.856C1929.71 312.856 1929.32 312.83 1928.99 312.776C1928.66 312.731 1928.37 312.682 1928.14 312.628V310.104C1928.33 310.149 1928.57 310.189 1928.85 310.225C1929.14 310.26 1929.43 310.278 1929.74 310.278C1930.3 310.278 1930.79 310.166 1931.2 309.943C1931.61 309.719 1931.96 309.401 1932.25 308.989C1932.54 308.586 1932.77 308.125 1932.96 307.606L1933.49 306.21L1927.55 291.385Z" fill="#464646"/>
<path d="M1954.82 306.25H1951.65V285.356H1954.82V306.25Z" fill="#464646"/>
<path d="M1965.26 291.104C1966.58 291.104 1967.72 291.377 1968.67 291.923C1969.61 292.469 1970.34 293.243 1970.85 294.246C1971.36 295.248 1971.62 296.448 1971.62 297.844V299.536H1961.7C1961.73 300.977 1962.12 302.087 1962.85 302.866C1963.59 303.645 1964.63 304.034 1965.97 304.034C1966.92 304.034 1967.77 303.945 1968.52 303.766C1969.28 303.578 1970.06 303.305 1970.87 302.947V305.511C1970.12 305.861 1969.37 306.116 1968.6 306.277C1967.83 306.438 1966.91 306.519 1965.83 306.519C1964.37 306.519 1963.09 306.237 1961.98 305.673C1960.88 305.1 1960.01 304.249 1959.39 303.121C1958.77 301.993 1958.46 300.592 1958.46 298.918C1958.46 297.253 1958.74 295.839 1959.31 294.675C1959.87 293.512 1960.66 292.625 1961.68 292.017C1962.7 291.408 1963.89 291.104 1965.26 291.104ZM1965.26 293.48C1964.26 293.48 1963.46 293.802 1962.84 294.447C1962.23 295.092 1961.87 296.036 1961.76 297.28H1968.53C1968.52 296.537 1968.4 295.879 1968.16 295.306C1967.92 294.733 1967.56 294.286 1967.08 293.964C1966.61 293.641 1966 293.48 1965.26 293.48Z" fill="#464646"/>
<path d="M1978.58 306.25L1972.92 291.385H1976.27L1979.33 300.114C1979.52 300.669 1979.7 301.268 1979.86 301.913C1980.03 302.557 1980.14 303.099 1980.2 303.538H1980.31C1980.37 303.081 1980.49 302.535 1980.67 301.899C1980.85 301.255 1981.03 300.66 1981.22 300.114L1984.28 291.385H1987.61L1981.96 306.25H1978.58Z" fill="#464646"/>
<path d="M1995.79 291.104C1997.11 291.104 1998.25 291.377 1999.2 291.923C2000.15 292.469 2000.88 293.243 2001.39 294.246C2001.9 295.248 2002.15 296.448 2002.15 297.844V299.536H1992.23C1992.27 300.977 1992.65 302.087 1993.39 302.866C1994.13 303.645 1995.17 304.034 1996.5 304.034C1997.45 304.034 1998.3 303.945 1999.05 303.766C1999.81 303.578 2000.6 303.305 2001.4 302.947V305.511C2000.66 305.861 1999.9 306.116 1999.13 306.277C1998.36 306.438 1997.44 306.519 1996.37 306.519C1994.91 306.519 1993.62 306.237 1992.51 305.673C1991.41 305.1 1990.55 304.249 1989.92 303.121C1989.3 301.993 1989 300.592 1989 298.918C1989 297.253 1989.28 295.839 1989.84 294.675C1990.41 293.512 1991.2 292.625 1992.22 292.017C1993.24 291.408 1994.43 291.104 1995.79 291.104ZM1995.79 293.48C1994.8 293.48 1993.99 293.802 1993.37 294.447C1992.76 295.092 1992.41 296.036 1992.3 297.28H1999.07C1999.06 296.537 1998.93 295.879 1998.69 295.306C1998.46 294.733 1998.1 294.286 1997.62 293.964C1997.14 293.641 1996.53 293.48 1995.79 293.48Z" fill="#464646"/>
<path d="M2008.88 306.25H2005.71V285.356H2008.88V306.25Z" fill="#464646"/>
<path d="M2032.06 291.104C2032.06 291.99 2031.88 292.76 2031.52 293.413C2031.16 294.067 2030.67 294.604 2030.04 295.024C2029.43 295.436 2028.71 295.732 2027.9 295.911V296.005C2029.46 296.202 2030.64 296.694 2031.44 297.482C2032.25 298.269 2032.65 299.312 2032.65 300.61C2032.65 301.747 2032.38 302.763 2031.83 303.658C2031.28 304.545 2030.45 305.243 2029.32 305.753C2028.19 306.263 2026.74 306.519 2024.97 306.519C2023.9 306.519 2022.91 306.434 2022 306.263C2021.1 306.093 2020.24 305.82 2019.42 305.444V302.638C2020.26 303.05 2021.14 303.368 2022.08 303.591C2023.02 303.815 2023.91 303.927 2024.75 303.927C2026.39 303.927 2027.56 303.623 2028.26 303.014C2028.96 302.396 2029.31 301.546 2029.31 300.463C2029.31 299.764 2029.12 299.191 2028.75 298.744C2028.4 298.296 2027.84 297.961 2027.08 297.737C2026.32 297.513 2025.35 297.401 2024.16 297.401H2022.43V294.863H2024.18C2025.31 294.863 2026.23 294.729 2026.92 294.46C2027.6 294.183 2028.1 293.802 2028.41 293.319C2028.72 292.836 2028.88 292.272 2028.88 291.627C2028.88 290.786 2028.6 290.132 2028.06 289.667C2027.51 289.192 2026.7 288.955 2025.63 288.955C2024.96 288.955 2024.36 289.031 2023.81 289.183C2023.28 289.336 2022.78 289.528 2022.32 289.761C2021.87 289.993 2021.43 290.244 2021.02 290.513L2019.5 288.324C2020.25 287.769 2021.13 287.299 2022.16 286.914C2023.19 286.529 2024.39 286.337 2025.76 286.337C2027.77 286.337 2029.33 286.771 2030.42 287.639C2031.51 288.499 2032.06 289.653 2032.06 291.104Z" fill="#464646"/>
<path d="M2049.25 291.104C2051.13 291.104 2052.54 291.52 2053.5 292.352C2054.47 293.185 2054.95 294.483 2054.95 296.246V306.25H2052.71L2052.11 304.142H2052C2051.58 304.679 2051.14 305.122 2050.7 305.471C2050.25 305.82 2049.73 306.08 2049.14 306.25C2048.56 306.429 2047.84 306.519 2047 306.519C2046.12 306.519 2045.32 306.357 2044.63 306.035C2043.93 305.704 2043.38 305.203 2042.97 304.531C2042.57 303.86 2042.37 303.009 2042.37 301.98C2042.37 300.449 2042.94 299.299 2044.08 298.529C2045.22 297.759 2046.95 297.334 2049.26 297.253L2051.84 297.159V296.381C2051.84 295.351 2051.6 294.617 2051.11 294.178C2050.64 293.74 2049.97 293.521 2049.1 293.521C2048.35 293.521 2047.63 293.628 2046.94 293.843C2046.24 294.058 2045.56 294.322 2044.9 294.635L2043.87 292.406C2044.6 292.021 2045.42 291.708 2046.35 291.466C2047.28 291.224 2048.24 291.104 2049.25 291.104ZM2051.82 299.147L2049.9 299.214C2048.33 299.268 2047.22 299.536 2046.59 300.02C2045.95 300.503 2045.63 301.165 2045.63 302.007C2045.63 302.741 2045.85 303.278 2046.29 303.618C2046.73 303.949 2047.31 304.115 2048.02 304.115C2049.12 304.115 2050.02 303.806 2050.74 303.188C2051.46 302.562 2051.82 301.644 2051.82 300.436V299.147Z" fill="#464646"/>
<path d="M2065.36 306.519C2063.95 306.519 2062.74 306.246 2061.71 305.699C2060.68 305.153 2059.88 304.316 2059.33 303.188C2058.77 302.061 2058.5 300.628 2058.5 298.892C2058.5 297.083 2058.8 295.606 2059.41 294.46C2060.02 293.315 2060.86 292.469 2061.93 291.923C2063.02 291.377 2064.26 291.104 2065.65 291.104C2066.54 291.104 2067.34 291.193 2068.06 291.372C2068.78 291.542 2069.4 291.753 2069.9 292.003L2068.96 294.528C2068.41 294.304 2067.85 294.116 2067.28 293.964C2066.71 293.811 2066.16 293.735 2065.63 293.735C2064.76 293.735 2064.03 293.928 2063.45 294.313C2062.88 294.698 2062.45 295.271 2062.16 296.031C2061.89 296.792 2061.75 297.737 2061.75 298.865C2061.75 299.957 2061.89 300.879 2062.18 301.631C2062.46 302.374 2062.89 302.938 2063.45 303.323C2064.02 303.699 2064.71 303.887 2065.53 303.887C2066.35 303.887 2067.08 303.788 2067.72 303.591C2068.37 303.394 2068.98 303.139 2069.55 302.826V305.565C2068.98 305.887 2068.38 306.125 2067.74 306.277C2067.09 306.438 2066.3 306.519 2065.36 306.519Z" fill="#464646"/>
<path d="M2078.57 303.967C2078.98 303.967 2079.39 303.931 2079.79 303.86C2080.2 303.779 2080.56 303.685 2080.89 303.578V305.968C2080.55 306.12 2080.09 306.25 2079.54 306.357C2078.98 306.465 2078.41 306.519 2077.81 306.519C2076.96 306.519 2076.21 306.38 2075.54 306.102C2074.87 305.816 2074.33 305.328 2073.94 304.639C2073.55 303.949 2073.35 302.996 2073.35 301.779V293.789H2071.32V292.379L2073.5 291.265L2074.53 288.082H2076.52V291.385H2080.77V293.789H2076.52V301.738C2076.52 302.49 2076.71 303.05 2077.08 303.417C2077.46 303.784 2077.95 303.967 2078.57 303.967Z" fill="#464646"/>
<path d="M2087.07 291.385V306.25H2083.92V291.385H2087.07ZM2085.51 285.692C2086 285.692 2086.41 285.822 2086.76 286.082C2087.12 286.341 2087.3 286.789 2087.3 287.424C2087.3 288.051 2087.12 288.499 2086.76 288.767C2086.41 289.027 2086 289.156 2085.51 289.156C2085.01 289.156 2084.59 289.027 2084.24 288.767C2083.9 288.499 2083.73 288.051 2083.73 287.424C2083.73 286.789 2083.9 286.341 2084.24 286.082C2084.59 285.822 2085.01 285.692 2085.51 285.692Z" fill="#464646"/>
<path d="M2094.99 306.25L2089.34 291.385H2092.68L2095.75 300.114C2095.94 300.669 2096.12 301.268 2096.28 301.913C2096.44 302.557 2096.56 303.099 2096.62 303.538H2096.73C2096.79 303.081 2096.91 302.535 2097.09 301.899C2097.27 301.255 2097.45 300.66 2097.64 300.114L2100.7 291.385H2104.03L2098.38 306.25H2094.99Z" fill="#464646"/>
<path d="M2109.44 291.385V306.25H2106.29V291.385H2109.44ZM2107.88 285.692C2108.37 285.692 2108.78 285.822 2109.13 286.082C2109.49 286.341 2109.67 286.789 2109.67 287.424C2109.67 288.051 2109.49 288.499 2109.13 288.767C2108.78 289.027 2108.37 289.156 2107.88 289.156C2107.38 289.156 2106.96 289.027 2106.61 288.767C2106.27 288.499 2106.1 288.051 2106.1 287.424C2106.1 286.789 2106.27 286.341 2106.61 286.082C2106.96 285.822 2107.38 285.692 2107.88 285.692Z" fill="#464646"/>
<path d="M2119.5 303.967C2119.91 303.967 2120.32 303.931 2120.72 303.86C2121.12 303.779 2121.49 303.685 2121.82 303.578V305.968C2121.47 306.12 2121.02 306.25 2120.47 306.357C2119.91 306.465 2119.33 306.519 2118.73 306.519C2117.89 306.519 2117.14 306.38 2116.46 306.102C2115.79 305.816 2115.26 305.328 2114.87 304.639C2114.47 303.949 2114.28 302.996 2114.28 301.779V293.789H2112.25V292.379L2114.42 291.265L2115.46 288.082H2117.45V291.385H2121.7V293.789H2117.45V301.738C2117.45 302.49 2117.63 303.05 2118.01 303.417C2118.39 303.784 2118.88 303.967 2119.5 303.967Z" fill="#464646"/>
<path d="M2122.6 291.385H2126.04L2129.09 299.872C2129.22 300.257 2129.34 300.637 2129.45 301.013C2129.57 301.38 2129.66 301.743 2129.74 302.101C2129.83 302.459 2129.91 302.817 2129.96 303.175H2130.04C2130.13 302.71 2130.26 302.19 2130.42 301.617C2130.59 301.036 2130.77 300.454 2130.98 299.872L2133.91 291.385H2137.3L2130.93 308.291C2130.56 309.258 2130.11 310.081 2129.57 310.762C2129.04 311.451 2128.42 311.97 2127.69 312.319C2126.97 312.677 2126.14 312.856 2125.21 312.856C2124.76 312.856 2124.37 312.83 2124.04 312.776C2123.71 312.731 2123.42 312.682 2123.19 312.628V310.104C2123.38 310.149 2123.62 310.189 2123.9 310.225C2124.19 310.26 2124.49 310.278 2124.79 310.278C2125.35 310.278 2125.84 310.166 2126.25 309.943C2126.67 309.719 2127.01 309.401 2127.3 308.989C2127.59 308.586 2127.82 308.125 2128.01 307.606L2128.54 306.21L2122.6 291.385Z" fill="#464646"/>
<path d="M1653.75 168.75H1711.5M1708 42.25H1763.75M1708 295.25H1763.75M1706 168.75H1763.75M1708.75 295.25V42.25M1252.25 298H1312.75M1311.75 171.5H1367.75M1312 424.5H1367.75M1312.75 424.5V171.5M633.5 545.5H689.5M687.5 298H749M688.5 545.5V298M1 479.5H633.5V608.75H1V479.5ZM1763.75 1H2201V89H1763.75V1ZM1367.75 122H1653.75V221H1367.75V122ZM1367.75 372.25H1653.75V471.25H1367.75V372.25ZM749 240.25H1252.25V355.75H749V240.25ZM1763.75 127.5H2201V215.5H1763.75V127.5ZM1763.75 254H2201V342H1763.75V254Z" stroke="#71B8B8" stroke-width="2"/>
</svg>
