<svg width="990" height="517" viewBox="0 0 990 517" fill="none" xmlns="http://www.w3.org/2000/svg">
<g clip-path="url(#clip0_2328_1329)">
<path d="M235.302 46.9072C235.302 46.2542 235.495 45.7894 235.883 45.5127C236.27 45.2249 236.646 45.0811 237.012 45.0811H238.987C239.983 45.0811 240.742 45.6234 241.262 46.708C241.782 47.7926 242.95 48.335 244.765 48.335L250.575 48.4512C252.523 48.4512 253.497 47.8148 253.497 46.542C253.497 45.5791 252.307 44.821 249.928 44.2676C248.865 44.013 247.692 43.764 246.408 43.5205C245.124 43.266 243.846 42.9505 242.573 42.5742C241.312 42.1979 240.149 41.7552 239.087 41.2461C238.024 40.737 237.161 40.0397 236.497 39.1543C235.844 38.2578 235.518 37.2064 235.518 36C235.518 33.7754 236.309 32.0654 237.892 30.8701C239.474 29.6637 242.197 29.0605 246.06 29.0605L250.276 29.1602C252.545 29.1602 254.587 29.7467 256.402 30.9199C258.229 32.082 259.142 33.5374 259.142 35.2861C259.142 35.9391 258.948 36.4095 258.561 36.6973C258.173 36.985 257.802 37.1289 257.448 37.1289H255.473C254.477 37.1289 253.718 36.5866 253.198 35.502C252.678 34.4062 251.51 33.8584 249.695 33.8584L244.698 33.7588C242.75 33.7588 241.776 34.3952 241.776 35.668C241.776 36.3652 242.391 36.9352 243.619 37.3779C244.859 37.8206 246.353 38.2135 248.102 38.5566C249.861 38.8887 251.627 39.2926 253.397 39.7686C255.168 40.2445 256.668 41.0303 257.896 42.126C259.136 43.2106 259.756 44.5664 259.756 46.1934C259.756 48.418 258.959 50.1335 257.365 51.3398C255.783 52.5352 253.065 53.1328 249.214 53.1328L244.184 53.0332C241.915 53.0332 239.867 52.4521 238.041 51.29C236.215 50.1169 235.302 48.6559 235.302 46.9072ZM261.2 51.4727L265.367 35.668C266.496 31.3626 270.171 29.2044 276.391 29.1934H285.339C285.748 29.1934 286.086 29.3483 286.352 29.6582C286.628 29.9681 286.767 30.3278 286.767 30.7373V51.4727C286.767 51.9043 286.612 52.2695 286.302 52.5684C285.992 52.8561 285.621 53 285.189 53H282.068C281.615 53 281.238 52.8561 280.939 52.5684C280.652 52.2695 280.508 51.8932 280.508 51.4395V47.2559H268.704L267.592 51.4395C267.481 51.8932 267.232 52.2695 266.845 52.5684C266.457 52.8561 266.048 53 265.616 53H262.346C261.914 53 261.604 52.8783 261.416 52.6348C261.228 52.3802 261.134 52.1589 261.134 51.9707C261.145 51.7826 261.167 51.6165 261.2 51.4727ZM269.933 42.5576H280.508V33.8916H275.776C274.714 33.8916 273.784 34.196 272.987 34.8047C272.201 35.4023 271.67 36.2103 271.394 37.2285L269.933 42.5576ZM291.515 51.4062V30.8037C291.515 30.3499 291.664 29.9681 291.963 29.6582C292.262 29.3483 292.627 29.1934 293.059 29.1934H299.815C300.247 29.1934 300.657 29.3483 301.044 29.6582C301.431 29.9681 301.691 30.3389 301.824 30.7705L306.722 44.9482L311.619 30.7705C311.752 30.3389 312.012 29.9681 312.399 29.6582C312.787 29.3483 313.196 29.1934 313.628 29.1934H320.385C320.816 29.1934 321.176 29.3483 321.464 29.6582C321.763 29.9681 321.912 30.3499 321.912 30.8037V51.4062C321.912 51.86 321.757 52.2419 321.447 52.5518C321.148 52.8506 320.783 53 320.352 53H317.363C316.932 53 316.561 52.8506 316.251 52.5518C315.952 52.2419 315.803 51.86 315.803 51.4062V35.1865L309.942 51.5059C309.787 51.9154 309.516 52.2695 309.129 52.5684C308.742 52.8561 308.332 53 307.9 53H305.526C305.095 53 304.685 52.8561 304.298 52.5684C303.922 52.2695 303.65 51.9154 303.484 51.5059L297.641 35.1865V51.4062C297.641 51.86 297.486 52.2419 297.176 52.5518C296.877 52.8506 296.512 53 296.08 53H293.092C292.66 53 292.289 52.8506 291.979 52.5518C291.67 52.2419 291.515 51.86 291.515 51.4062ZM326.677 51.4062V30.8037C326.677 30.3499 326.826 29.9681 327.125 29.6582C327.424 29.3483 327.789 29.1934 328.221 29.1934H334.978C335.409 29.1934 335.819 29.3483 336.206 29.6582C336.593 29.9681 336.854 30.3389 336.986 30.7705L341.884 44.9482L346.781 30.7705C346.914 30.3389 347.174 29.9681 347.562 29.6582C347.949 29.3483 348.358 29.1934 348.79 29.1934H355.547C355.979 29.1934 356.338 29.3483 356.626 29.6582C356.925 29.9681 357.074 30.3499 357.074 30.8037V51.4062C357.074 51.86 356.919 52.2419 356.609 52.5518C356.311 52.8506 355.945 53 355.514 53H352.525C352.094 53 351.723 52.8506 351.413 52.5518C351.114 52.2419 350.965 51.86 350.965 51.4062V35.1865L345.104 51.5059C344.95 51.9154 344.678 52.2695 344.291 52.5684C343.904 52.8561 343.494 53 343.062 53H340.688C340.257 53 339.847 52.8561 339.46 52.5684C339.084 52.2695 338.812 51.9154 338.646 51.5059L332.803 35.1865V51.4062C332.803 51.86 332.648 52.2419 332.338 52.5518C332.039 52.8506 331.674 53 331.242 53H328.254C327.822 53 327.451 52.8506 327.142 52.5518C326.832 52.2419 326.677 51.86 326.677 51.4062ZM373.427 43.5869V30.7705C373.427 30.3389 373.576 29.9681 373.875 29.6582C374.185 29.3483 374.567 29.1934 375.021 29.1934H378.125C378.546 29.1934 378.911 29.3483 379.221 29.6582C379.531 29.9681 379.686 30.3389 379.686 30.7705V43.6201C379.686 45.2471 380.04 46.459 380.748 47.2559C381.467 48.0527 382.574 48.4512 384.068 48.4512H386.725C388.219 48.4512 389.32 48.0527 390.028 47.2559C390.748 46.459 391.107 45.2471 391.107 43.6201V30.7705C391.107 30.3389 391.257 29.9681 391.556 29.6582C391.866 29.3483 392.236 29.1934 392.668 29.1934H395.756C396.21 29.1934 396.591 29.3483 396.901 29.6582C397.211 29.9681 397.366 30.3389 397.366 30.7705V43.5869C397.366 46.6195 396.475 48.9714 394.693 50.6426C392.911 52.3027 390.311 53.1328 386.891 53.1328H383.902C380.471 53.1328 377.865 52.3027 376.083 50.6426C374.312 48.9714 373.427 46.6195 373.427 43.5869ZM400.421 46.9072C400.421 46.2542 400.615 45.7894 401.002 45.5127C401.389 45.2249 401.766 45.0811 402.131 45.0811H404.106C405.103 45.0811 405.861 45.6234 406.381 46.708C406.901 47.7926 408.069 48.335 409.884 48.335L415.694 48.4512C417.642 48.4512 418.616 47.8148 418.616 46.542C418.616 45.5791 417.426 44.821 415.047 44.2676C413.984 44.013 412.811 43.764 411.527 43.5205C410.243 43.266 408.965 42.9505 407.692 42.5742C406.431 42.1979 405.269 41.7552 404.206 41.2461C403.144 40.737 402.28 40.0397 401.616 39.1543C400.963 38.2578 400.637 37.2064 400.637 36C400.637 33.7754 401.428 32.0654 403.011 30.8701C404.593 29.6637 407.316 29.0605 411.179 29.0605L415.396 29.1602C417.664 29.1602 419.706 29.7467 421.521 30.9199C423.348 32.082 424.261 33.5374 424.261 35.2861C424.261 35.9391 424.067 36.4095 423.68 36.6973C423.292 36.985 422.922 37.1289 422.567 37.1289H420.592C419.596 37.1289 418.838 36.5866 418.317 35.502C417.797 34.4062 416.63 33.8584 414.814 33.8584L409.817 33.7588C407.869 33.7588 406.896 34.3952 406.896 35.668C406.896 36.3652 407.51 36.9352 408.738 37.3779C409.978 37.8206 411.472 38.2135 413.221 38.5566C414.98 38.8887 416.746 39.2926 418.517 39.7686C420.287 40.2445 421.787 41.0303 423.016 42.126C424.255 43.2106 424.875 44.5664 424.875 46.1934C424.875 48.418 424.078 50.1335 422.484 51.3398C420.902 52.5352 418.185 53.1328 414.333 53.1328L409.303 53.0332C407.034 53.0332 404.986 52.4521 403.16 51.29C401.334 50.1169 400.421 48.6559 400.421 46.9072ZM428.278 51.4062V30.7373C428.278 30.3057 428.433 29.9404 428.743 29.6416C429.053 29.3428 429.424 29.1934 429.855 29.1934H448.997C449.429 29.1934 449.794 29.3483 450.093 29.6582C450.403 29.9681 450.558 30.3389 450.558 30.7705V32.3311C450.558 32.7627 450.403 33.1335 450.093 33.4434C449.794 33.7422 449.429 33.8916 448.997 33.8916H434.537V38.7227H446.988C447.42 38.7227 447.785 38.8776 448.084 39.1875C448.394 39.4863 448.549 39.8516 448.549 40.2832V41.8438C448.549 42.2754 448.394 42.6462 448.084 42.9561C447.785 43.2549 447.42 43.4043 446.988 43.4043H434.537V48.3018H448.964C449.384 48.3018 449.744 48.4512 450.043 48.75C450.342 49.0488 450.491 49.4141 450.491 49.8457V51.4395C450.491 51.8711 450.336 52.2419 450.026 52.5518C449.716 52.8506 449.346 53 448.914 53H429.855C429.424 53 429.053 52.8506 428.743 52.5518C428.433 52.2419 428.278 51.86 428.278 51.4062ZM478.332 52.2861C478.332 52.762 478.05 53 477.485 53H473.501C473.08 53 472.616 52.8506 472.106 52.5518C471.608 52.2419 471.227 51.8711 470.961 51.4395L468.139 47.0234C466.977 45.2083 465.571 44.3008 463.922 44.3008H459.871V51.4395C459.871 51.8711 459.716 52.2419 459.406 52.5518C459.107 52.8506 458.742 53 458.311 53H455.189C454.758 53 454.387 52.8506 454.077 52.5518C453.767 52.2419 453.612 51.8711 453.612 51.4395V30.7705C453.612 30.3389 453.762 29.9681 454.061 29.6582C454.359 29.3483 454.725 29.1934 455.156 29.1934H468.853C471.387 29.1934 473.462 29.874 475.078 31.2354C476.705 32.5967 477.519 34.4339 477.519 36.7471C477.519 39.9678 475.432 41.9876 471.26 42.8066C471.924 43.0501 472.538 43.4707 473.103 44.0684C473.667 44.6549 474.314 45.5127 475.045 46.6416L478.066 51.4395C478.243 51.7493 478.332 52.0316 478.332 52.2861ZM459.871 39.6025H466.943C468.083 39.6025 469.085 39.3757 469.948 38.9219C470.823 38.4681 471.26 37.7432 471.26 36.7471C471.26 35.751 470.823 35.026 469.948 34.5723C469.085 34.1185 468.083 33.8916 466.943 33.8916H459.871V39.6025ZM493.024 51.4727V30.8037C493.024 30.3499 493.179 29.9681 493.489 29.6582C493.799 29.3483 494.17 29.1934 494.602 29.1934H503.882C508.685 29.1934 512.177 30.1562 514.357 32.082C516.549 33.9967 517.645 37.0072 517.645 41.1133C517.645 45.2083 516.549 48.2132 514.357 50.1279C512.177 52.0426 508.685 53 503.882 53H494.602C494.17 53 493.799 52.8561 493.489 52.5684C493.179 52.2695 493.024 51.9043 493.024 51.4727ZM499.283 48.3018H503.699C506.676 48.3018 508.702 47.7594 509.775 46.6748C510.849 45.5902 511.386 43.7363 511.386 41.1133C511.386 38.4792 510.849 36.6198 509.775 35.5352C508.702 34.4395 506.676 33.8916 503.699 33.8916H499.283V48.3018ZM519.089 51.4727L523.256 35.668C524.385 31.3626 528.059 29.2044 534.279 29.1934H543.228C543.637 29.1934 543.975 29.3483 544.24 29.6582C544.517 29.9681 544.655 30.3278 544.655 30.7373V51.4727C544.655 51.9043 544.5 52.2695 544.19 52.5684C543.881 52.8561 543.51 53 543.078 53H539.957C539.503 53 539.127 52.8561 538.828 52.5684C538.54 52.2695 538.396 51.8932 538.396 51.4395V47.2559H526.593L525.48 51.4395C525.37 51.8932 525.121 52.2695 524.733 52.5684C524.346 52.8561 523.937 53 523.505 53H520.234C519.803 53 519.493 52.8783 519.305 52.6348C519.117 52.3802 519.022 52.1589 519.022 51.9707C519.034 51.7826 519.056 51.6165 519.089 51.4727ZM527.821 42.5576H538.396V33.8916H533.665C532.603 33.8916 531.673 34.196 530.876 34.8047C530.09 35.4023 529.559 36.2103 529.282 37.2285L527.821 42.5576ZM547.361 29.9902C547.361 29.459 547.649 29.1934 548.225 29.1934H551.379C552.63 29.1934 553.592 29.7191 554.268 30.7705L559.646 39.0547L565.009 30.7705C565.695 29.7191 566.658 29.1934 567.897 29.1934H571.068C571.633 29.1934 571.915 29.459 571.915 29.9902C571.915 30.2337 571.826 30.4938 571.649 30.7705L562.768 44.5V51.4727C562.768 51.9043 562.613 52.2695 562.303 52.5684C562.004 52.8561 561.639 53 561.207 53H558.086C557.654 53 557.284 52.8561 556.974 52.5684C556.664 52.2695 556.509 51.9043 556.509 51.4727V44.5L547.644 30.7705C547.455 30.4938 547.361 30.2337 547.361 29.9902ZM586.558 51.4727V30.7705C586.558 30.3389 586.713 29.9681 587.022 29.6582C587.332 29.3483 587.703 29.1934 588.135 29.1934H591.223C591.676 29.1934 592.053 29.3483 592.352 29.6582C592.661 29.9681 592.816 30.3389 592.816 30.7705V51.4395C592.816 51.8711 592.656 52.2419 592.335 52.5518C592.025 52.8506 591.654 53 591.223 53H588.135C587.703 53 587.332 52.8561 587.022 52.5684C586.713 52.2695 586.558 51.9043 586.558 51.4727ZM596.22 46.9072C596.22 46.2542 596.413 45.7894 596.801 45.5127C597.188 45.2249 597.564 45.0811 597.93 45.0811H599.905C600.901 45.0811 601.66 45.6234 602.18 46.708C602.7 47.7926 603.868 48.335 605.683 48.335L611.493 48.4512C613.441 48.4512 614.415 47.8148 614.415 46.542C614.415 45.5791 613.225 44.821 610.846 44.2676C609.783 44.013 608.61 43.764 607.326 43.5205C606.042 43.266 604.764 42.9505 603.491 42.5742C602.229 42.1979 601.067 41.7552 600.005 41.2461C598.942 40.737 598.079 40.0397 597.415 39.1543C596.762 38.2578 596.436 37.2064 596.436 36C596.436 33.7754 597.227 32.0654 598.81 30.8701C600.392 29.6637 603.115 29.0605 606.978 29.0605L611.194 29.1602C613.463 29.1602 615.505 29.7467 617.32 30.9199C619.146 32.082 620.06 33.5374 620.06 35.2861C620.06 35.9391 619.866 36.4095 619.479 36.6973C619.091 36.985 618.72 37.1289 618.366 37.1289H616.391C615.395 37.1289 614.636 36.5866 614.116 35.502C613.596 34.4062 612.428 33.8584 610.613 33.8584L605.616 33.7588C603.668 33.7588 602.694 34.3952 602.694 35.668C602.694 36.3652 603.309 36.9352 604.537 37.3779C605.777 37.8206 607.271 38.2135 609.02 38.5566C610.779 38.8887 612.545 39.2926 614.315 39.7686C616.086 40.2445 617.586 41.0303 618.814 42.126C620.054 43.2106 620.674 44.5664 620.674 46.1934C620.674 48.418 619.877 50.1335 618.283 51.3398C616.701 52.5352 613.983 53.1328 610.132 53.1328L605.102 53.0332C602.833 53.0332 600.785 52.4521 598.959 51.29C597.133 50.1169 596.22 48.6559 596.22 46.9072ZM635.997 30.7705C635.997 30.3389 636.152 29.9681 636.462 29.6582C636.772 29.3483 637.143 29.1934 637.574 29.1934H651.071C654.381 29.1934 656.821 30.1452 658.393 32.0488C659.267 33.1003 659.704 34.445 659.704 36.083C659.704 37.71 658.957 39.1322 657.463 40.3496C659.588 41.4896 660.65 43.2604 660.65 45.6621C660.65 48.0638 659.798 49.89 658.094 51.1406C656.4 52.3802 654.32 53 651.852 53H637.574C637.143 53 636.772 52.8506 636.462 52.5518C636.152 52.2419 635.997 51.8711 635.997 51.4395V30.7705ZM642.256 48.5176H651.752C652.604 48.5176 653.257 48.263 653.711 47.7539C654.165 47.2448 654.392 46.5475 654.392 45.6621C654.392 44.7767 654.165 44.0794 653.711 43.5703C653.257 43.0612 652.604 42.8066 651.752 42.8066H642.256V48.5176ZM642.256 38.4404H651.138C651.835 38.4404 652.394 38.2357 652.814 37.8262C653.235 37.4056 653.445 36.8245 653.445 36.083C653.445 35.3304 653.235 34.7438 652.814 34.3232C652.394 33.9027 651.835 33.6924 651.138 33.6924H642.256V38.4404ZM662.095 51.4727L666.262 35.668C667.391 31.3626 671.065 29.2044 677.285 29.1934H686.233C686.643 29.1934 686.98 29.3483 687.246 29.6582C687.523 29.9681 687.661 30.3278 687.661 30.7373V51.4727C687.661 51.9043 687.506 52.2695 687.196 52.5684C686.886 52.8561 686.516 53 686.084 53H682.963C682.509 53 682.133 52.8561 681.834 52.5684C681.546 52.2695 681.402 51.8932 681.402 51.4395V47.2559H669.599L668.486 51.4395C668.376 51.8932 668.127 52.2695 667.739 52.5684C667.352 52.8561 666.942 53 666.511 53H663.24C662.809 53 662.499 52.8783 662.311 52.6348C662.122 52.3802 662.028 52.1589 662.028 51.9707C662.039 51.7826 662.062 51.6165 662.095 51.4727ZM670.827 42.5576H681.402V33.8916H676.671C675.608 33.8916 674.679 34.196 673.882 34.8047C673.096 35.4023 672.565 36.2103 672.288 37.2285L670.827 42.5576ZM694.119 50.1943C692.072 48.2354 691.048 45.2083 691.048 41.1133C691.048 37.0072 692.072 33.9746 694.119 32.0156C696.178 30.0456 699.26 29.0605 703.366 29.0605H707.068C709.581 29.0605 711.8 29.7135 713.726 31.0195C715.662 32.3255 716.631 34.113 716.631 36.3818C716.631 37.0348 716.437 37.5052 716.05 37.793C715.662 38.0697 715.286 38.208 714.921 38.208H712.945C711.927 38.208 711.136 37.5993 710.571 36.3818C709.752 34.6331 708.391 33.7588 706.487 33.7588H703.532C701.108 33.7588 699.465 34.279 698.602 35.3193C697.738 36.3597 697.307 38.2855 697.307 41.0967C697.307 43.9079 697.738 45.8392 698.602 46.8906C699.465 47.931 701.108 48.4512 703.532 48.4512H706.836C708.74 48.4512 710.095 47.5768 710.903 45.8281C711.468 44.5996 712.265 43.9854 713.294 43.9854H715.27C715.79 43.9854 716.199 44.179 716.498 44.5664C716.808 44.9538 716.963 45.3743 716.963 45.8281C716.963 48.097 716 49.8844 714.074 51.1904C712.148 52.4854 709.929 53.1328 707.417 53.1328H703.366C699.26 53.1328 696.178 52.1533 694.119 50.1943ZM744.837 52.2695C744.837 52.7565 744.549 53 743.974 53H740.172C739.74 53 739.275 52.8506 738.777 52.5518C738.279 52.2419 737.892 51.8711 737.615 51.4395L734.693 46.8076C733.996 45.6787 733.293 44.832 732.585 44.2676C731.877 43.6921 731.024 43.4043 730.028 43.4043H726.459V51.4727C726.459 51.9043 726.304 52.2695 725.994 52.5684C725.695 52.8561 725.33 53 724.898 53H721.777C721.346 53 720.975 52.8451 720.665 52.5352C720.355 52.2142 720.2 51.8379 720.2 51.4062V30.7705C720.2 30.3389 720.355 29.9626 720.665 29.6416C720.975 29.3206 721.346 29.1602 721.777 29.1602H724.898C725.33 29.1602 725.695 29.3206 725.994 29.6416C726.304 29.9626 726.459 30.3389 726.459 30.7705V38.7227H730.028C731.002 38.7227 731.854 38.457 732.585 37.9258C733.326 37.3945 734.029 36.5368 734.693 35.3525L737.267 30.7705C737.853 29.708 738.65 29.1712 739.657 29.1602H743.492C744.023 29.1602 744.289 29.3926 744.289 29.8574C744.289 30.112 744.195 30.4163 744.007 30.7705L740.404 37.2949C739.884 38.2467 739.298 39.0326 738.645 39.6523C738.003 40.2721 737.161 40.7093 736.121 40.9639C736.852 41.1188 737.599 41.5781 738.362 42.3418C739.137 43.1055 739.818 43.9355 740.404 44.832L744.555 51.4395C744.743 51.7604 744.837 52.0371 744.837 52.2695ZM746.929 30.7705C746.907 30.3389 747.05 29.9681 747.36 29.6582C747.681 29.3483 748.058 29.1934 748.489 29.1934H752.059C752.49 29.1934 752.861 29.3483 753.171 29.6582C753.492 29.9681 753.641 30.3389 753.619 30.7705L753.154 44.4004C753.132 44.832 752.972 45.1973 752.673 45.4961C752.374 45.7839 752.014 45.9277 751.594 45.9277H748.971C748.539 45.9277 748.174 45.7839 747.875 45.4961C747.587 45.1973 747.432 44.832 747.41 44.4004L746.929 30.7705ZM751.312 47.6211C752.806 47.6211 753.553 48.3737 753.553 49.8789V50.9248C753.553 51.6221 753.359 52.1699 752.972 52.5684C752.595 52.9668 752.042 53.166 751.312 53.166H749.27C748.539 53.166 747.98 52.9668 747.593 52.5684C747.216 52.1699 747.028 51.6221 747.028 50.9248V49.8789C747.028 49.1484 747.222 48.5895 747.609 48.2021C747.997 47.8148 748.55 47.6211 749.27 47.6211H751.312Z" fill="#2F2E41"/>
<path d="M949.726 422.02L951.726 421.98C950.952 399.743 948.579 377.59 944.626 355.693C935.978 308.812 921.597 278.023 901.883 264.182L900.734 265.818C946.786 298.152 949.702 420.784 949.726 422.02Z" fill="#2F2E41"/>
<path d="M924.726 421.541L926.726 421.502C926.683 419.287 925.433 367.088 904.883 352.66L903.734 354.297C923.455 368.143 924.716 421.009 924.726 421.541Z" fill="#2F2E41"/>
<path d="M889.359 266C894.882 266 899.359 261.523 899.359 256C899.359 250.477 894.882 246 889.359 246C883.837 246 879.359 250.477 879.359 256C879.359 261.523 883.837 266 889.359 266Z" fill="#71B8B8"/>
<path d="M894.309 352C899.831 352 904.309 347.523 904.309 342C904.309 336.477 899.831 332 894.309 332C888.786 332 884.309 336.477 884.309 342C884.309 347.523 888.786 352 894.309 352Z" fill="#71B8B8"/>
<path d="M929.386 271.995C927.507 283.999 932.405 294.735 932.405 294.735C932.405 294.735 940.351 286.009 942.23 274.005C944.109 262.001 939.211 251.265 939.211 251.265C939.211 251.265 931.266 259.99 929.386 271.995Z" fill="#2F2E41"/>
<path d="M896.701 301.148C908.194 305.09 919.62 302.137 919.62 302.137C919.62 302.137 912.412 292.793 900.919 288.851C889.426 284.909 878 287.862 878 287.862C878 287.862 885.208 297.206 896.701 301.148Z" fill="#2F2E41"/>
<path d="M896.33 377.309C901.532 378.943 907.072 379.182 912.395 378.003C909.015 373.7 904.463 370.466 899.287 368.69C894.111 366.915 888.532 366.674 883.223 367.997C886.701 372.195 891.221 375.406 896.33 377.309Z" fill="#2F2E41"/>
<path d="M40.001 422.02L38.001 421.98C38.7745 399.743 41.1472 377.59 45.1006 355.693C53.749 308.812 68.1299 278.023 87.8438 264.182L88.9922 265.818C42.9404 298.152 40.0244 420.784 40.001 422.02Z" fill="#2F2E41"/>
<path d="M65.001 421.541L63.001 421.502C63.044 419.287 64.294 367.088 84.8438 352.66L85.9922 354.297C66.2715 368.143 65.0107 421.009 65.001 421.541Z" fill="#2F2E41"/>
<path d="M100.367 266C94.8443 266 90.3672 261.523 90.3672 256C90.3672 250.477 94.8443 246 100.367 246C105.89 246 110.367 250.477 110.367 256C110.367 261.523 105.89 266 100.367 266Z" fill="#71B8B8"/>
<path d="M95.418 352C89.8951 352 85.418 347.523 85.418 342C85.418 336.477 89.8951 332 95.418 332C100.941 332 105.418 336.477 105.418 342C105.418 347.523 100.941 352 95.418 352Z" fill="#71B8B8"/>
<path d="M60.3401 271.995C62.2195 283.999 57.3212 294.735 57.3212 294.735C57.3212 294.735 49.3759 286.009 47.4966 274.005C45.6172 262.001 50.5155 251.265 50.5155 251.265C50.5155 251.265 58.4608 259.99 60.3401 271.995Z" fill="#2F2E41"/>
<path d="M93.0256 301.148C81.5326 305.09 70.1069 302.137 70.1069 302.137C70.1069 302.137 77.3148 292.793 88.8077 288.851C100.301 284.909 111.727 287.862 111.727 287.862C111.727 287.862 104.519 297.206 93.0256 301.148Z" fill="#2F2E41"/>
<path d="M93.3961 377.309C88.1945 378.943 82.655 379.182 77.3319 378.003C80.7118 373.7 85.2639 370.466 90.4397 368.69C95.6155 366.915 101.194 366.674 106.504 367.997C103.025 372.195 98.5054 375.406 93.3961 377.309Z" fill="#2F2E41"/>
<rect y="419" width="990" height="98" fill="#71B8B8"/>
<rect x="1" y="1" width="988" height="515" stroke="#71B8B8" stroke-width="2"/>
<path d="M196.927 115.853C204.066 115.853 209.853 110.066 209.853 102.927C209.853 95.7874 204.066 90 196.927 90C189.787 90 184 95.7874 184 102.927C184 110.066 189.787 115.853 196.927 115.853Z" fill="#F0F0F0"/>
<path d="M794.927 181.853C802.066 181.853 807.853 176.066 807.853 168.927C807.853 161.787 802.066 156 794.927 156C787.787 156 782 161.787 782 168.927C782 176.066 787.787 181.853 794.927 181.853Z" fill="#F0F0F0"/>
<path d="M459.874 134.954C465.014 134.954 469.181 130.787 469.181 125.647C469.181 120.507 465.014 116.34 459.874 116.34C454.733 116.34 450.566 120.507 450.566 125.647C450.566 130.787 454.733 134.954 459.874 134.954Z" fill="#F0F0F0"/>
<path d="M908.307 115.614C913.447 115.614 917.614 111.447 917.614 106.307C917.614 101.167 913.447 97 908.307 97C903.167 97 899 101.167 899 106.307C899 111.447 903.167 115.614 908.307 115.614Z" fill="#F0F0F0"/>
<path d="M129.307 187.614C134.447 187.614 138.614 183.447 138.614 178.307C138.614 173.167 134.447 169 129.307 169C124.167 169 120 173.167 120 178.307C120 183.447 124.167 187.614 129.307 187.614Z" fill="#F0F0F0"/>
<path d="M305.342 234.196L304.758 215.792C304.749 215.493 304.866 215.203 305.081 214.994C305.295 214.786 305.589 214.676 305.888 214.694L320.492 215.57C320.787 215.588 321.064 215.729 321.251 215.957C321.439 216.185 321.524 216.484 321.484 216.777L319.014 235.069C318.939 235.622 318.444 236.027 317.887 235.99L306.337 235.226C306.22 235.218 306.108 235.192 306.005 235.15C305.623 234.996 305.355 234.629 305.342 234.196Z" fill="#2F2E41"/>
<path d="M306.488 232.398L306 215.981C305.993 215.715 306.091 215.455 306.27 215.269C306.449 215.083 306.695 214.986 306.945 215.002L319.162 215.783C319.408 215.799 319.64 215.925 319.797 216.128C319.954 216.332 320.025 216.598 319.992 216.859L317.925 233.176C317.863 233.67 317.449 234.031 316.983 233.998L307.321 233.317C307.223 233.31 307.13 233.286 307.043 233.249C306.724 233.111 306.5 232.784 306.488 232.398Z" fill="white"/>
<path d="M304.775 214.07C304.98 214.049 305.253 214.022 305.582 213.995C305.494 213.831 305.458 213.638 305.496 213.439L305.756 212.061C305.824 211.703 306.112 211.429 306.473 211.38C308.624 211.093 316.02 210.313 320.677 212.426C320.968 212.558 321.156 212.848 321.165 213.168L321.207 214.639C321.213 214.82 321.16 214.989 321.067 215.129C321.454 215.233 321.84 215.343 322.223 215.463C322.463 215.538 322.635 215.75 322.664 216L322.736 216.626C322.782 217.024 322.456 217.365 322.057 217.338L304.597 216.159C304.2 216.132 303.923 215.753 304.019 215.367L304.22 214.553C304.285 214.291 304.507 214.099 304.775 214.07Z" fill="#3F3D56"/>
<path d="M263.568 398.364H272.361L276.544 364.449L263.566 364.45L263.568 398.364Z" fill="#9F616A"/>
<path d="M261.324 395.494L278.64 395.493H278.641C281.567 395.493 284.374 396.656 286.444 398.725C288.513 400.795 289.676 403.601 289.676 406.528V406.887L261.325 406.888L261.324 395.494Z" fill="#2F2E41"/>
<path d="M258.039 277.229C258.039 277.229 254.228 281.537 260.538 298.328L259.427 390.398L279.875 389.999L284.37 345.088L292.553 279.55L258.039 277.229Z" fill="#2F2E41"/>
<path d="M299.565 289.958L299.341 289.924C273.182 285.935 253.442 282.11 253.245 282.072L253 282.024L259.857 265.345C259.803 263.602 258.319 214.661 261.16 200.6C263.911 186.987 276.878 184.757 278.355 184.547L279.839 179.631L298.583 189.385L301.853 200.636L302.517 231.473L299.565 289.958Z" fill="#3F3D56"/>
<path d="M310.853 226.49C310.009 226.49 309.174 226.665 308.4 227.003C307.627 227.341 306.932 227.836 306.359 228.456H274.853L263.312 230.912L265.207 245.526L306.26 236.697C306.94 237.465 307.801 238.05 308.765 238.399C309.729 238.748 310.765 238.851 311.779 238.696C312.792 238.542 313.751 238.137 314.568 237.517C315.384 236.897 316.032 236.082 316.453 235.147C316.874 234.212 317.053 233.186 316.976 232.164C316.898 231.142 316.566 230.155 316.009 229.294C315.452 228.433 314.689 227.726 313.788 227.236C312.887 226.746 311.878 226.49 310.853 226.49Z" fill="#9F616A"/>
<path d="M311.129 174.107C315.152 166.749 312.448 157.523 305.089 153.501C297.731 149.478 288.505 152.182 284.482 159.541C280.46 166.899 283.164 176.125 290.523 180.148C297.881 184.17 307.107 181.466 311.129 174.107Z" fill="#9F616A"/>
<path d="M283.524 154.685L282.788 153.203L286.492 151.363C286.492 151.363 290.578 144.715 297.972 146.583C305.366 148.451 308.692 149.57 308.692 149.57L312.387 151.429L310.533 153.274L313.859 154.392L311.637 155.496L314.223 156.982L312.831 164.601C312.831 164.601 310.519 158.823 306.074 161.031C301.629 163.239 293.499 159.889 293.499 159.889L286.436 173.559C286.436 173.559 284.978 168.767 282.38 170.045C282.38 170.045 275.743 159.475 283.524 154.685Z" fill="#2F2E41"/>
<path d="M265.412 248.266L261.809 237.548L260.938 201.823L262.473 196.754C263.025 194.93 263.94 193.235 265.163 191.773C266.386 190.311 267.892 189.111 269.59 188.244C271.288 187.378 273.143 186.863 275.045 186.731C276.946 186.599 278.855 186.852 280.657 187.476C282.458 188.099 284.115 189.079 285.529 190.358C286.942 191.637 288.083 193.189 288.882 194.919C289.682 196.65 290.124 198.524 290.182 200.429C290.239 202.334 289.912 204.232 289.219 206.007L280.991 227.093L281.409 227.905L299.236 227.76L305.568 239.158L265.412 248.266Z" fill="#3F3D56"/>
<path d="M503.628 243.861C504.293 243.413 504.852 242.824 505.265 242.137C505.678 241.449 505.936 240.68 506.019 239.882C506.103 239.084 506.011 238.278 505.749 237.519C505.487 236.761 505.062 236.07 504.504 235.493L513.291 218.088L503.227 219.255L496.425 235.605C495.519 236.607 495.012 237.906 495 239.256C494.988 240.606 495.472 241.914 496.36 242.932C497.247 243.95 498.478 244.606 499.817 244.777C501.157 244.949 502.513 244.623 503.628 243.861Z" fill="#FFB7B7"/>
<path d="M574.097 367.153L566.177 367.153L562.41 336.607L574.098 336.608L574.097 367.153Z" fill="#FFB7B7"/>
<path d="M576.117 374.83L550.582 374.829V374.506C550.582 371.87 551.629 369.342 553.493 367.478C555.357 365.615 557.885 364.568 560.521 364.567H560.521L576.117 364.568L576.117 374.83Z" fill="#2F2E41"/>
<path d="M530.819 367.153L522.9 367.153L519.133 336.607L530.821 336.608L530.819 367.153Z" fill="#FFB7B7"/>
<path d="M530.902 374.83L505.367 374.829V374.506C505.367 371.87 506.415 369.342 508.278 367.478C510.142 365.615 512.67 364.568 515.306 364.567H515.307L530.902 364.568L530.902 374.83Z" fill="#2F2E41"/>
<path d="M530.173 238.145L522.421 256.002L516.027 358.642L532.176 357.996L536.586 309.067L550.192 265.488L558.013 314.072L561.243 356.704L574.605 357.283L579.93 238.145H530.173Z" fill="#2F2E41"/>
<path d="M568.918 150.028L546.452 150.59L533.263 157.361L532.539 207.317L524.312 241.807C524.312 241.807 575.711 245.344 582.816 240.177L574.419 200.774L585.681 158.192L568.918 150.028Z" fill="#71B8B8"/>
<path d="M536.733 158.19L534.641 156.777C534.641 156.777 525.977 159.374 523.416 170.927C523.416 170.927 521.456 176.724 520.596 180.709C519.61 185.28 497.832 227.266 497.832 227.266L510.871 231.007L534.776 192.348L536.733 158.19Z" fill="#71B8B8"/>
<path d="M585.326 250.268C584.81 249.653 584.435 248.934 584.228 248.159C584.02 247.384 583.985 246.573 584.125 245.783C584.264 244.993 584.575 244.244 585.036 243.587C585.497 242.931 586.096 242.383 586.791 241.983L583.145 222.829L592.497 226.727L594.526 244.318C595.121 245.53 595.25 246.919 594.889 248.22C594.528 249.522 593.703 250.646 592.569 251.379C591.435 252.112 590.071 252.404 588.736 252.199C587.402 251.995 586.188 251.307 585.326 250.268Z" fill="#FFB7B7"/>
<path d="M582.3 158.789L584.699 158.008C584.699 158.008 592.312 162.893 591.587 174.705C591.587 174.705 591.873 180.817 591.6 184.885C591.288 189.55 595.476 235.914 595.476 235.914H581.911L576.098 193.928L582.3 158.789Z" fill="#71B8B8"/>
<path d="M574.432 129.07C574.432 132.15 573.519 135.161 571.808 137.722C570.097 140.283 567.664 142.279 564.819 143.458C561.973 144.637 558.842 144.945 555.821 144.344C552.8 143.743 550.025 142.26 547.847 140.082C545.669 137.904 544.185 135.129 543.584 132.108C542.983 129.087 543.292 125.956 544.471 123.11C545.649 120.264 547.645 117.832 550.207 116.121C552.768 114.41 555.779 113.496 558.859 113.496C562.979 113.486 566.934 115.113 569.855 118.019C572.776 120.925 574.422 124.872 574.432 128.992C574.432 129.018 574.433 129.044 574.432 129.07Z" fill="#FFB7B7"/>
<path d="M543.336 108.152C545.161 104.229 548.691 105.004 551.779 106.334C555.689 105.467 559.408 102.87 563.621 104.406C567.77 110.441 581.703 108.666 578.739 118.492C578.735 120.846 583.17 119.476 582.396 123.332C584.745 130.753 573.916 144.808 567.7 141.849C569.237 139.031 572.749 132.631 567.423 131.996C555.964 142.658 566.241 111.694 551.843 120.699C547.076 125.062 540.55 112.515 543.336 108.152Z" fill="#2F2E41"/>
<path d="M394.7 124.009C394.7 124.009 399.631 126.901 398.014 129.761C396.397 132.62 394.142 136.516 395.672 137.743C397.201 138.97 399.727 144.379 399.727 144.379C399.727 144.379 410.505 142.873 409.493 151.246C408.481 159.618 403.418 160.76 407.758 164.443C412.098 168.126 403.247 172.532 403.247 172.532C403.247 172.532 397.137 170.628 395.743 164.772C394.349 158.917 396.986 169.249 396.101 169.99C395.217 170.731 391.784 175.614 389.354 169.122C386.924 162.629 389.33 160.112 386.12 156.28C382.91 152.448 380.727 146.25 380.823 145.167C380.918 144.084 377.15 134.197 382.95 130.342C388.749 126.486 394.7 124.009 394.7 124.009Z" fill="#2F2E41"/>
<path d="M447.942 200.894C447.724 201.118 447.525 201.358 447.345 201.613L419.393 200.929L416.132 194.971L406.496 198.717L411.244 209.826C411.627 210.724 412.292 211.473 413.137 211.961C413.982 212.448 414.963 212.649 415.932 212.532L447.513 208.717C448.258 209.66 449.272 210.354 450.421 210.706C451.57 211.059 452.799 211.053 453.945 210.69C455.091 210.327 456.098 209.624 456.835 208.674C457.571 207.724 458.001 206.572 458.066 205.372C458.132 204.172 457.831 202.981 457.203 201.956C456.575 200.931 455.65 200.122 454.551 199.636C453.452 199.15 452.231 199.01 451.05 199.235C449.87 199.459 448.785 200.038 447.942 200.894Z" fill="#FFB7B7"/>
<path d="M356.822 370.65H366.013L370.385 335.199L356.82 335.2L356.822 370.65Z" fill="#FFB7B7"/>
<path d="M354.477 367.649L372.577 367.648H372.577C375.636 367.649 378.57 368.864 380.733 371.027C382.897 373.19 384.112 376.124 384.112 379.183V379.558L354.477 379.559L354.477 367.649Z" fill="#2F2E41"/>
<path d="M440.279 370.445L448.731 366.834L438.825 332.516L426.352 337.845L440.279 370.445Z" fill="#FFB7B7"/>
<path d="M436.945 368.607L453.59 361.496L453.591 361.495C456.404 360.294 459.579 360.259 462.418 361.398C465.257 362.538 467.527 364.758 468.729 367.572L468.877 367.916L441.624 379.559L436.945 368.607Z" fill="#2F2E41"/>
<path d="M401.496 208.574L402.161 219.343L382.734 221.423L362.406 223.598L368.389 207.244L401.496 208.574Z" fill="#FFB7B7"/>
<path d="M402.178 212.438C401.957 212.351 380.015 203.816 366.537 210.795L366.205 210.967L363.517 197.732L361.984 169.278L371.954 164.568L374.699 158.419L393.395 157.312L397.238 162.582L410.319 166.869L402.501 212.565L402.178 212.438Z" fill="#E4E4E4"/>
<path d="M402.867 186.754L405.18 168.583L410.446 166.98L410.534 167.013C410.656 167.058 413.518 168.153 414.301 172.115C415.053 175.918 420.716 199.583 420.773 199.822L420.83 200.059L407.524 205.382L402.867 186.754Z" fill="#E4E4E4"/>
<path d="M433.431 364.214L451.143 360.581L422.835 282.467L413.146 255.824C413.146 255.824 407.001 234.461 404.225 226.194L402.549 215.102L362.887 219.492C362.887 219.492 351.809 235.76 355.174 262.277L353.652 361.943L371.364 362.852L386.2 262.333L412.238 317.437C412.238 317.437 420.445 340.951 426.316 346.048L433.431 364.214Z" fill="#2F2E41"/>
<path d="M378.794 223.192C378.482 223.184 378.17 223.202 377.861 223.243L359.358 202.281L361.51 195.838L352.212 191.319L347.293 202.354C346.896 203.246 346.798 204.242 347.015 205.194C347.232 206.145 347.752 207.001 348.497 207.632L372.766 228.196C372.581 229.383 372.762 230.599 373.285 231.681C373.808 232.763 374.647 233.661 375.693 234.254C376.738 234.847 377.939 235.108 379.136 235.002C380.333 234.896 381.47 234.429 382.394 233.661C383.319 232.893 383.988 231.862 384.312 230.705C384.637 229.548 384.601 228.319 384.211 227.183C383.82 226.046 383.092 225.056 382.125 224.343C381.157 223.63 379.996 223.228 378.794 223.192Z" fill="#FFB7B7"/>
<path d="M350.535 194.424L357.769 173.82C358.582 171.391 359.6 169.916 360.797 169.434C361.032 169.328 361.287 169.272 361.546 169.27C361.804 169.267 362.06 169.318 362.298 169.42L365.542 173.518L368.552 186.165L360.833 204.321L350.535 194.424Z" fill="#E4E4E4"/>
<path d="M385.643 155.604C385.497 155.604 385.351 155.591 385.207 155.566L370.988 153.057V129.558H386.64L386.253 130.009C380.861 136.297 384.923 146.493 387.824 152.011C388.038 152.415 388.133 152.872 388.099 153.328C388.065 153.783 387.903 154.221 387.631 154.588C387.404 154.903 387.105 155.159 386.759 155.336C386.414 155.512 386.031 155.604 385.643 155.604Z" fill="#2F2E41"/>
<path d="M386.307 152.73C393.734 152.73 399.754 146.709 399.754 139.283C399.754 131.856 393.734 125.835 386.307 125.835C378.88 125.835 372.859 131.856 372.859 139.283C372.859 146.709 378.88 152.73 386.307 152.73Z" fill="#FFB7B7"/>
<path d="M392.305 125.278C392.305 125.278 394.227 130.661 391.151 131.815C388.075 132.969 383.845 134.507 384.23 136.429C384.614 138.352 383.076 144.12 383.076 144.12C383.076 144.12 392.305 149.888 386.152 155.656C380 161.424 375.385 159.047 376.347 164.658C377.308 170.268 367.695 167.961 367.695 167.961C367.695 167.961 364.234 162.578 366.926 157.194C369.617 151.811 365.003 161.424 363.849 161.424C362.696 161.424 356.928 162.962 359.235 156.425C361.542 149.888 365.003 149.503 365.003 144.505C365.003 139.506 367.31 133.353 368.079 132.584C368.848 131.815 372.309 121.817 379.231 122.586C386.152 123.355 392.305 125.278 392.305 125.278Z" fill="#2F2E41"/>
<path d="M625.134 230.688C625.351 230.912 625.551 231.152 625.73 231.407L648.23 231.143L662.23 207L665.23 220.5L655.061 239.356C654.677 240.253 654.013 241.002 653.168 241.49C652.322 241.978 651.341 242.178 650.373 242.061L625.563 238.51C624.818 239.454 623.803 240.148 622.654 240.5C621.505 240.852 620.276 240.847 619.131 240.484C617.985 240.121 616.977 239.417 616.241 238.468C615.505 237.518 615.075 236.366 615.009 235.166C614.943 233.966 615.244 232.774 615.872 231.75C616.5 230.725 617.425 229.916 618.525 229.43C619.624 228.944 620.845 228.804 622.025 229.028C623.206 229.253 624.29 229.832 625.134 230.688Z" fill="#9F616A"/>
<path d="M666.956 217.003L659.348 208.087C659.132 207.833 658.973 207.536 658.881 207.215C658.79 206.894 658.769 206.558 658.82 206.228C658.871 205.898 658.992 205.584 659.175 205.305C659.358 205.026 659.599 204.791 659.882 204.614L669.786 198.414C671.09 197.313 672.778 196.775 674.478 196.917C676.178 197.059 677.753 197.869 678.857 199.17C679.961 200.472 680.503 202.158 680.366 203.858C680.229 205.559 679.422 207.136 678.124 208.243L670.47 217.022C670.251 217.273 669.98 217.474 669.676 217.611C669.372 217.749 669.042 217.819 668.708 217.817C668.375 217.815 668.046 217.741 667.743 217.601C667.441 217.46 667.172 217.256 666.956 217.003Z" fill="#CBCBCB"/>
<path d="M646.5 398.62L636.939 398.62L632.391 361.742L646.502 361.743L646.5 398.62Z" fill="#9F616A"/>
<path d="M648.938 407.888L618.109 407.887V407.497C618.11 404.315 619.374 401.263 621.624 399.013C623.874 396.762 626.926 395.498 630.109 395.498H630.109L648.938 395.499L648.938 407.888Z" fill="#2F2E41"/>
<path d="M722.925 398.62L713.365 398.62L708.816 361.742L722.928 361.743L722.925 398.62Z" fill="#9F616A"/>
<path d="M725.363 407.888L694.535 407.887V407.497C694.535 404.315 695.8 401.263 698.05 399.013C700.3 396.762 703.352 395.498 706.534 395.498H706.535L725.364 395.499L725.363 407.888Z" fill="#2F2E41"/>
<path d="M697.207 236.552L706.844 200.946L694.342 193.918H676.891L670.103 201.18C670.103 201.18 658.763 209.07 661.508 217.812L665.935 237.723L659.163 269.348L625.042 316.667L616.965 363.147L648.76 371.482L683.142 303.783L699.812 378.744L730.824 377.184L720.138 286.294C720.138 286.294 717.091 258.605 701.123 241.317L697.207 236.552Z" fill="#2F2E41"/>
<path d="M717.108 268.056C717.645 267.524 718.059 266.88 718.321 266.17C718.583 265.46 718.686 264.701 718.622 263.947C718.559 263.193 718.331 262.462 717.955 261.806C717.579 261.15 717.063 260.584 716.445 260.148L708.967 209.701L698.234 213.09L708.978 261.676C708.315 262.764 708.074 264.057 708.301 265.31C708.528 266.564 709.207 267.691 710.209 268.477C711.211 269.263 712.467 269.655 713.738 269.577C715.01 269.5 716.209 268.959 717.108 268.056Z" fill="#9F616A"/>
<path d="M710.815 217.618L699.172 218.961C698.841 218.999 698.505 218.965 698.188 218.862C697.871 218.759 697.58 218.589 697.335 218.363C697.089 218.137 696.896 217.861 696.767 217.553C696.638 217.246 696.576 216.914 696.587 216.581L696.964 204.902C696.779 203.206 697.273 201.506 698.339 200.174C699.405 198.842 700.956 197.987 702.651 197.796C704.347 197.606 706.049 198.095 707.384 199.158C708.719 200.22 709.578 201.768 709.773 203.463L712.791 214.712C712.877 215.034 712.893 215.371 712.838 215.7C712.782 216.029 712.656 216.342 712.469 216.618C712.281 216.894 712.036 217.126 711.751 217.298C711.466 217.471 711.147 217.58 710.815 217.618Z" fill="#CBCBCB"/>
<path d="M666.102 183.791V168.789C666.102 163.457 668.22 158.344 671.99 154.574C675.76 150.804 680.873 148.686 686.205 148.686C691.537 148.686 696.65 150.804 700.42 154.574C704.19 158.344 706.308 163.457 706.308 168.789V183.791C706.307 184.507 706.023 185.194 705.516 185.7C705.01 186.206 704.324 186.491 703.608 186.492H668.802C668.086 186.491 667.4 186.206 666.893 185.7C666.387 185.194 666.102 184.507 666.102 183.791Z" fill="#2F2E41"/>
<path d="M689.143 184.337C696.285 180.432 698.91 171.477 695.006 164.334C691.101 157.192 682.146 154.567 675.003 158.471C667.861 162.376 665.236 171.331 669.14 178.474C673.045 185.617 682 188.241 689.143 184.337Z" fill="#9F616A"/>
<path d="M661.344 169.989C661.349 165.772 663.026 161.73 666.007 158.749C668.988 155.768 673.03 154.091 677.246 154.086H680.247C684.463 154.091 688.505 155.768 691.487 158.749C694.468 161.73 696.145 165.772 696.15 169.989V170.289H689.809L687.646 164.233L687.213 170.289H683.936L682.845 167.233L682.627 170.289H661.344V169.989Z" fill="#2F2E41"/>
<path d="M680.622 188.179C680.324 187.776 680.146 187.297 680.109 186.797C680.072 186.297 680.176 185.797 680.41 185.354C683.59 179.306 688.042 168.131 682.133 161.239L681.708 160.744H698.863V186.5L683.279 189.25C683.121 189.278 682.961 189.292 682.801 189.292C682.376 189.292 681.956 189.191 681.578 188.998C681.199 188.804 680.871 188.524 680.622 188.179Z" fill="#2F2E41"/>
<path d="M114.642 473.439V452.771C114.642 452.339 114.791 451.968 115.09 451.658C115.389 451.348 115.754 451.193 116.186 451.193H121.066C121.454 451.193 121.863 451.348 122.295 451.658C122.727 451.968 123.081 452.339 123.357 452.771L133.385 468.193V452.737C133.385 452.306 133.534 451.94 133.833 451.642C134.143 451.343 134.514 451.193 134.945 451.193H137.801C138.232 451.193 138.598 451.343 138.896 451.642C139.206 451.94 139.361 452.317 139.361 452.771V473.439C139.361 473.871 139.206 474.242 138.896 474.552C138.598 474.851 138.232 475 137.801 475H132.289C131.857 475 131.415 474.851 130.961 474.552C130.507 474.242 130.147 473.871 129.882 473.439L120.701 459.195V473.439C120.701 473.871 120.546 474.242 120.236 474.552C119.938 474.851 119.572 475 119.141 475H116.219C115.787 475 115.416 474.851 115.106 474.552C114.797 474.242 114.642 473.871 114.642 473.439ZM145.354 472.941C143.628 471.348 142.765 469.001 142.765 465.902C142.765 462.792 143.628 460.446 145.354 458.863C147.081 457.27 149.56 456.473 152.792 456.473C156.035 456.473 158.52 457.27 160.246 458.863C161.973 460.446 162.836 462.792 162.836 465.902C162.836 469.001 161.973 471.348 160.246 472.941C158.52 474.535 156.035 475.332 152.792 475.332C149.56 475.332 147.081 474.535 145.354 472.941ZM149.555 461.586C148.868 462.482 148.525 463.916 148.525 465.886C148.525 467.856 148.868 469.295 149.555 470.202C150.241 471.11 151.32 471.563 152.792 471.563C154.275 471.563 155.36 471.11 156.046 470.202C156.743 469.295 157.092 467.856 157.092 465.886C157.092 463.916 156.743 462.482 156.046 461.586C155.36 460.689 154.275 460.241 152.792 460.241C151.32 460.241 150.241 460.689 149.555 461.586ZM164.729 456.805H167.916C168.392 456.805 168.84 456.943 169.261 457.22C169.681 457.485 169.98 457.834 170.157 458.266L174.689 468.608L179.205 458.266C179.382 457.834 179.681 457.485 180.102 457.22C180.522 456.943 180.97 456.805 181.446 456.805H184.65C185.038 456.805 185.292 456.949 185.414 457.236C185.469 457.347 185.492 457.491 185.48 457.668C185.48 457.834 185.431 458.033 185.331 458.266L178.159 473.539C177.96 473.971 177.645 474.325 177.213 474.602C176.792 474.867 176.355 475 175.901 475H173.461C173.007 475 172.57 474.867 172.149 474.602C171.729 474.325 171.419 473.971 171.22 473.539L164.048 458.266C163.937 458.022 163.882 457.817 163.882 457.651C163.882 457.087 164.164 456.805 164.729 456.805ZM189.083 472.908C187.379 471.292 186.526 468.968 186.526 465.936C186.526 462.892 187.384 460.557 189.1 458.93C190.815 457.292 193.195 456.473 196.238 456.473C199.282 456.473 201.656 457.27 203.36 458.863C205.065 460.446 205.917 462.72 205.917 465.687V466.633C205.917 466.932 205.817 467.181 205.618 467.38C205.43 467.568 205.187 467.662 204.888 467.662H192.387C192.497 469.023 192.885 470.014 193.549 470.634C194.224 471.254 195.298 471.563 196.77 471.563C198.242 471.563 199.249 471.231 199.791 470.567C200.333 469.903 201.003 469.566 201.8 469.555H204.273C204.572 469.555 204.816 469.654 205.004 469.854C205.203 470.042 205.303 470.285 205.303 470.584C205.303 473.76 202.276 475.343 196.222 475.332C193.167 475.332 190.787 474.524 189.083 472.908ZM192.354 464.159H200.073C199.963 461.547 198.679 460.241 196.222 460.241C193.776 460.241 192.486 461.547 192.354 464.159ZM208.972 473.987V457.834C208.972 457.535 209.066 457.292 209.254 457.104C209.453 456.904 209.697 456.805 209.984 456.805H213.703C214.002 456.805 214.245 456.904 214.434 457.104C214.622 457.292 214.716 457.535 214.716 457.834V458.88C215.513 458.105 216.293 457.513 217.057 457.104C217.831 456.683 218.761 456.473 219.846 456.473C222.424 456.473 224.378 457.535 225.706 459.66C227.765 457.524 229.873 456.462 232.031 456.473C234.201 456.473 235.91 457.126 237.161 458.432C238.423 459.727 239.054 461.735 239.054 464.458V473.987C239.054 474.286 238.96 474.53 238.771 474.718C238.583 474.906 238.34 475 238.041 475H234.339C234.04 475 233.791 474.906 233.592 474.718C233.404 474.519 233.31 474.275 233.31 473.987V464.458C233.31 461.802 232.347 460.479 230.421 460.49C229.248 460.49 228.036 461.337 226.785 463.03C226.852 463.506 226.885 463.982 226.885 464.458V473.987C226.885 474.286 226.785 474.53 226.586 474.718C226.398 474.906 226.16 475 225.872 475H222.17C221.871 475 221.622 474.906 221.423 474.718C221.235 474.519 221.141 474.275 221.141 473.987V464.458C221.141 461.802 220.178 460.479 218.252 460.49C217.023 460.49 215.845 461.282 214.716 462.864V473.987C214.716 474.286 214.616 474.53 214.417 474.718C214.229 474.906 213.991 475 213.703 475H209.984C209.686 475 209.442 474.906 209.254 474.718C209.066 474.53 208.972 474.286 208.972 473.987ZM243.138 452.223C243.138 451.924 243.232 451.68 243.42 451.492C243.619 451.293 243.863 451.193 244.15 451.193H247.869C248.157 451.193 248.395 451.293 248.583 451.492C248.782 451.68 248.882 451.924 248.882 452.223V457.319C250.675 456.755 252.274 456.473 253.68 456.473C256.402 456.473 258.566 457.286 260.171 458.913C261.776 460.529 262.578 462.864 262.578 465.919C262.578 472.194 259.064 475.332 252.036 475.332C250.431 475.332 248.766 475.155 247.039 474.801C245.324 474.436 244.023 473.993 243.138 473.473V452.223ZM248.882 461.154V470.949C249.834 471.204 251.046 471.331 252.518 471.331C253.99 471.331 255.047 470.905 255.688 470.053C256.341 469.201 256.668 467.823 256.668 465.919C256.668 464.015 256.347 462.637 255.705 461.785C255.074 460.922 254.001 460.49 252.484 460.49C251.51 460.49 250.31 460.712 248.882 461.154ZM267.177 472.908C265.472 471.292 264.62 468.968 264.62 465.936C264.62 462.892 265.478 460.557 267.193 458.93C268.909 457.292 271.288 456.473 274.332 456.473C277.376 456.473 279.75 457.27 281.454 458.863C283.159 460.446 284.011 462.72 284.011 465.687V466.633C284.011 466.932 283.911 467.181 283.712 467.38C283.524 467.568 283.28 467.662 282.981 467.662H270.48C270.591 469.023 270.979 470.014 271.643 470.634C272.318 471.254 273.391 471.563 274.863 471.563C276.335 471.563 277.342 471.231 277.885 470.567C278.427 469.903 279.097 469.566 279.894 469.555H282.367C282.666 469.555 282.91 469.654 283.098 469.854C283.297 470.042 283.396 470.285 283.396 470.584C283.396 473.76 280.369 475.343 274.315 475.332C271.261 475.332 268.881 474.524 267.177 472.908ZM270.447 464.159H278.167C278.056 461.547 276.772 460.241 274.315 460.241C271.869 460.241 270.58 461.547 270.447 464.159ZM299.649 461.021L297.093 460.922C295.599 460.922 294.171 461.741 292.81 463.379V473.987C292.81 474.286 292.71 474.53 292.511 474.718C292.323 474.906 292.085 475 291.797 475H288.078C287.779 475 287.536 474.906 287.348 474.718C287.16 474.53 287.065 474.286 287.065 473.987V457.834C287.065 457.535 287.16 457.292 287.348 457.104C287.547 456.904 287.79 456.805 288.078 456.805H291.797C292.096 456.805 292.339 456.904 292.527 457.104C292.715 457.292 292.81 457.535 292.81 457.834V458.88C293.938 458.061 295.023 457.458 296.063 457.07C297.115 456.672 298.487 456.473 300.181 456.473C300.479 456.473 300.723 456.572 300.911 456.771C301.11 456.96 301.21 457.198 301.21 457.485V460.009C301.21 460.308 301.11 460.551 300.911 460.739C300.723 460.927 300.479 461.021 300.181 461.021H299.649ZM313.711 456.987C313.578 456.799 313.512 456.578 313.512 456.323C313.512 456.069 313.694 455.786 314.06 455.477L318.11 451.99C318.697 451.47 319.51 451.204 320.551 451.193H322.991C323.445 451.193 323.827 451.348 324.137 451.658C324.447 451.968 324.602 452.339 324.602 452.771V473.439C324.602 473.871 324.441 474.242 324.12 474.552C323.799 474.851 323.423 475 322.991 475H319.903C319.472 475 319.101 474.856 318.791 474.568C318.492 474.27 318.343 473.904 318.343 473.473V457.419L316.434 458.813C316.212 458.968 315.958 459.018 315.67 458.963C315.382 458.908 315.15 458.78 314.973 458.581L313.711 456.987ZM332.637 469.621C334.064 469.621 334.778 470.147 334.778 471.198C334.778 471.486 334.701 471.824 334.546 472.211L332.57 477.208C332.338 477.75 331.989 478.204 331.524 478.569C331.06 478.935 330.534 479.117 329.947 479.117H329.3C328.603 479.117 328.16 478.968 327.972 478.669C327.795 478.381 327.706 478.082 327.706 477.772C327.706 477.463 327.728 477.164 327.772 476.876L328.752 471.53C328.852 471.01 329.156 470.562 329.665 470.186C330.174 469.809 330.711 469.621 331.275 469.621H332.637ZM349.089 473.439V471.016C349.089 469.61 349.377 468.393 349.952 467.363C350.539 466.334 351.286 465.526 352.193 464.939C353.101 464.353 354.108 463.849 355.215 463.429C356.322 463.008 357.428 462.671 358.535 462.416C359.653 462.15 360.666 461.885 361.573 461.619C363.632 460.999 364.661 460.119 364.661 458.979C364.661 457.74 364.34 456.893 363.698 456.439C363.056 455.986 361.972 455.759 360.444 455.759H359.266C357.13 455.759 355.724 456.439 355.049 457.801C354.551 458.841 353.804 459.361 352.808 459.361H350.832C350.29 459.361 349.869 459.168 349.57 458.78C349.271 458.393 349.122 457.972 349.122 457.519C349.122 456.257 349.604 455.122 350.566 454.115C351.54 453.097 352.747 452.333 354.186 451.824C355.624 451.315 357.124 451.061 358.685 451.061H360.926C365.785 451.061 368.861 452.411 370.156 455.111C370.665 456.174 370.92 457.408 370.92 458.813C370.92 460.219 370.632 461.414 370.057 462.399C369.481 463.384 368.74 464.17 367.832 464.757C366.924 465.332 365.912 465.83 364.794 466.251C363.687 466.672 362.58 467.02 361.474 467.297C360.367 467.562 359.36 467.817 358.452 468.061C356.382 468.636 355.348 469.383 355.348 470.302H369.127C369.581 470.302 369.957 470.457 370.256 470.767C370.566 471.076 370.721 471.447 370.721 471.879V473.439C370.721 473.871 370.56 474.242 370.239 474.552C369.929 474.851 369.559 475 369.127 475H350.699C350.268 475 349.891 474.851 349.57 474.552C349.249 474.242 349.089 473.871 349.089 473.439ZM372.962 463.097C372.962 460.872 373.266 458.963 373.875 457.369C374.495 455.775 375.369 454.53 376.498 453.634C378.645 451.918 381.445 451.061 384.898 451.061H386.061C389.514 451.061 392.314 451.918 394.461 453.634C396.818 455.515 397.997 458.67 397.997 463.097C397.997 467.546 396.818 470.706 394.461 472.576C392.314 474.281 389.514 475.133 386.061 475.133H384.898C381.445 475.133 378.645 474.281 376.498 472.576C374.141 470.706 372.962 467.546 372.962 463.097ZM385.479 455.759C381.307 455.759 379.221 458.21 379.221 463.113C379.221 468.005 381.307 470.451 385.479 470.451C389.652 470.451 391.738 468.005 391.738 463.113C391.738 458.21 389.652 455.759 385.479 455.759ZM400.022 473.439V471.016C400.022 469.61 400.31 468.393 400.886 467.363C401.472 466.334 402.219 465.526 403.127 464.939C404.035 464.353 405.042 463.849 406.148 463.429C407.255 463.008 408.362 462.671 409.469 462.416C410.587 462.15 411.599 461.885 412.507 461.619C414.565 460.999 415.595 460.119 415.595 458.979C415.595 457.74 415.274 456.893 414.632 456.439C413.99 455.986 412.905 455.759 411.378 455.759H410.199C408.063 455.759 406.658 456.439 405.982 457.801C405.484 458.841 404.737 459.361 403.741 459.361H401.766C401.223 459.361 400.803 459.168 400.504 458.78C400.205 458.393 400.056 457.972 400.056 457.519C400.056 456.257 400.537 455.122 401.5 454.115C402.474 453.097 403.68 452.333 405.119 451.824C406.558 451.315 408.058 451.061 409.618 451.061H411.859C416.718 451.061 419.795 452.411 421.09 455.111C421.599 456.174 421.854 457.408 421.854 458.813C421.854 460.219 421.566 461.414 420.99 462.399C420.415 463.384 419.673 464.17 418.766 464.757C417.858 465.332 416.845 465.83 415.728 466.251C414.621 466.672 413.514 467.02 412.407 467.297C411.3 467.562 410.293 467.817 409.386 468.061C407.316 468.636 406.281 469.383 406.281 470.302H420.061C420.514 470.302 420.891 470.457 421.189 470.767C421.499 471.076 421.654 471.447 421.654 471.879V473.439C421.654 473.871 421.494 474.242 421.173 474.552C420.863 474.851 420.492 475 420.061 475H401.633C401.201 475 400.825 474.851 400.504 474.552C400.183 474.242 400.022 473.871 400.022 473.439ZM423.729 468.509C423.729 467.845 423.923 467.374 424.311 467.098C424.698 466.81 425.074 466.666 425.439 466.666H427.398C428.428 466.666 429.236 467.297 429.822 468.559C430.409 469.82 431.759 470.451 433.873 470.451H436.247C437.608 470.451 438.604 470.257 439.235 469.87C439.866 469.483 440.182 468.824 440.182 467.895C440.182 466.965 439.866 466.306 439.235 465.919C438.604 465.532 437.608 465.338 436.247 465.338H433.259C432.827 465.338 432.456 465.188 432.146 464.89C431.837 464.58 431.682 464.209 431.682 463.777V462.416C431.682 462.007 431.831 461.647 432.13 461.337C432.429 461.016 432.783 460.855 433.192 460.855H435.633C437.105 460.855 438.173 460.662 438.837 460.274C439.512 459.887 439.85 459.229 439.85 458.299C439.85 457.369 439.512 456.716 438.837 456.34C438.173 455.952 437.105 455.759 435.633 455.759H434.404C432.279 455.759 430.874 456.439 430.188 457.801C429.689 458.841 428.942 459.361 427.946 459.361H425.971C425.439 459.361 425.024 459.168 424.726 458.78C424.427 458.393 424.277 457.972 424.277 457.519C424.277 456.257 424.759 455.122 425.722 454.115C426.685 453.097 427.885 452.333 429.324 451.824C430.763 451.315 432.263 451.061 433.823 451.061H436.114C442.777 451.061 446.108 453.484 446.108 458.332C446.108 460.357 445.35 461.946 443.834 463.097C445.572 464.192 446.44 465.792 446.44 467.895C446.44 470.451 445.621 472.299 443.983 473.439C442.356 474.568 439.971 475.133 436.828 475.133H433.292C430.813 475.133 428.599 474.524 426.651 473.307C424.703 472.078 423.729 470.479 423.729 468.509ZM460.087 465.554V463.578C460.087 463.279 460.181 463.036 460.369 462.848C460.568 462.648 460.812 462.549 461.1 462.549H473.617C473.916 462.549 474.16 462.648 474.348 462.848C474.547 463.036 474.646 463.279 474.646 463.578V465.554C474.646 465.853 474.547 466.096 474.348 466.284C474.16 466.472 473.916 466.566 473.617 466.566H461.1C460.801 466.566 460.557 466.472 460.369 466.284C460.181 466.096 460.087 465.853 460.087 465.554ZM487.646 452.588C487.59 452.455 487.562 452.306 487.562 452.14C487.562 451.963 487.657 451.763 487.845 451.542C488.044 451.31 488.337 451.193 488.725 451.193H492.36C492.792 451.193 493.19 451.343 493.556 451.642C493.921 451.94 494.181 452.317 494.336 452.771L498.719 465.919L502.77 452.771C503.09 451.719 503.749 451.193 504.745 451.193H507.8C508.796 451.193 509.454 451.719 509.775 452.771L513.826 465.919L518.209 452.771C518.364 452.317 518.624 451.94 518.989 451.642C519.354 451.343 519.753 451.193 520.185 451.193H523.82C524.197 451.193 524.479 451.31 524.667 451.542C524.866 451.763 524.966 451.963 524.966 452.14C524.966 452.306 524.944 452.455 524.899 452.588L517.495 473.307C517.086 474.436 516.289 475 515.104 475H512.697C511.469 475 510.677 474.436 510.323 473.307L506.272 460.523L502.222 473.307C501.856 474.436 501.065 475 499.848 475H497.424C496.251 475 495.459 474.436 495.05 473.307L487.646 452.588ZM527.688 473.805C526.228 472.786 525.497 471.348 525.497 469.488C525.497 467.629 526.228 466.201 527.688 465.205C529.16 464.209 531.053 463.711 533.366 463.711H538.861C538.861 462.416 538.59 461.514 538.048 461.005C537.506 460.496 536.554 460.241 535.192 460.241C533.842 460.241 532.89 460.579 532.337 461.254C531.795 461.918 531.125 462.25 530.328 462.25H527.854C527.556 462.25 527.307 462.156 527.107 461.968C526.919 461.769 526.825 461.525 526.825 461.237C526.825 458.061 529.841 456.473 535.873 456.473C538.507 456.473 540.621 457.065 542.215 458.249C543.809 459.422 544.605 461.243 544.605 463.711V473.987C544.605 474.286 544.511 474.53 544.323 474.718C544.135 474.906 543.892 475 543.593 475H540.389C540.09 475 539.846 474.906 539.658 474.718C539.47 474.519 539.376 474.275 539.376 473.987V473.473C537.627 474.723 535.607 475.343 533.316 475.332C531.036 475.332 529.16 474.823 527.688 473.805ZM533.765 467.479C532.99 467.479 532.376 467.668 531.922 468.044C531.479 468.42 531.258 468.907 531.258 469.505C531.258 470.103 531.49 470.595 531.955 470.982C532.42 471.37 533.078 471.563 533.931 471.563C535.635 471.563 537.279 471.065 538.861 470.069V467.479H533.765ZM547.677 461.835C547.677 458.26 550.56 456.473 556.326 456.473C562.391 456.473 565.424 458.061 565.424 461.237C565.424 461.525 565.33 461.769 565.142 461.968C564.953 462.156 564.71 462.25 564.411 462.25H561.938C561.141 462.25 560.471 461.918 559.929 461.254C559.386 460.579 558.318 460.241 556.725 460.241C554.533 460.241 553.438 460.772 553.438 461.835C553.438 462.333 553.864 462.748 554.716 463.08C555.579 463.412 556.625 463.705 557.854 463.96C559.093 464.203 560.327 464.519 561.556 464.906C562.784 465.294 563.825 465.913 564.677 466.766C565.54 467.607 565.972 468.675 565.972 469.97C565.972 473.545 562.928 475.332 556.841 475.332C550.754 475.332 547.71 473.749 547.71 470.584C547.71 470.285 547.804 470.042 547.992 469.854C548.191 469.654 548.44 469.555 548.739 469.555H551.213C552.01 469.555 552.679 469.892 553.222 470.567C553.764 471.231 554.832 471.563 556.426 471.563C558.96 471.563 560.228 471.032 560.228 469.97C560.228 469.472 559.796 469.057 558.933 468.725C558.08 468.393 557.035 468.099 555.795 467.845C554.555 467.579 553.321 467.258 552.093 466.882C550.875 466.494 549.835 465.875 548.972 465.022C548.108 464.17 547.677 463.108 547.677 461.835ZM569.06 473.987V452.223C569.06 451.924 569.154 451.68 569.342 451.492C569.541 451.293 569.785 451.193 570.072 451.193H573.791C574.079 451.193 574.317 451.293 574.505 451.492C574.704 451.68 574.804 451.924 574.804 452.223V458.88C576.707 457.275 578.733 456.473 580.88 456.473C583.038 456.473 584.792 457.131 586.143 458.448C587.493 459.754 588.168 461.757 588.168 464.458V473.987C588.168 474.275 588.068 474.519 587.869 474.718C587.681 474.906 587.438 475 587.139 475H583.437C583.149 475 582.905 474.906 582.706 474.718C582.518 474.519 582.424 474.275 582.424 473.987V464.458C582.424 461.813 581.367 460.49 579.253 460.49C577.869 460.49 576.386 461.282 574.804 462.864V473.987C574.804 474.275 574.704 474.519 574.505 474.718C574.317 474.906 574.079 475 573.791 475H570.072C569.785 475 569.541 474.906 569.342 474.718C569.154 474.519 569.06 474.275 569.06 473.987ZM592.269 453.335V452.771C592.269 452.184 592.435 451.719 592.767 451.376C593.11 451.033 593.58 450.861 594.178 450.861H596.236C596.823 450.861 597.288 451.033 597.631 451.376C597.974 451.708 598.146 452.173 598.146 452.771V453.335C598.146 453.922 597.974 454.386 597.631 454.729C597.299 455.073 596.834 455.244 596.236 455.244H594.178C593.591 455.244 593.126 455.073 592.783 454.729C592.44 454.386 592.269 453.922 592.269 453.335ZM592.335 473.987V458.232C592.335 457.934 592.429 457.69 592.617 457.502C592.816 457.314 593.06 457.22 593.348 457.22H597.066C597.365 457.22 597.609 457.319 597.797 457.519C597.985 457.707 598.079 457.945 598.079 458.232V473.987C598.079 474.286 597.979 474.53 597.78 474.718C597.592 474.906 597.354 475 597.066 475H593.348C593.049 475 592.805 474.906 592.617 474.718C592.429 474.53 592.335 474.286 592.335 473.987ZM602.229 473.987V457.834C602.229 457.535 602.324 457.292 602.512 457.104C602.711 456.904 602.954 456.805 603.242 456.805H606.961C607.249 456.805 607.487 456.904 607.675 457.104C607.874 457.292 607.974 457.535 607.974 457.834V458.88C609.877 457.275 611.903 456.473 614.05 456.473C616.208 456.473 617.962 457.131 619.312 458.448C620.663 459.754 621.338 461.757 621.338 464.458V473.987C621.338 474.275 621.238 474.519 621.039 474.718C620.851 474.906 620.607 475 620.309 475H616.606C616.319 475 616.075 474.906 615.876 474.718C615.688 474.519 615.594 474.275 615.594 473.987V464.458C615.594 461.813 614.537 460.49 612.423 460.49C611.039 460.49 609.556 461.282 607.974 462.864V473.987C607.974 474.275 607.874 474.519 607.675 474.718C607.487 474.906 607.249 475 606.961 475H603.242C602.954 475 602.711 474.906 602.512 474.718C602.324 474.519 602.229 474.275 602.229 473.987ZM632.81 473.605C630.297 473.605 628.266 472.847 626.717 471.331C625.178 469.815 624.409 467.712 624.409 465.022C624.409 462.333 625.289 460.236 627.049 458.73C628.809 457.225 631.332 456.473 634.619 456.473C636.224 456.473 637.89 456.655 639.616 457.021C641.343 457.375 642.643 457.812 643.518 458.332V473.705C643.518 476.173 642.704 477.994 641.077 479.167C639.45 480.351 637.165 480.943 634.221 480.943C631.288 480.943 629.024 480.573 627.431 479.831C625.848 479.101 625.057 477.889 625.057 476.195C625.057 475.896 625.151 475.647 625.339 475.448C625.538 475.26 625.787 475.166 626.086 475.166H628.56C629.356 475.166 629.993 475.459 630.469 476.046C631.077 476.799 632.157 477.175 633.706 477.175C635.267 477.175 636.335 476.92 636.91 476.411C637.486 475.902 637.773 475 637.773 473.705V472.925C636.003 473.379 634.348 473.605 632.81 473.605ZM634.271 460.49C631.647 460.479 630.336 461.995 630.336 465.039C630.336 468.072 631.614 469.588 634.171 469.588C635.233 469.588 636.434 469.422 637.773 469.09V460.855C636.822 460.601 635.654 460.479 634.271 460.49ZM656.284 471.397L658.559 471.198H659.173C659.472 471.198 659.715 471.292 659.903 471.48C660.103 471.669 660.202 471.912 660.202 472.211V473.987C660.202 474.231 660.103 474.452 659.903 474.651C659.715 474.84 659.472 474.956 659.173 475C658.044 475.221 656.572 475.332 654.757 475.332C649.998 475.332 647.618 472.842 647.618 467.861V452.223C647.618 451.924 647.712 451.68 647.9 451.492C648.1 451.293 648.343 451.193 648.631 451.193H652.35C652.637 451.193 652.875 451.293 653.063 451.492C653.263 451.68 653.362 451.924 653.362 452.223V457.768H657.994C658.282 457.768 658.52 457.862 658.708 458.05C658.907 458.238 659.007 458.481 659.007 458.78V460.756C659.007 461.055 658.907 461.298 658.708 461.486C658.52 461.674 658.282 461.769 657.994 461.769H653.362V467.861C653.362 468.99 653.628 469.865 654.159 470.484C654.69 471.093 655.399 471.397 656.284 471.397ZM664.319 472.941C662.593 471.348 661.729 469.001 661.729 465.902C661.729 462.792 662.593 460.446 664.319 458.863C666.046 457.27 668.525 456.473 671.757 456.473C675 456.473 677.484 457.27 679.211 458.863C680.938 460.446 681.801 462.792 681.801 465.902C681.801 469.001 680.938 471.348 679.211 472.941C677.484 474.535 675 475.332 671.757 475.332C668.525 475.332 666.046 474.535 664.319 472.941ZM668.52 461.586C667.833 462.482 667.49 463.916 667.49 465.886C667.49 467.856 667.833 469.295 668.52 470.202C669.206 471.11 670.285 471.563 671.757 471.563C673.24 471.563 674.325 471.11 675.011 470.202C675.708 469.295 676.057 467.856 676.057 465.886C676.057 463.916 675.708 462.482 675.011 461.586C674.325 460.689 673.24 460.241 671.757 460.241C670.285 460.241 669.206 460.689 668.52 461.586ZM684.872 473.987V457.834C684.872 457.535 684.966 457.292 685.154 457.104C685.354 456.904 685.597 456.805 685.885 456.805H689.604C689.891 456.805 690.129 456.904 690.317 457.104C690.517 457.292 690.616 457.535 690.616 457.834V458.88C692.52 457.275 694.545 456.473 696.692 456.473C698.851 456.473 700.605 457.131 701.955 458.448C703.305 459.754 703.98 461.757 703.98 464.458V473.987C703.98 474.275 703.881 474.519 703.682 474.718C703.493 474.906 703.25 475 702.951 475H699.249C698.961 475 698.718 474.906 698.519 474.718C698.33 474.519 698.236 474.275 698.236 473.987V464.458C698.236 461.813 697.179 460.49 695.065 460.49C693.682 460.49 692.199 461.282 690.616 462.864V473.987C690.616 474.275 690.517 474.519 690.317 474.718C690.129 474.906 689.891 475 689.604 475H685.885C685.597 475 685.354 474.906 685.154 474.718C684.966 474.519 684.872 474.275 684.872 473.987ZM720.333 473.473V452.804C720.333 452.35 720.488 451.968 720.798 451.658C721.108 451.348 721.479 451.193 721.91 451.193H731.19C735.994 451.193 739.486 452.156 741.666 454.082C743.857 455.997 744.953 459.007 744.953 463.113C744.953 467.208 743.857 470.213 741.666 472.128C739.486 474.043 735.994 475 731.19 475H721.91C721.479 475 721.108 474.856 720.798 474.568C720.488 474.27 720.333 473.904 720.333 473.473ZM726.592 470.302H731.008C733.985 470.302 736.01 469.759 737.084 468.675C738.158 467.59 738.694 465.736 738.694 463.113C738.694 460.479 738.158 458.62 737.084 457.535C736.01 456.439 733.985 455.892 731.008 455.892H726.592V470.302ZM750.066 472.194C748.019 470.235 746.995 467.208 746.995 463.113C746.995 459.007 748.019 455.975 750.066 454.016C752.125 452.046 755.207 451.061 759.313 451.061H763.016C765.528 451.061 767.747 451.714 769.673 453.02C771.61 454.326 772.578 456.113 772.578 458.382C772.578 459.035 772.384 459.505 771.997 459.793C771.61 460.07 771.233 460.208 770.868 460.208H768.893C767.874 460.208 767.083 459.599 766.519 458.382C765.7 456.633 764.338 455.759 762.435 455.759H759.479C757.056 455.759 755.412 456.279 754.549 457.319C753.686 458.36 753.254 460.285 753.254 463.097C753.254 465.908 753.686 467.839 754.549 468.891C755.412 469.931 757.056 470.451 759.479 470.451H762.783C764.687 470.451 766.043 469.577 766.851 467.828C767.415 466.6 768.212 465.985 769.241 465.985H771.217C771.737 465.985 772.146 466.179 772.445 466.566C772.755 466.954 772.91 467.374 772.91 467.828C772.91 470.097 771.947 471.884 770.021 473.19C768.096 474.485 765.877 475.133 763.364 475.133H759.313C755.207 475.133 752.125 474.153 750.066 472.194ZM779.418 469.621C780.846 469.621 781.56 470.147 781.56 471.198C781.56 471.486 781.482 471.824 781.327 472.211L779.352 477.208C779.119 477.75 778.771 478.204 778.306 478.569C777.841 478.935 777.315 479.117 776.729 479.117H776.081C775.384 479.117 774.941 478.968 774.753 478.669C774.576 478.381 774.487 478.082 774.487 477.772C774.487 477.463 774.509 477.164 774.554 476.876L775.533 471.53C775.633 471.01 775.937 470.562 776.446 470.186C776.955 469.809 777.492 469.621 778.057 469.621H779.418ZM796.899 465.587V452.771C796.899 452.339 797.049 451.968 797.348 451.658C797.658 451.348 798.039 451.193 798.493 451.193H801.598C802.018 451.193 802.383 451.348 802.693 451.658C803.003 451.968 803.158 452.339 803.158 452.771V465.62C803.158 467.247 803.512 468.459 804.221 469.256C804.94 470.053 806.047 470.451 807.541 470.451H810.197C811.691 470.451 812.793 470.053 813.501 469.256C814.22 468.459 814.58 467.247 814.58 465.62V452.771C814.58 452.339 814.729 451.968 815.028 451.658C815.338 451.348 815.709 451.193 816.141 451.193H819.229C819.682 451.193 820.064 451.348 820.374 451.658C820.684 451.968 820.839 452.339 820.839 452.771V465.587C820.839 468.619 819.948 470.971 818.166 472.643C816.384 474.303 813.783 475.133 810.363 475.133H807.375C803.944 475.133 801.338 474.303 799.556 472.643C797.785 470.971 796.899 468.619 796.899 465.587ZM823.894 468.907C823.894 468.254 824.087 467.789 824.475 467.513C824.862 467.225 825.238 467.081 825.604 467.081H827.579C828.575 467.081 829.333 467.623 829.854 468.708C830.374 469.793 831.541 470.335 833.356 470.335L839.167 470.451C841.115 470.451 842.089 469.815 842.089 468.542C842.089 467.579 840.899 466.821 838.52 466.268C837.457 466.013 836.284 465.764 835 465.521C833.716 465.266 832.438 464.951 831.165 464.574C829.903 464.198 828.741 463.755 827.679 463.246C826.616 462.737 825.753 462.04 825.089 461.154C824.436 460.258 824.109 459.206 824.109 458C824.109 455.775 824.901 454.065 826.483 452.87C828.066 451.664 830.789 451.061 834.651 451.061L838.868 451.16C841.137 451.16 843.179 451.747 844.994 452.92C846.82 454.082 847.733 455.537 847.733 457.286C847.733 457.939 847.54 458.41 847.152 458.697C846.765 458.985 846.394 459.129 846.04 459.129H844.064C843.068 459.129 842.31 458.587 841.79 457.502C841.27 456.406 840.102 455.858 838.287 455.858L833.29 455.759C831.342 455.759 830.368 456.395 830.368 457.668C830.368 458.365 830.982 458.935 832.211 459.378C833.451 459.821 834.945 460.214 836.693 460.557C838.453 460.889 840.218 461.293 841.989 461.769C843.76 462.244 845.26 463.03 846.488 464.126C847.728 465.211 848.348 466.566 848.348 468.193C848.348 470.418 847.551 472.133 845.957 473.34C844.374 474.535 841.657 475.133 837.806 475.133L832.775 475.033C830.507 475.033 828.459 474.452 826.633 473.29C824.807 472.117 823.894 470.656 823.894 468.907ZM849.792 473.473L853.959 457.668C855.088 453.363 858.762 451.204 864.982 451.193H873.931C874.34 451.193 874.678 451.348 874.943 451.658C875.22 451.968 875.358 452.328 875.358 452.737V473.473C875.358 473.904 875.203 474.27 874.894 474.568C874.584 474.856 874.213 475 873.781 475H870.66C870.206 475 869.83 474.856 869.531 474.568C869.243 474.27 869.1 473.893 869.1 473.439V469.256H857.296L856.184 473.439C856.073 473.893 855.824 474.27 855.437 474.568C855.049 474.856 854.64 475 854.208 475H850.938C850.506 475 850.196 474.878 850.008 474.635C849.82 474.38 849.726 474.159 849.726 473.971C849.737 473.783 849.759 473.617 849.792 473.473ZM858.524 464.558H869.1V455.892H864.368C863.306 455.892 862.376 456.196 861.579 456.805C860.793 457.402 860.262 458.21 859.985 459.229L858.524 464.558Z" fill="#2F2E41"/>
<path d="M617.342 237.196L616.758 218.792C616.749 218.493 616.866 218.203 617.081 217.994C617.295 217.786 617.589 217.676 617.888 217.694L632.492 218.57C632.787 218.588 633.064 218.729 633.251 218.957C633.439 219.185 633.524 219.484 633.484 219.777L631.014 238.069C630.939 238.622 630.444 239.027 629.887 238.99L618.337 238.226C618.22 238.218 618.108 238.192 618.005 238.15C617.623 237.996 617.355 237.629 617.342 237.196Z" fill="#2F2E41"/>
<path d="M618.488 235.398L618 218.981C617.993 218.715 618.091 218.455 618.27 218.269C618.449 218.083 618.695 217.986 618.945 218.002L631.162 218.783C631.408 218.799 631.64 218.925 631.797 219.128C631.954 219.332 632.025 219.598 631.992 219.859L629.925 236.176C629.863 236.67 629.449 237.031 628.983 236.998L619.321 236.317C619.223 236.31 619.13 236.286 619.043 236.249C618.724 236.111 618.5 235.784 618.488 235.398Z" fill="white"/>
<path d="M616.775 217.07C616.98 217.049 617.253 217.022 617.582 216.995C617.494 216.831 617.458 216.638 617.496 216.439L617.756 215.061C617.824 214.703 618.112 214.429 618.473 214.38C620.624 214.093 628.02 213.313 632.677 215.426C632.968 215.558 633.156 215.848 633.165 216.168L633.207 217.639C633.213 217.82 633.16 217.989 633.067 218.129C633.454 218.233 633.84 218.343 634.223 218.463C634.463 218.538 634.635 218.75 634.664 219L634.736 219.626C634.782 220.024 634.456 220.365 634.057 220.338L616.597 219.159C616.2 219.132 615.923 218.753 616.019 218.367L616.22 217.553C616.285 217.291 616.507 217.099 616.775 217.07Z" fill="#3F3D56"/>
</g>
<defs>
<clipPath id="clip0_2328_1329">
<rect width="990" height="517" fill="white"/>
</clipPath>
</defs>
</svg>
