<svg width="990" height="175" viewBox="0 0 990 175" fill="none" xmlns="http://www.w3.org/2000/svg">
<g clip-path="url(#clip0_2991_508)">
<path d="M327 46.9072C327 46.2542 327.193 45.7894 327.581 45.5127C327.968 45.2249 328.344 45.0811 328.71 45.0811H330.685C331.681 45.0811 332.44 45.6234 332.96 46.708C333.48 47.7926 334.648 48.335 336.463 48.335L342.273 48.4512C344.221 48.4512 345.195 47.8148 345.195 46.542C345.195 45.5791 344.005 44.821 341.626 44.2676C340.563 44.013 339.39 43.764 338.106 43.5205C336.822 43.266 335.544 42.9505 334.271 42.5742C333.01 42.1979 331.847 41.7552 330.785 41.2461C329.722 40.737 328.859 40.0397 328.195 39.1543C327.542 38.2578 327.216 37.2064 327.216 36C327.216 33.7754 328.007 32.0654 329.59 30.8701C331.172 29.6637 333.895 29.0605 337.758 29.0605L341.974 29.1602C344.243 29.1602 346.285 29.7467 348.1 30.9199C349.927 32.082 350.84 33.5374 350.84 35.2861C350.84 35.9391 350.646 36.4095 350.259 36.6973C349.871 36.985 349.5 37.1289 349.146 37.1289H347.171C346.175 37.1289 345.416 36.5866 344.896 35.502C344.376 34.4062 343.208 33.8584 341.393 33.8584L336.396 33.7588C334.448 33.7588 333.474 34.3952 333.474 35.668C333.474 36.3652 334.089 36.9352 335.317 37.3779C336.557 37.8206 338.051 38.2135 339.8 38.5566C341.559 38.8887 343.325 39.2926 345.095 39.7686C346.866 40.2445 348.366 41.0303 349.594 42.126C350.834 43.2106 351.454 44.5664 351.454 46.1934C351.454 48.418 350.657 50.1335 349.063 51.3398C347.481 52.5352 344.763 53.1328 340.912 53.1328L335.882 53.0332C333.613 53.0332 331.565 52.4521 329.739 51.29C327.913 50.1169 327 48.6559 327 46.9072ZM352.898 51.4727L357.065 35.668C358.194 31.3626 361.869 29.2044 368.089 29.1934H377.037C377.446 29.1934 377.784 29.3483 378.05 29.6582C378.326 29.9681 378.465 30.3278 378.465 30.7373V51.4727C378.465 51.9043 378.31 52.2695 378 52.5684C377.69 52.8561 377.319 53 376.887 53H373.766C373.313 53 372.936 52.8561 372.637 52.5684C372.35 52.2695 372.206 51.8932 372.206 51.4395V47.2559H360.402L359.29 51.4395C359.179 51.8932 358.93 52.2695 358.543 52.5684C358.155 52.8561 357.746 53 357.314 53H354.044C353.612 53 353.302 52.8783 353.114 52.6348C352.926 52.3802 352.832 52.1589 352.832 51.9707C352.843 51.7826 352.865 51.6165 352.898 51.4727ZM361.631 42.5576H372.206V33.8916H367.474C366.412 33.8916 365.482 34.196 364.685 34.8047C363.899 35.4023 363.368 36.2103 363.092 37.2285L361.631 42.5576ZM383.213 51.4062V30.8037C383.213 30.3499 383.362 29.9681 383.661 29.6582C383.96 29.3483 384.325 29.1934 384.757 29.1934H391.513C391.945 29.1934 392.355 29.3483 392.742 29.6582C393.129 29.9681 393.389 30.3389 393.522 30.7705L398.42 44.9482L403.317 30.7705C403.45 30.3389 403.71 29.9681 404.097 29.6582C404.485 29.3483 404.894 29.1934 405.326 29.1934H412.083C412.514 29.1934 412.874 29.3483 413.162 29.6582C413.461 29.9681 413.61 30.3499 413.61 30.8037V51.4062C413.61 51.86 413.455 52.2419 413.145 52.5518C412.846 52.8506 412.481 53 412.05 53H409.061C408.63 53 408.259 52.8506 407.949 52.5518C407.65 52.2419 407.501 51.86 407.501 51.4062V35.1865L401.64 51.5059C401.485 51.9154 401.214 52.2695 400.827 52.5684C400.44 52.8561 400.03 53 399.598 53H397.224C396.793 53 396.383 52.8561 395.996 52.5684C395.62 52.2695 395.348 51.9154 395.182 51.5059L389.339 35.1865V51.4062C389.339 51.86 389.184 52.2419 388.874 52.5518C388.575 52.8506 388.21 53 387.778 53H384.79C384.358 53 383.987 52.8506 383.677 52.5518C383.368 52.2419 383.213 51.86 383.213 51.4062ZM418.375 51.4062V30.8037C418.375 30.3499 418.524 29.9681 418.823 29.6582C419.122 29.3483 419.487 29.1934 419.919 29.1934H426.676C427.107 29.1934 427.517 29.3483 427.904 29.6582C428.291 29.9681 428.552 30.3389 428.684 30.7705L433.582 44.9482L438.479 30.7705C438.612 30.3389 438.872 29.9681 439.26 29.6582C439.647 29.3483 440.056 29.1934 440.488 29.1934H447.245C447.677 29.1934 448.036 29.3483 448.324 29.6582C448.623 29.9681 448.772 30.3499 448.772 30.8037V51.4062C448.772 51.86 448.617 52.2419 448.307 52.5518C448.009 52.8506 447.643 53 447.212 53H444.223C443.792 53 443.421 52.8506 443.111 52.5518C442.812 52.2419 442.663 51.86 442.663 51.4062V35.1865L436.802 51.5059C436.648 51.9154 436.376 52.2695 435.989 52.5684C435.602 52.8561 435.192 53 434.76 53H432.386C431.955 53 431.545 52.8561 431.158 52.5684C430.782 52.2695 430.51 51.9154 430.344 51.5059L424.501 35.1865V51.4062C424.501 51.86 424.346 52.2419 424.036 52.5518C423.737 52.8506 423.372 53 422.94 53H419.952C419.52 53 419.149 52.8506 418.84 52.5518C418.53 52.2419 418.375 51.86 418.375 51.4062ZM465.125 43.5869V30.7705C465.125 30.3389 465.274 29.9681 465.573 29.6582C465.883 29.3483 466.265 29.1934 466.719 29.1934H469.823C470.244 29.1934 470.609 29.3483 470.919 29.6582C471.229 29.9681 471.384 30.3389 471.384 30.7705V43.6201C471.384 45.2471 471.738 46.459 472.446 47.2559C473.165 48.0527 474.272 48.4512 475.766 48.4512H478.423C479.917 48.4512 481.018 48.0527 481.726 47.2559C482.446 46.459 482.805 45.2471 482.805 43.6201V30.7705C482.805 30.3389 482.955 29.9681 483.254 29.6582C483.564 29.3483 483.934 29.1934 484.366 29.1934H487.454C487.908 29.1934 488.289 29.3483 488.599 29.6582C488.909 29.9681 489.064 30.3389 489.064 30.7705V43.5869C489.064 46.6195 488.173 48.9714 486.391 50.6426C484.609 52.3027 482.009 53.1328 478.589 53.1328H475.6C472.169 53.1328 469.563 52.3027 467.781 50.6426C466.01 48.9714 465.125 46.6195 465.125 43.5869ZM492.119 46.9072C492.119 46.2542 492.313 45.7894 492.7 45.5127C493.087 45.2249 493.464 45.0811 493.829 45.0811H495.804C496.801 45.0811 497.559 45.6234 498.079 46.708C498.599 47.7926 499.767 48.335 501.582 48.335L507.392 48.4512C509.34 48.4512 510.314 47.8148 510.314 46.542C510.314 45.5791 509.124 44.821 506.745 44.2676C505.682 44.013 504.509 43.764 503.225 43.5205C501.941 43.266 500.663 42.9505 499.39 42.5742C498.129 42.1979 496.967 41.7552 495.904 41.2461C494.842 40.737 493.978 40.0397 493.314 39.1543C492.661 38.2578 492.335 37.2064 492.335 36C492.335 33.7754 493.126 32.0654 494.709 30.8701C496.291 29.6637 499.014 29.0605 502.877 29.0605L507.094 29.1602C509.362 29.1602 511.404 29.7467 513.219 30.9199C515.046 32.082 515.959 33.5374 515.959 35.2861C515.959 35.9391 515.765 36.4095 515.378 36.6973C514.99 36.985 514.62 37.1289 514.265 37.1289H512.29C511.294 37.1289 510.536 36.5866 510.015 35.502C509.495 34.4062 508.328 33.8584 506.512 33.8584L501.515 33.7588C499.567 33.7588 498.594 34.3952 498.594 35.668C498.594 36.3652 499.208 36.9352 500.436 37.3779C501.676 37.8206 503.17 38.2135 504.919 38.5566C506.678 38.8887 508.444 39.2926 510.215 39.7686C511.985 40.2445 513.485 41.0303 514.714 42.126C515.953 43.2106 516.573 44.5664 516.573 46.1934C516.573 48.418 515.776 50.1335 514.182 51.3398C512.6 52.5352 509.883 53.1328 506.031 53.1328L501.001 53.0332C498.732 53.0332 496.684 52.4521 494.858 51.29C493.032 50.1169 492.119 48.6559 492.119 46.9072ZM519.976 51.4062V30.7373C519.976 30.3057 520.131 29.9404 520.441 29.6416C520.751 29.3428 521.122 29.1934 521.553 29.1934H540.695C541.127 29.1934 541.492 29.3483 541.791 29.6582C542.101 29.9681 542.256 30.3389 542.256 30.7705V32.3311C542.256 32.7627 542.101 33.1335 541.791 33.4434C541.492 33.7422 541.127 33.8916 540.695 33.8916H526.235V38.7227H538.686C539.118 38.7227 539.483 38.8776 539.782 39.1875C540.092 39.4863 540.247 39.8516 540.247 40.2832V41.8438C540.247 42.2754 540.092 42.6462 539.782 42.9561C539.483 43.2549 539.118 43.4043 538.686 43.4043H526.235V48.3018H540.662C541.082 48.3018 541.442 48.4512 541.741 48.75C542.04 49.0488 542.189 49.4141 542.189 49.8457V51.4395C542.189 51.8711 542.034 52.2419 541.724 52.5518C541.414 52.8506 541.044 53 540.612 53H521.553C521.122 53 520.751 52.8506 520.441 52.5518C520.131 52.2419 519.976 51.86 519.976 51.4062ZM570.03 52.2861C570.03 52.762 569.748 53 569.183 53H565.199C564.778 53 564.314 52.8506 563.804 52.5518C563.306 52.2419 562.925 51.8711 562.659 51.4395L559.837 47.0234C558.675 45.2083 557.269 44.3008 555.62 44.3008H551.569V51.4395C551.569 51.8711 551.414 52.2419 551.104 52.5518C550.805 52.8506 550.44 53 550.009 53H546.887C546.456 53 546.085 52.8506 545.775 52.5518C545.465 52.2419 545.31 51.8711 545.31 51.4395V30.7705C545.31 30.3389 545.46 29.9681 545.759 29.6582C546.057 29.3483 546.423 29.1934 546.854 29.1934H560.551C563.085 29.1934 565.16 29.874 566.776 31.2354C568.403 32.5967 569.217 34.4339 569.217 36.7471C569.217 39.9678 567.13 41.9876 562.958 42.8066C563.622 43.0501 564.236 43.4707 564.801 44.0684C565.365 44.6549 566.012 45.5127 566.743 46.6416L569.764 51.4395C569.941 51.7493 570.03 52.0316 570.03 52.2861ZM551.569 39.6025H558.641C559.781 39.6025 560.783 39.3757 561.646 38.9219C562.521 38.4681 562.958 37.7432 562.958 36.7471C562.958 35.751 562.521 35.026 561.646 34.5723C560.783 34.1185 559.781 33.8916 558.641 33.8916H551.569V39.6025ZM584.722 51.4727V30.8037C584.722 30.3499 584.877 29.9681 585.187 29.6582C585.497 29.3483 585.868 29.1934 586.3 29.1934H595.58C600.383 29.1934 603.875 30.1562 606.055 32.082C608.247 33.9967 609.343 37.0072 609.343 41.1133C609.343 45.2083 608.247 48.2132 606.055 50.1279C603.875 52.0426 600.383 53 595.58 53H586.3C585.868 53 585.497 52.8561 585.187 52.5684C584.877 52.2695 584.722 51.9043 584.722 51.4727ZM590.981 48.3018H595.397C598.374 48.3018 600.4 47.7594 601.473 46.6748C602.547 45.5902 603.084 43.7363 603.084 41.1133C603.084 38.4792 602.547 36.6198 601.473 35.5352C600.4 34.4395 598.374 33.8916 595.397 33.8916H590.981V48.3018ZM610.787 51.4727L614.954 35.668C616.083 31.3626 619.757 29.2044 625.977 29.1934H634.926C635.335 29.1934 635.673 29.3483 635.938 29.6582C636.215 29.9681 636.353 30.3278 636.353 30.7373V51.4727C636.353 51.9043 636.198 52.2695 635.888 52.5684C635.579 52.8561 635.208 53 634.776 53H631.655C631.201 53 630.825 52.8561 630.526 52.5684C630.238 52.2695 630.094 51.8932 630.094 51.4395V47.2559H618.291L617.178 51.4395C617.068 51.8932 616.819 52.2695 616.431 52.5684C616.044 52.8561 615.635 53 615.203 53H611.932C611.501 53 611.191 52.8783 611.003 52.6348C610.815 52.3802 610.72 52.1589 610.72 51.9707C610.732 51.7826 610.754 51.6165 610.787 51.4727ZM619.519 42.5576H630.094V33.8916H625.363C624.301 33.8916 623.371 34.196 622.574 34.8047C621.788 35.4023 621.257 36.2103 620.98 37.2285L619.519 42.5576ZM639.059 29.9902C639.059 29.459 639.347 29.1934 639.923 29.1934H643.077C644.328 29.1934 645.29 29.7191 645.966 30.7705L651.344 39.0547L656.707 30.7705C657.393 29.7191 658.356 29.1934 659.595 29.1934H662.766C663.331 29.1934 663.613 29.459 663.613 29.9902C663.613 30.2337 663.524 30.4938 663.347 30.7705L654.466 44.5V51.4727C654.466 51.9043 654.311 52.2695 654.001 52.5684C653.702 52.8561 653.337 53 652.905 53H649.784C649.352 53 648.982 52.8561 648.672 52.5684C648.362 52.2695 648.207 51.9043 648.207 51.4727V44.5L639.342 30.7705C639.153 30.4938 639.059 30.2337 639.059 29.9902Z" fill="#2F2E41"/>
<path d="M990 77H0V175H990V77Z" fill="#71B8B8"/>
<path d="M989 1H1V175H989V1Z" stroke="#71B8B8" stroke-width="2"/>
<path d="M114.643 131.439V110.771C114.643 110.339 114.792 109.968 115.091 109.658C115.39 109.348 115.755 109.193 116.187 109.193H121.067C121.455 109.193 121.864 109.348 122.296 109.658C122.728 109.968 123.082 110.339 123.358 110.771L133.386 126.193V110.737C133.386 110.306 133.535 109.94 133.834 109.642C134.144 109.343 134.515 109.193 134.946 109.193H137.802C138.233 109.193 138.599 109.343 138.897 109.642C139.207 109.94 139.362 110.317 139.362 110.771V131.439C139.362 131.871 139.207 132.242 138.897 132.552C138.599 132.851 138.233 133 137.802 133H132.29C131.858 133 131.416 132.851 130.962 132.552C130.508 132.242 130.148 131.871 129.883 131.439L120.702 117.195V131.439C120.702 131.871 120.547 132.242 120.237 132.552C119.939 132.851 119.573 133 119.142 133H116.22C115.788 133 115.417 132.851 115.107 132.552C114.798 132.242 114.643 131.871 114.643 131.439ZM145.355 130.941C143.629 129.348 142.766 127.001 142.766 123.902C142.766 120.792 143.629 118.446 145.355 116.863C147.082 115.27 149.561 114.473 152.793 114.473C156.036 114.473 158.521 115.27 160.247 116.863C161.974 118.446 162.837 120.792 162.837 123.902C162.837 127.001 161.974 129.348 160.247 130.941C158.521 132.535 156.036 133.332 152.793 133.332C149.561 133.332 147.082 132.535 145.355 130.941ZM149.556 119.586C148.869 120.482 148.526 121.916 148.526 123.886C148.526 125.856 148.869 127.295 149.556 128.202C150.242 129.11 151.321 129.563 152.793 129.563C154.276 129.563 155.361 129.11 156.047 128.202C156.744 127.295 157.093 125.856 157.093 123.886C157.093 121.916 156.744 120.482 156.047 119.586C155.361 118.689 154.276 118.241 152.793 118.241C151.321 118.241 150.242 118.689 149.556 119.586ZM164.73 114.805H167.917C168.393 114.805 168.841 114.943 169.262 115.22C169.682 115.485 169.981 115.834 170.158 116.266L174.69 126.608L179.206 116.266C179.383 115.834 179.682 115.485 180.103 115.22C180.523 114.943 180.971 114.805 181.447 114.805H184.651C185.039 114.805 185.293 114.949 185.415 115.236C185.47 115.347 185.493 115.491 185.481 115.668C185.481 115.834 185.432 116.033 185.332 116.266L178.16 131.539C177.961 131.971 177.646 132.325 177.214 132.602C176.793 132.867 176.356 133 175.902 133H173.462C173.008 133 172.571 132.867 172.15 132.602C171.73 132.325 171.42 131.971 171.221 131.539L164.049 116.266C163.938 116.022 163.883 115.817 163.883 115.651C163.883 115.087 164.165 114.805 164.73 114.805ZM189.084 130.908C187.38 129.292 186.527 126.968 186.527 123.936C186.527 120.892 187.385 118.557 189.101 116.93C190.816 115.292 193.196 114.473 196.239 114.473C199.283 114.473 201.657 115.27 203.361 116.863C205.066 118.446 205.918 120.72 205.918 123.687V124.633C205.918 124.932 205.818 125.181 205.619 125.38C205.431 125.568 205.188 125.662 204.889 125.662H192.388C192.498 127.023 192.886 128.014 193.55 128.634C194.225 129.254 195.299 129.563 196.771 129.563C198.243 129.563 199.25 129.231 199.792 128.567C200.334 127.903 201.004 127.566 201.801 127.555H204.274C204.573 127.555 204.817 127.654 205.005 127.854C205.204 128.042 205.304 128.285 205.304 128.584C205.304 131.76 202.277 133.343 196.223 133.332C193.168 133.332 190.788 132.524 189.084 130.908ZM192.355 122.159H200.074C199.964 119.547 198.68 118.241 196.223 118.241C193.777 118.241 192.487 119.547 192.355 122.159ZM208.973 131.987V115.834C208.973 115.535 209.067 115.292 209.255 115.104C209.454 114.904 209.698 114.805 209.985 114.805H213.704C214.003 114.805 214.246 114.904 214.435 115.104C214.623 115.292 214.717 115.535 214.717 115.834V116.88C215.514 116.105 216.294 115.513 217.058 115.104C217.832 114.683 218.762 114.473 219.847 114.473C222.425 114.473 224.379 115.535 225.707 117.66C227.766 115.524 229.874 114.462 232.032 114.473C234.202 114.473 235.911 115.126 237.162 116.432C238.424 117.727 239.055 119.735 239.055 122.458V131.987C239.055 132.286 238.961 132.53 238.772 132.718C238.584 132.906 238.341 133 238.042 133H234.34C234.041 133 233.792 132.906 233.593 132.718C233.405 132.519 233.311 132.275 233.311 131.987V122.458C233.311 119.802 232.348 118.479 230.422 118.49C229.249 118.49 228.037 119.337 226.786 121.03C226.853 121.506 226.886 121.982 226.886 122.458V131.987C226.886 132.286 226.786 132.53 226.587 132.718C226.399 132.906 226.161 133 225.873 133H222.171C221.872 133 221.623 132.906 221.424 132.718C221.236 132.519 221.142 132.275 221.142 131.987V122.458C221.142 119.802 220.179 118.479 218.253 118.49C217.024 118.49 215.846 119.282 214.717 120.864V131.987C214.717 132.286 214.617 132.53 214.418 132.718C214.23 132.906 213.992 133 213.704 133H209.985C209.687 133 209.443 132.906 209.255 132.718C209.067 132.53 208.973 132.286 208.973 131.987ZM243.139 110.223C243.139 109.924 243.233 109.68 243.421 109.492C243.62 109.293 243.864 109.193 244.151 109.193H247.87C248.158 109.193 248.396 109.293 248.584 109.492C248.783 109.68 248.883 109.924 248.883 110.223V115.319C250.676 114.755 252.275 114.473 253.681 114.473C256.403 114.473 258.567 115.286 260.172 116.913C261.777 118.529 262.579 120.864 262.579 123.919C262.579 130.194 259.065 133.332 252.037 133.332C250.432 133.332 248.767 133.155 247.04 132.801C245.325 132.436 244.024 131.993 243.139 131.473V110.223ZM248.883 119.154V128.949C249.835 129.204 251.047 129.331 252.519 129.331C253.991 129.331 255.048 128.905 255.689 128.053C256.342 127.201 256.669 125.823 256.669 123.919C256.669 122.015 256.348 120.637 255.706 119.785C255.075 118.922 254.002 118.49 252.485 118.49C251.511 118.49 250.311 118.712 248.883 119.154ZM267.178 130.908C265.473 129.292 264.621 126.968 264.621 123.936C264.621 120.892 265.479 118.557 267.194 116.93C268.91 115.292 271.289 114.473 274.333 114.473C277.377 114.473 279.751 115.27 281.455 116.863C283.16 118.446 284.012 120.72 284.012 123.687V124.633C284.012 124.932 283.912 125.181 283.713 125.38C283.525 125.568 283.281 125.662 282.982 125.662H270.481C270.592 127.023 270.98 128.014 271.644 128.634C272.319 129.254 273.392 129.563 274.864 129.563C276.336 129.563 277.343 129.231 277.886 128.567C278.428 127.903 279.098 127.566 279.895 127.555H282.368C282.667 127.555 282.911 127.654 283.099 127.854C283.298 128.042 283.397 128.285 283.397 128.584C283.397 131.76 280.37 133.343 274.316 133.332C271.262 133.332 268.882 132.524 267.178 130.908ZM270.448 122.159H278.168C278.057 119.547 276.773 118.241 274.316 118.241C271.87 118.241 270.581 119.547 270.448 122.159ZM299.65 119.021L297.094 118.922C295.6 118.922 294.172 119.741 292.811 121.379V131.987C292.811 132.286 292.711 132.53 292.512 132.718C292.324 132.906 292.086 133 291.798 133H288.079C287.78 133 287.537 132.906 287.349 132.718C287.161 132.53 287.066 132.286 287.066 131.987V115.834C287.066 115.535 287.161 115.292 287.349 115.104C287.548 114.904 287.791 114.805 288.079 114.805H291.798C292.097 114.805 292.34 114.904 292.528 115.104C292.716 115.292 292.811 115.535 292.811 115.834V116.88C293.939 116.061 295.024 115.458 296.064 115.07C297.116 114.672 298.488 114.473 300.182 114.473C300.48 114.473 300.724 114.572 300.912 114.771C301.111 114.96 301.211 115.198 301.211 115.485V118.009C301.211 118.308 301.111 118.551 300.912 118.739C300.724 118.927 300.48 119.021 300.182 119.021H299.65ZM313.712 114.987C313.579 114.799 313.513 114.578 313.513 114.323C313.513 114.069 313.695 113.786 314.061 113.477L318.111 109.99C318.698 109.47 319.511 109.204 320.552 109.193H322.992C323.446 109.193 323.828 109.348 324.138 109.658C324.448 109.968 324.603 110.339 324.603 110.771V131.439C324.603 131.871 324.442 132.242 324.121 132.552C323.8 132.851 323.424 133 322.992 133H319.904C319.473 133 319.102 132.856 318.792 132.568C318.493 132.27 318.344 131.904 318.344 131.473V115.419L316.435 116.813C316.213 116.968 315.959 117.018 315.671 116.963C315.383 116.908 315.151 116.78 314.974 116.581L313.712 114.987ZM332.638 127.621C334.065 127.621 334.779 128.147 334.779 129.198C334.779 129.486 334.702 129.824 334.547 130.211L332.571 135.208C332.339 135.75 331.99 136.204 331.525 136.569C331.061 136.935 330.535 137.117 329.948 137.117H329.301C328.604 137.117 328.161 136.968 327.973 136.669C327.796 136.381 327.707 136.082 327.707 135.772C327.707 135.463 327.729 135.164 327.773 134.876L328.753 129.53C328.853 129.01 329.157 128.562 329.666 128.186C330.175 127.809 330.712 127.621 331.276 127.621H332.638ZM349.09 131.439V129.016C349.09 127.61 349.378 126.393 349.953 125.363C350.54 124.334 351.287 123.526 352.194 122.939C353.102 122.353 354.109 121.849 355.216 121.429C356.323 121.008 357.429 120.671 358.536 120.416C359.654 120.15 360.667 119.885 361.574 119.619C363.633 118.999 364.662 118.119 364.662 116.979C364.662 115.74 364.341 114.893 363.699 114.439C363.057 113.986 361.973 113.759 360.445 113.759H359.267C357.131 113.759 355.725 114.439 355.05 115.801C354.552 116.841 353.805 117.361 352.809 117.361H350.833C350.291 117.361 349.87 117.168 349.571 116.78C349.272 116.393 349.123 115.972 349.123 115.519C349.123 114.257 349.605 113.122 350.567 112.115C351.541 111.097 352.748 110.333 354.187 109.824C355.625 109.315 357.125 109.061 358.686 109.061H360.927C365.786 109.061 368.862 110.411 370.157 113.111C370.666 114.174 370.921 115.408 370.921 116.813C370.921 118.219 370.633 119.414 370.058 120.399C369.482 121.384 368.741 122.17 367.833 122.757C366.925 123.332 365.913 123.83 364.795 124.251C363.688 124.672 362.581 125.02 361.475 125.297C360.368 125.562 359.361 125.817 358.453 126.061C356.383 126.636 355.349 127.383 355.349 128.302H369.128C369.582 128.302 369.958 128.457 370.257 128.767C370.567 129.076 370.722 129.447 370.722 129.879V131.439C370.722 131.871 370.561 132.242 370.24 132.552C369.93 132.851 369.56 133 369.128 133H350.7C350.269 133 349.892 132.851 349.571 132.552C349.25 132.242 349.09 131.871 349.09 131.439ZM372.963 121.097C372.963 118.872 373.267 116.963 373.876 115.369C374.496 113.775 375.37 112.53 376.499 111.634C378.646 109.918 381.446 109.061 384.899 109.061H386.062C389.515 109.061 392.315 109.918 394.462 111.634C396.819 113.515 397.998 116.67 397.998 121.097C397.998 125.546 396.819 128.706 394.462 130.576C392.315 132.281 389.515 133.133 386.062 133.133H384.899C381.446 133.133 378.646 132.281 376.499 130.576C374.142 128.706 372.963 125.546 372.963 121.097ZM385.48 113.759C381.308 113.759 379.222 116.21 379.222 121.113C379.222 126.005 381.308 128.451 385.48 128.451C389.653 128.451 391.739 126.005 391.739 121.113C391.739 116.21 389.653 113.759 385.48 113.759ZM400.023 131.439V129.016C400.023 127.61 400.311 126.393 400.887 125.363C401.473 124.334 402.22 123.526 403.128 122.939C404.036 122.353 405.043 121.849 406.149 121.429C407.256 121.008 408.363 120.671 409.47 120.416C410.588 120.15 411.6 119.885 412.508 119.619C414.566 118.999 415.596 118.119 415.596 116.979C415.596 115.74 415.275 114.893 414.633 114.439C413.991 113.986 412.906 113.759 411.379 113.759H410.2C408.064 113.759 406.659 114.439 405.983 115.801C405.485 116.841 404.738 117.361 403.742 117.361H401.767C401.224 117.361 400.804 117.168 400.505 116.78C400.206 116.393 400.057 115.972 400.057 115.519C400.057 114.257 400.538 113.122 401.501 112.115C402.475 111.097 403.681 110.333 405.12 109.824C406.559 109.315 408.059 109.061 409.619 109.061H411.86C416.719 109.061 419.796 110.411 421.091 113.111C421.6 114.174 421.855 115.408 421.855 116.813C421.855 118.219 421.567 119.414 420.991 120.399C420.416 121.384 419.674 122.17 418.767 122.757C417.859 123.332 416.846 123.83 415.729 124.251C414.622 124.672 413.515 125.02 412.408 125.297C411.301 125.562 410.294 125.817 409.387 126.061C407.317 126.636 406.282 127.383 406.282 128.302H420.062C420.515 128.302 420.892 128.457 421.19 128.767C421.5 129.076 421.655 129.447 421.655 129.879V131.439C421.655 131.871 421.495 132.242 421.174 132.552C420.864 132.851 420.493 133 420.062 133H401.634C401.202 133 400.826 132.851 400.505 132.552C400.184 132.242 400.023 131.871 400.023 131.439ZM423.73 126.509C423.73 125.845 423.924 125.374 424.312 125.098C424.699 124.81 425.075 124.666 425.44 124.666H427.399C428.429 124.666 429.237 125.297 429.823 126.559C430.41 127.82 431.76 128.451 433.874 128.451H436.248C437.609 128.451 438.605 128.257 439.236 127.87C439.867 127.483 440.183 126.824 440.183 125.895C440.183 124.965 439.867 124.306 439.236 123.919C438.605 123.532 437.609 123.338 436.248 123.338H433.26C432.828 123.338 432.457 123.188 432.147 122.89C431.838 122.58 431.683 122.209 431.683 121.777V120.416C431.683 120.007 431.832 119.647 432.131 119.337C432.43 119.016 432.784 118.855 433.193 118.855H435.634C437.106 118.855 438.174 118.662 438.838 118.274C439.513 117.887 439.851 117.229 439.851 116.299C439.851 115.369 439.513 114.716 438.838 114.34C438.174 113.952 437.106 113.759 435.634 113.759H434.405C432.28 113.759 430.875 114.439 430.189 115.801C429.69 116.841 428.943 117.361 427.947 117.361H425.972C425.44 117.361 425.025 117.168 424.727 116.78C424.428 116.393 424.278 115.972 424.278 115.519C424.278 114.257 424.76 113.122 425.723 112.115C426.686 111.097 427.886 110.333 429.325 109.824C430.764 109.315 432.264 109.061 433.824 109.061H436.115C442.778 109.061 446.109 111.484 446.109 116.332C446.109 118.357 445.351 119.946 443.835 121.097C445.573 122.192 446.441 123.792 446.441 125.895C446.441 128.451 445.622 130.299 443.984 131.439C442.357 132.568 439.972 133.133 436.829 133.133H433.293C430.814 133.133 428.6 132.524 426.652 131.307C424.704 130.078 423.73 128.479 423.73 126.509ZM460.088 123.554V121.578C460.088 121.279 460.182 121.036 460.37 120.848C460.569 120.648 460.813 120.549 461.101 120.549H473.618C473.917 120.549 474.161 120.648 474.349 120.848C474.548 121.036 474.647 121.279 474.647 121.578V123.554C474.647 123.853 474.548 124.096 474.349 124.284C474.161 124.472 473.917 124.566 473.618 124.566H461.101C460.802 124.566 460.558 124.472 460.37 124.284C460.182 124.096 460.088 123.853 460.088 123.554ZM487.647 110.588C487.591 110.455 487.563 110.306 487.563 110.14C487.563 109.963 487.658 109.763 487.846 109.542C488.045 109.31 488.338 109.193 488.726 109.193H492.361C492.793 109.193 493.191 109.343 493.557 109.642C493.922 109.94 494.182 110.317 494.337 110.771L498.72 123.919L502.771 110.771C503.091 109.719 503.75 109.193 504.746 109.193H507.801C508.797 109.193 509.455 109.719 509.776 110.771L513.827 123.919L518.21 110.771C518.365 110.317 518.625 109.94 518.99 109.642C519.355 109.343 519.754 109.193 520.186 109.193H523.821C524.198 109.193 524.48 109.31 524.668 109.542C524.867 109.763 524.967 109.963 524.967 110.14C524.967 110.306 524.945 110.455 524.9 110.588L517.496 131.307C517.087 132.436 516.29 133 515.105 133H512.698C511.47 133 510.678 132.436 510.324 131.307L506.273 118.523L502.223 131.307C501.857 132.436 501.066 133 499.849 133H497.425C496.252 133 495.46 132.436 495.051 131.307L487.647 110.588ZM527.689 131.805C526.229 130.786 525.498 129.348 525.498 127.488C525.498 125.629 526.229 124.201 527.689 123.205C529.161 122.209 531.054 121.711 533.367 121.711H538.862C538.862 120.416 538.591 119.514 538.049 119.005C537.507 118.496 536.555 118.241 535.193 118.241C533.843 118.241 532.891 118.579 532.338 119.254C531.796 119.918 531.126 120.25 530.329 120.25H527.855C527.557 120.25 527.308 120.156 527.108 119.968C526.92 119.769 526.826 119.525 526.826 119.237C526.826 116.061 529.842 114.473 535.874 114.473C538.508 114.473 540.622 115.065 542.216 116.249C543.81 117.422 544.606 119.243 544.606 121.711V131.987C544.606 132.286 544.512 132.53 544.324 132.718C544.136 132.906 543.893 133 543.594 133H540.39C540.091 133 539.847 132.906 539.659 132.718C539.471 132.519 539.377 132.275 539.377 131.987V131.473C537.628 132.723 535.608 133.343 533.317 133.332C531.037 133.332 529.161 132.823 527.689 131.805ZM533.766 125.479C532.991 125.479 532.377 125.668 531.923 126.044C531.48 126.42 531.259 126.907 531.259 127.505C531.259 128.103 531.491 128.595 531.956 128.982C532.421 129.37 533.079 129.563 533.932 129.563C535.636 129.563 537.28 129.065 538.862 128.069V125.479H533.766ZM547.678 119.835C547.678 116.26 550.561 114.473 556.327 114.473C562.392 114.473 565.425 116.061 565.425 119.237C565.425 119.525 565.331 119.769 565.143 119.968C564.954 120.156 564.711 120.25 564.412 120.25H561.939C561.142 120.25 560.472 119.918 559.93 119.254C559.387 118.579 558.319 118.241 556.726 118.241C554.534 118.241 553.439 118.772 553.439 119.835C553.439 120.333 553.865 120.748 554.717 121.08C555.58 121.412 556.626 121.705 557.855 121.96C559.094 122.203 560.328 122.519 561.557 122.906C562.785 123.294 563.826 123.913 564.678 124.766C565.541 125.607 565.973 126.675 565.973 127.97C565.973 131.545 562.929 133.332 556.842 133.332C550.755 133.332 547.711 131.749 547.711 128.584C547.711 128.285 547.805 128.042 547.993 127.854C548.192 127.654 548.441 127.555 548.74 127.555H551.214C552.011 127.555 552.68 127.892 553.223 128.567C553.765 129.231 554.833 129.563 556.427 129.563C558.961 129.563 560.229 129.032 560.229 127.97C560.229 127.472 559.797 127.057 558.934 126.725C558.081 126.393 557.036 126.099 555.796 125.845C554.556 125.579 553.322 125.258 552.094 124.882C550.876 124.494 549.836 123.875 548.973 123.022C548.109 122.17 547.678 121.108 547.678 119.835ZM569.061 131.987V110.223C569.061 109.924 569.155 109.68 569.343 109.492C569.542 109.293 569.786 109.193 570.073 109.193H573.792C574.08 109.193 574.318 109.293 574.506 109.492C574.705 109.68 574.805 109.924 574.805 110.223V116.88C576.708 115.275 578.734 114.473 580.881 114.473C583.039 114.473 584.793 115.131 586.144 116.448C587.494 117.754 588.169 119.757 588.169 122.458V131.987C588.169 132.275 588.069 132.519 587.87 132.718C587.682 132.906 587.439 133 587.14 133H583.438C583.15 133 582.906 132.906 582.707 132.718C582.519 132.519 582.425 132.275 582.425 131.987V122.458C582.425 119.813 581.368 118.49 579.254 118.49C577.87 118.49 576.387 119.282 574.805 120.864V131.987C574.805 132.275 574.705 132.519 574.506 132.718C574.318 132.906 574.08 133 573.792 133H570.073C569.786 133 569.542 132.906 569.343 132.718C569.155 132.519 569.061 132.275 569.061 131.987ZM592.27 111.335V110.771C592.27 110.184 592.436 109.719 592.768 109.376C593.111 109.033 593.581 108.861 594.179 108.861H596.237C596.824 108.861 597.289 109.033 597.632 109.376C597.975 109.708 598.147 110.173 598.147 110.771V111.335C598.147 111.922 597.975 112.386 597.632 112.729C597.3 113.073 596.835 113.244 596.237 113.244H594.179C593.592 113.244 593.127 113.073 592.784 112.729C592.441 112.386 592.27 111.922 592.27 111.335ZM592.336 131.987V116.232C592.336 115.934 592.43 115.69 592.618 115.502C592.817 115.314 593.061 115.22 593.349 115.22H597.067C597.366 115.22 597.61 115.319 597.798 115.519C597.986 115.707 598.08 115.945 598.08 116.232V131.987C598.08 132.286 597.98 132.53 597.781 132.718C597.593 132.906 597.355 133 597.067 133H593.349C593.05 133 592.806 132.906 592.618 132.718C592.43 132.53 592.336 132.286 592.336 131.987ZM602.23 131.987V115.834C602.23 115.535 602.325 115.292 602.513 115.104C602.712 114.904 602.955 114.805 603.243 114.805H606.962C607.25 114.805 607.488 114.904 607.676 115.104C607.875 115.292 607.975 115.535 607.975 115.834V116.88C609.878 115.275 611.904 114.473 614.051 114.473C616.209 114.473 617.963 115.131 619.313 116.448C620.664 117.754 621.339 119.757 621.339 122.458V131.987C621.339 132.275 621.239 132.519 621.04 132.718C620.852 132.906 620.608 133 620.31 133H616.607C616.32 133 616.076 132.906 615.877 132.718C615.689 132.519 615.595 132.275 615.595 131.987V122.458C615.595 119.813 614.538 118.49 612.424 118.49C611.04 118.49 609.557 119.282 607.975 120.864V131.987C607.975 132.275 607.875 132.519 607.676 132.718C607.488 132.906 607.25 133 606.962 133H603.243C602.955 133 602.712 132.906 602.513 132.718C602.325 132.519 602.23 132.275 602.23 131.987ZM632.811 131.605C630.298 131.605 628.267 130.847 626.718 129.331C625.179 127.815 624.41 125.712 624.41 123.022C624.41 120.333 625.29 118.236 627.05 116.73C628.81 115.225 631.333 114.473 634.62 114.473C636.225 114.473 637.891 114.655 639.617 115.021C641.344 115.375 642.644 115.812 643.519 116.332V131.705C643.519 134.173 642.705 135.994 641.078 137.167C639.451 138.351 637.166 138.943 634.222 138.943C631.289 138.943 629.025 138.573 627.432 137.831C625.849 137.101 625.058 135.889 625.058 134.195C625.058 133.896 625.152 133.647 625.34 133.448C625.539 133.26 625.788 133.166 626.087 133.166H628.561C629.357 133.166 629.994 133.459 630.47 134.046C631.078 134.799 632.158 135.175 633.707 135.175C635.268 135.175 636.336 134.92 636.911 134.411C637.487 133.902 637.774 133 637.774 131.705V130.925C636.004 131.379 634.349 131.605 632.811 131.605ZM634.272 118.49C631.648 118.479 630.337 119.995 630.337 123.039C630.337 126.072 631.615 127.588 634.172 127.588C635.234 127.588 636.435 127.422 637.774 127.09V118.855C636.823 118.601 635.655 118.479 634.272 118.49ZM656.285 129.397L658.56 129.198H659.174C659.473 129.198 659.716 129.292 659.904 129.48C660.104 129.669 660.203 129.912 660.203 130.211V131.987C660.203 132.231 660.104 132.452 659.904 132.651C659.716 132.84 659.473 132.956 659.174 133C658.045 133.221 656.573 133.332 654.758 133.332C649.999 133.332 647.619 130.842 647.619 125.861V110.223C647.619 109.924 647.713 109.68 647.901 109.492C648.101 109.293 648.344 109.193 648.632 109.193H652.351C652.638 109.193 652.876 109.293 653.064 109.492C653.264 109.68 653.363 109.924 653.363 110.223V115.768H657.995C658.283 115.768 658.521 115.862 658.709 116.05C658.908 116.238 659.008 116.481 659.008 116.78V118.756C659.008 119.055 658.908 119.298 658.709 119.486C658.521 119.674 658.283 119.769 657.995 119.769H653.363V125.861C653.363 126.99 653.629 127.865 654.16 128.484C654.691 129.093 655.4 129.397 656.285 129.397ZM664.32 130.941C662.594 129.348 661.73 127.001 661.73 123.902C661.73 120.792 662.594 118.446 664.32 116.863C666.047 115.27 668.526 114.473 671.758 114.473C675.001 114.473 677.485 115.27 679.212 116.863C680.939 118.446 681.802 120.792 681.802 123.902C681.802 127.001 680.939 129.348 679.212 130.941C677.485 132.535 675.001 133.332 671.758 133.332C668.526 133.332 666.047 132.535 664.32 130.941ZM668.521 119.586C667.834 120.482 667.491 121.916 667.491 123.886C667.491 125.856 667.834 127.295 668.521 128.202C669.207 129.11 670.286 129.563 671.758 129.563C673.241 129.563 674.326 129.11 675.012 128.202C675.709 127.295 676.058 125.856 676.058 123.886C676.058 121.916 675.709 120.482 675.012 119.586C674.326 118.689 673.241 118.241 671.758 118.241C670.286 118.241 669.207 118.689 668.521 119.586ZM684.873 131.987V115.834C684.873 115.535 684.967 115.292 685.155 115.104C685.355 114.904 685.598 114.805 685.886 114.805H689.605C689.892 114.805 690.13 114.904 690.318 115.104C690.518 115.292 690.617 115.535 690.617 115.834V116.88C692.521 115.275 694.546 114.473 696.693 114.473C698.852 114.473 700.606 115.131 701.956 116.448C703.306 117.754 703.981 119.757 703.981 122.458V131.987C703.981 132.275 703.882 132.519 703.683 132.718C703.494 132.906 703.251 133 702.952 133H699.25C698.962 133 698.719 132.906 698.52 132.718C698.331 132.519 698.237 132.275 698.237 131.987V122.458C698.237 119.813 697.18 118.49 695.066 118.49C693.683 118.49 692.2 119.282 690.617 120.864V131.987C690.617 132.275 690.518 132.519 690.318 132.718C690.13 132.906 689.892 133 689.605 133H685.886C685.598 133 685.355 132.906 685.155 132.718C684.967 132.519 684.873 132.275 684.873 131.987ZM720.334 131.473V110.804C720.334 110.35 720.489 109.968 720.799 109.658C721.109 109.348 721.48 109.193 721.911 109.193H731.191C735.995 109.193 739.487 110.156 741.667 112.082C743.858 113.997 744.954 117.007 744.954 121.113C744.954 125.208 743.858 128.213 741.667 130.128C739.487 132.043 735.995 133 731.191 133H721.911C721.48 133 721.109 132.856 720.799 132.568C720.489 132.27 720.334 131.904 720.334 131.473ZM726.593 128.302H731.009C733.986 128.302 736.011 127.759 737.085 126.675C738.159 125.59 738.695 123.736 738.695 121.113C738.695 118.479 738.159 116.62 737.085 115.535C736.011 114.439 733.986 113.892 731.009 113.892H726.593V128.302ZM750.067 130.194C748.02 128.235 746.996 125.208 746.996 121.113C746.996 117.007 748.02 113.975 750.067 112.016C752.126 110.046 755.208 109.061 759.314 109.061H763.017C765.529 109.061 767.748 109.714 769.674 111.02C771.611 112.326 772.579 114.113 772.579 116.382C772.579 117.035 772.385 117.505 771.998 117.793C771.611 118.07 771.234 118.208 770.869 118.208H768.894C767.875 118.208 767.084 117.599 766.52 116.382C765.701 114.633 764.339 113.759 762.436 113.759H759.48C757.057 113.759 755.413 114.279 754.55 115.319C753.687 116.36 753.255 118.285 753.255 121.097C753.255 123.908 753.687 125.839 754.55 126.891C755.413 127.931 757.057 128.451 759.48 128.451H762.784C764.688 128.451 766.044 127.577 766.852 125.828C767.416 124.6 768.213 123.985 769.242 123.985H771.218C771.738 123.985 772.147 124.179 772.446 124.566C772.756 124.954 772.911 125.374 772.911 125.828C772.911 128.097 771.948 129.884 770.022 131.19C768.097 132.485 765.878 133.133 763.365 133.133H759.314C755.208 133.133 752.126 132.153 750.067 130.194ZM779.419 127.621C780.847 127.621 781.561 128.147 781.561 129.198C781.561 129.486 781.483 129.824 781.328 130.211L779.353 135.208C779.12 135.75 778.772 136.204 778.307 136.569C777.842 136.935 777.316 137.117 776.73 137.117H776.082C775.385 137.117 774.942 136.968 774.754 136.669C774.577 136.381 774.488 136.082 774.488 135.772C774.488 135.463 774.51 135.164 774.555 134.876L775.534 129.53C775.634 129.01 775.938 128.562 776.447 128.186C776.956 127.809 777.493 127.621 778.058 127.621H779.419ZM796.9 123.587V110.771C796.9 110.339 797.05 109.968 797.349 109.658C797.659 109.348 798.04 109.193 798.494 109.193H801.599C802.019 109.193 802.384 109.348 802.694 109.658C803.004 109.968 803.159 110.339 803.159 110.771V123.62C803.159 125.247 803.513 126.459 804.222 127.256C804.941 128.053 806.048 128.451 807.542 128.451H810.198C811.692 128.451 812.794 128.053 813.502 127.256C814.221 126.459 814.581 125.247 814.581 123.62V110.771C814.581 110.339 814.73 109.968 815.029 109.658C815.339 109.348 815.71 109.193 816.142 109.193H819.23C819.683 109.193 820.065 109.348 820.375 109.658C820.685 109.968 820.84 110.339 820.84 110.771V123.587C820.84 126.619 819.949 128.971 818.167 130.643C816.385 132.303 813.784 133.133 810.364 133.133H807.376C803.945 133.133 801.339 132.303 799.557 130.643C797.786 128.971 796.9 126.619 796.9 123.587ZM823.895 126.907C823.895 126.254 824.088 125.789 824.476 125.513C824.863 125.225 825.239 125.081 825.605 125.081H827.58C828.576 125.081 829.334 125.623 829.855 126.708C830.375 127.793 831.542 128.335 833.357 128.335L839.168 128.451C841.116 128.451 842.09 127.815 842.09 126.542C842.09 125.579 840.9 124.821 838.521 124.268C837.458 124.013 836.285 123.764 835.001 123.521C833.717 123.266 832.439 122.951 831.166 122.574C829.904 122.198 828.742 121.755 827.68 121.246C826.617 120.737 825.754 120.04 825.09 119.154C824.437 118.258 824.11 117.206 824.11 116C824.11 113.775 824.902 112.065 826.484 110.87C828.067 109.664 830.79 109.061 834.652 109.061L838.869 109.16C841.138 109.16 843.18 109.747 844.995 110.92C846.821 112.082 847.734 113.537 847.734 115.286C847.734 115.939 847.541 116.41 847.153 116.697C846.766 116.985 846.395 117.129 846.041 117.129H844.065C843.069 117.129 842.311 116.587 841.791 115.502C841.271 114.406 840.103 113.858 838.288 113.858L833.291 113.759C831.343 113.759 830.369 114.395 830.369 115.668C830.369 116.365 830.983 116.935 832.212 117.378C833.452 117.821 834.946 118.214 836.694 118.557C838.454 118.889 840.219 119.293 841.99 119.769C843.761 120.244 845.261 121.03 846.489 122.126C847.729 123.211 848.349 124.566 848.349 126.193C848.349 128.418 847.552 130.133 845.958 131.34C844.375 132.535 841.658 133.133 837.807 133.133L832.776 133.033C830.508 133.033 828.46 132.452 826.634 131.29C824.808 130.117 823.895 128.656 823.895 126.907ZM849.793 131.473L853.96 115.668C855.089 111.363 858.763 109.204 864.983 109.193H873.932C874.341 109.193 874.679 109.348 874.944 109.658C875.221 109.968 875.359 110.328 875.359 110.737V131.473C875.359 131.904 875.204 132.27 874.895 132.568C874.585 132.856 874.214 133 873.782 133H870.661C870.207 133 869.831 132.856 869.532 132.568C869.244 132.27 869.101 131.893 869.101 131.439V127.256H857.297L856.185 131.439C856.074 131.893 855.825 132.27 855.438 132.568C855.05 132.856 854.641 133 854.209 133H850.939C850.507 133 850.197 132.878 850.009 132.635C849.821 132.38 849.727 132.159 849.727 131.971C849.738 131.783 849.76 131.617 849.793 131.473ZM858.525 122.558H869.101V113.892H864.369C863.307 113.892 862.377 114.196 861.58 114.805C860.794 115.402 860.263 116.21 859.986 117.229L858.525 122.558Z" fill="#2F2E41"/>
</g>
<defs>
<clipPath id="clip0_2991_508">
<rect width="990" height="175" fill="white"/>
</clipPath>
</defs>
</svg>
