<svg width="1901" height="1121" viewBox="0 0 1901 1121" fill="none" xmlns="http://www.w3.org/2000/svg">
<g clip-path="url(#clip0_4729_296)">
<path d="M320.879 793.501C324.098 792.406 327.495 790.071 330.365 787.133C333.237 784.196 335.492 780.748 336.515 777.51L380.218 638.138L380.22 638.135C381.211 634.977 380.729 632.276 379.322 630.397C377.918 628.518 375.456 627.287 372.135 627.332L118.765 631.114C115.303 631.168 110.964 632.06 106.752 633.489C102.54 634.919 98.5528 636.853 95.7704 638.926L95.7704 638.929L-107.542 790.216C-110.208 792.205 -111.409 794.681 -111.38 797.024C-111.35 799.37 -110.087 801.806 -107.374 803.709L12.133 887.665L12.1347 887.667C14.9012 889.617 18.7862 890.982 22.8525 891.566C26.9178 892.147 31.0379 891.93 34.2562 890.834L320.879 793.501Z" fill="#71B8B8" fill-opacity="0.02" stroke="#71B8B8" stroke-opacity="0.04" stroke-width="9"/>
<path d="M319.199 399.494C316.99 396.909 313.563 394.619 309.771 393.041C305.979 391.461 301.941 390.643 298.554 390.893L152.907 401.91L152.904 401.91C149.603 402.159 147.273 403.607 146.049 405.61C144.823 407.61 144.591 410.353 145.863 413.421L243.208 647.375C244.541 650.571 246.976 654.272 249.864 657.655C252.752 661.038 256.024 664.025 258.98 665.842L258.983 665.841L474.807 798.67C477.642 800.41 480.387 800.609 482.553 799.714C484.721 798.818 486.515 796.742 487.278 793.517L521.007 651.416L521.008 651.413C521.795 648.121 521.625 644.007 520.661 640.014C519.695 636.022 517.968 632.275 515.758 629.692L319.199 399.494Z" fill="#71B8B8" fill-opacity="0.02" stroke="#71B8B8" stroke-opacity="0.04" stroke-width="9"/>
<path d="M203.397 431.971C204.514 428.76 204.764 424.645 204.214 420.575C203.667 416.504 202.336 412.605 200.413 409.806L117.451 289.59L117.45 289.588C115.571 286.863 113.144 285.581 110.798 285.533C108.453 285.484 105.967 286.667 103.959 289.312L-48.9793 491.352C-51.0673 494.115 -53.0349 498.084 -54.5 502.284C-55.965 506.484 -56.8943 510.816 -56.9724 514.285L-56.9704 514.287L-62.8358 767.643C-62.9092 770.968 -61.6966 773.439 -59.8317 774.858C-57.9645 776.278 -55.2674 776.781 -52.0972 775.814L87.6215 733.28L87.624 733.28C90.8635 732.299 94.3306 730.077 97.2928 727.231C100.253 724.385 102.617 721.003 103.734 717.793L203.397 431.971Z" fill="#71B8B8" fill-opacity="0.02" stroke="#71B8B8" stroke-opacity="0.04" stroke-width="9"/>
<path d="M260.302 447.507C260.638 450.891 262.14 454.729 264.35 458.191C266.558 461.655 269.404 464.634 272.326 466.365L398.136 540.57L398.138 540.572C400.989 542.254 403.729 542.398 405.878 541.454C408.027 540.513 409.785 538.395 410.495 535.151L464.335 287.539C465.069 284.154 465.186 279.726 464.75 275.299C464.313 270.873 463.336 266.551 461.948 263.371L461.946 263.37L360.767 31.0197C359.436 27.9718 357.297 26.2396 355.009 25.7358C352.718 25.2323 350.059 25.9093 347.589 28.12L238.693 125.445L238.691 125.446C236.164 127.698 233.952 131.171 232.461 134.999C230.972 138.826 230.248 142.888 230.584 146.271L260.302 447.507Z" fill="#71B8B8" fill-opacity="0.02" stroke="#71B8B8" stroke-opacity="0.04" stroke-width="9"/>
<path d="M407.982 1082.67C410.876 1084.45 414.839 1085.59 418.931 1085.93C423.024 1086.27 427.119 1085.82 430.268 1084.55L565.573 1029.53L565.576 1029.53C568.643 1028.28 570.419 1026.19 570.973 1023.91C571.528 1021.63 570.91 1018.95 568.762 1016.42L404.554 823.422C402.308 820.786 398.858 818.008 395.074 815.669C391.29 813.331 387.261 811.487 383.891 810.661L383.889 810.663L137.79 750.174C134.559 749.384 131.885 750.034 130.096 751.548C128.306 753.064 127.232 755.588 127.491 758.893L138.819 904.502L138.819 904.505C139.076 907.88 140.496 911.745 142.635 915.252C144.774 918.758 147.565 921.797 150.458 923.581L407.982 1082.67Z" fill="#71B8B8" fill-opacity="0.02" stroke="#71B8B8" stroke-opacity="0.04" stroke-width="9"/>
<path d="M426.22 923.995C422.926 924.84 419.359 926.906 416.272 929.614C413.182 932.321 410.668 935.585 409.399 938.735L355.088 1074.33L355.086 1074.33C353.854 1077.4 354.128 1080.13 355.385 1082.11C356.64 1084.09 359 1085.51 362.315 1085.72L615.223 1101.47C618.679 1101.68 623.074 1101.13 627.384 1100.03C631.694 1098.93 635.817 1097.31 638.751 1095.45L638.751 1095.45L853.114 960.276C855.926 958.499 857.314 956.123 857.466 953.784C857.617 951.443 856.545 948.917 853.986 946.811L741.303 853.898L741.301 853.896C738.693 851.738 734.925 850.078 730.916 849.183C726.907 848.29 722.783 848.189 719.49 849.033L426.22 923.995Z" fill="#71B8B8" fill-opacity="0.02" stroke="#71B8B8" stroke-opacity="0.04" stroke-width="9"/>
<path d="M154.898 358.784C157.942 360.299 161.992 361.068 166.099 361.037C170.206 361.009 174.243 360.184 177.263 358.63L307.013 291.554L307.016 291.553C309.957 290.034 311.536 287.789 311.88 285.468C312.226 283.148 311.367 280.532 308.998 278.205L127.943 100.921C125.466 98.5001 121.779 96.0459 117.798 94.061C113.817 92.076 109.638 90.6058 106.206 90.0892L106.205 90.091L-144.371 52.2003C-147.66 51.7065 -150.264 52.5966 -151.908 54.2669C-153.553 55.9393 -154.394 58.551 -153.835 61.8182L-129.331 205.797L-129.331 205.8C-128.768 209.137 -127.003 212.858 -124.555 216.156C-122.106 219.453 -119.051 222.226 -116.008 223.741L154.898 358.784Z" fill="#71B8B8" fill-opacity="0.02" stroke="#71B8B8" stroke-opacity="0.04" stroke-width="9"/>
<path d="M1580.17 793.501C1576.95 792.406 1573.55 790.071 1570.68 787.133C1567.81 784.196 1565.55 780.748 1564.53 777.51L1520.83 638.138L1520.83 638.135C1519.83 634.977 1520.32 632.276 1521.72 630.397C1523.13 628.518 1525.59 627.287 1528.91 627.332L1782.28 631.114C1785.74 631.168 1790.08 632.06 1794.29 633.489C1798.51 634.919 1802.49 636.853 1805.27 638.926L1805.27 638.929L2008.59 790.216C2011.25 792.205 2012.45 794.681 2012.42 797.024C2012.4 799.37 2011.13 801.806 2008.42 803.709L1888.91 887.665L1888.91 887.667C1886.14 889.617 1882.26 890.982 1878.19 891.566C1874.13 892.147 1870.01 891.93 1866.79 890.834L1580.17 793.501Z" fill="#71B8B8" fill-opacity="0.02" stroke="#71B8B8" stroke-opacity="0.04" stroke-width="9"/>
<path d="M1581.85 399.494C1584.06 396.909 1587.48 394.619 1591.27 393.041C1595.07 391.461 1599.1 390.643 1602.49 390.893L1748.14 401.91L1748.14 401.91C1751.44 402.159 1753.77 403.607 1755 405.61C1756.22 407.61 1756.45 410.353 1755.18 413.421L1657.84 647.375C1656.5 650.571 1654.07 654.272 1651.18 657.655C1648.29 661.038 1645.02 664.025 1642.06 665.842L1642.06 665.841L1426.24 798.67C1423.4 800.41 1420.66 800.609 1418.49 799.714C1416.32 798.818 1414.53 796.742 1413.77 793.517L1380.04 651.416L1380.04 651.413C1379.25 648.121 1379.42 644.007 1380.38 640.014C1381.35 636.022 1383.08 632.275 1385.29 629.692L1581.85 399.494Z" fill="#71B8B8" fill-opacity="0.02" stroke="#71B8B8" stroke-opacity="0.04" stroke-width="9"/>
<path d="M1697.65 431.971C1696.53 428.76 1696.28 424.645 1696.83 420.575C1697.38 416.504 1698.71 412.605 1700.63 409.806L1783.59 289.59L1783.6 289.588C1785.47 286.863 1787.9 285.581 1790.25 285.533C1792.59 285.484 1795.08 286.667 1797.09 289.312L1950.02 491.352C1952.11 494.115 1954.08 498.084 1955.54 502.284C1957.01 506.484 1957.94 510.816 1958.02 514.285L1958.02 514.287L1963.88 767.643C1963.95 770.968 1962.74 773.439 1960.88 774.858C1959.01 776.278 1956.31 776.781 1953.14 775.814L1813.42 733.28L1813.42 733.28C1810.18 732.299 1806.71 730.077 1803.75 727.231C1800.79 724.385 1798.43 721.003 1797.31 717.793L1697.65 431.971Z" fill="#71B8B8" fill-opacity="0.02" stroke="#71B8B8" stroke-opacity="0.04" stroke-width="9"/>
<path d="M1640.74 447.507C1640.41 450.891 1638.9 454.729 1636.69 458.191C1634.49 461.655 1631.64 464.634 1628.72 466.365L1502.91 540.57L1502.91 540.572C1500.06 542.254 1497.32 542.398 1495.17 541.454C1493.02 540.513 1491.26 538.395 1490.55 535.151L1436.71 287.539C1435.98 284.154 1435.86 279.726 1436.3 275.299C1436.73 270.873 1437.71 266.551 1439.1 263.371L1439.1 263.37L1540.28 31.0197C1541.61 27.9718 1543.75 26.2396 1546.04 25.7358C1548.33 25.2323 1550.99 25.9093 1553.46 28.12L1662.35 125.445L1662.35 125.446C1664.88 127.698 1667.09 131.171 1668.58 134.999C1670.07 138.826 1670.8 142.888 1670.46 146.271L1640.74 447.507Z" fill="#71B8B8" fill-opacity="0.02" stroke="#71B8B8" stroke-opacity="0.04" stroke-width="9"/>
<path d="M1493.06 1082.67C1490.17 1084.45 1486.21 1085.59 1482.11 1085.93C1478.02 1086.27 1473.93 1085.82 1470.78 1084.55L1335.47 1029.53L1335.47 1029.53C1332.4 1028.28 1330.63 1026.19 1330.07 1023.91C1329.52 1021.63 1330.13 1018.95 1332.28 1016.42L1496.49 823.422C1498.74 820.786 1502.19 818.008 1505.97 815.669C1509.75 813.331 1513.78 811.487 1517.15 810.661L1517.16 810.663L1763.26 750.174C1766.49 749.384 1769.16 750.034 1770.95 751.548C1772.74 753.064 1773.81 755.588 1773.55 758.893L1762.23 904.502L1762.23 904.505C1761.97 907.88 1760.55 911.745 1758.41 915.252C1756.27 918.758 1753.48 921.797 1750.59 923.581L1493.06 1082.67Z" fill="#71B8B8" fill-opacity="0.02" stroke="#71B8B8" stroke-opacity="0.04" stroke-width="9"/>
<path d="M1474.83 923.995C1478.12 924.84 1481.69 926.906 1484.77 929.614C1487.86 932.321 1490.38 935.585 1491.65 938.735L1545.96 1074.33L1545.96 1074.33C1547.19 1077.4 1546.92 1080.13 1545.66 1082.11C1544.4 1084.09 1542.04 1085.51 1538.73 1085.72L1285.82 1101.47C1282.37 1101.68 1277.97 1101.13 1273.66 1100.03C1269.35 1098.93 1265.23 1097.31 1262.29 1095.45L1262.29 1095.45L1047.93 960.276C1045.12 958.499 1043.73 956.123 1043.58 953.784C1043.43 951.443 1044.5 948.917 1047.06 946.811L1159.74 853.898L1159.74 853.896C1162.35 851.738 1166.12 850.078 1170.13 849.183C1174.14 848.29 1178.26 848.189 1181.56 849.033L1474.83 923.995Z" fill="#71B8B8" fill-opacity="0.02" stroke="#71B8B8" stroke-opacity="0.04" stroke-width="9"/>
<path d="M1746.15 358.784C1743.1 360.299 1739.05 361.068 1734.95 361.037C1730.84 361.009 1726.8 360.184 1723.78 358.63L1594.03 291.554L1594.03 291.553C1591.09 290.034 1589.51 287.789 1589.16 285.468C1588.82 283.148 1589.68 280.532 1592.05 278.205L1773.1 100.921C1775.58 98.5001 1779.27 96.0459 1783.25 94.061C1787.23 92.076 1791.41 90.6058 1794.84 90.0892L1794.84 90.091L2045.42 52.2003C2048.7 51.7065 2051.31 52.5966 2052.95 54.2669C2054.6 55.9393 2055.44 58.551 2054.88 61.8182L2030.38 205.797L2030.38 205.8C2029.81 209.137 2028.05 212.858 2025.6 216.156C2023.15 219.453 2020.1 222.226 2017.05 223.741L1746.15 358.784Z" fill="#71B8B8" fill-opacity="0.02" stroke="#71B8B8" stroke-opacity="0.04" stroke-width="9"/>
<path d="M1098.7 1097.11C1102.1 1097.07 1106.05 1095.9 1109.69 1094C1113.33 1092.1 1116.54 1089.52 1118.52 1086.76L1203.31 967.827L1203.31 967.825C1205.24 965.13 1205.62 962.412 1204.86 960.19C1204.11 957.968 1202.15 956.034 1198.98 955.046L956.943 880.026C953.634 879.004 949.233 878.505 944.785 878.557C940.337 878.609 935.947 879.21 932.659 880.318L932.658 880.32L692.439 961.058C689.287 962.121 687.377 964.102 686.677 966.339C685.978 968.578 686.423 971.285 688.412 973.937L775.971 1090.83L775.972 1090.83C777.997 1093.54 781.266 1096.05 784.951 1097.86C788.635 1099.68 792.619 1100.75 796.018 1100.71L1098.7 1097.11Z" fill="#71B8B8" fill-opacity="0.02" stroke="#71B8B8" stroke-opacity="0.04" stroke-width="9"/>
</g>
<defs>
<clipPath id="clip0_4729_296">
<rect width="1901" height="1121" fill="white"/>
</clipPath>
</defs>
</svg>
