<svg width="848" height="477" viewBox="0 0 848 477" fill="none" xmlns="http://www.w3.org/2000/svg">
<g clip-path="url(#clip0_4675_433)">
<rect width="848" height="477" transform="matrix(1 0 0 -1 0 477)" fill="#2C3030"/>
<path d="M870.868 156.876C872.282 157.449 873.545 157.333 874.466 156.759C875.329 156.22 875.962 155.235 876.124 153.862L876.15 153.582L880.805 87.0028L880.806 87.0019C880.916 85.4525 880.533 83.606 879.801 81.8765C879.069 80.1469 878.01 78.5846 876.818 77.5831L876.817 77.5828L771.218 -11.2797C770.025 -12.2814 768.306 -13.0561 766.477 -13.4817C764.648 -13.9072 762.763 -13.9713 761.25 -13.6014L696.466 2.37518C694.989 2.73879 694.036 3.57438 693.628 4.58071C693.246 5.52422 693.31 6.69463 693.984 7.90321L694.127 8.14562L755.319 106.203C756.159 107.546 757.533 109.031 759.086 110.339C760.639 111.646 762.338 112.747 763.809 113.344L763.81 113.344L870.868 156.876Z" stroke="#71B8B8" stroke-opacity="0.5"/>
<path d="M685.308 108.471C685.6 109.835 686.318 110.666 687.138 111.03C687.907 111.371 688.918 111.369 690.034 110.791L690.259 110.667L747.983 77.1647L747.985 77.1643C749.243 76.4364 750.503 75.1474 751.494 73.6178C752.485 72.0882 753.147 70.4096 753.297 68.96L753.296 68.959L767.605 -68.3117C767.755 -69.762 767.453 -71.5391 766.799 -73.2394C766.146 -74.9396 765.179 -76.4623 764.098 -77.4407L764.098 -77.4397L714.524 -122.103L714.523 -122.104C713.491 -123.035 712.424 -123.285 711.545 -123.098C710.666 -122.91 709.793 -122.244 709.227 -120.972L662.391 -15.3013C661.778 -13.9146 661.329 -11.9983 661.122 -10.0124C660.914 -8.02618 660.958 -6.05881 661.275 -4.57402L661.276 -4.57307L685.308 108.471Z" stroke="#71B8B8" stroke-width="2"/>
<path d="M347.873 99.9378C348.646 101.253 349.719 101.93 350.799 102.035C351.812 102.133 352.913 101.737 353.878 100.746L354.07 100.54L398.292 50.552L398.293 50.5515C399.324 49.3897 400.143 47.6912 400.616 45.8735C401.088 44.0558 401.199 42.1715 400.863 40.6514L400.862 40.6506L371.177 -94.1328C370.841 -95.6533 369.948 -97.3148 368.757 -98.7656C367.565 -100.216 366.108 -101.415 364.683 -102.042L303.559 -128.804C302.166 -129.415 300.902 -129.332 299.965 -128.782C299.087 -128.266 298.426 -127.298 298.225 -125.929L298.191 -125.65L287.048 -10.6039C286.896 -9.02696 287.082 -7.01237 287.518 -5.02973C287.955 -3.04681 288.632 -1.13936 289.436 0.229264L289.436 0.230106L347.873 99.9378Z" stroke="#71B8B8" stroke-opacity="0.5"/>
<path d="M788.032 297.519C788.139 298.91 788.74 299.829 789.504 300.298C790.221 300.739 791.224 300.872 792.406 300.447L792.646 300.354L854.315 274.832L854.317 274.832C855.661 274.278 857.081 273.168 858.267 271.784C859.452 270.4 860.332 268.824 860.673 267.407L860.673 267.406L893.123 133.261C893.465 131.844 893.402 130.042 892.981 128.27C892.559 126.498 891.804 124.86 890.862 123.747L890.862 123.748L847.674 72.884L847.673 72.8831C846.773 71.8232 845.749 71.4328 844.853 71.5018C843.957 71.571 843.003 72.1141 842.273 73.3001L781.79 171.797C780.998 173.09 780.298 174.93 779.828 176.87C779.358 178.811 779.14 180.767 779.257 182.281L779.257 182.282L788.032 297.519Z" stroke="#71B8B8" stroke-width="2"/>
<path d="M464.478 -16.5176C463.092 -16.3554 462.197 -15.7185 461.758 -14.9358C461.347 -14.2023 461.254 -13.1952 461.725 -12.0304L461.827 -11.7946L489.771 48.8151L489.772 48.817C490.378 50.1383 491.544 51.5137 492.974 52.6436C494.404 53.7734 496.013 54.5895 497.442 54.8746L497.443 54.8745L632.768 81.9871C634.198 82.2721 635.995 82.1383 637.75 81.6469C639.504 81.1555 641.11 80.336 642.186 79.351L642.185 79.3511L691.298 34.1821L691.299 34.1811C692.322 33.2405 692.672 32.2013 692.567 31.3091C692.463 30.4168 691.882 29.4846 690.668 28.8019L589.853 -27.7328C588.53 -28.473 586.664 -29.0995 584.706 -29.4922C582.748 -29.8849 580.786 -30.0253 579.278 -29.8488L579.277 -29.8487L464.478 -16.5176Z" stroke="#71B8B8" stroke-width="2"/>
<path d="M782.708 316.482C781.322 316.645 780.428 317.282 779.989 318.064C779.577 318.798 779.484 319.805 779.955 320.97L780.058 321.205L808.002 381.815L808.002 381.817C808.609 383.138 809.774 384.514 811.204 385.644C812.634 386.773 814.243 387.59 815.672 387.875L815.673 387.875L950.999 414.987C952.428 415.272 954.226 415.138 955.98 414.647C957.734 414.156 959.341 413.336 960.416 412.351L960.415 412.351L1009.53 367.182L1009.53 367.181C1010.55 366.241 1010.9 365.201 1010.8 364.309C1010.69 363.417 1010.11 362.485 1008.9 361.802L908.084 305.267C906.76 304.527 904.895 303.901 902.937 303.508C900.979 303.115 899.016 302.975 897.508 303.151L897.507 303.151L782.708 316.482Z" stroke="#71B8B8" stroke-width="2"/>
<path d="M315.73 -20.5238C316.994 -21.3768 317.603 -22.4899 317.641 -23.5745C317.676 -24.5911 317.212 -25.6662 316.163 -26.5675L315.945 -26.7456L263.302 -67.772L263.302 -67.7729C262.078 -68.7296 260.332 -69.442 258.488 -69.8002C256.645 -70.1584 254.757 -70.1517 253.261 -69.7217L253.26 -69.7211L120.585 -31.7078C119.088 -31.2776 117.486 -30.2832 116.112 -29.0035C114.738 -27.7239 113.632 -26.195 113.095 -24.7336L90.1881 37.9365C89.6652 39.365 89.8268 40.6217 90.434 41.5221C91.0033 42.3661 92.0106 42.9657 93.3891 43.0817L93.6701 43.0984L209.186 47.0619C210.77 47.1146 212.769 46.804 214.721 46.2453C216.672 45.6865 218.534 44.8915 219.85 44.0042L219.851 44.0037L315.73 -20.5238Z" stroke="#71B8B8" stroke-opacity="0.5"/>
<path d="M931.217 10.7333C931.909 9.52161 931.928 8.42375 931.558 7.60591C931.212 6.83936 930.457 6.16665 929.24 5.85464L928.989 5.79706L863.623 -7.68065L863.621 -7.68162C862.197 -7.97736 860.399 -7.85585 858.641 -7.37542C856.883 -6.89495 855.271 -6.08408 854.193 -5.103L854.193 -5.10215L752.062 87.7265C750.984 88.7083 750.024 90.2344 749.379 91.9379C748.734 93.6413 748.44 95.4207 748.594 96.8708L748.595 96.87L755.803 163.205L755.804 163.207C755.953 164.589 756.582 165.487 757.362 165.932C758.143 166.378 759.237 166.463 760.507 165.892L865.84 118.3C867.221 117.674 868.832 116.544 870.31 115.201C871.788 113.858 873.066 112.362 873.819 111.043L873.819 111.043L931.217 10.7333Z" stroke="#71B8B8" stroke-width="2"/>
<path d="M375.768 61.4685C375.875 62.8597 376.476 63.7786 377.241 64.2484C377.957 64.6886 378.96 64.8216 380.142 64.3969L380.382 64.304L442.051 38.7819L442.053 38.7817C443.397 38.2278 444.818 37.118 446.003 35.7339C447.189 34.3497 448.068 32.7741 448.409 31.3574L448.409 31.3564L480.86 -102.789C481.201 -104.206 481.139 -106.008 480.717 -107.78C480.295 -109.552 479.54 -111.19 478.599 -112.303L478.599 -112.303L435.41 -163.166L435.409 -163.167C434.51 -164.227 433.485 -164.617 432.589 -164.548C431.694 -164.479 430.739 -163.936 430.009 -162.75L369.526 -64.2526C368.734 -62.9598 368.034 -61.1204 367.565 -59.1797C367.095 -57.2387 366.877 -55.283 366.993 -53.7692L366.993 -53.7683L375.768 61.4685Z" stroke="#71B8B8" stroke-width="2"/>
<path d="M596.365 -80.0185C597.121 -81.3434 597.174 -82.611 596.727 -83.6C596.309 -84.527 595.417 -85.2856 594.077 -85.6294L593.803 -85.6926L528.437 -99.1703L528.436 -99.1708C526.915 -99.4868 525.034 -99.3525 523.222 -98.8574C521.411 -98.3623 519.721 -97.5205 518.57 -96.4725L518.569 -96.4717L416.438 -3.64382C415.287 -2.5954 414.29 -0.994209 413.625 0.761504C412.96 2.5171 412.645 4.37764 412.81 5.92592L420.019 72.2606C420.183 73.773 420.884 74.8282 421.827 75.3667C422.712 75.8714 423.88 75.963 425.168 75.4567L425.427 75.3473L530.758 27.7548C532.201 27.101 533.856 25.9374 535.359 24.5723C536.862 23.2069 538.179 21.6699 538.966 20.2917L538.966 20.2908L596.365 -80.0185Z" stroke="#71B8B8"/>
<path d="M1016.66 234.552C1017.78 233.513 1018.21 232.319 1018.07 231.241C1017.95 230.232 1017.33 229.242 1016.15 228.515L1015.91 228.373L957.52 196.039L957.519 196.038C956.161 195.284 954.326 194.852 952.449 194.785C950.572 194.718 948.708 195.018 947.297 195.676L947.297 195.677L822.154 253.875C820.743 254.533 819.314 255.765 818.156 257.243C816.998 258.72 816.144 260.403 815.841 261.93L802.966 327.402C802.672 328.894 803.027 330.11 803.767 330.905C804.461 331.65 805.549 332.086 806.929 331.986L807.209 331.959L921.935 317.896C923.507 317.702 925.434 317.084 927.275 316.228C929.116 315.372 930.831 314.297 931.993 313.216L931.994 313.215L1016.66 234.552Z" stroke="#71B8B8"/>
<path d="M353.168 84.6106C354.558 84.7346 355.563 84.2937 356.153 83.6171C356.705 82.983 357.002 82.0161 356.779 80.7797L356.727 80.528L341.74 15.4909L341.74 15.489C341.416 14.0717 340.556 12.4874 339.387 11.0895C338.217 9.69158 336.809 8.56426 335.468 7.99347L335.467 7.99338L208.523 -46.1664C207.181 -46.7372 205.394 -46.9731 203.577 -46.85C201.76 -46.7269 200.02 -46.2526 198.766 -45.5078L198.767 -45.5077L141.469 -11.3127L141.468 -11.3118C140.274 -10.5999 139.72 -9.65392 139.64 -8.75916C139.56 -7.86431 139.938 -6.83334 140.987 -5.91719L228.143 70.0026C229.287 70.9972 230.985 71.9913 232.822 72.7752C234.658 73.5592 236.551 74.0973 238.064 74.2323L238.065 74.2324L353.168 84.6106Z" stroke="#71B8B8" stroke-width="2"/>
<path d="M798.94 71.1889C800.459 71.0493 801.528 70.366 802.082 69.433C802.602 68.5585 802.712 67.3928 802.226 66.0982L802.121 65.8373L775.693 4.55114L775.693 4.55017C775.08 3.12287 773.892 1.65852 772.447 0.457909C771.003 -0.742627 769.345 -1.64443 767.826 -1.98692L767.825 -1.98683L633.218 -32.4576C631.698 -32.8001 629.815 -32.699 627.995 -32.2376C626.175 -31.7762 624.47 -30.9675 623.297 -29.9445L573.076 13.9886C571.93 14.9897 571.468 16.1693 571.567 17.2507C571.66 18.2645 572.255 19.2745 573.408 20.0392L573.646 20.1889L673.024 79.2132C674.387 80.0207 676.289 80.7098 678.269 81.1584C680.249 81.607 682.263 81.8053 683.844 81.6601L683.845 81.66L798.94 71.1889Z" stroke="#71B8B8"/>
<path d="M984.637 316.381C986.112 316.773 987.351 316.5 988.192 315.814C988.981 315.172 989.486 314.116 989.475 312.733L989.466 312.452L985.746 245.814L985.746 245.813C985.662 244.262 985.05 242.478 984.107 240.854C983.164 239.229 981.918 237.812 980.61 236.968L980.609 236.968L864.712 162.03C863.404 161.185 861.601 160.632 859.733 160.439C857.866 160.246 855.987 160.418 854.532 160.975L792.259 184.939C790.839 185.485 789.999 186.433 789.72 187.482C789.458 188.466 789.669 189.619 790.489 190.734L790.661 190.957L863.652 280.578C864.654 281.806 866.203 283.107 867.907 284.21C869.612 285.313 871.435 286.192 872.969 286.6L872.97 286.6L984.637 316.381Z" stroke="#71B8B8" stroke-opacity="0.5"/>
<path d="M249.173 61.5721C249.48 63.0666 250.278 64.0531 251.266 64.5005C252.193 64.9199 253.364 64.9001 254.597 64.2734L254.844 64.1397L312.82 31.0765L312.821 31.0764C314.172 30.3089 315.495 28.9654 316.528 27.3969C317.561 25.8285 318.274 24.0805 318.446 22.5332L318.445 22.5323L333.796 -114.625C333.968 -116.173 333.658 -118.033 332.998 -119.791C332.338 -121.548 331.345 -123.153 330.198 -124.206L280.965 -169.243C279.843 -170.271 278.619 -170.6 277.556 -170.381C276.558 -170.176 275.621 -169.472 274.989 -168.242L274.866 -167.988L227.23 -62.6767C226.579 -61.2326 226.105 -59.2658 225.879 -57.2483C225.653 -55.2306 225.679 -53.2066 225.999 -51.6519L225.999 -51.651L249.173 61.5721Z" stroke="#71B8B8"/>
<path d="M425.915 -32.5238C424.65 -33.3768 424.041 -34.4899 424.004 -35.5745C423.969 -36.5911 424.433 -37.6662 425.482 -38.5675L425.7 -38.7456L478.342 -79.772L478.343 -79.7729C479.566 -80.7296 481.313 -81.442 483.156 -81.8002C485 -82.1584 486.887 -82.1517 488.384 -81.7217L488.384 -81.7211L621.06 -43.7078C622.556 -43.2776 624.159 -42.2832 625.533 -41.0035C626.907 -39.7239 628.012 -38.195 628.55 -36.7336L651.456 25.9365C651.979 27.365 651.818 28.6217 651.211 29.5221C650.641 30.3661 649.634 30.9657 648.255 31.0817L647.974 31.0984L532.458 35.0619C530.875 35.1146 528.876 34.804 526.924 34.2453C524.972 33.6865 523.11 32.8915 521.794 32.0042L521.794 32.0037L425.915 -32.5238Z" stroke="#71B8B8" stroke-opacity="0.5"/>
</g>
<defs>
<clipPath id="clip0_4675_433">
<rect width="848" height="477" fill="white" transform="matrix(1 0 0 -1 0 477)"/>
</clipPath>
</defs>
</svg>
