<svg width="848" height="477" viewBox="0 0 848 477" fill="none" xmlns="http://www.w3.org/2000/svg">
<g clip-path="url(#clip0_4675_415)">
<path d="M-22.8796 339.124C-24.2934 338.551 -25.5568 338.667 -26.4775 339.241C-27.3406 339.78 -27.9736 340.765 -28.136 342.138L-28.1622 342.418L-32.817 408.997L-32.8173 408.998C-32.928 410.547 -32.5444 412.394 -31.8126 414.124C-31.0807 415.853 -30.0214 417.415 -28.8295 418.417L-28.8286 418.417L76.7706 507.28C77.963 508.281 79.6826 509.056 81.5113 509.482C83.3398 509.907 85.2257 509.971 86.7382 509.601L151.522 493.625C153 493.261 153.952 492.426 154.36 491.419C154.743 490.476 154.678 489.305 154.005 488.097L153.862 487.854L92.669 389.797C91.8289 388.454 90.4553 386.969 88.9023 385.661C87.3491 384.354 85.6504 383.253 84.1796 382.656L84.1787 382.656L-22.8796 339.124Z" stroke="#71B8B8" stroke-opacity="0.5"/>
<path d="M162.68 387.529C162.388 386.165 161.67 385.334 160.85 384.97C160.081 384.629 159.07 384.631 157.954 385.209L157.729 385.333L100.006 418.835L100.004 418.836C98.7452 419.564 97.485 420.853 96.4941 422.382C95.5033 423.912 94.8416 425.59 94.6917 427.04L94.6919 427.041L80.3832 564.312C80.2335 565.762 80.5351 567.539 81.1888 569.239C81.8425 570.94 82.8089 572.462 83.8904 573.441L83.8902 573.44L133.464 618.103L133.465 618.104C134.497 619.035 135.565 619.285 136.443 619.098C137.322 618.91 138.195 618.244 138.761 616.972L185.598 511.301C186.21 509.915 186.659 507.998 186.867 506.012C187.074 504.026 187.03 502.059 186.713 500.574L186.713 500.573L162.68 387.529Z" stroke="#71B8B8" stroke-width="2"/>
<path d="M500.115 396.062C499.342 394.747 498.269 394.07 497.189 393.965C496.177 393.867 495.075 394.263 494.11 395.254L493.919 395.46L449.696 445.448L449.695 445.448C448.665 446.61 447.845 448.309 447.373 450.127C446.9 451.944 446.79 453.829 447.126 455.349L447.126 455.349L476.811 590.133C477.147 591.653 478.04 593.315 479.232 594.766C480.423 596.216 481.88 597.415 483.306 598.042L544.429 624.804C545.822 625.415 547.087 625.332 548.023 624.782C548.901 624.266 549.562 623.298 549.763 621.929L549.798 621.65L560.941 506.604C561.092 505.027 560.906 503.012 560.47 501.03C560.034 499.047 559.356 497.139 558.552 495.771L558.552 495.77L500.115 396.062Z" stroke="#71B8B8" stroke-opacity="0.5"/>
<path d="M59.9567 198.481C59.8495 197.09 59.2486 196.171 58.4839 195.702C57.7672 195.261 56.7646 195.128 55.5821 195.553L55.3424 195.646L-6.32632 221.168L-6.32827 221.168C-7.67248 221.722 -9.09304 222.832 -10.2786 224.216C-11.4642 225.6 -12.3434 227.176 -12.6849 228.593L-12.6848 228.594L-45.135 362.739C-45.4764 364.156 -45.414 365.958 -44.9924 367.73C-44.5708 369.502 -43.8156 371.14 -42.874 372.253L-42.874 372.252L0.31455 423.116L0.315599 423.117C1.2149 424.177 2.23946 424.567 3.13512 424.498C4.03085 424.429 4.98523 423.886 5.71553 422.7L66.1983 324.203C66.9902 322.91 67.6902 321.07 68.16 319.13C68.6299 317.189 68.848 315.233 68.7314 313.719L68.7313 313.718L59.9567 198.481Z" stroke="#71B8B8" stroke-width="2"/>
<path d="M383.513 512.518C384.898 512.355 385.793 511.718 386.232 510.936C386.643 510.202 386.737 509.195 386.265 508.03L386.163 507.795L358.219 447.185L358.219 447.183C357.612 445.862 356.447 444.486 355.017 443.356C353.587 442.227 351.977 441.41 350.548 441.125L350.547 441.125L215.222 414.013C213.792 413.728 211.995 413.862 210.241 414.353C208.487 414.845 206.88 415.664 205.805 416.649L205.806 416.649L156.692 461.818L156.691 461.819C155.668 462.76 155.318 463.799 155.423 464.691C155.527 465.583 156.108 466.515 157.322 467.198L258.137 523.733C259.46 524.473 261.326 525.1 263.284 525.492C265.242 525.885 267.205 526.025 268.713 525.849L268.714 525.849L383.513 512.518Z" stroke="#71B8B8" stroke-width="2"/>
<path d="M65.2801 179.517C66.6659 179.355 67.5604 178.718 67.9994 177.936C68.4109 177.202 68.5042 176.195 68.033 175.03L67.9307 174.795L39.9864 114.185L39.9862 114.183C39.3794 112.862 38.2143 111.486 36.7843 110.356C35.3543 109.226 33.7451 108.41 32.3159 108.125L32.3149 108.125L-103.01 81.0128C-104.44 80.7279 -106.238 80.8616 -107.992 81.353C-109.746 81.8445 -111.352 82.6639 -112.428 83.6489L-112.427 83.6488L-161.54 128.818L-161.541 128.819C-162.564 129.759 -162.914 130.799 -162.81 131.691C-162.705 132.583 -162.124 133.515 -160.91 134.198L-60.0953 190.733C-58.7721 191.473 -56.9064 192.099 -54.9486 192.492C-52.9906 192.885 -51.0277 193.025 -49.5198 192.849L-49.5188 192.849L65.2801 179.517Z" stroke="#71B8B8" stroke-width="2"/>
<path d="M532.261 516.524C530.996 517.377 530.387 518.49 530.35 519.574C530.315 520.591 530.779 521.666 531.827 522.567L532.045 522.746L584.688 563.772L584.688 563.773C585.912 564.73 587.658 565.442 589.502 565.8C591.345 566.158 593.233 566.152 594.729 565.722L594.73 565.721L727.405 527.708C728.902 527.278 730.505 526.283 731.879 525.004C733.252 523.724 734.358 522.195 734.895 520.734L757.802 458.063C758.325 456.635 758.163 455.378 757.556 454.478C756.987 453.634 755.98 453.034 754.601 452.918L754.32 452.902L638.804 448.938C637.22 448.885 635.221 449.196 633.27 449.755C631.318 450.314 629.456 451.108 628.14 451.996L628.139 451.996L532.261 516.524Z" stroke="#71B8B8" stroke-opacity="0.5"/>
<path d="M-83.2272 485.267C-83.9191 486.478 -83.9373 487.576 -83.5679 488.394C-83.2217 489.161 -82.4665 489.833 -81.2494 490.145L-80.9988 490.203L-15.6324 503.681L-15.6307 503.682C-14.2072 503.977 -12.4087 503.856 -10.6507 503.375C-8.89265 502.895 -7.28083 502.084 -6.2032 501.103L-6.20272 501.102L95.9287 408.273C97.0067 407.292 97.9657 405.766 98.6112 404.062C99.2566 402.359 99.5505 400.579 99.3959 399.129L99.3954 399.13L92.187 332.795L92.1866 332.793C92.037 331.411 91.4079 330.513 90.6278 330.068C89.8476 329.622 88.7529 329.536 87.4829 330.108L-17.8494 377.7C-19.2303 378.326 -20.8418 379.456 -22.3197 380.799C-23.7977 382.142 -25.0756 383.638 -25.8285 384.957L-25.829 384.957L-83.2272 485.267Z" stroke="#71B8B8" stroke-width="2"/>
<path d="M472.22 434.532C472.113 433.14 471.512 432.221 470.748 431.752C470.031 431.311 469.028 431.178 467.846 431.603L467.606 431.696L405.937 457.218L405.935 457.218C404.591 457.772 403.171 458.882 401.985 460.266C400.799 461.65 399.92 463.226 399.579 464.643L399.579 464.644L367.129 598.789C366.787 600.206 366.85 602.008 367.271 603.78C367.693 605.552 368.448 607.19 369.39 608.304L369.39 608.303L412.578 659.166L412.579 659.167C413.479 660.227 414.503 660.617 415.399 660.548C416.295 660.479 417.249 659.936 417.979 658.75L478.462 560.253C479.254 558.96 479.954 557.12 480.424 555.18C480.894 553.239 481.112 551.283 480.995 549.769L480.995 549.768L472.22 434.532Z" stroke="#71B8B8" stroke-width="2"/>
<path d="M251.624 576.018C250.867 577.343 250.814 578.611 251.261 579.6C251.68 580.527 252.572 581.286 253.911 581.629L254.185 581.693L319.552 595.17L319.553 595.171C321.073 595.487 322.955 595.352 324.766 594.857C326.578 594.362 328.267 593.521 329.418 592.472L329.419 592.472L431.55 499.644C432.701 498.595 433.698 496.994 434.363 495.238C435.029 493.483 435.343 491.622 435.178 490.074L427.969 423.739C427.805 422.227 427.104 421.172 426.161 420.633C425.277 420.129 424.108 420.037 422.821 420.543L422.561 420.653L317.23 468.245C315.787 468.899 314.132 470.063 312.629 471.428C311.127 472.793 309.809 474.33 309.022 475.708L309.022 475.709L251.624 576.018Z" stroke="#71B8B8"/>
<path d="M-168.671 261.448C-169.788 262.487 -170.216 263.682 -170.084 264.759C-169.961 265.768 -169.335 266.758 -168.159 267.485L-167.916 267.627L-109.53 299.961L-109.529 299.962C-108.171 300.716 -106.335 301.148 -104.459 301.215C-102.582 301.282 -100.718 300.982 -99.3071 300.324L-99.3064 300.323L25.8362 242.125C27.2477 241.467 28.676 240.235 29.834 238.757C30.9918 237.28 31.8463 235.597 32.1496 234.07L45.0238 168.599C45.318 167.106 44.9627 165.89 44.2229 165.095C43.5291 164.35 42.4408 163.914 41.061 164.014L40.7809 164.041L-73.9448 178.104C-75.517 178.299 -77.4435 178.916 -79.2844 179.772C-81.1256 180.628 -82.8408 181.703 -84.0026 182.784L-84.0033 182.785L-168.671 261.448Z" stroke="#71B8B8"/>
<path d="M494.82 411.389C493.431 411.265 492.425 411.706 491.835 412.383C491.283 413.017 490.986 413.984 491.21 415.22L491.262 415.472L506.248 480.509L506.248 480.511C506.572 481.928 507.432 483.513 508.602 484.911C509.771 486.308 511.18 487.436 512.521 488.007L512.522 488.007L639.465 542.166C640.807 542.737 642.594 542.973 644.411 542.85C646.229 542.727 647.969 542.253 649.223 541.508L649.222 541.508L706.52 507.313L706.521 507.312C707.715 506.6 708.269 505.654 708.349 504.759C708.428 503.864 708.05 502.833 707.001 501.917L619.846 425.997C618.701 425.003 617.003 424.009 615.167 423.225C613.33 422.441 611.437 421.903 609.925 421.768L609.924 421.768L494.82 411.389Z" stroke="#71B8B8" stroke-width="2"/>
<path d="M49.0483 424.811C47.529 424.951 46.4601 425.634 45.9058 426.567C45.3862 427.442 45.276 428.607 45.7621 429.902L45.8675 430.163L72.2953 491.449L72.2954 491.45C72.9083 492.877 74.0967 494.341 75.5409 495.542C76.985 496.743 78.6433 497.644 80.1619 497.987L80.1629 497.987L214.771 528.458C216.29 528.8 218.173 528.699 219.993 528.238C221.813 527.776 223.518 526.967 224.692 525.944L274.913 482.011C276.058 481.01 276.521 479.831 276.421 478.749C276.328 477.735 275.733 476.725 274.58 475.961L274.342 475.811L174.964 416.787C173.602 415.979 171.699 415.29 169.719 414.842C167.739 414.393 165.725 414.195 164.144 414.34L164.143 414.34L49.0483 424.811Z" stroke="#71B8B8"/>
<path d="M-136.647 179.619C-138.121 179.227 -139.36 179.5 -140.202 180.186C-140.991 180.828 -141.495 181.884 -141.484 183.267L-141.475 183.548L-137.755 250.186L-137.756 250.187C-137.671 251.738 -137.06 253.522 -136.117 255.146C-135.174 256.771 -133.928 258.188 -132.62 259.032L-132.619 259.032L-16.7219 333.97C-15.4135 334.815 -13.6103 335.368 -11.7428 335.561C-9.87538 335.754 -7.99632 335.582 -6.54207 335.025L55.7313 311.061C57.1513 310.515 57.9916 309.567 58.2705 308.518C58.5318 307.534 58.321 306.381 57.5017 305.266L57.3294 305.043L-15.6619 215.422C-16.6636 214.194 -18.2124 212.893 -19.9169 211.79C-21.6217 210.687 -23.4448 209.808 -24.9787 209.4L-24.9797 209.4L-136.647 179.619Z" stroke="#71B8B8" stroke-opacity="0.5"/>
<path d="M598.815 434.428C598.508 432.933 597.711 431.947 596.722 431.499C595.795 431.08 594.624 431.1 593.392 431.727L593.144 431.86L535.168 464.923L535.167 464.924C533.816 465.691 532.493 467.035 531.46 468.603C530.427 470.171 529.715 471.92 529.543 473.467L529.543 473.468L514.192 610.625C514.02 612.173 514.33 614.033 514.99 615.791C515.651 617.548 516.644 619.153 517.79 620.206L567.023 665.243C568.145 666.271 569.369 666.6 570.433 666.381C571.43 666.176 572.368 665.472 573 664.242L573.122 663.988L620.758 558.677C621.41 557.233 621.883 555.266 622.11 553.248C622.336 551.231 622.309 549.207 621.99 547.652L621.99 547.651L598.815 434.428Z" stroke="#71B8B8"/>
<path d="M422.073 528.524C423.338 529.377 423.947 530.49 423.984 531.574C424.019 532.591 423.555 533.666 422.507 534.567L422.289 534.746L369.646 575.772L369.646 575.773C368.422 576.73 366.676 577.442 364.832 577.8C362.989 578.158 361.101 578.152 359.605 577.722L359.604 577.721L226.929 539.708C225.432 539.278 223.829 538.283 222.455 537.004C221.082 535.724 219.976 534.195 219.439 532.734L196.532 470.063C196.009 468.635 196.171 467.378 196.778 466.478C197.347 465.634 198.354 465.034 199.733 464.918L200.014 464.902L315.53 460.938C317.114 460.885 319.113 461.196 321.064 461.755C323.016 462.314 324.878 463.108 326.194 463.996L326.195 463.996L422.073 528.524Z" stroke="#71B8B8" stroke-opacity="0.5"/>
</g>
<defs>
<clipPath id="clip0_4675_415">
<rect width="848" height="477" fill="white" transform="matrix(-1 0 0 1 848 0)"/>
</clipPath>
</defs>
</svg>
