<svg width="233" height="34" viewBox="0 0 233 34" fill="none" xmlns="http://www.w3.org/2000/svg">
<path d="M29.5418 0.136753C28.6244 0.136753 27.2689 0.574905 26.5295 1.10892L0.554552 19.95C-0.18485 20.484 -0.18485 21.3603 0.554552 21.908L15.5617 32.78C16.3011 33.314 17.6156 33.5331 18.4919 33.2455L54.928 21.4014C55.8043 21.1139 56.7491 20.1828 57.023 19.3064L62.7739 1.69773C63.0614 0.821404 62.5411 0.123047 61.6237 0.123047L29.5418 0.136753Z" fill="#71B8B8"/>
<path d="M192.197 31.808C192.621 32.2188 193.114 32.4242 193.703 32.4242H197.756C198.345 32.4242 198.838 32.2188 199.248 31.808C199.659 31.3972 199.865 30.8769 199.865 30.2744V8.29773L207.779 30.4114C208.012 30.9591 208.381 31.4383 208.888 31.8354C209.408 32.2324 209.956 32.4242 210.545 32.4242H213.763C214.351 32.4242 214.899 32.2324 215.419 31.8354C215.94 31.4383 216.309 30.9591 216.529 30.4114L224.47 8.29773V30.2744C224.47 30.8906 224.676 31.3972 225.086 31.808C225.497 32.2188 225.99 32.4242 226.579 32.4242H230.632C231.221 32.4242 231.714 32.2188 232.124 31.808C232.535 31.3972 232.741 30.8769 232.741 30.2744V2.36884C232.741 1.75267 232.549 1.23234 232.152 0.821566C231.755 0.397095 231.262 0.191717 230.673 0.191717H221.513C220.924 0.191717 220.376 0.397095 219.842 0.821566C219.322 1.24604 218.966 1.73898 218.788 2.32776L212.147 21.5385L205.506 2.32776C205.328 1.73898 204.972 1.24604 204.452 0.821566C203.931 0.397095 203.37 0.191717 202.781 0.191717H193.634C193.046 0.191717 192.553 0.397095 192.156 0.821566C191.745 1.24604 191.553 1.75267 191.553 2.36884V30.2744C191.567 30.8769 191.786 31.3835 192.197 31.808ZM144.56 31.808C144.985 32.2188 145.478 32.4242 146.066 32.4242H150.119C150.708 32.4242 151.201 32.2188 151.612 31.808C152.023 31.3972 152.228 30.8769 152.228 30.2744V8.29773L160.142 30.4114C160.361 30.9591 160.731 31.4383 161.251 31.8354C161.772 32.2324 162.319 32.4242 162.908 32.4242H166.126C166.715 32.4242 167.262 32.2324 167.797 31.8354C168.317 31.4383 168.687 30.9591 168.892 30.4114L176.834 8.29773V30.2744C176.834 30.8906 177.039 31.3972 177.45 31.808C177.861 32.2188 178.367 32.4242 178.942 32.4242H182.995C183.584 32.4242 184.077 32.2188 184.488 31.808C184.899 31.3972 185.104 30.8769 185.104 30.2744V2.36884C185.104 1.75267 184.912 1.23234 184.515 0.821566C184.118 0.397095 183.625 0.191717 183.036 0.191717H173.89C173.301 0.191717 172.753 0.397095 172.219 0.821566C171.699 1.24604 171.343 1.73898 171.165 2.32776L164.524 21.5385L157.883 2.32776C157.705 1.73898 157.349 1.24604 156.829 0.821566C156.308 0.397095 155.747 0.191717 155.172 0.191717H146.012C145.423 0.191717 144.93 0.397095 144.533 0.821566C144.136 1.24604 143.93 1.75267 143.93 2.36884V30.2744C143.93 30.8769 144.149 31.3835 144.56 31.808ZM116.682 11.05C117.052 9.66701 117.777 8.57159 118.845 7.75003C119.913 6.92848 121.173 6.5177 122.611 6.5177H129.019V18.2523H114.696L116.682 11.05ZM102.784 31.0275C102.77 31.2877 102.893 31.5752 103.154 31.9175C103.414 32.2598 103.825 32.4242 104.413 32.4242H108.85C109.438 32.4242 109.986 32.2324 110.507 31.8354C111.027 31.4383 111.369 30.9317 111.52 30.3155L113.026 24.6467H129.019V30.3155C129.019 30.9317 129.224 31.4383 129.621 31.8354C130.019 32.2324 130.525 32.4242 131.141 32.4242H135.372C135.961 32.4242 136.454 32.2324 136.879 31.8354C137.303 31.4383 137.508 30.9454 137.508 30.3566V2.25928C137.508 1.71157 137.33 1.21867 136.961 0.794196C136.591 0.369724 136.125 0.164305 135.578 0.164305H123.46C115.039 0.177997 110.055 3.10822 108.521 8.94129L102.88 30.3566C102.825 30.5483 102.798 30.7673 102.784 31.0275ZM71.5099 30.0964C73.9883 31.6711 76.7542 32.4653 79.835 32.4653L86.654 32.6021C91.8709 32.6021 95.5542 31.7943 97.7039 30.1649C99.8537 28.5354 100.935 26.2214 100.935 23.209C100.935 21.0045 100.1 19.1697 98.4296 17.6909C96.7591 16.2121 94.719 15.1577 92.3227 14.5142C89.9265 13.8706 87.5303 13.3229 85.1615 12.8574C82.779 12.4055 80.7662 11.8715 79.0957 11.269C77.4252 10.6666 76.5899 9.89978 76.5899 8.95499C76.5899 7.22972 77.9044 6.36706 80.5471 6.36706L87.3112 6.504C89.7759 6.504 91.3506 7.24339 92.0626 8.7222C92.7609 10.201 93.7879 10.9404 95.1434 10.9404H97.8272C98.3064 10.9404 98.813 10.7487 99.3334 10.3516C99.8537 9.95454 100.114 9.32469 100.114 8.43466C100.114 6.06584 98.8815 4.09412 96.4168 2.50577C93.9522 0.91743 91.1725 0.136935 88.1054 0.136935L82.3956 0C77.165 0 73.468 0.807863 71.3319 2.43729C69.1822 4.06671 68.1141 6.38079 68.1141 9.39317C68.1141 11.0226 68.566 12.4466 69.456 13.6516C70.3461 14.8565 71.5099 15.8013 72.9476 16.4996C74.3854 17.1843 75.9601 17.7867 77.6853 18.2934C79.3969 18.8 81.1358 19.2245 82.8748 19.5668C84.6138 19.9091 86.2021 20.2377 87.6398 20.5937C90.8576 21.3468 92.4733 22.3738 92.4733 23.6746C92.4733 25.3998 91.1588 26.2625 88.5162 26.2625L80.6429 26.1119C78.1782 26.1119 76.6036 25.3725 75.9053 23.9074C75.2069 22.4422 74.18 21.7028 72.8244 21.7028H70.1544C69.6614 21.7028 69.1548 21.8945 68.6208 22.2779C68.1004 22.6613 67.8266 23.2912 67.8266 24.1812C67.7992 26.5363 69.0453 28.5081 71.5099 30.0964Z" fill="#F9F6F6"/>
</svg>
